<svg width="57" height="58" viewBox="0 0 57 58" fill="none" xmlns="http://www.w3.org/2000/svg">
<path fill-rule="evenodd" clip-rule="evenodd" d="M42.75 14.75V43.25H14.25V14.75H42.75ZM26.2456 21.875H23.47L18.2004 36.125H20.7045L21.6993 33.3392H28.0074L28.9809 36.125H31.6358L26.2456 21.875ZM36.0808 21.875H33.5868V36.125H36.0808V21.875ZM24.8366 24.2658L27.3209 31.375H22.392L24.8366 24.2658ZM45.1252 36.125H49.875V40.875H45.125L45.1252 36.125ZM16.6252 45.625H21.375V50.375H16.625L16.6252 45.625ZM26.1252 45.625H30.8751V50.375H26.1252V45.625ZM16.625 7.625H21.375V12.375H16.625V7.625ZM35.625 45.625H40.375V50.375H35.625V45.625ZM26.125 7.625H30.875V12.375H26.125V7.625ZM35.625 7.625H40.375V12.375H35.625V7.625ZM45.125 26.625H49.875V31.375H45.125V26.625ZM7.125 36.125H11.875V40.875H7.125V36.125ZM45.125 17.125H49.875V21.875H45.125V17.125ZM7.125 26.625H11.875V31.375H7.125V26.625ZM7.125 17.125H11.875V21.875H7.125V17.125Z" fill="#7625CC"/>
<path fill-rule="evenodd" clip-rule="evenodd" d="M45.1252 36.125H49.875V40.875H45.125L45.1252 36.125ZM16.6252 45.625H21.375V50.375H16.625L16.6252 45.625ZM26.1252 45.625H30.8751V50.375H26.1252V45.625ZM16.625 7.625H21.375V12.375H16.625V7.625ZM35.625 45.625H40.375V50.375H35.625V45.625ZM26.125 7.625H30.875V12.375H26.125V7.625ZM35.625 7.625H40.375V12.375H35.625V7.625ZM45.125 26.625H49.875V31.375H45.125V26.625ZM7.125 36.125H11.875V40.875H7.125V36.125ZM45.125 17.125H49.875V21.875H45.125V17.125ZM7.125 26.625H11.875V31.375H7.125V26.625ZM7.125 17.125H11.875V21.875H7.125V17.125Z" fill="#BD83FC"/>
</svg>
