<svg width="75" height="75" viewBox="0 0 75 75" fill="none" xmlns="http://www.w3.org/2000/svg">
<path d="M46.875 68.7719H15.625V62.5219H46.875V68.7719ZM68.75 12.5L53.9531 31.1094L53.2656 31.9531L35.6719 54.4219C35.0912 55.0026 34.4018 55.4632 33.6431 55.7775C32.8844 56.0917 32.0712 56.2535 31.25 56.2535C30.4288 56.2535 29.6156 56.0917 28.8569 55.7775C28.0982 55.4632 27.4088 55.0026 26.8281 54.4219C26.2474 53.8412 25.7868 53.1518 25.4725 52.3931C25.1583 51.6344 24.9965 50.8212 24.9965 50C24.9965 49.1788 25.1583 48.3656 25.4725 47.6069C25.7868 46.8482 26.2474 46.1588 26.8281 45.5781L68.75 12.5ZM8.26562 22.6063C3.75079 29.8357 2.12721 38.5015 3.71874 46.875H6.24999V43.75C6.21892 37.5973 8.06093 31.5807 11.5312 26.5L8.26562 22.6063ZM37.5 6.25C32.7207 6.24972 27.9943 7.24969 23.6246 9.18559C19.255 11.1215 15.3389 13.9505 12.1281 17.4906L15.7031 21.75C19.9457 17.8497 25.4872 15.6665 31.25 15.625C37.0441 15.6648 42.614 17.8696 46.8656 21.8063L57.9594 13.05C52.0515 8.63598 44.8747 6.25065 37.5 6.25ZM58.8437 35L58.1156 35.8969L55.8406 38.8031C56.108 40.4386 56.2449 42.0928 56.25 43.75V46.875H71.2812C72.7639 39.0544 71.4556 30.9614 67.5844 24.0063L58.8437 35Z" fill="#0E78AE"/>
</svg>
