<svg width="57" height="57" viewBox="0 0 57 57" fill="none" xmlns="http://www.w3.org/2000/svg">
<mask id="path-1-outside-1_318_118" maskUnits="userSpaceOnUse" x="4.30612" y="1.71021" width="48" height="54" fill="black">
<rect fill="white" x="4.30612" y="1.71021" width="48" height="54"/>
<path fill-rule="evenodd" clip-rule="evenodd" d="M44.2819 7.29546C44.776 7.79056 44.4171 8.62948 43.7282 8.62948C43.5294 8.62948 43.3292 8.5531 43.1765 8.39966L40.1534 5.37741L40.1536 16.4183C40.154 31.8581 27.544 44.4698 12.1044 44.4703L8.55398 44.4704C8.34673 44.4703 8.148 44.3879 8.00145 44.2413C7.8549 44.0948 7.77252 43.8961 7.7724 43.6888C7.77235 43.5862 7.79254 43.4845 7.8318 43.3897C7.87106 43.2948 7.92863 43.2086 8.00122 43.1361C8.0738 43.0635 8.15998 43.0059 8.25483 42.9666C8.34968 42.9274 8.45133 42.9072 8.55398 42.9072L12.1044 42.9071C26.7094 42.9068 38.5909 31.0241 38.5905 16.4184L38.5902 5.37752L35.5687 8.39989C35.4961 8.47253 35.4099 8.53016 35.3151 8.56947C35.2202 8.60879 35.1186 8.62903 35.0159 8.62903C34.9132 8.62903 34.8115 8.60879 34.7167 8.56947C34.6218 8.53016 34.5357 8.47253 34.4631 8.39989C34.1576 8.09574 34.1576 7.6012 34.4631 7.29568L38.8194 2.94123C39.1231 2.63286 39.6218 2.63354 39.925 2.94123L44.2819 7.29546ZM50.1307 52.7263L46.2208 52.7264L46.2198 12.0718L50.1297 12.0717L50.1307 52.7263ZM50.9113 10.5092L45.4382 10.5093C45.2311 10.5093 45.0325 10.5916 44.886 10.7381C44.7396 10.8845 44.6573 11.0831 44.6573 11.2902L44.6584 53.5073C44.6584 53.9386 45.008 54.2889 45.4393 54.2889L50.9123 54.2888C51.1195 54.2886 51.3183 54.2063 51.4648 54.0597C51.6114 53.9132 51.6937 53.7144 51.6939 53.5072L51.6928 11.29C51.6928 10.8588 51.3425 10.5092 50.9113 10.5092ZM38.1068 52.7266L38.1064 39.6228L34.1966 39.6229L34.1969 52.7267L38.1068 52.7266ZM38.888 38.0596L33.4157 38.0597C33.2084 38.0598 33.0096 38.1421 32.863 38.2887C32.7165 38.4352 32.6341 38.634 32.6341 38.8413L32.6344 53.5076C32.6345 53.7149 32.7168 53.9137 32.8634 54.0603C33.01 54.2068 33.2087 54.2892 33.416 54.2892L38.8884 54.2891C39.0956 54.289 39.2943 54.2066 39.4409 54.0601C39.5874 53.9135 39.6698 53.7148 39.6699 53.5075L39.6696 38.8412C39.6695 38.6339 39.5871 38.4352 39.4405 38.2887C39.294 38.1421 39.0953 38.0597 38.888 38.0596ZM26.0829 52.727L22.1737 52.7271L22.1736 47.3041L26.0827 47.304L26.0829 52.727ZM26.8643 45.7407L21.392 45.7408C21.1847 45.7409 20.986 45.8233 20.8394 45.9699C20.6929 46.1164 20.6105 46.3152 20.6104 46.5224L20.6105 53.5079C20.6106 53.7151 20.693 53.9138 20.8396 54.0604C20.9861 54.2069 21.1848 54.2893 21.3921 54.2895L26.8644 54.2893C27.0717 54.2893 27.2705 54.207 27.4171 54.0604C27.5636 53.9138 27.646 53.715 27.646 53.5078L27.6458 46.5223C27.6458 46.4197 27.6256 46.318 27.5863 46.2232C27.5471 46.1284 27.4895 46.0422 27.4169 45.9696C27.3444 45.8971 27.2582 45.8395 27.1634 45.8002C27.0686 45.7609 26.967 45.7407 26.8643 45.7407ZM14.0596 52.7272L10.1498 52.7273L10.1496 48.8175L14.0595 48.8173L14.0596 52.7272ZM14.8411 47.2542L9.36806 47.2543C9.1608 47.2544 8.96208 47.3368 8.81553 47.4833C8.66898 47.6299 8.58659 47.8286 8.58647 48.0359L8.58659 53.5082C8.58671 53.7155 8.66909 53.9142 8.81564 54.0607C8.96219 54.2073 9.16092 54.2897 9.36817 54.2898L14.8412 54.2897C15.2725 54.2897 15.6221 53.9394 15.6221 53.5081L15.622 48.0358C15.622 47.8286 15.5398 47.6299 15.3933 47.4833C15.2469 47.3367 15.0483 47.2543 14.8411 47.2542ZM6.86872 25.7659C6.86872 27.2342 8.06321 28.4273 9.53016 28.4273C9.85324 28.4273 10.1751 28.3264 10.4804 28.6749C10.8388 29.084 10.5765 29.4268 10.5765 30.0037C10.5765 32.1147 12.9231 33.3705 14.6748 32.243C15.1753 31.9207 15.8487 32.2586 15.8784 32.8633C16.0233 35.8163 19.0431 37.6802 21.7249 36.5892L21.7245 23.6348L17.1944 23.635C16.9021 25.1593 15.7761 26.4465 14.2558 26.901C14.1829 26.9225 14.1073 26.9336 14.0312 26.9339C13.1436 26.9339 12.9467 25.6618 13.8086 25.4037C14.9253 25.0691 15.7055 24.0209 15.7055 22.8534C15.7055 21.6866 14.9252 20.6371 13.8085 20.3039C13.395 20.1801 13.1592 19.7443 13.283 19.3308C13.4068 18.918 13.8421 18.6822 14.2556 18.8066C15.7759 19.2602 16.902 20.5475 17.1943 22.0718L21.7244 22.0717L21.7241 9.1174C19.044 8.02734 16.0227 9.89021 15.8778 12.8444C15.8485 13.4427 15.1777 13.7868 14.6742 13.4627C14.2456 13.1876 13.7468 13.0415 13.2374 13.042C11.5122 13.042 10.2459 14.6643 10.6511 16.3329C10.7779 16.8546 10.3462 17.3525 9.81026 17.2943C8.25211 17.1247 6.86838 18.3573 6.86838 19.94C6.86838 20.8592 7.33327 21.7013 8.11155 22.1932C8.5989 22.5005 8.59559 23.2097 8.11155 23.5147C7.3335 24.0058 6.86861 24.848 6.86872 25.7659ZM23.2878 27.2608C25.3856 26.8901 26.9837 25.0549 26.9836 22.853C26.9836 20.6512 25.3854 18.8168 23.2876 18.4455L23.2878 27.2608ZM24.1243 12.1593H23.2875L23.2876 16.8652C26.25 17.2503 28.5467 19.7872 28.5467 22.8529C28.5468 25.9186 26.2502 28.4558 23.2878 28.8403L23.2879 33.5469H24.1248L24.932 31.0639C24.9684 30.9522 25.0295 30.8502 25.1106 30.7653C25.1917 30.6804 25.2909 30.6148 25.4008 30.5733C26.2508 30.2542 27.0421 29.7968 27.7428 29.2195C27.8333 29.1444 27.9396 29.0909 28.0538 29.063C28.168 29.035 28.287 29.0334 28.402 29.0582L30.9594 29.6019L32.5771 26.7976L30.8289 24.8558C30.7503 24.7686 30.6924 24.6649 30.6593 24.5522C30.6263 24.4396 30.619 24.321 30.6379 24.2052C30.7874 23.3095 30.7874 22.3953 30.6378 21.4996C30.6188 21.3838 30.626 21.2652 30.6591 21.1526C30.6921 21.04 30.7501 20.9363 30.8288 20.8491L32.5769 18.9067L30.959 16.1037L28.4009 16.6477C28.2859 16.672 28.1669 16.6702 28.0527 16.6423C27.9385 16.6143 27.832 16.561 27.7412 16.4864C27.041 15.9091 26.25 15.4517 25.4004 15.1327C25.2903 15.0917 25.1909 15.0262 25.1097 14.9413C25.0285 14.8563 24.9676 14.7541 24.9316 14.6422L24.1243 12.1593ZM9.01329 30.0036C9.0134 32.8563 11.7886 34.8701 14.4765 34.0424C15.3813 37.7413 19.5534 39.5612 22.8771 37.7716C23.0014 37.7047 23.1052 37.6053 23.1776 37.484C23.2499 37.3627 23.2881 37.2241 23.2879 37.0829V35.1101H24.5081C24.7269 35.1106 24.9403 35.0416 25.1174 34.9129C25.2945 34.7843 25.426 34.6026 25.4931 34.3943L26.3049 31.8955C27.0645 31.5767 27.7807 31.163 28.4363 30.6642L31.0082 31.21C31.2222 31.2559 31.4453 31.2326 31.6452 31.1436C31.8452 31.0546 32.0118 30.9045 32.121 30.7148L34.1226 27.2481C34.2323 27.0588 34.2792 26.8395 34.2563 26.6219C34.2335 26.4043 34.1421 26.1996 33.9955 26.0372L32.2354 24.083C32.338 23.2665 32.3381 22.4381 32.2353 21.6223L33.9954 19.6687C34.142 19.5063 34.2333 19.3015 34.2562 19.0839C34.279 18.8663 34.2321 18.6471 34.1224 18.4578L32.1206 14.991C32.0117 14.801 31.8452 14.6506 31.6452 14.5615C31.4452 14.4723 31.222 14.4491 31.0079 14.4952L28.4354 15.0424C27.7802 14.5435 27.0645 14.1296 26.3053 13.8106L25.4927 11.3118C25.4255 11.1035 25.2939 10.922 25.1168 10.7933C24.9398 10.6647 24.7264 10.5956 24.5076 10.5961H23.2875V8.62276C23.2875 8.33502 23.1301 8.071 22.8766 7.93465C19.5501 6.14497 15.3803 7.96635 14.4762 11.6643C11.7926 10.8425 9.01306 12.819 9.01306 15.7481C6.92709 16.0037 5.30601 17.7861 5.30612 19.9399C5.30612 21.0448 5.72883 22.0785 6.46904 22.8535C5.72895 23.6285 5.30624 24.6623 5.30635 25.7659C5.30635 27.9209 6.92754 29.704 9.01352 29.9588C9.01329 29.9734 9.01329 29.9885 9.01329 30.0036Z"/>
</mask>
<path fill-rule="evenodd" clip-rule="evenodd" d="M44.2819 7.29546C44.776 7.79056 44.4171 8.62948 43.7282 8.62948C43.5294 8.62948 43.3292 8.5531 43.1765 8.39966L40.1534 5.37741L40.1536 16.4183C40.154 31.8581 27.544 44.4698 12.1044 44.4703L8.55398 44.4704C8.34673 44.4703 8.148 44.3879 8.00145 44.2413C7.8549 44.0948 7.77252 43.8961 7.7724 43.6888C7.77235 43.5862 7.79254 43.4845 7.8318 43.3897C7.87106 43.2948 7.92863 43.2086 8.00122 43.1361C8.0738 43.0635 8.15998 43.0059 8.25483 42.9666C8.34968 42.9274 8.45133 42.9072 8.55398 42.9072L12.1044 42.9071C26.7094 42.9068 38.5909 31.0241 38.5905 16.4184L38.5902 5.37752L35.5687 8.39989C35.4961 8.47253 35.4099 8.53016 35.3151 8.56947C35.2202 8.60879 35.1186 8.62903 35.0159 8.62903C34.9132 8.62903 34.8115 8.60879 34.7167 8.56947C34.6218 8.53016 34.5357 8.47253 34.4631 8.39989C34.1576 8.09574 34.1576 7.6012 34.4631 7.29568L38.8194 2.94123C39.1231 2.63286 39.6218 2.63354 39.925 2.94123L44.2819 7.29546ZM50.1307 52.7263L46.2208 52.7264L46.2198 12.0718L50.1297 12.0717L50.1307 52.7263ZM50.9113 10.5092L45.4382 10.5093C45.2311 10.5093 45.0325 10.5916 44.886 10.7381C44.7396 10.8845 44.6573 11.0831 44.6573 11.2902L44.6584 53.5073C44.6584 53.9386 45.008 54.2889 45.4393 54.2889L50.9123 54.2888C51.1195 54.2886 51.3183 54.2063 51.4648 54.0597C51.6114 53.9132 51.6937 53.7144 51.6939 53.5072L51.6928 11.29C51.6928 10.8588 51.3425 10.5092 50.9113 10.5092ZM38.1068 52.7266L38.1064 39.6228L34.1966 39.6229L34.1969 52.7267L38.1068 52.7266ZM38.888 38.0596L33.4157 38.0597C33.2084 38.0598 33.0096 38.1421 32.863 38.2887C32.7165 38.4352 32.6341 38.634 32.6341 38.8413L32.6344 53.5076C32.6345 53.7149 32.7168 53.9137 32.8634 54.0603C33.01 54.2068 33.2087 54.2892 33.416 54.2892L38.8884 54.2891C39.0956 54.289 39.2943 54.2066 39.4409 54.0601C39.5874 53.9135 39.6698 53.7148 39.6699 53.5075L39.6696 38.8412C39.6695 38.6339 39.5871 38.4352 39.4405 38.2887C39.294 38.1421 39.0953 38.0597 38.888 38.0596ZM26.0829 52.727L22.1737 52.7271L22.1736 47.3041L26.0827 47.304L26.0829 52.727ZM26.8643 45.7407L21.392 45.7408C21.1847 45.7409 20.986 45.8233 20.8394 45.9699C20.6929 46.1164 20.6105 46.3152 20.6104 46.5224L20.6105 53.5079C20.6106 53.7151 20.693 53.9138 20.8396 54.0604C20.9861 54.2069 21.1848 54.2893 21.3921 54.2895L26.8644 54.2893C27.0717 54.2893 27.2705 54.207 27.4171 54.0604C27.5636 53.9138 27.646 53.715 27.646 53.5078L27.6458 46.5223C27.6458 46.4197 27.6256 46.318 27.5863 46.2232C27.5471 46.1284 27.4895 46.0422 27.4169 45.9696C27.3444 45.8971 27.2582 45.8395 27.1634 45.8002C27.0686 45.7609 26.967 45.7407 26.8643 45.7407ZM14.0596 52.7272L10.1498 52.7273L10.1496 48.8175L14.0595 48.8173L14.0596 52.7272ZM14.8411 47.2542L9.36806 47.2543C9.1608 47.2544 8.96208 47.3368 8.81553 47.4833C8.66898 47.6299 8.58659 47.8286 8.58647 48.0359L8.58659 53.5082C8.58671 53.7155 8.66909 53.9142 8.81564 54.0607C8.96219 54.2073 9.16092 54.2897 9.36817 54.2898L14.8412 54.2897C15.2725 54.2897 15.6221 53.9394 15.6221 53.5081L15.622 48.0358C15.622 47.8286 15.5398 47.6299 15.3933 47.4833C15.2469 47.3367 15.0483 47.2543 14.8411 47.2542ZM6.86872 25.7659C6.86872 27.2342 8.06321 28.4273 9.53016 28.4273C9.85324 28.4273 10.1751 28.3264 10.4804 28.6749C10.8388 29.084 10.5765 29.4268 10.5765 30.0037C10.5765 32.1147 12.9231 33.3705 14.6748 32.243C15.1753 31.9207 15.8487 32.2586 15.8784 32.8633C16.0233 35.8163 19.0431 37.6802 21.7249 36.5892L21.7245 23.6348L17.1944 23.635C16.9021 25.1593 15.7761 26.4465 14.2558 26.901C14.1829 26.9225 14.1073 26.9336 14.0312 26.9339C13.1436 26.9339 12.9467 25.6618 13.8086 25.4037C14.9253 25.0691 15.7055 24.0209 15.7055 22.8534C15.7055 21.6866 14.9252 20.6371 13.8085 20.3039C13.395 20.1801 13.1592 19.7443 13.283 19.3308C13.4068 18.918 13.8421 18.6822 14.2556 18.8066C15.7759 19.2602 16.902 20.5475 17.1943 22.0718L21.7244 22.0717L21.7241 9.1174C19.044 8.02734 16.0227 9.89021 15.8778 12.8444C15.8485 13.4427 15.1777 13.7868 14.6742 13.4627C14.2456 13.1876 13.7468 13.0415 13.2374 13.042C11.5122 13.042 10.2459 14.6643 10.6511 16.3329C10.7779 16.8546 10.3462 17.3525 9.81026 17.2943C8.25211 17.1247 6.86838 18.3573 6.86838 19.94C6.86838 20.8592 7.33327 21.7013 8.11155 22.1932C8.5989 22.5005 8.59559 23.2097 8.11155 23.5147C7.3335 24.0058 6.86861 24.848 6.86872 25.7659ZM23.2878 27.2608C25.3856 26.8901 26.9837 25.0549 26.9836 22.853C26.9836 20.6512 25.3854 18.8168 23.2876 18.4455L23.2878 27.2608ZM24.1243 12.1593H23.2875L23.2876 16.8652C26.25 17.2503 28.5467 19.7872 28.5467 22.8529C28.5468 25.9186 26.2502 28.4558 23.2878 28.8403L23.2879 33.5469H24.1248L24.932 31.0639C24.9684 30.9522 25.0295 30.8502 25.1106 30.7653C25.1917 30.6804 25.2909 30.6148 25.4008 30.5733C26.2508 30.2542 27.0421 29.7968 27.7428 29.2195C27.8333 29.1444 27.9396 29.0909 28.0538 29.063C28.168 29.035 28.287 29.0334 28.402 29.0582L30.9594 29.6019L32.5771 26.7976L30.8289 24.8558C30.7503 24.7686 30.6924 24.6649 30.6593 24.5522C30.6263 24.4396 30.619 24.321 30.6379 24.2052C30.7874 23.3095 30.7874 22.3953 30.6378 21.4996C30.6188 21.3838 30.626 21.2652 30.6591 21.1526C30.6921 21.04 30.7501 20.9363 30.8288 20.8491L32.5769 18.9067L30.959 16.1037L28.4009 16.6477C28.2859 16.672 28.1669 16.6702 28.0527 16.6423C27.9385 16.6143 27.832 16.561 27.7412 16.4864C27.041 15.9091 26.25 15.4517 25.4004 15.1327C25.2903 15.0917 25.1909 15.0262 25.1097 14.9413C25.0285 14.8563 24.9676 14.7541 24.9316 14.6422L24.1243 12.1593ZM9.01329 30.0036C9.0134 32.8563 11.7886 34.8701 14.4765 34.0424C15.3813 37.7413 19.5534 39.5612 22.8771 37.7716C23.0014 37.7047 23.1052 37.6053 23.1776 37.484C23.2499 37.3627 23.2881 37.2241 23.2879 37.0829V35.1101H24.5081C24.7269 35.1106 24.9403 35.0416 25.1174 34.9129C25.2945 34.7843 25.426 34.6026 25.4931 34.3943L26.3049 31.8955C27.0645 31.5767 27.7807 31.163 28.4363 30.6642L31.0082 31.21C31.2222 31.2559 31.4453 31.2326 31.6452 31.1436C31.8452 31.0546 32.0118 30.9045 32.121 30.7148L34.1226 27.2481C34.2323 27.0588 34.2792 26.8395 34.2563 26.6219C34.2335 26.4043 34.1421 26.1996 33.9955 26.0372L32.2354 24.083C32.338 23.2665 32.3381 22.4381 32.2353 21.6223L33.9954 19.6687C34.142 19.5063 34.2333 19.3015 34.2562 19.0839C34.279 18.8663 34.2321 18.6471 34.1224 18.4578L32.1206 14.991C32.0117 14.801 31.8452 14.6506 31.6452 14.5615C31.4452 14.4723 31.222 14.4491 31.0079 14.4952L28.4354 15.0424C27.7802 14.5435 27.0645 14.1296 26.3053 13.8106L25.4927 11.3118C25.4255 11.1035 25.2939 10.922 25.1168 10.7933C24.9398 10.6647 24.7264 10.5956 24.5076 10.5961H23.2875V8.62276C23.2875 8.33502 23.1301 8.071 22.8766 7.93465C19.5501 6.14497 15.3803 7.96635 14.4762 11.6643C11.7926 10.8425 9.01306 12.819 9.01306 15.7481C6.92709 16.0037 5.30601 17.7861 5.30612 19.9399C5.30612 21.0448 5.72883 22.0785 6.46904 22.8535C5.72895 23.6285 5.30624 24.6623 5.30635 25.7659C5.30635 27.9209 6.92754 29.704 9.01352 29.9588C9.01329 29.9734 9.01329 29.9885 9.01329 30.0036Z" fill="#84255D"/>
<path fill-rule="evenodd" clip-rule="evenodd" d="M44.2819 7.29546C44.776 7.79056 44.4171 8.62948 43.7282 8.62948C43.5294 8.62948 43.3292 8.5531 43.1765 8.39966L40.1534 5.37741L40.1536 16.4183C40.154 31.8581 27.544 44.4698 12.1044 44.4703L8.55398 44.4704C8.34673 44.4703 8.148 44.3879 8.00145 44.2413C7.8549 44.0948 7.77252 43.8961 7.7724 43.6888C7.77235 43.5862 7.79254 43.4845 7.8318 43.3897C7.87106 43.2948 7.92863 43.2086 8.00122 43.1361C8.0738 43.0635 8.15998 43.0059 8.25483 42.9666C8.34968 42.9274 8.45133 42.9072 8.55398 42.9072L12.1044 42.9071C26.7094 42.9068 38.5909 31.0241 38.5905 16.4184L38.5902 5.37752L35.5687 8.39989C35.4961 8.47253 35.4099 8.53016 35.3151 8.56947C35.2202 8.60879 35.1186 8.62903 35.0159 8.62903C34.9132 8.62903 34.8115 8.60879 34.7167 8.56947C34.6218 8.53016 34.5357 8.47253 34.4631 8.39989C34.1576 8.09574 34.1576 7.6012 34.4631 7.29568L38.8194 2.94123C39.1231 2.63286 39.6218 2.63354 39.925 2.94123L44.2819 7.29546ZM50.1307 52.7263L46.2208 52.7264L46.2198 12.0718L50.1297 12.0717L50.1307 52.7263ZM50.9113 10.5092L45.4382 10.5093C45.2311 10.5093 45.0325 10.5916 44.886 10.7381C44.7396 10.8845 44.6573 11.0831 44.6573 11.2902L44.6584 53.5073C44.6584 53.9386 45.008 54.2889 45.4393 54.2889L50.9123 54.2888C51.1195 54.2886 51.3183 54.2063 51.4648 54.0597C51.6114 53.9132 51.6937 53.7144 51.6939 53.5072L51.6928 11.29C51.6928 10.8588 51.3425 10.5092 50.9113 10.5092ZM38.1068 52.7266L38.1064 39.6228L34.1966 39.6229L34.1969 52.7267L38.1068 52.7266ZM38.888 38.0596L33.4157 38.0597C33.2084 38.0598 33.0096 38.1421 32.863 38.2887C32.7165 38.4352 32.6341 38.634 32.6341 38.8413L32.6344 53.5076C32.6345 53.7149 32.7168 53.9137 32.8634 54.0603C33.01 54.2068 33.2087 54.2892 33.416 54.2892L38.8884 54.2891C39.0956 54.289 39.2943 54.2066 39.4409 54.0601C39.5874 53.9135 39.6698 53.7148 39.6699 53.5075L39.6696 38.8412C39.6695 38.6339 39.5871 38.4352 39.4405 38.2887C39.294 38.1421 39.0953 38.0597 38.888 38.0596ZM26.0829 52.727L22.1737 52.7271L22.1736 47.3041L26.0827 47.304L26.0829 52.727ZM26.8643 45.7407L21.392 45.7408C21.1847 45.7409 20.986 45.8233 20.8394 45.9699C20.6929 46.1164 20.6105 46.3152 20.6104 46.5224L20.6105 53.5079C20.6106 53.7151 20.693 53.9138 20.8396 54.0604C20.9861 54.2069 21.1848 54.2893 21.3921 54.2895L26.8644 54.2893C27.0717 54.2893 27.2705 54.207 27.4171 54.0604C27.5636 53.9138 27.646 53.715 27.646 53.5078L27.6458 46.5223C27.6458 46.4197 27.6256 46.318 27.5863 46.2232C27.5471 46.1284 27.4895 46.0422 27.4169 45.9696C27.3444 45.8971 27.2582 45.8395 27.1634 45.8002C27.0686 45.7609 26.967 45.7407 26.8643 45.7407ZM14.0596 52.7272L10.1498 52.7273L10.1496 48.8175L14.0595 48.8173L14.0596 52.7272ZM14.8411 47.2542L9.36806 47.2543C9.1608 47.2544 8.96208 47.3368 8.81553 47.4833C8.66898 47.6299 8.58659 47.8286 8.58647 48.0359L8.58659 53.5082C8.58671 53.7155 8.66909 53.9142 8.81564 54.0607C8.96219 54.2073 9.16092 54.2897 9.36817 54.2898L14.8412 54.2897C15.2725 54.2897 15.6221 53.9394 15.6221 53.5081L15.622 48.0358C15.622 47.8286 15.5398 47.6299 15.3933 47.4833C15.2469 47.3367 15.0483 47.2543 14.8411 47.2542ZM6.86872 25.7659C6.86872 27.2342 8.06321 28.4273 9.53016 28.4273C9.85324 28.4273 10.1751 28.3264 10.4804 28.6749C10.8388 29.084 10.5765 29.4268 10.5765 30.0037C10.5765 32.1147 12.9231 33.3705 14.6748 32.243C15.1753 31.9207 15.8487 32.2586 15.8784 32.8633C16.0233 35.8163 19.0431 37.6802 21.7249 36.5892L21.7245 23.6348L17.1944 23.635C16.9021 25.1593 15.7761 26.4465 14.2558 26.901C14.1829 26.9225 14.1073 26.9336 14.0312 26.9339C13.1436 26.9339 12.9467 25.6618 13.8086 25.4037C14.9253 25.0691 15.7055 24.0209 15.7055 22.8534C15.7055 21.6866 14.9252 20.6371 13.8085 20.3039C13.395 20.1801 13.1592 19.7443 13.283 19.3308C13.4068 18.918 13.8421 18.6822 14.2556 18.8066C15.7759 19.2602 16.902 20.5475 17.1943 22.0718L21.7244 22.0717L21.7241 9.1174C19.044 8.02734 16.0227 9.89021 15.8778 12.8444C15.8485 13.4427 15.1777 13.7868 14.6742 13.4627C14.2456 13.1876 13.7468 13.0415 13.2374 13.042C11.5122 13.042 10.2459 14.6643 10.6511 16.3329C10.7779 16.8546 10.3462 17.3525 9.81026 17.2943C8.25211 17.1247 6.86838 18.3573 6.86838 19.94C6.86838 20.8592 7.33327 21.7013 8.11155 22.1932C8.5989 22.5005 8.59559 23.2097 8.11155 23.5147C7.3335 24.0058 6.86861 24.848 6.86872 25.7659ZM23.2878 27.2608C25.3856 26.8901 26.9837 25.0549 26.9836 22.853C26.9836 20.6512 25.3854 18.8168 23.2876 18.4455L23.2878 27.2608ZM24.1243 12.1593H23.2875L23.2876 16.8652C26.25 17.2503 28.5467 19.7872 28.5467 22.8529C28.5468 25.9186 26.2502 28.4558 23.2878 28.8403L23.2879 33.5469H24.1248L24.932 31.0639C24.9684 30.9522 25.0295 30.8502 25.1106 30.7653C25.1917 30.6804 25.2909 30.6148 25.4008 30.5733C26.2508 30.2542 27.0421 29.7968 27.7428 29.2195C27.8333 29.1444 27.9396 29.0909 28.0538 29.063C28.168 29.035 28.287 29.0334 28.402 29.0582L30.9594 29.6019L32.5771 26.7976L30.8289 24.8558C30.7503 24.7686 30.6924 24.6649 30.6593 24.5522C30.6263 24.4396 30.619 24.321 30.6379 24.2052C30.7874 23.3095 30.7874 22.3953 30.6378 21.4996C30.6188 21.3838 30.626 21.2652 30.6591 21.1526C30.6921 21.04 30.7501 20.9363 30.8288 20.8491L32.5769 18.9067L30.959 16.1037L28.4009 16.6477C28.2859 16.672 28.1669 16.6702 28.0527 16.6423C27.9385 16.6143 27.832 16.561 27.7412 16.4864C27.041 15.9091 26.25 15.4517 25.4004 15.1327C25.2903 15.0917 25.1909 15.0262 25.1097 14.9413C25.0285 14.8563 24.9676 14.7541 24.9316 14.6422L24.1243 12.1593ZM9.01329 30.0036C9.0134 32.8563 11.7886 34.8701 14.4765 34.0424C15.3813 37.7413 19.5534 39.5612 22.8771 37.7716C23.0014 37.7047 23.1052 37.6053 23.1776 37.484C23.2499 37.3627 23.2881 37.2241 23.2879 37.0829V35.1101H24.5081C24.7269 35.1106 24.9403 35.0416 25.1174 34.9129C25.2945 34.7843 25.426 34.6026 25.4931 34.3943L26.3049 31.8955C27.0645 31.5767 27.7807 31.163 28.4363 30.6642L31.0082 31.21C31.2222 31.2559 31.4453 31.2326 31.6452 31.1436C31.8452 31.0546 32.0118 30.9045 32.121 30.7148L34.1226 27.2481C34.2323 27.0588 34.2792 26.8395 34.2563 26.6219C34.2335 26.4043 34.1421 26.1996 33.9955 26.0372L32.2354 24.083C32.338 23.2665 32.3381 22.4381 32.2353 21.6223L33.9954 19.6687C34.142 19.5063 34.2333 19.3015 34.2562 19.0839C34.279 18.8663 34.2321 18.6471 34.1224 18.4578L32.1206 14.991C32.0117 14.801 31.8452 14.6506 31.6452 14.5615C31.4452 14.4723 31.222 14.4491 31.0079 14.4952L28.4354 15.0424C27.7802 14.5435 27.0645 14.1296 26.3053 13.8106L25.4927 11.3118C25.4255 11.1035 25.2939 10.922 25.1168 10.7933C24.9398 10.6647 24.7264 10.5956 24.5076 10.5961H23.2875V8.62276C23.2875 8.33502 23.1301 8.071 22.8766 7.93465C19.5501 6.14497 15.3803 7.96635 14.4762 11.6643C11.7926 10.8425 9.01306 12.819 9.01306 15.7481C6.92709 16.0037 5.30601 17.7861 5.30612 19.9399C5.30612 21.0448 5.72883 22.0785 6.46904 22.8535C5.72895 23.6285 5.30624 24.6623 5.30635 25.7659C5.30635 27.9209 6.92754 29.704 9.01352 29.9588C9.01329 29.9734 9.01329 29.9885 9.01329 30.0036Z" stroke="#84255D" mask="url(#path-1-outside-1_318_118)"/>
</svg>
