<svg width="53" height="52" viewBox="0 0 53 52" fill="none" xmlns="http://www.w3.org/2000/svg">
<path d="M38.3097 8.9375H28.5312V6.0125C28.5312 5.71082 28.4114 5.42149 28.1981 5.20817C27.9848 4.99484 27.6954 4.875 27.3937 4.875H25.6062C25.3046 4.875 25.0152 4.99484 24.8019 5.20817C24.5886 5.42149 24.4688 5.71082 24.4688 6.0125V8.9375H14.6903C12.651 8.93858 10.6956 9.74915 9.25363 11.1911C7.81165 12.6331 7.00108 14.5885 7 16.6278V21.2103C7 26.2517 9.00267 31.0865 12.5674 34.6513C16.1322 38.2161 20.9671 40.2188 26.0084 40.2188H27.3937C27.6954 40.2188 27.9848 40.0989 28.1981 39.8856C28.4114 39.6723 28.5312 39.3829 28.5312 39.0812V37.2938C28.5312 36.9921 28.4114 36.7027 28.1981 36.4894C27.9848 36.2761 27.6954 36.1562 27.3937 36.1562H26.0084C22.0445 36.1562 18.243 34.5816 15.4401 31.7787C12.6372 28.9758 11.0625 25.1742 11.0625 21.2103V16.6278C11.0625 15.6657 11.4447 14.7429 12.1251 14.0626C12.8054 13.3822 13.7282 13 14.6903 13H38.3097C39.2718 13 40.1946 13.3822 40.8749 14.0626C41.5553 14.7429 41.9375 15.6657 41.9375 16.6278V21.5312C41.9349 22.6458 41.7985 23.7561 41.5312 24.8381C41.4604 25.1169 41.4982 25.4122 41.637 25.6642C41.7758 25.9162 42.0052 26.1059 42.2787 26.195L43.985 26.7516C44.1324 26.8005 44.2882 26.8186 44.4429 26.8047C44.5976 26.7909 44.7478 26.7454 44.8841 26.6712C45.0205 26.5969 45.1402 26.4954 45.2357 26.3729C45.3312 26.2505 45.4005 26.1097 45.4394 25.9594C45.8088 24.5122 45.9971 23.0248 46 21.5312V16.6278C45.9989 14.5885 45.1884 12.6331 43.7464 11.1911C42.3044 9.74915 40.349 8.93858 38.3097 8.9375Z" fill="#0D8A71"/>
<path d="M20 26C21.7949 26 23.25 24.5449 23.25 22.75C23.25 20.9551 21.7949 19.5 20 19.5C18.2051 19.5 16.75 20.9551 16.75 22.75C16.75 24.5449 18.2051 26 20 26Z" fill="#0D8A71"/>
<path d="M33 26C34.7949 26 36.25 24.5449 36.25 22.75C36.25 20.9551 34.7949 19.5 33 19.5C31.2051 19.5 29.75 20.9551 29.75 22.75C29.75 24.5449 31.2051 26 33 26Z" fill="#0D8A71"/>
<path d="M45.8903 37.7L49.5709 39.1503C49.6467 39.1802 49.7117 39.2323 49.7575 39.2997C49.8034 39.367 49.8279 39.4466 49.8279 39.5281C49.8279 39.6096 49.8034 39.6892 49.7575 39.7566C49.7117 39.8239 49.6467 39.876 49.5709 39.9059L45.8903 41.3562C45.2388 41.6139 44.647 42.0024 44.1516 42.4978C43.6561 42.9932 43.2676 43.585 43.01 44.2365L41.5597 47.8928C41.5297 47.9686 41.4777 48.0336 41.4103 48.0794C41.3429 48.1252 41.2633 48.1497 41.1819 48.1497C41.1004 48.1497 41.0208 48.1252 40.9534 48.0794C40.886 48.0336 40.834 47.9686 40.804 47.8928L39.3537 44.2365C39.0967 43.5846 38.7084 42.9925 38.2129 42.497C37.7174 42.0015 37.1253 41.6132 36.4734 41.3562L32.8172 39.9059C32.7414 39.876 32.6764 39.8239 32.6306 39.7566C32.5847 39.6892 32.5602 39.6096 32.5602 39.5281C32.5602 39.4466 32.5847 39.367 32.6306 39.2997C32.6764 39.2323 32.7414 39.1802 32.8172 39.1503L36.4734 37.7C37.1253 37.443 37.7174 37.0547 38.2129 36.5592C38.7084 36.0637 39.0967 35.4716 39.3537 34.8197L40.804 31.1634C40.834 31.0876 40.886 31.0226 40.9534 30.9768C41.0208 30.931 41.1004 30.9065 41.1819 30.9065C41.2633 30.9065 41.3429 30.931 41.4103 30.9768C41.4777 31.0226 41.5297 31.0876 41.5597 31.1634L43.01 34.8197C43.2676 35.4712 43.6561 36.063 44.1516 36.5584C44.647 37.0538 45.2388 37.4424 45.8903 37.7Z" fill="#31C9AA"/>
</svg>
