<svg width="55" height="55" viewBox="0 0 55 55" fill="none" xmlns="http://www.w3.org/2000/svg">
<path d="M26.0889 44.2587H4.29688C3.95499 44.2587 3.62712 44.1229 3.38537 43.8811C3.14362 43.6394 3.00781 43.3115 3.00781 42.9696V4.29688C3.00781 3.95499 3.14362 3.62712 3.38537 3.38537C3.62712 3.14362 3.95499 3.00781 4.29688 3.00781C4.63876 3.00781 4.96663 3.14362 5.20838 3.38537C5.45013 3.62712 5.58594 3.95499 5.58594 4.29688V41.6805H26.0889C26.4308 41.6805 26.7587 41.8164 27.0004 42.0581C27.2422 42.2999 27.378 42.6277 27.378 42.9696C27.378 43.3115 27.2422 43.6394 27.0004 43.8811C26.7587 44.1229 26.4308 44.2587 26.0889 44.2587Z" fill="#6638A5"/>
<path d="M20.7436 37.8985H14.9429C14.4006 37.8985 13.9159 37.559 13.7311 37.0494L7.94754 21.1123L5.23965 24.011C5.0031 24.2466 4.6844 24.3813 4.35057 24.3868C4.01674 24.3923 3.69379 24.2681 3.44961 24.0404C3.20544 23.8127 3.05906 23.4992 3.04126 23.1658C3.02347 22.8324 3.13563 22.5051 3.35418 22.2527L7.49895 17.8149C7.64927 17.6532 7.83863 17.533 8.04882 17.4657C8.25902 17.3983 8.483 17.3862 8.69925 17.4304C8.9155 17.4745 9.11676 17.5736 9.2837 17.718C9.45064 17.8624 9.57765 18.0472 9.65254 18.2549L15.8461 35.3212H20.7436C21.0855 35.3212 21.4134 35.457 21.6551 35.6987C21.8969 35.9405 22.0327 36.2684 22.0327 36.6103C22.0327 36.9521 21.8969 37.28 21.6551 37.5218C21.4134 37.7635 21.0855 37.8993 20.7436 37.8993V37.8985Z" fill="#6638A5"/>
<path d="M4.29777 33.9453C4.03144 33.9455 3.77161 33.8631 3.55397 33.7096C3.33634 33.5561 3.1716 33.339 3.08239 33.088C2.99319 32.8371 2.9839 32.5647 3.0558 32.3082C3.12771 32.0518 3.27727 31.8239 3.48394 31.6559L17.2339 20.4841C17.3704 20.3726 17.5283 20.2904 17.6978 20.2425C17.8674 20.1946 18.0449 20.182 18.2195 20.2055C18.3941 20.229 18.562 20.2882 18.7128 20.3792C18.8636 20.4703 18.9941 20.5914 19.0962 20.735L22.5028 25.5045L37.3708 10.4414C37.611 10.1981 37.9381 10.0602 38.28 10.058C38.6219 10.0558 38.9507 10.1896 39.194 10.4298C39.4373 10.67 39.5752 10.9971 39.5774 11.339C39.5795 11.6809 39.4458 12.0097 39.2056 12.253L23.2607 28.4058C23.1287 28.5395 22.9691 28.6427 22.793 28.7083C22.6168 28.7738 22.4285 28.8 22.2412 28.7851C22.0539 28.7702 21.8721 28.7145 21.7086 28.622C21.545 28.5295 21.4037 28.4023 21.2945 28.2494L17.7951 23.3501L5.11074 33.6566C4.8808 33.8436 4.5942 33.9456 4.29777 33.9453ZM48.4043 30.6075C47.9027 30.607 47.4067 30.5017 46.9482 30.2982C46.4897 30.0947 46.0788 29.7976 45.742 29.4259L39.9068 22.9127C39.7939 22.7865 39.7068 22.6394 39.6507 22.4797C39.5946 22.3199 39.5705 22.1507 39.5798 21.9816C39.5891 21.8126 39.6316 21.647 39.7049 21.4944C39.7782 21.3417 39.8808 21.205 40.007 21.0921C40.1331 20.9791 40.2802 20.8921 40.4399 20.836C40.5997 20.7799 40.7689 20.7558 40.938 20.7651C41.107 20.7744 41.2726 20.8169 41.4252 20.8902C41.5779 20.9634 41.7146 21.0661 41.8275 21.1922L47.6575 27.7002C47.8483 27.9116 48.1147 28.0294 48.4052 28.0294C48.5805 28.0294 48.8409 27.9847 49.0781 27.7733C49.1768 27.6865 49.2573 27.581 49.3147 27.4628C49.3722 27.3446 49.4056 27.2162 49.4128 27.085C49.4201 26.9538 49.4012 26.8224 49.3571 26.6986C49.3131 26.5748 49.2448 26.461 49.1563 26.3639L43.3297 19.867C43.2166 19.7411 43.1294 19.5941 43.073 19.4344C43.0167 19.2748 42.9924 19.1056 43.0014 18.9365C43.0105 18.7675 43.0528 18.6019 43.1258 18.4491C43.1989 18.2964 43.3013 18.1596 43.4273 18.0464C43.5532 17.9333 43.7002 17.8461 43.8599 17.7898C44.0195 17.7334 44.1887 17.7091 44.3578 17.7182C44.5268 17.7272 44.6924 17.7695 44.8452 17.8425C44.9979 17.9156 45.1347 18.018 45.2478 18.144L51.071 24.6366C51.3876 24.9847 51.6317 25.3925 51.789 25.836C51.9463 26.2795 52.0136 26.75 51.9871 27.2198C51.9632 27.6918 51.8452 28.1543 51.6401 28.5801C51.4349 29.0058 51.1468 29.3863 50.7925 29.6991C50.135 30.2849 49.2849 30.6083 48.4043 30.6075Z" fill="#6638A5"/>
<path d="M37.6673 18.9183C37.4872 18.9185 37.309 18.8809 37.1443 18.808C36.9795 18.7351 36.8319 18.6285 36.7109 18.4951C36.5898 18.3617 36.4981 18.2044 36.4415 18.0333C36.385 17.8623 36.3649 17.6813 36.3825 17.5021L36.8603 12.6896L32.5205 12.8443H32.4732C32.1356 12.8439 31.8115 12.711 31.5708 12.4742C31.33 12.2374 31.1918 11.9156 31.1859 11.578C31.1799 11.2403 31.3067 10.9139 31.5389 10.6687C31.7711 10.4236 32.0902 10.2793 32.4277 10.267L38.2422 10.0607C38.6324 10.0375 38.9727 10.1939 39.2279 10.4664C39.4823 10.7371 39.6078 11.1049 39.5717 11.4761L38.9486 17.7564C38.9171 18.0745 38.7685 18.3695 38.5318 18.5842C38.295 18.7989 37.9869 18.918 37.6673 18.9183Z" fill="#6638A5"/>
<path d="M36.4977 24.4217C35.1545 24.4217 33.8422 24.1751 32.6013 23.6895C32.2829 23.5651 32.0269 23.3193 31.8896 23.0062C31.7523 22.6931 31.7449 22.3383 31.8691 22.0198C31.9945 21.7021 32.2404 21.4469 32.5531 21.3097C32.8659 21.1726 33.2202 21.1646 33.5388 21.2876C34.4819 21.6565 35.4859 21.8451 36.4985 21.8436C40.981 21.8436 44.6274 18.1973 44.6274 13.7148C44.6274 9.23227 40.981 5.58594 36.4977 5.58594C32.0143 5.58594 28.3697 9.23227 28.3697 13.7148C28.3697 15.7798 29.1449 17.7487 30.5525 19.2586C30.6696 19.3821 30.761 19.5275 30.8216 19.6864C30.8822 19.8454 30.9107 20.0148 30.9055 20.1848C30.9003 20.3549 30.8615 20.5222 30.7913 20.6772C30.7212 20.8322 30.621 20.9717 30.4966 21.0878C30.3723 21.2039 30.2262 21.2942 30.0667 21.3536C29.9073 21.4129 29.7377 21.4401 29.5677 21.4336C29.3977 21.4271 29.2307 21.387 29.0762 21.3156C28.9218 21.2442 28.783 21.143 28.6679 21.0177C26.8162 19.0372 25.7878 16.4261 25.7916 13.7148C25.7916 7.81086 30.5938 3.00781 36.4977 3.00781C42.4016 3.00781 47.2055 7.81086 47.2055 13.7148C47.2055 19.6187 42.4016 24.4217 36.4977 24.4217ZM43.9381 26.7695C43.6834 26.7693 43.4343 26.6936 43.2226 26.5519C43.0108 26.4103 42.8457 26.209 42.7483 25.9736C42.6508 25.7382 42.6253 25.4792 42.6749 25.2293C42.7246 24.9794 42.8472 24.7498 43.0272 24.5695L46.2705 21.3245C46.3895 21.2015 46.5317 21.1033 46.689 21.0359C46.8463 20.9684 47.0155 20.9329 47.1867 20.9315C47.3578 20.9301 47.5276 20.9628 47.686 21.0277C47.8443 21.0926 47.9882 21.1883 48.1092 21.3094C48.2302 21.4305 48.3258 21.5745 48.3906 21.7329C48.4553 21.8914 48.4878 22.0611 48.4863 22.2323C48.4847 22.4035 48.4491 22.5726 48.3814 22.7298C48.3138 22.8871 48.2155 23.0293 48.0924 23.1481L44.8491 26.3914C44.5973 26.6432 44.2681 26.7695 43.9381 26.7695ZM36.4977 51.9922C29.7937 51.9922 24.3384 46.5369 24.3384 39.832C24.3384 33.1272 29.7937 27.6719 36.4985 27.6719C43.2034 27.6719 48.6587 33.1272 48.6587 39.832C48.6587 46.5369 43.2017 51.9922 36.4977 51.9922ZM36.4977 30.25C31.2151 30.25 26.9165 34.5486 26.9165 39.832C26.9165 45.1155 31.2151 49.4141 36.4985 49.4141C41.782 49.4141 46.0806 45.1155 46.0806 39.832C46.0806 34.5486 41.7803 30.25 36.4977 30.25Z" fill="#6638A5"/>
<path d="M35.2893 44.3437C34.9482 44.3437 34.6199 44.2088 34.3784 43.9665L31.1557 40.7438C31.0326 40.6249 30.9344 40.4827 30.8669 40.3254C30.7993 40.1681 30.7637 39.999 30.7623 39.8278C30.7608 39.6567 30.7934 39.4869 30.8582 39.3285C30.923 39.1701 31.0187 39.0261 31.1398 38.9051C31.2608 38.7841 31.4047 38.6884 31.5631 38.6235C31.7216 38.5587 31.8913 38.5261 32.0625 38.5276C32.2336 38.5291 32.4028 38.5646 32.5601 38.6322C32.7173 38.6998 32.8596 38.798 32.9785 38.9211L35.2266 41.1692L39.9592 35.7612C40.0701 35.6319 40.2055 35.5259 40.3576 35.4493C40.5097 35.3727 40.6755 35.327 40.8454 35.3148C41.0153 35.3027 41.1859 35.3243 41.3473 35.3784C41.5088 35.4326 41.6579 35.5182 41.7861 35.6303C41.9143 35.7424 42.019 35.8789 42.0942 36.0317C42.1694 36.1845 42.2135 36.3507 42.2241 36.5207C42.2346 36.6907 42.2114 36.8611 42.1557 37.022C42.1 37.183 42.013 37.3313 41.8996 37.4584L36.2596 43.9037C36.1434 44.0367 36.0011 44.1443 35.8416 44.22C35.6821 44.2957 35.5088 44.3378 35.3323 44.3437H35.2893Z" fill="#6638A5"/>
</svg>
