<svg width="57" height="56" viewBox="0 0 57 56" fill="none" xmlns="http://www.w3.org/2000/svg">
<path fill-rule="evenodd" clip-rule="evenodd" d="M45.0316 6.99996H41.3333C40.9016 6.99996 40.5166 7.23329 40.3066 7.60663L37.145 13.405C34.2633 12.8216 31.51 11.865 29.0133 10.6283C28.8521 10.5477 28.6744 10.5057 28.4941 10.5057C28.3139 10.5057 28.1362 10.5477 27.975 10.6283C25.4783 11.8766 22.725 12.8216 19.8433 13.405L16.6816 7.60663C16.4716 7.23329 16.0866 6.99996 15.655 6.99996H11.9566C11.4783 5.64663 10.1833 4.66663 8.65498 4.66663C6.71831 4.66663 5.15498 6.22996 5.15498 8.16663C5.15498 10.1033 6.71831 11.6666 8.65498 11.6666C10.1833 11.6666 11.4783 10.6866 11.9566 9.33329H14.9666L17.405 13.8016C15.515 14.035 13.5783 14.1166 11.6416 14C11.035 13.965 10.4983 14.4083 10.4166 15.015C10.1483 17.0683 9.96164 18.9933 9.85664 20.8016L7.48831 20.125V18.6666C7.48831 18.025 6.96331 17.5 6.32164 17.5C5.67998 17.5 5.15498 18.025 5.15498 18.6666V21C5.15498 21.525 5.50498 21.98 6.00664 22.12L9.76331 23.1933C9.71664 25.62 9.83331 27.8016 10.1016 29.785L6.00664 30.9516C5.50498 31.0916 5.15498 31.5583 5.15498 32.0716V34.405C5.15498 35.0466 5.67998 35.5716 6.32164 35.5716C6.96331 35.5716 7.48831 35.0466 7.48831 34.405V32.9466L10.4866 32.0833C11.0583 34.79 11.9566 37.0533 13.1233 38.9433L13.1933 39.0483L8.04831 42.14C7.69831 42.35 7.47664 42.735 7.47664 43.1433V44.5083C6.12331 44.9866 5.14331 46.2816 5.14331 47.81C5.14331 49.7466 6.70664 51.31 8.64331 51.31C10.58 51.31 12.1433 49.7466 12.1433 47.81C12.1433 46.2816 11.1633 44.9866 9.80998 44.5083V43.8083L14.57 40.95C16.0283 42.665 17.79 44.0183 19.8316 45.0916L18.2333 47.0866C18.07 47.2966 17.9766 47.5533 17.9766 47.81V50.1433C17.9766 50.785 18.5016 51.31 19.1433 51.31C19.785 51.31 20.31 50.785 20.31 50.1433V48.2183L22.025 46.0833C23.915 46.83 26.0033 47.39 28.2666 47.7983C28.4066 47.8216 28.5466 47.8216 28.6866 47.7983C30.95 47.39 33.0383 46.83 34.9283 46.0833L36.6433 48.2183V50.1433C36.6433 50.785 37.1683 51.31 37.81 51.31C38.4516 51.31 38.9766 50.785 38.9766 50.1433V47.81C38.9766 47.5416 38.8833 47.285 38.72 47.0866L37.1216 45.0916C39.1633 44.03 40.925 42.6766 42.3833 40.95L47.1433 43.8083V44.5083C45.79 44.9866 44.81 46.2816 44.81 47.81C44.81 49.7466 46.3733 51.31 48.31 51.31C50.2466 51.31 51.81 49.7466 51.81 47.81C51.81 46.2816 50.83 44.9866 49.4766 44.5083V43.1433C49.4778 42.9406 49.4255 42.7412 49.3252 42.5651C49.2249 42.3889 49.0799 42.2423 48.905 42.14L43.76 39.0483L43.83 38.9433C45.0083 37.0533 45.895 34.79 46.4666 32.0833L49.465 32.9466V34.405C49.465 35.0466 49.99 35.5716 50.6316 35.5716C51.2733 35.5716 51.7983 35.0466 51.7983 34.405V32.0716C51.7983 31.5466 51.4483 31.0916 50.9466 30.9516L46.8516 29.785C47.12 27.8016 47.225 25.6083 47.19 23.1933L50.9466 22.12C51.4483 21.98 51.7983 21.5133 51.7983 21V18.6666C51.7983 18.025 51.2733 17.5 50.6316 17.5C49.99 17.5 49.465 18.025 49.465 18.6666V20.125L47.0966 20.8016C46.9916 18.9933 46.805 17.0683 46.5366 15.015C46.455 14.4083 45.9183 13.965 45.3116 14C43.375 14.105 41.4383 14.035 39.5483 13.8016L41.9866 9.33329H44.9966C45.475 10.6866 46.77 11.6666 48.2983 11.6666C50.235 11.6666 51.7983 10.1033 51.7983 8.16663C51.7983 6.22996 50.235 4.66663 48.2983 4.66663C46.77 4.66663 45.475 5.64663 44.9966 6.99996H45.0316ZM48.3333 46.6666C48.975 46.6666 49.5 47.1916 49.5 47.8333C49.5 48.475 48.975 49 48.3333 49C47.6916 49 47.1666 48.475 47.1666 47.8333C47.1666 47.1916 47.6916 46.6666 48.3333 46.6666ZM8.66664 46.6666C9.30831 46.6666 9.83331 47.1916 9.83331 47.8333C9.83331 48.475 9.30831 49 8.66664 49C8.02498 49 7.49998 48.475 7.49998 47.8333C7.49998 47.1916 8.02498 46.6666 8.66664 46.6666ZM28.5 45.4766C22.55 44.3683 17.9183 42.2216 15.13 37.73C12.3416 33.2383 11.3966 26.4833 12.61 16.3683C18.2333 16.5083 23.775 15.2133 28.5 12.9616C33.225 15.2133 38.7666 16.5083 44.39 16.3683C45.6033 26.495 44.67 33.2383 41.87 37.73C39.0816 42.21 34.45 44.3566 28.5 45.465V45.4766ZM32 19.8333H29.6666V17.5C29.6666 16.8583 29.1416 16.3333 28.5 16.3333C27.8583 16.3333 27.3333 16.8583 27.3333 17.5V19.8333H25V17.5C25 16.8583 24.475 16.3333 23.8333 16.3333C23.1916 16.3333 22.6666 16.8583 22.6666 17.5V19.8333H21.5116C19.575 19.8333 18 21.3966 18 23.3333H15.6666C15.025 23.3333 14.5 23.8583 14.5 24.5C14.5 25.1416 15.025 25.6666 15.6666 25.6666H18V28H15.6666C15.025 28 14.5 28.525 14.5 29.1666C14.5 29.8083 15.025 30.3333 15.6666 30.3333H18V32.6666H15.6666C15.025 32.6666 14.5 33.1916 14.5 33.8333C14.5 34.475 15.025 35 15.6666 35H18C18 35.9216 18.3733 36.82 19.0266 37.4733C19.6916 38.1266 20.5783 38.5 21.5116 38.5H22.6666V40.8333C22.6666 41.475 23.1916 42 23.8333 42C24.475 42 25 41.475 25 40.8333V38.5H27.3333V40.8333C27.3333 41.475 27.8583 42 28.5 42C29.1416 42 29.6666 41.475 29.6666 40.8333V38.5H32V40.8333C32 41.475 32.525 42 33.1666 42C33.8083 42 34.3333 41.475 34.3333 40.8333V38.5H35.4883C37.425 38.5 39 36.9366 39 35H41.3333C41.975 35 42.5 34.475 42.5 33.8333C42.5 33.1916 41.975 32.6666 41.3333 32.6666H39V30.3333H41.3333C41.975 30.3333 42.5 29.8083 42.5 29.1666C42.5 28.525 41.975 28 41.3333 28H39V25.6666H41.3333C41.975 25.6666 42.5 25.1416 42.5 24.5C42.5 23.8583 41.975 23.3333 41.3333 23.3333H39C39 22.4116 38.6266 21.5133 37.9733 20.86C37.3083 20.2066 36.4216 19.8333 35.4883 19.8333H34.3333V17.5C34.3333 16.8583 33.8083 16.3333 33.1666 16.3333C32.525 16.3333 32 16.8583 32 17.5V19.8333ZM21.5116 22.1666H35.4766C35.7921 22.1672 36.0944 22.2928 36.3174 22.5159C36.5405 22.7389 36.666 23.0412 36.6666 23.3566V34.9883C36.6666 35.6416 36.1416 36.1666 35.4883 36.1666H21.5233C21.2079 36.166 20.9056 36.0404 20.6825 35.8174C20.4595 35.5944 20.3339 35.292 20.3333 34.9766V23.345C20.3333 22.6916 20.8583 22.1666 21.5116 22.1666ZM25.0933 32.6666H28.395L28.5816 33.11C28.8266 33.705 29.515 33.985 30.11 33.74C30.705 33.495 30.985 32.8066 30.74 32.2116L27.8233 25.2116C27.6366 24.78 27.2166 24.4883 26.75 24.4883C26.2833 24.4883 25.8516 24.7683 25.6766 25.2116L22.76 32.2116C22.515 32.8066 22.795 33.4833 23.39 33.74C23.985 33.985 24.6616 33.705 24.9183 33.11L25.105 32.6666H25.0933ZM34.3333 32.6666V25.6666C34.3333 25.025 33.8083 24.5 33.1666 24.5C32.525 24.5 32 25.025 32 25.6666V32.6666C32 33.3083 32.525 33.8333 33.1666 33.8333C33.8083 33.8333 34.3333 33.3083 34.3333 32.6666ZM26.0733 30.3333H27.4383L26.7616 28.7L26.085 30.3333H26.0733ZM48.3333 6.99996C48.975 6.99996 49.5 7.52496 49.5 8.16663C49.5 8.80829 48.975 9.33329 48.3333 9.33329C47.6916 9.33329 47.1666 8.80829 47.1666 8.16663C47.1666 7.52496 47.6916 6.99996 48.3333 6.99996ZM8.66664 6.99996C9.30831 6.99996 9.83331 7.52496 9.83331 8.16663C9.83331 8.80829 9.30831 9.33329 8.66664 9.33329C8.02498 9.33329 7.49998 8.80829 7.49998 8.16663C7.49998 7.52496 8.02498 6.99996 8.66664 6.99996Z" fill="#006BDE"/>
</svg>
