<svg width="55" height="55" viewBox="0 0 55 55" fill="none" xmlns="http://www.w3.org/2000/svg">
<g clip-path="url(#clip0_318_132)">
<path d="M43.9828 36.3602C44.7649 36.6094 45.6071 36.1797 45.8563 35.4062L47.2227 31.2125C47.3688 30.7656 47.1196 30.2758 46.6727 30.1297L44.7735 29.5109C44.8508 28.8406 44.8938 28.1703 44.8938 27.5C44.8938 26.8297 44.8508 26.1594 44.7735 25.4891L46.0711 25.068C46.4492 24.9477 46.7586 24.6812 46.9391 24.3289C47.1196 23.9766 47.1539 23.5727 47.025 23.1945L45.8563 19.6023C45.7963 19.4164 45.7001 19.2442 45.5734 19.0956C45.4467 18.947 45.2918 18.8248 45.1177 18.7362C44.9437 18.6475 44.7538 18.5942 44.559 18.5791C44.3643 18.5641 44.1685 18.5876 43.9828 18.6484L42.6852 19.0695C42.0245 17.8971 41.2316 16.8043 40.3219 15.8125L41.1297 14.7039C41.611 14.0422 41.4649 13.1055 40.8032 12.6242L37.7438 10.3984C37.0821 9.91719 36.1453 10.0633 35.6641 10.725L34.8563 11.8336C33.6274 11.2664 32.3469 10.8453 31.0321 10.5875V9.22109C31.0321 8.39609 30.3617 7.73438 29.5453 7.73438H25.7641C24.9391 7.73438 24.2774 8.40469 24.2774 9.22109V10.5875C22.9625 10.8453 21.6821 11.2664 20.4532 11.8336L19.6453 10.725C19.1641 10.0633 18.236 9.91719 17.5657 10.3984L14.5063 12.6242C14.1797 12.8562 13.9735 13.2 13.9133 13.5953C13.8532 13.9906 13.9477 14.3859 14.1797 14.7039L14.9789 15.8125C14.0673 16.8027 13.2742 17.8957 12.6157 19.0695L11.318 18.6484C11.1324 18.5869 10.9364 18.5628 10.7415 18.5775C10.5465 18.5923 10.3564 18.6455 10.1821 18.7342C10.0079 18.823 9.85296 18.9454 9.72635 19.0944C9.59975 19.2434 9.50397 19.4161 9.44456 19.6023L8.27581 23.1945C8.21427 23.3801 8.19017 23.5761 8.2049 23.7711C8.21963 23.966 8.2729 24.1562 8.36162 24.3304C8.45034 24.5047 8.57275 24.6596 8.72176 24.7862C8.87077 24.9128 9.04343 25.0086 9.22971 25.068L10.5274 25.4891C10.45 26.1594 10.4071 26.8297 10.4071 27.5C10.4071 28.1703 10.45 28.8406 10.5274 29.5109L8.62815 30.1297C8.18128 30.2758 7.93206 30.7656 8.07815 31.2125L9.44456 35.4062C9.56487 35.7844 9.83128 36.0937 10.1836 36.2742C10.536 36.4547 10.9399 36.4891 11.318 36.3602L12.6157 35.9391C13.2774 37.1164 14.068 38.2078 14.9789 39.1961L14.1797 40.3047C13.9477 40.6312 13.8532 41.018 13.9133 41.4133C13.9735 41.8086 14.1883 42.1523 14.5063 42.3844L17.5657 44.6102C18.2274 45.0914 19.1641 44.9453 19.6453 44.2836L20.4532 43.175C21.6821 43.7422 22.9625 44.1633 24.2774 44.4211V45.7875C24.2774 46.6125 24.9477 47.2742 25.7641 47.2742H29.5453C30.3703 47.2742 31.0321 46.6039 31.0321 45.7875V44.4211C32.3469 44.1633 33.6274 43.7422 34.8563 43.175L35.6555 44.2836C36.1367 44.9453 37.0735 45.1 37.7352 44.6102L40.7946 42.3844C41.4563 41.9031 41.611 40.9664 41.1211 40.3047L40.3219 39.1961C41.2328 38.2078 42.0235 37.1164 42.6852 35.9391L43.9828 36.3602ZM41.2672 34.9508C40.6313 36.1109 39.8492 37.1852 38.9469 38.1477C38.7082 38.4 38.5647 38.7275 38.5412 39.0741C38.5177 39.4207 38.6155 39.7646 38.818 40.0469L39.6 41.1211L36.9102 43.0719L36.1282 41.9977C35.7071 41.4219 34.9336 41.2242 34.2805 41.5336C33.0894 42.1002 31.83 42.5104 30.5336 42.7539C29.8289 42.8828 29.3133 43.5016 29.3133 44.2148V45.5383H25.9875V44.2148C25.9875 43.5016 25.4719 42.8828 24.7672 42.7539C23.4782 42.5133 22.2149 42.1008 21.0117 41.5336C20.3586 41.2242 19.5852 41.4219 19.1641 41.9977L18.3821 43.0719L15.6922 41.1211L16.4742 40.0469C16.8953 39.4711 16.8438 38.6719 16.3453 38.1477C15.4407 37.1837 14.6612 36.1096 14.025 34.9508C13.6813 34.3234 12.9336 34.0227 12.2633 34.2461L11 34.6586L9.97737 31.4961L11.2407 31.0836C11.9196 30.8602 12.3492 30.1898 12.2547 29.468C12.0834 28.1558 12.0834 26.827 12.2547 25.5148C12.3492 24.8016 11.9196 24.1227 11.2407 23.8992L9.97737 23.4867L11 20.3242L12.2633 20.7367C12.9422 20.9602 13.6813 20.6594 14.0336 20.032C14.6696 18.8719 15.4516 17.7977 16.3539 16.8352C16.8524 16.3109 16.9039 15.5117 16.4828 14.9359L15.7008 13.8617L18.3907 11.9109L19.1727 12.9852C19.5938 13.5609 20.3672 13.7586 21.0203 13.4492C22.2115 12.8826 23.4709 12.4724 24.7672 12.2289C25.4719 12.1 25.9875 11.4812 25.9875 10.768V9.44453H29.3133V10.768C29.3133 11.4812 29.8289 12.1 30.5336 12.2289C31.8227 12.4695 33.086 12.882 34.2891 13.4492C34.9422 13.7586 35.7157 13.5609 36.1367 12.9852L36.9188 11.9109L39.6086 13.8617L38.8266 14.9359C38.4055 15.5117 38.4571 16.3109 38.9555 16.8352C39.8578 17.7977 40.6399 18.8719 41.2758 20.032C41.6196 20.6594 42.3672 20.9602 43.0375 20.7367L44.3008 20.3242L45.3321 23.4867L44.0688 23.8992C43.3899 24.1227 42.9602 24.793 43.0547 25.5148C43.226 26.827 43.226 28.1558 43.0547 29.468C42.9602 30.1812 43.3899 30.8602 44.0688 31.0836L45.3321 31.4961L44.3008 34.6586L43.0375 34.2461C42.3586 34.0227 41.6196 34.3234 41.2758 34.9508H41.2672Z" fill="#4A9C0F"/>
<path d="M27.5 14.6094C20.393 14.6094 14.6094 20.393 14.6094 27.5C14.6094 34.607 20.393 40.3906 27.5 40.3906C34.607 40.3906 40.3906 34.607 40.3906 27.5C40.3906 20.393 34.607 14.6094 27.5 14.6094ZM27.5 38.6719C21.3383 38.6719 16.3281 33.6617 16.3281 27.5C16.3281 21.3383 21.3383 16.3281 27.5 16.3281C33.6617 16.3281 38.6719 21.3383 38.6719 27.5C38.6719 33.6617 33.6617 38.6719 27.5 38.6719Z" fill="#4A9C0F"/>
<path d="M29.4766 25.3516H30.7656V29.6484H29.4766V31.3672H33.7734V29.6484H32.4844V25.3516H33.7734V23.6328H29.4766V25.3516ZM25.3516 23.6328H23.6328C23.2289 23.6328 22.8852 23.9164 22.7906 24.3031L21.218 31.3672H22.9797L23.3578 29.6484H25.6094L25.9875 31.3672H27.7492L26.1766 24.3031C26.1339 24.112 26.0271 23.9412 25.8739 23.8192C25.7206 23.6973 25.5302 23.6315 25.3344 23.6328H25.3516ZM23.7531 27.9297L24.3289 25.3516H24.6727L25.2484 27.9297H23.7617H23.7531ZM40.0039 49.0617C30.5164 54.5703 18.5453 53.1695 10.5445 45.7359L12.1859 45.968L12.4266 44.2664L8.17267 43.6563C8.04048 43.6359 7.90538 43.6471 7.77829 43.6887C7.6512 43.7303 7.5357 43.8013 7.44113 43.8958C7.34657 43.9904 7.27561 44.1059 7.23399 44.233C7.19237 44.3601 7.18126 44.4952 7.20157 44.6273L7.81173 48.8813L9.51329 48.6406L9.26407 46.9047C14.2099 51.5498 20.7407 54.1344 27.5258 54.132C32.1063 54.132 36.7125 52.9547 40.8719 50.5399L40.0125 49.0531L40.0039 49.0617ZM50.6859 14.3602L49.1906 15.2109C54.5445 24.6555 53.0922 36.532 45.7445 44.4555L45.9766 42.8141L44.275 42.5734L43.6649 46.8274C43.6305 47.0938 43.7164 47.3688 43.9055 47.5578C44.0688 47.7211 44.2836 47.807 44.5156 47.807H44.6359L48.8899 47.1969L48.6492 45.4953L46.8875 45.7445C54.8453 37.2797 56.4352 24.5094 50.6859 14.3688V14.3602ZM14.3602 4.31407L15.2109 5.80938C24.6555 0.455477 36.532 1.90782 44.4555 9.26407L42.8141 9.03204L42.5734 10.7336L46.8274 11.3438H46.9477C47.0711 11.345 47.1933 11.3195 47.3058 11.2689C47.4184 11.2182 47.5186 11.1438 47.5995 11.0506C47.6804 10.9574 47.7401 10.8477 47.7745 10.7292C47.8088 10.6107 47.817 10.4861 47.7984 10.3641L47.1883 6.11016L45.4867 6.35079L45.7359 8.11251C37.2797 0.154696 24.5008 -1.43515 14.3602 4.31407ZM9.02345 12.1859L10.725 12.4266L11.3352 8.17267C11.3695 7.90626 11.2836 7.63126 11.0945 7.4422C10.9055 7.25313 10.6391 7.1586 10.3641 7.20157L6.11016 7.81173L6.35079 9.51329L8.11251 9.26407C0.154696 17.7203 -1.43515 30.4992 4.31407 40.6399L5.80938 39.7891C0.455477 30.3445 1.90782 18.468 9.26407 10.5445L9.03204 12.1859H9.02345Z" fill="#4A9C0F"/>
</g>
<defs>
<clipPath id="clip0_318_132">
<rect width="55" height="55" fill="white"/>
</clipPath>
</defs>
</svg>
