<svg width="55" height="55" viewBox="0 0 55 55" fill="none" xmlns="http://www.w3.org/2000/svg">
<g clip-path="url(#clip0_316_70)">
<path d="M45.2419 53.2258V49.8043C45.2419 49.2534 45.2969 48.7114 45.3856 48.1782L39.5894 43.7197C38.775 44.3925 37.7932 44.8315 36.7489 44.99L35.4723 45.1861C35.4476 47.9222 34.9837 50.6367 34.0982 53.2258H20.4032V45.2419H16.8548V53.2258H13.3065V38.1452H9.75806V53.2258H6.20968V41.6936H2.66129V53.2258H0V55H55V53.2258H45.2419ZM37.6049 22.896L38.2188 23.5861C38.6011 24.0164 38.854 24.5371 38.9657 25.0933C39.2787 25.0062 39.5973 24.941 39.9194 24.8982V17.7845C39.6426 17.7677 39.3685 17.7419 39.0873 17.7419C36.9981 17.7419 34.9498 18.2094 33.0772 19.0903C34.7615 20.1347 36.2864 21.4164 37.6049 22.896ZM29.4002 32.2646C32.0329 31.1765 34.3847 29.5056 36.2787 27.3776L36.8926 26.6874C37.1283 26.4228 37.2586 26.0807 37.2586 25.7263C37.2586 25.3718 37.1283 25.0298 36.8926 24.7651L36.2787 24.0749C34.3841 21.9477 32.0325 20.2769 29.4002 19.1879C30.9694 20.9204 31.9355 23.2091 31.9355 25.7258C31.9355 28.2425 30.9694 30.5321 29.4002 32.2646ZM46.4049 36.2805L50.4439 40.3194C52.0652 38.1394 53.0165 35.5344 53.1814 32.8226H47.8411C47.6834 34.0838 47.1871 35.2787 46.4049 36.2805ZM7.46226 26.6865L8.07613 27.3767C9.97026 29.5045 12.322 31.1754 14.9547 32.2637C13.3854 30.5321 12.4194 28.2425 12.4194 25.7258C12.4194 23.2091 13.3854 20.9204 14.9547 19.1879C12.3222 20.2766 9.97053 21.9474 8.07613 24.0749L7.46226 24.7651C7.22629 25.0294 7.09677 25.371 7.09677 25.7258C7.09677 26.0807 7.22629 26.4222 7.46226 26.6865ZM38.2188 27.8655L37.6058 28.5557C37.0201 29.2115 36.3928 29.829 35.7278 30.4044C35.5714 30.8999 35.4891 31.4159 35.4839 31.9355C35.4839 34.8709 37.871 37.2581 40.8064 37.2581C43.7419 37.2581 46.129 34.8709 46.129 31.9355C46.129 29.0001 43.7419 26.6129 40.8064 26.6129C40.0906 26.6129 39.3969 26.7646 38.736 27.0467C38.6063 27.3444 38.4319 27.6205 38.2188 27.8655ZM40.8064 29.2742C41.5123 29.2742 42.1892 29.5546 42.6883 30.0537C43.1874 30.5528 43.4677 31.2297 43.4677 31.9355C43.4677 32.6413 43.1874 33.3182 42.6883 33.8173C42.1892 34.3164 41.5123 34.5968 40.8064 34.5968C40.1006 34.5968 39.4237 34.3164 38.9246 33.8173C38.4255 33.3182 38.1452 32.6413 38.1452 31.9355C38.1452 31.2297 38.4255 30.5528 38.9246 30.0537C39.4237 29.5546 40.1006 29.2742 40.8064 29.2742ZM49.3252 22.1623C47.2844 20.0029 44.6133 18.5436 41.6935 17.993V24.8999C42.9545 25.0585 44.1492 25.5547 45.1515 26.3361L49.3252 22.1623ZM49.0848 41.9189C49.1602 41.8435 49.225 41.7601 49.2986 41.6829L45.1506 37.5348C44.1486 38.3161 42.9542 38.8123 41.6935 38.9711V39.2257C41.6927 40.3454 41.3686 41.441 40.7603 42.3811L45.8877 46.3251C46.375 45.0413 47.1291 43.8754 48.1002 42.9044L49.0848 41.9189Z" fill="#0E78AE"/>
<path d="M27.9436 40.8064C26.8347 40.8064 25.7737 40.5137 24.8387 39.9752V40.2973C24.8396 40.882 24.9667 41.4598 25.2113 41.9909C25.4559 42.5221 25.8124 42.9942 26.2562 43.375C26.7001 43.7557 27.2209 44.0362 27.7831 44.1972C28.3453 44.3582 28.9356 44.3959 29.5137 44.3078L36.4792 43.2362C37.439 43.0929 38.3149 42.6086 38.9467 41.8721C39.5785 41.1355 39.9238 40.196 39.9194 39.2256V38.971C36.4304 38.5328 33.7194 35.5575 33.7106 31.9541C31.0531 33.7438 28.0158 34.8909 24.8387 35.3047V37.769C25.6685 38.5802 26.7832 39.0337 27.9436 39.0323C28.5305 39.034 29.1119 38.9192 29.6542 38.6946C30.1964 38.47 30.6887 38.14 31.1025 37.7238L32.1954 36.6309L33.4498 37.8852L32.3569 38.9781C31.7788 39.5597 31.091 40.0208 30.3335 40.3346C29.5759 40.6485 28.7636 40.8088 27.9436 40.8064ZM47.842 31.0484H53.1823C53.0204 28.333 52.0768 25.7225 50.4652 23.5311L46.4058 27.5905C47.1873 28.5927 47.6835 29.7874 47.842 31.0484ZM53.2258 46.129C53.2209 44.508 52.6626 42.9372 51.6432 41.6767C51.2746 42.1535 50.8792 42.6091 50.459 43.041C51.1056 43.9407 51.4529 45.021 51.4516 46.129C51.4516 48.761 49.5293 50.9469 47.0161 51.3718V53.1646C50.5113 52.7255 53.2258 49.7413 53.2258 46.129ZM14.583 28.1777C14.7474 27.9673 14.9575 27.7969 15.1974 27.6795C15.4373 27.5621 15.7007 27.5007 15.9677 27.5C16.4383 27.5 16.8896 27.6869 17.2223 28.0196C17.555 28.3524 17.7419 28.8036 17.7419 29.2742C17.7412 29.6999 17.587 30.1111 17.3075 30.4323C17.028 30.7535 16.6421 30.9631 16.2206 31.0227C16.9667 31.8667 17.8835 32.5427 18.9104 33.0059C19.9373 33.4691 21.0509 33.709 22.1774 33.7097C26.5792 33.7097 30.1613 30.1285 30.1613 25.7258C30.1613 24.8698 30.0229 24.0474 29.7719 23.2739C29.6074 23.4843 29.3973 23.6547 29.1575 23.7721C28.9176 23.8895 28.6542 23.9509 28.3871 23.9516C27.9166 23.9516 27.4653 23.7647 27.1326 23.432C26.7998 23.0992 26.6129 22.648 26.6129 22.1774C26.6129 21.2841 27.2756 20.5523 28.1343 20.429C26.6706 18.7852 24.546 17.7419 22.1774 17.7419C17.7757 17.7419 14.1936 21.324 14.1936 25.7258C14.1936 26.5819 14.3319 27.4042 14.583 28.1777ZM22.1774 20.4032C23.5891 20.4032 24.9429 20.964 25.9411 21.9622C26.9392 22.9604 27.5 24.3142 27.5 25.7258C27.5 27.1374 26.9392 28.4913 25.9411 29.4894C24.9429 30.4876 23.5891 31.0484 22.1774 31.0484C20.7658 31.0484 19.412 30.4876 18.4138 29.4894C17.4156 28.4913 16.8548 27.1374 16.8548 25.7258C16.8548 24.3142 17.4156 22.9604 18.4138 21.9622C19.412 20.964 20.7658 20.4032 22.1774 20.4032ZM1.7742 0H15.9677V5.32258H1.7742V0ZM1.7742 7.09677H3.54839V8.87097H1.7742V7.09677ZM5.32259 7.09677H15.9677V8.87097H5.32259V7.09677ZM1.7742 10.6452H15.9677V12.4194H1.7742V10.6452ZM1.7742 14.1935H5.32259V15.9677H1.7742V14.1935ZM7.09678 14.1935H15.9677V15.9677H7.09678V14.1935Z" fill="#0E78AE"/>
</g>
<defs>
<clipPath id="clip0_316_70">
<rect width="55" height="55" fill="white"/>
</clipPath>
</defs>
</svg>
