<svg width="74" height="74" viewBox="0 0 74 74" fill="none" xmlns="http://www.w3.org/2000/svg">
<g clip-path="url(#clip0_316_9)">
<path d="M56.7144 30.9348C56.7144 16.6588 45.1412 5.08643 30.8654 5.08643C16.5897 5.08643 5.01709 16.6587 5.01709 30.9348C5.01709 45.2109 16.5895 56.7836 30.8654 56.7836C45.1342 56.7673 56.6975 45.2042 56.7144 30.9348ZM7.47884 30.9348C7.47884 18.019 17.9498 7.54802 30.8654 7.54802C43.7817 7.54802 54.252 18.019 54.252 30.9348C54.252 43.8511 43.7817 54.322 30.8654 54.322C17.9556 54.3068 7.4933 43.8451 7.47884 30.9348Z" fill="#255384"/>
<path d="M66.4144 59.522L66.4122 59.5184L66.4086 59.5154L63.8014 56.9082C63.5737 56.6788 63.3028 56.4968 63.0042 56.3729C62.7057 56.249 62.3855 56.1856 62.0623 56.1864H62.0599C61.8467 56.1893 61.6349 56.22 61.43 56.2777L58.3365 53.1843C58.449 52.7688 58.4501 52.3311 58.3398 51.915C58.2296 51.499 58.0117 51.1193 57.7083 50.8141L55.8161 48.9136C65.2108 35.8844 63.0229 17.824 50.7885 7.4154C38.5539 -2.99322 20.3765 -2.25914 9.02109 9.10208C-2.33416 20.4633 -3.059 38.6413 7.35603 50.8706C17.7703 63.0997 35.8319 65.2785 48.8567 55.8772L50.7441 57.7776C51.0461 58.086 51.4257 58.3071 51.8429 58.4176C52.2602 58.528 52.6995 58.5237 53.1145 58.4052L56.2079 61.4992C56.0896 61.9142 56.0856 62.3536 56.1964 62.7707C56.3071 63.1878 56.5286 63.5673 56.8372 63.869L59.4468 66.478L59.4492 66.4814L59.4526 66.4838L65.5423 72.5733C66.1499 73.1998 66.9132 73.6535 67.7538 73.8879C68.5945 74.1223 69.4824 74.129 70.3265 73.9073C71.1706 73.6858 71.9406 73.2439 72.5578 72.6268C73.1749 72.0097 73.6169 71.2397 73.8385 70.3956C74.0602 69.5515 74.0534 68.6637 73.8191 67.8231C73.5847 66.9824 73.1311 66.2192 72.5047 65.6115L66.4144 59.522ZM2.5555 30.9348C2.54611 18.4615 10.702 7.45147 22.6373 3.82592C34.5725 0.200969 47.4744 4.81384 54.4041 15.1852C61.3344 25.5567 60.6603 39.2415 52.7441 48.881C52.7144 48.9177 52.6842 48.9532 52.6545 48.9892C51.5314 50.3417 50.2859 51.5878 48.9339 52.7115C48.8896 52.7482 48.8453 52.7854 48.8012 52.8221C40.3418 59.7653 28.6371 61.2075 18.7456 56.5263C8.85386 51.8446 2.54895 41.8784 2.55536 30.9348H2.5555ZM51.3053 53.9109C51.5392 53.7015 51.77 53.4886 51.9975 53.2722C52.4134 52.8787 52.8179 52.4739 53.2115 52.0576C53.4258 51.8324 53.6365 51.604 53.8438 51.3724C53.9929 51.2053 54.1541 51.0499 54.2998 50.8792L55.9656 52.5526L55.9678 52.556L52.4867 56.0373V56.0379L50.8197 54.3605C50.9874 54.2172 51.1404 54.0576 51.3053 53.9109ZM56.8377 55.1668L59.4485 57.7775L57.7081 59.5178L55.0973 56.9072L56.8377 55.1668ZM62.0597 58.6474L63.8007 60.3889L60.3195 63.87L58.5786 62.1286L62.0597 58.6474ZM70.7636 70.833C69.7896 71.7629 68.2566 71.7629 67.2824 70.833L62.0603 65.6103L65.541 62.1298L70.7636 67.3519C71.2251 67.8136 71.4843 68.4396 71.4843 69.0924C71.4843 69.7452 71.2251 70.3713 70.7636 70.833Z" fill="#255384"/>
<path d="M36.7746 47.7735C37.3972 46.8254 38.1358 45.9588 38.9731 45.1937C39.9309 44.4291 40.6786 43.4337 41.1461 42.3008C41.6136 41.168 41.7855 39.9349 41.6456 38.7174C43.045 37.7197 43.9983 36.214 44.3017 34.5224C44.7872 30.3402 43.642 29.804 43.2107 29.6019C42.9507 29.4801 42.6679 29.4151 42.3809 29.411C42.3827 29.2095 42.3775 28.9865 42.3763 28.7763C45.1808 27.4593 46.8671 25.6322 46.8671 23.5496C46.8671 21.0262 44.4356 18.8521 40.2034 17.5002C39.8857 15.85 39.3907 14.2389 38.7267 12.6951C38.5794 12.3679 38.3626 12.0769 38.0913 11.8422C37.82 11.6074 37.5008 11.4347 37.1559 11.336C36.811 11.2373 36.4487 11.2151 36.0943 11.271C35.7399 11.3268 35.402 11.4592 35.1042 11.6591C34.909 11.7903 34.6965 11.9468 34.4643 12.1163C33.4649 13.0159 32.2037 13.5717 30.8654 13.7022C29.5271 13.5717 28.2658 13.0157 27.2667 12.1157C27.0349 11.9462 26.8218 11.7902 26.6268 11.6591C26.3291 11.4593 25.9914 11.3268 25.6372 11.2709C25.283 11.215 24.9209 11.237 24.5761 11.3354C24.2314 11.434 23.9124 11.6067 23.6413 11.8413C23.3702 12.0759 23.1535 12.3669 23.0065 12.6939C22.3417 14.2379 21.846 15.8494 21.5282 17.5002C17.2952 18.8521 14.8639 21.0262 14.8639 23.5496C14.8639 25.6322 16.5506 27.4593 19.3551 28.7757C19.3541 28.9853 19.3483 29.2078 19.3499 29.4092C19.063 29.4139 18.7804 29.4796 18.5209 29.6019C18.0888 29.804 16.9436 30.3402 17.4339 34.5639C17.7462 36.2396 18.697 37.7287 20.0859 38.7169C19.9459 39.9344 20.1176 41.1676 20.585 42.3005C21.0524 43.4335 21.8001 44.429 22.7579 45.1937C23.5955 45.9585 24.3341 46.8252 24.9564 47.7735C25.9431 49.1767 26.9638 50.6287 29.4063 50.6287H32.3245C34.7674 50.6287 35.7877 49.1767 36.7746 47.7735ZM21.8674 30.9941C21.8442 30.5836 21.8231 30.1655 21.8161 29.7143C23.9166 30.3287 26.0794 30.7052 28.2638 30.8368C28.382 30.8456 28.5002 30.8532 28.619 30.8607C28.9037 30.8777 29.1878 30.8945 29.4779 30.9049C29.5308 30.9067 29.5821 30.9125 29.635 30.9143V32.732C28.47 33.2298 27.2073 33.4569 25.9419 33.3963C25.114 33.378 24.3046 33.1475 23.5912 32.7269C22.8778 32.3063 22.2843 31.7096 21.8674 30.9941ZM32.0961 30.9143C32.1498 30.9125 32.2005 30.9069 32.2534 30.9049C32.5433 30.8945 32.8274 30.8777 33.1121 30.8607C33.2315 30.8532 33.3491 30.8456 33.4673 30.8368C35.6517 30.7052 37.8145 30.3288 39.915 29.7145C39.908 30.1655 39.8875 30.5836 39.8637 30.9941C39.4466 31.7095 38.8531 32.306 38.1397 32.7265C37.4264 33.1471 36.6171 33.3777 35.7892 33.3963C34.5243 33.4558 33.2622 33.2303 32.0961 32.7366V30.9143ZM25.2567 13.7052C25.4251 13.8182 25.6089 13.9526 25.8087 14.0987C27.2217 15.3238 28.9987 16.0498 30.8654 16.1646C32.7322 16.05 34.5094 15.3242 35.9227 14.0993C36.1219 13.9526 36.3058 13.8182 36.4851 13.711C37.188 15.3782 37.6835 17.1253 37.9606 18.9132C38.0043 19.1805 38.0385 19.4453 38.0718 19.7104C38.0956 19.8973 38.1231 20.0812 38.1421 20.2723C38.1784 20.6309 38.2004 20.9848 38.2179 21.3365C38.2225 21.4333 38.2337 21.5269 38.2372 21.6242C36.3428 22.6467 34.2638 23.2819 32.1213 23.4926C31.7037 23.5304 31.2847 23.5494 30.8654 23.5496C29.6756 23.5449 28.4907 23.3953 27.337 23.1041C25.9993 22.7713 24.7083 22.2732 23.4937 21.6212C23.4967 21.5252 23.5077 21.4327 23.5124 21.3371C23.5304 20.9837 23.5526 20.6291 23.5887 20.2693C23.6079 20.0794 23.6352 19.8967 23.659 19.711C23.6923 19.4459 23.7271 19.1805 23.7698 18.9132C24.0468 17.1221 24.5463 15.3726 25.2567 13.7052ZM17.3261 23.5496C17.3261 22.4015 18.7649 21.1758 21.1147 20.2413C21.1072 20.3228 21.1101 20.4008 21.1037 20.4819C21.0536 21.0879 21.0187 21.6993 21.0187 22.3188C21.0187 22.5214 21.0686 22.7209 21.1642 22.8995C21.2597 23.0782 21.3979 23.2305 21.5665 23.3429C24.3682 25.0559 27.5816 25.978 30.8654 26.0112C34.1492 25.978 37.3626 25.0559 40.1643 23.3429C40.333 23.2305 40.4713 23.0783 40.567 22.8996C40.6627 22.721 40.7128 22.5214 40.7128 22.3188C40.7128 21.6993 40.6772 21.0879 40.6279 20.4813C40.6213 20.4003 40.6237 20.3228 40.6167 20.2413C42.9667 21.1758 44.4053 22.4015 44.4053 23.5496C44.4053 24.6978 42.9859 25.9147 40.6179 26.8509C40.4542 26.9161 40.2807 26.9749 40.1107 27.0366C37.6536 27.8676 35.0889 28.3372 32.4968 28.4305C32.424 28.4339 32.3531 28.4404 32.2796 28.4439C31.8162 28.4632 31.3446 28.4724 30.8654 28.473C30.3862 28.4736 29.9152 28.4636 29.4518 28.4439C29.3779 28.4404 29.3068 28.4339 29.234 28.4305C26.6419 28.3372 24.0772 27.8676 21.6201 27.0366C21.4507 26.9749 21.2766 26.9161 21.1135 26.8509C18.7451 25.9147 17.3261 24.699 17.3261 23.5496ZM26.9698 46.3569C26.2371 45.2483 25.368 44.2363 24.3828 43.3445C22.4055 41.6066 22.4742 40.2097 22.5703 38.2768L22.5802 38.0775C22.5902 37.8629 22.5439 37.6494 22.4461 37.4582C22.3483 37.2669 22.2023 37.1045 22.0224 36.987C21.9496 36.9392 21.8717 36.8998 21.7901 36.8694C21.302 36.5922 20.8787 36.2142 20.5483 35.7605C20.2179 35.3068 19.988 34.7879 19.874 34.2383C19.8007 33.602 19.7744 32.9611 19.7954 32.3209C20.4327 33.3864 21.3321 34.2709 22.4081 34.8902C23.4841 35.5094 24.7007 35.8429 25.9421 35.8587C27.639 35.9363 29.3293 35.5977 30.8654 34.8724C32.4018 35.5977 34.0922 35.9363 35.7893 35.8587C37.0307 35.8427 38.2473 35.5092 39.3231 34.8898C40.399 34.2704 41.2984 33.3858 41.9355 32.3203C41.9564 32.944 41.9325 33.5676 41.864 34.1877C41.756 34.747 41.5282 35.2763 41.1962 35.7393C40.8642 36.2022 40.4359 36.5878 39.9408 36.8694C39.8593 36.8998 39.7816 36.9393 39.709 36.9872C39.5291 37.1046 39.383 37.2669 39.2852 37.4582C39.1873 37.6494 39.1412 37.8629 39.1512 38.0775L39.1611 38.2766C39.2572 40.2091 39.3253 41.6064 37.348 43.3444C36.3629 44.2362 35.4938 45.2483 34.7612 46.3569C33.7953 47.7322 33.4354 48.1671 32.3245 48.1671H29.4065C28.2956 48.1671 27.9364 47.7322 26.9698 46.3569Z" fill="#255384"/>
<path d="M35.4298 41.1478C35.1998 40.9173 34.8881 40.787 34.5626 40.7854C34.237 40.7838 33.924 40.9109 33.6918 41.1391C33.2609 41.5854 32.7045 41.8902 32.0964 42.013C31.7723 42.0166 31.4627 42.1478 31.2348 42.3783C31.0069 42.6087 30.879 42.9197 30.879 43.2438C30.879 43.5679 31.0069 43.8789 31.2348 44.1094C31.4627 44.3398 31.7723 44.4711 32.0964 44.4746C33.3594 44.3517 34.5389 43.7885 35.4284 42.8835C35.6587 42.6535 35.7882 42.3414 35.7885 42.0159C35.7887 41.6904 35.6597 41.3781 35.4298 41.1478Z" fill="#255384"/>
</g>
<defs>
<clipPath id="clip0_316_9">
<rect width="74" height="74" fill="white"/>
</clipPath>
</defs>
</svg>
