<svg width="75" height="75" viewBox="0 0 75 75" fill="none" xmlns="http://www.w3.org/2000/svg">
<g clip-path="url(#clip0_311_260)">
<path d="M6.25 50V41.25C6.25 39.4791 6.70625 37.852 7.61875 36.3687C8.53125 34.8854 9.74167 33.752 11.25 32.9687C14.4792 31.3541 17.7604 30.1437 21.0938 29.3375C24.4271 28.5312 27.8125 28.127 31.25 28.125C33.5938 28.125 35.9115 28.3073 38.2031 28.6718C40.4948 29.0364 42.7865 29.6093 45.0781 30.3906C44.1927 31.1198 43.3854 31.9145 42.6562 32.775C41.9271 33.6354 41.276 34.5593 40.7031 35.5468C39.1406 35.1302 37.5781 34.8302 36.0156 34.6468C34.4531 34.4635 32.8646 34.3729 31.25 34.375C28.3333 34.375 25.4427 34.727 22.5781 35.4312C19.7135 36.1354 16.875 37.1895 14.0625 38.5937C13.5938 38.8541 13.2156 39.2187 12.9281 39.6875C12.6406 40.1562 12.4979 40.677 12.5 41.25V43.75H37.7344C37.6302 44.7916 37.5781 45.8333 37.5781 46.875C37.5781 47.9166 37.6302 48.9583 37.7344 50H6.25ZM31.25 25C27.8125 25 24.8698 23.776 22.4219 21.3281C19.974 18.8802 18.75 15.9375 18.75 12.5C18.75 9.06246 19.974 6.11975 22.4219 3.67183C24.8698 1.22392 27.8125 -4.19421e-05 31.25 -4.19421e-05C34.6875 -4.19421e-05 37.6302 1.22392 40.0781 3.67183C42.526 6.11975 43.75 9.06246 43.75 12.5C43.75 15.9375 42.526 18.8802 40.0781 21.3281C37.6302 23.776 34.6875 25 31.25 25ZM31.25 18.75C32.9688 18.75 34.4406 18.1385 35.6656 16.9156C36.8906 15.6927 37.5021 14.2208 37.5 12.5C37.4979 10.7791 36.8865 9.30829 35.6656 8.08746C34.4448 6.86663 32.9729 6.25413 31.25 6.24996C29.5271 6.24579 28.0563 6.85829 26.8375 8.08746C25.6188 9.31663 25.0063 10.7875 25 12.5C24.9937 14.2125 25.6063 15.6843 26.8375 16.9156C28.0688 18.1468 29.5396 18.7583 31.25 18.75ZM62.5 12.5C62.5 15.9375 61.276 18.8802 58.8281 21.3281C56.3802 23.776 53.4375 25 50 25C49.4271 25 48.6979 24.9354 47.8125 24.8062C46.9271 24.677 46.1979 24.5333 45.625 24.375C47.0312 22.7083 48.1125 20.8593 48.8687 18.8281C49.625 16.7968 50.0021 14.6875 50 12.5C49.9979 10.3125 49.6198 8.20308 48.8656 6.17183C48.1115 4.14058 47.0312 2.29162 45.625 0.624958C46.3542 0.364541 47.0833 0.19475 47.8125 0.115583C48.5417 0.0364164 49.2708 -0.00212528 50 -4.19421e-05C53.4375 -4.19421e-05 56.3802 1.22392 58.8281 3.67183C61.276 6.11975 62.5 9.06246 62.5 12.5ZM59.375 62.5C55.0521 62.5 51.3677 60.976 48.3219 57.9281C45.276 54.8802 43.7521 51.1958 43.75 46.875C43.75 42.5 45.274 38.802 48.3219 35.7812C51.3698 32.7604 55.0542 31.25 59.375 31.25C63.75 31.25 67.4479 32.7604 70.4688 35.7812C73.4896 38.802 75 42.5 75 46.875C75 51.1979 73.4896 54.8833 70.4688 57.9312C67.4479 60.9791 63.75 62.502 59.375 62.5ZM57.1875 53.9062L68.2031 42.8125L66.0156 40.625L57.1875 49.4531L52.7344 45L50.5469 47.2656L57.1875 53.9062Z" fill="#78B54C"/>
</g>
<defs>
<clipPath id="clip0_311_260">
<rect width="75" height="75" fill="white"/>
</clipPath>
</defs>
</svg>
