<svg width="76" height="76" viewBox="0 0 76 76" fill="none" xmlns="http://www.w3.org/2000/svg">
<path d="M56.0168 30.875L49.875 24.7332V14.25H54.625V22.7668L59.375 27.5168L56.0168 30.875Z" fill="#0D8A71"/>
<path d="M52.25 42.75C48.4922 42.75 44.8187 41.6357 41.6942 39.5479C38.5696 37.4602 36.1344 34.4928 34.6963 31.021C33.2582 27.5492 32.882 23.7289 33.6151 20.0433C34.3482 16.3576 36.1578 12.9722 38.815 10.315C41.4722 7.65777 44.8577 5.8482 48.5433 5.11508C52.2289 4.38196 56.0492 4.75822 59.521 6.19629C62.9928 7.63435 65.9602 10.0696 68.0479 13.1942C70.1357 16.3187 71.25 19.9922 71.25 23.75C71.2437 28.7872 69.2399 33.6163 65.6781 37.1781C62.1163 40.7399 57.2872 42.7437 52.25 42.75ZM52.25 9.5C49.4316 9.5 46.6765 10.3357 44.3331 11.9016C41.9897 13.4674 40.1633 15.6929 39.0847 18.2968C38.0062 20.9006 37.724 23.7658 38.2738 26.53C38.8237 29.2943 40.1808 31.8334 42.1737 33.8263C44.1666 35.8192 46.7057 37.1763 49.47 37.7262C52.2342 38.276 55.0994 37.9938 57.7032 36.9153C60.3071 35.8367 62.5326 34.0103 64.0984 31.6669C65.6643 29.3235 66.5 26.5684 66.5 23.75C66.4956 19.972 64.9929 16.35 62.3214 13.6786C59.65 11.0071 56.028 9.5044 52.25 9.5Z" fill="#0D8A71"/>
<path d="M20.4963 42.75L37.1213 57H71.25V52.25H38.8788L22.2537 38H9.5V4.75H4.75V66.5C4.75188 67.7592 5.25293 68.9663 6.14332 69.8567C7.03371 70.7471 8.2408 71.2481 9.5 71.25H71.25V66.5H9.5V42.75H20.4963Z" fill="#0D8A71"/>
</svg>
