<svg width="108" height="79" viewBox="0 0 108 79" fill="none" xmlns="http://www.w3.org/2000/svg">
<path opacity="0.5" d="M0.78125 77.1875L0.78125 78.4063L3.21875 78.4062L3.21875 77.1875L0.78125 77.1875ZM3.21875 26C3.21875 25.3269 2.67309 24.7812 2 24.7812C1.3269 24.7813 0.781246 25.3269 0.781246 26L3.21875 26ZM3.21875 77.1875L3.21875 26L0.781246 26L0.78125 77.1875L3.21875 77.1875Z" fill="url(#paint0_linear_311_232)"/>
<path opacity="0.5" d="M20.2812 77.1875L20.2813 78.4063L22.7188 78.4062L22.7188 77.1875L20.2812 77.1875ZM22.7187 22.75C22.7187 22.0769 22.1731 21.5313 21.5 21.5313C20.8269 21.5313 20.2812 22.0769 20.2812 22.75L22.7187 22.75ZM22.7188 77.1875L22.7187 22.75L20.2812 22.75L20.2812 77.1875L22.7188 77.1875Z" fill="url(#paint1_linear_311_232)"/>
<path opacity="0.5" d="M53.5938 77.1875L53.5938 78.4063L56.0313 78.4062L56.0312 77.1875L53.5938 77.1875ZM56.0312 34.125C56.0312 33.4519 55.4856 32.9062 54.8125 32.9062C54.1394 32.9063 53.5937 33.4519 53.5937 34.125L56.0312 34.125ZM56.0312 77.1875L56.0312 34.125L53.5937 34.125L53.5938 77.1875L56.0312 77.1875Z" fill="url(#paint2_linear_311_232)"/>
<path opacity="0.5" d="M86.0938 77.1875L86.0938 78.4063L88.5313 78.4062L88.5312 77.1875L86.0938 77.1875ZM88.5312 34.125C88.5312 33.4519 87.9856 32.9062 87.3125 32.9062C86.6394 32.9063 86.0937 33.4519 86.0937 34.125L88.5312 34.125ZM88.5312 77.1875L88.5312 34.125L86.0937 34.125L86.0938 77.1875L88.5312 77.1875Z" fill="url(#paint3_linear_311_232)"/>
<path opacity="0.5" d="M38.1562 76.375L38.1563 77.5938L40.5938 77.5937L40.5938 76.375L38.1562 76.375ZM40.5937 24.375C40.5937 23.7019 40.0481 23.1562 39.375 23.1562C38.7019 23.1563 38.1562 23.7019 38.1562 24.375L40.5937 24.375ZM40.5938 76.375L40.5937 24.375L38.1562 24.375L38.1562 76.375L40.5938 76.375Z" fill="url(#paint4_linear_311_232)"/>
<path opacity="0.5" d="M71.4688 77.1875L71.4688 78.4063L73.9063 78.4062L73.9062 77.1875L71.4688 77.1875ZM73.9062 29.25C73.9062 28.5769 73.3606 28.0312 72.6875 28.0312C72.0144 28.0313 71.4687 28.5769 71.4687 29.25L73.9062 29.25ZM73.9062 77.1875L73.9062 29.25L71.4687 29.25L71.4688 77.1875L73.9062 77.1875Z" fill="url(#paint5_linear_311_232)"/>
<path opacity="0.5" d="M104.781 77.1875L104.781 78.4063L107.219 78.4062L107.219 77.1875L104.781 77.1875ZM107.219 46.3125C107.219 45.6394 106.673 45.0937 106 45.0938C105.327 45.0938 104.781 45.6394 104.781 46.3125L107.219 46.3125ZM107.219 77.1875L107.219 46.3125L104.781 46.3125L104.781 77.1875L107.219 77.1875Z" fill="url(#paint6_linear_311_232)"/>
<path d="M1.37846 43.7921C0.883973 44.1354 0.76138 44.8145 1.10465 45.309C1.44791 45.8035 2.12704 45.9261 2.62154 45.5829L1.37846 43.7921ZM25.0331 28.6984L25.7223 27.854L25.0861 27.3348L24.4116 27.803L25.0331 28.6984ZM32.0662 34.4381L31.377 35.2825L32.075 35.8521L32.7658 35.2739L32.0662 34.4381ZM73.2094 0L60.8124 2.17038L68.8905 11.8213L73.2094 0ZM2.62154 45.5829L25.6547 29.5938L24.4116 27.803L1.37846 43.7921L2.62154 45.5829ZM24.344 29.5428L31.377 35.2825L32.7553 33.5937L25.7223 27.854L24.344 29.5428ZM32.7658 35.2739L66.3868 7.13205L64.9876 5.46046L31.3666 33.6023L32.7658 35.2739Z" fill="url(#paint7_linear_311_232)"/>
<path opacity="0.5" d="M1.37846 52.7296C0.883973 53.0729 0.76138 53.752 1.10465 54.2465C1.44791 54.741 2.12704 54.8636 2.62154 54.5204L1.37846 52.7296ZM25.0331 37.6359L25.7223 36.7915L25.0861 36.2723L24.4116 36.7405L25.0331 37.6359ZM32.0662 43.3756L31.377 44.22L31.8186 44.5804L32.3665 44.4233L32.0662 43.3756ZM89.75 30.0625L77.8776 25.8861L80.197 38.2561L89.75 30.0625ZM57.25 36.1562L57.0491 35.085L56.9988 35.0944L56.9496 35.1085L57.25 36.1562ZM2.62154 54.5204L25.6547 38.5312L24.4116 36.7405L1.37846 52.7296L2.62154 54.5204ZM24.344 38.4803L31.377 44.22L32.7553 42.5311L25.7223 36.7915L24.344 38.4803ZM32.3665 44.4233L57.5504 37.204L56.9496 35.1085L31.7658 42.3278L32.3665 44.4233ZM57.4509 37.2275L80.3094 32.9415L79.9077 30.799L57.0491 35.085L57.4509 37.2275Z" fill="url(#paint8_linear_311_232)"/>
<defs>
<linearGradient id="paint0_linear_311_232" x1="2.5" y1="26" x2="2.5" y2="77.1875" gradientUnits="userSpaceOnUse">
<stop stop-color="#6526BD"/>
<stop offset="0.56" stop-color="#6526BD" stop-opacity="0.22"/>
<stop offset="1" stop-color="#6526BD" stop-opacity="0"/>
</linearGradient>
<linearGradient id="paint1_linear_311_232" x1="22" y1="22.75" x2="22" y2="77.1875" gradientUnits="userSpaceOnUse">
<stop stop-color="#6526BD"/>
<stop offset="0.56" stop-color="#6526BD" stop-opacity="0.22"/>
<stop offset="1" stop-color="#6526BD" stop-opacity="0"/>
</linearGradient>
<linearGradient id="paint2_linear_311_232" x1="55.3125" y1="34.125" x2="55.3125" y2="77.1875" gradientUnits="userSpaceOnUse">
<stop stop-color="#6526BD"/>
<stop offset="0.56" stop-color="#6526BD" stop-opacity="0.22"/>
<stop offset="1" stop-color="#6526BD" stop-opacity="0"/>
</linearGradient>
<linearGradient id="paint3_linear_311_232" x1="87.8125" y1="34.125" x2="87.8125" y2="77.1875" gradientUnits="userSpaceOnUse">
<stop stop-color="#6526BD"/>
<stop offset="0.56" stop-color="#6526BD" stop-opacity="0.22"/>
<stop offset="1" stop-color="#6526BD" stop-opacity="0"/>
</linearGradient>
<linearGradient id="paint4_linear_311_232" x1="39.875" y1="24.375" x2="39.875" y2="76.375" gradientUnits="userSpaceOnUse">
<stop stop-color="#6526BD"/>
<stop offset="0.56" stop-color="#6526BD" stop-opacity="0.22"/>
<stop offset="1" stop-color="#6526BD" stop-opacity="0"/>
</linearGradient>
<linearGradient id="paint5_linear_311_232" x1="73.1875" y1="29.25" x2="73.1875" y2="77.1875" gradientUnits="userSpaceOnUse">
<stop stop-color="#6526BD"/>
<stop offset="0.56" stop-color="#6526BD" stop-opacity="0.22"/>
<stop offset="1" stop-color="#6526BD" stop-opacity="0"/>
</linearGradient>
<linearGradient id="paint6_linear_311_232" x1="106.5" y1="46.3125" x2="106.5" y2="77.1875" gradientUnits="userSpaceOnUse">
<stop stop-color="#6526BD"/>
<stop offset="0.56" stop-color="#6526BD" stop-opacity="0.22"/>
<stop offset="1" stop-color="#6526BD" stop-opacity="0"/>
</linearGradient>
<linearGradient id="paint7_linear_311_232" x1="68.4863" y1="6.17632" x2="7.08638" y2="44.6875" gradientUnits="userSpaceOnUse">
<stop stop-color="#6526BD"/>
<stop offset="0.595294" stop-color="#7A43C7"/>
<stop offset="1" stop-color="#D8C4F4"/>
</linearGradient>
<linearGradient id="paint8_linear_311_232" x1="68.4863" y1="15.1138" x2="7.08636" y2="53.625" gradientUnits="userSpaceOnUse">
<stop stop-color="#6526BD"/>
<stop offset="0.595294" stop-color="#7A43C7"/>
<stop offset="1" stop-color="#D8C4F4"/>
</linearGradient>
</defs>
</svg>
