<svg width="94" height="94" viewBox="0 0 94 94" fill="none" xmlns="http://www.w3.org/2000/svg">
<rect x="1" y="1" width="92" height="92" rx="46" fill="white"/>
<rect x="1" y="1" width="92" height="92" rx="46" stroke="#0D8A71" stroke-width="2"/>
<path d="M58.3097 29.9375H48.5312V27.0125C48.5312 26.7108 48.4114 26.4215 48.1981 26.2082C47.9848 25.9948 47.6954 25.875 47.3937 25.875H45.6062C45.3046 25.875 45.0152 25.9948 44.8019 26.2082C44.5886 26.4215 44.4688 26.7108 44.4688 27.0125V29.9375H34.6903C32.651 29.9386 30.6956 30.7491 29.2536 32.1911C27.8116 33.6331 27.0011 35.5885 27 37.6278V42.2103C27 47.2517 29.0027 52.0865 32.5674 55.6513C36.1322 59.2161 40.9671 61.2188 46.0084 61.2188H47.3937C47.6954 61.2188 47.9848 61.0989 48.1981 60.8856C48.4114 60.6723 48.5312 60.3829 48.5312 60.0812V58.2938C48.5312 57.9921 48.4114 57.7027 48.1981 57.4894C47.9848 57.2761 47.6954 57.1562 47.3937 57.1562H46.0084C42.0445 57.1562 38.243 55.5816 35.4401 52.7787C32.6372 49.9758 31.0625 46.1742 31.0625 42.2103V37.6278C31.0625 36.6657 31.4447 35.7429 32.1251 35.0626C32.8054 34.3822 33.7282 34 34.6903 34H58.3097C59.2718 34 60.1946 34.3822 60.8749 35.0626C61.5553 35.7429 61.9375 36.6657 61.9375 37.6278V42.5312C61.9349 43.6458 61.7985 44.7561 61.5312 45.8381C61.4604 46.1169 61.4982 46.4122 61.637 46.6642C61.7758 46.9162 62.0052 47.1059 62.2787 47.195L63.985 47.7516C64.1324 47.8005 64.2882 47.8186 64.4429 47.8047C64.5976 47.7909 64.7478 47.7454 64.8841 47.6712C65.0205 47.5969 65.1402 47.4954 65.2357 47.3729C65.3312 47.2505 65.4005 47.1097 65.4394 46.9594C65.8088 45.5122 65.9971 44.0248 66 42.5312V37.6278C65.9989 35.5885 65.1884 33.6331 63.7464 32.1911C62.3044 30.7491 60.349 29.9386 58.3097 29.9375Z" fill="#0D8A71"/>
<path d="M40 47C41.7949 47 43.25 45.5449 43.25 43.75C43.25 41.9551 41.7949 40.5 40 40.5C38.2051 40.5 36.75 41.9551 36.75 43.75C36.75 45.5449 38.2051 47 40 47Z" fill="#0D8A71"/>
<path d="M53 47C54.7949 47 56.25 45.5449 56.25 43.75C56.25 41.9551 54.7949 40.5 53 40.5C51.2051 40.5 49.75 41.9551 49.75 43.75C49.75 45.5449 51.2051 47 53 47Z" fill="#0D8A71"/>
<path d="M65.8903 58.7L69.5709 60.1503C69.6467 60.1802 69.7117 60.2323 69.7575 60.2997C69.8034 60.367 69.8279 60.4466 69.8279 60.5281C69.8279 60.6096 69.8034 60.6892 69.7575 60.7566C69.7117 60.8239 69.6467 60.876 69.5709 60.9059L65.8903 62.3562C65.2388 62.6139 64.647 63.0024 64.1516 63.4978C63.6561 63.9932 63.2676 64.585 63.01 65.2365L61.5597 68.8928C61.5297 68.9686 61.4777 69.0336 61.4103 69.0794C61.3429 69.1252 61.2633 69.1497 61.1819 69.1497C61.1004 69.1497 61.0208 69.1252 60.9534 69.0794C60.886 69.0336 60.834 68.9686 60.804 68.8928L59.3537 65.2365C59.0967 64.5846 58.7084 63.9925 58.2129 63.497C57.7174 63.0015 57.1253 62.6132 56.4734 62.3562L52.8172 60.9059C52.7414 60.876 52.6764 60.8239 52.6306 60.7566C52.5847 60.6892 52.5602 60.6096 52.5602 60.5281C52.5602 60.4466 52.5847 60.367 52.6306 60.2997C52.6764 60.2323 52.7414 60.1802 52.8172 60.1503L56.4734 58.7C57.1253 58.443 57.7174 58.0547 58.2129 57.5592C58.7084 57.0637 59.0967 56.4716 59.3537 55.8197L60.804 52.1634C60.834 52.0876 60.886 52.0226 60.9534 51.9768C61.0208 51.931 61.1004 51.9065 61.1819 51.9065C61.2633 51.9065 61.3429 51.931 61.4103 51.9768C61.4777 52.0226 61.5297 52.0876 61.5597 52.1634L63.01 55.8197C63.2676 56.4712 63.6561 57.063 64.1516 57.5584C64.647 58.0538 65.2388 58.4424 65.8903 58.7Z" fill="#31C9AA"/>
</svg>
