<svg width="94" height="94" viewBox="0 0 94 94" fill="none" xmlns="http://www.w3.org/2000/svg">
<rect x="1" y="1" width="92" height="92" rx="46" fill="white"/>
<rect x="1" y="1" width="92" height="92" rx="46" stroke="#84255D" stroke-width="2"/>
<mask id="path-2-outside-1_311_172" maskUnits="userSpaceOnUse" x="22.3062" y="20.7102" width="48" height="54" fill="black">
<rect fill="white" x="22.3062" y="20.7102" width="48" height="54"/>
<path fill-rule="evenodd" clip-rule="evenodd" d="M62.282 26.2955C62.776 26.7906 62.4172 27.6295 61.7283 27.6295C61.5294 27.6295 61.3293 27.5531 61.1765 27.3997L58.1534 24.3774L58.1537 35.4183C58.154 50.8581 45.544 63.4698 30.1044 63.4703L26.554 63.4704C26.3468 63.4703 26.148 63.3879 26.0015 63.2413C25.8549 63.0948 25.7725 62.8961 25.7724 62.6888C25.7724 62.5862 25.7926 62.4845 25.8318 62.3897C25.8711 62.2948 25.9287 62.2086 26.0012 62.1361C26.0738 62.0635 26.16 62.0059 26.2549 61.9666C26.3497 61.9274 26.4514 61.9072 26.554 61.9072L30.1044 61.9071C44.7094 61.9068 56.591 50.0241 56.5905 35.4184L56.5903 24.3775L53.5687 27.3999C53.4961 27.4725 53.41 27.5302 53.3151 27.5695C53.2203 27.6088 53.1186 27.629 53.0159 27.629C52.9132 27.629 52.8116 27.6088 52.7167 27.5695C52.6219 27.5302 52.5357 27.4725 52.4631 27.3999C52.1576 27.0957 52.1576 26.6012 52.4631 26.2957L56.8194 21.9412C57.1231 21.6329 57.6219 21.6335 57.925 21.9412L62.282 26.2955ZM68.1307 71.7263L64.2209 71.7264L64.2198 31.0718L68.1297 31.0717L68.1307 71.7263ZM68.9113 29.5092L63.4383 29.5093C63.2312 29.5093 63.0325 29.5916 62.8861 29.7381C62.7396 29.8845 62.6574 30.0831 62.6574 30.2902L62.6584 72.5073C62.6584 72.9386 63.008 73.2889 63.4393 73.2889L68.9123 73.2888C69.1196 73.2886 69.3183 73.2063 69.4648 73.0597C69.6114 72.9132 69.6938 72.7144 69.6939 72.5072L69.6929 30.29C69.6929 29.8588 69.3425 29.5092 68.9113 29.5092ZM56.1068 71.7266L56.1065 58.6228L52.1966 58.6229L52.1969 71.7267L56.1068 71.7266ZM56.888 57.0596L51.4157 57.0597C51.2084 57.0598 51.0096 57.1421 50.8631 57.2887C50.7165 57.4352 50.6342 57.634 50.6341 57.8413L50.6345 72.5076C50.6345 72.7149 50.7168 72.9137 50.8634 73.0603C51.01 73.2068 51.2088 73.2892 51.416 73.2892L56.8884 73.2891C57.0956 73.289 57.2944 73.2066 57.4409 73.0601C57.5875 72.9135 57.6699 72.7148 57.67 72.5075L57.6696 57.8412C57.6695 57.6339 57.5871 57.4352 57.4406 57.2887C57.294 57.1421 57.0953 57.0597 56.888 57.0596ZM44.0829 71.727L40.1737 71.7271L40.1736 66.3041L44.0828 66.304L44.0829 71.727ZM44.8644 64.7407L39.392 64.7408C39.1848 64.7409 38.986 64.8233 38.8395 64.9699C38.6929 65.1164 38.6105 65.3152 38.6104 65.5224L38.6105 72.5079C38.6107 72.7151 38.693 72.9138 38.8396 73.0604C38.9861 73.2069 39.1849 73.2893 39.3921 73.2895L44.8645 73.2893C45.0717 73.2893 45.2705 73.207 45.4171 73.0604C45.5637 72.9138 45.646 72.715 45.646 72.5078L45.6458 65.5223C45.6458 65.4197 45.6256 65.318 45.5864 65.2232C45.5471 65.1284 45.4895 65.0422 45.417 64.9696C45.3444 64.8971 45.2583 64.8395 45.1634 64.8002C45.0686 64.7609 44.967 64.7407 44.8644 64.7407ZM32.0596 71.7272L28.1498 71.7273L28.1497 67.8175L32.0595 67.8173L32.0596 71.7272ZM32.8411 66.2542L27.3681 66.2543C27.1608 66.2544 26.9621 66.3368 26.8156 66.4833C26.669 66.6299 26.5866 66.8286 26.5865 67.0359L26.5866 72.5082C26.5867 72.7155 26.6691 72.9142 26.8157 73.0607C26.9622 73.2073 27.1609 73.2897 27.3682 73.2898L32.8412 73.2897C33.2725 73.2897 33.6221 72.9394 33.6221 72.5081L33.622 67.0358C33.622 66.8286 33.5398 66.6299 33.3934 66.4833C33.2469 66.3367 33.0483 66.2543 32.8411 66.2542ZM24.8688 44.7659C24.8688 46.2342 26.0632 47.4273 27.5302 47.4273C27.8533 47.4273 28.1751 47.3264 28.4804 47.6749C28.8388 48.084 28.5765 48.4268 28.5765 49.0037C28.5765 51.1147 30.9232 52.3705 32.6748 51.243C33.1754 50.9207 33.8488 51.2586 33.8784 51.8633C34.0233 54.8163 37.0432 56.6802 39.7249 55.5892L39.7245 42.6348L35.1944 42.635C34.9021 44.1593 33.7761 45.4465 32.2558 45.901C32.1829 45.9225 32.1073 45.9336 32.0313 45.9339C31.1437 45.9339 30.9468 44.6618 31.8086 44.4037C32.9254 44.0691 33.7056 43.0209 33.7056 41.8534C33.7056 40.6866 32.9252 39.6371 31.8085 39.3039C31.395 39.1801 31.1593 38.7443 31.2831 38.3308C31.4069 37.918 31.8421 37.6822 32.2556 37.8066C33.7759 38.2602 34.902 39.5475 35.1943 41.0718L39.7244 41.0717L39.7241 28.1174C37.0441 27.0273 34.0227 28.8902 33.8778 31.8444C33.8485 32.4427 33.1778 32.7868 32.6742 32.4627C32.2456 32.1876 31.7468 32.0415 31.2375 32.042C29.5122 32.042 28.2459 33.6643 28.6512 35.3329C28.7779 35.8546 28.3462 36.3525 27.8103 36.2943C26.2521 36.1247 24.8684 37.3573 24.8684 38.94C24.8684 39.8592 25.3333 40.7013 26.1116 41.1932C26.5989 41.5005 26.5956 42.2097 26.1116 42.5147C25.3335 43.0058 24.8686 43.848 24.8688 44.7659ZM41.2878 46.2608C43.3857 45.8901 44.9837 44.0549 44.9836 41.853C44.9836 39.6512 43.3854 37.8168 41.2876 37.4455L41.2878 46.2608ZM42.1244 31.1593H41.2875L41.2876 35.8652C44.25 36.2503 46.5468 38.7872 46.5468 41.8529C46.5469 44.9186 44.2502 47.4558 41.2878 47.8403L41.2879 52.5469H42.1248L42.9321 50.0639C42.9685 49.9522 43.0295 49.8502 43.1106 49.7653C43.1918 49.6804 43.2909 49.6148 43.4008 49.5733C44.2508 49.2542 45.0421 48.7968 45.7428 48.2195C45.8333 48.1444 45.9397 48.0909 46.0538 48.063C46.168 48.035 46.2871 48.0334 46.402 48.0582L48.9595 48.6019L50.5771 45.7976L48.8289 43.8558C48.7504 43.7686 48.6924 43.6649 48.6594 43.5522C48.6263 43.4396 48.619 43.321 48.638 43.2052C48.7875 42.3095 48.7874 41.3953 48.6379 40.4996C48.6188 40.3838 48.6261 40.2652 48.6591 40.1526C48.6922 40.04 48.7502 39.9363 48.8288 39.8491L50.5769 37.9067L48.959 35.1037L46.401 35.6477C46.2859 35.672 46.1669 35.6702 46.0527 35.6423C45.9385 35.6143 45.832 35.561 45.7412 35.4864C45.041 34.9091 44.2501 34.4517 43.4005 34.1327C43.2903 34.0917 43.1909 34.0262 43.1097 33.9413C43.0285 33.8563 42.9676 33.7541 42.9316 33.6422L42.1244 31.1593ZM27.0133 49.0036C27.0134 51.8563 29.7886 53.8701 32.4765 53.0424C33.3814 56.7413 37.5534 58.5612 40.8771 56.7716C41.0014 56.7047 41.1053 56.6053 41.1776 56.484C41.25 56.3627 41.2881 56.2241 41.2879 56.0829V54.1101H42.5081C42.727 54.1106 42.9404 54.0416 43.1174 53.9129C43.2945 53.7843 43.4261 53.6026 43.4932 53.3943L44.305 50.8955C45.0645 50.5767 45.7807 50.163 46.4363 49.6642L49.0083 50.21C49.2223 50.2559 49.4453 50.2326 49.6453 50.1436C49.8452 50.0546 50.0118 49.9045 50.121 49.7148L52.1226 46.2481C52.2324 46.0588 52.2792 45.8395 52.2564 45.6219C52.2335 45.4043 52.1422 45.1996 51.9955 45.0372L50.2355 43.083C50.3381 42.2665 50.3382 41.4381 50.2353 40.6223L51.9954 38.6687C52.142 38.5063 52.2334 38.3015 52.2562 38.0839C52.279 37.8663 52.2322 37.6471 52.1224 37.4578L50.1207 33.991C50.0118 33.801 49.8453 33.6506 49.6452 33.5615C49.4452 33.4723 49.222 33.4491 49.0079 33.4952L46.4354 34.0424C45.7802 33.5435 45.0645 33.1296 44.3053 32.8106L43.4927 30.3118C43.4255 30.1035 43.2939 29.922 43.1168 29.7933C42.9398 29.6647 42.7265 29.5956 42.5076 29.5961H41.2875V27.6228C41.2875 27.335 41.1302 27.071 40.8766 26.9347C37.5501 25.145 33.3803 26.9663 32.4762 30.6643C29.7926 29.8425 27.0131 31.819 27.0131 34.7481C24.9271 35.0037 23.306 36.7861 23.3062 38.9399C23.3062 40.0448 23.7289 41.0785 24.4691 41.8535C23.729 42.6285 23.3063 43.6623 23.3064 44.7659C23.3064 46.9209 24.9276 48.704 27.0135 48.9588C27.0133 48.9734 27.0133 48.9885 27.0133 49.0036Z"/>
</mask>
<path fill-rule="evenodd" clip-rule="evenodd" d="M62.282 26.2955C62.776 26.7906 62.4172 27.6295 61.7283 27.6295C61.5294 27.6295 61.3293 27.5531 61.1765 27.3997L58.1534 24.3774L58.1537 35.4183C58.154 50.8581 45.544 63.4698 30.1044 63.4703L26.554 63.4704C26.3468 63.4703 26.148 63.3879 26.0015 63.2413C25.8549 63.0948 25.7725 62.8961 25.7724 62.6888C25.7724 62.5862 25.7926 62.4845 25.8318 62.3897C25.8711 62.2948 25.9287 62.2086 26.0012 62.1361C26.0738 62.0635 26.16 62.0059 26.2549 61.9666C26.3497 61.9274 26.4514 61.9072 26.554 61.9072L30.1044 61.9071C44.7094 61.9068 56.591 50.0241 56.5905 35.4184L56.5903 24.3775L53.5687 27.3999C53.4961 27.4725 53.41 27.5302 53.3151 27.5695C53.2203 27.6088 53.1186 27.629 53.0159 27.629C52.9132 27.629 52.8116 27.6088 52.7167 27.5695C52.6219 27.5302 52.5357 27.4725 52.4631 27.3999C52.1576 27.0957 52.1576 26.6012 52.4631 26.2957L56.8194 21.9412C57.1231 21.6329 57.6219 21.6335 57.925 21.9412L62.282 26.2955ZM68.1307 71.7263L64.2209 71.7264L64.2198 31.0718L68.1297 31.0717L68.1307 71.7263ZM68.9113 29.5092L63.4383 29.5093C63.2312 29.5093 63.0325 29.5916 62.8861 29.7381C62.7396 29.8845 62.6574 30.0831 62.6574 30.2902L62.6584 72.5073C62.6584 72.9386 63.008 73.2889 63.4393 73.2889L68.9123 73.2888C69.1196 73.2886 69.3183 73.2063 69.4648 73.0597C69.6114 72.9132 69.6938 72.7144 69.6939 72.5072L69.6929 30.29C69.6929 29.8588 69.3425 29.5092 68.9113 29.5092ZM56.1068 71.7266L56.1065 58.6228L52.1966 58.6229L52.1969 71.7267L56.1068 71.7266ZM56.888 57.0596L51.4157 57.0597C51.2084 57.0598 51.0096 57.1421 50.8631 57.2887C50.7165 57.4352 50.6342 57.634 50.6341 57.8413L50.6345 72.5076C50.6345 72.7149 50.7168 72.9137 50.8634 73.0603C51.01 73.2068 51.2088 73.2892 51.416 73.2892L56.8884 73.2891C57.0956 73.289 57.2944 73.2066 57.4409 73.0601C57.5875 72.9135 57.6699 72.7148 57.67 72.5075L57.6696 57.8412C57.6695 57.6339 57.5871 57.4352 57.4406 57.2887C57.294 57.1421 57.0953 57.0597 56.888 57.0596ZM44.0829 71.727L40.1737 71.7271L40.1736 66.3041L44.0828 66.304L44.0829 71.727ZM44.8644 64.7407L39.392 64.7408C39.1848 64.7409 38.986 64.8233 38.8395 64.9699C38.6929 65.1164 38.6105 65.3152 38.6104 65.5224L38.6105 72.5079C38.6107 72.7151 38.693 72.9138 38.8396 73.0604C38.9861 73.2069 39.1849 73.2893 39.3921 73.2895L44.8645 73.2893C45.0717 73.2893 45.2705 73.207 45.4171 73.0604C45.5637 72.9138 45.646 72.715 45.646 72.5078L45.6458 65.5223C45.6458 65.4197 45.6256 65.318 45.5864 65.2232C45.5471 65.1284 45.4895 65.0422 45.417 64.9696C45.3444 64.8971 45.2583 64.8395 45.1634 64.8002C45.0686 64.7609 44.967 64.7407 44.8644 64.7407ZM32.0596 71.7272L28.1498 71.7273L28.1497 67.8175L32.0595 67.8173L32.0596 71.7272ZM32.8411 66.2542L27.3681 66.2543C27.1608 66.2544 26.9621 66.3368 26.8156 66.4833C26.669 66.6299 26.5866 66.8286 26.5865 67.0359L26.5866 72.5082C26.5867 72.7155 26.6691 72.9142 26.8157 73.0607C26.9622 73.2073 27.1609 73.2897 27.3682 73.2898L32.8412 73.2897C33.2725 73.2897 33.6221 72.9394 33.6221 72.5081L33.622 67.0358C33.622 66.8286 33.5398 66.6299 33.3934 66.4833C33.2469 66.3367 33.0483 66.2543 32.8411 66.2542ZM24.8688 44.7659C24.8688 46.2342 26.0632 47.4273 27.5302 47.4273C27.8533 47.4273 28.1751 47.3264 28.4804 47.6749C28.8388 48.084 28.5765 48.4268 28.5765 49.0037C28.5765 51.1147 30.9232 52.3705 32.6748 51.243C33.1754 50.9207 33.8488 51.2586 33.8784 51.8633C34.0233 54.8163 37.0432 56.6802 39.7249 55.5892L39.7245 42.6348L35.1944 42.635C34.9021 44.1593 33.7761 45.4465 32.2558 45.901C32.1829 45.9225 32.1073 45.9336 32.0313 45.9339C31.1437 45.9339 30.9468 44.6618 31.8086 44.4037C32.9254 44.0691 33.7056 43.0209 33.7056 41.8534C33.7056 40.6866 32.9252 39.6371 31.8085 39.3039C31.395 39.1801 31.1593 38.7443 31.2831 38.3308C31.4069 37.918 31.8421 37.6822 32.2556 37.8066C33.7759 38.2602 34.902 39.5475 35.1943 41.0718L39.7244 41.0717L39.7241 28.1174C37.0441 27.0273 34.0227 28.8902 33.8778 31.8444C33.8485 32.4427 33.1778 32.7868 32.6742 32.4627C32.2456 32.1876 31.7468 32.0415 31.2375 32.042C29.5122 32.042 28.2459 33.6643 28.6512 35.3329C28.7779 35.8546 28.3462 36.3525 27.8103 36.2943C26.2521 36.1247 24.8684 37.3573 24.8684 38.94C24.8684 39.8592 25.3333 40.7013 26.1116 41.1932C26.5989 41.5005 26.5956 42.2097 26.1116 42.5147C25.3335 43.0058 24.8686 43.848 24.8688 44.7659ZM41.2878 46.2608C43.3857 45.8901 44.9837 44.0549 44.9836 41.853C44.9836 39.6512 43.3854 37.8168 41.2876 37.4455L41.2878 46.2608ZM42.1244 31.1593H41.2875L41.2876 35.8652C44.25 36.2503 46.5468 38.7872 46.5468 41.8529C46.5469 44.9186 44.2502 47.4558 41.2878 47.8403L41.2879 52.5469H42.1248L42.9321 50.0639C42.9685 49.9522 43.0295 49.8502 43.1106 49.7653C43.1918 49.6804 43.2909 49.6148 43.4008 49.5733C44.2508 49.2542 45.0421 48.7968 45.7428 48.2195C45.8333 48.1444 45.9397 48.0909 46.0538 48.063C46.168 48.035 46.2871 48.0334 46.402 48.0582L48.9595 48.6019L50.5771 45.7976L48.8289 43.8558C48.7504 43.7686 48.6924 43.6649 48.6594 43.5522C48.6263 43.4396 48.619 43.321 48.638 43.2052C48.7875 42.3095 48.7874 41.3953 48.6379 40.4996C48.6188 40.3838 48.6261 40.2652 48.6591 40.1526C48.6922 40.04 48.7502 39.9363 48.8288 39.8491L50.5769 37.9067L48.959 35.1037L46.401 35.6477C46.2859 35.672 46.1669 35.6702 46.0527 35.6423C45.9385 35.6143 45.832 35.561 45.7412 35.4864C45.041 34.9091 44.2501 34.4517 43.4005 34.1327C43.2903 34.0917 43.1909 34.0262 43.1097 33.9413C43.0285 33.8563 42.9676 33.7541 42.9316 33.6422L42.1244 31.1593ZM27.0133 49.0036C27.0134 51.8563 29.7886 53.8701 32.4765 53.0424C33.3814 56.7413 37.5534 58.5612 40.8771 56.7716C41.0014 56.7047 41.1053 56.6053 41.1776 56.484C41.25 56.3627 41.2881 56.2241 41.2879 56.0829V54.1101H42.5081C42.727 54.1106 42.9404 54.0416 43.1174 53.9129C43.2945 53.7843 43.4261 53.6026 43.4932 53.3943L44.305 50.8955C45.0645 50.5767 45.7807 50.163 46.4363 49.6642L49.0083 50.21C49.2223 50.2559 49.4453 50.2326 49.6453 50.1436C49.8452 50.0546 50.0118 49.9045 50.121 49.7148L52.1226 46.2481C52.2324 46.0588 52.2792 45.8395 52.2564 45.6219C52.2335 45.4043 52.1422 45.1996 51.9955 45.0372L50.2355 43.083C50.3381 42.2665 50.3382 41.4381 50.2353 40.6223L51.9954 38.6687C52.142 38.5063 52.2334 38.3015 52.2562 38.0839C52.279 37.8663 52.2322 37.6471 52.1224 37.4578L50.1207 33.991C50.0118 33.801 49.8453 33.6506 49.6452 33.5615C49.4452 33.4723 49.222 33.4491 49.0079 33.4952L46.4354 34.0424C45.7802 33.5435 45.0645 33.1296 44.3053 32.8106L43.4927 30.3118C43.4255 30.1035 43.2939 29.922 43.1168 29.7933C42.9398 29.6647 42.7265 29.5956 42.5076 29.5961H41.2875V27.6228C41.2875 27.335 41.1302 27.071 40.8766 26.9347C37.5501 25.145 33.3803 26.9663 32.4762 30.6643C29.7926 29.8425 27.0131 31.819 27.0131 34.7481C24.9271 35.0037 23.306 36.7861 23.3062 38.9399C23.3062 40.0448 23.7289 41.0785 24.4691 41.8535C23.729 42.6285 23.3063 43.6623 23.3064 44.7659C23.3064 46.9209 24.9276 48.704 27.0135 48.9588C27.0133 48.9734 27.0133 48.9885 27.0133 49.0036Z" fill="#84255D"/>
<path fill-rule="evenodd" clip-rule="evenodd" d="M62.282 26.2955C62.776 26.7906 62.4172 27.6295 61.7283 27.6295C61.5294 27.6295 61.3293 27.5531 61.1765 27.3997L58.1534 24.3774L58.1537 35.4183C58.154 50.8581 45.544 63.4698 30.1044 63.4703L26.554 63.4704C26.3468 63.4703 26.148 63.3879 26.0015 63.2413C25.8549 63.0948 25.7725 62.8961 25.7724 62.6888C25.7724 62.5862 25.7926 62.4845 25.8318 62.3897C25.8711 62.2948 25.9287 62.2086 26.0012 62.1361C26.0738 62.0635 26.16 62.0059 26.2549 61.9666C26.3497 61.9274 26.4514 61.9072 26.554 61.9072L30.1044 61.9071C44.7094 61.9068 56.591 50.0241 56.5905 35.4184L56.5903 24.3775L53.5687 27.3999C53.4961 27.4725 53.41 27.5302 53.3151 27.5695C53.2203 27.6088 53.1186 27.629 53.0159 27.629C52.9132 27.629 52.8116 27.6088 52.7167 27.5695C52.6219 27.5302 52.5357 27.4725 52.4631 27.3999C52.1576 27.0957 52.1576 26.6012 52.4631 26.2957L56.8194 21.9412C57.1231 21.6329 57.6219 21.6335 57.925 21.9412L62.282 26.2955ZM68.1307 71.7263L64.2209 71.7264L64.2198 31.0718L68.1297 31.0717L68.1307 71.7263ZM68.9113 29.5092L63.4383 29.5093C63.2312 29.5093 63.0325 29.5916 62.8861 29.7381C62.7396 29.8845 62.6574 30.0831 62.6574 30.2902L62.6584 72.5073C62.6584 72.9386 63.008 73.2889 63.4393 73.2889L68.9123 73.2888C69.1196 73.2886 69.3183 73.2063 69.4648 73.0597C69.6114 72.9132 69.6938 72.7144 69.6939 72.5072L69.6929 30.29C69.6929 29.8588 69.3425 29.5092 68.9113 29.5092ZM56.1068 71.7266L56.1065 58.6228L52.1966 58.6229L52.1969 71.7267L56.1068 71.7266ZM56.888 57.0596L51.4157 57.0597C51.2084 57.0598 51.0096 57.1421 50.8631 57.2887C50.7165 57.4352 50.6342 57.634 50.6341 57.8413L50.6345 72.5076C50.6345 72.7149 50.7168 72.9137 50.8634 73.0603C51.01 73.2068 51.2088 73.2892 51.416 73.2892L56.8884 73.2891C57.0956 73.289 57.2944 73.2066 57.4409 73.0601C57.5875 72.9135 57.6699 72.7148 57.67 72.5075L57.6696 57.8412C57.6695 57.6339 57.5871 57.4352 57.4406 57.2887C57.294 57.1421 57.0953 57.0597 56.888 57.0596ZM44.0829 71.727L40.1737 71.7271L40.1736 66.3041L44.0828 66.304L44.0829 71.727ZM44.8644 64.7407L39.392 64.7408C39.1848 64.7409 38.986 64.8233 38.8395 64.9699C38.6929 65.1164 38.6105 65.3152 38.6104 65.5224L38.6105 72.5079C38.6107 72.7151 38.693 72.9138 38.8396 73.0604C38.9861 73.2069 39.1849 73.2893 39.3921 73.2895L44.8645 73.2893C45.0717 73.2893 45.2705 73.207 45.4171 73.0604C45.5637 72.9138 45.646 72.715 45.646 72.5078L45.6458 65.5223C45.6458 65.4197 45.6256 65.318 45.5864 65.2232C45.5471 65.1284 45.4895 65.0422 45.417 64.9696C45.3444 64.8971 45.2583 64.8395 45.1634 64.8002C45.0686 64.7609 44.967 64.7407 44.8644 64.7407ZM32.0596 71.7272L28.1498 71.7273L28.1497 67.8175L32.0595 67.8173L32.0596 71.7272ZM32.8411 66.2542L27.3681 66.2543C27.1608 66.2544 26.9621 66.3368 26.8156 66.4833C26.669 66.6299 26.5866 66.8286 26.5865 67.0359L26.5866 72.5082C26.5867 72.7155 26.6691 72.9142 26.8157 73.0607C26.9622 73.2073 27.1609 73.2897 27.3682 73.2898L32.8412 73.2897C33.2725 73.2897 33.6221 72.9394 33.6221 72.5081L33.622 67.0358C33.622 66.8286 33.5398 66.6299 33.3934 66.4833C33.2469 66.3367 33.0483 66.2543 32.8411 66.2542ZM24.8688 44.7659C24.8688 46.2342 26.0632 47.4273 27.5302 47.4273C27.8533 47.4273 28.1751 47.3264 28.4804 47.6749C28.8388 48.084 28.5765 48.4268 28.5765 49.0037C28.5765 51.1147 30.9232 52.3705 32.6748 51.243C33.1754 50.9207 33.8488 51.2586 33.8784 51.8633C34.0233 54.8163 37.0432 56.6802 39.7249 55.5892L39.7245 42.6348L35.1944 42.635C34.9021 44.1593 33.7761 45.4465 32.2558 45.901C32.1829 45.9225 32.1073 45.9336 32.0313 45.9339C31.1437 45.9339 30.9468 44.6618 31.8086 44.4037C32.9254 44.0691 33.7056 43.0209 33.7056 41.8534C33.7056 40.6866 32.9252 39.6371 31.8085 39.3039C31.395 39.1801 31.1593 38.7443 31.2831 38.3308C31.4069 37.918 31.8421 37.6822 32.2556 37.8066C33.7759 38.2602 34.902 39.5475 35.1943 41.0718L39.7244 41.0717L39.7241 28.1174C37.0441 27.0273 34.0227 28.8902 33.8778 31.8444C33.8485 32.4427 33.1778 32.7868 32.6742 32.4627C32.2456 32.1876 31.7468 32.0415 31.2375 32.042C29.5122 32.042 28.2459 33.6643 28.6512 35.3329C28.7779 35.8546 28.3462 36.3525 27.8103 36.2943C26.2521 36.1247 24.8684 37.3573 24.8684 38.94C24.8684 39.8592 25.3333 40.7013 26.1116 41.1932C26.5989 41.5005 26.5956 42.2097 26.1116 42.5147C25.3335 43.0058 24.8686 43.848 24.8688 44.7659ZM41.2878 46.2608C43.3857 45.8901 44.9837 44.0549 44.9836 41.853C44.9836 39.6512 43.3854 37.8168 41.2876 37.4455L41.2878 46.2608ZM42.1244 31.1593H41.2875L41.2876 35.8652C44.25 36.2503 46.5468 38.7872 46.5468 41.8529C46.5469 44.9186 44.2502 47.4558 41.2878 47.8403L41.2879 52.5469H42.1248L42.9321 50.0639C42.9685 49.9522 43.0295 49.8502 43.1106 49.7653C43.1918 49.6804 43.2909 49.6148 43.4008 49.5733C44.2508 49.2542 45.0421 48.7968 45.7428 48.2195C45.8333 48.1444 45.9397 48.0909 46.0538 48.063C46.168 48.035 46.2871 48.0334 46.402 48.0582L48.9595 48.6019L50.5771 45.7976L48.8289 43.8558C48.7504 43.7686 48.6924 43.6649 48.6594 43.5522C48.6263 43.4396 48.619 43.321 48.638 43.2052C48.7875 42.3095 48.7874 41.3953 48.6379 40.4996C48.6188 40.3838 48.6261 40.2652 48.6591 40.1526C48.6922 40.04 48.7502 39.9363 48.8288 39.8491L50.5769 37.9067L48.959 35.1037L46.401 35.6477C46.2859 35.672 46.1669 35.6702 46.0527 35.6423C45.9385 35.6143 45.832 35.561 45.7412 35.4864C45.041 34.9091 44.2501 34.4517 43.4005 34.1327C43.2903 34.0917 43.1909 34.0262 43.1097 33.9413C43.0285 33.8563 42.9676 33.7541 42.9316 33.6422L42.1244 31.1593ZM27.0133 49.0036C27.0134 51.8563 29.7886 53.8701 32.4765 53.0424C33.3814 56.7413 37.5534 58.5612 40.8771 56.7716C41.0014 56.7047 41.1053 56.6053 41.1776 56.484C41.25 56.3627 41.2881 56.2241 41.2879 56.0829V54.1101H42.5081C42.727 54.1106 42.9404 54.0416 43.1174 53.9129C43.2945 53.7843 43.4261 53.6026 43.4932 53.3943L44.305 50.8955C45.0645 50.5767 45.7807 50.163 46.4363 49.6642L49.0083 50.21C49.2223 50.2559 49.4453 50.2326 49.6453 50.1436C49.8452 50.0546 50.0118 49.9045 50.121 49.7148L52.1226 46.2481C52.2324 46.0588 52.2792 45.8395 52.2564 45.6219C52.2335 45.4043 52.1422 45.1996 51.9955 45.0372L50.2355 43.083C50.3381 42.2665 50.3382 41.4381 50.2353 40.6223L51.9954 38.6687C52.142 38.5063 52.2334 38.3015 52.2562 38.0839C52.279 37.8663 52.2322 37.6471 52.1224 37.4578L50.1207 33.991C50.0118 33.801 49.8453 33.6506 49.6452 33.5615C49.4452 33.4723 49.222 33.4491 49.0079 33.4952L46.4354 34.0424C45.7802 33.5435 45.0645 33.1296 44.3053 32.8106L43.4927 30.3118C43.4255 30.1035 43.2939 29.922 43.1168 29.7933C42.9398 29.6647 42.7265 29.5956 42.5076 29.5961H41.2875V27.6228C41.2875 27.335 41.1302 27.071 40.8766 26.9347C37.5501 25.145 33.3803 26.9663 32.4762 30.6643C29.7926 29.8425 27.0131 31.819 27.0131 34.7481C24.9271 35.0037 23.306 36.7861 23.3062 38.9399C23.3062 40.0448 23.7289 41.0785 24.4691 41.8535C23.729 42.6285 23.3063 43.6623 23.3064 44.7659C23.3064 46.9209 24.9276 48.704 27.0135 48.9588C27.0133 48.9734 27.0133 48.9885 27.0133 49.0036Z" stroke="#84255D" mask="url(#path-2-outside-1_311_172)"/>
</svg>
