<svg width="94" height="94" viewBox="0 0 94 94" fill="none" xmlns="http://www.w3.org/2000/svg">
<rect x="1" y="1" width="92" height="92" rx="46" fill="white"/>
<rect x="1" y="1" width="92" height="92" rx="46" stroke="#255384" stroke-width="2"/>
<path fill-rule="evenodd" clip-rule="evenodd" d="M63.0316 26.0001H59.3333C58.9016 26.0001 58.5166 26.2334 58.3066 26.6067L55.145 32.4051C52.2633 31.8217 49.51 30.8651 47.0133 29.6284C46.8521 29.5478 46.6744 29.5058 46.4941 29.5058C46.3139 29.5058 46.1362 29.5478 45.975 29.6284C43.4783 30.8767 40.725 31.8217 37.8433 32.4051L34.6816 26.6067C34.4716 26.2334 34.0866 26.0001 33.655 26.0001H29.9566C29.4783 24.6467 28.1833 23.6667 26.655 23.6667C24.7183 23.6667 23.155 25.2301 23.155 27.1667C23.155 29.1034 24.7183 30.6667 26.655 30.6667C28.1833 30.6667 29.4783 29.6867 29.9566 28.3334H32.9666L35.405 32.8017C33.515 33.0351 31.5783 33.1167 29.6416 33.0001C29.035 32.9651 28.4983 33.4084 28.4166 34.0151C28.1483 36.0684 27.9616 37.9934 27.8566 39.8017L25.4883 39.1251V37.6667C25.4883 37.0251 24.9633 36.5001 24.3216 36.5001C23.68 36.5001 23.155 37.0251 23.155 37.6667V40.0001C23.155 40.5251 23.505 40.9801 24.0066 41.1201L27.7633 42.1934C27.7166 44.6201 27.8333 46.8017 28.1016 48.7851L24.0066 49.9517C23.505 50.0917 23.155 50.5584 23.155 51.0717V53.4051C23.155 54.0467 23.68 54.5717 24.3216 54.5717C24.9633 54.5717 25.4883 54.0467 25.4883 53.4051V51.9467L28.4866 51.0834C29.0583 53.7901 29.9566 56.0534 31.1233 57.9434L31.1933 58.0484L26.0483 61.1401C25.6983 61.3501 25.4766 61.7351 25.4766 62.1434V63.5084C24.1233 63.9867 23.1433 65.2817 23.1433 66.8101C23.1433 68.7467 24.7066 70.3101 26.6433 70.3101C28.58 70.3101 30.1433 68.7467 30.1433 66.8101C30.1433 65.2817 29.1633 63.9867 27.81 63.5084V62.8084L32.57 59.9501C34.0283 61.6651 35.79 63.0184 37.8316 64.0917L36.2333 66.0867C36.07 66.2967 35.9766 66.5534 35.9766 66.8101V69.1434C35.9766 69.7851 36.5016 70.3101 37.1433 70.3101C37.785 70.3101 38.31 69.7851 38.31 69.1434V67.2184L40.025 65.0834C41.915 65.8301 44.0033 66.3901 46.2666 66.7984C46.4066 66.8217 46.5466 66.8217 46.6866 66.7984C48.95 66.3901 51.0383 65.8301 52.9283 65.0834L54.6433 67.2184V69.1434C54.6433 69.7851 55.1683 70.3101 55.81 70.3101C56.4516 70.3101 56.9766 69.7851 56.9766 69.1434V66.8101C56.9766 66.5417 56.8833 66.2851 56.72 66.0867L55.1216 64.0917C57.1633 63.0301 58.925 61.6767 60.3833 59.9501L65.1433 62.8084V63.5084C63.79 63.9867 62.81 65.2817 62.81 66.8101C62.81 68.7467 64.3733 70.3101 66.31 70.3101C68.2466 70.3101 69.81 68.7467 69.81 66.8101C69.81 65.2817 68.83 63.9867 67.4766 63.5084V62.1434C67.4778 61.9407 67.4255 61.7413 67.3252 61.5652C67.2249 61.3891 67.0799 61.2424 66.905 61.1401L61.76 58.0484L61.83 57.9434C63.0083 56.0534 63.895 53.7901 64.4666 51.0834L67.465 51.9467V53.4051C67.465 54.0467 67.99 54.5717 68.6316 54.5717C69.2733 54.5717 69.7983 54.0467 69.7983 53.4051V51.0717C69.7983 50.5467 69.4483 50.0917 68.9466 49.9517L64.8516 48.7851C65.12 46.8017 65.225 44.6084 65.19 42.1934L68.9466 41.1201C69.4483 40.9801 69.7983 40.5134 69.7983 40.0001V37.6667C69.7983 37.0251 69.2733 36.5001 68.6316 36.5001C67.99 36.5001 67.465 37.0251 67.465 37.6667V39.1251L65.0966 39.8017C64.9916 37.9934 64.805 36.0684 64.5366 34.0151C64.455 33.4084 63.9183 32.9651 63.3116 33.0001C61.375 33.1051 59.4383 33.0351 57.5483 32.8017L59.9866 28.3334H62.9966C63.475 29.6867 64.77 30.6667 66.2983 30.6667C68.235 30.6667 69.7983 29.1034 69.7983 27.1667C69.7983 25.2301 68.235 23.6667 66.2983 23.6667C64.77 23.6667 63.475 24.6467 62.9966 26.0001H63.0316ZM66.3333 65.6667C66.975 65.6667 67.5 66.1917 67.5 66.8334C67.5 67.4751 66.975 68.0001 66.3333 68.0001C65.6916 68.0001 65.1666 67.4751 65.1666 66.8334C65.1666 66.1917 65.6916 65.6667 66.3333 65.6667ZM26.6666 65.6667C27.3083 65.6667 27.8333 66.1917 27.8333 66.8334C27.8333 67.4751 27.3083 68.0001 26.6666 68.0001C26.025 68.0001 25.5 67.4751 25.5 66.8334C25.5 66.1917 26.025 65.6667 26.6666 65.6667ZM46.5 64.4767C40.55 63.3684 35.9183 61.2217 33.13 56.7301C30.3416 52.2384 29.3966 45.4834 30.61 35.3684C36.2333 35.5084 41.775 34.2134 46.5 31.9617C51.225 34.2134 56.7666 35.5084 62.39 35.3684C63.6033 45.4951 62.67 52.2384 59.87 56.7301C57.0816 61.2101 52.45 63.3567 46.5 64.4651V64.4767ZM50 38.8334H47.6666V36.5001C47.6666 35.8584 47.1416 35.3334 46.5 35.3334C45.8583 35.3334 45.3333 35.8584 45.3333 36.5001V38.8334H43V36.5001C43 35.8584 42.475 35.3334 41.8333 35.3334C41.1916 35.3334 40.6666 35.8584 40.6666 36.5001V38.8334H39.5116C37.575 38.8334 36 40.3967 36 42.3334H33.6666C33.025 42.3334 32.5 42.8584 32.5 43.5001C32.5 44.1417 33.025 44.6667 33.6666 44.6667H36V47.0001H33.6666C33.025 47.0001 32.5 47.5251 32.5 48.1667C32.5 48.8084 33.025 49.3334 33.6666 49.3334H36V51.6667H33.6666C33.025 51.6667 32.5 52.1917 32.5 52.8334C32.5 53.4751 33.025 54.0001 33.6666 54.0001H36C36 54.9217 36.3733 55.8201 37.0266 56.4734C37.6916 57.1267 38.5783 57.5001 39.5116 57.5001H40.6666V59.8334C40.6666 60.4751 41.1916 61.0001 41.8333 61.0001C42.475 61.0001 43 60.4751 43 59.8334V57.5001H45.3333V59.8334C45.3333 60.4751 45.8583 61.0001 46.5 61.0001C47.1416 61.0001 47.6666 60.4751 47.6666 59.8334V57.5001H50V59.8334C50 60.4751 50.525 61.0001 51.1666 61.0001C51.8083 61.0001 52.3333 60.4751 52.3333 59.8334V57.5001H53.4883C55.425 57.5001 57 55.9367 57 54.0001H59.3333C59.975 54.0001 60.5 53.4751 60.5 52.8334C60.5 52.1917 59.975 51.6667 59.3333 51.6667H57V49.3334H59.3333C59.975 49.3334 60.5 48.8084 60.5 48.1667C60.5 47.5251 59.975 47.0001 59.3333 47.0001H57V44.6667H59.3333C59.975 44.6667 60.5 44.1417 60.5 43.5001C60.5 42.8584 59.975 42.3334 59.3333 42.3334H57C57 41.4117 56.6266 40.5134 55.9733 39.8601C55.3083 39.2067 54.4216 38.8334 53.4883 38.8334H52.3333V36.5001C52.3333 35.8584 51.8083 35.3334 51.1666 35.3334C50.525 35.3334 50 35.8584 50 36.5001V38.8334ZM39.5116 41.1667H53.4766C53.7921 41.1674 54.0944 41.2929 54.3174 41.516C54.5405 41.739 54.666 42.0413 54.6666 42.3567V53.9884C54.6666 54.6417 54.1416 55.1667 53.4883 55.1667H39.5233C39.2079 55.1661 38.9056 55.0406 38.6825 54.8175C38.4595 54.5945 38.3339 54.2922 38.3333 53.9767V42.3451C38.3333 41.6917 38.8583 41.1667 39.5116 41.1667ZM43.0933 51.6667H46.395L46.5816 52.1101C46.8266 52.7051 47.515 52.9851 48.11 52.7401C48.705 52.4951 48.985 51.8067 48.74 51.2117L45.8233 44.2117C45.6366 43.7801 45.2166 43.4884 44.75 43.4884C44.2833 43.4884 43.8516 43.7684 43.6766 44.2117L40.76 51.2117C40.515 51.8067 40.795 52.4834 41.39 52.7401C41.985 52.9851 42.6616 52.7051 42.9183 52.1101L43.105 51.6667H43.0933ZM52.3333 51.6667V44.6667C52.3333 44.0251 51.8083 43.5001 51.1666 43.5001C50.525 43.5001 50 44.0251 50 44.6667V51.6667C50 52.3084 50.525 52.8334 51.1666 52.8334C51.8083 52.8334 52.3333 52.3084 52.3333 51.6667ZM44.0733 49.3334H45.4383L44.7616 47.7001L44.085 49.3334H44.0733ZM66.3333 26.0001C66.975 26.0001 67.5 26.5251 67.5 27.1667C67.5 27.8084 66.975 28.3334 66.3333 28.3334C65.6916 28.3334 65.1666 27.8084 65.1666 27.1667C65.1666 26.5251 65.6916 26.0001 66.3333 26.0001ZM26.6666 26.0001C27.3083 26.0001 27.8333 26.5251 27.8333 27.1667C27.8333 27.8084 27.3083 28.3334 26.6666 28.3334C26.025 28.3334 25.5 27.8084 25.5 27.1667C25.5 26.5251 26.025 26.0001 26.6666 26.0001Z" fill="#006BDE"/>
</svg>
