<svg width="94" height="94" viewBox="0 0 94 94" fill="none" xmlns="http://www.w3.org/2000/svg">
<rect x="1" y="1" width="92" height="92" rx="46" fill="white"/>
<rect x="1" y="1" width="92" height="92" rx="46" stroke="#0E78AE" stroke-width="2"/>
<g clip-path="url(#clip0_311_161)">
<path d="M63.7742 70.3226V67.0877C63.7742 66.5668 63.8262 66.0544 63.9101 65.5503L58.4299 61.3349C57.66 61.971 56.7318 62.3861 55.7444 62.536L54.5375 62.7213C54.5141 65.3083 54.0755 67.8747 53.2383 70.3226H40.2903V62.7742H36.9355V70.3226H33.5806V56.0645H30.2258V70.3226H26.871V59.4193H23.5161V70.3226H21V72H73V70.3226H63.7742ZM56.5537 41.6471L57.1341 42.2996C57.4956 42.7064 57.7346 43.1987 57.8403 43.7246C58.1362 43.6422 58.4375 43.5805 58.7419 43.54V36.8144C58.4803 36.7985 58.2211 36.7742 57.9552 36.7742C55.9801 36.7742 54.0435 37.2162 52.273 38.049C53.8654 39.0364 55.3072 40.2482 56.5537 41.6471ZM48.7965 50.5047C51.2857 49.4759 53.5092 47.8962 55.2999 45.8842L55.8803 45.2317C56.1031 44.9815 56.2263 44.6581 56.2263 44.323C56.2263 43.9879 56.1031 43.6645 55.8803 43.4142L55.2999 42.7617C53.5086 40.7505 51.2852 39.1708 48.7965 38.1413C50.2802 39.7793 51.1935 41.9431 51.1935 44.3226C51.1935 46.702 50.2802 48.8667 48.7965 50.5047ZM64.8737 54.3015L68.6924 58.1202C70.2253 56.0591 71.1247 53.5961 71.2806 51.0322H66.2316C66.0825 52.2246 65.6133 53.3544 64.8737 54.3015ZM28.0552 45.2309L28.6356 45.8834C30.4264 47.8952 32.6499 49.4749 35.139 50.5038C33.6553 48.8667 32.7419 46.702 32.7419 44.3226C32.7419 41.9431 33.6553 39.7793 35.139 38.1413C32.6501 39.1706 30.4267 40.7502 28.6356 42.7617L28.0552 43.4142C27.8321 43.6642 27.7097 43.9871 27.7097 44.3226C27.7097 44.658 27.8321 44.9809 28.0552 45.2309ZM57.1341 46.3455L56.5546 46.998C56.0008 47.6181 55.4077 48.202 54.779 48.7459C54.6311 49.2144 54.5534 49.7022 54.5484 50.1935C54.5484 52.9688 56.8054 55.2258 59.5806 55.2258C62.3559 55.2258 64.6129 52.9688 64.6129 50.1935C64.6129 47.4182 62.3559 45.1613 59.5806 45.1613C58.9038 45.1613 58.2479 45.3047 57.6231 45.5714C57.5005 45.8529 57.3357 46.1139 57.1341 46.3455ZM59.5806 47.6774C60.248 47.6774 60.8879 47.9425 61.3598 48.4144C61.8317 48.8862 62.0968 49.5262 62.0968 50.1935C62.0968 50.8608 61.8317 51.5008 61.3598 51.9727C60.8879 52.4446 60.248 52.7097 59.5806 52.7097C58.9133 52.7097 58.2733 52.4446 57.8015 51.9727C57.3296 51.5008 57.0645 50.8608 57.0645 50.1935C57.0645 49.5262 57.3296 48.8862 57.8015 48.4144C58.2733 47.9425 58.9133 47.6774 59.5806 47.6774ZM67.6348 40.9535C65.7053 38.9118 63.1799 37.5321 60.4194 37.0115V43.5417C61.6115 43.6916 62.7411 44.1608 63.6886 44.8996L67.6348 40.9535ZM67.4075 59.6324C67.4788 59.5611 67.54 59.4822 67.6096 59.4093L63.6878 55.4875C62.7405 56.2261 61.6112 56.6953 60.4194 56.8453V57.086C60.4185 58.1447 60.1121 59.1805 59.537 60.0693L64.3848 63.7982C64.8455 62.5844 65.5584 61.4822 66.4765 60.5642L67.4075 59.6324Z" fill="#0E78AE"/>
<path d="M47.4194 58.5806C46.371 58.5806 45.3679 58.3039 44.4839 57.7948V58.0992C44.4847 58.6521 44.6048 59.1983 44.8361 59.7005C45.0674 60.2027 45.4044 60.6491 45.8241 61.0091C46.2437 61.3691 46.7361 61.6342 47.2676 61.7864C47.7992 61.9387 48.3573 61.9743 48.9039 61.891L55.4894 60.8779C56.3968 60.7424 57.225 60.2845 57.8224 59.5881C58.4197 58.8918 58.7462 58.0035 58.7419 57.0861V56.8454C55.4433 56.431 52.8802 53.618 52.8718 50.2112C50.3593 51.9032 47.4877 52.9878 44.4839 53.379V55.7089C45.2684 56.4758 46.3223 56.9046 47.4194 56.9032C47.9743 56.9048 48.524 56.7963 49.0367 56.584C49.5493 56.3716 50.0148 56.0596 50.406 55.6661L51.4393 54.6328L52.6252 55.8188L51.5919 56.8521C51.0454 57.4019 50.3951 57.8378 49.6789 58.1346C48.9627 58.4313 48.1946 58.5829 47.4194 58.5806ZM66.2325 49.3548H71.2815C71.1284 46.7876 70.2363 44.3194 68.7125 42.2476L64.8746 46.0855C65.6134 47.0331 66.0826 48.1627 66.2325 49.3548ZM71.3226 63.6129C71.318 62.0803 70.7901 60.5951 69.8263 59.4034C69.4778 59.8543 69.104 60.2849 68.7066 60.6934C69.3181 61.544 69.6464 62.5654 69.6452 63.6129C69.6452 66.1014 67.8277 68.1679 65.4516 68.5697V70.2647C68.7561 69.8495 71.3226 67.0281 71.3226 63.6129ZM34.7876 46.6408C34.943 46.4418 35.1416 46.2807 35.3684 46.1697C35.5952 46.0587 35.8443 46.0007 36.0968 46C36.5417 46 36.9683 46.1767 37.2829 46.4913C37.5975 46.8059 37.7742 47.2325 37.7742 47.6774C37.7735 48.0799 37.6277 48.4687 37.3635 48.7724C37.0992 49.076 36.7344 49.2742 36.3358 49.3305C37.0412 50.1285 37.9081 50.7676 38.879 51.2056C39.8498 51.6435 40.9027 51.8703 41.9678 51.871C46.1294 51.871 49.5161 48.4851 49.5161 44.3226C49.5161 43.5132 49.3853 42.7357 49.1479 42.0044C48.9925 42.2034 48.7939 42.3644 48.5671 42.4754C48.3403 42.5864 48.0912 42.6445 47.8387 42.6452C47.3938 42.6452 46.9672 42.4684 46.6526 42.1539C46.338 41.8393 46.1613 41.4126 46.1613 40.9677C46.1613 40.1232 46.7878 39.4312 47.5997 39.3146C46.2158 37.7605 44.2071 36.7742 41.9678 36.7742C37.8061 36.7742 34.4194 40.1609 34.4194 44.3226C34.4194 45.1319 34.5502 45.9094 34.7876 46.6408ZM41.9678 39.2903C43.3024 39.2903 44.5824 39.8205 45.5261 40.7642C46.4698 41.708 47 42.9879 47 44.3226C47 45.6572 46.4698 46.9372 45.5261 47.8809C44.5824 48.8247 43.3024 49.3548 41.9678 49.3548C40.6331 49.3548 39.3531 48.8247 38.4094 47.8809C37.4657 46.9372 36.9355 45.6572 36.9355 44.3226C36.9355 42.9879 37.4657 41.708 38.4094 40.7642C39.3531 39.8205 40.6331 39.2903 41.9678 39.2903ZM22.6774 20H36.0968V25.0323H22.6774V20ZM22.6774 26.7097H24.3548V28.3871H22.6774V26.7097ZM26.0323 26.7097H36.0968V28.3871H26.0323V26.7097ZM22.6774 30.0645H36.0968V31.7419H22.6774V30.0645ZM22.6774 33.4194H26.0323V35.0968H22.6774V33.4194ZM27.7097 33.4194H36.0968V35.0968H27.7097V33.4194Z" fill="#0E78AE"/>
</g>
<defs>
<clipPath id="clip0_311_161">
<rect width="52" height="52" fill="white" transform="translate(21 20)"/>
</clipPath>
</defs>
</svg>
