<svg width="94" height="94" viewBox="0 0 94 94" fill="none" xmlns="http://www.w3.org/2000/svg">
<rect x="1" y="1" width="92" height="92" rx="46" fill="white"/>
<rect x="1" y="1" width="92" height="92" rx="46" stroke="#3E820D" stroke-width="2"/>
<g clip-path="url(#clip0_311_188)">
<path d="M62.9828 56.3602C63.7649 56.6094 64.6071 56.1797 64.8563 55.4062L66.2227 51.2125C66.3688 50.7656 66.1196 50.2758 65.6727 50.1297L63.7735 49.5109C63.8508 48.8406 63.8938 48.1703 63.8938 47.5C63.8938 46.8297 63.8508 46.1594 63.7735 45.4891L65.0711 45.068C65.4492 44.9477 65.7586 44.6812 65.9391 44.3289C66.1196 43.9766 66.1539 43.5727 66.025 43.1945L64.8563 39.6023C64.7963 39.4164 64.7001 39.2442 64.5734 39.0956C64.4467 38.947 64.2918 38.8248 64.1177 38.7362C63.9437 38.6475 63.7538 38.5942 63.559 38.5791C63.3643 38.5641 63.1685 38.5876 62.9828 38.6484L61.6852 39.0695C61.0245 37.8971 60.2316 36.8043 59.3219 35.8125L60.1297 34.7039C60.611 34.0422 60.4649 33.1055 59.8032 32.6242L56.7438 30.3984C56.0821 29.9172 55.1453 30.0633 54.6641 30.725L53.8563 31.8336C52.6274 31.2664 51.3469 30.8453 50.0321 30.5875V29.2211C50.0321 28.3961 49.3617 27.7344 48.5453 27.7344H44.7641C43.9391 27.7344 43.2774 28.4047 43.2774 29.2211V30.5875C41.9625 30.8453 40.6821 31.2664 39.4532 31.8336L38.6453 30.725C38.1641 30.0633 37.236 29.9172 36.5657 30.3984L33.5063 32.6242C33.1797 32.8562 32.9735 33.2 32.9133 33.5953C32.8532 33.9906 32.9477 34.3859 33.1797 34.7039L33.9789 35.8125C33.0673 36.8027 32.2742 37.8957 31.6157 39.0695L30.318 38.6484C30.1324 38.5869 29.9364 38.5628 29.7415 38.5775C29.5465 38.5923 29.3564 38.6455 29.1821 38.7342C29.0079 38.823 28.853 38.9454 28.7264 39.0944C28.5997 39.2434 28.504 39.4161 28.4446 39.6023L27.2758 43.1945C27.2143 43.3801 27.1902 43.5761 27.2049 43.7711C27.2196 43.966 27.2729 44.1562 27.3616 44.3304C27.4503 44.5047 27.5728 44.6596 27.7218 44.7862C27.8708 44.9128 28.0434 45.0086 28.2297 45.068L29.5274 45.4891C29.45 46.1594 29.4071 46.8297 29.4071 47.5C29.4071 48.1703 29.45 48.8406 29.5274 49.5109L27.6282 50.1297C27.1813 50.2758 26.9321 50.7656 27.0782 51.2125L28.4446 55.4062C28.5649 55.7844 28.8313 56.0937 29.1836 56.2742C29.536 56.4547 29.9399 56.4891 30.318 56.3602L31.6157 55.9391C32.2774 57.1164 33.068 58.2078 33.9789 59.1961L33.1797 60.3047C32.9477 60.6312 32.8532 61.018 32.9133 61.4133C32.9735 61.8086 33.1883 62.1523 33.5063 62.3844L36.5657 64.6102C37.2274 65.0914 38.1641 64.9453 38.6453 64.2836L39.4532 63.175C40.6821 63.7422 41.9625 64.1633 43.2774 64.4211V65.7875C43.2774 66.6125 43.9477 67.2742 44.7641 67.2742H48.5453C49.3703 67.2742 50.0321 66.6039 50.0321 65.7875V64.4211C51.3469 64.1633 52.6274 63.7422 53.8563 63.175L54.6555 64.2836C55.1367 64.9453 56.0735 65.1 56.7352 64.6102L59.7946 62.3844C60.4563 61.9031 60.611 60.9664 60.1211 60.3047L59.3219 59.1961C60.2328 58.2078 61.0235 57.1164 61.6852 55.9391L62.9828 56.3602ZM60.2672 54.9508C59.6313 56.1109 58.8492 57.1852 57.9469 58.1477C57.7082 58.4 57.5647 58.7275 57.5412 59.0741C57.5177 59.4207 57.6155 59.7646 57.818 60.0469L58.6 61.1211L55.9102 63.0719L55.1282 61.9977C54.7071 61.4219 53.9336 61.2242 53.2805 61.5336C52.0894 62.1002 50.83 62.5104 49.5336 62.7539C48.8289 62.8828 48.3133 63.5016 48.3133 64.2148V65.5383H44.9875V64.2148C44.9875 63.5016 44.4719 62.8828 43.7672 62.7539C42.4782 62.5133 41.2149 62.1008 40.0117 61.5336C39.3586 61.2242 38.5852 61.4219 38.1641 61.9977L37.3821 63.0719L34.6922 61.1211L35.4742 60.0469C35.8953 59.4711 35.8438 58.6719 35.3453 58.1477C34.4407 57.1837 33.6612 56.1096 33.025 54.9508C32.6813 54.3234 31.9336 54.0227 31.2633 54.2461L30 54.6586L28.9774 51.4961L30.2407 51.0836C30.9196 50.8602 31.3492 50.1898 31.2547 49.468C31.0834 48.1558 31.0834 46.827 31.2547 45.5148C31.3492 44.8016 30.9196 44.1227 30.2407 43.8992L28.9774 43.4867L30 40.3242L31.2633 40.7367C31.9422 40.9602 32.6813 40.6594 33.0336 40.032C33.6696 38.8719 34.4516 37.7977 35.3539 36.8352C35.8524 36.3109 35.9039 35.5117 35.4828 34.9359L34.7008 33.8617L37.3907 31.9109L38.1727 32.9852C38.5938 33.5609 39.3672 33.7586 40.0203 33.4492C41.2115 32.8826 42.4709 32.4724 43.7672 32.2289C44.4719 32.1 44.9875 31.4812 44.9875 30.768V29.4445H48.3133V30.768C48.3133 31.4812 48.8289 32.1 49.5336 32.2289C50.8227 32.4695 52.086 32.882 53.2891 33.4492C53.9422 33.7586 54.7157 33.5609 55.1367 32.9852L55.9188 31.9109L58.6086 33.8617L57.8266 34.9359C57.4055 35.5117 57.4571 36.3109 57.9555 36.8352C58.8578 37.7977 59.6399 38.8719 60.2758 40.032C60.6196 40.6594 61.3672 40.9602 62.0375 40.7367L63.3008 40.3242L64.3321 43.4867L63.0688 43.8992C62.3899 44.1227 61.9602 44.793 62.0547 45.5148C62.226 46.827 62.226 48.1558 62.0547 49.468C61.9602 50.1812 62.3899 50.8602 63.0688 51.0836L64.3321 51.4961L63.3008 54.6586L62.0375 54.2461C61.3586 54.0227 60.6196 54.3234 60.2758 54.9508H60.2672Z" fill="#4A9C0F"/>
<path d="M46.5 34.6094C39.393 34.6094 33.6094 40.393 33.6094 47.5C33.6094 54.607 39.393 60.3906 46.5 60.3906C53.607 60.3906 59.3906 54.607 59.3906 47.5C59.3906 40.393 53.607 34.6094 46.5 34.6094ZM46.5 58.6719C40.3383 58.6719 35.3281 53.6617 35.3281 47.5C35.3281 41.3383 40.3383 36.3281 46.5 36.3281C52.6617 36.3281 57.6719 41.3383 57.6719 47.5C57.6719 53.6617 52.6617 58.6719 46.5 58.6719Z" fill="#4A9C0F"/>
<path d="M48.4766 45.3516H49.7656V49.6484H48.4766V51.3672H52.7734V49.6484H51.4844V45.3516H52.7734V43.6328H48.4766V45.3516ZM44.3516 43.6328H42.6328C42.2289 43.6328 41.8852 43.9164 41.7906 44.3031L40.218 51.3672H41.9797L42.3578 49.6484H44.6094L44.9875 51.3672H46.7492L45.1766 44.3031C45.1339 44.112 45.0271 43.9412 44.8739 43.8192C44.7206 43.6973 44.5302 43.6315 44.3344 43.6328H44.3516ZM42.7531 47.9297L43.3289 45.3516H43.6727L44.2484 47.9297H42.7617H42.7531ZM59.0039 69.0617C49.5164 74.5703 37.5453 73.1695 29.5445 65.7359L31.1859 65.968L31.4266 64.2664L27.1727 63.6563C27.0405 63.6359 26.9054 63.6471 26.7783 63.6887C26.6512 63.7303 26.5357 63.8013 26.4411 63.8958C26.3466 63.9904 26.2756 64.1059 26.234 64.233C26.1924 64.3601 26.1813 64.4952 26.2016 64.6273L26.8117 68.8813L28.5133 68.6406L28.2641 66.9047C33.2099 71.5498 39.7407 74.1344 46.5258 74.132C51.1063 74.132 55.7125 72.9547 59.8719 70.5399L59.0125 69.0531L59.0039 69.0617ZM69.6859 34.3602L68.1906 35.2109C73.5445 44.6555 72.0922 56.532 64.7445 64.4555L64.9766 62.8141L63.275 62.5734L62.6649 66.8274C62.6305 67.0938 62.7164 67.3688 62.9055 67.5578C63.0688 67.7211 63.2836 67.807 63.5156 67.807H63.6359L67.8899 67.1969L67.6492 65.4953L65.8875 65.7445C73.8453 57.2797 75.4352 44.5094 69.6859 34.3688V34.3602ZM33.3602 24.3141L34.2109 25.8094C43.6555 20.4555 55.532 21.9078 63.4555 29.2641L61.8141 29.032L61.5734 30.7336L65.8274 31.3438H65.9477C66.0711 31.345 66.1933 31.3195 66.3058 31.2689C66.4184 31.2182 66.5186 31.1438 66.5995 31.0506C66.6804 30.9574 66.7401 30.8477 66.7745 30.7292C66.8088 30.6107 66.817 30.4861 66.7984 30.3641L66.1883 26.1102L64.4867 26.3508L64.7359 28.1125C56.2797 20.1547 43.5008 18.5649 33.3602 24.3141ZM28.0234 32.1859L29.725 32.4266L30.3352 28.1727C30.3695 27.9063 30.2836 27.6313 30.0945 27.4422C29.9055 27.2531 29.6391 27.1586 29.3641 27.2016L25.1102 27.8117L25.3508 29.5133L27.1125 29.2641C19.1547 37.7203 17.5649 50.4992 23.3141 60.6399L24.8094 59.7891C19.4555 50.3445 20.9078 38.468 28.2641 30.5445L28.032 32.1859H28.0234Z" fill="#4A9C0F"/>
</g>
<defs>
<clipPath id="clip0_311_188">
<rect width="55" height="55" fill="white" transform="translate(19 20)"/>
</clipPath>
</defs>
</svg>
