<svg width="60" height="60" viewBox="0 0 60 60" fill="none" xmlns="http://www.w3.org/2000/svg">
<path fill-rule="evenodd" clip-rule="evenodd" d="M27.492 1.42749H32.508C33.2227 1.42749 33.8073 2.01214 33.8073 2.72687V5.09323C33.8073 6.52456 34.6239 7.74671 35.9462 8.29444C37.2686 8.84218 38.7102 8.55542 39.7222 7.54339L41.3955 5.87007C41.9009 5.36476 42.7277 5.36476 43.233 5.87007L46.78 9.41698C47.2853 9.9223 47.2853 10.7492 46.78 11.2545L45.1068 12.9278C44.0946 13.9398 43.808 15.3815 44.3556 16.7038C44.9033 18.0262 46.1255 18.8427 47.5568 18.8427H49.9232C50.6378 18.8427 51.2225 19.4275 51.2225 20.1421V20.2806C48.4583 20.5658 45.7388 21.2923 43.0739 22.4181C42.1652 22.802 41.709 23.8267 42.0318 24.7588L42.2596 25.4167C41.0906 25.2892 40.0086 25.0294 38.9452 24.721C39.1015 24.0418 39.1802 23.3471 39.1798 22.6501C39.1798 17.5803 35.0698 13.4703 29.9999 13.4703C24.93 13.4703 20.8201 17.5803 20.8201 22.6501C20.8201 24.0842 21.1492 25.4413 21.7355 26.6505C21.056 26.6685 20.376 26.642 19.6999 26.5714C18.9707 26.4945 18.2359 26.3635 17.4778 26.1744L17.968 24.7588C18.2907 23.8267 17.8345 22.802 16.9259 22.4181C14.261 21.2923 11.5414 20.5658 8.77711 20.2806V20.1421C8.77711 19.4275 9.36187 18.8427 10.0765 18.8427H12.4429C13.8742 18.8427 15.0963 18.0262 15.6441 16.7038C16.1918 15.3815 15.905 13.9398 14.8929 12.9278L13.2199 11.2544C12.7146 10.7491 12.7146 9.92218 13.2199 9.41687L16.7668 5.86995C17.2721 5.36464 18.099 5.36464 18.6043 5.86995L20.2775 7.54327C21.2897 8.5553 22.7312 8.84206 24.0536 8.29444C25.3759 7.74671 26.1925 6.52456 26.1925 5.09323V2.72675C26.1926 2.01214 26.7773 1.42749 27.492 1.42749ZM24.4594 50.646C24.3023 50.4784 24.2173 50.2559 24.2226 50.0263C24.2279 49.7967 24.3231 49.5783 24.4877 49.4182C24.6524 49.258 24.8733 49.1689 25.103 49.17C25.3326 49.171 25.5527 49.2622 25.7159 49.4239C27.9291 51.6917 30.1283 53.9651 32.3673 56.204C33.1223 56.959 34.355 56.9588 35.11 56.204C35.863 55.4508 35.8629 54.2146 35.1098 53.4616C35.1131 53.4583 30.1937 48.421 29.7456 47.9617C29.5868 47.7944 29.5004 47.5713 29.505 47.3408C29.5096 47.1102 29.6049 46.8908 29.7702 46.73C29.9355 46.5692 30.1576 46.48 30.3882 46.4818C30.6188 46.4836 30.8394 46.5761 31.0022 46.7394C33.0408 48.8283 35.0661 50.9321 37.128 52.9942C37.8811 53.7473 39.1174 53.747 39.8703 52.9941C40.6252 52.2393 40.6257 51.0067 39.8706 50.2516C39.8739 50.2483 34.9545 45.211 34.5063 44.7517C34.424 44.6696 34.3588 44.572 34.3145 44.4645C34.2702 44.357 34.2478 44.2417 34.2485 44.1255C34.2492 44.0092 34.2731 43.8943 34.3186 43.7873C34.3642 43.6803 34.4306 43.5835 34.5139 43.5024C34.5973 43.4214 34.6959 43.3577 34.8041 43.3151C34.9123 43.2725 35.0279 43.2519 35.1441 43.2544C35.2603 43.257 35.3749 43.2826 35.4812 43.3298C35.5874 43.3771 35.6832 43.445 35.7629 43.5296C37.7184 45.5332 39.6619 47.5572 41.6394 49.5348C42.3884 50.2838 43.633 50.2838 44.382 49.5348C45.1486 48.7682 45.1045 47.5448 44.3682 46.775C43.9569 46.3432 43.5456 45.9114 43.1333 45.4804C42.5302 45.2348 41.9692 44.8649 41.481 44.3772L31.2679 34.1704C30.4072 34.8719 29.1616 35.979 29.1616 37.4946C29.1616 39.4944 28.2139 41.1331 26.7721 42.3003C25.232 43.5469 23.1206 44.2444 21.03 44.2444C20.7969 44.2444 20.5733 44.1518 20.4085 43.987C20.2437 43.8222 20.1511 43.5986 20.1511 43.3655V33.9836C20.1511 32.5819 20.6943 31.3307 21.7151 30.3708L23.9975 28.2246C22.4448 28.4311 20.9931 28.4707 19.5216 28.3156C18.6582 28.2245 17.7932 28.067 16.9021 27.8376L11.6502 43.0027C14.3302 44.3486 16.1576 46.2118 18.2044 48.3092C19.007 49.1316 27.8177 58.1902 27.8345 58.1734C28.3766 58.7157 29.2706 58.697 29.814 58.1669C30.3722 57.6185 30.377 56.6993 29.8236 56.1458L24.4594 50.646ZM42.8963 27.255C40.6598 27.1206 38.7434 26.5144 36.7731 25.8907C33.4097 24.8262 30.7437 24.2882 27.8596 27L22.9167 31.6476C22.2357 32.2879 21.9089 33.0489 21.9089 33.9831V42.4374C23.3096 42.2822 24.6529 41.7607 25.6665 40.9402C26.7148 40.0916 27.4037 38.9147 27.4037 37.4942C27.4037 35.035 29.248 33.5464 30.3485 32.6582C30.3807 32.6322 30.7414 32.3324 30.7417 32.3328C30.9084 32.1844 31.1255 32.1052 31.3486 32.1114C31.5717 32.1176 31.7841 32.2087 31.9424 32.366L42.717 43.1339C43.6593 44.0757 44.9648 44.3371 46.1979 43.8339C46.9461 43.5285 47.6326 43.197 48.3015 42.8636L42.8963 27.255ZM58.7109 22.3895C53.7266 21.3823 48.7423 21.9316 43.7579 24.0372C43.7305 24.0487 43.7085 24.0702 43.6964 24.0974C43.6843 24.1246 43.683 24.1553 43.6928 24.1834L50.7943 44.6902C50.811 44.7382 50.8542 44.7691 50.9051 44.7691H58.7109V22.3895ZM1.28906 22.3895V44.7691H9.09492C9.11935 44.7693 9.14322 44.7618 9.16312 44.7476C9.18302 44.7335 9.19791 44.7133 9.20566 44.6902L16.3072 24.1834C16.317 24.1553 16.3157 24.1246 16.3036 24.0974C16.2915 24.0702 16.2695 24.0487 16.2421 24.0372C11.2577 21.9316 6.2734 21.3823 1.28906 22.3895Z" fill="#74B329"/>
</svg>
