<svg width="60" height="60" viewBox="0 0 60 60" fill="none" xmlns="http://www.w3.org/2000/svg">
<g clip-path="url(#clip0_479_620)">
<path d="M58.4697 23.4716L54.0952 22.5968C53.6148 21.0038 52.9767 19.4627 52.1903 17.9964L54.6645 14.2852C54.8899 13.9471 54.9913 13.5413 54.9512 13.1369C54.9112 12.7325 54.7322 12.3545 54.4448 12.0671L47.8158 5.43797C47.5284 5.15065 47.1504 4.97175 46.746 4.93169C46.3417 4.89163 45.9359 4.99289 45.5978 5.21824L41.8863 7.69242C40.42 6.90614 38.8789 6.26806 37.2859 5.78766L36.4111 1.41305C36.3314 1.01458 36.1161 0.656036 35.8019 0.39841C35.4877 0.140784 35.0938 -4.36874e-06 34.6875 4.55839e-10H25.3125C24.9061 -9.25006e-06 24.5123 0.140775 24.1981 0.3984C23.8838 0.656024 23.6685 1.01457 23.5888 1.41305L22.714 5.78766C21.121 6.26811 19.5799 6.90619 18.1136 7.69242L14.4021 5.21824C14.064 4.99289 13.6582 4.89163 13.2538 4.93169C12.8495 4.97175 12.4715 5.15065 12.1841 5.43797L5.55504 12.0671C5.26766 12.3545 5.08873 12.7325 5.04869 13.1369C5.00865 13.5413 5.10998 13.9471 5.33543 14.2852L7.80961 17.9964C7.02328 19.4627 6.38516 21.0038 5.90473 22.5968L1.53023 23.4716C1.13176 23.5513 0.773212 23.7666 0.515587 24.0809C0.257962 24.3951 0.117178 24.7889 0.117188 25.1953V34.5703C0.117188 35.4082 0.708633 36.1297 1.53035 36.2939L5.90484 37.1688C6.38525 38.7618 7.02337 40.3029 7.80973 41.7691L5.33555 45.4805C5.11012 45.8186 5.0088 46.2243 5.04884 46.6287C5.08888 47.0331 5.2678 47.4111 5.55516 47.6985L12.1842 54.3275C12.4715 54.6149 12.8496 54.7938 13.2539 54.8339C13.6583 54.8739 14.0641 54.7727 14.4022 54.5473L18.0376 52.1238V41.0889C15.2846 38.1586 13.5938 34.2217 13.5938 29.8828C13.5938 20.8219 20.9391 13.4766 30 13.4766C39.0609 13.4766 46.4062 20.8219 46.4062 29.8828C46.4062 34.2217 44.7154 38.1586 41.9624 41.0889V52.1238L45.5978 54.5473C45.8862 54.7399 46.2253 54.8427 46.5722 54.8426C47.0258 54.8426 47.4761 54.6674 47.8157 54.3277L54.4447 47.6986C54.7321 47.4113 54.911 47.0332 54.951 46.6288C54.9911 46.2245 54.8898 45.8187 54.6643 45.4806L52.1902 41.7693C52.9765 40.303 53.6146 38.7619 54.095 37.1689L58.4695 36.294C58.868 36.2144 59.2267 35.9991 59.4843 35.6848C59.742 35.3706 59.8828 34.9767 59.8828 34.5703V25.1953C59.8828 24.7889 59.742 24.3951 59.4844 24.0808C59.2267 23.7666 58.8681 23.5513 58.4697 23.4716Z" fill="#84255D"/>
<path d="M35.5686 20.2513C34.684 19.7388 33.5616 20.2826 33.4154 21.2944L32.3438 28.7109H27.6562L26.5847 21.2944C26.4384 20.2826 25.3161 19.7388 24.4315 20.2513C20.9992 22.2394 18.8672 25.9301 18.8672 29.8828C18.8672 34.1662 21.266 37.998 25.1275 39.8828L25.3125 39.9731V58.2422C25.3125 59.213 26.0995 60 27.0703 60H32.9297C33.9005 60 34.6875 59.213 34.6875 58.2422V39.9731L34.8725 39.8828C38.734 37.998 41.1328 34.1662 41.1328 29.8828C41.1328 25.9301 39.0008 22.2394 35.5686 20.2513Z" fill="#84255D"/>
</g>
<defs>
<clipPath id="clip0_479_620">
<rect width="60" height="60" fill="white"/>
</clipPath>
</defs>
</svg>
