<svg width="60" height="60" viewBox="0 0 60 60" fill="none" xmlns="http://www.w3.org/2000/svg">
<path d="M59.0349 32.1843C59.1276 34.3995 58.3378 36.561 56.8389 38.1947C55.3399 39.8283 53.2541 40.8006 51.0392 40.8984C50.9096 40.9044 50.7803 40.9074 50.6513 40.9074C50.0628 40.907 49.476 40.8433 48.9011 40.7174C47.1953 43.3512 44.9585 45.5999 42.3339 47.3198C39.7093 49.0396 36.7546 50.1927 33.6589 50.7053C33.2927 51.781 32.5622 52.695 31.5936 53.2893C30.6251 53.8835 29.4793 54.1207 28.3545 53.9598C27.2296 53.7989 26.1963 53.25 25.4332 52.408C24.6701 51.5661 24.2251 50.484 24.1752 49.3488C24.1253 48.2135 24.4736 47.0965 25.1599 46.1909C25.8462 45.2852 26.8273 44.6478 27.9337 44.3888C29.0401 44.1298 30.2023 44.2655 31.2192 44.7725C32.2362 45.2794 33.0441 46.1258 33.5032 47.1652C37.8616 46.3591 41.799 44.0492 44.6291 40.6381C47.4592 37.2269 49.0025 32.9308 48.9901 28.4985C48.9901 18.0272 40.4712 9.5083 29.9999 9.5083C19.5286 9.5083 11.0097 18.0272 11.0097 28.4985C11.0091 31.7364 11.8366 34.9207 13.4135 37.7486C13.467 37.8419 13.5071 37.9423 13.5327 38.0467C13.685 38.4701 13.6688 38.9358 13.4872 39.3475C13.3057 39.7592 12.9729 40.0853 12.5576 40.2584C11.5407 40.6864 10.4485 40.9068 9.34526 40.9066C9.21542 40.9066 9.0853 40.9036 8.95491 40.8976C6.74087 40.7986 4.65642 39.8257 3.15864 38.1921C1.66085 36.5586 0.871958 34.3978 0.964949 32.1835C1.00233 31.3005 0.981472 30.5126 0.961082 29.7508C0.942097 29.0335 0.922293 28.2917 0.954871 27.5177C1.0521 25.3556 1.98213 23.3151 3.55017 21.8234C5.11821 20.3317 7.20262 19.5046 9.36682 19.5153C12.8421 11.5639 20.7819 5.99268 29.9999 5.99268C39.2179 5.99268 47.1578 11.5639 50.6331 19.5154C52.7975 19.5031 54.8826 20.3295 56.4509 21.8212C58.0192 23.3129 58.9489 25.3541 59.0448 27.5164C59.0775 28.2916 59.0578 29.0333 59.0386 29.7506C59.0185 30.5125 58.9975 31.3007 59.0349 32.1843ZM44.7427 28.4985C44.7418 30.7571 44.2222 32.9854 43.224 35.0114C42.2257 37.0374 40.7755 38.8071 38.9851 40.184C37.1947 41.5609 35.112 42.5082 32.8976 42.9528C30.6832 43.3975 28.3962 43.3276 26.2131 42.7485L20.2458 46.1947C19.9447 46.3685 19.5988 46.4492 19.2519 46.4265C18.9049 46.4038 18.5725 46.2787 18.2967 46.067C18.0208 45.8554 17.8139 45.5667 17.7022 45.2374C17.5904 44.9082 17.5788 44.5532 17.6689 44.2174L19.1939 38.5281C16.6683 35.7982 15.263 32.2175 15.2577 28.4985C15.2577 20.3671 21.8707 13.7524 29.9999 13.7524C38.1291 13.7524 44.7427 20.3671 44.7427 28.4985ZM25.9013 28.4985C25.9013 28.0323 25.7161 27.5852 25.3864 27.2556C25.0568 26.9259 24.6097 26.7407 24.1435 26.7407H24.1405C23.793 26.7414 23.4535 26.845 23.1648 27.0386C22.8762 27.2321 22.6514 27.5069 22.5189 27.8281C22.3863 28.1494 22.352 28.5027 22.4202 28.8435C22.4884 29.1842 22.6561 29.4971 22.902 29.7427C23.148 29.9882 23.4612 30.1552 23.8021 30.2228C24.143 30.2904 24.4963 30.2554 24.8173 30.1222C25.1383 29.9891 25.4126 29.7638 25.6056 29.4748C25.7986 29.1858 25.9016 28.8461 25.9016 28.4985H25.9013ZM31.7581 28.4985C31.7579 28.441 31.7548 28.3835 31.7487 28.3263C31.7432 28.2688 31.7346 28.2117 31.723 28.1552C31.7125 28.0989 31.6984 28.0433 31.6807 27.9888C31.6644 27.9337 31.6445 27.8798 31.6234 27.8259C31.6023 27.772 31.5766 27.7216 31.5496 27.6712C31.5228 27.6205 31.4935 27.5712 31.4617 27.5235C31.4297 27.4753 31.3952 27.4288 31.3585 27.3841C31.3223 27.3393 31.2837 27.2966 31.2426 27.2563C31.2027 27.2153 31.1594 27.1767 31.1148 27.1392C31.0702 27.104 31.0233 27.0688 30.9753 27.0372C30.9276 27.0054 30.8784 26.9761 30.8277 26.9493C30.7772 26.9224 30.7246 26.8978 30.6717 26.8755C30.619 26.8534 30.565 26.8342 30.5101 26.8181C30.4005 26.7829 30.2873 26.7601 30.1726 26.7501C30.0005 26.7335 29.8268 26.7418 29.657 26.7747C29.6005 26.7862 29.5446 26.8007 29.4896 26.8181C29.4346 26.8342 29.3806 26.8534 29.3278 26.8755C29.2751 26.8978 29.2224 26.9224 29.172 26.9493C29.1216 26.9763 29.0724 27.0056 29.0242 27.0372C28.928 27.101 28.8385 27.1745 28.7571 27.2563C28.716 27.2967 28.6772 27.3393 28.641 27.3841C28.6047 27.4288 28.5707 27.4754 28.5392 27.5235C28.507 27.5712 28.4772 27.6205 28.4501 27.6712C28.4231 27.7214 28.3988 27.773 28.3773 27.8259C28.3551 27.8792 28.3355 27.9335 28.3187 27.9888C28.3025 28.0427 28.2884 28.0989 28.2767 28.1552C28.2651 28.2117 28.2564 28.2688 28.2508 28.3263C28.245 28.3837 28.2426 28.4411 28.2426 28.4985C28.2426 28.556 28.245 28.6146 28.2508 28.672C28.2565 28.729 28.2652 28.7857 28.2767 28.8419C28.2884 28.8981 28.3025 28.9544 28.3187 29.0095C28.3355 29.0643 28.3551 29.1183 28.3773 29.1712C28.3988 29.2244 28.4231 29.2764 28.4501 29.327C28.4769 29.3774 28.5075 29.4267 28.5392 29.4747C28.5707 29.5225 28.6047 29.5687 28.641 29.613C28.6775 29.6579 28.7163 29.7009 28.7571 29.7419C28.7982 29.7817 28.8403 29.8216 28.886 29.8579C28.9301 29.8945 28.9762 29.9285 29.0242 29.9599C29.0724 29.9915 29.1215 30.022 29.172 30.0489C29.2738 30.102 29.38 30.1459 29.4896 30.1802C29.5445 30.1966 29.6008 30.2106 29.657 30.2224C29.77 30.2455 29.8851 30.2569 30.0004 30.2563C30.466 30.2551 30.9124 30.0702 31.2426 29.7419C31.3236 29.6597 31.3969 29.5702 31.4617 29.4747C31.4933 29.4267 31.5226 29.3774 31.5496 29.327C31.5766 29.2767 31.6012 29.2239 31.6234 29.1712C31.6457 29.1185 31.6644 29.0634 31.6807 29.0095C31.6983 28.9545 31.7124 28.8986 31.723 28.8419C31.7345 28.7857 31.7431 28.729 31.7487 28.672C31.7547 28.6143 31.7577 28.5563 31.7577 28.4983L31.7581 28.4985ZM37.6175 28.4985C37.6175 28.0323 37.4323 27.5852 37.1026 27.2556C36.7729 26.9259 36.3258 26.7407 35.8596 26.7407H35.8562C35.5087 26.7414 35.1692 26.8451 34.8806 27.0386C34.592 27.2322 34.3672 27.5069 34.2347 27.8282C34.1021 28.1495 34.0678 28.5028 34.136 28.8435C34.2042 29.1843 34.3719 29.4972 34.6179 29.7427C34.8638 29.9882 35.1771 30.1553 35.518 30.2228C35.8588 30.2904 36.2121 30.2554 36.5331 30.1222C36.8541 29.9891 37.1284 29.7638 37.3214 29.4748C37.5144 29.1858 37.6175 28.8461 37.6175 28.4985Z" fill="#1A8BA8"/>
</svg>
