<svg width="43" height="43" viewBox="0 0 43 43" fill="none" xmlns="http://www.w3.org/2000/svg">
<g clip-path="url(#clip0_476_460)">
<path fill-rule="evenodd" clip-rule="evenodd" d="M33.4448 7.32356H35.716V15.0165C35.7161 15.1501 35.7692 15.2783 35.8637 15.3727C35.9581 15.4672 36.0862 15.5203 36.2199 15.5204H39.7212C39.8549 15.5204 39.9831 15.4674 40.0776 15.3729C40.1721 15.2784 40.2252 15.1502 40.2252 15.0165V7.32356H42.4961C42.5914 7.32355 42.6848 7.29649 42.7654 7.24553C42.8459 7.19456 42.9104 7.1218 42.9513 7.03567C42.9921 6.94954 43.0077 6.85359 42.9962 6.75895C42.9847 6.66431 42.9467 6.57487 42.8864 6.50102L38.3615 0.951082C38.3143 0.89313 38.2547 0.846422 38.1872 0.814345C38.1196 0.782267 38.0458 0.765625 37.971 0.765625C37.8962 0.765625 37.8224 0.782267 37.7549 0.814345C37.6873 0.846422 37.6277 0.89313 37.5805 0.951082L33.0546 6.50094C32.9943 6.57479 32.9562 6.66423 32.9447 6.75887C32.9332 6.8535 32.9488 6.94946 32.9897 7.03558C33.0305 7.12171 33.095 7.19448 33.1756 7.24544C33.2561 7.2964 33.3495 7.32355 33.4448 7.32356ZM37.3631 26.1492H33.309C33.1753 26.1492 33.0471 26.0961 32.9526 26.0016C32.8581 25.9071 32.8051 25.7789 32.8051 25.6453C32.8051 25.5116 32.8581 25.3834 32.9526 25.2889C33.0471 25.1944 33.1753 25.1414 33.309 25.1414H37.3631C37.4967 25.1414 37.6249 25.1944 37.7194 25.2889C37.8139 25.3834 37.867 25.5116 37.867 25.6453C37.867 25.7789 37.8139 25.9071 37.7194 26.0016C37.6249 26.0961 37.4967 26.1492 37.3631 26.1492ZM41.9922 33.1686V18.1217C41.9922 18.0522 41.9785 17.9834 41.9519 17.9192C41.9253 17.855 41.8863 17.7967 41.8372 17.7476C41.7881 17.6984 41.7298 17.6595 41.6656 17.6329C41.6014 17.6063 41.5326 17.5926 41.4631 17.5926H26.0839V19.2991H36.8775C36.9464 19.2991 37.0146 19.3133 37.0777 19.3407C37.1409 19.3682 37.1978 19.4083 37.2449 19.4585C37.292 19.5088 37.3283 19.5682 37.3515 19.6331C37.3747 19.6979 37.3844 19.7668 37.3799 19.8356C37.3765 19.8845 37.3748 19.9335 37.3748 19.9825C37.3756 20.573 37.6106 21.139 38.0282 21.5565C38.4458 21.9739 39.0119 22.2087 39.6024 22.2093C39.6499 22.2093 39.6978 22.2077 39.7494 22.2046C39.8181 22.2001 39.8871 22.2098 39.952 22.2331C40.0168 22.2563 40.0762 22.2926 40.1265 22.3397C40.1768 22.3869 40.2169 22.4438 40.2443 22.507C40.2717 22.5702 40.2859 22.6384 40.2859 22.7073V28.7564C40.2857 28.89 40.2326 29.0181 40.1381 29.1125C40.0437 29.207 39.9156 29.2602 39.782 29.2603C39.1916 29.2609 38.6255 29.4957 38.208 29.9131C37.7905 30.3306 37.5556 30.8966 37.5549 31.487C37.5549 31.6206 37.5018 31.7488 37.4073 31.8433C37.3128 31.9378 37.1846 31.9909 37.051 31.9909H26.0839V33.6974H41.4631C41.5326 33.6974 41.6014 33.6837 41.6656 33.6572C41.7298 33.6306 41.7881 33.5916 41.8372 33.5425C41.8863 33.4933 41.9253 33.435 41.9519 33.3708C41.9785 33.3066 41.9922 33.2378 41.9922 33.1683V33.1686ZM25.0759 40.7661C25.0757 40.8883 25.0271 41.0055 24.9407 41.0919C24.8544 41.1784 24.7373 41.2271 24.6151 41.2274H1.46863C1.34643 41.2271 1.22933 41.1784 1.14295 41.0919C1.05658 41.0055 1.00799 40.8883 1.00781 40.7661V10.5241C1.00783 10.4019 1.05638 10.2847 1.14279 10.1982C1.22919 10.1117 1.34639 10.0631 1.46863 10.063H5.51845V12.3107H3.75998C3.62634 12.3107 3.49817 12.3638 3.40366 12.4583C3.30916 12.5528 3.25607 12.681 3.25607 12.8146V18.8622C3.25607 18.9958 3.30916 19.124 3.40366 19.2185C3.49817 19.313 3.62634 19.3661 3.75998 19.3661H22.3237C22.4574 19.3661 22.5855 19.313 22.68 19.2185C22.7745 19.124 22.8276 18.9958 22.8276 18.8622V12.8147C22.8276 12.6811 22.7745 12.5529 22.68 12.4584C22.5855 12.3639 22.4574 12.3108 22.3237 12.3108H20.5653V10.063H24.6151C24.7373 10.0633 24.8543 10.1119 24.9407 10.1984C25.0271 10.2848 25.0757 10.4019 25.0759 10.5241V40.7661ZM5.51845 15.554V13.3187H4.26397V18.3582H21.8201V13.3191H20.5653V15.554H20.7658C20.8995 15.554 21.0276 15.6071 21.1221 15.7016C21.2166 15.7961 21.2697 15.9243 21.2697 16.0579C21.2697 16.1916 21.2166 16.3198 21.1221 16.4143C21.0276 16.5088 20.8995 16.5618 20.7658 16.5618H5.31789C5.18425 16.5618 5.05608 16.5088 4.96158 16.4143C4.86707 16.3198 4.81398 16.1916 4.81398 16.0579C4.81398 15.9243 4.86707 15.7961 4.96158 15.7016C5.05608 15.6071 5.18425 15.554 5.31789 15.554H5.51845ZM26.0839 29.9255V30.9837H36.5861C36.6937 30.3086 37.0119 29.6847 37.4953 29.2013C37.9787 28.7178 38.6025 28.3995 39.2776 28.2919V23.2016C38.5359 23.1258 37.8431 22.7965 37.3159 22.2693C36.7887 21.7421 36.4594 21.0493 36.3836 20.3076H26.0839V21.3651C26.7643 21.1336 27.4902 21.0677 28.2012 21.1728C28.9123 21.2779 29.588 21.551 30.1724 21.9695C30.7567 22.3879 31.2329 22.9397 31.5615 23.579C31.89 24.2183 32.0613 24.9267 32.0613 25.6455C32.0613 26.3642 31.89 27.0726 31.5615 27.7119C31.2329 28.3512 30.7567 28.903 30.1724 29.3215C29.588 29.7399 28.9123 30.0131 28.2012 30.1182C27.4902 30.2233 26.7643 30.1574 26.0839 29.9259V29.9255ZM26.0839 27.3868V26.3313C26.1606 26.2938 26.2456 26.2765 26.3309 26.2809C26.4162 26.2854 26.4989 26.3115 26.5713 26.3569C26.6436 26.4022 26.7033 26.4652 26.7445 26.54C26.7857 26.6148 26.8072 26.6989 26.807 26.7843C26.8084 26.8726 26.8295 26.9595 26.8685 27.0388C26.9075 27.118 26.9637 27.1876 27.0328 27.2426V26.0778C26.6482 25.9693 26.313 25.7312 26.0838 25.4038V23.6081C26.313 23.2808 26.6482 23.0427 27.0328 22.9342V22.757C27.0328 22.6234 27.0859 22.4952 27.1804 22.4007C27.2749 22.3062 27.4031 22.2531 27.5367 22.2531C27.6704 22.2531 27.7985 22.3062 27.893 22.4007C27.9875 22.4952 28.0406 22.6234 28.0406 22.757V22.9342C28.7534 23.1386 29.2741 23.7656 29.2741 24.506C29.2741 24.6397 29.221 24.7678 29.1265 24.8623C29.032 24.9568 28.9038 25.0099 28.7702 25.0099C28.6365 25.0099 28.5084 24.9568 28.4139 24.8623C28.3194 24.7678 28.2663 24.6397 28.2663 24.506C28.265 24.4176 28.2441 24.3306 28.2051 24.2513C28.166 24.172 28.1098 24.1024 28.0405 24.0475V25.2122C28.7532 25.4171 29.2739 26.0443 29.2739 26.7844C29.2739 27.5246 28.7532 28.1518 28.0405 28.3563V28.5326C28.0405 28.6663 27.9874 28.7945 27.8929 28.889C27.7984 28.9835 27.6702 29.0366 27.5365 29.0366C27.4029 29.0366 27.2747 28.9835 27.1802 28.889C27.0857 28.7945 27.0326 28.6663 27.0326 28.5326V28.3563C26.6481 28.2477 26.3128 28.0096 26.0836 27.6822V27.387L26.0839 27.3868ZM29.7782 6.38008C29.7769 5.15871 29.2912 3.98771 28.4276 3.12403C27.564 2.26035 26.3931 1.77454 25.1717 1.77321H25.1701C23.9491 1.77512 22.7786 2.26116 21.9154 3.12476C21.0522 3.98836 20.5666 5.15904 20.5653 6.38008V9.05499H24.6151C25.0045 9.05556 25.3778 9.21054 25.6531 9.48595C25.9285 9.76135 26.0834 10.1347 26.0839 10.5241V16.5847H29.7782V6.38008ZM41.4631 16.5847C41.8705 16.5852 42.2611 16.7473 42.5493 17.0354C42.8374 17.3235 42.9995 17.7142 43 18.1216V33.1686C42.9995 33.576 42.8374 33.9667 42.5493 34.2548C42.2612 34.5429 41.8705 34.705 41.4631 34.7055H26.0839V40.7661C26.0834 41.1555 25.9285 41.5289 25.6531 41.8042C25.3778 42.0796 25.0045 42.2345 24.6151 42.2349H1.46863C1.07927 42.2344 0.706014 42.0795 0.430707 41.8041C0.1554 41.5288 0.00051099 41.1555 0 40.7661L0 10.5241C0.000510886 10.1347 0.155413 9.76137 0.430746 9.48597C0.70608 9.21057 1.07938 9.05559 1.4688 9.05499H5.51845V4.96638C5.51983 3.8559 5.96035 2.79104 6.7439 2.00415C7.52744 1.21725 8.59041 0.772184 9.70087 0.766064H25.1716C26.6602 0.767732 28.0873 1.35978 29.1398 2.41233C30.1924 3.46488 30.7845 4.89197 30.7862 6.3805V16.5847H41.4631ZM22.3236 21.3525H18.9469C18.8807 21.3524 18.8151 21.3654 18.754 21.3907C18.6928 21.416 18.6372 21.4531 18.5904 21.4999C18.5436 21.5467 18.5065 21.6023 18.4812 21.6635C18.4559 21.7246 18.4429 21.7902 18.443 21.8564V25.2337C18.4429 25.2999 18.4559 25.3655 18.4812 25.4267C18.5065 25.4878 18.5436 25.5434 18.5904 25.5902C18.6372 25.637 18.6928 25.6741 18.754 25.6994C18.8151 25.7247 18.8807 25.7377 18.9469 25.7376H22.3239C22.4575 25.7376 22.5857 25.6846 22.6802 25.5901C22.7747 25.4956 22.8278 25.3674 22.8278 25.2337V21.8565C22.8278 21.7228 22.7747 21.5947 22.6802 21.5002C22.5857 21.4057 22.4575 21.3526 22.3239 21.3526L22.3236 21.3525ZM14.7309 21.3525H11.3528C11.2191 21.3525 11.0909 21.4056 10.9964 21.5001C10.9019 21.5946 10.8489 21.7227 10.8489 21.8564V25.2337C10.8489 25.3674 10.9019 25.4956 10.9964 25.5901C11.0909 25.6846 11.2191 25.7376 11.3528 25.7376H14.7309C14.8645 25.7376 14.9927 25.6846 15.0872 25.5901C15.1817 25.4956 15.2348 25.3674 15.2348 25.2337V21.8565C15.2348 21.7228 15.1817 21.5947 15.0872 21.5002C14.9927 21.4057 14.8645 21.3525 14.7309 21.3525ZM7.13691 21.3525H3.75998C3.62634 21.3525 3.49817 21.4056 3.40366 21.5001C3.30916 21.5946 3.25607 21.7227 3.25607 21.8564V25.2337C3.25607 25.3674 3.30916 25.4956 3.40366 25.5901C3.49817 25.6846 3.62634 25.7376 3.75998 25.7376H7.13699C7.27064 25.7376 7.39881 25.6846 7.49331 25.5901C7.58781 25.4956 7.6409 25.3674 7.6409 25.2337V21.8565C7.6409 21.7228 7.58781 21.5947 7.49331 21.5002C7.39881 21.4057 7.27064 21.3526 7.13699 21.3526L7.13691 21.3525ZM22.3236 27.9733H18.9469C18.8807 27.9732 18.8151 27.9862 18.754 28.0115C18.6928 28.0368 18.6372 28.0739 18.5904 28.1208C18.5436 28.1676 18.5065 28.2231 18.4812 28.2843C18.4559 28.3455 18.4429 28.411 18.443 28.4772V31.8546C18.443 31.9883 18.4961 32.1165 18.5906 32.211C18.6851 32.3055 18.8132 32.3586 18.9469 32.3586H22.3239C22.4575 32.3586 22.5857 32.3055 22.6802 32.211C22.7747 32.1165 22.8278 31.9883 22.8278 31.8546V28.4773C22.8278 28.3437 22.7747 28.2155 22.6802 28.121C22.5857 28.0265 22.4575 27.9734 22.3239 27.9734L22.3236 27.9733ZM14.7309 27.9733H11.3528C11.2191 27.9733 11.0909 28.0264 10.9964 28.1209C10.9019 28.2154 10.8489 28.3436 10.8489 28.4772V31.8546C10.8489 31.9883 10.9019 32.1165 10.9964 32.211C11.0909 32.3055 11.2191 32.3586 11.3528 32.3586H14.7309C14.8645 32.3586 14.9927 32.3055 15.0872 32.211C15.1817 32.1165 15.2348 31.9883 15.2348 31.8546V28.4773C15.2348 28.3437 15.1817 28.2155 15.0872 28.121C14.9927 28.0265 14.8645 27.9734 14.7309 27.9734V27.9733ZM7.13691 27.9733H3.75998C3.62634 27.9733 3.49817 28.0264 3.40366 28.1209C3.30916 28.2154 3.25607 28.3436 3.25607 28.4772V31.8546C3.25607 31.9883 3.30916 32.1165 3.40366 32.211C3.49817 32.3055 3.62634 32.3586 3.75998 32.3586H7.13699C7.27064 32.3586 7.39881 32.3055 7.49331 32.211C7.58781 32.1165 7.6409 31.9883 7.6409 31.8546V28.4773C7.6409 28.3437 7.58781 28.2155 7.49331 28.121C7.39881 28.0265 7.27064 27.9734 7.13699 27.9734L7.13691 27.9733ZM22.3237 34.5941H18.9469C18.8132 34.5941 18.6851 34.6472 18.5906 34.7417C18.4961 34.8362 18.443 34.9644 18.443 35.098V38.4755C18.443 38.6091 18.4961 38.7373 18.5906 38.8318C18.6851 38.9263 18.8132 38.9794 18.9469 38.9794H22.3239C22.4575 38.9794 22.5857 38.9263 22.6802 38.8318C22.7747 38.7373 22.8278 38.6091 22.8278 38.4755V35.0981C22.8278 34.9645 22.7747 34.8363 22.6802 34.7418C22.5857 34.6473 22.4575 34.5942 22.3239 34.5942L22.3237 34.5941ZM14.7309 34.5941H11.3528C11.2191 34.5941 11.0909 34.6472 10.9964 34.7417C10.9019 34.8362 10.8489 34.9644 10.8489 35.098V38.4755C10.8489 38.6091 10.9019 38.7373 10.9964 38.8318C11.0909 38.9263 11.2191 38.9794 11.3528 38.9794H14.7309C14.8645 38.9794 14.9927 38.9263 15.0872 38.8318C15.1817 38.7373 15.2348 38.6091 15.2348 38.4755V35.0981C15.2348 34.9645 15.1817 34.8363 15.0872 34.7418C14.9927 34.6473 14.8645 34.5942 14.7309 34.5942L14.7309 34.5941ZM7.13699 34.5941H3.75998C3.62634 34.5941 3.49817 34.6472 3.40366 34.7417C3.30916 34.8362 3.25607 34.9644 3.25607 35.098V38.4755C3.25607 38.6091 3.30916 38.7373 3.40366 38.8318C3.49817 38.9263 3.62634 38.9794 3.75998 38.9794H7.13699C7.27064 38.9794 7.39881 38.9263 7.49331 38.8318C7.58781 38.7373 7.6409 38.6091 7.6409 38.4755V35.0981C7.6409 34.9645 7.58781 34.8363 7.49331 34.7418C7.39881 34.6473 7.27064 34.5942 7.13699 34.5942V34.5941ZM28.0407 26.3258C28.111 26.3798 28.1678 26.4492 28.207 26.5287C28.2462 26.6082 28.2665 26.6956 28.2665 26.7842C28.2665 26.8728 28.2462 26.9602 28.207 27.0397C28.1678 27.1192 28.111 27.1886 28.0407 27.2426V26.3258ZM27.0329 24.0475V24.9644C26.9626 24.9104 26.9057 24.841 26.8666 24.7615C26.8274 24.682 26.8071 24.5946 26.8071 24.506C26.8071 24.4174 26.8274 24.3299 26.8666 24.2505C26.9057 24.171 26.9626 24.1015 27.0329 24.0475Z" fill="#3C1573"/>
<path fill-rule="evenodd" clip-rule="evenodd" d="M37.3631 26.1492H33.309C33.1753 26.1492 33.0471 26.0961 32.9526 26.0016C32.8581 25.9071 32.8051 25.779 32.8051 25.6453C32.8051 25.5117 32.8581 25.3835 32.9526 25.289C33.0471 25.1945 33.1753 25.1414 33.309 25.1414H37.3631C37.4967 25.1414 37.6249 25.1945 37.7194 25.289C37.8139 25.3835 37.867 25.5117 37.867 25.6453C37.867 25.779 37.8139 25.9071 37.7194 26.0016C37.6249 26.0961 37.4967 26.1492 37.3631 26.1492ZM41.9922 33.1686V18.1217C41.9922 18.0523 41.9785 17.9835 41.9519 17.9193C41.9253 17.8551 41.8863 17.7967 41.8372 17.7476C41.7881 17.6985 41.7298 17.6595 41.6656 17.6329C41.6014 17.6063 41.5326 17.5926 41.4631 17.5926H26.0839V19.2991H36.8775C36.9464 19.2992 37.0146 19.3134 37.0777 19.3408C37.1409 19.3682 37.1978 19.4083 37.2449 19.4586C37.292 19.5089 37.3283 19.5683 37.3515 19.6331C37.3747 19.698 37.3844 19.7669 37.3799 19.8356C37.3765 19.8845 37.3748 19.9335 37.3748 19.9826C37.3756 20.573 37.6106 21.1391 38.0282 21.5565C38.4458 21.974 39.0119 22.2087 39.6024 22.2093C39.6499 22.2093 39.6978 22.2077 39.7494 22.2046C39.8181 22.2002 39.8871 22.2099 39.952 22.2331C40.0168 22.2564 40.0762 22.2927 40.1265 22.3398C40.1768 22.3869 40.2169 22.4438 40.2443 22.5071C40.2717 22.5703 40.2859 22.6385 40.2859 22.7074V28.7564C40.2857 28.89 40.2326 29.0181 40.1381 29.1126C40.0437 29.2071 39.9156 29.2602 39.782 29.2603C39.1916 29.261 38.6255 29.4957 38.208 29.9132C37.7905 30.3306 37.5556 30.8966 37.5549 31.487C37.5549 31.6207 37.5018 31.7488 37.4073 31.8433C37.3128 31.9378 37.1846 31.9909 37.051 31.9909H26.0839V33.6975H41.4631C41.5326 33.6975 41.6014 33.6838 41.6656 33.6572C41.7298 33.6306 41.7881 33.5916 41.8372 33.5425C41.8863 33.4934 41.9253 33.4351 41.9519 33.3709C41.9785 33.3067 41.9922 33.2381 41.9922 33.1686ZM25.0759 40.7662C25.0757 40.8884 25.0271 41.0055 24.9407 41.092C24.8544 41.1784 24.7373 41.2271 24.6151 41.2274H1.46863C1.34643 41.2271 1.22933 41.1784 1.14295 41.092C1.05658 41.0055 1.00799 40.8884 1.00781 40.7662V10.5242C1.00783 10.4019 1.05638 10.2847 1.14279 10.1982C1.22919 10.1118 1.34639 10.0631 1.46863 10.063H5.51845V12.3108H3.75998C3.62634 12.3108 3.49817 12.3639 3.40367 12.4584C3.30916 12.5529 3.25607 12.681 3.25607 12.8147V18.8622C3.25607 18.9959 3.30916 19.124 3.40367 19.2185C3.49817 19.313 3.62634 19.3661 3.75998 19.3661H22.3237C22.4574 19.3661 22.5855 19.313 22.68 19.2185C22.7745 19.124 22.8276 18.9959 22.8276 18.8622V12.8148C22.8276 12.6811 22.7745 12.5529 22.68 12.4584C22.5855 12.3639 22.4574 12.3109 22.3237 12.3109H20.5653V10.063H24.6151C24.7373 10.0633 24.8543 10.112 24.9407 10.1984C25.0271 10.2849 25.0757 10.402 25.0759 10.5242V40.7662ZM5.51845 15.5541V13.3188H4.26397V18.3582H21.8201V13.3192H20.5653V15.5541H20.7658C20.8995 15.5541 21.0276 15.6072 21.1221 15.7017C21.2166 15.7962 21.2697 15.9243 21.2697 16.058C21.2697 16.1916 21.2166 16.3198 21.1221 16.4143C21.0276 16.5088 20.8995 16.5619 20.7658 16.5619H5.31789C5.18425 16.5619 5.05608 16.5088 4.96158 16.4143C4.86707 16.3198 4.81398 16.1916 4.81398 16.058C4.81398 15.9243 4.86707 15.7962 4.96158 15.7017C5.05608 15.6072 5.18425 15.5541 5.31789 15.5541H5.51845ZM26.0839 29.9256V30.9838H36.5861C36.6937 30.3086 37.0119 29.6848 37.4953 29.2013C37.9787 28.7179 38.6025 28.3996 39.2776 28.2919V23.2016C38.5359 23.1258 37.8431 22.7966 37.3159 22.2694C36.7887 21.7422 36.4594 21.0493 36.3836 20.3076H26.0839V21.3651C26.7643 21.1336 27.4902 21.0677 28.2012 21.1728C28.9123 21.2779 29.588 21.5511 30.1724 21.9695C30.7567 22.388 31.2329 22.9398 31.5615 23.5791C31.89 24.2183 32.0613 24.9268 32.0613 25.6455C32.0613 26.3643 31.89 27.0727 31.5615 27.712C31.2329 28.3513 30.7567 28.903 30.1724 29.3215C29.588 29.74 28.9123 30.0131 28.2012 30.1182C27.4902 30.2233 26.7643 30.1571 26.0839 29.9256ZM26.0839 27.3869V26.3314C26.1606 26.2939 26.2456 26.2765 26.3309 26.281C26.4162 26.2855 26.4989 26.3116 26.5713 26.3569C26.6436 26.4023 26.7033 26.4653 26.7445 26.5401C26.7857 26.6148 26.8072 26.6989 26.807 26.7843C26.8084 26.8726 26.8295 26.9596 26.8685 27.0388C26.9075 27.1181 26.9637 27.1877 27.0328 27.2427V26.0778C26.6482 25.9693 26.313 25.7312 26.0838 25.4039V23.6082C26.313 23.2809 26.6482 23.0428 27.0328 22.9342V22.7571C27.0328 22.6234 27.0859 22.4953 27.1804 22.4008C27.2749 22.3063 27.4031 22.2532 27.5367 22.2532C27.6704 22.2532 27.7985 22.3063 27.893 22.4008C27.9875 22.4953 28.0406 22.6234 28.0406 22.7571V22.9342C28.7534 23.1386 29.2741 23.7657 29.2741 24.5061C29.2741 24.6397 29.221 24.7679 29.1265 24.8624C29.032 24.9569 28.9038 25.01 28.7702 25.01C28.6365 25.01 28.5084 24.9569 28.4139 24.8624C28.3194 24.7679 28.2663 24.6397 28.2663 24.5061C28.265 24.4177 28.2441 24.3307 28.2051 24.2514C28.166 24.1721 28.1098 24.1024 28.0405 24.0476V25.2123C28.7532 25.4171 29.2739 26.0443 29.2739 26.7845C29.2739 27.5246 28.7532 28.1518 28.0405 28.3563V28.5327C28.0405 28.6663 27.9874 28.7945 27.8929 28.889C27.7984 28.9835 27.6702 29.0366 27.5365 29.0366C27.4029 29.0366 27.2747 28.9835 27.1802 28.889C27.0857 28.7945 27.0326 28.6663 27.0326 28.5327V28.3563C26.6481 28.2477 26.3128 28.0096 26.0836 27.6823L26.0839 27.3869ZM29.7782 6.38013C29.7769 5.15876 29.2912 3.98776 28.4276 3.12408C27.564 2.2604 26.3931 1.77459 25.1717 1.77325H25.1701C23.9491 1.77517 22.7786 2.26121 21.9154 3.12481C21.0522 3.98841 20.5666 5.15908 20.5653 6.38013V9.05504H24.6151C25.0045 9.05561 25.3778 9.21059 25.6531 9.48599C25.9285 9.7614 26.0834 10.1347 26.0839 10.5242V16.5847H29.7782V6.38013ZM41.4631 16.5847C41.8705 16.5853 42.2611 16.7474 42.5493 17.0355C42.8374 17.3236 42.9995 17.7142 43 18.1217V33.1686C42.9995 33.5761 42.8374 33.9667 42.5493 34.2548C42.2612 34.5429 41.8705 34.705 41.4631 34.7055H26.0839V40.7662C26.0834 41.1556 25.9285 41.5289 25.6531 41.8042C25.3778 42.0796 25.0045 42.2345 24.6151 42.235H1.46863C1.07927 42.2344 0.706014 42.0795 0.430707 41.8042C0.1554 41.5288 0.00051099 41.1556 0 40.7662L0 10.5242C0.000510886 10.1347 0.155413 9.76142 0.430746 9.48602C0.70608 9.21062 1.07938 9.05564 1.4688 9.05504H5.51845V4.96642C5.51983 3.85595 5.96035 2.79109 6.7439 2.00419C7.52744 1.2173 8.59041 0.772233 9.70087 0.766113H25.1716C26.6602 0.76778 28.0873 1.35983 29.1398 2.41238C30.1924 3.46493 30.7845 4.89201 30.7862 6.38055V16.5847H41.4631ZM22.3236 21.3525H18.9469C18.8807 21.3525 18.8151 21.3655 18.754 21.3908C18.6928 21.4161 18.6372 21.4532 18.5904 21.5C18.5436 21.5468 18.5065 21.6024 18.4812 21.6635C18.4559 21.7247 18.4429 21.7902 18.443 21.8564V25.2338C18.4429 25.3 18.4559 25.3655 18.4812 25.4267C18.5065 25.4879 18.5436 25.5434 18.5904 25.5902C18.6372 25.6371 18.6928 25.6742 18.754 25.6995C18.8151 25.7248 18.8807 25.7378 18.9469 25.7377H22.3239C22.4575 25.7377 22.5857 25.6846 22.6802 25.5901C22.7747 25.4956 22.8278 25.3674 22.8278 25.2338V21.8565C22.8278 21.7229 22.7747 21.5947 22.6802 21.5002C22.5857 21.4057 22.4573 21.3525 22.3236 21.3525ZM14.7309 21.3525H11.3528C11.2191 21.3525 11.0909 21.4056 10.9964 21.5001C10.9019 21.5946 10.8488 21.7228 10.8488 21.8564V25.2338C10.8488 25.3674 10.9019 25.4956 10.9964 25.5901C11.0909 25.6846 11.2191 25.7377 11.3528 25.7377H14.7309C14.8645 25.7377 14.9927 25.6846 15.0872 25.5901C15.1817 25.4956 15.2348 25.3674 15.2348 25.2338V21.8565C15.2348 21.7229 15.1817 21.5947 15.0872 21.5002C14.9927 21.4057 14.8645 21.3525 14.7309 21.3525ZM7.13691 21.3525H3.75998C3.62634 21.3525 3.49817 21.4056 3.40367 21.5001C3.30916 21.5946 3.25607 21.7228 3.25607 21.8564V25.2338C3.25607 25.3674 3.30916 25.4956 3.40367 25.5901C3.49817 25.6846 3.62634 25.7377 3.75998 25.7377H7.13699C7.27064 25.7377 7.39881 25.6846 7.49331 25.5901C7.58781 25.4956 7.6409 25.3674 7.6409 25.2338V21.8565C7.6409 21.7229 7.58781 21.5947 7.49331 21.5002C7.39881 21.4057 7.27055 21.3525 7.13691 21.3525ZM22.3236 27.9734H18.9469C18.8807 27.9733 18.8151 27.9863 18.754 28.0116C18.6928 28.0369 18.6372 28.074 18.5904 28.1208C18.5436 28.1676 18.5065 28.2232 18.4812 28.2843C18.4559 28.3455 18.4429 28.4111 18.443 28.4773V31.8547C18.443 31.9883 18.4961 32.1165 18.5906 32.211C18.6851 32.3055 18.8132 32.3586 18.9469 32.3586H22.3239C22.4575 32.3586 22.5857 32.3055 22.6802 32.211C22.7747 32.1165 22.8278 31.9883 22.8278 31.8547V28.4773C22.8278 28.3437 22.7747 28.2155 22.6802 28.121C22.5857 28.0265 22.4573 27.9734 22.3236 27.9734ZM14.7309 27.9734H11.3528C11.2191 27.9734 11.0909 28.0264 10.9964 28.1209C10.9019 28.2154 10.8488 28.3436 10.8488 28.4773V31.8547C10.8488 31.9883 10.9019 32.1165 10.9964 32.211C11.0909 32.3055 11.2191 32.3586 11.3528 32.3586H14.7309C14.8645 32.3586 14.9927 32.3055 15.0872 32.211C15.1817 32.1165 15.2348 31.9883 15.2348 31.8547V28.4773C15.2348 28.3437 15.1817 28.2155 15.0872 28.121C14.9927 28.0265 14.8645 27.9734 14.7309 27.9734ZM7.13691 27.9734H3.75998C3.62634 27.9734 3.49817 28.0264 3.40367 28.1209C3.30916 28.2154 3.25607 28.3436 3.25607 28.4773V31.8547C3.25607 31.9883 3.30916 32.1165 3.40367 32.211C3.49817 32.3055 3.62634 32.3586 3.75998 32.3586H7.13699C7.27064 32.3586 7.39881 32.3055 7.49331 32.211C7.58781 32.1165 7.6409 31.9883 7.6409 31.8547V28.4773C7.6409 28.3437 7.58781 28.2155 7.49331 28.121C7.39881 28.0265 7.27055 27.9734 7.13691 27.9734ZM22.3237 34.5942H18.9469C18.8132 34.5942 18.6851 34.6473 18.5906 34.7418C18.4961 34.8363 18.443 34.9644 18.443 35.0981V38.4755C18.443 38.6092 18.4961 38.7373 18.5906 38.8318C18.6851 38.9263 18.8132 38.9794 18.9469 38.9794H22.3239C22.4575 38.9794 22.5857 38.9263 22.6802 38.8318C22.7747 38.7373 22.8278 38.6092 22.8278 38.4755V35.0982C22.8278 34.9645 22.7747 34.8364 22.6802 34.7419C22.5857 34.6474 22.4574 34.5942 22.3237 34.5942ZM14.7309 34.5942H11.3528C11.2191 34.5942 11.0909 34.6473 10.9964 34.7418C10.9019 34.8363 10.8488 34.9644 10.8488 35.0981V38.4755C10.8488 38.6092 10.9019 38.7373 10.9964 38.8318C11.0909 38.9263 11.2191 38.9794 11.3528 38.9794H14.7309C14.8645 38.9794 14.9927 38.9263 15.0872 38.8318C15.1817 38.7373 15.2348 38.6092 15.2348 38.4755V35.0982C15.2348 34.9645 15.1817 34.8364 15.0872 34.7419C14.9927 34.6474 14.8646 34.5942 14.7309 34.5942ZM7.13699 34.5942H3.75998C3.62634 34.5942 3.49817 34.6473 3.40367 34.7418C3.30916 34.8363 3.25607 34.9644 3.25607 35.0981V38.4755C3.25607 38.6092 3.30916 38.7373 3.40367 38.8318C3.49817 38.9263 3.62634 38.9794 3.75998 38.9794H7.13699C7.27064 38.9794 7.39881 38.9263 7.49331 38.8318C7.58781 38.7373 7.6409 38.6092 7.6409 38.4755V35.0982C7.6409 34.9645 7.58781 34.8364 7.49331 34.7419C7.39881 34.6474 7.27064 34.5942 7.13699 34.5942ZM28.0407 26.3258C28.111 26.3798 28.1678 26.4493 28.207 26.5287C28.2462 26.6082 28.2665 26.6957 28.2665 26.7843C28.2665 26.8729 28.2462 26.9603 28.207 27.0398C28.1678 27.1193 28.111 27.1887 28.0407 27.2427V26.3258ZM27.0329 24.0476V24.9644C26.9626 24.9104 26.9057 24.841 26.8666 24.7615C26.8274 24.682 26.8071 24.5946 26.8071 24.506C26.8071 24.4174 26.8274 24.33 26.8666 24.2505C26.9057 24.171 26.9626 24.1016 27.0329 24.0476Z" fill="#784CB5"/>
</g>
<defs>
<clipPath id="clip0_476_460">
<rect width="43" height="43" fill="white"/>
</clipPath>
</defs>
</svg>
