<svg width="58" height="61" viewBox="0 0 58 61" fill="none" xmlns="http://www.w3.org/2000/svg">
<path d="M37.5 34.4375H46.25V37.9375H37.5V34.4375Z" fill="black"/>
<path d="M48.875 28.75H34.875C32.9412 28.75 31.375 30.3163 31.375 32.25V51.5C31.3645 53.4031 32.9482 55.0053 34.875 55H48.875C50.8088 55 52.375 53.4338 52.375 51.5V32.25C52.375 30.3163 50.8088 28.75 48.875 28.75ZM37.5 51.0625H36.625C35.4761 51.0406 35.4753 49.3344 36.625 49.3125H37.5C38.6489 49.3344 38.6497 51.0406 37.5 51.0625ZM37.5 47.125H36.625C35.4761 47.1031 35.4753 45.3969 36.625 45.375H37.5C38.6489 45.3969 38.6497 47.1031 37.5 47.125ZM37.5 43.1875H36.625C35.4761 43.1656 35.4753 41.4594 36.625 41.4375H37.5C38.6489 41.4594 38.6497 43.1656 37.5 43.1875ZM42.3125 51.0625H41.4375C40.2886 51.0406 40.2878 49.3344 41.4375 49.3125H42.3125C43.4614 49.3344 43.4622 51.0406 42.3125 51.0625ZM42.3125 47.125H41.4375C40.2886 47.1031 40.2878 45.3969 41.4375 45.375H42.3125C43.4614 45.3969 43.4622 47.1031 42.3125 47.125ZM42.3125 43.1875H41.4375C40.2886 43.1656 40.2878 41.4594 41.4375 41.4375H42.3125C43.4614 41.4594 43.4622 43.1656 42.3125 43.1875ZM47.125 51.0625H46.25C45.1011 51.0406 45.1003 49.3344 46.25 49.3125H47.125C48.2739 49.3344 48.2747 51.0406 47.125 51.0625ZM47.125 47.125H46.25C45.1011 47.1031 45.1003 45.3969 46.25 45.375H47.125C48.2739 45.3969 48.2747 47.1031 47.125 47.125ZM47.125 43.1875H46.25C45.1011 43.1656 45.1003 41.4594 46.25 41.4375H47.125C48.2739 41.4594 48.2747 43.1656 47.125 43.1875ZM48 38.8125C48 39.2938 47.6063 39.6875 47.125 39.6875H36.625C36.1437 39.6875 35.75 39.2938 35.75 38.8125V33.5625C35.75 33.0813 36.1437 32.6875 36.625 32.6875H47.125C47.6063 32.6875 48 33.0813 48 33.5625V38.8125ZM6 10.375V50.625C6 53.04 7.96 55 10.375 55H12.125V6H10.375C7.96 6 6 7.96 6 10.375Z" fill="#46AEE3"/>
<path d="M34.875 27H42.75V6.875C42.75 6.39375 42.3563 6 41.875 6H13.875V55H30.9725C30.1077 54.039 29.6279 52.7928 29.625 51.5V32.25C29.625 29.3538 31.9788 27 34.875 27ZM21.3125 21.75C20.1663 21.7281 20.1593 20.0227 21.3125 20H23.0625V17.375C23.0625 16.8938 23.4563 16.5 23.9375 16.5C24.4187 16.5 24.8125 16.8938 24.8125 17.375V20H27.4375V14.75C27.4594 13.6029 29.1656 13.5994 29.1875 14.75V20H31.8125V13C31.8318 11.8538 33.5415 11.8476 33.5625 13V20H35.3125C35.7938 20 36.1875 20.3938 36.1875 20.875C36.1875 21.3562 35.7938 21.75 35.3125 21.75H21.3125Z" fill="#0E78AE"/>
</svg>
