<svg width="58" height="58" viewBox="0 0 58 58" fill="none" xmlns="http://www.w3.org/2000/svg">
<path d="M37.1195 37.5238V29.7553C37.1195 28.6832 37.4534 28.3493 38.508 28.3493H49.6334C50.5825 28.3493 50.9692 28.736 50.9692 29.685V42.6032C50.9692 43.0426 51.0395 43.2184 51.5316 43.2008C52.428 43.1481 53.8164 43.1832 54.7128 43.1832C54.994 43.1832 55.2401 43.2184 55.3631 43.4996C55.4861 43.7808 55.3807 43.9917 55.2049 44.2026C52.797 47.0323 47.0498 53.0608 44.6419 55.8905C44.2728 56.3299 43.9916 56.3299 43.6049 55.8729C41.2146 53.0608 35.6255 47.0499 33.2352 44.2378C33.0419 44.0093 32.9013 43.7808 33.0595 43.482C33.2177 43.1832 33.4461 43.1832 33.7273 43.1832C34.6237 43.1832 35.6783 43.1481 36.5746 43.2008C37.0667 43.2184 37.1546 43.0426 37.1546 42.6032C37.1195 39.9493 37.1195 40.1778 37.1195 37.5238ZM25.6073 40.4414C25.3613 40.2832 25.2383 39.9844 25.2734 39.7032C25.291 38.9123 25.2734 38.139 25.291 37.3481C25.291 37.1372 25.2207 37.0669 25.0273 37.0493C23.3752 36.8032 21.811 36.1529 20.4752 35.1687C20.0886 34.905 19.737 34.6063 19.4207 34.2723C19.1746 33.9911 19.1395 33.7626 19.368 33.4638C19.8777 32.7784 20.3873 32.1105 20.9146 31.4426C21.1958 31.0911 21.477 31.056 21.8286 31.3547C22.9183 32.339 24.2364 33.0244 25.6601 33.3408C26.8552 33.5869 27.9977 33.5166 29.0873 32.8663C30.2298 32.1808 30.7922 30.3705 29.2983 29.2105C28.5249 28.6129 27.611 28.2614 26.697 27.8747C25.5546 27.4002 24.3946 26.9784 23.3049 26.3984C22.2152 25.8184 21.2486 25.1153 20.528 24.096C19.7722 23.0238 19.4558 21.7232 19.614 20.4226C19.8952 17.8917 21.4243 16.345 23.6389 15.3608C24.0958 15.1675 24.5704 15.0269 25.0625 14.939C25.2558 14.9038 25.2734 14.816 25.2734 14.6578V12.1093C25.2734 11.6523 25.4667 11.459 25.9237 11.459H27.8922C28.2964 11.459 28.4722 11.6347 28.4722 12.039V14.5875C28.4722 14.7632 28.5249 14.8335 28.7007 14.8511C30.3704 15.0444 31.9522 15.7123 33.2704 16.7493C33.3407 16.802 33.411 16.8723 33.4813 16.9426C33.7801 17.2238 33.8152 17.382 33.6043 17.7335C33.2001 18.4717 32.7958 19.1923 32.3916 19.9305C32.1631 20.3347 31.8467 20.405 31.4601 20.1063C30.9504 19.702 30.4055 19.3505 29.808 19.0693C28.5249 18.4717 27.2067 18.2081 25.8183 18.5772C24.8867 18.8232 24.0783 19.2626 23.7619 20.2644C23.4983 21.0905 23.7619 21.8814 24.4122 22.4438C25.2558 23.1996 26.2928 23.5863 27.3298 23.9905C28.5777 24.4826 29.8255 24.9572 31.0207 25.5899C31.8643 26.0293 32.6025 26.6269 33.2001 27.3475C33.8504 28.1384 34.1492 29.0875 34.237 30.1069C34.237 30.2123 34.2546 30.3353 34.2546 30.4408C34.3073 30.5463 34.237 30.6869 34.3073 30.7923V30.9681C34.237 31.3723 34.2722 31.7941 34.1667 32.1984C33.9031 33.2178 33.411 34.1493 32.6904 34.9402C31.6534 36.1002 30.3352 36.7681 28.8413 37.102C28.6655 37.102 28.5425 37.2602 28.5425 37.436V37.4711C28.5601 38.2444 28.5425 39.0353 28.5425 39.8263C28.5425 40.125 28.437 40.3535 28.1207 40.4414H25.6073Z" fill="#74B329"/>
<path d="M28.4203 44.607C27.8755 44.6598 27.3131 44.6773 26.7507 44.6773C16.4161 44.6773 8.03247 36.2937 8.03247 25.9592C8.03247 15.6246 16.4161 7.24099 26.7507 7.24099C37.0852 7.24099 45.4688 15.6246 45.4688 25.9592H50.9173V25.9416C50.8997 12.7949 39.8973 1.7925 26.7682 1.7925C13.4282 1.77493 2.60156 12.584 2.60156 25.924V25.9592C2.60156 39.1058 13.6216 50.1083 26.7507 50.1083C28.8949 50.1083 31.0391 49.827 33.1131 49.2646L28.4203 44.607Z" fill="#74B329"/>
</svg>
