<svg width="58" height="58" viewBox="0 0 58 58" fill="none" xmlns="http://www.w3.org/2000/svg">
<g clip-path="url(#clip0_478_565)">
<path d="M54.7442 8.74679V27.371C54.7442 31.9805 52.6314 37.331 48.7967 42.4368C44.3276 48.3854 37.7446 53.6362 29.759 57.6216L29 58L28.241 57.6216C20.2555 53.6362 13.6725 48.3854 9.20336 42.4368C5.36864 37.331 3.25586 31.9805 3.25586 27.371V8.74679L15.7807 0H42.2193L54.7442 8.74679Z" fill="#00358F"/>
<path d="M54.7442 8.74679V27.371C54.7442 31.9805 52.6314 37.331 48.7967 42.4368C44.3276 48.3854 37.7445 53.6362 29.759 57.6216L29 58V0H42.2193L54.7442 8.74679Z" fill="#012453"/>
<path d="M40.0802 6.79736H17.9193L10.0527 12.2906V27.3712C10.0527 32.554 15.1517 42.6817 28.9998 50.3432C42.8478 42.6817 47.9468 32.554 47.9468 27.3712V12.2906L40.0802 6.79736Z" fill="#00B3FE"/>
<path d="M47.947 12.2906V27.3712C47.947 32.554 42.848 42.6817 29 50.3432V6.79736H40.0805L47.947 12.2906Z" fill="#0274F9"/>
<path d="M40.615 5.09766H17.3847L8.35352 11.4043V27.3708C8.35352 30.6855 10.0324 34.8975 12.9586 38.9259C16.5214 43.8312 21.7835 48.2935 28.1774 51.8303L28.9998 52.2857L29.8223 51.8303C36.2161 48.2935 41.4782 43.8312 45.0411 38.9259C47.9673 34.8975 49.6461 30.6855 49.6461 27.3708V11.4043L40.615 5.09766ZM46.2476 27.3708C46.2476 31.892 41.6357 41.1236 28.9998 48.392C16.3639 41.1236 11.7521 31.892 11.7521 27.3708V13.1761L18.4541 8.49623H39.5456L46.2476 13.1761V27.3708Z" fill="#EFF5FA"/>
<path d="M49.6463 11.4043V27.3708C49.6463 30.6855 47.9674 34.8975 45.0413 38.9259C41.4784 43.8312 36.2163 48.2935 29.8225 51.8303L29 52.2857V48.392C41.6359 41.1236 46.2477 31.892 46.2477 27.3708V13.1761L39.5458 8.49623H29V5.09766H40.6152L49.6463 11.4043Z" fill="#C6E1EC"/>
<path d="M39.8488 19.7391L29.0006 30.8887L28.9779 30.9124L26.2194 33.7469L18.1523 26.202L20.4736 23.7199L26.1061 28.9889L28.9779 26.0389L29.0006 26.0151L37.4132 17.3691L39.8488 19.7391Z" fill="#EFF5FA"/>
<path d="M39.8482 19.7391L29 30.8887V26.0151L37.4126 17.3691L39.8482 19.7391Z" fill="#C6E1EC"/>
</g>
<defs>
<clipPath id="clip0_478_565">
<rect width="58" height="58" fill="white"/>
</clipPath>
</defs>
</svg>
