<svg width="60" height="60" viewBox="0 0 60 60" fill="none" xmlns="http://www.w3.org/2000/svg">
<g clip-path="url(#clip0_478_559)">
<path d="M28.5273 15.4922V33.826H40.2126V30.6025H31.7509V15.4922H28.5273Z" fill="#693AB0"/>
<path d="M60 30.1935C60 14.831 47.4845 2.33594 32.1221 2.33594C18.3427 2.33594 6.87402 12.4703 4.65542 25.5659H0.180755L7.89749 38.863L15.8403 25.5659H11.2147C13.3314 15.8953 21.912 8.783 32.137 8.783C43.9442 8.783 53.553 18.3877 53.553 30.1949C53.553 40.3978 46.2561 48.954 36.787 51.0917V57.6638C49.8826 55.445 60 43.9725 60 30.1935ZM4.9135 54.7494L6.96347 52.57C8.29539 51.1205 9.20926 50.0355 9.70528 49.3004C10.2013 48.565 10.4493 47.7229 10.4493 46.7655C10.4493 45.3433 9.98271 44.2253 9.0497 43.4063C8.11669 42.5882 6.81781 42.1792 5.15285 42.1792C3.5848 42.1792 2.32581 42.6676 1.37548 43.6419C0.424937 44.6166 -0.0330055 45.8327 0.00184889 47.2339L0.0228018 47.3246H3.45667C3.45667 46.5187 3.60757 46.0325 3.90937 45.5851C4.21118 45.1372 4.6256 44.8999 5.15305 44.8999C5.74256 44.8999 6.18478 45.0663 6.47954 45.4134C6.77449 45.7601 6.92176 46.2213 6.92176 46.8044C6.92176 47.2135 6.7761 47.6938 6.48477 48.2487C6.19345 48.804 5.77338 49.4342 5.15648 50.1421L0.320777 55.2609V57.5998H10.7973V54.7792H4.94473L4.9135 54.7494Z" fill="#693AB0"/>
<path d="M20.4678 42.4896H17.0428V42.4305L10.9277 52.2182L11.0978 54.3763H17.0428V57.5999H20.4678V54.3763H22.0795V51.7572H20.4678V42.4896ZM17.0428 51.7572H14.0324L16.634 47.4286L16.9424 46.9735L17.0428 46.9676V51.7572ZM33.5634 57.5999V51.0776C33.5634 50.5929 33.5755 50.1483 33.5219 49.7359C33.3861 48.6963 33.1042 47.8817 32.6277 47.3005C31.9615 46.4888 31.0565 46.083 29.891 46.083C29.3013 46.083 28.8054 46.2234 28.3163 46.5045C27.8271 46.7855 27.3178 47.1794 27.1163 47.6857V42.2881H23.4898V57.5999H27.1163V49.3607C27.1163 49.1804 27.4526 49.04 27.7026 48.9392C27.952 48.8389 28.2278 48.7885 28.5677 48.7885C29.102 48.7885 29.4937 48.9515 29.7538 49.2773C30.0141 49.6035 30.1384 50.1966 30.1384 51.0571V57.5999H33.5634Z" fill="#693AB0"/>
</g>
<defs>
<clipPath id="clip0_478_559">
<rect width="60" height="60" fill="white"/>
</clipPath>
</defs>
</svg>
