<svg width="52" height="52" viewBox="0 0 52 52" fill="none" xmlns="http://www.w3.org/2000/svg">
<g clip-path="url(#clip0_430_1713)">
<path d="M49.9586 7.57578C49.9547 7.41978 49.9264 7.28066 49.8874 7.14955C49.8079 6.45719 49.326 5.79873 48.4367 5.75017C45.9021 5.61195 43.367 5.59817 40.8297 5.59817C40.4274 5.59817 40.1126 5.72995 39.8749 5.93329C39.3852 6.13729 39.0043 6.57997 39.0038 7.272C38.9992 21.1167 38.856 34.9607 38.8514 48.8055C38.8514 48.9791 38.8819 49.1327 38.9259 49.276C39.0218 49.9514 39.5037 50.5827 40.3727 50.6313C43.1103 50.7836 45.8463 50.9246 48.5885 50.9359C48.6404 50.9359 48.6837 50.923 48.733 50.919C48.7861 50.9246 48.8384 50.9359 48.8926 50.9359C51.2071 50.9359 50.3043 47.458 50.363 46.0727C50.4432 44.1875 50.4968 42.3018 50.53 40.4163C50.5956 36.7657 50.5808 33.1139 50.5243 29.4633C50.4116 22.1652 50.125 14.8722 49.9586 7.57578ZM47.2327 47.8721C45.4531 47.8389 43.6758 47.7633 41.8979 47.6696C41.9086 34.6623 42.0315 21.6552 42.044 8.64704C43.6786 8.65304 45.3126 8.66848 46.946 8.72859C47.2711 21.7764 47.9019 34.8247 47.2327 47.8721ZM35.8091 17.4652C35.7968 17.1416 35.6962 16.8764 35.5496 16.6592C35.3246 16.2125 34.9052 15.8565 34.288 15.7914C31.7906 15.5274 29.3216 15.644 26.8335 15.9431C26.5727 15.9737 26.3234 16.068 26.1076 16.2177C25.527 16.3633 25.0729 16.8245 25.1595 17.6168C26.3122 28.1318 25.8264 38.7355 26.8328 49.2608C26.8421 49.3561 26.8628 49.4437 26.8853 49.5299C26.87 50.3018 27.3575 51.0868 28.3546 51.0868C30.0033 51.0868 37.1939 52.2316 36.8746 49.2649C35.7178 38.6965 36.2313 28.0657 35.8091 17.4652ZM29.7786 48.0448C28.9509 38.3241 29.2754 28.5425 28.324 18.8309C29.8193 18.7006 31.3123 18.6521 32.8108 18.7248C33.1347 28.5007 32.7578 38.2994 33.7097 48.0448H29.7786ZM22.4608 25.9053C22.3356 25.296 21.8709 24.8141 21.0522 24.9202C18.8788 25.2011 16.6958 25.3726 14.5107 25.5288C14.4011 25.5368 14.2926 25.5554 14.1866 25.5843C13.4116 25.5658 12.644 26.0509 12.6849 27.0497C12.9887 34.5033 13.2852 41.9563 13.4458 49.4138C13.4528 49.7309 13.5434 49.9904 13.6817 50.2061C13.803 50.842 14.2804 51.3965 15.1191 51.3921C16.9969 51.3819 18.8707 51.2505 20.7485 51.2398C20.986 51.2385 21.1928 51.1912 21.3731 51.1118C22.2663 51.3763 23.381 50.9164 23.3352 49.7186C23.0424 42.0636 22.8799 34.4047 22.7266 26.7464C22.7192 26.4052 22.6174 26.127 22.4608 25.9053ZM16.4608 48.3234C16.307 41.7039 16.0533 35.0887 15.7849 28.4731C17.095 28.3733 18.4049 28.2637 19.7113 28.1198C19.8464 34.8163 19.9974 41.5131 20.2394 48.2061C18.9792 48.2264 17.7201 48.2873 16.4608 48.3234ZM7.89107 38.4433C6.39869 38.3174 4.90232 38.3078 3.40461 38.3071C3.23705 38.3071 3.08982 38.3366 2.95093 38.3766C2.26235 38.4584 1.61455 38.9403 1.57866 39.8283C1.44021 43.2757 1.42688 46.725 1.42688 50.1742C1.42688 50.3287 1.4511 50.4676 1.48644 50.5974C1.53499 51.3162 2.01856 52 2.94804 52H8.12097C8.91488 52 9.38178 51.5007 9.53301 50.9076C9.78102 50.664 9.94691 50.3215 9.94691 49.8706V39.8295C9.94636 38.6136 8.77977 38.1531 7.89107 38.4433ZM6.90371 48.9577H4.47464C4.47919 46.4231 4.49664 43.8898 4.57275 41.3575C5.35055 41.3631 6.12758 41.3755 6.90371 41.4161V48.9577ZM4.58331 25.2823C4.98421 25.2823 5.37266 25.1438 5.73656 24.8699C10.5616 21.2395 21.4243 11.9249 26.4545 7.34078C26.4272 8.12815 26.4117 8.91589 26.4077 9.70373C26.4054 10.2754 26.6001 10.775 26.9722 11.1482C27.3565 11.5336 27.9128 11.7556 28.5002 11.7556C29.5424 11.7556 30.6002 11.0522 30.6059 9.70918C30.6172 7.24199 30.7651 4.73147 30.9094 2.28573C30.9433 1.70961 30.7723 1.20515 30.4146 0.826358C30.0507 0.440458 29.5091 0.216118 28.9239 0.211006C28.7977 0.181213 28.6691 0.162035 28.5397 0.153671C26.1021 0.0121115 23.6788 0 21.2048 0C19.8598 0 19.1561 1.0557 19.1555 2.0984C19.155 3.14143 19.8591 4.19768 21.2048 4.19824C22.0258 4.19824 22.8462 4.20057 23.6671 4.20813C18.7018 8.7466 8.1453 17.8279 3.50705 21.3183C2.72359 21.9077 2.43524 22.8657 2.75292 23.8184C3.04515 24.6944 3.78062 25.2823 4.58331 25.2823Z" fill="#7D651A"/>
</g>
<defs>
<clipPath id="clip0_430_1713">
<rect width="52" height="52" fill="white"/>
</clipPath>
</defs>
</svg>
