<svg width="71" height="71" viewBox="0 0 71 71" fill="none" xmlns="http://www.w3.org/2000/svg">
<g clip-path="url(#clip0_430_1706)">
<path d="M58.1355 28.0577C57.9537 28.0012 57.7657 27.967 57.5757 27.9561C56.8408 27.9135 56.1057 27.8685 55.3709 27.8256C55.9086 27.8574 56.1306 18.2165 56.0748 17.3146C55.8712 13.9974 55.2125 10.5669 53.7164 7.57425C50.7544 1.6489 44.5718 0.438896 38.5953 0.0805147C32.1538 -0.306374 25.5255 0.551047 21.2927 6.08575C16.8747 11.8618 15.935 19.3715 16.3984 26.4541C15.1329 26.4882 13.8686 26.5161 12.602 26.5769C11.2249 26.643 10.5197 27.7199 10.4794 28.7941C10.4307 28.9711 10.4023 29.1531 10.3947 29.3365C9.90194 42.0253 10.32 54.7308 9.56752 67.4118C9.46962 69.0519 10.895 69.735 12.1525 69.483C12.3716 69.5593 12.6078 69.6143 12.8783 69.6189C28.2416 69.9053 43.599 70.4407 58.9539 70.9983C60.3442 71.0492 61.0481 70.0224 61.0799 68.9468C61.3091 68.6184 61.4476 68.2016 61.4363 67.6878C61.1872 55.1733 61.3663 42.6497 60.3322 30.1649C60.226 28.8329 59.1807 28.1342 58.1355 28.0577ZM21.3031 17.5524C21.8889 14.7884 22.9918 12.0857 24.5849 9.74631C27.2236 5.8721 32.7937 4.21678 37.7515 4.22038C39.4806 4.22116 41.1351 4.424 42.5644 4.80494C48.5346 6.39494 51.4608 10.6817 51.7631 16.7053C51.9326 20.0781 51.6908 23.7783 51.033 27.0935C50.9997 27.2562 50.9886 27.4121 50.9868 27.5632C50.0641 27.5072 49.1417 27.4526 48.2189 27.3963C48.9189 24.1411 48.965 20.8693 47.5493 17.7024C45.8693 13.9446 41.5131 12.3073 37.746 11.7561C37.5608 11.7297 37.3733 11.7248 37.187 11.7414C36.9968 11.696 36.8018 11.6746 36.6063 11.6778C32.957 11.7501 29.3563 12.7246 26.9225 15.607C24.4098 18.5837 24.0304 22.6544 24.4237 26.3919C23.2192 26.3808 22.0145 26.3756 20.8098 26.3824C20.3681 26.3846 21.1476 18.2864 21.3031 17.5524ZM43.7739 27.1355C38.7973 26.8496 33.8209 26.599 28.841 26.4718C28.5586 23.9583 28.5446 21.3837 29.8121 19.1179C31.16 16.7087 34.0837 16.1417 36.6076 16.0919C36.6998 16.0902 36.7777 16.0715 36.8645 16.0609C39.6523 16.4945 42.3105 17.3 43.7375 19.9296C44.8724 22.0215 44.4104 24.7823 43.7739 27.1355ZM14.0885 65.2289C14.6521 53.8008 14.38 42.3544 14.7606 30.9202C28.5554 30.4282 42.3042 31.4735 56.0707 32.2803C56.8931 43.6739 56.8008 55.0956 57.0044 66.5127C42.7019 65.9958 28.3988 65.5092 14.0885 65.2289Z" fill="#105274"/>
<path d="M35.5011 37.4644C32.464 37.4644 30.0018 39.927 30.0018 42.9637C30.0018 45.4255 31.6192 47.5086 33.8494 48.21C33.692 51.4138 33.6701 54.6201 33.6701 57.8279C33.6701 59.9285 36.9279 59.9285 36.9279 57.8279C36.9279 54.6248 36.9494 51.4224 37.107 48.2236C39.3611 47.5363 41.0003 45.4421 41.0003 42.9637C41.0004 39.9268 38.5388 37.4644 35.5011 37.4644Z" fill="#105274"/>
</g>
<defs>
<clipPath id="clip0_430_1706">
<rect width="71" height="71" fill="white"/>
</clipPath>
</defs>
</svg>
