<svg width="54" height="54" viewBox="0 0 54 54" fill="none" xmlns="http://www.w3.org/2000/svg">
<g clip-path="url(#clip0_430_1719)">
<path d="M43.1939 3.97904C42.3397 2.51519 40.9134 1.79704 39.4606 1.85241C37.3141 1.23564 35.3258 2.56318 34.5536 4.61371C33.6734 6.95189 34.4656 9.20971 36.4023 10.702C38.2455 12.1226 40.7782 11.5016 42.3693 10.0528C44.0981 8.47821 44.3397 5.94352 43.1939 3.97904ZM50.0338 25.3336C49.3869 25.2507 48.7139 25.2998 48.037 25.383C48.5816 23.4288 48.2244 19.9349 48.1931 19.0866C48.062 15.4987 46.3173 12.4611 42.5223 12.1079C38.8887 11.7694 34.0723 12.0656 31.637 15.1909C29.5496 17.8693 29.9571 22.1796 30.8343 25.2848C29.6342 25.2763 28.4362 25.3018 27.2443 25.3981C26.3993 25.4662 26.4058 26.6285 27.2443 26.7055C28.4603 26.8171 29.6808 26.9102 30.903 26.9951C30.7025 28.8489 30.6258 30.6617 30.9671 32.5047C31.0359 32.8769 31.4161 33.0845 31.7591 33.1075C36.3526 33.417 40.9403 32.004 45.4989 32.9241C45.92 33.009 46.5194 32.8074 46.5865 32.3064C46.7387 31.1746 47.2776 28.6989 46.6259 27.4486C47.9225 27.406 49.3554 27.3035 50.3959 26.6711C51.0587 26.2682 50.7057 25.4205 50.0338 25.3336ZM32.9481 25.3379C32.9004 23.349 32.9756 21.3987 33.8292 19.6103C33.8659 19.6171 33.9028 19.6219 33.9397 19.6282C33.932 19.976 33.9292 20.3205 33.9142 20.649C33.8437 22.2148 33.923 23.8158 34.0348 25.3876C33.6725 25.3706 33.3104 25.351 32.9481 25.3379ZM44.9034 25.5418C44.894 25.5957 44.8747 25.648 44.8531 25.6982C44.2713 25.7173 43.6883 25.7218 43.1059 25.7207C43.0778 24.6845 43.032 23.6486 43.0051 22.6121C42.9801 21.6756 43.1664 20.6695 43.228 19.7071C43.4523 19.6963 43.6795 19.6821 43.9024 19.6733C44.1166 20.2198 44.3047 20.7761 44.4661 21.3405C44.7466 22.3185 44.9011 23.3283 44.9562 24.3426C44.9778 24.7396 44.9713 25.1491 44.9034 25.5418ZM29.6263 11.8941C29.3573 10.023 27.8228 8.29278 25.9526 8.38081C25.2972 1.53465 17.5767 -0.748155 11.679 0.207393C5.95932 1.13426 -0.358662 6.22778 2.62583 12.6781C5.00576 17.8219 12.0987 18.4352 17.0085 17.8423C19.8754 17.4962 26.1332 15.9059 25.4761 12.0783C25.7234 12.1368 25.9747 12.1738 26.1786 12.2212C27.0402 12.4211 27.9091 12.5929 28.7815 12.7389C29.3346 12.8314 29.7041 12.4364 29.6263 11.8941ZM22.4291 13.3965C22.5549 13.2966 22.6821 13.2011 22.8048 13.0927L22.8667 13.0657C22.7409 13.2902 22.5784 13.492 22.386 13.6629C22.4104 13.5692 22.4249 13.4803 22.4291 13.3965ZM9.65827 44.7289C10.371 44.5471 11.0355 44.1802 11.5821 43.5816C12.8427 42.1999 13.0341 40.0116 12.3934 38.314C11.9507 37.1404 11.2212 36.3907 10.3719 35.9923C10.333 35.8066 10.21 35.6473 9.98086 35.6078C7.50296 35.1822 5.09009 36.1179 3.78953 38.32C2.48356 40.5315 3.57996 42.87 5.64781 44.0587C5.99241 44.2565 6.35494 44.4213 6.73057 44.5508C3.95593 45.4737 2.48583 49.5813 2.81921 52.3071C1.85912 52.5118 1.89462 54.0776 2.94955 53.9967C6.25067 53.7431 9.56172 53.7505 12.8472 53.3035C13.1868 53.2572 13.493 52.8267 13.4623 52.4954C13.2047 49.6935 12.398 45.9042 9.65827 44.7289ZM11.1014 51.8104C11.1071 51.7897 11.1139 51.7693 11.1179 51.7482C11.2245 51.7463 11.3294 51.7219 11.4259 51.6766C11.5225 51.6313 11.6083 51.5661 11.6778 51.4853C11.6898 51.5773 11.7025 51.6713 11.7128 51.7593C11.5092 51.7803 11.305 51.792 11.1014 51.8104ZM22.0631 44.7669C23.7095 44.2776 25.0958 42.9325 25.6962 41.3511C26.5523 39.0961 25.0632 35.9111 22.5365 35.6709C22.0965 35.6309 21.6529 35.6607 21.2223 35.7592C18.8406 35.9205 16.3897 37.4667 16.1915 40.034C16.0191 42.2646 17.4188 44.1834 19.4392 44.7752C16.9 45.8659 15.2558 50.2921 16.3667 52.5692C16.3008 53.0173 16.6359 53.5296 17.1394 53.4963C18.4825 53.4077 19.7354 53.1738 21.109 53.2186C22.5248 53.2646 23.918 53.3262 25.323 53.111C25.6706 53.0576 25.9878 52.626 25.9548 52.2812C25.6959 49.5841 24.8136 45.7438 22.0631 44.7669ZM35.6381 44.7101C37.2076 44.1098 38.2435 42.1232 38.3608 40.2419C38.4466 38.8669 38.0376 37.3284 36.9716 36.3987C35.6858 35.2776 33.6276 35.4184 32.3208 36.4154C31.6705 36.9115 31.2295 37.5987 30.9992 38.3527C30.8964 38.5367 30.8005 38.7261 30.7178 38.9237C29.8083 41.0949 30.9217 43.1256 32.772 44.2884C32.8425 44.3327 32.912 44.3716 32.9813 44.4108C29.6476 45.0171 28.8695 49.928 29.4806 52.6498C29.5564 52.9872 29.8767 53.1019 30.1587 53.0431C30.1814 53.0894 30.2087 53.1331 30.2436 53.1706C30.7212 53.8121 32.2566 53.4696 32.8277 53.4299C34.546 53.3109 36.2711 53.1701 37.9936 53.1454C38.4332 53.1391 38.9 52.7555 38.8583 52.2807C38.6198 49.5645 38.1313 45.8883 35.6381 44.7101ZM36.5363 38.8774C36.5904 39.0779 36.6172 39.2848 36.6158 39.4925C36.5045 38.9896 36.306 38.5165 36.0428 38.1613C36.2677 38.2979 36.4415 38.5256 36.5363 38.8774ZM48.9854 45.326C48.9181 45.2817 48.8505 45.2465 48.7829 45.2073C50.9297 44.5068 52.0889 41.6441 51.7149 39.3261C51.4698 37.8089 50.6077 36.4969 49.1058 36.0082C47.124 35.3636 44.7762 36.6409 43.8345 38.366C43.5741 38.8442 43.4138 39.3704 43.3632 39.9125C42.5402 42.1411 43.9251 43.9903 45.8774 44.8961C43.1087 45.8315 41.1187 49.9834 42.7447 52.5652C42.7671 52.9699 43.044 53.3546 43.5838 53.3688C46.0344 53.4327 49.5352 54.5342 51.3886 52.3511C53.3738 50.0129 51.02 46.6664 48.9854 45.326Z" fill="#3C0E7B"/>
</g>
<defs>
<clipPath id="clip0_430_1719">
<rect width="54" height="54" fill="white"/>
</clipPath>
</defs>
</svg>
