<svg width="55" height="54" viewBox="0 0 55 54" fill="none" xmlns="http://www.w3.org/2000/svg">
<path d="M48.8634 2.12274C44.7384 -0.672609 39.9678 -0.071784 35.2396 0.412048C27.0244 1.25281 18.7655 1.58934 10.5302 2.19413C8.9753 1.6678 7.50624 1.84797 6.30204 2.52357C6.06465 2.54454 5.82642 2.55757 5.58903 2.5791C4.94912 2.63773 4.7225 3.22723 4.90493 3.66375C3.91517 4.78269 3.30329 6.33616 3.29451 8.08368C3.28545 9.9023 4.05142 11.8461 5.50519 12.9781C6.60259 13.8324 8.74329 14.4559 10.2418 13.9067C11.895 18.2946 15.7345 21.3987 20.6057 22.7692C20.2751 25.2793 20.5932 28.086 20.683 30.4578C20.781 33.0447 20.9337 35.8525 21.5773 38.4481C21.5793 38.6269 21.592 38.8005 21.5983 38.9776C19.8955 39.1104 18.1953 39.3059 16.4985 39.6175C15.9625 39.7161 15.4855 40.3472 15.5308 40.8885C15.5991 41.7029 15.6645 42.508 15.7654 43.3034C14.2796 43.4547 12.9284 43.8278 11.9772 44.6493C11.8763 44.7363 11.8248 44.8765 11.8242 45.0173C11.095 44.5785 10.0679 44.7088 9.88829 45.7761C9.5104 48.0202 9.4189 50.2482 9.3716 52.5235C9.35488 53.3291 10.054 53.9917 10.8438 53.9953C21.1057 54.0455 31.3588 53.6447 41.6204 53.95C42.3957 53.9733 43.0501 53.2835 43.047 52.5235C43.0351 49.7519 42.9589 47.0234 42.6603 44.2663C42.5776 43.5037 42.079 42.846 41.245 42.8511C39.5658 42.8613 37.8871 42.8902 36.209 42.927C36.0546 41.8027 35.7566 40.6931 35.4558 39.7679C35.2629 39.1753 34.7547 38.747 34.1142 38.7464C33.4833 38.7464 32.8531 38.7436 32.223 38.7407C32.3593 36.1043 32.4202 33.4591 32.4443 30.8286C32.4686 28.1766 32.7754 25.3178 32.4876 22.6304C36.3948 21.3607 40.5558 18.8059 43.1436 15.5675C43.2583 15.6057 43.3625 15.6579 43.4971 15.6692C50.2251 16.2241 55.0204 6.29537 48.8634 2.12274ZM9.5325 11.194C8.75264 11.285 7.97732 11.4495 7.2578 10.8892C6.40345 10.2241 6.0587 9.12613 6.00941 8.08396C5.9199 6.19396 6.90286 4.99118 8.28524 4.27308C8.84272 4.298 9.40134 4.34248 9.95854 4.36004C9.31692 6.83019 9.20956 9.11792 9.5325 11.194ZM44.9214 12.6798C46.2043 9.72384 46.0443 6.41803 43.4285 3.10315C44.0098 3.1921 44.5934 3.29946 45.1908 3.44563C50.675 4.79033 49.113 11.6614 44.9214 12.6798Z" fill="#84255D"/>
</svg>
