<svg width="66" height="66" viewBox="0 0 66 66" fill="none" xmlns="http://www.w3.org/2000/svg">
<g clip-path="url(#clip0_430_1725)">
<path d="M65.6332 26.3116C65.176 20.5128 65.5199 13.7421 60.196 10.0544C55.2896 6.65541 46.959 8.76105 41.52 9.0303C35.7623 9.31545 30.1039 9.91514 24.3241 9.72158C19.0814 9.546 14.2144 7.28655 8.93097 7.39646C2.37106 7.53299 0.109195 11.9506 0.275448 17.7328C0.504607 25.687 -1.30586 34.4694 2.12773 41.9221C5.52641 49.2991 15.814 47.0763 21.6751 45.1189C21.0723 51.0864 24.3735 57.6636 30.9154 58.5968C31.4321 58.6705 31.9084 58.3632 32.1687 57.9605C32.7708 58.3041 33.6653 58.1008 33.8689 57.3045C34.3331 55.4916 34.0289 53.5902 33.909 51.739C33.7991 50.0412 33.7891 48.3248 33.9367 46.6259C34.0514 46.657 34.1734 46.6785 34.3055 46.6868C42.4971 47.1703 54.8493 48.996 61.8654 43.6596C67.0224 39.7373 66.0753 31.9259 65.6332 26.3116ZM58.3461 41.9726C55.1503 43.8404 50.2609 43.5045 46.6714 43.586C42.5483 43.68 38.4265 43.4094 34.3055 43.6071C33.655 43.6382 33.2226 43.9676 32.9989 44.3983C32.7853 44.4719 32.5907 44.634 32.4805 44.9278C31.2904 48.0966 30.7744 52.5768 31.3955 56.1055C31.1415 56.1086 30.9099 56.0775 30.6735 56.0533C29.2159 55.3983 27.9011 54.7236 26.6969 53.688C24.7689 51.0152 24.2826 46.6857 24.0088 43.6009C23.9114 42.5 22.2983 42.1309 21.9806 43.2933C21.7656 43.1408 21.4846 43.062 21.149 43.1204C18.0223 43.6634 14.6741 43.961 11.5005 43.856C6.06216 43.6759 3.7792 39.8103 3.19023 34.8686C2.47821 28.897 3.34093 22.6516 3.17157 16.6337C2.8992 6.95784 14.9054 11.2023 20.6281 12.3979C27.813 13.899 35.5594 12.4729 42.794 12.1577C47.3859 11.9575 52.2705 11.0202 56.8004 12.1373C62.6348 13.5762 61.9052 21.7616 62.2646 26.3116C62.6919 31.7157 63.8311 38.7671 58.3461 41.9726Z" fill="white"/>
<path d="M24.361 34.5611C23.546 34.3921 22.6864 34.3119 21.8188 34.259C24.2532 31.2419 25.9686 27.3922 24.9839 23.6938C24.4637 21.7406 22.6563 19.4597 20.6063 19.0647C18.3355 18.6271 17.18 20.8589 16.7424 22.6928C16.4552 23.896 18.1588 24.6917 18.7786 23.5514C19.8193 21.6366 20.6129 22.0444 21.6453 23.7633C22.4555 25.1123 22.1002 26.6138 21.6287 28.0012C20.7429 30.609 18.6061 32.856 16.5803 34.6354C15.3851 35.6855 16.3802 37.5861 17.8163 37.6197C20.1159 37.6732 22.6491 38.3452 24.6856 37.0449C25.6133 36.4521 25.5749 34.8131 24.361 34.5611ZM35.2324 21.443C35.0648 19.6232 32.3481 19.5537 32.3488 21.443C32.3491 22.1091 32.3215 22.7744 32.308 23.4401C32.0463 25.3159 31.0536 26.6546 28.8875 26.413C28.6743 25.02 28.378 23.6216 28.5764 22.2255C28.7541 20.9767 27.0214 20.4144 26.6374 21.6908C26.0588 23.6136 26.2015 25.6363 26.1746 27.6265C26.1659 28.2635 26.618 28.8383 27.226 29.0077C29.1817 29.5521 30.839 29.3672 32.1352 28.6683C32.1141 29.1363 32.0958 29.6046 32.0747 30.0726C31.9717 32.3618 31.4802 34.8189 32.3678 36.917C32.6633 37.6155 33.8796 37.5951 34.1824 36.917C35.0213 35.0374 34.8363 32.9148 34.9252 30.8309C35.0244 28.4986 35.1135 26.1648 35.1737 23.8303C35.2815 23.0775 35.3095 22.2791 35.2324 21.443ZM47.6952 31.7113C47.4138 28.4592 47.2528 25.2008 46.8733 21.9584C46.7654 21.0383 45.5498 21.0379 45.442 21.9584C45.1292 24.6333 44.9684 27.3192 44.8703 30.0097C43.3633 30.0463 41.8497 30.1697 40.3458 30.2596C40.1571 27.3877 40.0189 24.5133 39.2927 21.7202C39.0442 20.7642 37.4051 20.9377 37.5309 21.9587C38.1382 26.8775 37.0125 31.9453 37.9388 36.8064C38.319 38.8014 41.3568 37.9542 40.9784 35.9682C40.7416 34.7266 40.5985 33.474 40.4914 32.2176C41.9154 32.3051 43.3474 32.4178 44.7738 32.4561C44.6383 34.5106 44.3096 37.3573 45.996 38.575C46.6213 39.0264 47.447 38.6493 47.8307 38.0942C48.8838 36.5686 47.8435 33.4253 47.6952 31.7113Z" fill="white"/>
</g>
<defs>
<clipPath id="clip0_430_1725">
<rect width="66" height="66" fill="white"/>
</clipPath>
</defs>
</svg>
