<svg width="122" height="57" viewBox="0 0 122 57" fill="none" xmlns="http://www.w3.org/2000/svg">
<path d="M63.436 38.2789L62.0479 36.565C61.9732 36.4726 61.9874 36.3371 62.0798 36.2624L72.5638 27.7713C72.6021 27.7401 72.6497 27.7232 72.6993 27.7232H77.3609C77.4135 27.7232 77.4645 27.7041 77.504 27.6688L89.8689 16.6713C89.9083 16.6364 89.959 16.6169 90.0119 16.6169H101.968C102.038 16.6169 102.103 16.5831 102.143 16.5264L110.628 4.61341C110.668 4.55673 110.734 4.52295 110.803 4.52295H114.338C114.457 4.52295 114.553 4.42648 114.553 4.30786V0.761402C114.553 0.578223 114.767 0.479119 114.907 0.596984L120.924 5.67645C121.025 5.7624 121.025 5.91931 120.924 6.00489L114.907 11.084C114.767 11.2018 114.553 11.1027 114.553 10.9196V7.37347C114.553 7.25486 114.457 7.15839 114.338 7.15839H112.162C112.092 7.15839 112.027 7.19217 111.987 7.24885L103.502 19.1619C103.462 19.2185 103.396 19.2523 103.327 19.2523H91.0141C90.9616 19.2523 90.9105 19.2715 90.8711 19.3067L78.5062 30.3042C78.4668 30.3391 78.4161 30.3587 78.3632 30.3587H73.6328C73.5836 30.3587 73.536 30.3755 73.4973 30.4067L63.7385 38.3104C63.6462 38.3851 63.5107 38.3708 63.436 38.2789Z" fill="black"/>
<path d="M77.239 26.9102L78.5569 25.6963V17.0396H67.9592V30.5464L72.2816 26.9102H77.239Z" fill="#74B329"/>
<path d="M67.9592 36.1384V38.2397H78.5569V31.1299H73.9129L67.9592 36.1384Z" fill="#74B329"/>
<path d="M89.3779 22.0466C90.828 22.901 92.2881 23.6877 93.7303 24.3979V20.2723L91.3561 20.2651L89.3779 22.0466Z" fill="#88C440"/>
<path d="M89.4511 15.7045L93.7303 15.7048V9.85889H83.1326V17.8151C83.8458 18.3737 84.5762 18.909 85.3149 19.4292L89.4511 15.7045Z" fill="#88C440"/>
<path d="M103.013 13.67C102.775 13.5383 102.534 13.4133 102.297 13.2766C100.926 12.4861 99.5995 11.6134 98.306 10.6889V1.51416V15.7053L101.549 15.7056L103.013 13.67Z" fill="#88C440"/>
<path d="M103.943 20.3039L98.3064 20.2866V38.2389V28.2654C101.753 29.5109 105.304 30.4906 108.904 31.1546V16.4098C108.343 16.1944 107.785 15.9684 107.231 15.7319L103.943 20.3039Z" fill="#88C440"/>
<path d="M83.1326 17.8149V21.3944L85.3149 19.429C84.5766 18.9091 83.8461 18.3739 83.1326 17.8149Z" fill="#74B329"/>
<path d="M83.1326 27.6707V38.2392H93.7303V24.3987C92.2881 23.6885 90.828 22.9017 89.3779 22.0474L83.1326 27.6707Z" fill="#74B329"/>
<path d="M107.231 15.7314C107.785 15.9675 108.343 16.1935 108.904 16.4093V13.4053L107.231 15.7314Z" fill="#99D652"/>
<path d="M102.297 13.2766C102.534 13.4133 102.775 13.5383 103.013 13.67L108.904 5.48027V1.51416H98.306V10.6889C99.5995 11.6138 100.926 12.4861 102.297 13.2766Z" fill="#99D652"/>
<path d="M98.3064 38.2385H108.904V31.1538C105.304 30.4898 101.753 29.5101 98.3064 28.2646V38.2385Z" fill="#74B329"/>
<path d="M6.036 33.4546V19.5586H0.204V15.6946H16.68V19.5586H10.848V33.4546H6.036ZM26.1294 33.6946C24.2174 33.6946 22.5614 33.3466 21.1614 32.6506C19.7614 31.9466 18.6814 30.9146 17.9214 29.5546C17.1614 28.1866 16.7814 26.5266 16.7814 24.5746C16.7814 22.6226 17.1614 20.9666 17.9214 19.6066C18.6814 18.2386 19.7614 17.2066 21.1614 16.5106C22.5614 15.8066 24.2174 15.4546 26.1294 15.4546C28.0414 15.4546 29.6974 15.8066 31.0974 16.5106C32.4974 17.2146 33.5774 18.2506 34.3374 19.6186C35.0974 20.9866 35.4774 22.6386 35.4774 24.5746C35.4774 26.5106 35.0974 28.1626 34.3374 29.5306C33.5774 30.8986 32.4934 31.9346 31.0854 32.6386C29.6854 33.3426 28.0334 33.6946 26.1294 33.6946ZM26.1294 29.8906C27.5614 29.8906 28.6574 29.4586 29.4174 28.5946C30.1854 27.7226 30.5694 26.4106 30.5694 24.6586C30.5694 22.8346 30.1854 21.4786 29.4174 20.5906C28.6574 19.7026 27.5614 19.2586 26.1294 19.2586C24.7054 19.2586 23.6094 19.6906 22.8414 20.5546C22.0734 21.4106 21.6894 22.7226 21.6894 24.4906C21.6894 26.3386 22.0654 27.7026 22.8174 28.5826C23.5774 29.4546 24.6814 29.8906 26.1294 29.8906ZM38.0642 16.0426C40.1042 15.6586 42.1042 15.4666 44.0642 15.4666C46.9602 15.4666 49.1162 15.9986 50.5322 17.0626C51.9562 18.1186 52.6682 19.7706 52.6682 22.0186C52.6682 24.1786 51.9802 25.8106 50.6042 26.9146C49.2282 28.0186 47.1962 28.5706 44.5082 28.5706C44.2522 28.5706 43.8842 28.5626 43.4042 28.5466L42.8762 28.5346V33.4546H38.0642V16.0426ZM44.5442 25.1146C45.7602 25.1146 46.6442 24.8786 47.1962 24.4066C47.7482 23.9266 48.0242 23.1346 48.0242 22.0306C48.0242 20.9426 47.7402 20.1546 47.1722 19.6666C46.6122 19.1706 45.7282 18.9226 44.5202 18.9226C43.8962 18.9226 43.3482 18.9666 42.8762 19.0546V25.0066C43.4442 25.0786 44.0002 25.1146 44.5442 25.1146Z" fill="black"/>
<path d="M5.632 53.5686C4.828 53.5686 4.132 53.4066 3.544 53.0826C2.956 52.7546 2.5 52.2526 2.176 51.5766C1.852 50.8966 1.69 50.0426 1.69 49.0146C1.69 47.9866 1.852 47.1346 2.176 46.4586C2.504 45.7786 2.962 45.2766 3.55 44.9526C4.142 44.6246 4.836 44.4606 5.632 44.4606C6.436 44.4606 7.132 44.6246 7.72 44.9526C8.312 45.2766 8.77 45.7786 9.094 46.4586C9.418 47.1346 9.58 47.9866 9.58 49.0146C9.58 50.0386 9.416 50.8906 9.088 51.5706C8.76 52.2506 8.3 52.7546 7.708 53.0826C7.12 53.4066 6.428 53.5686 5.632 53.5686ZM5.632 52.7106C6.552 52.7106 7.268 52.4186 7.78 51.8346C8.292 51.2466 8.548 50.3166 8.548 49.0446C8.548 47.7486 8.292 46.8046 7.78 46.2126C7.268 45.6166 6.552 45.3186 5.632 45.3186C4.712 45.3186 3.996 45.6126 3.484 46.2006C2.976 46.7846 2.722 47.7126 2.722 48.9846C2.722 51.4686 3.692 52.7106 5.632 52.7106ZM13.4075 53.5626C12.7115 53.5626 12.1635 53.3706 11.7635 52.9866C11.3675 52.6026 11.1695 51.9946 11.1695 51.1626V46.9446H12.1535V51.1146C12.1535 51.6746 12.2815 52.0786 12.5375 52.3266C12.7935 52.5706 13.1555 52.6926 13.6235 52.6926C13.9715 52.6926 14.3175 52.6206 14.6615 52.4766C15.0095 52.3286 15.3055 52.1126 15.5495 51.8286V46.9446H16.5335V53.4546H15.7115L15.6395 52.7346H15.5795C15.2875 53.0066 14.9555 53.2126 14.5835 53.3526C14.2115 53.4926 13.8195 53.5626 13.4075 53.5626ZM21.3926 52.7226C21.6206 52.7226 21.9106 52.6866 22.2626 52.6146V53.4426C21.8906 53.5266 21.5286 53.5686 21.1766 53.5686C20.4446 53.5686 19.8866 53.3846 19.5026 53.0166C19.1186 52.6446 18.9266 52.0786 18.9266 51.3186V47.7546H17.6426V46.9446H18.9266L19.0946 44.5746H19.9106V46.9446H22.1606V47.7546H19.9106V51.1566C19.9106 51.7166 20.0326 52.1186 20.2766 52.3626C20.5206 52.6026 20.8926 52.7226 21.3926 52.7226ZM24.8929 53.5686C24.1729 53.5686 23.5229 53.4786 22.9429 53.2986V52.5126C23.2789 52.6126 23.6029 52.6846 23.9149 52.7286C24.2309 52.7726 24.5589 52.7946 24.8989 52.7946C25.4989 52.7946 25.9349 52.7026 26.2069 52.5186C26.4829 52.3346 26.6209 52.0646 26.6209 51.7086C26.6209 51.4166 26.5409 51.1946 26.3809 51.0426C26.2249 50.8866 25.9489 50.7726 25.5529 50.7006L24.5569 50.5146C23.9489 50.3986 23.5069 50.1966 23.2309 49.9086C22.9589 49.6166 22.8229 49.2266 22.8229 48.7386C22.8229 48.3626 22.9209 48.0326 23.1169 47.7486C23.3129 47.4646 23.6129 47.2426 24.0169 47.0826C24.4209 46.9226 24.9289 46.8426 25.5409 46.8426C26.1409 46.8426 26.6949 46.9146 27.2029 47.0586V47.8446C26.9229 47.7646 26.6509 47.7066 26.3869 47.6706C26.1229 47.6346 25.8469 47.6166 25.5589 47.6166C24.9229 47.6166 24.4649 47.7166 24.1849 47.9166C23.9089 48.1126 23.7709 48.3786 23.7709 48.7146C23.7709 48.9786 23.8469 49.1926 23.9989 49.3566C24.1549 49.5206 24.4229 49.6406 24.8029 49.7166L25.7929 49.8966C26.4129 50.0126 26.8629 50.2106 27.1429 50.4906C27.4269 50.7666 27.5689 51.1526 27.5689 51.6486C27.5689 52.2526 27.3409 52.7246 26.8849 53.0646C26.4329 53.4006 25.7689 53.5686 24.8929 53.5686ZM31.5874 53.5686C30.6634 53.5686 29.9414 53.2906 29.4214 52.7346C28.9014 52.1786 28.6414 51.3346 28.6414 50.2026C28.6414 49.0786 28.9014 48.2386 29.4214 47.6826C29.9414 47.1226 30.6634 46.8426 31.5874 46.8426C32.5194 46.8426 33.2414 47.1206 33.7534 47.6766C34.2694 48.2286 34.5274 49.0706 34.5274 50.2026C34.5274 50.9546 34.4074 51.5826 34.1674 52.0866C33.9274 52.5866 33.5874 52.9586 33.1474 53.2026C32.7074 53.4466 32.1874 53.5686 31.5874 53.5686ZM31.5874 52.7706C32.2114 52.7706 32.6894 52.5706 33.0214 52.1706C33.3574 51.7706 33.5254 51.1186 33.5254 50.2146C33.5254 49.2986 33.3594 48.6406 33.0274 48.2406C32.6954 47.8406 32.2154 47.6406 31.5874 47.6406C30.9594 47.6406 30.4774 47.8406 30.1414 48.2406C29.8094 48.6366 29.6434 49.2866 29.6434 50.1906C29.6434 51.1066 29.8094 51.7666 30.1414 52.1706C30.4774 52.5706 30.9594 52.7706 31.5874 52.7706ZM38.2864 53.5626C37.5904 53.5626 37.0424 53.3706 36.6424 52.9866C36.2464 52.6026 36.0484 51.9946 36.0484 51.1626V46.9446H37.0324V51.1146C37.0324 51.6746 37.1604 52.0786 37.4164 52.3266C37.6724 52.5706 38.0344 52.6926 38.5024 52.6926C38.8504 52.6926 39.1964 52.6206 39.5404 52.4766C39.8884 52.3286 40.1844 52.1126 40.4284 51.8286V46.9446H41.4124V53.4546H40.5904L40.5184 52.7346H40.4584C40.1664 53.0066 39.8344 53.2126 39.4624 53.3526C39.0904 53.4926 38.6984 53.5626 38.2864 53.5626ZM43.3686 46.9446H44.1906L44.2746 47.8146H44.3346C44.5666 47.5186 44.8646 47.2886 45.2286 47.1246C45.5966 46.9606 45.9786 46.8786 46.3746 46.8786C46.5786 46.8786 46.7786 46.8966 46.9746 46.9326V47.8446C46.7946 47.8126 46.5786 47.7966 46.3266 47.7966C45.9746 47.7966 45.6146 47.8726 45.2466 48.0246C44.8826 48.1766 44.5846 48.3986 44.3526 48.6906V53.4546H43.3686V46.9446ZM50.5449 53.5686C49.5529 53.5686 48.7969 53.2926 48.2769 52.7406C47.7569 52.1846 47.4969 51.3386 47.4969 50.2026C47.4969 49.0666 47.7749 48.2226 48.3309 47.6706C48.8909 47.1186 49.7089 46.8426 50.7849 46.8426C51.3209 46.8426 51.8069 46.9046 52.2429 47.0286V47.8626C51.7789 47.7386 51.3269 47.6766 50.8869 47.6766C50.0789 47.6766 49.4809 47.8746 49.0929 48.2706C48.7089 48.6626 48.5169 49.2986 48.5169 50.1786C48.5169 51.0746 48.6969 51.7246 49.0569 52.1286C49.4169 52.5326 49.9589 52.7346 50.6829 52.7346C51.1349 52.7346 51.6549 52.6386 52.2429 52.4466V53.2806C51.7109 53.4726 51.1449 53.5686 50.5449 53.5686ZM53.5405 53.4546V46.9446H54.5305V53.4546H53.5405ZM54.0385 45.5406C53.8185 45.5406 53.6485 45.4866 53.5285 45.3786C53.4125 45.2706 53.3545 45.1206 53.3545 44.9286C53.3545 44.7326 53.4125 44.5806 53.5285 44.4726C53.6485 44.3646 53.8185 44.3106 54.0385 44.3106C54.2585 44.3106 54.4265 44.3646 54.5425 44.4726C54.6625 44.5806 54.7225 44.7326 54.7225 44.9286C54.7225 45.1206 54.6625 45.2706 54.5425 45.3786C54.4265 45.4866 54.2585 45.5406 54.0385 45.5406ZM56.4819 46.9446H57.3099L57.3819 47.6886H57.4479C57.7399 47.4166 58.0759 47.2086 58.4559 47.0646C58.8359 46.9166 59.2359 46.8426 59.6559 46.8426C60.3639 46.8426 60.9159 47.0386 61.3119 47.4306C61.7119 47.8186 61.9119 48.4326 61.9119 49.2726V53.4546H60.9279V49.3086C60.9279 48.7446 60.7979 48.3386 60.5379 48.0906C60.2819 47.8426 59.9099 47.7186 59.4219 47.7186C59.0739 47.7186 58.7239 47.7886 58.3719 47.9286C58.0199 48.0686 57.7179 48.2826 57.4659 48.5706V53.4546H56.4819V46.9446ZM65.9307 56.2146C65.5987 56.2146 65.2467 56.1866 64.8747 56.1306C64.5067 56.0786 64.1667 56.0026 63.8547 55.9026V55.0806C64.5667 55.3006 65.2407 55.4106 65.8767 55.4106C66.3967 55.4106 66.8187 55.3406 67.1427 55.2006C67.4667 55.0646 67.7067 54.8426 67.8627 54.5346C68.0227 54.2266 68.1027 53.8146 68.1027 53.2986V52.7286H68.0487C67.8127 52.9846 67.5267 53.1846 67.1907 53.3286C66.8587 53.4686 66.4887 53.5386 66.0807 53.5386C65.5727 53.5386 65.1187 53.4286 64.7187 53.2086C64.3187 52.9846 64.0027 52.6326 63.7707 52.1526C63.5387 51.6726 63.4227 51.0646 63.4227 50.3286C63.4227 49.1726 63.7147 48.3026 64.2987 47.7186C64.8827 47.1346 65.7507 46.8426 66.9027 46.8426C67.2747 46.8426 67.6487 46.8706 68.0247 46.9266C68.4007 46.9786 68.7547 47.0546 69.0867 47.1546V53.1426C69.0867 53.8666 68.9707 54.4546 68.7387 54.9066C68.5067 55.3586 68.1587 55.6886 67.6947 55.8966C67.2307 56.1086 66.6427 56.2146 65.9307 56.2146ZM66.3687 52.6986C66.7047 52.6986 67.0247 52.6366 67.3287 52.5126C67.6327 52.3846 67.8907 52.1906 68.1027 51.9306V47.7966C67.7147 47.6926 67.2847 47.6406 66.8127 47.6406C66.0167 47.6406 65.4187 47.8506 65.0187 48.2706C64.6227 48.6906 64.4247 49.3466 64.4247 50.2386C64.4247 51.1186 64.5967 51.7486 64.9407 52.1286C65.2847 52.5086 65.7607 52.6986 66.3687 52.6986ZM74.2969 44.7246C74.7289 44.6406 75.1389 44.5786 75.5269 44.5386C75.9149 44.4986 76.3209 44.4786 76.7449 44.4786C77.9729 44.4786 78.8969 44.7246 79.5169 45.2166C80.1409 45.7086 80.4529 46.4706 80.4529 47.5026C80.4529 48.5066 80.1369 49.2666 79.5049 49.7826C78.8769 50.2946 77.9069 50.5506 76.5949 50.5506C76.1709 50.5506 75.7389 50.5306 75.2989 50.4906V53.4546H74.2969V44.7246ZM76.6069 49.7466C77.2829 49.7466 77.8289 49.6666 78.2449 49.5066C78.6649 49.3426 78.9729 49.0966 79.1689 48.7686C79.3649 48.4406 79.4629 48.0226 79.4629 47.5146C79.4629 46.7466 79.2449 46.1826 78.8089 45.8226C78.3729 45.4626 77.7089 45.2826 76.8169 45.2826C76.2969 45.2826 75.7909 45.3246 75.2989 45.4086V49.6626C75.6909 49.7186 76.1269 49.7466 76.6069 49.7466ZM83.8644 46.8426C84.4604 46.8426 84.9504 46.9186 85.3344 47.0706C85.7184 47.2186 86.0064 47.4666 86.1984 47.8146C86.3944 48.1626 86.4924 48.6326 86.4924 49.2246V53.4546H85.6704L85.5984 52.7166H85.5324C85.3084 52.9806 85.0164 53.1886 84.6564 53.3406C84.2964 53.4886 83.9144 53.5626 83.5104 53.5626C83.0784 53.5626 82.7064 53.4906 82.3944 53.3466C82.0864 53.2026 81.8504 52.9966 81.6864 52.7286C81.5224 52.4606 81.4404 52.1446 81.4404 51.7806C81.4404 51.2126 81.6364 50.7726 82.0284 50.4606C82.4204 50.1446 83.0464 49.9446 83.9064 49.8606L85.5264 49.6866V49.1826C85.5264 48.7866 85.4604 48.4766 85.3284 48.2526C85.2004 48.0286 85.0064 47.8706 84.7464 47.7786C84.4904 47.6866 84.1564 47.6406 83.7444 47.6406C83.4564 47.6406 83.1484 47.6666 82.8204 47.7186C82.4924 47.7666 82.1744 47.8426 81.8664 47.9466V47.1486C82.1504 47.0486 82.4704 46.9726 82.8264 46.9206C83.1824 46.8686 83.5284 46.8426 83.8644 46.8426ZM83.7504 52.8066C84.0824 52.8066 84.4004 52.7426 84.7044 52.6146C85.0124 52.4826 85.2864 52.2866 85.5264 52.0266V50.3406L83.9724 50.5086C83.4284 50.5726 83.0364 50.7006 82.7964 50.8926C82.5564 51.0806 82.4364 51.3486 82.4364 51.6966C82.4364 52.0526 82.5464 52.3266 82.7664 52.5186C82.9864 52.7106 83.3144 52.8066 83.7504 52.8066ZM88.3686 46.9446H89.1906L89.2746 47.8146H89.3346C89.5666 47.5186 89.8646 47.2886 90.2286 47.1246C90.5966 46.9606 90.9786 46.8786 91.3746 46.8786C91.5786 46.8786 91.7786 46.8966 91.9746 46.9326V47.8446C91.7946 47.8126 91.5786 47.7966 91.3266 47.7966C90.9746 47.7966 90.6146 47.8726 90.2466 48.0246C89.8826 48.1766 89.5846 48.3986 89.3526 48.6906V53.4546H88.3686V46.9446ZM96.0645 52.7226C96.2925 52.7226 96.5825 52.6866 96.9345 52.6146V53.4426C96.5625 53.5266 96.2005 53.5686 95.8485 53.5686C95.1165 53.5686 94.5585 53.3846 94.1745 53.0166C93.7905 52.6446 93.5985 52.0786 93.5985 51.3186V47.7546H92.3145V46.9446H93.5985L93.7665 44.5746H94.5825V46.9446H96.8325V47.7546H94.5825V51.1566C94.5825 51.7166 94.7045 52.1186 94.9485 52.3626C95.1925 52.6026 95.5645 52.7226 96.0645 52.7226ZM98.0249 46.9446H98.8529L98.9249 47.6886H98.9909C99.2829 47.4166 99.6189 47.2086 99.9989 47.0646C100.379 46.9166 100.779 46.8426 101.199 46.8426C101.907 46.8426 102.459 47.0386 102.855 47.4306C103.255 47.8186 103.455 48.4326 103.455 49.2726V53.4546H102.471V49.3086C102.471 48.7446 102.341 48.3386 102.081 48.0906C101.825 47.8426 101.453 47.7186 100.965 47.7186C100.617 47.7186 100.267 47.7886 99.9149 47.9286C99.5629 48.0686 99.2609 48.2826 99.0089 48.5706V53.4546H98.0249V46.9446ZM110.432 50.5206H105.962C105.99 51.3126 106.198 51.8866 106.586 52.2426C106.974 52.5946 107.562 52.7706 108.35 52.7706C108.886 52.7706 109.47 52.6766 110.102 52.4886V53.2866C109.47 53.4746 108.848 53.5686 108.236 53.5686C107.148 53.5686 106.33 53.2966 105.782 52.7526C105.238 52.2046 104.966 51.3526 104.966 50.1966C104.966 49.4646 105.076 48.8486 105.296 48.3486C105.52 47.8486 105.84 47.4726 106.256 47.2206C106.672 46.9686 107.172 46.8426 107.756 46.8426C108.62 46.8426 109.282 47.1286 109.742 47.7006C110.202 48.2686 110.432 49.1086 110.432 50.2206V50.5206ZM107.75 47.5506C107.178 47.5506 106.74 47.7346 106.436 48.1026C106.136 48.4706 105.978 49.0546 105.962 49.8546H109.496C109.48 49.0546 109.326 48.4706 109.034 48.1026C108.742 47.7346 108.314 47.5506 107.75 47.5506ZM111.923 46.9446H112.745L112.829 47.8146H112.889C113.121 47.5186 113.419 47.2886 113.783 47.1246C114.151 46.9606 114.533 46.8786 114.929 46.8786C115.133 46.8786 115.333 46.8966 115.529 46.9326V47.8446C115.349 47.8126 115.133 47.7966 114.881 47.7966C114.529 47.7966 114.169 47.8726 113.801 48.0246C113.437 48.1766 113.139 48.3986 112.907 48.6906V53.4546H111.923V46.9446ZM118.233 53.5686C117.513 53.5686 116.863 53.4786 116.283 53.2986V52.5126C116.619 52.6126 116.943 52.6846 117.255 52.7286C117.571 52.7726 117.899 52.7946 118.239 52.7946C118.839 52.7946 119.275 52.7026 119.547 52.5186C119.823 52.3346 119.961 52.0646 119.961 51.7086C119.961 51.4166 119.881 51.1946 119.721 51.0426C119.565 50.8866 119.289 50.7726 118.893 50.7006L117.897 50.5146C117.289 50.3986 116.847 50.1966 116.571 49.9086C116.299 49.6166 116.163 49.2266 116.163 48.7386C116.163 48.3626 116.261 48.0326 116.457 47.7486C116.653 47.4646 116.953 47.2426 117.357 47.0826C117.761 46.9226 118.269 46.8426 118.881 46.8426C119.481 46.8426 120.035 46.9146 120.543 47.0586V47.8446C120.263 47.7646 119.991 47.7066 119.727 47.6706C119.463 47.6346 119.187 47.6166 118.899 47.6166C118.263 47.6166 117.805 47.7166 117.525 47.9166C117.249 48.1126 117.111 48.3786 117.111 48.7146C117.111 48.9786 117.187 49.1926 117.339 49.3566C117.495 49.5206 117.763 49.6406 118.143 49.7166L119.133 49.8966C119.753 50.0126 120.203 50.2106 120.483 50.4906C120.767 50.7666 120.909 51.1526 120.909 51.6486C120.909 52.2526 120.681 52.7246 120.225 53.0646C119.773 53.4006 119.109 53.5686 118.233 53.5686Z" fill="black"/>
</svg>
