<svg width="60" height="60" viewBox="0 0 60 60" fill="none" xmlns="http://www.w3.org/2000/svg">
<path d="M36.3896 38.8701L35.2521 40.0701C35.2521 40.0701 32.5446 42.9176 25.1571 35.1401C17.7696 27.3626 20.4771 24.5151 20.4771 24.5151L21.1946 23.7576C22.9596 21.8976 23.1271 18.9126 21.5846 16.7326L18.4346 12.2751C16.5246 9.57512 12.8371 9.22012 10.6496 11.5226L6.72714 15.6501C5.64464 16.7926 4.91964 18.2701 5.00714 19.9126C5.23214 24.1126 7.02714 33.1451 17.0371 43.6876C27.6546 54.8626 37.6171 55.3076 41.6896 54.9051C42.9796 54.7801 44.0996 54.0826 45.0021 53.1326L48.5521 49.3926C50.9521 46.8676 50.2771 42.5426 47.2071 40.7776L42.4321 38.0276C40.4171 36.8701 37.9646 37.2101 36.3896 38.8676" fill="#1892EA"/>
<path d="M42.5002 30C45.2185 29.9996 47.8626 29.113 50.0317 27.4747C52.2009 25.8364 53.7768 23.5356 54.5208 20.9211C55.2648 18.3066 55.1362 15.5208 54.1545 12.9859C53.1728 10.451 51.3916 8.30523 49.0808 6.87372C46.7699 5.44221 44.0554 4.80301 41.3486 5.05298C38.6418 5.30295 36.0903 6.42846 34.0806 8.25896C32.071 10.0895 30.7129 12.5252 30.2121 15.1969C29.7112 17.8687 30.095 20.6309 31.3052 23.065C31.5333 23.5072 31.5928 24.0172 31.4727 24.5L30.7277 27.2825C30.6539 27.558 30.6539 27.8481 30.7278 28.1235C30.8016 28.399 30.9467 28.6502 31.1483 28.8519C31.35 29.0535 31.6012 29.1986 31.8767 29.2724C32.1521 29.3462 32.4422 29.3463 32.7177 29.2725L35.5002 28.5275C35.983 28.4074 36.493 28.4669 36.9352 28.695C38.6645 29.554 40.5693 30.0007 42.5002 30Z" fill="#1892EA"/>
</svg>
