<svg width="57" height="56" viewBox="0 0 57 56" fill="none" xmlns="http://www.w3.org/2000/svg">
<path d="M46.5762 30.7296L29.0762 24.1671C28.7048 24.0278 28.2955 24.0278 27.9241 24.1671L10.4241 30.7296C10.2049 30.8119 10.0059 30.9402 9.8404 31.1058C9.67494 31.2715 9.54689 31.4707 9.46484 31.69V39.9219H47.5354V31.6899C47.4534 31.4706 47.3253 31.2714 47.1599 31.1058C46.9944 30.9401 46.7954 30.8119 46.5762 30.7296Z" fill="#FFDA44"/>
<path d="M12.7461 37.7344V33.3631L28.5001 27.4554L44.2542 33.3631V37.7344H12.7461Z" fill="#5F55AF"/>
<path d="M47.5353 31.6899C47.4533 31.4706 47.3252 31.2714 47.1597 31.1057C46.9943 30.9401 46.7953 30.8118 46.5761 30.7295L29.0761 24.167C28.8919 24.0979 28.6967 24.0625 28.5 24.0625V39.9219H47.5353V31.6899Z" fill="#FF9F22"/>
<path d="M44.254 37.7344V33.3631L28.5 27.4554V37.7344H44.254Z" fill="#453D83"/>
<path d="M28.5 38.8281L9.4647 31.6899C9.39525 31.8739 9.35957 32.0689 9.35938 32.2656V47.7969C9.35937 48.1309 9.46129 48.4569 9.65152 48.7314C9.84175 49.0059 10.1112 49.2158 10.4239 49.3331L27.9239 55.8956C28.2954 56.0348 28.7046 56.0348 29.0761 55.8956L46.5761 49.3331C46.8888 49.2158 47.1582 49.0058 47.3484 48.7313C47.5387 48.4569 47.6406 48.1308 47.6406 47.7969V32.2656C47.6404 32.0689 47.6047 31.8739 47.5353 31.6899L28.5 38.8281Z" fill="#FFDA44"/>
<path d="M47.5353 31.6899L28.5 38.8281V56C28.6951 56 28.8904 55.9652 29.0761 55.8956L46.5761 49.3331C46.8888 49.2158 47.1582 49.0058 47.3484 48.7313C47.5387 48.4569 47.6406 48.1308 47.6406 47.7969V32.2656C47.6406 32.0649 47.6031 31.8707 47.5353 31.6899Z" fill="#FF9F22"/>
<path d="M49.2815 14.2187H46.0002C45.0942 14.2187 44.3596 13.4842 44.3596 12.5781C44.3596 11.672 45.0942 10.9375 46.0002 10.9375H49.2815C50.1875 10.9375 50.9221 11.672 50.9221 12.5781C50.9221 13.4842 50.1875 14.2187 49.2815 14.2187ZM43.4857 6.28905C43.0327 5.50439 43.3015 4.50098 44.0862 4.04795L46.9277 2.40733C47.7124 1.9543 48.7158 2.22314 49.1688 3.0078C49.6219 3.79245 49.353 4.79586 48.5684 5.24889L45.7268 6.88951C44.942 7.34255 43.9387 7.0737 43.4857 6.28905ZM46.9277 22.7489L44.0862 21.1083C43.3015 20.6552 43.0327 19.6518 43.4857 18.8672C43.9387 18.0825 44.9421 17.8137 45.7268 18.2667L48.5684 19.9073C49.353 20.3604 49.6219 21.3638 49.1688 22.1484C48.7158 22.9331 47.7125 23.2019 46.9277 22.7489Z" fill="#FF9F22"/>
<path d="M11 14.2187H7.71875C6.81269 14.2187 6.07812 13.4842 6.07812 12.5781C6.07812 11.672 6.81269 10.9375 7.71875 10.9375H11C11.9061 10.9375 12.6406 11.672 12.6406 12.5781C12.6406 13.4842 11.9061 14.2187 11 14.2187ZM11.2734 6.88951L8.43187 5.24889C7.64722 4.79586 7.37837 3.79245 7.83141 3.0078C8.28444 2.22314 9.28784 1.9543 10.0725 2.40733L12.9141 4.04795C13.6987 4.50098 13.9676 5.50439 13.5145 6.28905C13.0615 7.0737 12.0581 7.34255 11.2734 6.88951ZM7.8313 22.1484C7.37827 21.3638 7.64711 20.3604 8.43177 19.9073L11.2733 18.2667C12.058 17.8137 13.0614 18.0825 13.5144 18.8672C13.9675 19.6518 13.6986 20.6552 12.914 21.1083L10.0724 22.7489C9.28773 23.2019 8.28433 22.9331 7.8313 22.1484Z" fill="#FFDA44"/>
<path d="M33.2852 27.3438H23.7148C22.8088 27.3438 22.0742 26.6092 22.0742 25.7031V25.3895C22.0742 24.2351 21.5003 23.0999 20.4999 22.275C17.5905 19.8763 15.9219 16.3419 15.9219 12.5781C15.9219 5.64255 21.5644 0 28.5 0C35.4356 0 41.0781 5.64255 41.0781 12.5781C41.0781 16.3418 39.4095 19.8762 36.5002 22.275C35.4997 23.0999 34.9258 24.2351 34.9258 25.3897V25.7031C34.9258 26.6092 34.1912 27.3438 33.2852 27.3438Z" fill="#FFF79F"/>
<path d="M28.5 0V27.3438H33.2852C34.1912 27.3438 34.9258 26.6092 34.9258 25.7031V25.3895C34.9258 24.2351 35.4996 23.0999 36.5002 22.2749C39.4095 19.8762 41.0781 16.3418 41.0781 12.5781C41.0781 5.64255 35.4356 0 28.5 0Z" fill="#FFDA44"/>
<path d="M32.9412 10.3242C32.3005 9.68351 31.2618 9.68351 30.6211 10.3242L28.4999 12.4454L26.3788 10.3243C25.7381 9.68362 24.6994 9.68362 24.0587 10.3243C23.4179 10.9651 23.4179 12.0038 24.0587 12.6445L26.8593 15.4452V27.3437H30.1406V15.4452L32.9413 12.6444C33.5819 12.0038 33.5819 10.9649 32.9412 10.3242Z" fill="#FFDA44"/>
<path d="M32.9413 10.3242C32.3006 9.68351 31.2618 9.68351 30.6211 10.3242L28.5 12.4454V27.3437H30.1406V15.4452L32.9413 12.6444C33.582 12.0038 33.582 10.9649 32.9413 10.3242Z" fill="#FF9F22"/>
<path d="M22.0742 25.7031V28.9844C22.0742 31.0952 23.7915 32.8125 25.9023 32.8125H31.0977C33.2085 32.8125 34.9258 31.0952 34.9258 28.9844V25.7031H22.0742Z" fill="#FFF5F5"/>
<path d="M28.5 25.7031V32.8125H31.0977C33.2085 32.8125 34.9258 31.0952 34.9258 28.9844V25.7031H28.5Z" fill="#DFDEF5"/>
<path d="M11.576 30.7294C11.3047 30.6277 11.0113 30.5996 10.7256 30.648C10.44 30.6965 10.1722 30.8197 9.9496 31.0052L3.3871 36.4739C3.16657 36.6577 2.99813 36.8962 2.89861 37.1655C2.79909 37.4348 2.77197 37.7255 2.81996 38.0085C2.86795 38.2916 2.98937 38.5571 3.1721 38.7785C3.35482 39 3.59245 39.1696 3.86124 39.2704L21.3612 45.8329C21.6325 45.9347 21.9259 45.9628 22.2116 45.9144C22.4973 45.8659 22.765 45.7426 22.9875 45.5571L28.4999 40.9638V37.0759L11.576 30.7294Z" fill="#FFF79F"/>
<path d="M53.6127 36.474L47.0502 31.0053C46.8276 30.8198 46.5598 30.6966 46.2742 30.6482C45.9885 30.5998 45.6951 30.6278 45.4238 30.7295L28.5 37.0759V40.9638L34.0122 45.5573C34.2347 45.7428 34.5025 45.866 34.7881 45.9145C35.0738 45.9629 35.3672 45.9349 35.6385 45.8331L53.1385 39.2706C53.4073 39.1698 53.6449 39.0002 53.8277 38.7788C54.0104 38.5573 54.1319 38.2918 54.1799 38.0088C54.228 37.7257 54.2009 37.4349 54.1014 37.1656C54.0018 36.8963 53.8333 36.6578 53.6127 36.474Z" fill="#FFDA44"/>
</svg>
