<svg width="57" height="56" viewBox="0 0 57 56" fill="none" xmlns="http://www.w3.org/2000/svg">
<g clip-path="url(#clip0_777_839)">
<path d="M33.4869 43.9765V33.1574H28.556V36.5545H17.4898C16.306 36.5648 15.3486 37.5221 15.3486 38.7059V43.9868C15.3486 46.8589 17.6751 49.1853 20.5472 49.1853H28.2986C31.1707 49.1751 33.4972 46.8486 33.4869 43.9765Z" fill="#1F315F"/>
<path d="M28.5665 49.5147C28.4842 47.5485 26.8783 46.0044 24.9121 46.0044H23.9342C21.968 46.0044 20.3621 47.5588 20.29 49.525L28.5665 49.5147Z" fill="#EFCDB1"/>
<path d="M24.4184 45.953C24.0787 45.9427 23.8111 45.675 23.8008 45.3353V41.0633C23.8008 40.7236 24.0787 40.4456 24.4184 40.4456C24.7581 40.4456 25.0361 40.7236 25.0361 41.0633V45.3353C25.0464 45.675 24.7787 45.9427 24.439 45.953H24.4287H24.4184Z" fill="#414042"/>
<path d="M28.5769 52.3353V49.5147H20.2901V52.3353C20.2798 54.3529 21.9166 55.9897 23.9342 56H24.9224C26.9401 55.9897 28.5769 54.3529 28.5769 52.3353Z" fill="#8A5D3B"/>
<path d="M28.5669 42.2368C28.2272 42.2368 27.9492 41.9588 27.9492 41.6191V37.0794C27.9492 36.7397 28.2272 36.4618 28.5669 36.4618C28.9066 36.4618 29.1845 36.7397 29.1845 37.0794V41.6191C29.1845 41.9588 28.9066 42.2368 28.5669 42.2368Z" fill="#192A4F"/>
<path d="M33.4772 33.1574V30.4603C33.4772 29.7912 32.9419 29.2559 32.2728 29.2559H29.7611C29.0919 29.2559 28.5566 29.7912 28.5566 30.4603V33.1574H33.4772Z" fill="#EFCDB1"/>
<path d="M46.767 29.6574L36.5758 26.003L34.9081 30.6456L38.1096 31.7883L34.3729 42.2162C33.9714 43.328 34.5479 44.553 35.6596 44.9545L40.6317 46.7353C43.339 47.703 46.314 46.303 47.2817 43.5956L49.8964 36.3074C50.864 33.6103 49.464 30.6353 46.767 29.6574Z" fill="#89C45E"/>
<path d="M50.2972 36.1735C48.4237 35.5764 46.4163 36.5647 45.7575 38.4176L45.4281 39.3338C44.7693 41.1867 45.6855 43.225 47.5075 43.9661L50.2972 36.1735Z" fill="#EFCDB1"/>
<path d="M44.9653 39.2721C44.8933 39.2721 44.8212 39.2618 44.7594 39.2309L40.7344 37.7897C40.4153 37.6765 40.2506 37.3162 40.3638 36.9971C40.4771 36.678 40.8168 36.5132 41.1359 36.6265H41.1462L45.1712 38.0677C45.4903 38.1706 45.6756 38.5206 45.5624 38.85C45.48 39.1074 45.233 39.2824 44.9653 39.2721Z" fill="#414042"/>
<path d="M52.9637 37.1206L50.4416 36.2147L50.2975 36.1735L47.5078 43.9662L47.6416 44.0176L50.1637 44.9235C52.0681 45.6029 54.1578 44.6147 54.8372 42.7103L55.1666 41.7941C55.8461 39.9 54.8578 37.8103 52.9637 37.1206Z" fill="#8A5D3B"/>
<path d="M42.8657 34.1147L42.6598 34.0838L38.3878 32.55C38.0686 32.4367 37.9039 32.0764 38.0172 31.7573C38.1304 31.4382 38.4907 31.2735 38.8098 31.3867L43.0819 32.9206C43.401 33.0338 43.5657 33.3735 43.4525 33.6926V33.7029C43.3598 33.95 43.1333 34.1147 42.8657 34.1147Z" fill="#75AA4D"/>
<path d="M36.5758 26.003L34.0331 25.0971C33.4052 24.8706 32.7155 25.2 32.489 25.8177V25.828L31.6449 28.1853C31.4184 28.8133 31.7478 29.503 32.3655 29.7295H32.3758L34.9081 30.6456L36.5758 26.003Z" fill="#EFCDB1"/>
<path d="M37.8209 13.1044L31.418 21.8338L35.3915 24.747L37.3989 22.0088L46.3238 28.5559C47.2812 29.2559 48.6194 29.05 49.3194 28.0926L52.4489 23.8309C54.1474 21.5147 53.643 18.2617 51.3268 16.5632L45.0783 11.9823C42.7621 10.2941 39.5194 10.7985 37.8209 13.1044Z" fill="#FDC00F"/>
<path d="M45.0683 11.5603C43.9669 13.1868 44.3478 15.3897 45.9331 16.5529L46.7154 17.1294C48.3007 18.2824 50.5139 17.9941 51.7389 16.4603L45.0683 11.5603Z" fill="#EFCDB1"/>
<path d="M43.4002 21.4426C43.2664 21.4426 43.1428 21.4014 43.0399 21.3294C42.7619 21.1235 42.7002 20.7426 42.9061 20.4647L45.4281 17.0161C45.634 16.7382 46.0149 16.6764 46.2928 16.8823C46.5708 17.0882 46.6325 17.4691 46.4266 17.747L43.8943 21.1956C43.7811 21.35 43.5958 21.4426 43.4002 21.4426Z" fill="#414042"/>
<path d="M46.7257 9.28529L45.1404 11.4471L45.0684 11.5603L51.7389 16.4603L51.8316 16.3471L53.4169 14.175C54.611 12.5485 54.2507 10.2632 52.6242 9.06912L51.8419 8.49265C50.2154 7.29853 47.9301 7.64853 46.736 9.275C46.7257 9.275 46.7257 9.28529 46.7257 9.28529Z" fill="#8A5D3B"/>
<path d="M37.7076 22.2044C37.5738 22.2044 37.4502 22.1633 37.337 22.0912C37.0591 21.8853 37.0076 21.5044 37.2135 21.2265L39.8899 17.5618C40.0958 17.2839 40.4767 17.2221 40.7546 17.428C41.0326 17.6339 41.0944 18.0147 40.8885 18.2927L38.2017 21.9574C38.0885 22.1118 37.9032 22.2044 37.7076 22.2044Z" fill="#E5A60A"/>
<path d="M31.418 21.8338L29.8224 24.0059C29.4312 24.5412 29.5445 25.2926 30.0798 25.6941L32.1077 27.1764C32.643 27.5676 33.3945 27.4544 33.7959 26.9191L35.3915 24.747L31.418 21.8338Z" fill="#EFCDB1"/>
<path d="M16.5844 35.2985L26.6314 31.2632L24.7991 26.6926L21.6388 27.9588L17.5108 17.6853C17.0785 16.5941 15.8432 16.0485 14.7417 16.4809C14.7417 16.4809 14.7314 16.4809 14.7314 16.4912L9.82113 18.4676C7.16525 19.5382 5.87848 22.5647 6.93878 25.2206L9.83142 32.4059C10.8917 35.072 13.9079 36.3691 16.5741 35.2985H16.5844Z" fill="#02648E"/>
<path d="M9.61505 32.7868C11.4062 31.9838 12.2503 29.9044 11.5195 28.0823L11.1489 27.1765C10.418 25.3544 8.37976 24.4382 6.53711 25.097L9.61505 32.7868Z" fill="#EFCDB1"/>
<path d="M11.9519 28C11.7049 28 11.4784 27.8456 11.3858 27.6088C11.2622 27.2897 11.4064 26.9294 11.7255 26.8059L15.6887 25.2103C16.0078 25.0868 16.3681 25.2412 16.5019 25.5603C16.6255 25.8794 16.4711 26.2397 16.1519 26.3632L12.1887 27.9588C12.1167 27.9897 12.0343 28 11.9519 28Z" fill="#414042"/>
<path d="M7.00051 33.8368L9.49168 32.8382L9.61521 32.7868L6.53727 25.097L6.39315 25.1485L3.91227 26.147C2.03874 26.8985 1.13286 29.0294 1.88433 30.9029L2.24462 31.8088C2.99609 33.6823 5.12698 34.5882 7.00051 33.8368Z" fill="#8A5D3B"/>
<path d="M16.9546 30.4603C16.6149 30.4706 16.3266 30.203 16.3266 29.8633C16.3163 29.6059 16.481 29.3691 16.7178 29.2662L20.9281 27.578C21.2472 27.4544 21.6075 27.5986 21.731 27.9177C21.8649 28.2265 21.7207 28.5868 21.4119 28.7103C21.4016 28.7103 21.4016 28.7103 21.3913 28.7206L17.181 30.4191C17.109 30.45 17.0369 30.4603 16.9546 30.4603Z" fill="#345493"/>
<path d="M26.6312 31.2633L29.1327 30.2544C29.7503 30.0074 30.0488 29.3074 29.8018 28.6897L28.865 26.353C28.6179 25.7353 27.9179 25.4368 27.3003 25.6838L24.7988 26.6927L26.6312 31.2633Z" fill="#EFCDB1"/>
<path d="M18.3653 15.9044L24.3668 24.9118L28.4638 22.1838L26.58 19.3633L35.8036 13.228C36.7815 12.5691 37.0491 11.2412 36.3903 10.253L33.4668 5.85738C31.8712 3.46914 28.6491 2.82061 26.2609 4.40591L19.8168 8.69856C17.4286 10.2839 16.78 13.5162 18.3653 15.9044Z" fill="#BE1E2D"/>
<path d="M19.4053 8.575C20.5582 10.1603 22.7509 10.5618 24.3876 9.47059L25.2009 8.9353C26.8376 7.85441 27.3317 5.66177 26.3023 3.98383L19.4053 8.575Z" fill="#EFCDB1"/>
<path d="M27.5371 13.9382C27.3312 13.9382 27.1357 13.8353 27.0224 13.6603L24.6548 10.0985C24.4489 9.82058 24.5107 9.4397 24.7783 9.23382C25.0562 9.02793 25.4371 9.0897 25.643 9.35735C25.6533 9.37793 25.6739 9.39852 25.6842 9.41911L28.0518 12.9706C28.2371 13.2588 28.1651 13.6397 27.8768 13.8353C27.7739 13.8971 27.6607 13.9382 27.5371 13.9382Z" fill="#414042"/>
<path d="M17.8404 6.21765L19.3227 8.45148L19.4051 8.57501L26.3021 3.98383L26.2198 3.8603L24.7374 1.62648C23.6154 -0.0514641 21.3404 -0.504405 19.6624 0.617653L18.8595 1.15295C17.1815 2.26471 16.7183 4.51912 17.8301 6.20736L17.8404 6.21765Z" fill="#8A5D3B"/>
<path d="M26.2913 19.5485C26.0854 19.5485 25.8898 19.4455 25.7766 19.2705L23.2648 15.4926C23.0692 15.2044 23.1516 14.8235 23.4398 14.6382C23.728 14.4426 24.1089 14.525 24.2942 14.8029L26.806 18.5808C26.9913 18.8588 26.9192 19.2397 26.6516 19.425C26.6413 19.425 26.6413 19.4353 26.631 19.4353C26.528 19.5073 26.4148 19.5485 26.2913 19.5485Z" fill="#AA1729"/>
<path d="M24.3662 24.9117L25.8589 27.1558C26.2192 27.7117 26.9603 27.8661 27.5059 27.5058C27.5162 27.5058 27.5162 27.4955 27.5265 27.4955L29.6265 26.1058C30.1824 25.7352 30.3265 24.9838 29.9559 24.4279L28.4633 22.1838L24.3662 24.9117Z" fill="#EFCDB1"/>
</g>
<defs>
<clipPath id="clip0_777_839">
<rect width="56" height="56" fill="white" transform="translate(0.5)"/>
</clipPath>
</defs>
</svg>
