<svg width="57" height="56" viewBox="0 0 57 56" fill="none" xmlns="http://www.w3.org/2000/svg">
<path d="M35.1818 17.2333L34.9766 27.3788C38.5637 27.422 43.242 28.1783 47.2721 28.5133C47.2613 28.859 47.3046 29.2048 47.4018 29.5397C47.4774 29.853 47.6071 30.1556 47.7692 30.4257C48.3742 31.3549 50.0057 31.7222 50.5999 30.631L53.6252 21.9549L51.9505 15.4614C51.8857 15.1913 51.7668 14.9428 51.6156 14.7159C51.6156 14.7159 51.0861 13.8407 50.5783 13.0736H37.0726C35.9058 14.1432 35.2251 15.6451 35.1818 17.2333Z" fill="#EFCDB1"/>
<path d="M51.6054 9.07584C51.6162 8.68687 51.2164 8.38435 50.7194 8.37354H48.9583L36.6735 8.2763C36.1765 8.2763 35.7659 8.57883 35.7659 8.95699L35.7119 12.4901C35.7119 12.8682 36.1117 13.1816 36.6087 13.1816L48.9583 13.2788L50.6438 13.3004C51.1516 13.3004 51.5514 12.9979 51.5622 12.6197L51.6054 9.07584Z" fill="#D1D0DF"/>
<path d="M51.6051 9.07584C51.6159 8.68687 51.2162 8.38435 50.7191 8.37354H48.958V13.268L50.6435 13.2896C51.1513 13.2896 51.5511 12.9871 51.5619 12.6089L51.6051 9.07584Z" fill="#B5B5C6"/>
<path d="M53.1282 0.118786H37.0078C42.4425 0.118786 47.2073 3.10084 49.8328 8.40588L52.9986 8.42749L53.1282 0.118786Z" fill="#EFB703"/>
<path d="M49.8331 8.40596C47.2076 3.10093 42.4428 0.118866 37.0081 0.118866H34.5123L34.3826 8.28711L49.8331 8.40596ZM29.8771 24.991L33.4534 16.8659L54.3818 26.0714C55.4083 26.5144 55.8729 27.7137 55.4191 28.7293V28.7401L46.3649 49.3444L37.9265 45.6276C37.7536 45.552 37.5592 45.6276 37.4835 45.8005C37.4619 45.8545 37.4511 45.9194 37.4619 45.9842C37.57 46.8702 37.678 48.5449 37.0838 49.6037C35.9817 51.5702 33.4966 52.2724 31.5302 51.1704C29.5638 50.0683 28.8615 47.5833 29.9636 45.6168C30.493 44.6768 31.3681 43.9854 32.4054 43.6828C32.535 43.6504 32.6215 43.5208 32.5891 43.3911C32.5675 43.3047 32.5134 43.2398 32.4378 43.2074L23.5889 39.3286L27.4677 30.5013C27.5109 30.3716 27.6514 30.3068 27.781 30.35C27.8567 30.3824 27.9215 30.4473 27.9431 30.5229C28.5698 32.6946 30.8279 33.9479 32.9996 33.3213C35.1713 32.6946 36.4247 30.4364 35.798 28.2647C35.5063 27.2275 34.804 26.3523 33.864 25.8229C32.7943 25.2287 31.1196 25.3367 30.2337 25.4555C30.0392 25.4664 29.8771 25.3259 29.8663 25.1314C29.8447 25.099 29.8555 25.045 29.8771 24.991Z" fill="#FFC700"/>
<path d="M30.3203 23.9861L33.4536 16.8659L54.3821 26.0714C55.4085 26.5144 55.8731 27.7137 55.4193 28.7293V28.7401L55.0627 29.5505C54.166 29.0859 53.2476 28.6429 52.3076 28.2323C45.3927 25.1854 37.8727 23.7376 30.3203 23.9861Z" fill="#EFB703"/>
<path d="M45.1981 19.5778C45.4142 20.0532 45.6735 20.5611 45.9761 21.1013C46.8512 22.6247 48.3747 23.2514 48.3747 23.2514C48.3747 23.2514 47.7156 27.2275 47.5103 28.5564C47.3699 29.4856 47.5427 30.4364 48.0073 31.2576C48.6448 32.2516 50.3087 32.6622 50.9137 31.5277L53.8202 22.4302L51.9834 15.5369M21.8711 37.589L22.0764 27.4436C18.4893 27.4111 13.8109 26.644 9.78081 26.3091C9.78081 25.9633 9.73759 25.6176 9.65116 25.2826C9.57553 24.9693 9.44587 24.6776 9.2838 24.3967C8.67875 23.4675 7.04726 23.1001 6.4422 24.1914L3.42773 32.8674L5.10244 39.361C5.16727 39.6311 5.28612 39.8904 5.43738 40.1173C5.43738 40.1173 5.9668 40.9817 6.47462 41.7488H19.9803C21.1472 40.6791 21.8387 39.1773 21.8711 37.589Z" fill="#EFCDB1"/>
<path d="M21.3418 42.3431L21.2878 45.887C21.2878 46.2651 20.8772 46.5677 20.3802 46.5568L6.33428 46.4488C5.83727 46.4488 5.4375 46.1355 5.4375 45.7573L5.49152 42.2242C5.49152 41.8353 5.9021 41.5327 6.39911 41.5435L20.445 41.6516C20.942 41.6516 21.3418 41.9649 21.3418 42.3431Z" fill="#D1D0DF"/>
<path d="M8.09536 41.5759H6.11812C5.75077 41.5759 5.44824 41.8785 5.44824 42.2458V45.606C5.44824 46.049 5.8156 46.4164 6.25858 46.4164H8.09536V41.5759Z" fill="#B5B5C6"/>
<path d="M3.9248 56H20.0452C14.6105 56 9.8457 51.7322 7.22019 46.4164L4.04365 46.3948L3.9248 56Z" fill="#035D7C"/>
<path d="M7.21973 46.4164C9.84523 51.7322 14.61 56 20.0447 56H22.5406L22.6594 46.546L7.21973 46.4164Z" fill="#02648E"/>
<path d="M35.6901 30.6525C36.2627 28.8157 35.474 26.8277 33.8101 25.8769C32.7404 25.2826 31.0657 25.3691 30.1798 25.4771C29.9961 25.4987 29.834 25.3691 29.8124 25.1854C29.8016 25.1314 29.8124 25.0666 29.834 25.0125L33.0322 17.8599C33.3563 17.136 33.0322 16.2825 32.3083 15.9583L24.8315 12.6089C24.7127 12.5441 24.5614 12.5981 24.4966 12.7169C24.4641 12.7926 24.4641 12.879 24.4966 12.9438C25.4906 14.9751 24.6478 17.4169 22.6166 18.411C20.5853 19.405 18.1435 18.5622 17.1495 16.531C16.6741 15.5694 16.6092 14.4565 16.9442 13.4409C17.3331 12.2848 18.6513 11.2475 19.386 10.7289C19.5373 10.6101 19.5697 10.394 19.4508 10.2427C19.4184 10.1995 19.3752 10.1671 19.332 10.1455L10.9152 6.38548L1.5801 27.2491C1.12631 28.2755 1.5801 29.4748 2.60653 29.9394L22.3465 38.7667C22.9515 39.0476 23.6754 38.7775 23.9455 38.1617C23.9455 38.1617 23.9455 38.1509 23.9563 38.1509C24.8639 36.1088 26.6359 32.1651 27.3814 30.5012C27.4246 30.3716 27.5759 30.3068 27.7055 30.35C27.7811 30.3824 27.846 30.4472 27.8568 30.5337C28.4618 32.7054 30.72 33.9803 32.8917 33.3753C34.2207 32.9971 35.2795 31.9707 35.6901 30.6525Z" fill="#D22732"/>
<path d="M33.8099 25.8769C32.7402 25.2826 31.0655 25.3691 30.1795 25.4771C29.9958 25.4987 29.8338 25.3691 29.8122 25.1854C29.8014 25.1314 29.8122 25.0666 29.8338 25.0125L33.0319 17.8599C33.3561 17.136 33.0319 16.2825 32.308 15.9583L24.8205 12.5981C24.7016 12.5441 24.5504 12.5873 24.4855 12.7169C24.4531 12.7926 24.4531 12.879 24.4963 12.9438C25.4903 14.9751 24.6476 17.4169 22.6163 18.411C20.5851 19.405 18.1433 18.5622 17.1492 16.531C16.6738 15.5694 16.609 14.4565 16.9439 13.4409C17.3329 12.2848 18.6511 11.2367 19.3858 10.7289C19.537 10.6101 19.5695 10.394 19.4506 10.2427C19.4182 10.1995 19.375 10.1671 19.3318 10.1455L10.915 6.38548L8.72168 11.2908C15.8419 16.5202 20.5851 25.8769 20.5851 36.541C20.5851 37.0272 20.5743 37.5026 20.5527 37.978L22.3354 38.7667C22.9405 39.0476 23.6644 38.7775 23.9345 38.1617C23.9345 38.1617 23.9345 38.1509 23.9453 38.1509C24.8529 36.1088 26.6248 32.1651 27.3703 30.5012C27.4136 30.3716 27.5648 30.3068 27.6945 30.35C27.7701 30.3824 27.8349 30.4472 27.8457 30.5337C28.4508 32.7054 30.7089 33.9803 32.8807 33.3753C34.2204 33.0079 35.2685 31.9815 35.679 30.6525C36.2517 28.8157 35.4738 26.8385 33.8099 25.8769Z" fill="#C11F2F"/>
<path d="M11.8554 35.2444C11.6393 34.7798 11.38 34.2612 11.0667 33.721C10.2023 32.1976 8.67889 31.5709 8.67889 31.5709C8.67889 31.5709 9.33797 27.5948 9.54326 26.2659C9.68372 25.3367 9.51084 24.3859 9.04625 23.5647C8.40878 22.5815 6.73407 22.1601 6.13982 23.2946L3.2334 32.4028L5.07017 39.2853" fill="#EFCDB1"/>
<path d="M14.1376 4.61568L15.2902 5.2108L16.7879 2.30999L15.6353 1.71488L14.1376 4.61568ZM4.78516 2.25813L6.28288 5.15894L7.43551 4.56382L5.93779 1.66302L4.78516 2.25813ZM10.0828 0.0978737L10.1612 3.36084L11.4577 3.32973L11.3794 0.0667534L10.0828 0.0978737ZM41.5435 53.6001L42.6962 54.1952L44.1938 51.2945L43.0412 50.6994L41.5435 53.6001ZM50.9044 51.2611L52.4021 54.1618L53.5548 53.5667L52.0571 50.6659L50.9044 51.2611ZM46.7702 52.6212L46.8486 55.8842L48.1451 55.853L48.0668 52.5901L46.7702 52.6212Z" fill="#808285"/>
</svg>
