<svg width="57" height="56" viewBox="0 0 57 56" fill="none" xmlns="http://www.w3.org/2000/svg">
<g clip-path="url(#clip0_777_872)">
<mask id="mask0_777_872" style="mask-type:luminance" maskUnits="userSpaceOnUse" x="0" y="0" width="57" height="56">
<path d="M0.5 0.00019455H56.4998V56H0.5V0.00019455Z" fill="white"/>
</mask>
<g mask="url(#mask0_777_872)">
<path d="M13.6231 51.493L26.1443 55.8958C26.9276 55.9647 27.7136 55.9995 28.4999 56C29.2951 56 30.0817 55.9633 30.8594 55.8955L43.3803 51.4906C50.5652 46.684 55.2967 38.4966 55.2967 29.2032C55.2967 14.4036 43.2994 2.40644 28.4999 2.40644C13.7004 2.40644 1.70312 14.4036 1.70312 29.2032C1.70312 38.4981 6.4362 46.6869 13.6231 51.493Z" fill="#024788"/>
<path d="M20.2626 30.6553C21.2629 30.9461 22.8852 31.5845 24.7433 32.9588C27.1704 34.7537 28.3925 38.0103 28.4926 40.9185L28.5006 40.9186L28.5069 40.9185C28.607 38.0104 29.8291 34.7538 32.2561 32.9588C33.7983 31.8183 35.1765 31.1857 36.1731 30.8368C36.0248 30.2369 36.0403 29.4163 36.5713 29.0756C36.8981 28.8658 37.3482 28.8812 37.79 28.804C38.7722 28.6321 39.6195 27.9588 39.9487 27.0886C40.3031 26.1514 39.9968 25.0142 39.2365 24.4434C39.1373 24.3689 39.0319 24.303 38.9301 24.2393C38.276 23.8301 38.2022 23.6507 38.4936 22.8337C38.6143 22.4945 38.7395 22.1439 38.6663 21.7716C38.5372 21.1157 37.9453 20.8524 37.3729 20.5976C36.7756 20.3318 36.5826 20.2317 36.276 19.8576C35.9575 19.4692 35.6722 19.2353 35.0079 19.2353C34.1331 19.2353 33.1749 19.676 32.7519 19.1299C32.5445 18.8622 32.5795 18.4733 32.6167 18.0616C32.7356 16.7413 32.3923 16.0055 32.3048 14.8639C32.1901 13.3701 32.7089 11.8564 33.6867 10.7307C32.0646 10.1565 30.3194 9.84294 28.5006 9.84294C27.1741 9.8421 25.853 10.0109 24.5694 10.3452C24.4183 10.6182 24.2866 10.9039 24.1927 11.2044C23.9018 12.1363 24.0465 13.0965 24.57 13.7103C25.1701 14.414 26.2395 14.7061 26.401 15.474C26.4923 15.9085 26.2537 16.3355 26.0014 16.7877C25.7461 17.2448 25.4822 17.7171 25.5197 18.2577C25.5682 18.9556 26.0777 19.4244 26.5703 19.8776C27.7511 20.9643 27.4069 21.1151 27.626 21.6997C27.8808 22.379 28.6803 22.6148 28.9384 23.135C29.4908 24.2481 27.394 26.6187 23.911 26.9899C23.3725 27.0456 22.8152 27.0903 22.4019 27.4482C21.9764 27.8165 22.1347 28.0081 21.0686 28.3222C20.8046 28.4 20.5317 28.4803 20.2815 28.6215C19.6732 28.9648 19.3765 29.6544 19.3901 30.3363C19.6731 30.4629 19.9647 30.5695 20.2626 30.6553Z" fill="#2EBCF6"/>
<path d="M32.2561 32.9588C32.4242 32.8348 32.5945 32.7137 32.7669 32.5957C27.0381 32.0916 26.3388 26.5945 26.3388 26.5945C26.3388 26.5945 26.3168 26.5152 26.2646 26.3781C25.5819 26.6746 24.7909 26.8962 23.911 26.99C23.3724 27.0456 22.8152 27.0904 22.4018 27.4482C21.9764 27.8165 22.1347 28.0081 21.0686 28.3222C20.8046 28.4 20.5317 28.4805 20.2815 28.6216C19.6732 28.9648 19.3765 29.6544 19.3901 30.3363C19.6731 30.463 19.9647 30.5696 20.2627 30.6553C21.2629 30.9462 22.8851 31.5847 24.7433 32.9588C27.1704 34.7537 28.3925 38.0104 28.4926 40.9184L28.5006 40.9186L28.5069 40.9184C28.607 38.0105 29.8291 34.7538 32.2561 32.9588Z" fill="#2A9DDD"/>
<path d="M14.5269 26.8924C17.202 28.81 18.1347 29.8338 19.6078 30.4294C19.5642 29.7909 19.8233 29.1256 20.3867 28.8077C20.9358 28.498 21.6481 28.4947 22.1128 28.0688C22.2675 27.9273 22.3834 27.7469 22.5419 27.6098C22.9137 27.288 23.4449 27.2546 23.9338 27.2025C25.7738 27.0063 27.6424 26.2554 28.7518 24.7743C29.1257 24.2751 29.4073 23.5988 29.1301 23.04C28.8416 22.4589 28.0542 22.2325 27.8264 21.6247C27.7549 21.4346 27.7483 21.2268 27.6978 21.0299C27.4098 19.9044 25.8135 19.4021 25.733 18.2429C25.6635 17.2431 26.8164 16.4109 26.6103 15.43C26.4252 14.5497 25.3164 14.2562 24.7328 13.5717C24.207 12.9553 24.1554 12.0416 24.3968 11.2682C24.5062 10.9177 24.6673 10.5892 24.8554 10.2741C18.0331 11.9145 12.9629 18.055 12.9629 25.3808C12.9629 25.5209 12.9651 25.6605 12.9687 25.7997C13.4751 26.0971 14.0015 26.4727 14.5269 26.8924Z" fill="#85D249"/>
<path d="M20.3867 28.8077C20.9358 28.498 21.6481 28.4948 22.1128 28.0689C22.2674 27.9272 22.3834 27.747 22.5418 27.6098C22.9137 27.2879 23.4449 27.2546 23.9338 27.2025C24.7532 27.1151 25.5777 26.917 26.3389 26.5942C26.3358 26.5832 25.7594 24.4997 23.3595 23.0989C20.9533 21.6943 24.8907 19.1805 21.4217 16.778C19.4237 15.394 19.6213 13.5735 20.148 12.2782C15.8277 15.0376 12.9629 19.8741 12.9629 25.3808C12.9629 25.5209 12.9651 25.6606 12.9687 25.7998C13.4751 26.0972 14.0015 26.4727 14.5269 26.8923C17.202 28.81 18.1347 29.8338 19.6078 30.4294C19.5641 29.7909 19.8233 29.1256 20.3867 28.8077Z" fill="#60B550"/>
<path d="M32.4249 17.7921C32.3925 18.296 32.2742 18.8614 32.5835 19.2607C33.2775 20.1567 34.9034 18.9911 35.8066 19.6757C36.004 19.8251 36.1339 20.0457 36.3105 20.2189C36.9686 20.8645 38.2791 20.9082 38.4571 21.8127C38.5906 22.4912 37.9069 23.1912 38.1829 23.8252C38.3471 24.2025 38.7796 24.367 39.1086 24.6142C39.8187 25.147 40.0634 26.1825 39.7494 27.0129C39.4354 27.8432 38.6282 28.4402 37.7537 28.5934C37.3126 28.6706 36.8335 28.6538 36.4564 28.8956C35.8407 29.2908 35.7906 30.179 35.9666 30.8893C35.9682 30.8961 35.9701 30.9028 35.9718 30.9095C36.255 30.8047 36.5127 30.7205 36.7374 30.6551C38.6392 30.1023 39.4245 29.0778 42.4733 26.8922C42.999 26.4722 43.5259 26.0964 44.0327 25.7989C44.0363 25.6599 44.0389 25.5205 44.0389 25.3807C44.0389 18.5377 39.6154 12.7282 33.472 10.6551C32.4955 11.8167 31.9759 13.3644 32.0923 14.8803C32.1673 15.8562 32.4877 16.8152 32.4249 17.7921Z" fill="#85D249"/>
<path d="M30.1174 7.1905C29.9894 7.11418 29.8878 7.00059 29.8262 6.86493C29.7646 6.72926 29.7459 6.57802 29.7726 6.43144C30.0332 5.01427 31.156 1.00744 35.5245 0.906813C38.3418 0.841953 39.6817 0.40861 40.3153 0.0403461C40.5303 -0.0847788 40.793 0.10072 40.7497 0.345611C40.513 1.68195 39.8858 4.31821 38.4236 6.10758C36.4892 8.47478 32.9443 8.88241 30.1174 7.1905Z" fill="#85D249"/>
<path d="M50.6195 15.9629C49.4597 15.9367 48.6189 16.8943 48.4673 18.0444C48.0893 20.9117 47.2192 26.1399 47.2192 26.1399L47.2189 26.1402C47.1219 25.8317 46.9306 25.5354 46.6145 25.2639C45.6466 24.4326 43.9258 25.3297 42.2182 26.6932C39.2251 28.8391 38.4541 29.8448 36.587 30.3877C35.6048 30.6732 34.0122 31.3001 32.1878 32.6493C29.1876 34.8681 28.0608 39.3626 28.65 42.5837C28.8244 43.5379 29.6669 46.1986 29.7059 47.168L29.7066 47.186L29.7332 47.8316C29.7602 47.8243 29.7878 47.8179 29.8161 47.8134L41.0244 46.0421L40.954 44.3548C40.9384 43.9816 41.1409 43.6325 41.4745 43.4642C43.3719 42.5067 46.6349 39.4413 49.5685 36.0318C51.8974 33.3251 52.7905 23.6593 52.7596 18.3785C52.752 17.0652 51.9281 15.9924 50.6195 15.9629Z" fill="#FBBC8D"/>
<path d="M40.9537 44.3549C40.9457 44.1721 40.9905 43.9909 41.0828 43.833C41.1751 43.675 41.3109 43.547 41.4741 43.4643C30.6564 45.7751 28.9396 37.7959 28.9396 37.7959L28.9063 37.8074C28.4672 39.4424 28.3856 41.1408 28.6496 42.5838C28.8242 43.538 29.6665 46.1987 29.7055 47.1681L29.7062 47.1861L29.7328 47.8317C29.7598 47.8244 29.7874 47.818 29.8157 47.8135L41.0241 46.0422L40.9537 44.3549Z" fill="#FCA870"/>
<path d="M6.38005 15.9629C7.53986 15.9367 8.38062 16.8943 8.53233 18.0444C8.91033 20.9117 9.78051 26.1399 9.78051 26.1399L9.78073 26.1402C9.87775 25.8317 10.069 25.5354 10.385 25.2639C11.3531 24.4326 13.0739 25.3297 14.7813 26.6932C17.7746 28.8391 18.5456 29.8448 20.4127 30.3877C21.3948 30.6732 22.9874 31.3001 24.8119 32.6493C27.812 34.8681 28.9389 39.3626 28.3497 42.5837C28.1751 43.5379 27.3327 46.1986 27.2938 47.168L27.293 47.186L27.2665 47.8316C27.2391 47.8241 27.2114 47.818 27.1834 47.8134L15.9753 46.0421L16.0456 44.3548C16.0536 44.172 16.0088 43.9908 15.9165 43.8329C15.8242 43.675 15.6883 43.5469 15.5252 43.4642C13.6277 42.5067 10.3647 39.4413 7.43114 36.0318C5.10223 33.3251 4.20918 23.6593 4.24003 18.3785C4.24757 17.0652 5.0716 15.9924 6.38005 15.9629Z" fill="#FBBC8D"/>
<path d="M16.0458 44.3549C16.0538 44.1721 16.0089 43.9909 15.9167 43.833C15.8244 43.675 15.6885 43.547 15.5254 43.4643C26.3431 45.7751 28.0597 37.7959 28.0597 37.7959L28.0931 37.8074C28.5321 39.4424 28.6138 41.1408 28.3498 42.5838C28.1752 43.538 27.3328 46.1987 27.294 47.1681L27.2931 47.1861L27.2665 47.8317C27.2393 47.8242 27.2116 47.8181 27.1836 47.8135L15.9752 46.0422L16.0458 44.3549Z" fill="#FCA870"/>
<path d="M47.3463 26.1399H47.2196L47.2194 26.1402C47.1224 25.8318 46.9311 25.5354 46.6149 25.2639C46.2553 24.9551 45.7917 24.8853 45.2636 24.9888C45.2636 24.9888 42.6873 26.5859 44.359 28.2577C45.3222 29.2208 46.4052 28.4287 47.1504 27.584C47.3656 26.9211 47.3728 26.4173 47.346 26.1402L47.3463 26.1399Z" fill="#FCD7C3"/>
<path d="M48.9868 25.3433C48.9142 25.0912 48.5754 24.056 47.7119 23.0988C47.5509 24.113 47.3865 25.1267 47.2188 26.1398L47.2185 26.1401C47.2918 26.8964 47.118 29.3346 43.1244 32.1202C38.5403 35.3174 38.5298 35.3786 38.4473 35.8532C38.281 36.8125 39.4767 37.375 40.1164 36.6657C40.2502 36.5519 40.9533 35.9894 44.2294 33.7042C50.1034 29.6074 49.1143 25.7563 48.9868 25.3433Z" fill="#FCA870"/>
<path d="M9.65435 26.1399H9.7809L9.78122 26.1402C9.87824 25.8318 10.0695 25.5354 10.3856 25.2639C10.7453 24.9551 11.2089 24.8853 11.7371 24.9888C11.7371 24.9888 14.3133 26.5859 12.6416 28.2577C11.6784 29.2208 10.5954 28.4287 9.85013 27.584C9.63499 26.9211 9.62777 26.4173 9.65457 26.1402L9.65435 26.1399Z" fill="#FCD7C3"/>
<path d="M8.01227 25.3433C8.0849 25.0912 8.42363 24.056 9.28704 23.0988C9.4481 24.113 9.61253 25.1267 9.78032 26.1398L9.78054 26.1401C9.70725 26.8964 9.88105 29.3346 13.8746 32.1202C18.4586 35.3174 18.4691 35.3786 18.5517 35.8532C18.7181 36.8125 17.5224 37.375 16.8827 36.6657C16.7489 36.5519 16.0457 35.9894 12.7695 33.7042C6.89567 29.6074 7.88474 25.7563 8.01227 25.3433Z" fill="#FCA870"/>
<path d="M42.8565 46.2615C42.8411 46.1638 42.8066 46.0701 42.7549 45.9857C42.7033 45.9013 42.6355 45.828 42.5555 45.7698C42.4755 45.7116 42.3848 45.6698 42.2886 45.6467C42.1924 45.6235 42.0926 45.6196 41.9949 45.635L29.8057 47.5613C29.6084 47.5925 29.4315 47.7008 29.314 47.8624C29.1965 48.024 29.148 48.2256 29.1791 48.423L30.454 55.9287C35.3563 55.5753 39.8924 53.9028 43.7111 51.2649L42.8565 46.2615Z" fill="#2EBCF6"/>
<path d="M35.443 47.3292C35.4225 47.199 35.4365 47.0657 35.4837 46.9427C35.5309 46.8196 35.6096 46.7111 35.712 46.628L29.8057 47.5613C29.6084 47.5925 29.4315 47.7008 29.314 47.8624C29.1965 48.024 29.148 48.2256 29.1791 48.423L30.454 55.9287C32.5762 55.7764 34.6726 55.3709 36.6985 54.7208L35.443 47.3292Z" fill="#2A9DDD"/>
<path d="M27.1978 47.5613L15.0086 45.6351C14.9109 45.6196 14.8111 45.6235 14.7149 45.6466C14.6187 45.6697 14.528 45.7116 14.448 45.7697C14.368 45.8279 14.3002 45.9013 14.2486 45.9857C14.1969 46.07 14.1624 46.1637 14.147 46.2615L13.292 51.2673C17.1109 53.9046 21.6472 55.5763 26.5494 55.929L27.8244 48.4229C27.8555 48.2256 27.807 48.024 27.6895 47.8624C27.572 47.7008 27.3951 47.5925 27.1978 47.5613Z" fill="#2EBCF6"/>
<path d="M27.1985 47.5614L21.7578 46.7016C21.8531 46.7853 21.9257 46.8918 21.9689 47.0111C22.012 47.1304 22.0242 47.2587 22.0044 47.384L20.7354 54.8559C22.6279 55.4278 24.5781 55.7877 26.5501 55.929L27.825 48.423C27.8562 48.2257 27.8077 48.0241 27.6902 47.8625C27.5727 47.7009 27.3959 47.5926 27.1985 47.5614Z" fill="#2A9DDD"/>
<path d="M35.1168 4.50366C35.1168 4.50366 35.9107 3.31203 34.6803 2.95656C33.4721 2.60754 33.8167 1.22745 33.8297 1.17736C30.8517 2.11284 29.9956 5.21886 29.7726 6.43139C29.7459 6.57797 29.7646 6.72922 29.8262 6.86489C29.8878 7.00055 29.9894 7.11415 30.1174 7.19045C32.2755 8.48217 34.8517 8.54867 36.8108 7.45503C34.7102 6.58944 35.1168 4.50366 35.1168 4.50366Z" fill="#60B550"/>
<path d="M29.1157 11.9186C28.8773 11.9186 28.6487 11.8238 28.4801 11.6553C28.3115 11.4867 28.2168 11.258 28.2168 11.0196V9.38776C28.2168 7.81659 28.8523 6.29716 29.9601 5.21894C32.2499 2.99043 34.7802 2.86739 36.2921 2.28814C36.5137 2.20769 36.758 2.21745 36.9724 2.31533C37.1868 2.41322 37.3542 2.59139 37.4386 2.81148C37.5229 3.03158 37.5174 3.27599 37.4233 3.4921C37.3293 3.70821 37.1541 3.87872 36.9355 3.96693C35.2537 4.61159 33.1186 4.65369 31.2141 6.50727C30.4519 7.24916 30.0147 8.29893 30.0147 9.38776V11.0196C30.0147 11.258 29.9199 11.4867 29.7514 11.6553C29.5828 11.8238 29.3542 11.9186 29.1157 11.9186Z" fill="#A3EA6E"/>
<path d="M28.1156 7.1905C28.2435 7.11416 28.3451 7.00056 28.4067 6.86491C28.4683 6.72925 28.487 6.57801 28.4603 6.43144C28.1997 5.01427 27.0769 1.00744 22.7083 0.906813C19.891 0.841953 18.5512 0.40861 17.9176 0.0403461C17.7025 -0.0847788 17.4399 0.10072 17.4832 0.345611C17.7198 1.68195 18.347 4.31821 19.8092 6.10758C21.7436 8.47478 25.2887 8.88241 28.1156 7.1905Z" fill="#85D249"/>
<path d="M23.1158 4.50372C23.1158 4.50372 22.3218 3.31209 23.5523 2.95662C24.7604 2.6076 24.4158 1.22751 24.4029 1.17742C27.3809 2.1129 28.2369 5.21892 28.46 6.43145C28.4868 6.57803 28.4681 6.72929 28.4065 6.86495C28.3449 7.00061 28.2433 7.11421 28.1153 7.19051C25.9571 8.48223 23.3809 8.54873 21.4219 7.45509C23.5224 6.5895 23.1158 4.50372 23.1158 4.50372Z" fill="#60B550"/>
<path d="M29.1157 11.9186C29.3541 11.9186 29.5828 11.8238 29.7513 11.6553C29.9199 11.4867 30.0146 11.258 30.0147 11.0196V9.38776C30.0147 7.81659 29.3792 6.29716 28.2713 5.21894C25.9817 2.99043 23.4514 2.86739 21.9394 2.28814C21.8292 2.24586 21.7117 2.22572 21.5937 2.22886C21.4756 2.232 21.3594 2.25837 21.2515 2.30645C21.1437 2.35454 21.0464 2.4234 20.9652 2.5091C20.884 2.59479 20.8204 2.69566 20.7782 2.80592C20.6929 3.02856 20.6996 3.27594 20.7967 3.49366C20.8939 3.71138 21.0735 3.88162 21.2961 3.96693C22.9778 4.61159 25.1129 4.65369 27.0175 6.50727C27.7797 7.24916 28.2168 8.29893 28.2168 9.38776V11.0196C28.2168 11.258 28.3115 11.4867 28.4801 11.6553C28.6487 11.8238 28.8773 11.9186 29.1157 11.9186Z" fill="#A3EA6E"/>
<path d="M35.4692 11.4898C34.7248 12.9502 33.5833 15.8992 35.9381 16.7924C39.0151 17.9596 38.9665 23.5523 43.5975 21.689C42.5084 17.2206 39.4873 13.5093 35.4692 11.4898Z" fill="#A3EA6E"/>
</g>
</g>
<defs>
<clipPath id="clip0_777_872">
<rect width="56" height="56" fill="white" transform="translate(0.5)"/>
</clipPath>
</defs>
</svg>
