<svg width="57" height="56" viewBox="0 0 57 56" fill="none" xmlns="http://www.w3.org/2000/svg">
<path fill-rule="evenodd" clip-rule="evenodd" d="M37.9234 48.9646L48.6354 51.9308C48.4897 51.0384 48.4033 50.2665 48.3838 49.5828C48.338 48.7675 48.4186 48.0143 48.6623 47.3022C48.9121 46.5421 49.3342 45.8873 49.9542 45.2309L49.9562 45.2289L54.0715 40.8755C55.0087 39.8843 55.541 38.7475 55.5524 37.3832L55.6932 20.5225C55.7058 19.018 54.4852 17.7771 52.9805 17.7643C51.4761 17.7515 50.2347 18.9724 50.2221 20.4769L50.1239 32.2187C50.1057 32.1991 50.0873 32.1797 50.0686 32.1606C48.9079 30.971 46.9789 30.9472 45.7892 32.1079L38.2272 39.4864C37.3866 40.5616 37.0459 41.7864 37.2116 43.1412L37.9233 48.9647L37.9234 48.9646Z" fill="#FFD6BD"/>
<path fill-rule="evenodd" clip-rule="evenodd" d="M49.0438 35.4508C50.0667 34.4519 50.2283 32.8901 49.5173 31.715C49.7181 31.8411 49.9033 31.9906 50.069 32.1604C51.2313 33.3518 51.2084 35.2782 50.0163 36.4397C48.5432 37.8752 47.0849 39.3228 45.618 40.7653C45.345 41.0338 44.9021 41.0301 44.6336 40.7571C44.365 40.4841 44.3688 40.0411 44.6418 39.7726C46.1055 38.333 47.5661 36.8937 49.0437 35.4508H49.0438Z" fill="#F9C6AA"/>
<path fill-rule="evenodd" clip-rule="evenodd" d="M47.0304 51.4862L48.6358 51.9308C48.4901 51.0384 48.4037 50.2664 48.3843 49.5828C48.3384 48.7675 48.419 48.0143 48.6627 47.3022C48.9125 46.5421 49.3346 45.8873 49.9547 45.231L49.9566 45.2289L54.072 40.8755C55.0091 39.8843 55.5414 38.7475 55.5528 37.3832L55.6937 20.5225C55.7063 19.018 54.4856 17.7771 52.9809 17.7643C52.9358 17.7638 52.8911 17.7647 52.8465 17.7665C53.5996 18.2606 54.0964 19.1153 54.0884 20.0779L53.9475 36.9386C53.9361 38.3029 53.4038 39.4397 52.4667 40.4309L48.3513 44.7843L48.3494 44.7863C47.7292 45.4428 47.3073 46.0975 47.0573 46.8576C46.8135 47.5697 46.733 48.3229 46.7789 49.1382C46.7983 49.8219 46.8847 50.5938 47.0304 51.4862Z" fill="#F9C6AA"/>
<path fill-rule="evenodd" clip-rule="evenodd" d="M36.3366 47.1778L49.4309 50.8037C49.7504 50.8922 49.9393 51.2257 49.8509 51.5451L49.1807 53.9652C49.0923 54.2846 48.7588 54.4734 48.4393 54.385L35.345 50.7591C35.0255 50.6706 34.8366 50.3371 34.9251 50.0176L35.5953 47.5975C35.6836 47.2781 36.0172 47.0892 36.3367 47.1777L36.3366 47.1778Z" fill="#72D561"/>
<path fill-rule="evenodd" clip-rule="evenodd" d="M36.3368 47.1778L36.4893 47.22L35.8617 49.4864C35.7733 49.8056 35.9621 50.1394 36.2816 50.2278L49.2234 53.8115L49.1808 53.9652C49.0924 54.2844 48.7588 54.4734 48.4394 54.385L35.3451 50.7591C35.0255 50.6706 34.8367 50.337 34.9251 50.0176L35.5952 47.5976C35.6837 47.2783 36.0172 47.0893 36.3368 47.1778Z" fill="#42C345"/>
<path fill-rule="evenodd" clip-rule="evenodd" d="M19.0767 48.9646L8.36471 51.9308C8.51039 51.0384 8.5968 50.2665 8.61627 49.5828C8.6621 48.7675 8.58149 48.0143 8.3378 47.3022C8.08788 46.5421 7.66591 45.8873 7.04575 45.2309L7.04378 45.2289L2.92844 40.8755C1.99132 39.8843 1.45899 38.7475 1.44761 37.3832L1.30674 20.5225C1.29416 19.018 2.51489 17.7771 4.01946 17.7643C5.52391 17.7515 6.76532 18.9724 6.77789 20.4769L6.87611 32.2187C6.89416 32.1991 6.91264 32.1798 6.93135 32.1606C8.09203 30.971 10.0211 30.9472 11.2108 32.1079L18.7727 39.4864C19.6134 40.5616 19.9541 41.7864 19.7884 43.1412L19.0767 48.9647V48.9646Z" fill="#FFD6BD"/>
<path fill-rule="evenodd" clip-rule="evenodd" d="M7.95621 35.4508C6.93334 34.4519 6.77168 32.8901 7.48273 31.715C7.28185 31.8411 7.09665 31.9906 6.93104 32.1604C5.76872 33.3518 5.79157 35.2782 6.98365 36.4397C8.45682 37.8752 9.91512 39.3228 11.3819 40.7653C11.6549 41.0338 12.0979 41.0301 12.3664 40.7571C12.6349 40.4841 12.6312 40.0411 12.3582 39.7726C10.8945 38.333 9.43376 36.8937 7.95621 35.4508Z" fill="#F9C6AA"/>
<path fill-rule="evenodd" clip-rule="evenodd" d="M9.97 51.4862L8.36471 51.9308C8.51039 51.0384 8.5968 50.2664 8.61627 49.5828C8.6621 48.7675 8.58149 48.0143 8.3378 47.3022C8.08788 46.5421 7.66591 45.8873 7.04575 45.231L7.04378 45.2289L2.92844 40.8755C1.99132 39.8843 1.45899 38.7475 1.44761 37.3832L1.30674 20.5225C1.29416 19.018 2.51489 17.7771 4.01956 17.7643C4.06463 17.7638 4.10936 17.7647 4.15388 17.7665C3.40083 18.2606 2.90405 19.1153 2.91203 20.0779L3.05291 36.9386C3.06428 38.3029 3.59661 39.4397 4.53374 40.4309L8.64919 44.7843L8.65116 44.7863C9.27121 45.4428 9.69328 46.0975 9.9431 46.8576C10.1869 47.5697 10.2674 48.3229 10.2216 49.1382C10.2021 49.8219 10.1157 50.5938 9.97 51.4862Z" fill="#F9C6AA"/>
<path fill-rule="evenodd" clip-rule="evenodd" d="M20.664 47.1778L7.56969 50.8037C7.25021 50.8922 7.06132 51.2257 7.14969 51.5451L7.81983 53.9652C7.90832 54.2846 8.2418 54.4734 8.56128 54.385L21.6556 50.7591C21.975 50.6706 22.1639 50.3371 22.0754 50.0176L21.4053 47.5975C21.3169 47.2781 20.9833 47.0892 20.6638 47.1777L20.664 47.1778Z" fill="#72D561"/>
<path fill-rule="evenodd" clip-rule="evenodd" d="M20.6639 47.1778L20.5114 47.22L21.139 49.4864C21.2274 49.8056 21.0386 50.1394 20.7191 50.2278L7.77734 53.8115L7.81989 53.9652C7.90827 54.2844 8.24186 54.4734 8.56134 54.385L21.6556 50.7591C21.9752 50.6706 22.164 50.337 22.0756 50.0176L21.4055 47.5976C21.317 47.2783 20.9835 47.0893 20.6639 47.1778Z" fill="#42C345"/>
<path fill-rule="evenodd" clip-rule="evenodd" d="M28.4999 23.0083L22.5829 33.2567C22.4491 33.4885 22.1064 33.458 22.0156 33.2063L20.4225 28.7895L15.801 29.6182C15.5376 29.6655 15.3399 29.384 15.4736 29.1522L22.2055 17.4923L29.5322 19.9751L33.9755 16.0743L41.526 29.1522C41.6598 29.3839 41.462 29.6655 41.1986 29.6182L36.5771 28.7895L34.9841 33.2063C34.8933 33.458 34.5505 33.4885 34.4167 33.2567L28.4998 23.0083H28.4999Z" fill="#FFDA2D"/>
<path fill-rule="evenodd" clip-rule="evenodd" d="M28.4999 23.0082L22.5829 33.2566C22.4491 33.4884 22.1064 33.4579 22.0156 33.2062L20.4225 28.7894L15.801 29.6182C15.5376 29.6654 15.3399 29.3839 15.4736 29.1521L16.583 27.2306L20.4225 26.542L22.0156 30.9588C22.1065 31.2104 22.4491 31.241 22.5829 31.0093L28.4999 20.7609L34.4168 31.0093C34.5506 31.2411 34.8933 31.2104 34.9842 30.9588L36.5772 26.542L40.4167 27.2306L41.5261 29.1521C41.6599 29.3838 41.4621 29.6654 41.1988 29.6182L36.5772 28.7894L34.9842 33.2062C34.8934 33.4579 34.5506 33.4884 34.4168 33.2566L28.4999 23.0082Z" fill="#FFC700"/>
<path fill-rule="evenodd" clip-rule="evenodd" d="M38.3249 20.6076C40.1285 19.9832 40.9548 17.4401 39.8627 15.8748C39.4032 15.2163 39.4031 14.3823 39.8627 13.7238C40.9549 12.1585 40.1286 9.6153 38.325 8.99088C37.5661 8.72816 37.0758 8.05354 37.0605 7.25061C37.0241 5.34224 34.8607 3.77052 33.0345 4.32538C32.2663 4.5589 31.473 4.30121 30.9887 3.66071C29.8375 2.13832 27.1635 2.13821 26.0122 3.6606C25.5279 4.3011 24.7347 4.5589 23.9665 4.32538C22.1402 3.77041 19.9769 5.34202 19.9404 7.2504C19.925 8.05321 19.4348 8.72805 18.6761 8.99066C16.8725 9.61508 16.0461 12.1582 17.1382 13.7235C17.5977 14.3821 17.5978 15.2161 17.1382 15.8746C16.046 17.4399 16.8723 19.9831 18.6759 20.6076C19.4347 20.8703 19.925 21.5451 19.9404 22.3479C19.9768 24.2561 22.1401 25.828 23.9663 25.273C24.7346 25.0395 25.5279 25.2972 26.0122 25.9377C27.1634 27.4602 29.8375 27.4602 30.9887 25.9377C31.473 25.2972 32.2662 25.0395 33.0344 25.273C34.8606 25.828 37.024 24.2562 37.0605 22.3479C37.0758 21.5449 37.566 20.8703 38.3249 20.6076Z" fill="#FC685B"/>
<path fill-rule="evenodd" clip-rule="evenodd" d="M38.3243 20.6077C40.1279 19.9832 40.9542 17.4402 39.8621 15.8748C39.4026 15.2162 39.4025 14.3823 39.8621 13.7237C40.8598 12.2937 40.2564 10.0479 38.7694 9.19428C39.2935 10.2122 39.3297 11.5048 38.6739 12.4448C38.2144 13.1033 38.2145 13.9374 38.6739 14.5959C39.766 16.1612 38.9396 18.7042 37.136 19.3287C36.3772 19.5915 35.887 20.2662 35.8716 21.069C35.835 22.9773 33.6717 24.5491 31.8456 23.9941C31.0773 23.7606 30.2841 24.0183 29.7998 24.6588C28.6485 26.1812 25.9745 26.1812 24.8234 24.6588C24.3391 24.0183 23.5458 23.7607 22.7775 23.9941C21.9299 24.2517 21.0097 24.0509 20.2632 23.5712C20.9387 24.8586 22.553 25.7024 23.9658 25.2731C24.734 25.0395 25.5273 25.2972 26.0116 25.9377C27.1628 27.4602 29.8369 27.4602 30.9881 25.9377C31.4724 25.2972 32.2656 25.0395 33.0338 25.2731C34.8601 25.828 37.0234 24.2563 37.0599 22.3479C37.0752 21.545 37.5654 20.8704 38.3243 20.6077ZM37.1225 7.70699C37.0836 7.55783 37.0626 7.40458 37.0598 7.25046C37.0402 6.22792 36.4099 5.30217 35.5481 4.74829C35.7458 5.12498 35.8632 5.53962 35.8716 5.97154C35.8869 6.76954 36.3714 7.44099 37.1225 7.70699ZM17.042 19.1253C17.3906 19.8024 17.9548 20.3582 18.6753 20.6077L18.6889 20.6125C18.5329 20.0168 18.0966 19.5398 17.487 19.3287C17.3326 19.2751 17.1836 19.2069 17.042 19.1253Z" fill="#F35244"/>
<path fill-rule="evenodd" clip-rule="evenodd" d="M28.4999 22.6593C32.8291 22.6593 36.36 19.1284 36.36 14.7991C36.36 10.4698 32.8291 6.93884 28.4999 6.93884C24.1707 6.93884 20.6396 10.4698 20.6396 14.7991C20.6396 19.1284 24.1706 22.6593 28.4999 22.6593Z" fill="#EFF4F7"/>
<path fill-rule="evenodd" clip-rule="evenodd" d="M28.5 6.93896C30.4672 6.93896 32.2656 7.66161 33.6441 8.85598C32.4952 8.19853 31.1646 7.82261 29.7461 7.82261C25.405 7.82261 21.8859 11.3417 21.8859 15.6828C21.8859 18.0567 22.9383 20.1848 24.6019 21.6261C22.2348 20.2717 20.6396 17.7218 20.6396 14.7992C20.6396 10.4581 24.1588 6.93896 28.4999 6.93896H28.5Z" fill="#E2E3E3"/>
<path fill-rule="evenodd" clip-rule="evenodd" d="M28.5004 10.6602L29.7189 13.5589L32.8524 13.8221L30.4721 15.8768L31.1901 18.9382L28.5004 17.3093L25.8107 18.9382L26.5288 15.8768L24.1484 13.8221L27.2819 13.5589L28.5005 10.6602H28.5004Z" fill="#FFDA2D"/>
<path fill-rule="evenodd" clip-rule="evenodd" d="M28.5005 10.6602L29.719 13.5589L32.8525 13.8221L31.8945 14.6491L29.5156 14.4492L28.297 11.5505L27.0785 14.4492L25.0704 14.6179L24.1484 13.8221L27.2819 13.5589L28.5005 10.6602ZM30.6116 16.4713L31.1902 18.9383L30.7097 18.6474L30.2687 16.7672L30.6116 16.4713ZM25.8171 18.9345L25.8108 18.9383L26.321 16.7633L26.3254 16.7671L25.8171 18.9345Z" fill="#FFC700"/>
<path fill-rule="evenodd" clip-rule="evenodd" d="M9.14782 8.02431H7.11388C6.66392 8.02453 6.38862 7.50599 6.67649 7.13367L10.7917 1.8082C11.0133 1.52153 11.4449 1.52153 11.6664 1.8082L15.7816 7.13367C16.0695 7.5062 15.794 8.02464 15.344 8.02431H13.3102V16.6828C13.3102 17.0817 12.9848 17.4069 12.5859 17.4069H9.87221C9.47343 17.4069 9.14793 17.0813 9.14793 16.6828V8.02431H9.14782Z" fill="#64B5F6"/>
<path fill-rule="evenodd" clip-rule="evenodd" d="M7.92709 8.02431H7.11388C6.66392 8.02453 6.38862 7.50599 6.67649 7.13367L10.7917 1.8082C11.0133 1.52153 11.4449 1.52153 11.6664 1.8082L12.3459 2.68747C12.2576 2.68358 12.1696 2.70105 12.0895 2.73839C12.0093 2.77572 11.9393 2.83183 11.8855 2.90195L7.9272 8.02442L7.92709 8.02431ZM10.2416 17.407H9.8721C9.47332 17.407 9.14782 17.0814 9.14782 16.6828V9.11806H10.2416V17.407Z" fill="#42A5F5"/>
<path fill-rule="evenodd" clip-rule="evenodd" d="M43.6908 8.02431H41.6569C41.2069 8.02453 40.9316 7.50599 41.2195 7.13367L45.3346 1.8082C45.5562 1.52153 45.9878 1.52153 46.2093 1.8082L50.3245 7.13367C50.6124 7.5062 50.3369 8.02464 49.8869 8.02431H47.8531V16.6828C47.8531 17.0817 47.5277 17.4069 47.1288 17.4069H44.4151C44.0163 17.4069 43.6908 17.0813 43.6908 16.6828V8.02431Z" fill="#64B5F6"/>
<path fill-rule="evenodd" clip-rule="evenodd" d="M42.4701 8.02431H41.6569C41.2069 8.02453 40.9316 7.50599 41.2195 7.13367L45.3346 1.8082C45.5562 1.52153 45.9878 1.52153 46.2093 1.8082L46.8887 2.68747C46.8004 2.68357 46.7124 2.70104 46.6323 2.73837C46.5521 2.77571 46.4822 2.83182 46.4283 2.90195L42.4701 8.02431ZM44.7844 17.407H44.415C44.0162 17.407 43.6907 17.0814 43.6907 16.6828V9.11806H44.7844V17.407Z" fill="#42A5F5"/>
</svg>
