<svg width="54" height="54" viewBox="0 0 54 54" fill="none" xmlns="http://www.w3.org/2000/svg">
<g clip-path="url(#clip0_784_407)">
<path d="M43.1938 3.97892C42.3396 2.51507 40.9132 1.79692 39.4605 1.85229C37.314 1.23552 35.3256 2.56306 34.5535 4.61359C33.6732 6.95177 34.4655 9.20959 36.4022 10.7018C38.2454 12.1225 40.7781 11.5015 42.3691 10.0527C44.0979 8.47809 44.3396 5.9434 43.1938 3.97892ZM50.0337 25.3335C49.3868 25.2506 48.7138 25.2997 48.0368 25.3829C48.5815 23.4287 48.2243 19.9347 48.193 19.0865C48.0618 15.4986 46.3171 12.461 42.5222 12.1078C38.8886 11.7693 34.0722 12.0654 31.6369 15.1908C29.5495 17.8692 29.957 22.1795 30.8341 25.2847C29.6341 25.2762 28.436 25.3017 27.2442 25.398C26.3991 25.4661 26.4057 26.6284 27.2442 26.7054C28.4602 26.817 29.6807 26.9101 30.9028 26.995C30.7024 28.8487 30.6257 30.6616 30.967 32.5045C31.0357 32.8768 31.416 33.0844 31.759 33.1074C36.3525 33.4169 40.9402 32.0039 45.4987 32.924C45.9199 33.0089 46.5193 32.8072 46.5863 32.3063C46.7385 31.1744 47.2775 28.6988 46.6258 27.4485C47.9224 27.4059 49.3553 27.3034 50.3958 26.671C51.0585 26.268 50.7056 25.4204 50.0337 25.3335ZM32.948 25.3378C32.9003 23.3489 32.9755 21.3986 33.8291 19.6102C33.8658 19.617 33.9027 19.6218 33.9396 19.6281C33.9319 19.9759 33.9291 20.3204 33.914 20.6489C33.8436 22.2147 33.9228 23.8157 34.0347 25.3875C33.6724 25.3704 33.3103 25.3508 32.948 25.3378ZM44.9033 25.5417C44.8939 25.5956 44.8746 25.6479 44.853 25.6981C44.2712 25.7172 43.6882 25.7217 43.1058 25.7206C43.0776 24.6844 43.0319 23.6485 43.0049 22.612C42.98 21.6755 43.1662 20.6694 43.2279 19.707C43.4522 19.6962 43.6794 19.682 43.9023 19.6732C44.1165 20.2197 44.3046 20.776 44.466 21.3404C44.7465 22.3184 44.901 23.3281 44.9561 24.3425C44.9777 24.7395 44.9711 25.1489 44.9033 25.5417ZM29.6261 11.8939C29.3572 10.0229 27.8227 8.29266 25.9525 8.38069C25.2971 1.53453 17.5766 -0.748277 11.6789 0.207271C5.95919 1.13414 -0.358784 6.22765 2.62571 12.678C5.00563 17.8217 12.0986 18.4351 17.0083 17.8422C19.8753 17.496 26.1331 15.9058 25.476 12.0782C25.7233 12.1367 25.9746 12.1736 26.1785 12.2211C27.04 12.421 27.909 12.5928 28.7813 12.7387C29.3345 12.8313 29.7039 12.4363 29.6261 11.8939ZM22.429 13.3964C22.5548 13.2964 22.682 13.201 22.8047 13.0926L22.8666 13.0656C22.7408 13.2901 22.5783 13.4919 22.3858 13.6628C22.4103 13.569 22.4247 13.4802 22.429 13.3964ZM9.65815 44.7287C10.3709 44.547 11.0354 44.1801 11.582 43.5815C12.8426 42.1997 13.0339 40.0115 12.3933 38.3139C11.9506 37.1403 11.2211 36.3906 10.3718 35.9922C10.3329 35.8065 10.2099 35.6472 9.98073 35.6077C7.50284 35.1821 5.08997 36.1177 3.7894 38.3199C2.48344 40.5314 3.57984 42.8699 5.64768 44.0586C5.99228 44.2564 6.35482 44.4212 6.73045 44.5507C3.95581 45.4736 2.48571 49.5812 2.81909 52.307C1.859 52.5117 1.89449 54.0775 2.94943 53.9966C6.25055 53.743 9.5616 53.7504 12.8471 53.3034C13.1867 53.2571 13.4928 52.8266 13.4622 52.4952C13.2046 49.6933 12.3979 45.9041 9.65815 44.7287ZM11.1013 51.8103C11.1069 51.7896 11.1138 51.7691 11.1177 51.7481C11.2243 51.7462 11.3293 51.7218 11.4258 51.6765C11.5223 51.6312 11.6082 51.566 11.6777 51.4852C11.6896 51.5772 11.7024 51.6712 11.7126 51.7592C11.509 51.7802 11.3049 51.7918 11.1013 51.8103ZM22.063 44.7668C23.7094 44.2775 25.0957 42.9324 25.696 41.351C26.5522 39.096 25.0631 35.911 22.5363 35.6708C22.0963 35.6308 21.6528 35.6606 21.2221 35.7591C18.8405 35.9204 16.3896 37.4666 16.1914 40.0339C16.019 42.2645 17.4187 44.1832 19.4391 44.775C16.8999 45.8657 15.2557 50.2919 16.3666 52.5691C16.3007 53.0172 16.6358 53.5294 17.1393 53.4962C18.4824 53.4076 19.7353 53.1736 21.1088 53.2185C22.5247 53.2645 23.9178 53.3261 25.3229 53.1109C25.6705 53.0575 25.9877 52.6259 25.9547 52.2811C25.6957 49.584 24.8135 45.7436 22.063 44.7668ZM35.638 44.71C37.2075 44.1097 38.2434 42.1231 38.3607 40.2418C38.4464 38.8668 38.0375 37.3283 36.9715 36.3986C35.6857 35.2775 33.6275 35.4183 32.3207 36.4153C31.6704 36.9114 31.2294 37.5986 30.9991 38.3525C30.8963 38.5366 30.8003 38.726 30.7177 38.9236C29.8082 41.0948 30.9216 43.1255 32.7719 44.2883C32.8423 44.3326 32.9119 44.3715 32.9812 44.4107C29.6474 45.017 28.8694 49.9279 29.4805 52.6497C29.5563 52.9871 29.8766 53.1018 30.1586 53.043C30.1813 53.0893 30.2085 53.133 30.2435 53.1705C30.7211 53.812 32.2565 53.4695 32.8276 53.4298C34.5459 53.3108 36.271 53.1699 37.9935 53.1452C38.4331 53.139 38.8999 52.7553 38.8582 52.2806C38.6196 49.5644 38.1312 45.8882 35.638 44.71ZM36.5362 38.8773C36.5903 39.0778 36.617 39.2847 36.6157 39.4924C36.5044 38.9895 36.3059 38.5164 36.0427 38.1612C36.2676 38.2977 36.4413 38.5255 36.5362 38.8773ZM48.9853 45.3259C48.918 45.2816 48.8504 45.2464 48.7828 45.2072C50.9296 44.5067 52.0888 41.644 51.7148 39.326C51.4697 37.8088 50.6076 36.4968 49.1057 36.0081C47.1239 35.3635 44.7761 36.6408 43.8344 38.3659C43.574 38.8441 43.4136 39.3702 43.363 39.9124C42.5401 42.1409 43.925 43.9901 45.8773 44.896C43.1086 45.8314 41.1186 49.9833 42.7445 52.5651C42.767 52.9697 43.0438 53.3545 43.5837 53.3687C46.0343 53.4326 49.535 54.5341 51.3885 52.351C53.3737 50.0128 51.0199 46.6662 48.9853 45.3259Z" fill="#3C0E7B"/>
</g>
<defs>
<clipPath id="clip0_784_407">
<rect width="54" height="54" fill="white"/>
</clipPath>
</defs>
</svg>
