<svg width="46" height="46" viewBox="0 0 46 46" fill="none" xmlns="http://www.w3.org/2000/svg">
<g clip-path="url(#clip0_784_436)">
<path d="M11.9482 12.0398V6.46839C11.9482 3.44182 14.4017 0.988281 17.4284 0.988281H30.0844C33.1109 0.988281 35.5645 3.44182 35.5645 6.46839V20.1687M43.3279 35.4215C43.3279 35.0453 43.292 34.6783 43.2403 34.3164L45.0115 32.6039L42.7281 28.649L40.3622 29.3258C39.7793 28.8659 39.1333 28.4922 38.444 28.2161L37.8479 25.8315H33.2811L32.685 28.2161C31.9957 28.4922 31.3497 28.8659 30.7667 29.3258L28.4009 28.649L26.1175 32.6039L27.8886 34.3164C27.8368 34.6783 27.801 35.0454 27.801 35.4216C27.801 35.7978 27.8368 36.1648 27.8886 36.5267L26.1175 38.2392L28.4009 42.1941L30.7667 41.5173C31.3497 41.9772 31.9957 42.351 32.685 42.6271L33.2811 45.0117H37.8479L38.444 42.6271C39.1333 42.351 39.7793 41.9773 40.3622 41.5173L42.7281 42.1941L45.0115 38.2391L43.2404 36.5266C43.292 36.1647 43.3279 35.7977 43.3279 35.4215Z" stroke="#169D9D" stroke-width="1.97656" stroke-miterlimit="10" stroke-linecap="round" stroke-linejoin="round"/>
<path d="M39.2179 16.5154L35.5645 20.1688L31.9111 16.5154" stroke="#169D9D" stroke-width="1.97656" stroke-miterlimit="10" stroke-linecap="round" stroke-linejoin="round"/>
<path d="M38.2327 36.0559C38.5804 34.5831 37.6684 33.1073 36.1956 32.7595C34.7229 32.4117 33.247 33.3238 32.8992 34.7965C32.5515 36.2693 33.4635 37.7452 34.9362 38.093C36.409 38.4407 37.8849 37.5287 38.2327 36.0559Z" stroke="#169D9D" stroke-width="1.97656" stroke-miterlimit="10" stroke-linecap="round" stroke-linejoin="round"/>
<path d="M11.9487 37.705V26.7448M11.9487 26.7448L8.75195 23.5481M11.9487 26.7448L15.1454 23.5481" stroke="#169D9D" stroke-width="1.97656" stroke-miterlimit="10" stroke-linecap="round" stroke-linejoin="round"/>
<path d="M16.9719 37.6367C16.9719 34.9957 18.093 32.5264 19.9099 30.6098C21.7678 28.65 22.9087 26.0062 22.9087 23.0913C22.9087 17.0381 18.0015 12.1311 11.9484 12.1311C5.89528 12.1311 0.988281 17.0381 0.988281 23.0913C0.988281 26.0062 2.12921 28.65 3.98709 30.6098C5.804 32.5264 6.92507 34.9957 6.92507 37.6367M6.92507 37.7049H16.9719V42.2716C16.9719 43.7849 15.7452 45.0117 14.2319 45.0117H9.66512C8.15179 45.0117 6.92507 43.7849 6.92507 42.2716V37.7049Z" stroke="#169D9D" stroke-width="1.97656" stroke-miterlimit="10" stroke-linecap="round" stroke-linejoin="round"/>
</g>
<defs>
<clipPath id="clip0_784_436">
<rect width="46" height="46" fill="white"/>
</clipPath>
</defs>
</svg>
