<svg width="62" height="62" viewBox="0 0 62 62" fill="none" xmlns="http://www.w3.org/2000/svg">
<g clip-path="url(#clip0_784_478)">
<path d="M52.2352 9.76476C46.5631 4.09261 39.0216 0.96875 31 0.96875C22.9784 0.96875 15.4369 4.09261 9.76476 9.76476C4.09261 15.4369 0.96875 22.9784 0.96875 31C0.96875 35.7296 2.03704 40.2562 4.14395 44.4539C6.15265 48.4559 9.09196 52.0233 12.6444 54.7703C12.8137 54.9018 13.0219 54.973 13.2363 54.9728C13.4384 54.973 13.6356 54.9099 13.8001 54.7924C13.9647 54.6749 14.0883 54.5089 14.1537 54.3176C14.2191 54.1263 14.223 53.9193 14.1649 53.7256C14.1067 53.532 13.9895 53.3614 13.8295 53.2378C7.14429 48.0677 3.20644 40.3592 2.92417 31.9688L27.4939 31.9686C27.9191 33.5057 29.3294 34.6379 30.9999 34.6379C32.6704 34.6379 34.0806 33.5057 34.5059 31.9686L59.0755 31.9688C58.7989 40.1134 55.045 47.6752 48.6767 52.8368C48.4788 52.9992 48.3533 53.2332 48.3274 53.4878C48.3016 53.7424 48.3775 53.9968 48.5386 54.1957C48.6997 54.3945 48.933 54.5214 49.1874 54.5489C49.4418 54.5763 49.6968 54.5019 49.8966 54.342C56.9728 48.6065 61.0312 40.0987 61.0312 31C61.0312 22.9784 57.9074 15.4369 52.2352 9.76476ZM59.0752 30.0312H48.8388C48.7073 27.5536 48.0574 25.1312 46.9312 22.9204L55.7947 17.8031C57.7555 21.4721 58.9251 25.6243 59.0752 30.0312ZM54.823 16.1269L45.9592 21.2444C44.6013 19.17 42.8296 17.3983 40.7552 16.0403L45.8726 7.17674C49.4933 9.44646 52.5532 12.5063 54.823 16.1269ZM22.9205 15.0684L17.8033 6.20521C21.4723 4.24458 25.6244 3.07505 30.0312 2.9249V13.161C27.5537 13.2923 25.1312 13.9421 22.9205 15.0684ZM31.9686 2.92478C36.3754 3.07493 40.5275 4.24434 44.1966 6.20509L39.0793 15.0684C36.8685 13.9422 34.4462 13.2924 31.9686 13.1608V2.92478ZM16.1271 7.17686L21.2446 16.0404C19.1702 17.3984 17.3985 19.1701 16.0406 21.2446L7.17686 16.1271C9.4466 12.5065 12.5065 9.4466 16.1271 7.17686ZM15.0687 22.9204C13.9425 25.1311 13.2926 27.5536 13.1611 30.0311H2.92478C3.07493 25.6243 4.24446 21.4721 6.20521 17.8031L15.0687 22.9204ZM27.494 30.0311H15.1023C15.6047 21.6978 22.5426 15.0717 30.9999 15.0717C39.4573 15.0717 46.395 21.6978 46.8975 30.0311H34.506C34.4263 29.7432 34.3112 29.4662 34.1633 29.2066L38.137 25.2329C38.3187 25.0512 38.4208 24.8048 38.4208 24.5479C38.4208 24.2909 38.3187 24.0445 38.137 23.8629C37.9553 23.6812 37.7089 23.5791 37.452 23.5791C37.1951 23.5791 36.9486 23.6812 36.767 23.8629L32.7933 27.8365C32.247 27.525 31.6289 27.3614 31 27.362C29.3295 27.3619 27.9193 28.4941 27.494 30.0311ZM31 32.7004C30.0624 32.7004 29.2995 31.9375 29.2995 30.9999C29.2995 30.0622 30.0624 29.2994 31 29.2994C31.9376 29.2994 32.7005 30.0622 32.7005 30.9999C32.7005 31.9375 31.9376 32.7004 31 32.7004ZM29.1486 45.3002H24.827C24.5701 45.3002 24.3237 45.4023 24.142 45.5839C23.9603 45.7656 23.8583 46.012 23.8583 46.269V60.0625C23.8583 60.3194 23.9603 60.5658 24.142 60.7475C24.3237 60.9292 24.5701 61.0312 24.827 61.0312H29.1486C29.4055 61.0312 29.6519 60.9292 29.8336 60.7475C30.0153 60.5658 30.1173 60.3194 30.1173 60.0625V46.269C30.1173 46.012 30.0153 45.7656 29.8336 45.5839C29.6519 45.4023 29.4055 45.3002 29.1486 45.3002ZM28.1798 59.0938H25.7958V47.2377H28.1798V59.0938ZM37.1731 47.1014H32.8515C32.5946 47.1014 32.3482 47.2034 32.1665 47.3851C31.9848 47.5668 31.8828 47.8132 31.8828 48.0701V60.0625C31.8828 60.3194 31.9848 60.5658 32.1665 60.7475C32.3482 60.9292 32.5946 61.0312 32.8515 61.0312H37.1731C37.43 61.0312 37.6765 60.9292 37.8581 60.7475C38.0398 60.5658 38.1419 60.3194 38.1419 60.0625V48.0701C38.1419 47.8132 38.0398 47.5668 37.8581 47.3851C37.6765 47.2034 37.43 47.1014 37.1731 47.1014ZM36.2044 59.0938H33.8203V49.0389H36.2044V59.0938ZM45.1973 39.6313H40.8757C40.6187 39.6313 40.3723 39.7334 40.1907 39.9151C40.009 40.0967 39.9069 40.3431 39.9069 40.6001V60.0624C39.9069 60.3193 40.009 60.5657 40.1907 60.7474C40.3723 60.9291 40.6187 61.0311 40.8757 61.0311H45.1973C45.4542 61.0311 45.7006 60.9291 45.8823 60.7474C46.064 60.5657 46.166 60.3193 46.166 60.0624V40.6001C46.166 40.3431 46.064 40.0967 45.8823 39.9151C45.7006 39.7334 45.4542 39.6313 45.1973 39.6313ZM44.2285 59.0936H41.8444V41.5688H44.2285V59.0936ZM21.1242 50.6506H16.8026C16.5457 50.6506 16.2993 50.7527 16.1176 50.9343C15.9359 51.116 15.8339 51.3624 15.8339 51.6194V60.0624C15.8339 60.3193 15.9359 60.5657 16.1176 60.7474C16.2993 60.9291 16.5457 61.0311 16.8026 61.0311H21.1242C21.3811 61.0311 21.6275 60.9291 21.8092 60.7474C21.9909 60.5657 22.093 60.3193 22.093 60.0624V51.6194C22.093 51.3624 21.9909 51.116 21.8092 50.9343C21.6275 50.7527 21.3811 50.6506 21.1242 50.6506ZM20.1555 59.0936H17.7714V52.5881H20.1555V59.0936ZM34.721 40.8959L40.4586 35.1092C39.944 35.1265 39.5047 34.7429 39.4594 34.227C39.4369 33.9711 39.5171 33.7167 39.6822 33.5198C39.8473 33.3229 40.0839 33.1997 40.3398 33.1773L42.952 32.9482C43.0949 32.9356 43.2388 32.955 43.3733 33.0049C43.5078 33.0547 43.6295 33.1338 43.7298 33.2365C43.83 33.3391 43.9062 33.4627 43.9528 33.5984C43.9994 33.734 44.0153 33.8784 43.9994 34.0209L43.7081 36.627C43.6795 36.8823 43.5507 37.1158 43.35 37.2761C43.1493 37.4365 42.8931 37.5105 42.6378 37.482C42.1462 37.4271 41.7828 37.0133 41.7776 36.5311L35.6772 42.6835C35.551 42.8108 35.3919 42.9006 35.2177 42.9428C35.0435 42.9851 34.861 42.9782 34.6905 42.9229L27.178 40.4854L19.5591 46.418C19.3893 46.5506 19.18 46.6226 18.9646 46.6224C18.7628 46.6225 18.5659 46.5595 18.4016 46.4422C18.2373 46.325 18.1137 46.1594 18.0481 45.9685C17.9825 45.7776 17.9781 45.571 18.0356 45.3775C18.0931 45.184 18.2095 45.0133 18.3687 44.8892L26.3931 38.6409C26.518 38.5437 26.6648 38.4785 26.8207 38.4512C26.9765 38.4238 27.1367 38.435 27.2873 38.4838L34.721 40.8959Z" fill="#EEC22F"/>
</g>
<defs>
<clipPath id="clip0_784_478">
<rect width="62" height="62" fill="white"/>
</clipPath>
</defs>
</svg>
