<svg width="60" height="60" viewBox="0 0 60 60" fill="none" xmlns="http://www.w3.org/2000/svg">
<path d="M55.7866 26.159C55.5729 19.6373 52.8783 13.443 48.2528 8.84057C43.375 3.96182 36.8922 1.27588 29.9997 1.27588C16.0788 1.27588 4.7041 12.3562 4.21379 26.159C3.14039 26.6345 2.22792 27.4111 1.58696 28.3946C0.945991 29.3782 0.60404 30.5266 0.602539 31.7006V38.5087C0.604276 40.1164 1.24369 41.6577 2.38049 42.7945C3.51729 43.9313 5.05862 44.5707 6.66629 44.5724C7.70647 44.5712 8.70369 44.1574 9.43921 43.4219C10.1747 42.6864 10.5885 41.6892 10.5897 40.649V29.5593C10.5897 27.5278 9.0316 25.8712 7.05066 25.6743C7.78191 13.649 17.7925 4.08838 29.9997 4.08838C36.1422 4.08838 41.9182 6.48275 46.2654 10.8299C50.2572 14.8218 52.5935 20.0249 52.945 25.6753C50.966 25.874 49.4107 27.5296 49.4107 29.5593V40.6481C49.4107 42.6965 50.9932 44.3634 52.9975 44.5368V47.339C52.9958 48.8563 52.3922 50.311 51.3192 51.3838C50.2462 52.4567 48.7914 53.06 47.2741 53.0615H43.0357C42.7499 52.2284 42.2104 51.5057 41.493 50.9949C40.7755 50.4841 39.9161 50.2108 39.0354 50.2134H34.6666C34.0394 50.2134 33.4375 50.3465 32.8863 50.6034C32.1482 50.9444 31.5229 51.4894 31.0844 52.1741C30.6459 52.8588 30.4123 53.6547 30.4113 54.4678C30.4113 55.6059 30.8547 56.6746 31.6582 57.4743C32.052 57.8713 32.5207 58.1861 33.0371 58.4005C33.5536 58.6148 34.1074 58.7245 34.6666 58.7231H39.0354C40.8466 58.7231 42.4432 57.5521 43.0385 55.874H47.2741C51.9813 55.874 55.81 52.0453 55.81 47.339V44.0362C56.8771 43.5581 57.7832 42.7818 58.4196 41.8009C59.0559 40.82 59.3953 39.6761 59.3969 38.5068V31.6987C59.3969 29.2293 57.91 27.1031 55.7866 26.159ZM7.77629 29.5593V40.6481C7.77629 41.2603 7.27848 41.759 6.66535 41.759C5.80337 41.758 4.97698 41.4151 4.36747 40.8056C3.75795 40.1961 3.41509 39.3697 3.4141 38.5078V31.6996C3.41509 30.8376 3.75795 30.0113 4.36747 29.4017C4.97698 28.7922 5.80337 28.4494 6.66535 28.4484C7.27848 28.4484 7.77629 28.9471 7.77629 29.5593ZM40.4463 54.7696C40.3764 55.0925 40.1984 55.3818 39.9416 55.5896C39.6848 55.7975 39.3648 55.9114 39.0344 55.9124H34.6657C34.2813 55.9124 33.9203 55.7624 33.6447 55.4868C33.5106 55.3536 33.4042 55.1951 33.3318 55.0205C33.2594 54.8459 33.2223 54.6587 33.2229 54.4696C33.2238 54.0874 33.3762 53.7211 33.6466 53.4508C33.917 53.1806 34.2834 53.0285 34.6657 53.0278H39.0344C39.4188 53.0278 39.7797 53.1768 40.0544 53.4524C40.3263 53.7234 40.4763 54.0853 40.4763 54.4696C40.4772 54.5728 40.466 54.6759 40.4463 54.7696ZM56.5844 38.5078C56.5834 39.3697 56.2406 40.1961 55.631 40.8056C55.0215 41.4151 54.1951 41.758 53.3332 41.759C53.0386 41.7588 52.7562 41.6416 52.5479 41.4333C52.3396 41.2251 52.2225 40.9426 52.2222 40.6481V29.5593C52.2222 28.9471 52.72 28.4484 53.3332 28.4484C54.1951 28.4494 55.0215 28.7922 55.631 29.4017C56.2406 30.0113 56.5834 30.8376 56.5844 31.6996V38.5078Z" fill="#FF445F"/>
<path d="M39.1062 38.9924C40.686 38.9907 42.2006 38.3623 43.3177 37.2452C44.4348 36.1281 45.0632 34.6135 45.0649 33.0337V20.8921C45.0649 19.304 44.4443 17.8077 43.3174 16.6808C42.1905 15.554 40.6952 14.9333 39.1062 14.9333H20.8943C19.3145 14.9351 17.7998 15.5634 16.6827 16.6805C15.5656 17.7977 14.9373 19.3123 14.9355 20.8921V33.0337C14.9373 34.6135 15.5656 36.1281 16.6827 37.2452C17.7998 38.3623 19.3145 38.9907 20.8943 38.9924H21.0059V42.1387C21.004 42.5228 21.0781 42.9036 21.2239 43.259C21.3698 43.6145 21.5844 43.9376 21.8556 44.2098C22.1267 44.4819 22.449 44.6978 22.8038 44.845C23.1587 44.9922 23.5392 45.0678 23.9234 45.0674C24.3073 45.0682 24.6874 44.9916 25.0411 44.8423C25.3949 44.693 25.7149 44.474 25.9821 44.1983L31.2162 38.9924H39.1062ZM29.6459 36.5887L23.9815 42.2221C23.9562 42.2483 23.9374 42.268 23.884 42.2446C23.8193 42.2183 23.8193 42.1762 23.8193 42.1387V37.5862C23.8193 37.2132 23.6711 36.8555 23.4074 36.5918C23.1437 36.3281 22.786 36.1799 22.413 36.1799H20.8952C20.0611 36.1789 19.2614 35.8471 18.6716 35.2573C18.0818 34.6675 17.75 33.8678 17.749 33.0337V20.8921C17.75 20.058 18.0818 19.2583 18.6716 18.6685C19.2614 18.0786 20.0611 17.7468 20.8952 17.7459H39.1071C39.9452 17.7459 40.7337 18.074 41.3299 18.6693C41.9262 19.2655 42.2534 20.0549 42.2534 20.8921V33.0337C42.2524 33.8678 41.9206 34.6675 41.3307 35.2573C40.7409 35.8471 39.9412 36.1789 39.1071 36.1799H30.6377C30.2655 36.1799 29.9093 36.3271 29.6459 36.5887Z" fill="#FF445F"/>
<path d="M23.1684 25.1128C22.0247 25.1128 21.0938 26.0447 21.0938 27.1875C21.0938 28.3303 22.0256 29.2622 23.1684 29.2622C24.3131 29.2622 25.245 28.3303 25.245 27.1875C25.245 26.0447 24.3141 25.1128 23.1684 25.1128ZM29.9991 25.1128C28.8553 25.1128 27.9244 26.0447 27.9244 27.1875C27.9244 28.3303 28.8563 29.2622 29.9991 29.2622C31.1447 29.2622 32.0756 28.3303 32.0756 27.1875C32.0756 26.0447 31.1447 25.1128 29.9991 25.1128ZM36.8297 25.1128C35.6859 25.1128 34.755 26.0447 34.755 27.1875C34.755 28.3303 35.6869 29.2622 36.8297 29.2622C37.9744 29.2622 38.9062 28.3303 38.9062 27.1875C38.9062 26.0447 37.9744 25.1128 36.8297 25.1128Z" fill="#FF445F"/>
</svg>
