<svg width="1201" height="225" viewBox="0 0 1201 225" fill="none" xmlns="http://www.w3.org/2000/svg">
<path d="M170 49.5L289.5 101.5L358.5 1L487 18M487 18L593 115.5L681.5 6L793 115.5L938 18L1064 123.5H808.5M487 18L477 117.661M295 108.5L477 117.661M295 115.5L163 234.5M163 234.5L358.5 243.5L477 117.661M163 234.5L144 49.5L-3 234.5L-67 115.5L144 33.5M477 117.661L593 123.5H612.5M477 117.661L561.5 243.5L612.5 123.5M612.5 123.5H793H808.5M612.5 123.5L743.5 234.5L808.5 123.5M808.5 123.5L938 234.5L1064 137C1074.8 153 1144.17 221 1177.5 253L1275.5 177.5L1211 110.5L1072 119" stroke="white"/>
</svg>
