<svg width="58" height="58" viewBox="0 0 58 58" fill="none" xmlns="http://www.w3.org/2000/svg">
<g clip-path="url(#clip0_547_379)">
<path d="M10.8035 35.4468C10.8035 35.4468 15.9092 21.6507 15.8655 21.6361C15.8218 21.6215 15.3702 19.7828 15.3702 19.7828C15.1909 19.8005 15.0098 19.7783 14.8401 19.7176C14.6705 19.6569 14.5163 19.5593 14.3889 19.4319L12.1913 17.2343C11.715 16.758 10.9426 16.758 10.4663 17.2343L6.38466 21.316C5.90831 21.7923 5.90831 22.5647 6.38466 23.041L8.5822 25.2386C8.76924 25.4259 8.89033 25.6689 8.92721 25.931C8.96409 26.1931 8.91477 26.4601 8.78668 26.6917C8.15094 27.8444 7.64518 29.0642 7.27868 30.3285C7.20531 30.5825 7.0514 30.8057 6.84014 30.9647C6.62888 31.1236 6.37171 31.2095 6.10735 31.2096H3.00106C2.32738 31.2096 1.78125 31.7557 1.78125 32.4294V38.2017C1.78125 38.8754 2.32738 39.4215 3.00106 39.4215H6.10723C6.65042 39.4215 7.12745 39.7808 7.27856 40.3026C7.64498 41.5669 8.15075 42.7866 8.78656 43.9393C8.91465 44.1709 8.96397 44.4379 8.92709 44.7C8.89021 44.9621 8.76913 45.2051 8.58209 45.3924L6.38455 47.59C5.9082 48.0663 5.9082 48.8387 6.38455 49.315L10.4662 53.3967C10.9425 53.873 11.7149 53.873 12.1912 53.3967L14.3888 51.1991C14.5139 51.0741 14.6648 50.9778 14.8309 50.917C14.997 50.8562 15.1744 50.8323 15.3506 50.847L15.8656 47.8502L10.8035 35.4468Z" fill="#4D66D2"/>
<path d="M45.9304 31.2097H41.1615C41.0851 31.2097 41.0094 31.2247 40.9388 31.2539C40.8682 31.2832 40.804 31.326 40.75 31.3801C40.6959 31.4341 40.6531 31.4983 40.6238 31.5689C40.5945 31.6395 40.5795 31.7152 40.5795 31.7916V34.7335C40.5795 35.0549 40.3189 35.3156 39.9976 35.3156H36.821C36.5078 35.3156 36.2543 35.5636 36.2396 35.8766C35.9441 42.1811 30.6959 47.1903 24.298 47.1012C17.9496 47.0129 12.7685 41.8318 12.6802 35.4834C12.5886 28.8968 17.9004 23.5288 24.4659 23.5288C25.632 23.5288 26.7584 23.6985 27.822 24.0139C28.1962 24.125 28.5719 23.8479 28.5719 23.4575V13.8509C28.5719 13.1772 28.0258 12.6311 27.3521 12.6311H21.5799C20.9062 12.6311 20.36 13.1772 20.36 13.8509V16.9571C20.36 17.5003 20.0007 17.9773 19.4791 18.1284C18.2147 18.495 16.995 19.0007 15.8423 19.6364C15.6966 19.7168 15.5361 19.7667 15.3705 19.7829C11.8419 23.9936 9.71387 29.4156 9.71387 35.3262C9.71387 41.2262 11.8339 46.6396 15.351 50.847C15.5195 50.8608 15.6871 50.9091 15.8423 50.9947C16.995 51.6304 18.2147 52.1362 19.4791 52.5026C19.733 52.576 19.9563 52.7299 20.1151 52.9411C20.274 53.1524 20.36 53.4096 20.36 53.6739V56.7801C20.36 57.4538 20.9062 57.9999 21.5799 57.9999H27.3521C28.0258 57.9999 28.5719 57.4538 28.5719 56.7801V53.6739C28.5719 53.1307 28.9312 52.6537 29.4529 52.5026C30.7172 52.1361 31.9369 51.6304 33.0896 50.9947C33.3212 50.8666 33.5882 50.8172 33.8503 50.8541C34.1124 50.8909 34.3554 51.012 34.5427 51.1991L36.7403 53.3966C37.2166 53.873 37.989 53.873 38.4653 53.3966L42.547 49.315C43.0233 48.8386 43.0233 48.0663 42.547 47.5898L40.3494 45.3923C40.1624 45.205 40.0413 44.9619 40.0044 44.6998C39.9676 44.4376 40.0169 44.1706 40.1451 43.939C40.7808 42.7863 41.2865 41.5666 41.6529 40.3023C41.7263 40.0484 41.8802 39.8251 42.0915 39.6662C42.3028 39.5073 42.5599 39.4213 42.8243 39.4212H45.9303C46.604 39.4212 47.1501 38.8751 47.1501 38.2014V32.4292C47.1503 31.7558 46.6041 31.2097 45.9304 31.2097Z" fill="#6B7ED9"/>
<path d="M36.8204 26.2884H32.3832C32.2424 26.2884 32.1073 26.3443 32.0077 26.4439C31.9081 26.5435 31.8522 26.6786 31.8522 26.8195V31.2566C31.8522 31.3974 31.9081 31.5325 32.0077 31.6321C32.1073 31.7317 32.2424 31.7876 32.3832 31.7876H36.8204C36.9612 31.7876 37.0963 31.7317 37.1959 31.6321C37.2955 31.5325 37.3514 31.3974 37.3514 31.2566V26.8195C37.3514 26.6786 37.2955 26.5435 37.1959 26.4439C37.0963 26.3443 36.9612 26.2884 36.8204 26.2884ZM43.7126 1.20883e-08H39.2755C39.1347 1.20883e-08 38.9996 0.0559511 38.9 0.155545C38.8004 0.255138 38.7444 0.390216 38.7444 0.531063V4.96818C38.7444 5.10902 38.8004 5.2441 38.9 5.34369C38.9996 5.44329 39.1347 5.49924 39.2755 5.49924H43.7126C43.8535 5.49924 43.9885 5.44329 44.0881 5.34369C44.1877 5.2441 44.2437 5.10902 44.2437 4.96818V0.531063C44.2437 0.461318 44.23 0.392254 44.2033 0.327816C44.1766 0.263378 44.1375 0.204828 44.0882 0.155511C44.0388 0.106195 43.9803 0.0670775 43.9159 0.0403944C43.8514 0.0137113 43.7824 -1.48699e-05 43.7126 1.20883e-08ZM53.1151 21.0225H48.678C48.5371 21.0225 48.402 21.0785 48.3024 21.1781C48.2028 21.2776 48.1469 21.4127 48.1469 21.5536V25.9907C48.1469 26.1315 48.2028 26.2666 48.3024 26.3662C48.402 26.4658 48.5371 26.5217 48.678 26.5217H53.1151C53.2559 26.5217 53.391 26.4658 53.4906 26.3662C53.5902 26.2666 53.6461 26.1315 53.6461 25.9907V21.5536C53.6461 21.4127 53.5902 21.2776 53.4906 21.1781C53.391 21.0785 53.2559 21.0225 53.1151 21.0225ZM55.6884 7.04847H47.9651C47.8242 7.04847 47.6891 7.10442 47.5896 7.20402C47.49 7.30361 47.434 7.43869 47.434 7.57954V15.3028C47.434 15.4437 47.49 15.5787 47.5896 15.6783C47.6891 15.7779 47.8242 15.8339 47.9651 15.8339H55.6884C55.8292 15.8339 55.9643 15.7779 56.0639 15.6783C56.1635 15.5787 56.2194 15.4437 56.2194 15.3028V7.57965C56.2194 7.5099 56.2057 7.44083 56.179 7.37638C56.1524 7.31194 56.1132 7.25338 56.0639 7.20406C56.0146 7.15473 55.9561 7.1156 55.8916 7.08891C55.8272 7.06221 55.7581 7.04847 55.6884 7.04847ZM43.0898 12.2967H34.4327C34.2919 12.2967 34.1568 12.3526 34.0572 12.4522C33.9576 12.5518 33.9017 12.6869 33.9017 12.8277V21.4848C33.9017 21.6257 33.9576 21.7607 34.0572 21.8603C34.1568 21.9599 34.2919 22.0159 34.4327 22.0159H43.0898C43.2306 22.0159 43.3657 21.9599 43.4653 21.8603C43.5649 21.7607 43.6209 21.6257 43.6209 21.4848V12.8277C43.6209 12.6869 43.5649 12.5518 43.4653 12.4522C43.3657 12.3526 43.2306 12.2967 43.0898 12.2967ZM24.466 30.5539C21.8343 30.5539 19.6934 32.6949 19.6934 35.3264C19.6934 37.9582 21.8344 40.0991 24.466 40.0991C27.0976 40.0991 29.2386 37.9581 29.2386 35.3264C29.2387 32.6949 27.0976 30.5539 24.466 30.5539Z" fill="#00D2FC"/>
</g>
<defs>
<clipPath id="clip0_547_379">
<rect width="58" height="58" fill="white"/>
</clipPath>
</defs>
</svg>
