<svg width="60" height="60" viewBox="0 0 60 60" fill="none" xmlns="http://www.w3.org/2000/svg">
<path fill-rule="evenodd" clip-rule="evenodd" d="M12.645 30C12.6065 30.0013 12.57 30.0173 12.543 30.0448C12.516 30.0722 12.5006 30.109 12.5 30.1475V47.5C12.5 49.8575 12.5 51.035 13.2325 51.7675C13.965 52.5 15.1425 52.5 17.5 52.5H42.5C44.8575 52.5 46.035 52.5 46.7675 51.7675C47.5 51.035 47.5 49.8575 47.5 47.5V30.1475C47.4994 30.109 47.484 30.0722 47.457 30.0448C47.43 30.0173 47.3935 30.0013 47.355 30H44.16C43.8075 30 43.365 30 42.9725 29.9575C42.3486 29.8981 41.7495 29.6832 41.23 29.3325C41.1537 29.2814 41.0642 29.2534 40.9724 29.2521C40.8805 29.2508 40.7902 29.2761 40.7125 29.325C40.2093 29.6468 39.6403 29.8518 39.0475 29.925C38.4925 30 37.8375 30 37.275 30H33.3675C32.9225 30 32.385 30 31.915 29.94L30.3025 29.735C29.1975 29.6 30.8025 29.6 29.6975 29.735L28.085 29.94C27.615 30 27.0775 30 26.6325 30H22.725C22.1625 30 21.5075 30 20.9525 29.925C20.3597 29.8518 19.7907 29.6468 19.2875 29.325C19.2098 29.2761 19.1195 29.2508 19.0276 29.2521C18.9358 29.2534 18.8463 29.2814 18.77 29.3325C18.145 29.765 17.51 29.9025 17.0275 29.9575C16.6329 29.9952 16.2363 30.0094 15.84 30H12.645ZM14.835 27.5C13.5925 27.5 12.485 26.3875 13.055 25.285C13.6075 24.21 14.635 23.475 16.6875 22.01L24.1875 16.6525C26.995 14.6475 28.4 13.645 30 13.645C31.6 13.645 33.005 14.645 35.8125 16.6525L43.3125 22.01C45.365 23.475 46.3925 24.21 46.945 25.285C47.5125 26.3875 46.4075 27.5 45.165 27.5H44.2325C43.395 27.5 42.975 27.5 42.655 27.275C42.4786 27.1442 42.3397 26.9691 42.2525 26.7675C42.1425 26.545 42.035 26.2575 41.8925 25.8775L41.3675 24.4775L40.2825 21.5875L40.24 21.475C39.69 20.0125 39.4175 19.28 39.2025 19.3325C38.985 19.385 39.0825 20.1625 39.2775 21.7125L39.29 21.83L39.65 24.69C39.77 25.655 39.845 26.265 39.7275 26.69C39.6879 26.833 39.617 26.9653 39.52 27.0775C39.1475 27.5 38.4875 27.5 37.17 27.5H33.4575C32.4075 27.5 31.8825 27.5 31.5275 27.1875C31.4389 27.1079 31.3652 27.0131 31.31 26.9075C31.155 26.6175 31.09 26.1975 31.0075 25.5575L30.975 25.31L30.525 21.71L30.5125 21.595L30.495 21.47C30.3125 20 30.22 19.265 30 19.265C29.78 19.265 29.6875 20 29.505 21.47L29.4875 21.595L29.475 21.7075L29.025 25.31L28.9925 25.56C28.9125 26.1975 28.845 26.6175 28.6925 26.91C28.636 27.014 28.5615 27.1071 28.4725 27.185C28.12 27.5 27.595 27.5 26.5425 27.5H22.8325C21.5125 27.5 20.8525 27.5 20.48 27.075C20.3833 26.9636 20.3124 26.8321 20.2725 26.69C20.155 26.265 20.23 25.655 20.35 24.69L20.7075 21.8325L20.7225 21.7125C20.9175 20.1625 21.015 19.3875 20.7975 19.3325C20.5825 19.28 20.3075 20.0125 19.76 21.475L19.7175 21.585V21.5875L18.635 24.475L18.11 25.8775C17.965 26.2575 17.86 26.545 17.7475 26.7675C17.6613 26.9697 17.5234 27.1456 17.3475 27.2775C17.0225 27.5 16.605 27.5 15.7675 27.5H14.835Z" fill="#2471C3" fill-opacity="0.25"/>
<path d="M11.5528 11.2875C12.0078 9.4675 12.2353 8.56 12.9128 8.03C13.5928 7.5 14.5303 7.5 16.4053 7.5H43.5953C45.4703 7.5 46.4078 7.5 47.0878 8.03C47.7628 8.56 47.9928 9.4675 48.4478 11.2875L52.1128 25.9475C52.2903 26.6625 52.3803 27.02 52.1928 27.26C52.0053 27.5 51.6353 27.5 50.9003 27.5H44.3603C43.4653 27.5 43.0153 27.5 42.6853 27.2525C42.3528 27.005 42.2228 26.5775 41.9653 25.7175L40.2428 19.98C39.7028 18.175 39.4328 17.2725 39.2078 17.315C38.9853 17.36 39.0803 18.2975 39.2678 20.1725L39.7253 24.75C39.8528 26.035 39.9178 26.6775 39.5453 27.0875C39.1728 27.4975 38.5278 27.5 37.2378 27.5H33.5128C32.4378 27.5 31.9003 27.5 31.5428 27.175C31.1853 26.855 31.1328 26.32 31.0253 25.25L30.4978 19.975C30.3178 18.1675 30.2278 17.2625 30.0003 17.2625C29.7753 17.2625 29.6828 18.1675 29.5028 19.975L28.9753 25.25C28.8678 26.32 28.8153 26.855 28.4578 27.175C28.1003 27.5 27.5628 27.5 26.4878 27.5H22.7628C21.4728 27.5 20.8278 27.5 20.4553 27.0875C20.0803 26.6775 20.1478 26.0375 20.2753 24.75L20.7328 20.1725C20.9203 18.2975 21.0153 17.36 20.7903 17.315C20.5678 17.2725 20.2978 18.175 19.7578 19.98L18.0328 25.7175C17.7778 26.5775 17.6478 27.005 17.3153 27.2525C16.9828 27.5 16.5353 27.5 15.6403 27.5H9.10035C8.36535 27.5 7.99535 27.5 7.80785 27.26C7.62035 27.02 7.70785 26.66 7.88785 25.9475L11.5528 11.2875ZM31.2503 37.5H28.7503C27.4243 37.5 26.1525 38.0268 25.2148 38.9645C24.2771 39.9021 23.7503 41.1739 23.7503 42.5V52.125C23.7503 52.3325 23.9178 52.5 24.1253 52.5H35.8753C35.9748 52.5 36.0702 52.4605 36.1405 52.3902C36.2108 52.3198 36.2503 52.2245 36.2503 52.125V42.5C36.2503 41.1739 35.7236 39.9021 34.7859 38.9645C33.8482 38.0268 32.5764 37.5 31.2503 37.5Z" fill="#104B8B"/>
</svg>
