<svg width="58" height="58" viewBox="0 0 58 58" fill="none" xmlns="http://www.w3.org/2000/svg">
<path d="M2.71875 24.4688H55.2812V55.2812H8.15625C6.71414 55.2812 5.33109 54.7084 4.31136 53.6886C3.29163 52.6689 2.71875 51.2859 2.71875 49.8438V24.4688Z" fill="#57B7EB"/>
<path d="M20.8438 24.4688H2.71875V49.8438C2.71875 51.2859 3.29163 52.6689 4.31136 53.6886C5.33109 54.7084 6.71414 55.2812 8.15625 55.2812H55.2812V48.0312H44.4062C38.1571 48.0312 32.1639 45.5488 27.745 41.13C23.3262 36.7111 20.8438 30.7179 20.8438 24.4688Z" fill="#4891D3"/>
<path d="M8.15625 15.4062C6.71414 15.4062 5.33109 15.9791 4.31136 16.9989C3.29163 18.0186 2.71875 19.4016 2.71875 20.8438V49.8438C2.71875 48.4016 3.29163 47.0186 4.31136 45.9989C5.33109 44.9791 6.71414 44.4062 8.15625 44.4062C9.59836 44.4062 10.9814 44.9791 12.0011 45.9989C13.0209 47.0186 13.5938 48.4016 13.5938 49.8438V20.8438C13.5938 19.4016 13.0209 18.0186 12.0011 16.9989C10.9814 15.9791 9.59836 15.4062 8.15625 15.4062Z" fill="#AAE1F9"/>
<path d="M38.9686 40.7812C38.9684 40.4487 38.9381 40.1169 38.878 39.7898L40.7195 38.7259L38.907 35.5866L37.0655 36.6506C36.5576 36.2169 35.9738 35.881 35.3436 35.66V33.5312H31.7186V35.66C31.0884 35.881 30.5045 36.2169 29.9967 36.6506L28.1543 35.5866L26.3418 38.7259L28.1842 39.7898C28.0585 40.4448 28.0585 41.1177 28.1842 41.7727L26.3427 42.8366L28.1552 45.9759L29.9967 44.9119C30.5045 45.3456 31.0884 45.6815 31.7186 45.9025V48.0312H35.3436V45.9025C35.9738 45.6815 36.5576 45.3456 37.0655 44.9119L38.9079 45.9759L40.7204 42.8366L38.878 41.7727C38.9381 41.4456 38.9684 41.1138 38.9686 40.7812ZM33.5311 42.5938C33.1726 42.5938 32.8222 42.4875 32.5241 42.2883C32.226 42.0891 31.9937 41.8061 31.8565 41.4749C31.7194 41.1437 31.6835 40.7792 31.7534 40.4276C31.8233 40.0761 31.996 39.7531 32.2494 39.4996C32.5029 39.2461 32.8259 39.0735 33.1775 39.0036C33.5291 38.9336 33.8935 38.9695 34.2247 39.1067C34.5559 39.2439 34.839 39.4762 35.0381 39.7743C35.2373 40.0723 35.3436 40.4228 35.3436 40.7812C35.3436 41.262 35.1526 41.723 34.8127 42.0629C34.4728 42.4028 34.0118 42.5938 33.5311 42.5938Z" fill="#F9E109"/>
<path d="M20.8438 50.75C21.8448 50.75 22.6562 49.9385 22.6562 48.9375C22.6562 47.9365 21.8448 47.125 20.8438 47.125C19.8427 47.125 19.0312 47.9365 19.0312 48.9375C19.0312 49.9385 19.8427 50.75 20.8438 50.75Z" fill="#FCBC04"/>
<path d="M9.06258 30.082V15.4878C8.28261 15.3507 7.48205 15.3866 6.71747 15.5929C5.95289 15.7992 5.24296 16.171 4.63785 16.6818C4.03275 17.1927 3.54724 17.8303 3.21563 18.5494C2.88403 19.2686 2.71444 20.0518 2.71883 20.8437V49.8437C2.71883 48.4016 3.29171 47.0186 4.31144 45.9988C5.33117 44.9791 6.71422 44.4062 8.15633 44.4062C9.59845 44.4062 10.9815 44.9791 12.0012 45.9988C13.021 47.0186 13.5938 48.4016 13.5938 49.8437V44.1561C10.6485 40.0542 9.06368 35.1319 9.06258 30.082Z" fill="#57B7EB"/>
<path d="M39.8749 43.5C38.0947 43.5019 36.3538 42.9769 34.8715 41.9911C34.7075 42.1736 34.5081 42.3207 34.2854 42.4236C34.0627 42.5264 33.8213 42.5828 33.5761 42.5893C33.3309 42.5959 33.0869 42.5524 32.859 42.4615C32.6312 42.3706 32.4242 42.2342 32.2508 42.0607C32.0773 41.8873 31.9411 41.6802 31.8503 41.4524C31.7595 41.2245 31.716 40.9805 31.7226 40.7352C31.7292 40.49 31.7857 40.2487 31.8886 40.026C31.9916 39.8033 32.1388 39.604 32.3213 39.44C31.6346 38.4032 31.1702 37.2352 30.9574 36.0099C30.6169 36.1889 30.2964 36.4037 30.0013 36.6506L28.1589 35.5867L26.3464 38.7259L28.1843 39.7899C28.0586 40.4448 28.0586 41.1177 28.1843 41.7727L26.3428 42.8367L28.1553 45.9759L29.9968 44.912C30.5046 45.3457 31.0884 45.6815 31.7186 45.9025V48.0313H35.3436V45.9025C35.9739 45.6815 36.5577 45.3457 37.0655 44.912L38.9079 45.9759L40.3335 43.5H39.8749Z" fill="#FCBC04"/>
<path d="M21.75 49.8438C21.447 49.845 21.1486 49.77 20.8822 49.6256C20.6158 49.4812 20.39 49.272 20.2257 49.0174C20.0614 48.7628 19.9638 48.471 19.942 48.1688C19.9201 47.8666 19.9747 47.5637 20.1006 47.2881C19.8318 47.4076 19.5962 47.5907 19.414 47.8216C19.2318 48.0526 19.1085 48.3243 19.0549 48.6135C19.0012 48.9027 19.0187 49.2007 19.1059 49.4816C19.1931 49.7625 19.3473 50.018 19.5553 50.226C19.7633 50.434 20.0188 50.5882 20.2997 50.6754C20.5806 50.7626 20.8785 50.7801 21.1677 50.7264C21.4569 50.6727 21.7287 50.5494 21.9596 50.3673C22.1905 50.1851 22.3736 49.9494 22.4931 49.6806C22.2598 49.7872 22.0065 49.8428 21.75 49.8438ZM29.9969 44.9119C30.5047 45.3456 31.0885 45.6815 31.7188 45.9025V48.0312H35.3438V46.2188C32.6784 45.1045 30.2406 43.5099 28.1517 41.5144C28.1644 41.5996 28.1726 41.6857 28.188 41.7691L26.3465 42.833L28.159 45.9723L29.9969 44.9119Z" fill="#E59730"/>
<path d="M45.3123 52.5625H34.4373C34.197 52.5625 33.9665 52.467 33.7965 52.2971C33.6266 52.1271 33.5311 51.8966 33.5311 51.6562C33.5311 51.4159 33.6266 51.1854 33.7965 51.0154C33.9665 50.8455 34.197 50.75 34.4373 50.75H45.3123C45.793 50.75 46.2541 50.559 46.594 50.2191C46.9339 49.8792 47.1248 49.4182 47.1248 48.9375V47.125C47.1248 46.8846 47.2203 46.6541 47.3903 46.4842C47.5602 46.3142 47.7907 46.2187 48.0311 46.2187C48.2714 46.2187 48.502 46.3142 48.6719 46.4842C48.8419 46.6541 48.9373 46.8846 48.9373 47.125V48.9375C48.9373 49.8989 48.5554 50.8209 47.8756 51.5008C47.1958 52.1806 46.2738 52.5625 45.3123 52.5625ZM23.5623 41.6875H21.6864C20.596 41.6877 19.5431 41.2892 18.726 40.567C17.909 39.8449 17.3842 38.8489 17.2505 37.7666C17.1168 36.6844 17.3835 35.5907 18.0002 34.6914C18.6169 33.7921 19.5412 33.1493 20.5989 32.8842L21.9809 32.538C23.8029 32.0845 25.3896 30.9665 26.4297 29.4033C26.5631 29.2033 26.7705 29.0645 27.0062 29.0174C27.2419 28.9704 27.4867 29.0188 27.6867 29.1522C27.8867 29.2856 28.0255 29.493 28.0725 29.7287C28.1196 29.9645 28.0711 30.2092 27.9377 30.4092C26.6475 32.3472 24.6803 33.7336 22.4214 34.297L21.0393 34.6423C20.4106 34.8 19.8612 35.1821 19.4946 35.7167C19.1281 36.2513 18.9696 36.9015 19.0492 37.5448C19.1287 38.1881 19.4408 38.7801 19.9265 39.2093C20.4123 39.6385 21.0382 39.8753 21.6864 39.875H23.5623C23.8027 39.875 24.0332 39.9705 24.2032 40.1404C24.3731 40.3104 24.4686 40.5409 24.4686 40.7812C24.4686 41.0216 24.3731 41.2521 24.2032 41.4221C24.0332 41.592 23.8027 41.6875 23.5623 41.6875Z" fill="#C4F236"/>
<path d="M34.4375 14.5C34.4383 13.2737 34.128 12.0673 33.5356 10.9935C32.9433 9.91978 32.0883 9.01382 31.0506 8.36041C30.0129 7.70699 28.8264 7.32747 27.6021 7.25735C26.3778 7.18722 25.1557 7.42879 24.0502 7.95944C22.9447 8.4901 21.9918 9.2925 21.2807 10.2916C20.5697 11.2907 20.1237 12.4538 19.9844 13.6722C19.8451 14.8905 20.0172 16.1243 20.4845 17.2581C20.9518 18.3919 21.699 19.3886 22.6563 20.155V21.75H31.7188V20.155C32.5673 19.4769 33.2524 18.6165 33.723 17.6376C34.1937 16.6586 34.4379 15.5862 34.4375 14.5Z" fill="#FCBC04"/>
<path d="M31.7188 21.75H22.6562C21.6552 21.75 20.8438 22.5615 20.8438 23.5625C20.8438 24.5635 21.6552 25.375 22.6562 25.375H31.7188C32.7198 25.375 33.5312 24.5635 33.5312 23.5625C33.5312 22.5615 32.7198 21.75 31.7188 21.75Z" fill="#D0D8DA"/>
<path d="M22.6562 25.375H31.7188V26.2812C31.7188 27.483 31.2414 28.6356 30.3916 29.4853C29.5418 30.3351 28.3893 30.8125 27.1875 30.8125C25.9857 30.8125 24.8332 30.3351 23.9834 29.4853C23.1336 28.6356 22.6562 27.483 22.6562 26.2812V25.375Z" fill="#93999A"/>
<path d="M24.4693 11.7813C24.4688 10.225 24.9161 8.70135 25.758 7.39233C24.4066 7.66509 23.1611 8.31748 22.1673 9.273C21.1736 10.2285 20.4729 11.4476 20.1474 12.7872C19.8219 14.1268 19.885 15.5314 20.3295 16.8364C20.774 18.1414 21.5813 19.2926 22.6568 20.1551V21.7501H31.7193V20.1551C31.8162 20.0771 31.9005 19.9883 31.9966 19.9058C29.9493 19.7486 28.0368 18.8245 26.6413 17.3182C25.2458 15.812 24.4701 13.8346 24.4693 11.7813Z" fill="#E59730"/>
<path d="M22.6562 21.75C22.1755 21.75 21.7145 21.941 21.3746 22.2809C21.0347 22.6208 20.8438 23.0818 20.8438 23.5625C20.8438 24.0432 21.0347 24.5042 21.3746 24.8441C21.7145 25.184 22.1755 25.375 22.6562 25.375H31.7188C32.1995 25.375 32.6605 25.184 33.0004 24.8441C33.3403 24.5042 33.5312 24.0432 33.5312 23.5625H24.4688C23.988 23.5625 23.527 23.3715 23.1871 23.0316C22.8472 22.6917 22.6562 22.2307 22.6562 21.75Z" fill="#93999A"/>
<path d="M29.9063 27.1875H31.6281C31.6888 26.8892 31.7191 26.5856 31.7188 26.2812V25.375H22.6562V26.2812C22.6574 27.1956 22.9357 28.0881 23.4543 28.841C23.973 29.594 24.7078 30.1721 25.5617 30.4989C25.8252 29.5484 26.3925 28.7103 27.1769 28.1124C27.9614 27.5144 28.9199 27.1896 29.9063 27.1875Z" fill="#656B76"/>
<path d="M16.3125 15.4062C16.813 15.4062 17.2188 15.0005 17.2188 14.5C17.2188 13.9995 16.813 13.5938 16.3125 13.5938C15.812 13.5938 15.4062 13.9995 15.4062 14.5C15.4062 15.0005 15.812 15.4062 16.3125 15.4062Z" fill="#F9E109"/>
<path d="M38.0625 15.4062C38.563 15.4062 38.9688 15.0005 38.9688 14.5C38.9688 13.9995 38.563 13.5938 38.0625 13.5938C37.562 13.5938 37.1562 13.9995 37.1562 14.5C37.1562 15.0005 37.562 15.4062 38.0625 15.4062Z" fill="#F9E109"/>
<path d="M27.1875 4.53125C27.688 4.53125 28.0938 4.12551 28.0938 3.625C28.0938 3.12449 27.688 2.71875 27.1875 2.71875C26.687 2.71875 26.2812 3.12449 26.2812 3.625C26.2812 4.12551 26.687 4.53125 27.1875 4.53125Z" fill="#F9E109"/>
<path d="M17.7695 9.96875C18.27 9.96875 18.6758 9.56301 18.6758 9.0625C18.6758 8.56199 18.27 8.15625 17.7695 8.15625C17.269 8.15625 16.8633 8.56199 16.8633 9.0625C16.8633 9.56301 17.269 9.96875 17.7695 9.96875Z" fill="#F9E109"/>
<path d="M36.6055 20.8438C37.106 20.8438 37.5117 20.438 37.5117 19.9375C37.5117 19.437 37.106 19.0312 36.6055 19.0312C36.105 19.0312 35.6992 19.437 35.6992 19.9375C35.6992 20.438 36.105 20.8438 36.6055 20.8438Z" fill="#F9E109"/>
<path d="M32.625 5.98853C33.1255 5.98853 33.5312 5.58278 33.5312 5.08228C33.5312 4.58177 33.1255 4.17603 32.625 4.17603C32.1245 4.17603 31.7188 4.58177 31.7188 5.08228C31.7188 5.58278 32.1245 5.98853 32.625 5.98853Z" fill="#F9E109"/>
<path d="M36.6055 9.96875C37.106 9.96875 37.5117 9.56301 37.5117 9.0625C37.5117 8.56199 37.106 8.15625 36.6055 8.15625C36.105 8.15625 35.6992 8.56199 35.6992 9.0625C35.6992 9.56301 36.105 9.96875 36.6055 9.96875Z" fill="#F9E109"/>
<path d="M17.7695 20.8438C18.27 20.8438 18.6758 20.438 18.6758 19.9375C18.6758 19.437 18.27 19.0312 17.7695 19.0312C17.269 19.0312 16.8633 19.437 16.8633 19.9375C16.8633 20.438 17.269 20.8438 17.7695 20.8438Z" fill="#F9E109"/>
<path d="M21.75 5.98853C22.2505 5.98853 22.6562 5.58278 22.6562 5.08228C22.6562 4.58177 22.2505 4.17603 21.75 4.17603C21.2495 4.17603 20.8438 4.58177 20.8438 5.08228C20.8438 5.58278 21.2495 5.98853 21.75 5.98853Z" fill="#F9E109"/>
<path d="M26.2668 21.75C26.2717 21.717 26.2747 21.6837 26.2759 21.6503L25.5264 14.9015L26.9012 15.36C27.0871 15.422 27.2881 15.422 27.474 15.36L28.8487 14.9015L28.0993 21.6503C28.1005 21.6837 28.1035 21.717 28.1083 21.75H29.9118L30.8072 13.6934C30.8239 13.5423 30.8024 13.3894 30.7445 13.2488C30.6867 13.1081 30.5944 12.9843 30.4762 12.8887C30.3579 12.7931 30.2175 12.7288 30.0679 12.7018C29.9183 12.6747 29.7642 12.6857 29.62 12.7337L27.1876 13.5448L24.7552 12.7337C24.611 12.6857 24.4569 12.6747 24.3073 12.7018C24.1577 12.7288 24.0173 12.7931 23.899 12.8887C23.7808 12.9843 23.6885 13.1081 23.6306 13.2488C23.5728 13.3894 23.5513 13.5423 23.568 13.6934L24.4634 21.75H26.2668Z" fill="#F9E109"/>
<path d="M51.6562 34.4375H44.4062V11.7812H51.6562V34.4375Z" fill="#A1D51C"/>
<path d="M48.0312 43.5L51.6562 34.4375H44.4062L48.0312 43.5Z" fill="#FCBC04"/>
<path d="M51.6562 8.15625H44.4062V6.34375C44.4062 5.38234 44.7882 4.46031 45.468 3.78049C46.1478 3.10067 47.0698 2.71875 48.0312 2.71875C48.9927 2.71875 49.9147 3.10067 50.5945 3.78049C51.2743 4.46031 51.6562 5.38234 51.6562 6.34375V8.15625Z" fill="#AAE1F9"/>
<path d="M51.6562 11.7812H44.4062V8.15625H51.6562V11.7812Z" fill="#D0D8DA"/>
<path d="M45.8564 38.0625H50.2064L48.0314 43.5L45.8564 38.0625Z" fill="#93999A"/>
<path d="M47.6107 24.0365C47.6146 27.5319 47.9806 31.0175 48.7028 34.4375H44.4062V11.7812H47.6107V24.0365Z" fill="#7AB92D"/>
<path d="M49.5954 38.0625H45.8562L48.0312 43.5L44.4062 34.4375H48.7028C48.9583 35.6555 49.2511 36.8653 49.5954 38.0625Z" fill="#E59730"/>
<path d="M48.0312 2.71875C48.361 2.72344 48.6885 2.77345 49.0046 2.86738C48.5721 3.20313 48.2219 3.63299 47.9804 4.12432C47.7388 4.61566 47.6124 5.15555 47.6107 5.70303V8.15625H44.4062V6.34375C44.4062 5.38234 44.7882 4.46031 45.468 3.78049C46.1478 3.10067 47.0698 2.71875 48.0312 2.71875Z" fill="#57B7EB"/>
<path d="M44.4062 8.15625H47.6098V11.7812H44.4062V8.15625Z" fill="#93999A"/>
<path d="M49.5956 38.0625C49.679 38.3525 49.7714 38.6398 49.8603 38.9289L48.0314 43.5L45.8564 38.0625H49.5956Z" fill="#656B76"/>
<path d="M46.6719 11.7812H49.3906V34.4375H46.6719V11.7812Z" fill="#57B7EB"/>
<path d="M47.6107 11.7812H46.6719V34.4375H48.7028C47.9821 31.0173 47.6177 27.5317 47.6153 24.0365L47.6107 11.7812Z" fill="#4891D3"/>
<path d="M21.6867 41.6875H23.5626C23.803 41.6875 24.0335 41.592 24.2034 41.4221C24.3734 41.2521 24.4689 41.0216 24.4689 40.7812C24.4689 40.5409 24.3734 40.3104 24.2034 40.1404C24.0335 39.9705 23.803 39.875 23.5626 39.875H21.6867C21.0388 39.8744 20.4135 39.637 19.9284 39.2075C19.4433 38.778 19.132 38.186 19.0529 37.5429C18.9738 36.8999 19.1325 36.2501 19.4991 35.7159C19.8656 35.1817 20.4148 34.7999 21.0433 34.6423L22.4253 34.297C22.5948 34.2544 22.7588 34.1982 22.9246 34.1475C22.6738 33.5951 22.4447 33.0331 22.2377 32.4628C22.1525 32.4872 22.0709 32.5171 21.9848 32.538L20.6028 32.8842C19.5454 33.1493 18.6213 33.7917 18.0046 34.6906C17.3879 35.5895 17.121 36.6829 17.2542 37.7648C17.3874 38.8468 17.9115 39.8428 18.7279 40.5652C19.5443 41.2877 20.5966 41.6868 21.6867 41.6875ZM47.1251 48.0312V48.9375C47.1251 49.4182 46.9342 49.8792 46.5943 50.2191C46.2544 50.559 45.7933 50.75 45.3126 50.75H34.4376C34.1973 50.75 33.9668 50.8455 33.7968 51.0154C33.6269 51.1854 33.5314 51.4159 33.5314 51.6562C33.5314 51.8966 33.6269 52.1271 33.7968 52.2971C33.9668 52.467 34.1973 52.5625 34.4376 52.5625H45.3126C46.274 52.5625 47.1961 52.1806 47.8759 51.5007C48.5557 50.8209 48.9376 49.8989 48.9376 48.9375V48.0312H47.1251Z" fill="#A1D51C"/>
</svg>
