<svg width="58" height="58" viewBox="0 0 58 58" fill="none" xmlns="http://www.w3.org/2000/svg">
<path d="M12.2536 5.46859C16.3573 1.36464 23.011 1.36464 27.1147 5.46859L28.9999 7.35382L30.8852 5.46859C34.9889 1.36464 41.6426 1.36464 45.7463 5.46859C49.85 9.57232 49.85 16.2258 45.7463 20.3297L43.8611 22.215L31.0508 35.0253C29.9182 36.1578 28.0819 36.1578 26.9491 35.0253L14.1388 22.215L12.2536 20.3297C8.14985 16.226 8.14985 9.57232 12.2536 5.46859Z" fill="#377DE2"/>
<path d="M45.7465 5.46858C44.3379 4.05663 42.5549 3.07704 40.6078 2.64539C40.8174 2.8233 41.0201 3.0093 41.2152 3.20296C45.319 7.30668 45.319 13.9601 41.2152 18.0641L39.33 19.9493L26.5197 32.7596C26.2006 33.0783 25.8112 33.3178 25.3828 33.4588L26.9493 35.0252C28.0819 36.1578 29.9181 36.1578 31.051 35.0252L43.8612 22.2149L45.7465 20.3297C49.8502 16.226 49.8502 9.57231 45.7465 5.46858Z" fill="#2266D3"/>
<path d="M53.5379 8.63594C52.1244 8.66177 51.0183 9.87456 51.0183 11.2883V22.6309C51.0183 23.2318 50.7795 23.8082 50.3547 24.233L39.2482 35.3395C37.5486 37.0391 36.5938 39.3441 36.5938 41.7476V46.3921H48.2996V43.3809C48.2996 42.2825 48.6985 41.2215 49.4222 40.3953L55.031 33.9921C55.7546 33.1659 56.1536 32.1049 56.1536 31.0065V11.2031C56.1536 9.76898 54.9779 8.60944 53.5379 8.63594Z" fill="#FCC4AE"/>
<path d="M54.8687 8.98218C54.965 9.25179 55.02 9.54111 55.02 9.8438V29.6469C55.02 30.7453 54.6211 31.8063 53.8974 32.6326L48.2886 39.0357C47.565 39.862 47.166 40.923 47.166 42.0213V46.392H48.2988V43.3807C48.2988 42.2823 48.6978 41.2213 49.4214 40.3951L55.0302 33.992C55.7539 33.1657 56.1528 32.1047 56.1528 31.0063V11.2032C56.1528 10.2534 55.6354 9.42647 54.8687 8.98218Z" fill="#F2AD97"/>
<path d="M51.5426 26.6071C50.7555 25.8483 49.5978 25.7239 48.6505 26.1675C48.881 26.2805 49.0923 26.4288 49.277 26.6071C50.3139 27.6066 50.3253 29.2581 49.3112 30.2722L43.5452 36.0384C43.3949 36.1886 43.3105 36.3924 43.3105 36.6048C43.3105 36.8172 43.3949 37.021 43.5452 37.1712C43.6954 37.3214 43.8991 37.4058 44.1116 37.4058C44.324 37.4058 44.5277 37.3214 44.678 37.1712L51.5768 30.2722C52.5911 29.2578 52.5796 27.6066 51.5426 26.6071Z" fill="#F2AD97"/>
<path d="M51.094 54.4765V47.5249C51.094 47.2245 50.9747 46.9363 50.7623 46.7239C50.5498 46.5114 50.2617 46.3921 49.9612 46.3921H34.9238C34.6234 46.3921 34.3353 46.5114 34.1228 46.7239C33.9104 46.9363 33.791 47.2245 33.791 47.5249V54.4765C33.791 54.777 33.9104 55.0651 34.1228 55.2775C34.3353 55.49 34.6234 55.6093 34.9238 55.6093H49.9612C50.2617 55.6093 50.5498 55.49 50.7623 55.2775C50.9747 55.0651 51.094 54.777 51.094 54.4765Z" fill="#478CF7"/>
<path d="M44.2972 48.2046H44.2129C44.0927 48.2046 43.9775 48.1569 43.8925 48.0719C43.8075 47.9869 43.7598 47.8716 43.7598 47.7515C43.7598 47.6313 43.8075 47.516 43.8925 47.4311C43.9775 47.3461 44.0927 47.2983 44.2129 47.2983H44.2972C44.4174 47.2983 44.5326 47.3461 44.6176 47.4311C44.7026 47.516 44.7503 47.6313 44.7503 47.7515C44.7503 47.8716 44.7026 47.9869 44.6176 48.0719C44.5326 48.1569 44.4174 48.2046 44.2972 48.2046ZM42.4004 48.2046H35.1504C35.0302 48.2046 34.915 48.1569 34.83 48.0719C34.745 47.9869 34.6973 47.8716 34.6973 47.7515C34.6973 47.6313 34.745 47.516 34.83 47.4311C34.915 47.3461 35.0302 47.2983 35.1504 47.2983H42.4004C42.5206 47.2983 42.6358 47.3461 42.7208 47.4311C42.8058 47.516 42.8535 47.6313 42.8535 47.7515C42.8535 47.8716 42.8058 47.9869 42.7208 48.0719C42.6358 48.1569 42.5206 48.2046 42.4004 48.2046Z" fill="#5E9CF7"/>
<path d="M34.9238 55.6093C34.6234 55.6093 34.3353 55.49 34.1228 55.2775C33.9104 55.0651 33.791 54.777 33.791 54.4765V51.0781H45.43C45.7304 51.0781 46.0186 50.9587 46.231 50.7463C46.4434 50.5338 46.5628 50.2457 46.5628 49.9453V46.3921H49.9612C50.2617 46.3921 50.5498 46.5114 50.7623 46.7239C50.9747 46.9363 51.094 47.2245 51.094 47.5249V54.4765C51.094 54.777 50.9747 55.0651 50.7623 55.2775C50.5498 55.49 50.2617 55.6093 49.9612 55.6093H34.9238Z" fill="#377DE2"/>
<path d="M34.9238 55.6093C34.6234 55.6093 34.3353 55.49 34.1228 55.2775C33.9104 55.0651 33.791 54.777 33.791 54.4765V53.3437H47.6956C47.9961 53.3437 48.2842 53.2244 48.4966 53.0119C48.7091 52.7995 48.8284 52.5113 48.8284 52.2109V46.3921H49.9612C50.2617 46.3921 50.5498 46.5114 50.7623 46.7239C50.9747 46.9363 51.094 47.2245 51.094 47.5249V54.4765C51.094 54.777 50.9747 55.0651 50.7623 55.2775C50.5498 55.49 50.2617 55.6093 49.9612 55.6093H34.9238Z" fill="#2266D3"/>
<path d="M9.69995 43.3809V46.3921H21.4058V41.7476C21.4058 40.5575 21.1714 39.379 20.7159 38.2795C20.2605 37.18 19.5929 36.181 18.7513 35.3395L7.6448 24.233C7.21993 23.8081 6.98123 23.2318 6.9812 22.6309V11.2883C6.9812 9.87456 5.87512 8.66177 4.46159 8.63594C3.02134 8.60944 1.8457 9.76898 1.8457 11.2031V31.0063C1.8457 32.1046 2.24468 33.1656 2.96832 33.9919L8.5771 40.395C9.30095 41.2213 9.69998 42.2824 9.69995 43.3809Z" fill="#FCC4AE"/>
<path d="M20.2735 46.3921H21.4063V41.7475C21.4063 40.5574 21.1719 39.379 20.7165 38.2795C20.2611 37.18 19.5935 36.1809 18.7519 35.3395L17.6191 34.2066C19.3186 35.9062 20.2734 38.2112 20.2735 40.6147V46.3921ZM6.45636 26.6071C7.24344 25.8483 8.40117 25.7239 9.34843 26.1675C9.118 26.2805 8.90663 26.4288 8.72198 26.6071C7.68501 27.6066 7.67368 29.2581 8.68777 30.2722L14.4538 36.0384C14.604 36.1886 14.6884 36.3924 14.6884 36.6048C14.6884 36.8172 14.604 37.021 14.4538 37.1712C14.3036 37.3214 14.0998 37.4058 13.8874 37.4058C13.6749 37.4058 13.4712 37.3214 13.321 37.1712L6.42215 30.2722C5.40783 29.2578 5.41938 27.6066 6.45636 26.6071Z" fill="#F2AD97"/>
<path d="M24.2073 54.4765V47.5249C24.2073 47.2245 24.088 46.9363 23.8755 46.7239C23.6631 46.5114 23.375 46.3921 23.0745 46.3921H8.03711C7.73667 46.3921 7.44853 46.5114 7.23609 46.7239C7.02365 46.9363 6.9043 47.2245 6.9043 47.5249V54.4765C6.9043 54.777 7.02365 55.0651 7.23609 55.2775C7.44853 55.49 7.73667 55.6093 8.03711 55.6093H23.0745C23.375 55.6093 23.6631 55.49 23.8755 55.2775C24.088 55.0651 24.2073 54.777 24.2073 54.4765Z" fill="#478CF7"/>
<path d="M8.03711 55.6093C7.73667 55.6093 7.44853 55.49 7.23609 55.2775C7.02365 55.0651 6.9043 54.777 6.9043 54.4765V53.3437H20.8089C21.1093 53.3437 21.3975 53.2244 21.6099 53.0119C21.8224 52.7995 21.9417 52.5113 21.9417 52.2109V46.3921H23.0745C23.375 46.3921 23.6631 46.5114 23.8755 46.7239C24.088 46.9363 24.2073 47.2245 24.2073 47.5249V54.4765C24.2073 54.777 24.088 55.0651 23.8755 55.2775C23.6631 55.49 23.375 55.6093 23.0745 55.6093H8.03711Z" fill="#377DE2"/>
<path d="M35.2419 16.5969H31.251V12.606C31.251 11.3619 30.2426 10.3535 28.9983 10.3535C27.7542 10.3535 26.7456 11.3622 26.7456 12.606V16.5969H22.7547C21.5106 16.5969 20.502 17.6053 20.502 18.8496C20.502 20.0939 21.5104 21.1023 22.7547 21.1023H26.7456V25.0932C26.7456 26.3373 27.754 27.3459 28.9983 27.3459C30.2423 27.3459 31.251 26.3373 31.251 25.0932V21.1023H35.2419C36.4859 21.1023 37.4944 20.0939 37.4944 18.8496C37.4944 17.6053 36.4859 16.5969 35.2419 16.5969Z" fill="white"/>
</svg>
