<svg width="60" height="60" viewBox="0 0 60 60" fill="none" xmlns="http://www.w3.org/2000/svg">
<path fill-rule="evenodd" clip-rule="evenodd" d="M16.4811 32.1719C24.9456 32.1719 31.849 25.2683 31.849 16.804C31.849 8.33967 24.9457 1.43604 16.4811 1.43604C8.0168 1.43615 1.11328 8.33967 1.11328 16.8041C1.11328 25.2683 8.0168 32.1719 16.4811 32.1719Z" fill="#1980F2"/>
<path fill-rule="evenodd" clip-rule="evenodd" d="M22.4391 10.3171C23.1756 9.58049 24.37 9.58049 25.1068 10.3171C25.8435 11.0538 25.8435 12.2483 25.1068 12.9849L14.8005 23.2911C14.064 24.0277 12.8696 24.0277 12.1328 23.2911C12.0539 23.2123 11.9821 23.1266 11.9184 23.0351L7.71181 17.7414C7.06481 16.9274 7.19981 15.7429 8.01392 15.0958C8.82802 14.4487 10.0123 14.5839 10.6595 15.3979L13.6257 19.1306L22.4391 10.3171Z" fill="#EFF4F7"/>
<path fill-rule="evenodd" clip-rule="evenodd" d="M30 36.0218C40.6542 36.0218 49.2913 44.6589 49.2913 55.3132H58.8867C58.8867 39.3594 45.9538 26.4265 30 26.4265C14.0462 26.4265 1.11328 39.3594 1.11328 55.3132H10.7087C10.7087 44.6589 19.3458 36.0218 30 36.0218Z" fill="#FAD808"/>
<path fill-rule="evenodd" clip-rule="evenodd" d="M13.19 31.8187C9.85203 34.2113 7.0448 37.2978 4.97949 40.8672L13.2907 45.6657C14.9876 42.7352 17.4225 40.3003 20.3531 38.6035L16.6393 32.171L15.5546 30.2922C14.7421 30.7624 13.9529 31.2718 13.19 31.8187Z" fill="#FCBC04"/>
<path fill-rule="evenodd" clip-rule="evenodd" d="M16.6385 32.171L20.3523 38.6036C23.19 36.9616 26.485 36.0218 29.9994 36.0218V26.4265C29.4728 26.4265 28.9495 26.4406 28.4299 26.4684C23.7564 26.7187 19.3779 28.0797 15.5537 30.2923L16.6385 32.171Z" fill="#22C269"/>
<path fill-rule="evenodd" clip-rule="evenodd" d="M30 26.4265V36.0218C33.5145 36.0218 36.8094 36.9617 39.6471 38.6036L44.4456 30.2923C40.1965 27.8337 35.2624 26.4265 30 26.4265Z" fill="#0F9452"/>
<path fill-rule="evenodd" clip-rule="evenodd" d="M44.4459 30.2922L39.6475 38.6035C42.578 40.3004 45.013 42.7352 46.7099 45.6657L55.0211 40.8674C52.4801 36.4792 48.8341 32.8332 44.4459 30.2922Z" fill="#EE0033"/>
<path fill-rule="evenodd" clip-rule="evenodd" d="M55.0211 40.8672L46.71 45.6655C48.352 48.5035 49.2917 51.7986 49.2917 55.313H58.8871C58.8871 50.0506 57.4797 45.1166 55.0211 40.8672Z" fill="#C1001F"/>
<path fill-rule="evenodd" clip-rule="evenodd" d="M36.5011 46.6475C37.0987 46.0498 38.068 46.0498 38.6656 46.6475C39.2633 47.2452 39.2633 48.2143 38.6656 48.812L31.1373 56.3405C30.5394 56.9382 29.5704 56.9382 28.9725 56.3405C28.3751 55.7427 28.3751 54.7736 28.9725 54.1759L36.5011 46.6475Z" fill="#FAD808"/>
<path fill-rule="evenodd" clip-rule="evenodd" d="M29.9998 58.5638C31.7903 58.5638 33.2506 57.1036 33.2506 55.3132C33.2506 53.5228 31.7903 52.0625 29.9998 52.0625C28.2093 52.0625 26.749 53.5228 26.749 55.3132C26.749 57.1036 28.2093 58.5638 29.9998 58.5638Z" fill="#4D5C7D"/>
</svg>
