<svg width="60" height="59" viewBox="0 0 60 59" fill="none" xmlns="http://www.w3.org/2000/svg">
<path fill-rule="evenodd" clip-rule="evenodd" d="M11.1701 16.0355L11.1731 16.0304L17.194 5.14658C17.2639 5.0192 17.3667 4.91296 17.4917 4.83895C17.6168 4.76495 17.7594 4.7259 17.9047 4.72591V4.72461H42.0951V4.72591C42.2404 4.7259 42.3831 4.76495 42.5081 4.83895C42.6331 4.91296 42.736 5.0192 42.8059 5.14658L48.8268 16.0304L48.8299 16.0355C48.9119 16.1652 48.9553 16.3155 48.9551 16.4689C48.9551 18.3632 48.1873 20.0782 46.9458 21.3195C45.7043 22.5609 43.9894 23.3288 42.0951 23.3288C40.2009 23.3288 38.486 22.5609 37.2445 21.3195C36.0032 20.0781 35.2352 18.3632 35.2352 16.4689C35.2352 16.3096 35.2811 16.1609 35.3604 16.0355L35.3635 16.0304L40.6357 6.4998C40.6445 6.48443 40.649 6.46698 40.6487 6.44928C40.6485 6.43158 40.6435 6.41427 40.6343 6.39915C40.6255 6.38377 40.6128 6.37102 40.5974 6.36225C40.582 6.35347 40.5646 6.34897 40.5469 6.34923H30.9137C30.8578 6.34923 30.8122 6.3949 30.8122 6.45071V33.0145C30.8121 33.0378 30.82 33.0605 30.8347 33.0786C30.8494 33.0967 30.87 33.1091 30.8928 33.1138C32.843 33.5249 34.3069 35.2552 34.3069 37.3277C34.3069 39.7063 32.3787 41.6347 29.9999 41.6347C27.6211 41.6347 25.6929 39.7063 25.6929 37.3277C25.6929 35.2552 27.1568 33.5249 29.1069 33.1138C29.1297 33.1091 29.1503 33.0967 29.165 33.0786C29.1797 33.0605 29.1876 33.0378 29.1875 33.0145V6.45071C29.1875 6.39478 29.1419 6.34923 29.086 6.34923H19.4528C19.4159 6.34923 19.3842 6.36741 19.3654 6.39915C19.3562 6.41427 19.3512 6.43158 19.351 6.44928C19.3507 6.46698 19.3552 6.48443 19.364 6.4998L24.6362 16.0304L24.6393 16.0355C24.7213 16.1652 24.7647 16.3155 24.7645 16.4689C24.7645 18.3632 23.9967 20.0782 22.7552 21.3195C21.5137 22.5609 19.7988 23.3288 17.9046 23.3288C16.0103 23.3288 14.2954 22.5609 13.0539 21.3195C11.8125 20.0781 11.0446 18.3632 11.0446 16.4689C11.0446 16.3155 11.0881 16.1652 11.1701 16.0355ZM37.5068 15.506C37.4981 15.5214 37.4936 15.5389 37.4938 15.5566C37.4941 15.5743 37.499 15.5916 37.5083 15.6067C37.517 15.6221 37.5298 15.6348 37.5452 15.6436C37.5605 15.6524 37.578 15.6569 37.5957 15.6566H46.5945C46.6122 15.6568 46.6296 15.6523 46.645 15.6436C46.6604 15.6348 46.6731 15.622 46.6819 15.6067C46.6911 15.5916 46.6961 15.5743 46.6964 15.5566C46.6966 15.5389 46.6921 15.5214 46.6833 15.506L42.184 7.37253C42.1656 7.33937 42.1331 7.32014 42.0951 7.32014C42.0572 7.32014 42.0247 7.33937 42.0063 7.37253L37.5068 15.506ZM13.3179 15.6067C13.3267 15.6221 13.3394 15.6348 13.3548 15.6436C13.3702 15.6524 13.3876 15.6569 13.4053 15.6566H22.4041C22.4411 15.6566 22.4728 15.6384 22.4916 15.6067C22.5103 15.5749 22.5108 15.5384 22.493 15.506L17.9936 7.37265C17.9851 7.35662 17.9722 7.34326 17.9565 7.33402C17.9409 7.32478 17.923 7.32002 17.9048 7.32026C17.8669 7.32026 17.8343 7.33949 17.8159 7.37265L13.3166 15.506C13.3078 15.5214 13.3032 15.5388 13.3035 15.5565C13.3037 15.5742 13.3087 15.5916 13.3179 15.6067ZM16.8188 35.1045C16.8292 35.1157 16.8368 35.1291 16.8411 35.1437C16.8454 35.1583 16.8463 35.1737 16.8436 35.1887C16.6151 36.6054 16.6152 38.0496 16.844 39.4663C16.8466 39.4813 16.8458 39.4967 16.8415 39.5113C16.8372 39.5259 16.8295 39.5393 16.8192 39.5504L15.8688 40.6059L14.0733 42.6001C13.8521 42.8459 13.8157 43.1912 13.9811 43.4777L15.3227 45.8016L16.6645 48.1255C16.8298 48.4119 17.1471 48.5532 17.4707 48.4844L20.0955 47.9264L21.4857 47.6309C21.5006 47.6276 21.5161 47.6277 21.5309 47.6313C21.5457 47.6349 21.5595 47.6418 21.5712 47.6516C22.6823 48.5605 23.9331 49.2837 25.2751 49.7932C25.2894 49.7984 25.3023 49.8068 25.3128 49.8178C25.3233 49.8288 25.3311 49.8421 25.3356 49.8567L25.7735 51.2045L26.6027 53.7566C26.7049 54.0711 26.986 54.2753 27.3166 54.2753H32.6833C33.0141 54.2753 33.2951 54.0711 33.3972 53.7566L34.2264 51.2045L34.6646 49.8558C34.669 49.8413 34.6768 49.828 34.6873 49.8169C34.6978 49.8059 34.7108 49.7975 34.7251 49.7923C36.0665 49.2828 37.3168 48.5597 38.4275 47.6512C38.4391 47.6414 38.4529 47.6344 38.4677 47.6308C38.4825 47.6272 38.4979 47.6271 38.5128 47.6305L39.9044 47.9263L42.5292 48.4843C42.8527 48.5531 43.1699 48.4118 43.3353 48.1254L44.6771 45.8015L46.0188 43.4776C46.1841 43.1912 46.1479 42.8458 45.9265 42.6L44.131 40.6058L43.181 39.5507C43.1597 39.5271 43.1511 39.4979 43.1562 39.4665C43.2685 38.7702 43.3275 38.0557 43.3275 37.3275C43.3275 36.5994 43.2687 35.8849 43.1562 35.1886C43.1536 35.1736 43.1544 35.1582 43.1587 35.1436C43.163 35.129 43.1706 35.1156 43.181 35.1044L44.131 34.0494L45.9265 32.0552C46.1479 31.8093 46.1841 31.464 46.0188 31.1776L44.8825 29.2096C44.8738 29.194 44.8611 29.1811 44.8456 29.1721C44.8301 29.1632 44.8125 29.1586 44.7946 29.1589H38.9264C38.8704 29.1589 38.8248 29.2044 38.8248 29.2603V32.8033C38.8246 32.8193 38.8284 32.8351 38.8358 32.8493C39.519 34.1942 39.9042 35.7158 39.9042 37.3275C39.9042 42.7977 35.4698 47.232 29.9997 47.232C24.5295 47.232 20.0951 42.7977 20.0951 37.3275C20.0951 35.7158 20.4804 34.1943 21.1635 32.8494C21.1709 32.8353 21.1746 32.8195 21.1745 32.8035V29.2603C21.1745 29.2044 21.1289 29.1589 21.073 29.1589H15.2048C15.1675 29.1589 15.1356 29.1774 15.1169 29.2096L13.9807 31.1776C13.8154 31.4641 13.8517 31.8094 14.073 32.0552L15.8685 34.0494L16.8188 35.1045Z" fill="#2A00A8"/>
</svg>
