<svg width="60" height="60" viewBox="0 0 60 60" fill="none" xmlns="http://www.w3.org/2000/svg">
<g clip-path="url(#clip0_538_7094)">
<path d="M36.8555 33.0689H2.72145C1.21852 33.0689 0 31.8502 0 30.3473V2.72145C0 1.21852 1.21852 0 2.72145 0H36.8555C38.3583 0 39.5769 1.21852 39.5769 2.72145V30.3475C39.5769 31.8503 38.3583 33.0689 36.8555 33.0689Z" fill="#D9E0ED"/>
<path d="M36.8555 0H34.1318V7.68949C34.1318 19.5328 24.5306 29.1339 12.6874 29.1339H0V30.3475C0 31.8503 1.21852 33.0688 2.72145 33.0688H36.855C38.3583 33.0688 39.5769 31.8503 39.5769 30.3475V2.72145C39.5769 1.21852 38.3583 0 36.8555 0Z" fill="#CFD6E5"/>
<path d="M35.2636 26.0192H4.31389C4.19363 26.0216 4.07412 25.9999 3.96233 25.9555C3.85054 25.9112 3.74873 25.8449 3.66285 25.7607C3.57696 25.6765 3.50874 25.576 3.46217 25.4651C3.41559 25.3542 3.3916 25.2352 3.3916 25.1149C3.3916 24.9946 3.41559 24.8756 3.46217 24.7647C3.50874 24.6538 3.57696 24.5533 3.66285 24.4691C3.74873 24.3849 3.85054 24.3186 3.96233 24.2743C4.07412 24.2299 4.19363 24.2083 4.31389 24.2106H35.2637C35.7636 24.2106 36.1683 24.6153 36.1683 25.1146C36.1683 25.6139 35.7631 26.0193 35.2637 26.0193L35.2636 26.0192ZM20.2458 29.5197H4.31377C3.81385 29.5197 3.40908 29.115 3.40908 28.6157C3.40908 28.1164 3.81432 27.711 4.31377 27.711H20.2458C20.3657 27.7091 20.4849 27.731 20.5963 27.7756C20.7077 27.8202 20.8092 27.8865 20.8947 27.9707C20.9802 28.0548 21.0482 28.1552 21.0945 28.2659C21.1409 28.3766 21.1648 28.4954 21.1648 28.6154C21.1648 28.7354 21.1409 28.8542 21.0945 28.9648C21.0482 29.0755 20.9802 29.1759 20.8947 29.26C20.8092 29.3442 20.7077 29.4105 20.5963 29.4551C20.4849 29.4997 20.3657 29.5216 20.2458 29.5197Z" fill="#86A4B7"/>
<path d="M5.46523 16.5861C5.34128 16.5863 5.21862 16.561 5.1049 16.5117C4.99118 16.4624 4.88884 16.3902 4.80429 16.2996C4.64048 16.1243 4.55299 15.8912 4.56106 15.6514C4.56912 15.4116 4.67208 15.1849 4.8473 15.0211L10.9177 9.34472C11.0559 9.21555 11.231 9.13292 11.4186 9.10845C11.6061 9.08399 11.7966 9.11891 11.9633 9.20832L17.9019 12.398L22.5755 6.67367C22.6568 6.57421 22.7583 6.49318 22.8733 6.43596C22.9884 6.37874 23.1142 6.34664 23.2426 6.34179C23.371 6.33709 23.499 6.3598 23.6181 6.40842C23.7371 6.45704 23.8444 6.53044 23.9328 6.62375L28.2423 11.173L33.8636 4.20312C34.0142 4.01644 34.2327 3.8972 34.4712 3.87162C34.7096 3.84604 34.9485 3.91621 35.1352 4.06672C35.3219 4.21734 35.4411 4.43594 35.4665 4.67443C35.492 4.91291 35.4218 5.15176 35.2712 5.33843L29.0008 13.1135C28.9199 13.2139 28.8185 13.2959 28.7033 13.3539C28.5881 13.4119 28.4618 13.4446 28.3329 13.4498C28.204 13.4549 28.0756 13.4324 27.9561 13.3838C27.8366 13.3352 27.7289 13.2616 27.6403 13.168L23.3264 8.61406L18.8315 14.1192C18.6988 14.2819 18.5136 14.3933 18.3077 14.4343C18.1018 14.4753 17.888 14.4434 17.7031 14.3439L11.6794 11.109L6.08234 16.3421C5.91522 16.499 5.69445 16.5863 5.46523 16.5861Z" fill="#7885ED"/>
<path d="M7.12266 15.6816C7.12266 16.5967 6.38063 17.3387 5.46562 17.3387C4.55051 17.3387 3.80859 16.5967 3.80859 15.6817C3.80859 14.7667 4.55051 14.025 5.46562 14.025C6.38063 14.025 7.12266 14.7666 7.12266 15.6816ZM13.1931 10.0054C13.1931 10.9204 12.4515 11.662 11.5364 11.662C10.6213 11.662 9.87937 10.9204 9.87937 10.0054C9.87937 9.09035 10.6214 8.34832 11.5364 8.34832C12.4514 8.34832 13.1931 9.09023 13.1931 10.0054ZM19.7886 13.5475C19.7886 14.4627 19.047 15.2046 18.132 15.2046C17.217 15.2046 16.4748 14.4626 16.4748 13.5476C16.4748 12.6323 17.2168 11.8909 18.1318 11.8909C19.0468 11.8909 19.7885 12.6325 19.7885 13.5475H19.7886ZM24.9339 7.24594C24.9339 8.16105 24.1918 8.90262 23.2767 8.90262C22.3616 8.90262 21.62 8.16105 21.62 7.24594C21.62 6.33082 22.3616 5.58891 23.2767 5.58891C24.1918 5.58891 24.9338 6.33082 24.9338 7.24594H24.9339ZM29.9546 12.546C29.9546 13.461 29.2125 14.203 28.2975 14.203C27.3825 14.203 26.6408 13.461 26.6408 12.546C26.6408 11.631 27.3824 10.8893 28.2975 10.8893C29.2126 10.8893 29.9545 11.6309 29.9545 12.546H29.9546ZM36.216 4.80656C36.216 5.72156 35.4742 6.46312 34.5592 6.46312C33.6442 6.46312 32.9021 5.72156 32.9021 4.80656C32.9021 3.89156 33.6442 3.14941 34.5592 3.14941C35.4742 3.14941 36.2159 3.89145 36.2159 4.80645L36.216 4.80656Z" fill="#FFA91E"/>
<path d="M18.8648 54.3674V57.7956C18.8648 58.5284 18.2693 59.1236 17.5346 59.1236H1.33031C0.595547 59.1236 0 58.5282 0 57.7956V54.3674C0 51.3626 2.43668 48.9287 5.44195 48.9287H13.4235C16.4282 48.9287 18.8648 51.3626 18.8648 54.3674Z" fill="#7885ED"/>
<path d="M6.11586 56.2318V59.1235H3.96289V56.2318C3.96289 55.6367 4.44547 55.156 5.03914 55.156C5.63328 55.156 6.11586 55.6367 6.11586 56.2318Z" fill="#676FCE"/>
<path d="M12.9491 48.9285V49.3744C12.9491 50.5018 12.0336 51.4169 10.9056 51.4169H7.95953C6.8316 51.4169 5.91602 50.5018 5.91602 49.3744V48.9285H12.9491Z" fill="#5656B2"/>
<path d="M14.8565 56.2318V59.1235H12.7041V56.2318C12.7041 55.6367 13.1862 55.156 13.7804 55.156C13.9217 55.1558 14.0617 55.1835 14.1923 55.2375C14.323 55.2915 14.4417 55.3707 14.5416 55.4706C14.6416 55.5706 14.7208 55.6892 14.7749 55.8198C14.8289 55.9505 14.8566 56.0904 14.8565 56.2318Z" fill="#676FCE"/>
<path d="M10.4413 50.3261H8.42391C7.65164 50.3261 7.02539 49.6997 7.02539 48.9276V45.5894H11.8402V48.9274C11.8402 49.6997 11.2139 50.3258 10.4413 50.3258V50.3261Z" fill="#FCC1B9"/>
<path d="M14.4873 36.7158V41.5292C14.4873 44.3188 12.2241 46.5806 9.43309 46.5806C6.64168 46.5806 4.37891 44.3188 4.37891 41.5292V36.7158C4.37891 34.7007 6.0132 33.0688 8.02812 33.0688H10.8379C12.854 33.0688 14.4873 34.7008 14.4873 36.7158Z" fill="#FCC1B9"/>
<path d="M14.4873 36.716V37.7546C14.4873 40.5437 12.2241 42.8055 9.43309 42.8055C6.64168 42.8055 4.37891 40.5438 4.37891 37.7546V36.716C4.37891 34.7008 6.0132 33.0688 8.02812 33.0688H10.8379C12.854 33.0688 14.4873 34.7008 14.4873 36.716Z" fill="#354968"/>
<path d="M37.7292 54.3674V57.7956C37.7292 58.5284 37.1338 59.1236 36.3991 59.1236H20.1946C19.4598 59.1236 18.8643 58.5284 18.8643 57.7956V54.3674C18.8643 51.3626 21.3009 48.9287 24.3057 48.9287H32.2877C35.2925 48.9287 37.7292 51.3626 37.7292 54.3674Z" fill="#48BBED"/>
<path d="M24.9805 56.2318V59.1235H22.8281V56.2318C22.8281 55.6367 23.3101 55.156 23.9043 55.156C24.4984 55.156 24.9805 55.6367 24.9805 56.2318Z" fill="#009BE6"/>
<path d="M31.8143 48.9285V49.3744C31.8143 50.5018 30.8988 51.4169 29.7709 51.4169H26.8248C25.6967 51.4169 24.7812 50.5018 24.7812 49.3744V48.9285H31.8143Z" fill="#0082BD"/>
<path d="M33.7207 56.2318V59.1235H31.5684V56.2318C31.5684 55.6367 32.0508 55.156 32.6445 55.156C32.7859 55.1558 32.9259 55.1835 33.0565 55.2374C33.1871 55.2914 33.3059 55.3707 33.4058 55.4706C33.5058 55.5705 33.5851 55.6892 33.6391 55.8198C33.6932 55.9504 33.7209 56.0904 33.7207 56.2318Z" fill="#009BE6"/>
<path d="M29.3064 50.3261H27.289C26.5168 50.3261 25.8906 49.6997 25.8906 48.9276V45.5894H30.7054V48.9274C30.7054 49.6997 30.0791 50.3258 29.3064 50.3258V50.3261Z" fill="#FCC1B9"/>
<path d="M33.3515 36.7163V41.5292C33.3515 44.3188 31.0883 46.5806 28.2972 46.5806C25.5058 46.5806 23.2432 44.3188 23.2432 41.5292V36.7163C23.2432 34.7012 24.8773 33.0688 26.8924 33.0688H29.7022C31.7182 33.0688 33.3515 34.7013 33.3515 36.7163Z" fill="#FCC1B9"/>
<path d="M33.3515 36.7164V37.7546C33.3515 40.5442 31.0883 42.806 28.2972 42.806C25.5058 42.806 23.2432 40.5442 23.2432 37.7546V36.7163C23.2432 34.7013 24.8773 33.0688 26.8924 33.0688H29.7022C31.7182 33.0688 33.3514 34.7013 33.3514 36.7163L33.3515 36.7164Z" fill="#354968"/>
<path d="M28.1046 14.7892V17.1003C28.1046 18.3431 29.1117 19.3503 30.3537 19.3503H44.7506C44.7965 19.3502 44.8419 19.3592 44.8842 19.3767C44.9266 19.3941 44.9651 19.4198 44.9975 19.4522C45.0299 19.4846 45.0556 19.5231 45.0731 19.5655C45.0906 19.6078 45.0996 19.6532 45.0995 19.6991V33.0456H56.2799C58.3338 33.0456 60.0001 31.3794 60.0001 29.3253V18.6206C60.0001 16.5038 58.2839 14.7886 56.1669 14.7886H28.1045L28.1046 14.7892Z" fill="#48BBED"/>
<path d="M54.3096 21.5987V33.0456H56.1928V21.5987C56.1928 21.0791 55.7709 20.657 55.2512 20.657C54.7317 20.657 54.3096 21.0791 54.3096 21.5987Z" fill="#009BE6"/>
<path d="M53.2369 11.6758V14.7556C53.2369 15.9938 52.2326 16.9982 50.993 16.9982C49.7543 16.9982 48.75 15.9939 48.75 14.7556V11.6758H53.2369Z" fill="#FCC1B9"/>
<path d="M53.2369 11.6758V13.2674C52.5623 13.622 51.8113 13.8066 51.0492 13.8053C50.2441 13.8067 49.4523 13.6006 48.75 13.207V11.6758H53.2369Z" fill="#F2AA99"/>
<path d="M51.0497 12.5996C53.6507 12.5996 55.7597 10.4906 55.7597 7.88955V2.45451C55.7597 1.09912 54.6611 0.000488281 53.3056 0.000488281H48.7939C47.4385 0.000488281 46.3398 1.09912 46.3398 2.45451V7.88967C46.3398 10.491 48.4483 12.5996 51.0497 12.5996Z" fill="#FCC1B9"/>
<path d="M46.3389 2.45449V6.85406C46.3389 5.51191 47.4159 4.42195 48.7508 4.40051C48.7645 4.3991 48.7796 4.3991 48.7934 4.3991H53.306C54.6606 4.3991 55.7592 5.49773 55.7592 6.85418V2.45438C55.7592 1.09863 54.6606 0 53.306 0H48.7934C47.4389 0 46.3389 1.09863 46.3389 2.45449Z" fill="#354968"/>
<path d="M48.75 3.42769V4.40034C48.7637 4.39917 48.7788 4.39917 48.7925 4.39917H50.6332V3.42769C50.6333 3.30401 50.609 3.18153 50.5617 3.06726C50.5144 2.95298 50.445 2.84915 50.3576 2.7617C50.2701 2.67425 50.1663 2.60489 50.052 2.5576C49.9378 2.51031 49.8153 2.48601 49.6916 2.48608C49.5679 2.48601 49.4454 2.51031 49.3312 2.5576C49.2169 2.60489 49.1131 2.67425 49.0256 2.7617C48.9382 2.84915 48.8688 2.95298 48.8215 3.06726C48.7742 3.18153 48.7499 3.30401 48.75 3.42769Z" fill="#2A3A51"/>
<path d="M45.1006 33.0444H55.2514V58.693H45.1006V33.0444Z" fill="#354968"/>
<path d="M53.3426 36.193V41.0069C53.333 42.9372 52.7965 44.1549 52.2825 44.9244C51.7341 45.7451 51.2525 45.9928 51.0163 46.884C50.6716 48.1851 51.377 48.8662 50.9261 49.5972C50.4561 50.3581 49.1358 50.5178 48.2876 50.3261C46.5774 49.9396 45.2663 47.7836 45.1006 44.9257V33.0444H51.535C52.6166 33.6776 53.3426 34.8495 53.3426 36.193Z" fill="#2A3A51"/>
<path d="M56.5948 54.3674V57.7956C56.5948 58.5284 55.9993 59.1236 55.2646 59.1236H39.0598C38.325 59.1236 37.7295 58.5284 37.7295 57.7956V54.3674C37.7295 51.3626 40.1662 48.9287 43.1713 48.9287H51.153C54.1581 48.9287 56.5948 51.3626 56.5948 54.3674Z" fill="#7885ED"/>
<path d="M43.8451 56.2318V59.1235H41.6924V56.2318C41.6924 55.6367 42.1748 55.156 42.769 55.156C43.3627 55.156 43.8451 55.6367 43.8451 56.2318Z" fill="#676FCE"/>
<path d="M50.6785 48.9285V49.3744C50.6785 50.5018 49.763 51.4169 48.6351 51.4169H45.689C44.5611 51.4169 43.6455 50.5018 43.6455 49.3744V48.9285H50.6785Z" fill="#5656B2"/>
<path d="M52.586 56.2318V59.1235H50.4336V56.2318C50.4336 55.6367 50.9156 55.156 51.5098 55.156C51.6512 55.1558 51.7912 55.1835 51.9218 55.2375C52.0524 55.2915 52.1711 55.3707 52.2711 55.4706C52.3711 55.5706 52.4503 55.6892 52.5044 55.8198C52.5584 55.9505 52.5861 56.0904 52.586 56.2318Z" fill="#676FCE"/>
<path d="M48.1708 50.3261H46.1539C45.3811 50.3261 44.7549 49.6997 44.7549 48.9276V45.5894H49.5696V48.9274C49.5696 49.6997 48.9434 50.3258 48.1708 50.3258V50.3261Z" fill="#FCC1B9"/>
<path d="M52.2168 36.7159V41.5293C52.2168 44.3189 49.9536 46.5806 47.1626 46.5806C44.3715 46.5806 42.1084 44.3189 42.1084 41.5293V36.7159C42.1084 34.7008 43.7432 33.6799 45.7576 33.6799H48.5674C50.5839 33.6799 52.2168 34.7008 52.2168 36.7159Z" fill="#FCC1B9"/>
<path d="M52.2168 36.716V37.7546C52.2168 40.5437 49.9536 42.8055 47.1626 42.8055C44.3715 42.8055 42.1084 40.5438 42.1084 37.7546V36.716C42.1084 34.7008 43.7432 33.0688 45.7576 33.0688H48.5674C50.5839 33.0688 52.2168 34.7008 52.2168 36.716Z" fill="#354968"/>
</g>
<defs>
<clipPath id="clip0_538_7094">
<rect width="60" height="60" fill="white"/>
</clipPath>
</defs>
</svg>
