<svg width="60" height="60" viewBox="0 0 60 60" fill="none" xmlns="http://www.w3.org/2000/svg">
<g clip-path="url(#clip0_538_7133)">
<path d="M35.344 47.1178V35.5259H30.0609V39.1656H18.2043C16.9359 39.1766 15.9102 40.2023 15.9102 41.4707V47.1288C15.9102 50.206 18.4028 52.6987 21.48 52.6987H29.7852C32.8624 52.6876 35.355 50.195 35.344 47.1178Z" fill="#1F315F"/>
<path d="M30.0727 53.0516C29.9845 50.9449 28.2639 49.2905 26.1573 49.2905H25.1095C23.0029 49.2905 21.2823 50.956 21.2051 53.0626L30.0727 53.0516Z" fill="#EFCDB1"/>
<path d="M25.6286 49.2355C25.2646 49.2244 24.9778 48.9377 24.9668 48.5737V43.9965C24.9668 43.6325 25.2646 43.3347 25.6286 43.3347C25.9925 43.3347 26.2903 43.6325 26.2903 43.9965V48.5737C26.3014 48.9377 26.0146 49.2244 25.6506 49.2355H25.6396H25.6286Z" fill="#414042"/>
<path d="M30.0838 56.0736V53.0515H21.2051V56.0736C21.1941 58.2353 22.9478 59.989 25.1095 60H26.1684C28.3301 59.989 30.0838 58.2353 30.0838 56.0736Z" fill="#8A5D3B"/>
<path d="M30.0719 45.2537C29.7079 45.2537 29.4102 44.9559 29.4102 44.5919V39.7279C29.4102 39.364 29.7079 39.0662 30.0719 39.0662C30.4359 39.0662 30.7337 39.364 30.7337 39.7279V44.5919C30.7337 44.9559 30.4359 45.2537 30.0719 45.2537Z" fill="#192A4F"/>
<path d="M35.3326 35.5258V32.6361C35.3326 31.9192 34.7591 31.3457 34.0422 31.3457H31.351C30.6341 31.3457 30.0605 31.9192 30.0605 32.6361V35.5258H35.3326Z" fill="#EFCDB1"/>
<path d="M49.5725 31.7758L38.6534 27.8604L36.8666 32.8346L40.2968 34.0589L36.2931 45.2317C35.863 46.4229 36.4806 47.7354 37.6718 48.1655L42.999 50.0736C45.8997 51.1104 49.0872 49.6104 50.124 46.7096L52.9255 38.9008C53.9622 36.0111 52.4622 32.8236 49.5725 31.7758Z" fill="#89C45E"/>
<path d="M53.3556 38.7575C51.3482 38.1178 49.1975 39.1766 48.4916 41.1619L48.1386 42.1435C47.4328 44.1288 48.4144 46.3127 50.3666 47.1068L53.3556 38.7575Z" fill="#EFCDB1"/>
<path d="M47.6423 42.0774C47.565 42.0774 47.4878 42.0664 47.4217 42.0333L43.1092 40.4892C42.7672 40.3679 42.5908 39.9818 42.7121 39.6399C42.8334 39.298 43.1974 39.1215 43.5393 39.2429H43.5503L47.8628 40.787C48.2048 40.8973 48.4033 41.2723 48.282 41.6252C48.1937 41.901 47.929 42.0885 47.6423 42.0774Z" fill="#414042"/>
<path d="M56.2128 39.7723L53.5106 38.8017L53.3562 38.7576L50.3672 47.1068L50.5106 47.162L53.2128 48.1326C55.2532 48.8605 57.4922 47.8017 58.2201 45.7612L58.5731 44.7796C59.301 42.7502 58.2422 40.5112 56.2128 39.7723Z" fill="#8A5D3B"/>
<path d="M45.3933 36.5516L45.1727 36.5186L40.5955 34.8752C40.2536 34.7539 40.0771 34.3678 40.1984 34.0259C40.3198 33.684 40.7058 33.5075 41.0477 33.6288L45.6249 35.2722C45.9668 35.3936 46.1433 35.7575 46.022 36.0994V36.1105C45.9227 36.3752 45.68 36.5516 45.3933 36.5516Z" fill="#75AA4D"/>
<path d="M38.6528 27.8603L35.9286 26.8898C35.2558 26.6471 34.5168 27 34.2741 27.6618V27.6728L33.3697 30.1986C33.1271 30.8714 33.48 31.6103 34.1418 31.853H34.1528L36.8661 32.8346L38.6528 27.8603Z" fill="#EFCDB1"/>
<path d="M39.9872 14.0405L33.127 23.3935L37.3843 26.5148L39.535 23.581L49.0975 30.5957C50.1233 31.3457 51.5571 31.1251 52.3071 30.0994L55.66 25.5332C57.4799 23.0516 56.9395 19.5663 54.4578 17.7464L47.763 12.8383C45.2814 11.0295 41.8071 11.5699 39.9872 14.0405Z" fill="#FDC00F"/>
<path d="M47.7519 12.3862C46.5718 14.1289 46.9799 16.4892 48.6784 17.7355L49.5166 18.3531C51.2152 19.5884 53.5865 19.2796 54.899 17.6362L47.7519 12.3862Z" fill="#EFCDB1"/>
<path d="M45.9666 22.9744C45.8233 22.9744 45.6909 22.9303 45.5806 22.8531C45.2828 22.6325 45.2166 22.2244 45.4372 21.9266L48.1394 18.2317C48.36 17.9339 48.7681 17.8678 49.0659 18.0884C49.3637 18.3089 49.4299 18.717 49.2093 19.0148L46.4961 22.7097C46.3747 22.8751 46.1762 22.9744 45.9666 22.9744Z" fill="#414042"/>
<path d="M49.5277 9.94864L47.8292 12.2648L47.752 12.3861L54.899 17.6361L54.9983 17.5148L56.6968 15.1876C57.9762 13.445 57.5902 10.9964 55.8475 9.71702L55.0093 9.09937C53.2667 7.81996 50.8181 8.19496 49.5387 9.93761C49.5277 9.93761 49.5277 9.94864 49.5277 9.94864Z" fill="#8A5D3B"/>
<path d="M39.8671 23.7905C39.7237 23.7905 39.5914 23.7464 39.47 23.6691C39.1722 23.4486 39.1171 23.0405 39.3377 22.7427L42.2053 18.8162C42.4259 18.5184 42.834 18.4522 43.1318 18.6728C43.4296 18.8934 43.4958 19.3015 43.2752 19.5993L40.3965 23.5258C40.2752 23.6912 40.0766 23.7905 39.8671 23.7905Z" fill="#E5A60A"/>
<path d="M33.1267 23.3936L31.4171 25.7208C30.998 26.2943 31.1194 27.0994 31.6929 27.5296L33.8657 29.1178C34.4392 29.5369 35.2444 29.4156 35.6745 28.8421L37.3841 26.5149L33.1267 23.3936Z" fill="#EFCDB1"/>
<path d="M17.2344 37.82L27.9991 33.4965L26.0359 28.5995L22.6499 29.9561L18.2271 18.9487C17.7638 17.7796 16.4403 17.195 15.2602 17.6583C15.2602 17.6583 15.2491 17.6583 15.2491 17.6693L9.98811 19.787C7.14252 20.934 5.76385 24.1767 6.89988 27.0222L9.99914 34.7208C11.1352 37.5774 14.3668 38.9671 17.2234 37.82H17.2344Z" fill="#02648E"/>
<path d="M9.76654 35.1288C11.6857 34.2685 12.5901 32.0406 11.807 30.0884L11.4099 29.1178C10.6268 27.1656 8.44301 26.184 6.46875 26.8899L9.76654 35.1288Z" fill="#EFCDB1"/>
<path d="M12.2709 30.0001C12.0062 30.0001 11.7636 29.8347 11.6643 29.581C11.5319 29.2391 11.6864 28.853 12.0283 28.7207L16.2746 27.0111C16.6165 26.8788 17.0025 27.0442 17.1459 27.3861C17.2783 27.728 17.1128 28.1141 16.7709 28.2464L12.5246 29.956C12.4474 29.9891 12.3592 30.0001 12.2709 30.0001Z" fill="#414042"/>
<path d="M6.96587 36.2539L9.63499 35.184L9.76734 35.1289L6.46955 26.8899L6.31514 26.945L3.65705 28.0149C1.6497 28.82 0.679109 31.1031 1.48426 33.1105L1.87029 34.0811C2.67543 36.0884 4.95852 37.059 6.96587 36.2539Z" fill="#8A5D3B"/>
<path d="M17.6323 32.6361C17.2683 32.6471 16.9595 32.3603 16.9595 31.9964C16.9484 31.7206 17.1249 31.467 17.3786 31.3567L21.8896 29.5478C22.2315 29.4155 22.6176 29.5699 22.7499 29.9118C22.8933 30.2427 22.7389 30.6287 22.408 30.7611C22.397 30.7611 22.397 30.7611 22.3859 30.7721L17.8749 32.592C17.7977 32.6251 17.7205 32.6361 17.6323 32.6361Z" fill="#345493"/>
<path d="M27.9984 33.4964L30.6785 32.4155C31.3403 32.1508 31.6602 31.4008 31.3954 30.7391L30.3918 28.2354C30.1271 27.5736 29.3771 27.2538 28.7153 27.5185L26.0352 28.5994L27.9984 33.4964Z" fill="#EFCDB1"/>
<path d="M19.1421 17.0406L25.5723 26.6913L29.962 23.7685L27.9436 20.7465L37.8259 14.1729C38.8737 13.4671 39.1605 12.0443 38.4546 10.9854L35.3223 6.27587C33.6127 3.71705 30.1605 3.0222 27.6017 4.72073L20.6973 9.31999C18.1384 11.0185 17.4436 14.4818 19.1421 17.0406Z" fill="#BE1E2D"/>
<path d="M20.2559 9.18767C21.4912 10.8862 23.8404 11.3163 25.5941 10.1472L26.4654 9.5737C28.2191 8.41561 28.7485 6.06635 27.6456 4.26855L20.2559 9.18767Z" fill="#EFCDB1"/>
<path d="M28.9695 14.934C28.749 14.934 28.5394 14.8237 28.4181 14.6362L25.8813 10.82C25.6607 10.5222 25.7269 10.1141 26.0137 9.89351C26.3114 9.67292 26.7195 9.7391 26.9401 10.0259C26.9512 10.0479 26.9732 10.07 26.9842 10.092L29.521 13.8972C29.7195 14.206 29.6423 14.6141 29.3335 14.8237C29.2232 14.8898 29.1019 14.934 28.9695 14.934Z" fill="#414042"/>
<path d="M18.5797 6.66186L20.1679 9.05525L20.2561 9.1876L27.6458 4.26848L27.5576 4.13613L25.9694 1.74275C24.7672 -0.0550486 22.3297 -0.540343 20.5319 0.661863L19.6716 1.23539C17.8738 2.42657 17.3775 4.84201 18.5686 6.65083L18.5797 6.66186Z" fill="#8A5D3B"/>
<path d="M27.6342 20.9449C27.4136 20.9449 27.2041 20.8346 27.0827 20.6471L24.3916 16.5993C24.182 16.2905 24.2702 15.8824 24.5791 15.6839C24.8879 15.4743 25.296 15.5625 25.4945 15.8603L28.1857 19.9081C28.3842 20.2059 28.307 20.614 28.0202 20.8125C28.0092 20.8125 28.0092 20.8236 27.9982 20.8236C27.8879 20.9008 27.7666 20.9449 27.6342 20.9449Z" fill="#AA1729"/>
<path d="M25.5723 26.6913L27.1715 29.0958C27.5576 29.6913 28.3517 29.8568 28.9362 29.4708C28.9473 29.4708 28.9473 29.4597 28.9583 29.4597L31.2083 27.9708C31.8039 27.5737 31.9583 26.7686 31.5612 26.173L29.962 23.7686L25.5723 26.6913Z" fill="#EFCDB1"/>
</g>
<defs>
<clipPath id="clip0_538_7133">
<rect width="60" height="60" fill="white"/>
</clipPath>
</defs>
</svg>
