<svg width="257" height="129" viewBox="0 0 257 129" fill="none" xmlns="http://www.w3.org/2000/svg">
<path opacity="0.25" d="M257 123L247 117.226V128.773L257 123ZM0 0V4.70833H2V0H0ZM0 9.41667V18.8333H2V9.41667H0ZM0 23.5417V32.9583H2V23.5417H0ZM0 37.6667V47.0833H2V37.6667H0ZM0 51.7917V61.2083H2V51.7917H0ZM0 65.9167V75.3333H2V65.9167H0ZM0 80.0417V89.4583H2V80.0417H0ZM0 94.1667V103.583H2V94.1667H0ZM0 108.292V113H2V108.292H0ZM0 113C0 115.002 0.535885 116.882 1.47272 118.502L3.20384 117.5C2.43841 116.177 2 114.641 2 113H0ZM5.4984 122.527C7.11757 123.464 8.99772 124 11 124V122C9.35875 122 7.82293 121.562 6.50001 120.796L5.4984 122.527ZM11 124H16.125V122H11V124ZM21.25 124H31.5V122H21.25V124ZM36.625 124H46.875V122H36.625V124ZM52 124H62.25V122H52V124ZM67.375 124H77.625V122H67.375V124ZM82.75 124H93V122H82.75V124ZM98.125 124H108.375V122H98.125V124ZM113.5 124H123.75V122H113.5V124ZM128.875 124H139.125V122H128.875V124ZM144.25 124H154.5V122H144.25V124ZM159.625 124H169.875V122H159.625V124ZM175 124H185.25V122H175V124ZM190.375 124H200.625V122H190.375V124ZM205.75 124H216V122H205.75V124ZM221.125 124H231.375V122H221.125V124ZM236.5 124H246.75V122H236.5V124Z" fill="#50298A"/>
</svg>
