<svg width="257" height="151" viewBox="0 0 257 151" fill="none" xmlns="http://www.w3.org/2000/svg">
<path opacity="0.25" d="M0 145L10 139.227V150.774L0 145ZM257 0V5H255V0H257ZM257 10V20H255V10H257ZM257 25V35H255V25H257ZM257 40V50H255V40H257ZM257 55V65H255V55H257ZM257 70V80H255V70H257ZM257 85V95H255V85H257ZM257 100V110H255V100H257ZM257 115V125H255V115H257ZM257 130V135H255V130H257ZM257 135C257 137.002 256.464 138.882 255.527 140.502L253.796 139.5C254.562 138.177 255 136.641 255 135H257ZM251.502 144.527C249.882 145.464 248.002 146 246 146V144C247.641 144 249.177 143.562 250.5 142.796L251.502 144.527ZM246 146H240.875V144H246V146ZM235.75 146H225.5V144H235.75V146ZM220.375 146H210.125V144H220.375V146ZM205 146H194.75V144H205V146ZM189.625 146H179.375V144H189.625V146ZM174.25 146H164V144H174.25V146ZM158.875 146H148.625V144H158.875V146ZM143.5 146H133.25V144H143.5V146ZM128.125 146H117.875V144H128.125V146ZM112.75 146H102.5V144H112.75V146ZM97.375 146H87.125V144H97.375V146ZM82 146H71.75V144H82V146ZM66.625 146H56.375V144H66.625V146ZM51.25 146H41V144H51.25V146ZM35.875 146H25.625V144H35.875V146ZM20.5 146H10.25V144H20.5V146Z" fill="#74B329"/>
</svg>
