<svg width="60" height="60" viewBox="0 0 60 60" fill="none" xmlns="http://www.w3.org/2000/svg">
<path d="M16.9149 30.4552L15.2438 32.0235C14.5324 32.6912 14.0555 33.5235 13.8317 34.4141H2.54574C2.36773 34.4141 2.21445 34.3432 2.09914 34.2075C1.98394 34.0718 1.93859 33.9093 1.96742 33.7335C2.92625 27.8774 8.00949 23.4086 14.1368 23.4086C16.1443 23.4086 18.0397 23.8883 19.7146 24.7393C18.7616 25.4134 18.0598 26.4259 17.7761 27.6373L17.2535 29.8685C17.195 30.1181 17.1018 30.2797 16.9149 30.4552ZM58.0333 33.7335C57.0744 27.8774 51.9912 23.4087 45.864 23.4087C43.8566 23.4087 41.9612 23.8884 40.2861 24.7393C41.2392 25.4135 41.9409 26.426 42.2246 27.6373L42.7473 29.8685C42.8057 30.1181 42.899 30.2797 43.0859 30.455L44.7569 32.0234C45.4684 32.6911 45.9452 33.5234 46.169 34.414H57.455C57.5401 34.4144 57.6242 34.3962 57.7015 34.3607C57.7788 34.3251 57.8474 34.2731 57.9025 34.2083C57.9576 34.1435 57.9979 34.0674 58.0205 33.9854C58.0431 33.9033 58.0474 33.8174 58.0333 33.7335ZM30.0005 15.9122C34.0386 15.9122 37.3121 12.6387 37.3121 8.60063C37.3121 4.56258 34.0386 1.28906 30.0005 1.28906C25.9625 1.28906 22.689 4.56258 22.689 8.60063C22.689 12.6387 25.9625 15.9122 30.0005 15.9122ZM39.7218 48.8865C39.5568 48.9763 39.4414 49.0881 39.3277 49.2619L38.0734 51.1798C37.0184 52.7927 35.173 53.6161 33.3159 53.3665L35.7311 58.5541C35.8237 58.7531 36.1011 58.7655 36.2114 58.5759L38.3076 54.9687L42.4175 55.6868C42.6339 55.7246 42.8028 55.5043 42.71 55.3052L39.7218 48.8865ZM34.1605 35.7319L31.8539 35.7363C31.5883 35.7368 31.3625 35.5727 31.2808 35.32L30.5723 33.1249C30.3944 32.5739 29.6066 32.574 29.4287 33.1249L28.7202 35.3201C28.6386 35.5729 28.4127 35.7369 28.1471 35.7363L25.8405 35.7319C25.2581 35.7308 25.0153 36.4781 25.4871 36.8196L27.3557 38.1718C27.5709 38.3276 27.6571 38.593 27.5746 38.8454L26.8577 41.0378C26.6769 41.5905 27.3131 42.0527 27.783 41.71L29.6465 40.3506C29.8611 40.1941 30.1402 40.1941 30.3547 40.3506L32.2182 41.71C32.6881 42.0526 33.3242 41.5905 33.1435 41.0378L32.4266 38.8454C32.3439 38.593 32.4302 38.3276 32.6453 38.1718L34.514 36.8196C34.9857 36.4782 34.7429 35.7308 34.1605 35.7319ZM43.4742 33.3904C44.4747 34.3294 44.7269 35.7599 44.1079 36.9845C42.4962 40.1728 42.6161 39.4931 43.0401 43.0404C43.203 44.4029 42.4767 45.6608 41.2153 46.2011C37.9312 47.6074 38.4601 47.1639 36.5046 50.1537C35.7535 51.3021 34.3886 51.7989 33.0751 51.402C29.6553 50.3685 30.3455 50.3684 26.9258 51.402C25.6123 51.7989 24.2473 51.3021 23.4963 50.1537C21.5409 47.1639 22.0696 47.6074 18.7856 46.2011C17.5242 45.6608 16.798 44.4029 16.9607 43.0404C17.3847 39.4931 17.5047 40.1728 15.8929 36.9845C15.2739 35.7599 15.5261 34.3294 16.5267 33.3904C19.1316 30.9455 18.7865 31.5432 19.6013 28.0649C19.9142 26.7288 21.027 25.7952 22.3971 25.7189C25.964 25.5205 25.3155 25.7565 28.1756 23.6157C29.2741 22.7934 30.7266 22.7934 31.8252 23.6157C34.6852 25.7565 34.0366 25.5205 37.6037 25.7189C38.9737 25.7951 40.0865 26.7288 40.3994 28.0649C41.2143 31.5432 40.8693 30.9456 43.4742 33.3904ZM38.0076 37.2681C38.0076 32.8459 34.4227 29.261 30.0004 29.261C25.5781 29.261 21.9934 32.8459 21.9934 37.2681C21.9934 41.6903 25.5782 45.2753 30.0004 45.2753C34.4226 45.2753 38.0076 41.6903 38.0076 37.2681ZM20.6731 49.2619C20.5595 49.0881 20.444 48.9764 20.2791 48.8865L17.2909 55.3051C17.198 55.5042 17.3669 55.7244 17.5834 55.6867L21.6934 54.9686L23.7896 58.5758C23.8999 58.7654 24.1774 58.7529 24.2698 58.554L26.685 53.3664C23.4023 53.8077 22.1705 51.5516 20.6731 49.2619ZM45.8641 22.2368C49.3078 22.2368 52.0994 19.445 52.0994 16.0014C52.0994 12.5577 49.3078 9.76605 45.8641 9.76605C42.4204 9.76605 39.6288 12.5578 39.6288 16.0014C39.6287 19.445 42.4203 22.2368 45.8641 22.2368ZM18.8502 22.3379C19.943 22.723 20.9846 23.2402 21.9519 23.878C22.7676 23.7775 24.6751 23.8946 25.2178 23.4884L27.0525 22.1152C28.8168 20.7946 31.1845 20.7946 32.9487 22.1152L34.7834 23.4884C35.3266 23.8949 37.2331 23.7771 38.0492 23.878C39.0165 23.2402 40.0581 22.723 41.1509 22.3379C38.4986 19.1292 34.4887 17.0841 30.0007 17.0841C25.5123 17.0841 21.5023 19.1291 18.8502 22.3379ZM14.137 22.2368C17.5807 22.2368 20.3723 19.445 20.3723 16.0014C20.3723 12.5577 17.5805 9.76605 14.137 9.76605C10.6933 9.76605 7.90156 12.5578 7.90156 16.0014C7.90156 19.445 10.6933 22.2368 14.137 22.2368Z" fill="#7350BA"/>
</svg>
