<svg width="60" height="60" viewBox="0 0 60 60" fill="none" xmlns="http://www.w3.org/2000/svg">
<path d="M37.5 48.7219C36.5475 49.1044 35.5631 49.425 34.545 49.6594L34.1325 55.0331C34.107 55.3642 33.9574 55.6735 33.7138 55.8991C33.4701 56.1247 33.1502 56.25 32.8181 56.25H27.18C26.8484 56.25 26.529 56.1249 26.2857 55.8997C26.0424 55.6744 25.893 55.3656 25.8675 55.035L25.455 49.6613C23.281 49.1601 21.2061 48.2988 19.3162 47.1131L15.2194 50.625C14.9674 50.8411 14.6431 50.9541 14.3114 50.9412C13.9797 50.9283 13.6651 50.7906 13.4306 50.5556L9.44438 46.5694C9.20978 46.3347 9.07233 46.0202 9.05947 45.6886C9.04661 45.357 9.15929 45.0328 9.375 44.7806L12.8869 40.6838C11.7027 38.7931 10.8416 36.7185 10.3387 34.545L4.965 34.1325C4.63423 34.1065 4.32542 33.9568 4.1002 33.7132C3.87498 33.4695 3.74993 33.1499 3.75 32.8181V27.18C3.75 26.4919 4.28062 25.92 4.965 25.8675L10.3387 25.455C10.8399 23.281 11.7012 21.2061 12.8869 19.3162L9.37687 15.2194C9.16105 14.9678 9.0481 14.644 9.06062 14.3127C9.07313 13.9815 9.21018 13.6671 9.44438 13.4325L13.4306 9.44625C13.6655 9.21205 13.98 9.07488 14.3114 9.06203C14.6429 9.04917 14.967 9.16158 15.2194 9.37687L19.3162 12.8888C21.2069 11.7046 23.2815 10.8434 25.455 10.3406L25.8675 4.96687C25.893 4.63577 26.0426 4.32649 26.2862 4.10089C26.5299 3.87528 26.8498 3.74996 27.1819 3.75H32.82C33.5081 3.75 34.08 4.28062 34.1325 4.965L34.1569 5.27813C32.8138 7.33812 32.0353 9.71466 31.899 12.17C31.7628 14.6254 32.2737 17.0735 33.3806 19.2694C31.8337 18.7823 30.1997 18.6354 28.5907 18.8389C26.9817 19.0423 25.4357 19.5912 24.0587 20.448C22.6817 21.3047 21.5062 22.4491 20.6127 23.8026C19.7193 25.1562 19.1291 26.6869 18.8826 28.2899C18.636 29.8928 18.739 31.5301 19.1844 33.0896C19.6298 34.649 20.4071 36.0938 21.463 37.3247C22.519 38.5557 23.8286 39.5438 25.3021 40.2213C26.7756 40.8988 28.3782 41.2497 30 41.25C32.7706 41.251 35.443 40.2241 37.5 38.3681V48.7219Z" fill="#0B95D0"/>
<path d="M50.6249 22.1046V51.5627C50.6249 52.8059 50.1311 53.9982 49.252 54.8773C48.3729 55.7564 47.1806 56.2502 45.9374 56.2502C44.6942 56.2502 43.5019 55.7564 42.6229 54.8773C41.7438 53.9982 41.2499 52.8059 41.2499 51.5627V22.1046C39.5858 21.2564 38.1836 19.9718 37.1933 18.388C36.2031 16.8043 35.6621 14.9812 35.6282 13.1137C35.5943 11.2462 36.0688 9.40457 37.0009 7.78596C37.933 6.16735 39.2877 4.83263 40.9199 3.92462C41.0643 3.84587 41.2499 3.95837 41.2499 4.12337V15.0002L45.9374 16.8752L50.6249 15.0002V4.12337C50.6249 3.95837 50.8105 3.84587 50.9549 3.92649C52.5878 4.83379 53.9431 6.16816 54.8757 7.7867C55.8083 9.40524 56.283 11.247 56.2491 13.1147C56.2152 14.9823 55.6739 16.8056 54.6832 18.3893C53.6925 19.9729 52.2896 21.2572 50.6249 22.1046Z" fill="#0B2752"/>
</svg>
