<svg width="52" height="52" viewBox="0 0 52 52" fill="none" xmlns="http://www.w3.org/2000/svg">
<path d="M48.8807 6.1745C47.2258 5.48002 45.4348 5.02268 43.6898 4.62081C40.2211 3.82295 36.5954 3.85079 33.1235 4.64333C32.6092 4.76024 32.096 4.90211 31.5863 5.06228C31.9768 5.51851 32.2183 5.98416 32.2927 6.46013C32.3597 6.89494 32.3851 7.34296 32.3964 7.7953C37.2753 6.25226 42.5345 6.65668 47.2918 8.66272C42.9018 11.2725 37.1148 11.148 32.3721 9.16408C32.342 9.70156 32.3039 10.2386 32.2578 10.7749C32.2167 11.2565 32.1829 11.7116 32.1576 12.1532C37.6369 14.1624 44.0503 13.8642 49.02 10.8598C48.9975 11.6337 48.984 12.4079 48.9653 13.1818C43.7761 16.0618 37.498 16.413 32.1052 14.0487C32.0849 15.0581 32.067 16.069 32.0522 17.0821C37.477 19.107 43.6194 18.8361 48.8971 16.3903C48.8825 17.2885 48.8792 18.1872 48.8684 19.085C43.4718 21.6552 37.5811 21.0922 32.0196 19.4219C32.0134 19.9479 32.0094 20.4756 32.005 21.0029C32.1789 20.9717 32.3519 20.9389 32.5276 20.9142C33.2052 20.8173 33.8889 20.7684 34.5734 20.768C37.6792 20.768 40.6088 21.7845 43.0482 23.5258C45.0044 23.3353 46.9409 22.9016 48.8346 22.1623C48.8295 22.8515 48.8307 23.5412 48.8267 24.2306C47.8335 24.8908 46.7731 25.4441 45.6634 25.8811C46.3099 26.6099 46.8882 27.3966 47.3909 28.2311C47.8708 28.0193 48.3467 27.793 48.8143 27.5377C48.8115 28.5196 48.8029 29.5018 48.8029 30.4842C48.8029 30.5596 48.7325 30.652 48.6215 30.751C48.9562 31.6237 49.2143 32.5238 49.3932 33.4412C49.9789 33.0762 50.5502 32.6954 51.074 32.2878C51.3978 32.0364 51.5385 31.7414 51.5589 31.4473C51.6 31.3127 51.6294 31.1691 51.6294 31.0058C51.6294 25.1135 51.6389 19.2177 51.773 13.3248C51.8078 11.8051 52.1544 9.98291 51.9172 8.48812C51.755 7.46409 49.6693 6.50483 48.8807 6.1745ZM19.8589 37.7154C19.826 37.7223 19.7942 37.7307 19.7614 37.7368C18.629 37.9459 17.4827 38.072 16.3318 38.1142C16.0525 38.1241 15.7729 38.129 15.4934 38.1288C13.9793 38.1288 12.4659 37.979 10.9909 37.6646C9.73628 37.3965 8.50726 36.9944 7.33869 36.4564C6.84553 36.2294 3.83631 34.9092 3.83576 34.3369C3.83576 33.1112 3.82422 31.8856 3.82134 30.66C7.66846 32.5407 11.8081 33.5619 15.916 33.5619C17.3064 33.5619 18.6926 33.4391 20.064 33.1991C20.3213 31.8304 20.7581 30.5017 21.3629 29.2473C19.5467 29.7586 17.6888 30.0155 15.8225 30.0155C11.8675 30.0155 7.87966 28.9093 4.19392 26.8704C4.07091 26.8025 3.94074 26.7484 3.80581 26.7092C3.79937 25.545 3.80126 24.3804 3.79205 23.2165C8.20211 24.7354 12.7679 25.7205 17.292 25.7205C19.7566 25.7205 22.2084 25.4228 24.6183 24.7658C25.3242 24.0947 26.0946 23.4951 26.9184 22.9755C28.135 22.2101 29.4598 21.632 30.8483 21.2606C30.8556 20.527 30.8607 19.7933 30.8691 19.0603C30.8792 18.2455 30.8933 17.4305 30.9057 16.6149C30.922 15.576 30.9383 14.5378 30.9603 13.4989C30.9659 13.2424 30.9682 12.9853 30.9738 12.7284C30.9811 12.3964 31.0026 12.0503 31.0273 11.6997C31.0972 10.7075 31.2075 9.66057 31.2408 8.64475C31.2459 8.49489 31.2504 8.34559 31.2516 8.19717C31.2543 7.65842 31.2291 7.13376 31.1519 6.63771C31.0904 6.23728 30.7987 5.84517 30.3977 5.48168C29.5082 4.67483 28.0775 4.01207 27.4073 3.72478C25.3664 2.85038 23.1583 2.27414 21.0052 1.76833C18.9011 1.27406 16.7487 1.03125 14.5961 1.03125C12.3738 1.03125 10.1502 1.28948 7.97527 1.79661C5.51601 2.36997 3.07294 3.37427 0.864365 4.61904C0.153796 5.01925 -0.0658305 5.67491 0.029341 6.2984C0.00631367 6.42766 -0.00320294 6.55896 0.000944812 6.69018C0.332159 16.1217 0.349352 25.5578 0.349352 34.9944C0.349352 35.2 0.385069 35.3813 0.436315 35.5503C0.461384 35.921 0.635976 36.2926 1.03397 36.6093C5.13843 39.8729 10.615 41.7259 15.9841 41.7259C17.542 41.7259 19.0897 41.5638 20.5927 41.241C20.2986 40.3443 20.0834 39.4236 19.9495 38.4894C19.9138 38.2321 19.8837 37.974 19.8589 37.7154ZM14.6459 4.57678C18.3131 4.57678 21.9878 5.36765 25.4479 6.85745C22.6262 8.57032 19.3351 9.35021 16.0036 9.35021C12.1901 9.35021 8.32268 8.32928 5.03915 6.51903C8.13012 5.20204 11.3855 4.57678 14.6459 4.57678ZM3.5742 9.78924C7.2464 11.8114 11.4748 12.8709 15.6767 12.8709C19.5244 12.8709 23.3444 11.9705 26.7012 10.1202C26.9951 9.95829 27.2915 9.80089 27.5782 9.62375C27.55 10.5984 27.5342 11.5732 27.5117 12.5479C27.2711 12.6842 27.0233 12.8047 26.7794 12.932C23.3978 14.6952 19.68 15.6056 15.9634 15.6056C11.7504 15.6056 7.54511 14.4521 3.84385 12.0953C3.76953 12.048 3.69577 12.0179 3.62201 11.9832C3.60515 11.252 3.59417 10.5207 3.5742 9.78924ZM3.71474 16.1223C7.51638 18.1592 11.7355 19.1613 15.9592 19.1613C19.6818 19.1613 23.4061 18.3733 26.8544 16.8395C27.0454 16.755 27.2386 16.6775 27.4279 16.5877C27.4092 17.7186 27.4053 18.8497 27.3924 19.9807C27.2296 20.0596 27.0651 20.126 26.9012 20.2003C23.8117 21.6081 20.5966 22.1966 17.3575 22.1966C12.776 22.1966 8.1462 21.0413 3.75057 19.4425C3.73726 18.337 3.73337 17.2297 3.71474 16.1223Z" fill="#307716"/>
<path d="M48.1387 34.1658C48.041 33.7374 47.9259 33.3131 47.7935 32.894C47.6486 32.4376 47.484 31.9877 47.3002 31.5455C46.8996 30.5858 46.4209 29.6721 45.8593 28.8283C45.2841 27.9644 44.6264 27.1753 43.911 26.4594C42.7243 25.2712 41.3674 24.3074 39.9001 23.6228C38.3021 22.8764 36.5807 22.4526 34.8127 22.4526C34.1909 22.4526 33.5606 22.5022 32.9337 22.5991C32.7208 22.6317 32.5091 22.6706 32.2972 22.7143C32.1925 22.7363 32.0911 22.7628 31.9881 22.7872C31.7938 22.8325 31.6012 22.8816 31.4102 22.9354C30.8404 23.0944 30.2817 23.2909 29.7378 23.5237C28.893 23.8875 28.0943 24.3362 27.3473 24.855C27.2064 24.9524 27.0679 25.0516 26.9311 25.154C26.8759 25.1957 26.8224 25.2386 26.7683 25.2805C26.5715 25.4328 26.3788 25.5903 26.1904 25.7528C26.0881 25.841 25.9856 25.9277 25.8856 26.0189C25.4082 26.4547 24.9603 26.9218 24.5448 27.417C24.2836 27.7291 24.0356 28.052 23.8012 28.3848C22.839 29.7456 22.1163 31.2608 21.6642 32.8649C21.6046 33.0765 21.5499 33.2895 21.5003 33.5037C21.4523 33.7088 21.4093 33.9149 21.3707 34.1216C21.3696 34.1261 21.3687 34.1312 21.3676 34.1345C21.2408 34.8223 21.1651 35.5185 21.1411 36.2174C21.1339 36.4177 21.1314 36.6181 21.1336 36.8184C21.1378 37.4304 21.1829 38.0414 21.2684 38.6473C21.3817 39.4387 21.5656 40.2041 21.7968 40.9466C21.9122 41.3148 22.042 41.6784 22.186 42.0364C24.2965 47.3047 29.2989 50.9686 34.9404 50.9686C35.5628 50.9686 36.1919 50.9242 36.8116 50.8351C39.9315 50.3891 44.1812 47.8104 46.0901 45.2047C48.2328 42.2804 49.0056 38.5538 48.2654 34.7134C48.2317 34.5274 48.181 34.3484 48.1387 34.1658ZM24.8496 32.4344C24.9546 32.1735 25.067 31.9168 25.1898 31.665C25.652 30.7187 26.2398 29.839 26.937 29.0497C28.0055 27.8405 29.3173 26.8514 30.8139 26.1985C31.0025 26.1168 31.1987 26.0503 31.3924 25.9789C31.5833 25.9084 31.7738 25.837 31.9697 25.777C32.1179 25.7319 32.2705 25.6976 32.4215 25.6587C32.5758 25.6196 32.7262 25.5706 32.8833 25.5376C33.5266 25.4038 34.1754 25.336 34.8125 25.336C36.8183 25.336 38.6145 25.9863 40.1454 27.0282C41.1735 27.7283 42.0791 28.6065 42.8434 29.5945C43.574 30.5389 44.1787 31.5742 44.6426 32.6745C44.9997 33.5244 45.2694 34.3947 45.4351 35.2564C45.443 35.2947 45.4452 35.332 45.4514 35.3701C46.0011 38.3734 45.4075 41.2562 43.765 43.4985C42.2972 45.502 38.7886 47.6379 36.4038 47.9793C35.9194 48.0482 35.4308 48.083 34.9415 48.0835C30.5227 48.0835 26.5928 45.2068 24.8946 41.0557C24.75 40.698 24.6224 40.3338 24.5123 39.9641C24.345 39.4041 24.2083 38.8308 24.123 38.2371C24.0324 37.6058 24.0081 36.9766 24.0262 36.3526C24.0324 36.1339 24.0462 35.9165 24.0648 35.7002C24.0842 35.4772 24.1005 35.2536 24.1329 35.0334C24.2273 34.3934 24.3825 33.7688 24.5805 33.1604C24.6628 32.9158 24.7525 32.6737 24.8496 32.4344Z" fill="#307716"/>
<path d="M29.5371 33.6575C29.7839 34.356 30.2051 34.9801 30.734 35.4492C30.8946 35.5917 31.0657 35.7156 31.2444 35.8272C31.4125 35.9329 31.5895 36.0239 31.7733 36.0992C31.8088 36.1133 31.8437 36.1335 31.8798 36.1465C32.5237 36.3797 33.1933 36.5255 33.8326 36.6433C33.8754 37.9349 33.9075 39.2765 33.9294 40.7253C33.2254 40.3366 32.5393 39.814 32.0679 39.3014C31.806 39.0153 31.4782 38.8644 31.1187 38.8644C30.5825 38.8644 30.0531 39.2175 29.8317 39.7228C29.6266 40.1903 29.7156 40.6836 30.0767 41.0779C31.0516 42.1402 32.4891 43.0786 33.9536 43.6148L33.9563 44.048C33.954 44.4215 34.0841 44.751 34.3315 45.0005C34.5934 45.2629 34.968 45.414 35.3583 45.414C35.9633 45.414 36.6162 45.0276 36.6211 44.1771L36.6206 44.0949C37.7438 44.0588 38.6979 43.6865 39.4572 42.9841C40.7752 41.7669 41.5942 40.0304 41.5407 38.5625C41.5097 37.6961 41.1791 36.929 40.5848 36.3157C40.4734 36.1999 40.3551 36.091 40.2306 35.9896C39.0922 35.0805 37.7291 34.6784 36.4065 34.3956C36.3919 34.0183 36.3745 33.6413 36.3598 33.2634C36.335 32.6585 36.3108 32.0542 36.2843 31.4486C36.7372 31.5692 37.1753 31.7246 37.5668 31.9049C38.3147 32.2506 39.0797 31.8187 39.2588 31.0054C39.3411 30.6341 39.2813 30.2004 39.0342 29.8535C38.9052 29.6721 38.7277 29.5127 38.4861 29.4018C37.7899 29.0801 36.9917 28.8356 36.1637 28.6892V28.6775C36.126 27.8016 35.3858 27.3301 34.7094 27.3301C34.3483 27.3301 34.0268 27.4574 33.8043 27.6895C33.5892 27.9148 33.4832 28.2212 33.499 28.5726L33.5001 28.5918C33.2213 28.6245 32.9555 28.6752 32.6969 28.7349C32.4406 28.7957 32.1922 28.8667 31.9585 28.9541C31.7558 29.029 31.5649 29.1168 31.3806 29.2114C31.1773 29.3161 30.983 29.4301 30.8033 29.5573C30.5527 29.7333 30.3219 29.9359 30.115 30.1616C29.9956 30.2929 29.8943 30.4348 29.8007 30.5812C29.3185 31.336 29.1744 32.2856 29.4154 33.2623C29.4476 33.3984 29.4915 33.528 29.5371 33.6575ZM38.9081 38.7888C38.907 39.6242 38.1101 40.6983 37.5619 41.0706C37.2859 41.2576 36.9637 41.372 36.5998 41.4148C36.5838 39.9962 36.5536 38.5779 36.5092 37.1599C37.3355 37.3785 37.9664 37.6527 38.5195 38.0297C38.7819 38.2086 38.9086 38.4565 38.9081 38.7888ZM33.7244 33.8761C33.5447 33.8378 33.3656 33.7961 33.1893 33.7522C32.5679 33.5962 32.073 33.0948 32.0143 32.5592C31.99 32.3418 32.0458 32.1447 32.1687 31.9711C32.2796 31.8146 32.4452 31.6754 32.6701 31.5621C32.9438 31.4248 33.2603 31.3255 33.6163 31.2636C33.6349 31.7052 33.6523 32.1469 33.6715 32.589C33.6895 33.0182 33.7069 33.4469 33.7244 33.8761Z" fill="#307716"/>
</svg>
