<svg width="53" height="52" viewBox="0 0 53 52" fill="none" xmlns="http://www.w3.org/2000/svg">
<g clip-path="url(#clip0_870_4433)">
<path d="M50.4584 7.57578C50.4545 7.41978 50.4263 7.28066 50.3873 7.14955C50.3078 6.45719 49.8259 5.79873 48.9366 5.75017C46.402 5.61195 43.8669 5.59817 41.3296 5.59817C40.9273 5.59817 40.6125 5.72995 40.3748 5.93329C39.8851 6.13729 39.5042 6.57997 39.5037 7.272C39.4991 21.1167 39.3559 34.9607 39.3513 48.8055C39.3513 48.9791 39.3818 49.1327 39.4258 49.276C39.5217 49.9514 40.0036 50.5827 40.8726 50.6313C43.6102 50.7836 46.3462 50.9246 49.0884 50.9359C49.1403 50.9359 49.1836 50.923 49.2328 50.919C49.286 50.9246 49.3383 50.9359 49.3925 50.9359C51.707 50.9359 50.8042 47.458 50.8629 46.0727C50.9431 44.1875 50.9967 42.3018 51.0299 40.4163C51.0955 36.7657 51.0807 33.1139 51.0242 29.4633C50.9114 22.1652 50.6249 14.8722 50.4584 7.57578ZM47.7326 47.8721C45.953 47.8389 44.1757 47.7633 42.3977 47.6696C42.4085 34.6623 42.5314 21.6552 42.5439 8.64704C44.1785 8.65304 45.8125 8.66848 47.4459 8.72859C47.771 21.7764 48.4018 34.8247 47.7326 47.8721ZM36.309 17.4652C36.2967 17.1416 36.1961 16.8764 36.0494 16.6592C35.8244 16.2125 35.4051 15.8565 34.7879 15.7914C32.2904 15.5274 29.8215 15.644 27.3334 15.9431C27.0726 15.9737 26.8233 16.068 26.6075 16.2177C26.0269 16.3633 25.5728 16.8245 25.6594 17.6168C26.8121 28.1318 26.3263 38.7355 27.3326 49.2608C27.342 49.3561 27.3626 49.4437 27.3852 49.5299C27.3699 50.3018 27.8574 51.0868 28.8545 51.0868C30.5032 51.0868 37.6938 52.2316 37.3745 49.2649C36.2177 38.6965 36.7311 28.0657 36.309 17.4652ZM30.2785 48.0448C29.4508 38.3241 29.7753 28.5425 28.8239 18.8309C30.3192 18.7006 31.8122 18.6521 33.3107 18.7248C33.6346 28.5007 33.2577 38.2994 34.2096 48.0448H30.2785ZM22.9607 25.9053C22.8355 25.296 22.3708 24.8141 21.5521 24.9202C19.3787 25.2011 17.1957 25.3726 15.0106 25.5288C14.901 25.5368 14.7925 25.5554 14.6865 25.5843C13.9114 25.5658 13.1439 26.0509 13.1848 27.0497C13.4885 34.5033 13.7851 41.9563 13.9457 49.4138C13.9527 49.7309 14.0432 49.9904 14.1816 50.2061C14.3029 50.842 14.7803 51.3965 15.6189 51.3921C17.4968 51.3819 19.3706 51.2505 21.2483 51.2398C21.4859 51.2385 21.6927 51.1912 21.873 51.1118C22.7662 51.3763 23.8809 50.9164 23.8351 49.7186C23.5423 42.0636 23.3797 34.4047 23.2265 26.7464C23.2191 26.4052 23.1173 26.127 22.9607 25.9053ZM16.9607 48.3234C16.8069 41.7039 16.5532 35.0887 16.2847 28.4731C17.5949 28.3733 18.9048 28.2637 20.2112 28.1198C20.3463 34.8163 20.4973 41.5131 20.7393 48.2061C19.4791 48.2264 18.22 48.2873 16.9607 48.3234ZM8.39095 38.4433C6.89857 38.3174 5.40219 38.3078 3.90448 38.3071C3.73692 38.3071 3.5897 38.3366 3.4508 38.3766C2.76223 38.4584 2.11443 38.9403 2.07854 39.8283C1.94009 43.2757 1.92676 46.725 1.92676 50.1742C1.92676 50.3287 1.95098 50.4676 1.98632 50.5974C2.03487 51.3162 2.51844 52 3.44791 52H8.62085C9.41476 52 9.88166 51.5007 10.0329 50.9076C10.2809 50.664 10.4468 50.3215 10.4468 49.8706V39.8295C10.4462 38.6136 9.27964 38.1531 8.39095 38.4433ZM7.40359 48.9577H4.97452C4.97907 46.4231 4.99652 43.8898 5.07263 41.3575C5.85043 41.3631 6.62745 41.3755 7.40359 41.4161V48.9577ZM5.08319 25.2823C5.48409 25.2823 5.87254 25.1438 6.23644 24.8699C11.0615 21.2395 21.9241 11.9249 26.9544 7.34078C26.9271 8.12815 26.9115 8.91589 26.9076 9.70373C26.9053 10.2754 27.1 10.775 27.4721 11.1482C27.8564 11.5336 28.4127 11.7556 29.0001 11.7556C30.0423 11.7556 31.1001 11.0522 31.1057 9.70918C31.1171 7.24199 31.265 4.73147 31.4093 2.28573C31.4432 1.70961 31.2722 1.20515 30.9145 0.826358C30.5506 0.440458 30.0089 0.216118 29.4238 0.211006C29.2975 0.181213 29.169 0.162035 29.0396 0.153671C26.6019 0.0121115 24.1786 0 21.7047 0C20.3596 0 19.656 1.0557 19.6554 2.0984C19.6548 3.14143 20.359 4.19768 21.7047 4.19824C22.5257 4.19824 23.3461 4.20057 24.167 4.20813C19.2017 8.7466 8.64518 17.8279 4.00693 21.3183C3.22346 21.9077 2.93512 22.8657 3.2528 23.8184C3.54503 24.6944 4.2805 25.2823 5.08319 25.2823Z" fill="#7D651A"/>
</g>
<defs>
<clipPath id="clip0_870_4433">
<rect width="52" height="52" fill="white" transform="translate(0.5)"/>
</clipPath>
</defs>
</svg>
