<svg width="52" height="52" viewBox="0 0 52 52" fill="none" xmlns="http://www.w3.org/2000/svg">
<g clip-path="url(#clip0_870_4471)">
<path d="M51.2378 19.1516C50.9944 18.8401 50.6193 18.6257 50.1041 18.6257H33.9573C31.7981 13.1972 29.5958 7.78746 27.8425 2.21019C27.3207 0.549563 24.9291 1.0172 24.8607 2.47438C22.3455 7.84163 20.037 13.2874 18.6936 19.0704C12.9473 19.034 7.20485 18.7942 1.45828 18.7769C-0.287972 18.7717 -0.463847 21.1917 0.919564 21.6995C5.12989 25.5582 9.57641 29.1273 14.4179 32.1636C12.8217 37.5829 11.0817 42.9545 9.21734 48.288C8.87582 49.2652 9.53592 49.9401 10.3262 50.0916C10.7216 50.3321 11.2244 50.3607 11.738 49.9937C16.417 46.6522 21.2226 43.4938 25.9549 40.2277C30.7397 43.7437 35.4174 47.4025 40.4282 50.598C41.5389 51.3068 42.5851 50.3486 42.6502 49.3292C42.7055 49.1071 42.7142 48.861 42.6475 48.5899C41.3245 43.2068 39.7691 37.9034 37.3803 32.9004C42.5207 29.6151 46.6788 25.104 51.4744 21.3559C52.3737 20.653 52.0017 19.6364 51.2378 19.1516ZM34.8384 30.9184C34.5196 31.1065 34.3178 31.3537 34.2094 31.6234C33.9404 32.0374 33.8572 32.5756 34.1455 33.1367C36.2345 37.2072 37.6538 41.5217 38.8377 45.9166C34.8104 43.1459 30.9438 40.1512 26.9964 37.2635C26.8926 37.1884 26.7803 37.126 26.6617 37.0775C26.2546 36.7931 25.7191 36.7308 25.1693 37.1125C21.3019 39.7968 17.3776 42.3989 13.5068 45.0775C14.9466 40.8025 16.3059 36.5028 17.5686 32.1718C17.7701 31.48 17.4992 30.9369 17.0518 30.6186C16.9493 30.331 16.7504 30.0641 16.421 29.8606C12.5834 27.4952 9.0182 24.7813 5.62058 21.8469C10.2254 21.9286 14.8295 22.0864 19.4357 22.1006C19.5603 22.1007 19.6845 22.0868 19.806 22.0591C20.4746 22.1558 21.1662 21.8524 21.346 20.9915C22.3764 16.0473 24.1516 11.3781 26.1935 6.79565C27.8003 11.3765 29.6362 15.8725 31.4257 20.3875C31.4312 20.402 31.4394 20.4126 31.4454 20.4266C31.5548 21.0741 32.0333 21.6475 32.8821 21.6475H46.4146C42.6738 24.8967 39.1326 28.3802 34.8384 30.9184Z" fill="#186C96"/>
<path d="M26.9809 14.4829C26.7025 13.5991 25.4295 13.8476 25.3938 14.6234C24.0546 17.4807 22.8258 20.3792 22.1108 23.4577C19.0525 23.4386 15.9953 23.3104 12.9365 23.3014C12.0068 23.2987 11.9133 24.5869 12.6496 24.8573C14.8903 26.9109 17.2576 28.8108 19.8348 30.4275C18.9852 33.3123 18.0591 36.1721 17.0667 39.0104C16.8846 39.5312 17.2362 39.8899 17.6573 39.9708C17.8674 40.0987 18.1356 40.1141 18.4091 39.9193C20.8995 38.1398 23.4578 36.4586 25.9766 34.7205C28.5237 36.592 31.0138 38.5395 33.681 40.2404C34.2727 40.6171 34.8289 40.1075 34.8639 39.565C34.8961 39.4357 34.8957 39.3004 34.8628 39.1712C34.1584 36.3065 33.3303 33.4824 32.0594 30.82C34.7955 29.0711 37.0088 26.6692 39.5612 24.674C40.0403 24.3 39.8423 23.759 39.4354 23.5009C39.3058 23.335 39.1067 23.2209 38.8317 23.2209H30.2365C29.0864 20.3317 27.9144 17.452 26.9809 14.4829Z" fill="#186C96"/>
</g>
<defs>
<clipPath id="clip0_870_4471">
<rect width="52" height="52" fill="white"/>
</clipPath>
</defs>
</svg>
