<svg width="52" height="52" viewBox="0 0 52 52" fill="none" xmlns="http://www.w3.org/2000/svg">
<g clip-path="url(#clip0_870_4476)">
<path d="M18.7947 17.8287C20.6759 19.1617 22.8059 19.8667 24.9553 19.8667C27.7687 19.8667 30.5374 18.6843 32.7543 16.5379C33.3444 15.9661 33.9614 15.2982 34.1278 15.1003C34.202 15.0113 34.2697 14.9095 34.3286 14.7973C36.4583 10.774 36.1011 6.61186 33.3494 3.37742C32.7003 2.61458 32.1233 1.96601 31.9137 1.76348C31.8039 1.65791 31.6692 1.56288 31.5125 1.48236C29.6001 0.498706 27.6633 0 25.7548 0C23.1307 0 20.5991 0.929685 18.2294 2.7625C18.1194 2.84764 18.025 2.9402 17.9488 3.03814C17.7796 3.25669 17.2329 4.00405 16.7492 4.71346C13.592 9.34415 14.4332 14.7374 18.7947 17.8287ZM20.2257 5.39482C20.276 5.34182 20.3207 5.28645 20.3609 5.23109C20.5235 5.00533 21.2258 4.39482 22.0436 3.98459C23.8374 3.08361 25.8442 2.88946 27.8445 3.42332C28.7796 3.67251 30.0724 4.47147 30.7268 5.20378C32.4175 7.09745 32.9518 9.30179 32.2717 11.5774C32.015 12.4351 31.6014 13.1897 31.4604 13.3366C29.9041 15.4268 27.7314 16.5582 25.3096 16.5582C22.3532 16.5582 19.5487 14.8392 18.4895 12.3785C17.9198 11.0563 17.3893 8.39189 20.2257 5.39482ZM45.5481 26.1294C45.5447 25.922 45.4918 25.7033 45.3608 25.4803C43.9753 23.1309 41.5822 22.0565 38.8957 22.3851C38.8716 22.3878 38.8509 22.3963 38.8274 22.4002C38.7767 22.3952 38.7286 22.3851 38.6745 22.3851C29.3703 22.3851 20.0005 21.9476 10.7323 22.9319C10.5644 22.9127 10.3824 22.9264 10.185 22.9867C8.28358 23.567 6.67103 24.8723 5.84595 26.6988C5.77136 26.8633 5.72204 27.0381 5.69964 27.2174C5.61288 27.3855 5.55795 27.5825 5.55365 27.8129C5.42895 34.1677 5.1647 40.5143 5.55365 46.8658C5.58719 47.4122 5.88508 47.7823 6.26962 47.9794C6.46646 48.166 6.73532 48.2901 7.08664 48.2901C9.60103 48.2901 12.1151 48.2796 14.6274 48.1633C14.6326 49.0068 14.6364 49.789 14.6381 50.4649C14.6386 50.6985 14.6918 50.8982 14.7778 51.0686C14.9293 51.4999 15.3016 51.8443 15.8957 51.8454C23.0052 51.8536 30.1133 51.9917 37.2226 52C38.3351 52.0011 38.6692 50.8001 38.2297 50.0718C38.2275 49.7912 38.2231 49.4931 38.2187 49.1842C40.2549 49.0799 42.2923 49.063 44.3317 49.063C44.6532 49.063 44.9071 48.9593 45.0992 48.7982C45.8297 48.9069 46.6529 48.4854 46.6507 47.53C46.6371 40.6529 46.4072 33.7844 45.8756 26.9269C45.8488 26.5966 45.7254 26.3319 45.5481 26.1294ZM26.8587 25.4775C27.433 26.1472 27.9963 26.8242 28.5056 27.5438C28.0568 28.1612 27.5917 28.7666 27.1304 29.3753C26.5016 28.8797 25.9129 28.331 25.3181 27.7921C25.8559 27.0361 26.3791 26.2713 26.8587 25.4775ZM17.291 49.3785C17.2719 45.103 17.1914 38.2221 17.1843 34.4592C17.1807 32.7446 14.5222 32.7446 14.5255 34.4592C14.5312 37.2597 14.5771 41.7928 14.6085 45.6905C12.4602 45.7899 10.3107 45.8123 8.16038 45.8156C7.86012 39.8451 8.09104 33.8795 8.21005 27.9052C8.75132 26.7887 9.60705 25.9768 10.797 25.5843C15.3676 25.1022 19.9624 24.965 24.5618 24.9485C24.1163 25.6388 23.6411 26.31 23.1638 26.9782C23.0303 27.1648 22.985 27.3876 23.0063 27.6071C22.7574 27.993 22.7419 28.4969 23.1991 28.892C24.0834 29.6574 24.9315 30.4576 25.8472 31.1827C24.8515 33.9132 23.6224 36.5232 22.0928 38.9967C22.0225 39.1106 21.973 39.2361 21.9465 39.3673C21.8292 39.6435 21.8196 39.9716 22.0001 40.3112C23.5976 43.3245 25.2009 46.3335 26.5915 49.4484C23.4907 49.419 20.3912 49.3895 17.291 49.3785ZM24.2375 39.7664C25.506 37.6642 26.5586 35.4571 27.4613 33.1796C28.4036 35.2299 29.2617 37.3098 29.8982 39.4857C29.9009 39.4956 29.9058 39.5032 29.9086 39.513C29.906 39.524 29.901 39.5328 29.8982 39.5436C29.3212 41.9642 28.5504 44.3262 27.7752 46.6872C26.665 44.346 25.4524 42.0559 24.2375 39.7664ZM38.1669 46.7134C38.0621 42.5614 37.851 37.3536 37.6772 34.238C37.5817 32.5333 34.9232 32.5246 35.0188 34.238C35.235 38.1097 35.5106 45.2265 35.5642 49.5183C33.4487 49.5107 31.3339 49.4888 29.2186 49.4692C30.2144 46.3729 31.2991 43.306 32.0546 40.1376C32.1048 39.9258 32.0933 39.7348 32.0447 39.5633C32.1157 39.3711 32.1288 39.1441 32.0546 38.8908C31.2368 36.0984 30.067 33.447 28.819 30.8257C29.3917 30.0581 29.984 29.3038 30.5441 28.5253C30.5975 28.4512 30.6325 28.3703 30.6592 28.2873C30.9972 27.975 31.1484 27.4859 30.8235 26.9783C30.3748 26.2756 29.8681 25.6154 29.3408 24.971C32.4175 24.9985 35.4931 25.0414 38.5615 25.0425C38.6647 25.0547 38.7744 25.0577 38.8951 25.043C40.6671 24.8263 42.1219 25.2232 43.0641 26.8221C43.1121 26.9035 43.1668 26.9733 43.2224 27.0384C43.7247 33.5465 43.9485 40.064 43.9813 46.5901C42.0423 46.5934 40.1038 46.6131 38.1669 46.7134Z" fill="#841B6B"/>
</g>
<defs>
<clipPath id="clip0_870_4476">
<rect width="52" height="52" fill="white"/>
</clipPath>
</defs>
</svg>
