<svg width="52" height="52" viewBox="0 0 52 52" fill="none" xmlns="http://www.w3.org/2000/svg">
<g clip-path="url(#clip0_870_4480)">
<path d="M50.0643 37.1055C50.0184 36.31 49.6602 35.648 49.027 35.1717C48.9222 35.0955 48.8113 35.0282 48.6954 34.9704C48.2496 34.5209 47.7109 34.1706 47.1874 33.995C47.0283 33.942 46.8651 33.9026 46.6994 33.877C45.7942 32.0841 44.2998 30.6696 42.654 29.5225C42.6156 29.4958 42.5683 29.4667 42.5278 29.4392C42.8396 29.0708 42.5876 28.6084 42.142 28.5508C41.8879 28.5182 41.6327 28.6151 41.3849 28.7497C40.0977 28.0647 38.5043 27.5292 37.3358 28.0948C37.3281 28.0991 37.3254 28.1084 37.3179 28.1124C37.0056 27.589 36.6513 27.1207 36.2416 26.7459C36.3494 26.5649 36.4613 26.3919 36.5536 26.1754C37.2808 24.4718 37.9228 21.6426 38.0411 18.7766C38.1295 18.9056 38.2699 19.003 38.4773 19.0142C39.3449 19.0617 40.2389 19.0444 41.1078 19.1362C41.6716 19.9328 42.6636 20.3412 43.654 20.2521C44.8721 20.1423 46.0283 19.4277 46.3612 18.1963C46.8259 16.4771 45.4015 14.8482 44.2269 13.8033C43.799 13.4229 43.2715 13.5561 42.9645 13.877C42.8019 13.8404 42.6249 13.8714 42.4786 14.0254C42.0966 14.4279 41.7527 14.8648 41.4511 15.3305C41.3468 15.2467 41.2176 15.1901 41.0422 15.2112C40.0601 15.3289 39.1663 14.9691 38.2346 14.7027C38.0438 14.648 37.8993 14.7048 37.8011 14.8068C37.331 12.232 36.1732 10.0962 33.8916 9.39942C32.603 9.00593 31.0502 9.18025 29.6604 9.25073C29.6364 8.88073 29.3113 8.5732 28.9559 8.55906C28.9333 8.46883 28.9039 8.3802 28.8873 8.28596C28.7688 7.60898 28.7515 6.91677 28.6567 6.23631C28.65 6.1896 28.6113 6.16771 28.5905 6.13087C29.0641 5.93519 29.5024 5.67705 29.8227 5.29798C30.661 4.30625 30.6244 2.95655 30.0464 1.84977C29.4421 0.692532 28.1092 0.0435728 26.8337 0.143947C26.414 0.177049 25.8801 0.299045 25.4365 0.526488C24.1812 0.643146 23.0889 1.67064 22.9546 2.97764C22.8027 4.45815 23.7653 5.6015 25.0478 6.14795C25.0427 6.1629 25.0326 6.17144 25.0283 6.18773C24.9196 6.58762 24.6468 7.76194 24.6174 8.81106C24.1739 8.7407 23.7291 8.67849 23.2832 8.62446C20.8291 8.33802 17.0067 8.06466 15.9615 10.8781C15.8703 11.1239 15.8908 11.337 15.9776 11.511C15.6153 12.7003 15.2952 14.2102 15.0881 15.8241C14.426 15.79 13.7013 15.9096 13.0689 15.9387C13.0088 15.9413 12.9629 15.9624 12.9111 15.976C12.4316 14.8706 11.4997 13.9397 10.2819 14.5748C9.89775 14.7753 9.84703 15.3372 10.146 15.6301C10.4132 15.8919 10.8369 16.0364 11.063 16.33C11.3422 16.6925 11.4292 17.1343 11.4463 17.5815C11.4757 18.3452 11.2533 19.4168 10.5302 19.8185C10.268 19.964 9.882 19.6776 9.67538 19.539C9.09262 19.1482 8.93646 18.6928 9.0758 18.0217C9.25893 17.1391 9.97249 16.3556 9.81072 15.4224C9.77442 15.2134 9.5694 15.1976 9.42444 15.2838L9.41884 15.263C9.44073 15.2513 9.09316 15.357 9.01067 15.3997C8.64494 15.5898 8.41884 15.9451 8.18766 16.2732C7.6703 17.0078 7.30725 17.9581 7.34436 18.8639C7.41697 20.6458 9.69193 22.1439 11.3291 21.4152C12.0913 21.0759 12.5953 20.3869 12.9007 19.6007C13.5096 19.7833 14.2803 19.8767 14.8628 19.727C14.9461 22.9758 15.7667 26.0748 18.0283 27.5801C17.358 27.6413 16.7648 27.9149 16.4493 28.7085C16.405 28.8201 16.3721 28.9432 16.3318 29.0588C14.7701 28.6202 12.3588 30.6095 11.3764 31.3973C9.54297 32.8676 7.81766 34.9432 7.23678 37.278C5.84409 36.9541 4.24211 36.9093 3.05285 37.6608C1.13 38.8757 2.0128 41.3404 3.20287 42.7315C3.58328 43.1763 4.37612 42.7657 4.29711 42.2246C5.0411 42.6359 5.8836 41.9336 5.49278 41.0823C5.47036 41.0337 5.45915 40.9883 5.44233 40.944C5.50853 40.9056 5.5678 40.8618 5.54617 40.8586C6.16683 40.6394 6.83234 40.6765 7.43352 40.8095C7.91617 40.9157 8.01093 40.96 8.34516 41.1488C8.6388 41.3145 8.73918 41.4141 8.8876 41.6875C8.85103 41.6202 8.95167 41.9867 8.93405 41.8247C8.94446 41.92 8.94073 42.0166 8.93726 42.1124C8.93218 42.2515 8.95087 42.0967 8.886 42.3492C8.73437 42.9389 8.26774 43.4045 8.31473 44.1103C8.3198 44.1861 8.3513 44.2513 8.37265 44.3215C8.0435 44.5729 7.93379 44.9654 8.0064 45.3727C8.03736 45.5468 8.13213 45.6981 8.26374 45.8143C8.6025 46.1127 9.07073 46.2104 9.47596 45.9707C11.1962 44.9525 13.1305 43.2077 12.3961 40.9835C12.2002 40.3901 11.855 39.8845 11.4292 39.4443C11.9685 38.106 12.9138 37.0532 14.0424 36.1084C14.4135 35.7977 14.9223 35.5033 15.4375 35.1928C15.4562 35.1909 15.4733 35.1829 15.4917 35.1797C15.4779 35.7817 15.4702 36.3838 15.4688 36.9859C15.4642 38.9926 16.4071 40.129 17.7496 40.7945C17.4722 41.3006 17.3468 41.9517 17.2389 42.4515C17.0224 43.4523 16.9026 44.5561 17.0155 45.5764C17.0163 45.5831 17.0203 45.5882 17.0211 45.5946C15.1642 46.7918 13.8809 48.8834 15.2816 50.9832C15.3038 51.0166 15.3307 51.0364 15.3553 51.0628C15.3617 51.0716 15.3636 51.0817 15.3703 51.0903L15.4007 51.1287C15.4092 51.1394 15.422 51.1362 15.4311 51.1453C15.4349 51.1479 15.4386 51.1485 15.4423 51.1512C15.4869 51.1885 15.5334 51.2208 15.5862 51.2283C16.1134 51.3047 16.661 51.5569 17.26 51.6068C18.3873 51.7005 19.5163 51.7288 20.6468 51.7374C22.1271 51.7489 24.1129 52.1138 25.5189 51.5652C25.729 51.4832 25.8868 51.3562 25.992 51.2059C26.3334 51.0633 26.6134 50.7654 26.6252 50.3412C26.6719 48.6827 26.1017 47.3399 25.1663 46.3612C25.2031 46.3092 25.2523 46.2702 25.276 46.2069C25.4976 45.6173 25.3016 44.7507 25.2445 44.1407C25.1762 43.4114 25.1017 42.6736 25.0932 41.9408C25.9517 42.0414 26.8951 42.1829 27.886 42.3175C27.1038 43.7355 27.0424 45.7425 27.567 47.2211C27.6017 47.3191 27.6554 47.3973 27.7178 47.4646C27.5499 47.6586 27.3796 47.8514 27.2459 48.074C26.9386 48.586 26.854 49.1701 26.9834 49.7467C27.1281 50.3901 27.5117 50.3861 27.8812 50.5372C27.7541 51.011 27.9757 51.566 28.5809 51.4862C30.3969 51.247 32.1778 51.5158 33.9904 51.6229C35.1778 51.6933 36.6212 51.8887 37.35 50.7539C37.5758 50.4024 37.4437 50.0142 37.1732 49.7689C37.2571 49.6255 37.3161 49.467 37.3123 49.2814C37.2915 48.2099 36.9944 47.3698 36.5176 46.7291C36.5972 46.6175 36.658 46.4851 36.6652 46.31C36.689 45.7003 36.7982 43.1133 36.2736 41.704C37.2523 41.1285 38.0251 40.2451 38.4602 38.912C38.9218 37.4995 39.075 35.4421 38.866 33.3701C39.1722 33.6469 39.485 33.9176 39.7859 34.1907C40.2129 34.578 40.6337 34.9721 41.0483 35.3727C41.3259 35.6413 41.599 36.0329 41.9538 36.2267C41.5801 36.8041 41.3484 37.4616 41.374 38.1658C41.4322 39.7659 42.8345 40.8412 44.3414 41.0017C44.5117 41.0198 44.6348 40.9339 44.7304 40.8196C44.7728 40.8338 44.8153 40.8543 44.8577 40.8671C45.5945 41.0836 46.3201 40.0209 45.6524 39.5017C45.4191 39.3224 45.1894 39.1384 44.9634 38.9499C44.7213 38.7457 44.6367 38.633 44.5478 38.4867C44.5326 38.4585 44.519 38.4294 44.5069 38.3997C44.4939 38.3591 44.4842 38.3175 44.4744 38.2761C44.4984 38.3308 44.4973 38.1931 44.4802 38.1829C44.4834 38.172 44.4858 38.1608 44.4888 38.1498C44.4848 38.2248 44.6546 37.9157 44.6265 37.9114C44.7331 37.7878 44.8498 37.6732 44.9754 37.5689C45.02 37.5388 45.1268 37.4595 45.153 37.4421C45.252 37.3775 45.355 37.3201 45.4589 37.2633C45.8062 37.0729 45.6313 37.1584 45.9498 37.0449C46.1497 36.9731 46.3556 36.9192 46.5625 36.8725C46.5961 36.865 46.7467 36.841 46.7928 36.8316C46.8793 36.8233 46.9661 36.8151 47.0534 36.8103C47.1094 36.8071 47.2787 36.818 47.3916 36.8233C47.5625 37.1637 47.7058 37.5438 47.9079 37.8343C47.8492 38.2158 47.8887 38.66 48.114 38.9792C48.3059 39.251 48.5969 39.4005 48.9327 39.3124C49.8732 39.0652 50.1132 37.9509 50.0643 37.1055ZM42.3521 16.9483C42.4874 16.3129 42.7875 15.7246 43.1046 15.1562C43.6129 15.6303 44.0849 16.1306 44.4196 16.7459C44.516 16.9232 44.5745 17.0761 44.6361 17.3612C44.6412 17.3845 44.642 17.3842 44.6444 17.3914C44.6433 17.4042 44.6431 17.4317 44.6455 17.4921C44.6469 17.5385 44.6465 17.585 44.6444 17.6314C44.6441 17.652 44.6455 17.6455 44.6457 17.6568C44.6361 17.7126 44.6175 17.7659 44.6004 17.8201C44.5889 17.8351 44.5302 17.9731 44.5043 18.0147C44.4952 18.0292 44.4989 18.0257 44.4963 18.0313C44.4856 18.0422 44.4818 18.0446 44.4578 18.0713C44.4316 18.0999 44.3323 18.184 44.3041 18.2118C44.2557 18.2441 44.2079 18.2764 44.158 18.3055C44.1221 18.3259 44.0856 18.3453 44.0486 18.3636C44.0347 18.3709 44.0408 18.3685 44.0323 18.373L44.031 18.3735C43.9498 18.405 43.6487 18.4699 43.6001 18.488C43.4535 18.5015 43.306 18.5021 43.1594 18.4899C43.1954 18.4694 42.6487 18.3394 42.8857 18.4403C42.8401 18.4208 42.7974 18.3954 42.7541 18.3714C42.7429 18.2878 42.7325 18.2021 42.6893 18.1338C42.6338 18.049 42.5724 17.9683 42.5056 17.8922C42.4519 17.8292 42.3737 17.8119 42.3043 17.7772C42.2749 17.6891 42.3003 17.8225 42.2886 17.6173C42.2728 17.3508 42.308 17.1554 42.3521 16.9483ZM37.9858 15.6066C38.9359 15.9843 39.839 16.361 40.8516 16.5372C40.7063 16.9547 40.6348 17.3834 40.6497 17.8103C39.9263 17.8575 39.1925 17.8532 38.4765 17.8925C38.2824 17.9032 38.1452 17.988 38.0555 18.1042C38.0651 17.2465 38.0339 16.3917 37.93 15.5713C37.9501 15.5823 37.9637 15.5978 37.9858 15.6066ZM14.8777 18.1405C14.7279 18.1379 14.5809 18.1811 14.4562 18.2641C14.1158 18.4934 13.6465 18.4867 13.2074 18.4152C13.2557 18.0788 13.2795 17.7451 13.2707 17.4328C13.2696 17.3967 13.2595 17.3548 13.2571 17.3177C13.7928 17.3554 14.3788 17.4389 14.933 17.4309C14.9162 17.6685 14.8881 17.9016 14.8777 18.1405ZM10.362 38.5777C9.74825 38.1819 9.07394 37.869 8.4191 37.6309C8.72636 36.8938 9.17324 36.2168 9.6679 35.5697C9.93272 35.6664 10.1823 35.7961 10.4132 35.9843C10.7184 36.2336 10.9487 36.5468 11.2533 36.7825C10.8732 37.3399 10.5665 37.9392 10.362 38.5777ZM12.6217 35.2158C12.4133 35.4107 12.2134 35.6146 12.0227 35.8268C11.7253 35.4859 11.3027 35.2168 10.9421 34.9744C10.7648 34.8554 10.5657 34.7892 10.3708 34.7126C10.9461 34.0727 11.5614 33.471 12.1764 32.9205C12.737 33.1234 13.2701 33.3757 13.7384 33.7545C13.8422 33.8383 13.9333 33.9405 14.0227 34.0452C13.5391 34.4151 13.0717 34.8056 12.6217 35.2158ZM15.6118 32.8831C15.4418 32.9974 15.2822 33.1162 15.119 33.2355C14.9653 33.117 14.8085 33.0025 14.6489 32.8919C14.1954 32.5729 13.6743 32.3471 13.1391 32.1752C13.7127 31.7625 14.3091 31.3823 14.9439 31.0695C15.2346 30.9261 15.5611 30.8572 15.878 30.7756C15.7499 31.456 15.6722 32.1677 15.6118 32.8831ZM24.5739 3.2865C24.5464 2.80519 24.7512 2.42398 25.0448 2.09509C25.3433 2.22296 25.7408 2.23818 26.0526 2.13354C27.0843 1.78757 28.2146 1.79157 28.6479 3.0022C29.1078 4.2865 27.7894 4.75099 26.7485 4.77822C25.8048 4.80305 24.6361 4.37192 24.5739 3.2865ZM27.7576 6.3802C27.6359 7.30492 27.5742 8.28837 27.6247 9.22029C27.1168 9.17511 26.6105 9.11493 26.1062 9.03983C26.0996 8.90289 26.1033 8.76434 26.0985 8.64395C26.0726 7.93479 26.1297 7.22503 26.2688 6.52916C26.2736 6.5054 26.2667 6.48591 26.2691 6.46295C26.7563 6.51688 27.2637 6.4747 27.7576 6.3802ZM17.4805 11.79C17.488 11.7838 17.4976 11.782 17.5051 11.7756C20.6265 9.13727 27.7915 11.5353 31.7098 11.4448C37.563 11.3095 35.733 21.7585 34.5731 25.3404C33.7637 27.8394 22.6345 26.6792 20.4567 26.3797C15.3588 25.6781 16.9068 15.8388 17.4805 11.79ZM20.6468 49.677C19.3759 49.6869 17.6009 49.495 16.2611 49.9045C16.3433 47.9624 18.1014 46.8815 20.0005 46.5249C22.5454 46.047 23.8737 47.551 24.4744 49.6055C23.229 49.4533 21.7888 49.6682 20.6468 49.677ZM23.5416 44.1618C23.598 44.4934 23.6385 44.8882 23.7077 45.274C22.4826 44.6378 20.9955 44.3965 19.477 44.6263C19.0726 44.6875 18.6567 44.8073 18.2456 44.9672C18.3355 44.3458 18.4349 43.7278 18.5934 43.1127C18.7459 42.5222 19.1399 41.9387 19.3241 41.3495C20.6046 41.6546 22.0264 41.7328 23.2952 41.7966C23.2912 41.837 23.2733 41.8674 23.2741 41.9106C23.2894 42.6685 23.4146 43.4157 23.5416 44.1618ZM28.5536 49.9034C28.5454 49.7657 28.532 49.6181 28.527 49.5369C28.5128 49.295 28.7272 49.0462 28.8716 48.8794C29.4274 48.2376 30.2984 47.7945 31.0785 47.4982C32.9469 46.7894 35.1668 46.8538 35.2608 49.2798C35.2629 49.3375 35.276 49.3986 35.2875 49.4595C33.0542 49.3404 30.5859 49.2126 28.5536 49.9034ZM28.8993 46.4397C28.9287 45.2155 29.0819 44.1311 29.5902 42.9448C29.6463 42.8133 29.6746 42.6716 29.6735 42.5286C31.3508 42.6928 33.0448 42.7294 34.5152 42.3861C34.5558 42.5537 34.6012 42.7168 34.6383 42.8626C34.862 43.747 34.9952 44.6648 35.0825 45.5793C33.7979 45.0033 32.1313 45.0468 30.5595 45.6148C29.9767 45.8261 29.4197 46.1028 28.8993 46.4397ZM27.0104 39.8602C24.2912 39.5454 21.0043 40.1445 18.4594 38.9627C17.3452 38.4451 17.1343 35.8775 17.4514 33.3847C17.465 33.3532 17.4885 33.3252 17.5003 33.2924C17.5424 33.1768 17.54 33.0652 17.5125 32.9613C17.8526 30.7235 18.6033 28.6442 19.5043 28.295C19.5189 28.2894 19.5267 28.2732 19.5403 28.2654C19.6647 28.3009 19.7736 28.3556 19.9044 28.3839C23.3852 29.1458 27.1727 28.6688 30.7095 28.6899C32.1506 28.6981 33.4949 28.7003 34.5932 28.2256C36.3646 30.3185 36.6295 33.9811 36.6193 36.5505C36.5985 41.8031 30.3121 40.2422 27.0104 39.8602ZM38.5219 31.3089C38.3828 30.7032 38.2208 30.11 38.0096 29.5569C38.6215 29.79 39.2456 29.972 39.8646 30.1939C39.5401 30.6786 39.3162 31.2235 39.2063 31.7964L39.1762 31.7734C38.9649 31.6092 38.7466 31.4542 38.5219 31.3089ZM41.0464 33.1786C40.9319 33.0988 40.8249 33.0233 40.737 32.9568L39.8388 32.2753C39.8873 32.2304 39.9431 32.1992 39.973 32.1242C40.1965 31.5668 40.5083 31.0804 40.9007 30.6402C41.044 30.7126 41.189 30.7748 41.3299 30.8596C41.8067 31.1469 42.2357 31.48 42.6433 31.8329C42.6481 31.8484 42.6594 31.8618 42.6652 31.877C42.6621 31.8794 42.659 31.8819 42.6559 31.8845C42.4709 32.0369 42.2608 32.165 42.0633 32.3009C41.6989 32.551 41.3062 32.8137 41.0464 33.1786ZM43.3441 34.8055C43.252 34.8706 43.1631 34.9432 43.0734 35.0142C42.8476 34.5665 42.3727 34.1442 41.8876 33.7774C42.472 33.4742 43.0924 33.1797 43.6287 32.8113C43.993 33.2267 44.3369 33.66 44.6401 34.1277C44.1804 34.2961 43.7447 34.524 43.3441 34.8055Z" fill="#691213"/>
<path d="M23.4894 52.0002C22.964 52.0002 22.4312 51.9652 21.9157 51.9313C21.4645 51.9017 21.0385 51.8737 20.6458 51.8705C19.7139 51.8635 18.4856 51.8422 17.2488 51.7394C16.8999 51.7105 16.5737 51.6168 16.2584 51.5266C16.0174 51.4575 15.7897 51.3921 15.567 51.36C15.4859 51.3483 15.4216 51.3059 15.369 51.2631L15.3401 51.2535L15.239 51.135C15.2132 51.1118 15.1902 51.0857 15.1706 51.0571C14.6247 50.2388 14.4402 49.3793 14.6223 48.5023C14.8495 47.4089 15.669 46.3293 16.8764 45.5298C16.7846 44.6227 16.8647 43.5504 17.1087 42.4233L17.133 42.3093C17.2285 41.8622 17.3455 41.3147 17.5697 40.8523C16.0625 40.0603 15.3313 38.7938 15.3353 36.9858C15.3361 36.4836 15.3423 35.9511 15.3535 35.3993L15.3356 35.41C14.8802 35.6831 14.4501 35.9412 14.1282 36.2111C12.8687 37.265 12.0585 38.2856 11.5857 39.415C12.0355 39.895 12.3425 40.395 12.523 40.9417C13.3353 43.4022 11.0054 45.2207 9.54409 46.0859C9.11857 46.3373 8.57399 46.2658 8.17569 45.9145C8.01392 45.7717 7.91008 45.5926 7.87511 45.3963C7.79555 44.9497 7.91969 44.5477 8.2168 44.2778C8.19799 44.2268 8.18613 44.1735 8.18157 44.1193C8.1498 43.6409 8.33186 43.273 8.50832 42.9172C8.60869 42.7143 8.70372 42.5223 8.75685 42.316C8.78114 42.2212 8.79529 42.1782 8.80303 42.1566L8.80383 42.1075C8.80623 42.0389 8.80837 41.9767 8.8065 41.9169C8.76646 41.8486 8.75258 41.7559 8.74804 41.7111C8.62417 41.4914 8.53634 41.4102 8.27954 41.2653C7.96187 41.0859 7.87804 41.0442 7.40474 40.9399C6.73763 40.7922 6.14259 40.8013 5.63805 40.9682C5.62764 40.9788 5.6159 40.9892 5.60255 40.9991C5.60602 41.0079 5.60949 41.0167 5.61376 41.0261C5.77447 41.3761 5.75978 41.7426 5.57398 42.0325C5.3356 42.4044 4.85375 42.5691 4.42342 42.4257C4.39822 42.5482 4.34134 42.662 4.25845 42.7557C4.09935 42.9396 3.85375 43.0541 3.61776 43.0541C3.51964 43.0552 3.42248 43.0346 3.33321 42.9939C3.24393 42.9531 3.16472 42.8932 3.10121 42.8184C2.39139 41.9887 1.63165 40.5603 1.82705 39.2658C1.9365 38.5405 2.32492 37.9626 2.98135 37.5477C3.63805 37.1326 4.46053 36.9222 5.42503 36.9222C5.96534 36.9222 6.54168 36.9884 7.13966 37.119C7.87564 34.3606 10.0497 32.2896 11.2926 31.293L11.3834 31.2202C12.3356 30.4551 14.3172 28.863 15.8532 28.863C15.9888 28.863 16.1196 28.8755 16.243 28.9003L16.2496 28.8793C16.2731 28.8045 16.2969 28.7295 16.3249 28.6593C16.578 28.0229 17.0235 27.6406 17.6818 27.4975C15.417 25.7754 14.8198 22.469 14.7339 19.8913C14.2432 19.9794 13.5905 19.9289 12.9792 19.7621C12.6218 20.6182 12.0718 21.2306 11.3831 21.537C11.0777 21.6714 10.7472 21.7397 10.4135 21.7372C8.82732 21.7372 7.271 20.3435 7.21066 18.8694C7.17516 18.0039 7.4915 17.0296 8.07826 16.1964L8.13805 16.111C8.35802 15.796 8.58573 15.4703 8.94878 15.2813C9.01285 15.2482 9.36283 15.1289 9.41889 15.1289H9.44184C9.57879 15.08 9.72508 15.1006 9.81931 15.179C9.81771 15.1283 9.82065 15.0771 9.82839 15.0258C9.86576 14.7746 10.0083 14.5672 10.2197 14.4569C10.5022 14.3099 10.7846 14.2351 11.0593 14.2351C11.8217 14.2351 12.5193 14.8096 12.9851 15.8165C13.0083 15.8112 13.0342 15.8072 13.0628 15.8058C13.2857 15.7954 13.5203 15.7738 13.76 15.7517C14.1589 15.7148 14.5743 15.6777 14.9712 15.6865C15.1693 14.1892 15.4747 12.7167 15.8351 11.521C15.7462 11.3104 15.7464 11.0733 15.8361 10.832C16.464 9.14167 18.0903 8.32 20.8078 8.32C21.7027 8.32 22.5689 8.40702 23.2985 8.49218C23.6784 8.5365 24.055 8.59069 24.4896 8.65689C24.5342 7.74525 24.7456 6.73884 24.8812 6.22069C23.4677 5.5728 22.681 4.33495 22.8214 2.96442C22.9584 1.6326 24.0636 0.533025 25.3981 0.396346C25.8033 0.193196 26.3335 0.0495759 26.8228 0.0111349C28.2075 -0.0969804 29.558 0.626992 30.1645 1.78823C30.8239 3.05091 30.7318 4.42891 29.9245 5.38433C29.6527 5.70574 29.2787 5.97136 28.7838 6.1932C28.786 6.20119 28.7877 6.2093 28.7889 6.21749C28.8305 6.51674 28.8578 6.8208 28.8839 7.11471C28.9176 7.49352 28.9525 7.8854 29.0187 8.26314C29.0291 8.32187 29.0449 8.37819 29.0604 8.43425L29.0609 8.43612C29.405 8.49352 29.6954 8.77008 29.7742 9.11124C29.9368 9.10243 30.1015 9.09229 30.2675 9.08241C30.7932 9.05064 31.3367 9.01781 31.8724 9.01781C32.7085 9.01781 33.3623 9.0987 33.9306 9.27221C35.9894 9.90088 37.3222 11.6879 37.8949 14.5853C38.0078 14.5402 38.1372 14.536 38.2713 14.5747C38.4325 14.6206 38.5924 14.6694 38.752 14.7183C39.3965 14.915 40.0051 15.1011 40.6517 15.1011C40.7785 15.1011 40.9042 15.0936 41.0259 15.0789C41.172 15.0616 41.295 15.0845 41.4122 15.1459C41.7006 14.7152 42.0249 14.3096 42.3815 13.9335C42.4489 13.86 42.5328 13.8036 42.6263 13.7689C42.7198 13.7342 42.8201 13.7223 42.9191 13.734C43.3124 13.3705 43.9085 13.3416 44.315 13.7036C46.1332 15.3205 46.8647 16.8438 46.4896 18.2308C46.1701 19.4137 45.0614 20.2591 43.6658 20.3849C42.622 20.4796 41.6159 20.0445 41.0347 19.2626C40.5145 19.2108 39.9763 19.1964 39.4557 19.1825C39.1252 19.1737 38.7956 19.1652 38.4699 19.147C38.3619 19.1425 38.2563 19.1137 38.161 19.0627C38.0233 21.6331 37.4488 24.4174 36.6762 26.2276C36.5961 26.4153 36.5024 26.5715 36.4114 26.722C36.7515 27.0482 37.0652 27.4465 37.366 27.9343C38.3687 27.5013 39.7462 27.7386 41.385 28.5984C41.5844 28.4956 41.8714 28.3817 42.1589 28.418C42.4357 28.4537 42.665 28.6243 42.7574 28.863C42.8268 29.0413 42.8105 29.2319 42.7152 29.4025C42.7201 29.4059 42.7251 29.4092 42.7301 29.4124C44.6423 30.7453 45.9704 32.1665 46.7878 33.7559C46.9389 33.7829 47.0873 33.8203 47.2296 33.8678C47.7659 34.0477 48.314 34.4001 48.7755 34.8614C48.8916 34.9199 49.0026 34.9879 49.1073 35.0648C49.7726 35.5653 50.1498 36.2682 50.1976 37.0976C50.2531 38.0597 49.9587 39.1806 48.9664 39.4407C48.8932 39.4602 48.8177 39.4701 48.7419 39.4703C48.4555 39.4703 48.1936 39.3229 48.0046 39.0552C47.7931 38.7562 47.708 38.3251 47.7678 37.8654C47.6362 37.6657 47.5289 37.4321 47.425 37.2057C47.3858 37.1206 47.3465 37.0352 47.3062 36.9516L47.2897 36.9508C47.2192 36.9464 47.1486 36.9436 47.078 36.9423C46.9752 36.9476 46.8901 36.9553 46.8054 36.9636C46.7964 36.9663 46.7488 36.9743 46.7016 36.9823C46.6546 36.99 46.6079 36.9981 46.5913 37.0018C46.3543 37.0552 46.1645 37.1083 45.9947 37.1694C45.9063 37.2009 45.8551 37.2178 45.8204 37.229C45.76 37.2482 45.76 37.2482 45.6493 37.3099L45.5227 37.3795C45.4221 37.4348 45.322 37.4903 45.2259 37.553C45.2147 37.5603 45.1861 37.5811 45.1543 37.604C45.1162 37.6318 45.0742 37.662 45.05 37.6782C44.9416 37.7703 44.8409 37.8678 44.7518 37.9692C44.7323 38.0304 44.6872 38.1406 44.6247 38.2154C44.6276 38.2562 44.622 38.2928 44.6194 38.308C44.6237 38.3248 44.6285 38.3414 44.6338 38.3579C44.6407 38.3729 44.6533 38.4022 44.6615 38.4164C44.7371 38.541 44.8094 38.6446 45.0492 38.847C45.2737 39.0343 45.502 39.2172 45.7339 39.3955C46.0203 39.6182 46.1194 39.9612 45.9987 40.3133C45.8281 40.8096 45.2854 41.1315 44.8198 40.9946C44.8017 40.9889 44.7837 40.9827 44.7659 40.9759C44.6372 41.0979 44.4934 41.1508 44.3268 41.1339C42.8409 40.9759 41.3033 39.907 41.2403 38.1702C41.2171 37.5266 41.3949 36.8878 41.7691 36.2693C41.558 36.1251 41.3799 35.9273 41.2067 35.7351C41.1259 35.6434 41.0421 35.5543 40.9555 35.4682C40.542 35.0685 40.1222 34.6754 39.6962 34.289C39.539 34.1462 39.3786 34.0045 39.2173 33.8616L39.0297 33.6953C39.1906 35.6569 39.0289 37.6011 38.5873 38.9527C38.1853 40.1839 37.4616 41.1281 36.4357 41.7613C36.7576 42.7092 36.8799 44.2311 36.7996 46.288C36.7929 46.4561 36.7534 46.5947 36.6792 46.7239C37.1682 47.4161 37.4261 48.2749 37.4456 49.2778C37.4488 49.4351 37.413 49.5883 37.3372 49.7439C37.5863 50.0183 37.7112 50.4369 37.4621 50.8253C36.8997 51.7015 35.9496 51.8139 35.185 51.8139C34.8748 51.8139 34.5636 51.7933 34.2625 51.7733L33.9824 51.7554C33.5409 51.7278 33.0997 51.6953 32.6589 51.658C31.8399 51.5915 30.9931 51.5229 30.161 51.5229C29.5953 51.5229 29.0844 51.5538 28.5983 51.6179C28.2897 51.6593 28.0481 51.5632 27.8871 51.3531C27.7424 51.1646 27.6845 50.8926 27.7269 50.6214C27.6976 50.6112 27.6682 50.6016 27.6391 50.592C27.334 50.4911 26.9883 50.3766 26.8529 49.7754C26.7136 49.1532 26.8097 48.5408 27.1314 48.0047C27.251 47.8056 27.3978 47.6299 27.5433 47.4615C27.5002 47.4011 27.4657 47.3351 27.4408 47.2653C26.8933 45.722 26.9928 43.8042 27.6794 42.4236C27.4264 42.3886 27.1762 42.3536 26.9301 42.3189C26.3332 42.2354 25.7662 42.1561 25.2291 42.091C25.2438 42.713 25.3036 43.3456 25.3612 43.9591L25.3772 44.1278C25.3893 44.2583 25.4079 44.4006 25.4274 44.5496C25.5016 45.1171 25.586 45.7602 25.4007 46.2535C25.3864 46.2899 25.367 46.3241 25.3431 46.355C26.3132 47.4148 26.802 48.7914 26.7584 50.3446C26.7467 50.7671 26.4934 51.127 26.0783 51.3136C25.9539 51.4778 25.7779 51.6072 25.5673 51.6892C25.0241 51.9014 24.3636 52.0002 23.4894 52.0002ZM15.4984 51.0296C15.5051 51.033 15.5139 51.0376 15.523 51.0448C15.5422 51.0608 15.5804 51.0928 15.605 51.096C15.8457 51.131 16.082 51.1988 16.3319 51.2701C16.6349 51.3568 16.948 51.4468 17.271 51.4738C18.4987 51.5757 19.7205 51.5968 20.6477 51.6038C21.0481 51.607 21.4779 51.635 21.9328 51.6649C22.444 51.6985 22.9723 51.7332 23.4891 51.7332C24.3292 51.7332 24.9587 51.6401 25.4701 51.4407C25.645 51.3726 25.7873 51.265 25.8823 51.1291L25.9045 51.0976L25.9402 51.0827C26.1015 51.0151 26.4784 50.8077 26.4912 50.3374C26.5342 48.8144 26.0425 47.4714 25.0692 46.4532L24.9931 46.3737L25.0566 46.2837C25.0716 46.2626 25.0879 46.2434 25.1044 46.2239C25.1232 46.2051 25.1387 46.1834 25.1503 46.1596C25.3121 45.7287 25.2326 45.1206 25.1621 44.5843C25.1423 44.4408 25.1251 44.297 25.1106 44.1529L25.0948 43.9842C25.0318 43.3152 24.9667 42.6238 24.9587 41.942L24.9571 41.7904L25.1076 41.8077C25.6922 41.8763 26.311 41.9631 26.9661 42.0549C27.2726 42.0979 27.5852 42.1417 27.9029 42.1849L28.0959 42.2111L28.0016 42.3817C27.2811 43.6884 27.1535 45.6598 27.6917 47.1764C27.7171 47.2482 27.756 47.3107 27.8145 47.3734L27.8962 47.4612L27.7926 47.5805C27.6319 47.7658 27.4806 47.9409 27.3594 48.1425C27.0737 48.6182 26.9883 49.1628 27.1127 49.717C27.2147 50.1705 27.4277 50.241 27.7221 50.3384C27.791 50.3614 27.8612 50.3846 27.9306 50.4129L28.0393 50.4575L28.0091 50.5709C27.9474 50.8013 27.9814 51.0389 28.0977 51.1905C28.2008 51.3243 28.3567 51.3798 28.5622 51.3528C29.0598 51.2874 29.5823 51.2557 30.1597 51.2557C31.0024 51.2557 31.8551 51.3248 32.6792 51.3915C33.1172 51.4273 33.5558 51.4628 33.9968 51.4887L34.279 51.5066C34.5756 51.5263 34.8823 51.5466 35.184 51.5466C35.8807 51.5466 36.7438 51.4481 37.2363 50.6806C37.4381 50.3664 37.2793 50.0456 37.0823 49.8664L37.0019 49.7938L37.0566 49.7001C37.1418 49.5546 37.1805 49.422 37.1776 49.2829C37.1586 48.3 36.8999 47.4671 36.4093 46.808L36.3513 46.73L36.4077 46.6508C36.4864 46.5402 36.5254 46.43 36.5305 46.3034C36.6338 43.663 36.3791 42.3721 36.1471 41.7495L36.1082 41.6443L36.2045 41.5877C37.2371 40.9804 37.9333 40.0912 38.3321 38.8691C38.7883 37.4732 38.9378 35.4217 38.732 33.3819L38.697 33.0373L38.9541 33.2695C39.0996 33.4011 39.2467 33.5312 39.3933 33.6609C39.555 33.8042 39.7165 33.9468 39.8746 34.0904C40.3025 34.4787 40.7244 34.8736 41.1399 35.2752C41.2275 35.3598 41.3145 35.4564 41.4037 35.5552C41.594 35.7663 41.791 35.9847 42.0166 36.108L42.1426 36.1769L42.0646 36.2976C41.6712 36.9052 41.4832 37.5314 41.5062 38.1593C41.5638 39.7444 42.9824 40.7215 44.3543 40.8675C44.4563 40.8777 44.5395 40.8368 44.6268 40.7324L44.685 40.663L44.771 40.6913C44.7932 40.6985 44.815 40.7076 44.8372 40.7162C44.8564 40.7239 44.8756 40.7322 44.8949 40.7378C45.2213 40.8341 45.6207 40.588 45.7451 40.2258C45.7939 40.0832 45.8361 39.8131 45.5692 39.6054C45.3343 39.425 45.1032 39.2399 44.8759 39.0501C44.629 38.8424 44.5329 38.7202 44.4322 38.5544C44.414 38.5207 44.3976 38.4861 44.3828 38.4508C44.3682 38.4056 44.3555 38.3597 44.3449 38.3133L44.4034 38.2917L44.3223 38.2429L44.3503 38.1443L44.3537 38.1449L44.354 38.1409L44.4384 38.1454L44.3588 38.1115L44.3876 38.0095L44.3668 38.0063L44.3997 37.9676L44.6816 36.9791L44.6445 37.6897C44.7179 37.6142 44.7985 37.5397 44.8874 37.4647C44.921 37.4412 44.96 37.4129 44.996 37.3867C45.0315 37.3608 45.0644 37.3373 45.0775 37.3288C45.18 37.2618 45.2857 37.2025 45.3927 37.1443L45.5179 37.0752C45.6415 37.0069 45.6517 37.0013 45.7363 36.9738C45.7694 36.9631 45.8185 36.9471 45.9029 36.9172C46.1084 36.8454 46.3182 36.7863 46.531 36.7404C46.5497 36.7359 46.6025 36.7271 46.6551 36.718C46.6989 36.7105 46.7432 36.7031 46.7643 36.6988C46.8666 36.6884 46.9549 36.6801 47.0438 36.675L47.0764 36.6742C47.1287 36.6742 47.2179 36.6788 47.3022 36.6831L47.4739 36.6913L47.5091 36.7613C47.563 36.8694 47.6148 36.9812 47.6661 37.0934C47.7729 37.3259 47.8834 37.5661 48.0155 37.7559L48.046 37.7997L48.0379 37.8523C47.9747 38.2634 48.0417 38.6454 48.2213 38.9001C48.3946 39.1451 48.6397 39.2482 48.8973 39.1812C49.7339 38.962 49.9792 37.9682 49.9298 37.1112C49.8866 36.3627 49.5462 35.7282 48.9453 35.2765C48.8464 35.2048 48.7418 35.1414 48.6324 35.0869L48.5991 35.0627C48.1634 34.6233 47.6466 34.2885 47.1434 34.1195C46.9914 34.0691 46.8355 34.0314 46.6773 34.0069L46.6095 33.9962L46.5788 33.9351C45.7843 32.3616 44.4752 30.9535 42.5761 29.6299L42.3284 29.4644L42.4242 29.351C42.5283 29.2282 42.5577 29.0885 42.5072 28.9577C42.4498 28.8104 42.3028 28.7044 42.1234 28.6812C41.9301 28.6553 41.7243 28.7143 41.4472 28.8648L41.3842 28.899L41.3209 28.8654C40.2432 28.292 39.2531 27.9887 38.4579 27.9887C38.0689 27.9887 37.7189 28.0603 37.4173 28.2012L37.4151 28.2041L37.2681 28.2896L37.2019 28.1788C36.8714 27.6246 36.5273 27.1873 36.1501 26.8424L36.0697 26.769L36.1776 26.5891C36.2691 26.4377 36.3554 26.2944 36.4293 26.1211C37.2184 24.2719 37.7982 21.3862 37.9061 18.769L37.9173 18.4978L37.9165 18.4989L37.921 18.1003C37.9317 17.154 37.8911 16.3315 37.7966 15.5856L37.7638 15.3251L37.9936 15.4521C38.0072 15.4596 38.0195 15.4682 38.0313 15.477L38.2237 15.5557C39.1076 15.9081 39.9421 16.241 40.8735 16.403L41.0283 16.43L40.9768 16.5784C40.8337 16.9898 40.7683 17.4017 40.7822 17.8029L40.7867 17.9324L40.6575 17.9409C40.2638 17.9666 39.8626 17.9772 39.4744 17.9876C39.1421 17.9965 38.8108 18.0053 38.483 18.0231C38.3449 18.0309 38.2363 18.0845 38.1602 18.1833L37.9675 18.4329L38.1498 18.6988C38.2261 18.8101 38.3383 18.8707 38.4832 18.8785C38.8065 18.8963 39.1338 18.9049 39.4616 18.9137C40.0072 18.9281 40.5713 18.9431 41.1207 19.0013L41.1808 19.0074L41.2157 19.0568C41.7366 19.7925 42.6696 20.2041 43.641 20.1168C44.9242 20.0013 45.9408 19.2327 46.2312 18.1593C46.5777 16.8777 45.873 15.4452 44.137 13.9009C43.8132 13.6128 43.3551 13.6582 43.0598 13.9671L43.0078 14.0215L42.9344 14.005C42.87 13.9887 42.8024 13.9904 42.739 14.0097C42.6755 14.0291 42.6185 14.0655 42.5742 14.115C42.1982 14.5114 41.8594 14.9417 41.5622 15.4003L41.4822 15.525L41.3663 15.4321C41.2707 15.3552 41.177 15.3267 41.0569 15.3414C40.9221 15.3572 40.7866 15.3652 40.6509 15.3651C39.9645 15.3651 39.3081 15.1646 38.6733 14.9708C38.5153 14.9225 38.3567 14.8742 38.197 14.8285C38.0751 14.7936 37.9741 14.816 37.8965 14.8969L37.7157 15.0843L37.6688 14.8283C37.1381 11.9204 35.8537 10.1358 33.8516 9.52448C33.3097 9.35897 32.6802 9.28182 31.8716 9.28182C31.3439 9.28182 30.8046 9.31439 30.283 9.34589C30.0751 9.35844 29.869 9.37099 29.6663 9.3814L29.535 9.38807L29.5265 9.25673C29.5075 8.96122 29.2432 8.70147 28.9501 8.68972L28.8503 8.68572L28.8028 8.50259C28.7837 8.43792 28.7678 8.37235 28.7552 8.30612C28.6869 7.91744 28.6514 7.51994 28.6172 7.13527C28.5911 6.84456 28.5644 6.54397 28.5235 6.25192C28.503 6.23628 28.4859 6.21656 28.4733 6.194L28.3986 6.06239L28.5385 6.00473C29.0644 5.78743 29.4507 5.52715 29.7197 5.20895C30.456 4.33788 30.5353 3.07333 29.9269 1.90863C29.3692 0.840553 28.1242 0.175043 26.8428 0.274082C26.3778 0.310654 25.8743 0.448401 25.496 0.642208L25.4488 0.65956C24.2275 0.773014 23.2123 1.77568 23.0873 2.99138C22.9296 4.52875 24.0235 5.56639 25.1001 6.02528L25.2141 6.07387L25.1522 6.23618C25.019 6.73137 24.7779 7.8499 24.751 8.81493L24.7467 8.96602L24.5972 8.94306C24.1553 8.87282 23.712 8.81079 23.2678 8.757C22.546 8.67291 21.6893 8.58668 20.8084 8.58668C18.2157 8.58668 16.6712 9.3515 16.0868 10.9246C16.0153 11.1171 16.0187 11.2941 16.0972 11.4513L16.121 11.4989L16.1055 11.5496C15.7331 12.7719 15.4189 14.296 15.2208 15.8408L15.2051 15.9636L15.0815 15.9572C14.6631 15.9353 14.216 15.9772 13.7851 16.0167C13.5414 16.0392 13.3025 16.0613 13.0753 16.0717C13.0481 16.0742 13.0214 16.0803 12.9958 16.0899L12.8345 16.1339L12.7891 16.0288C12.5897 15.5696 12.0227 14.5013 11.0601 14.5013C10.8287 14.5013 10.5879 14.5659 10.3439 14.6929C10.2091 14.7634 10.1175 14.8987 10.0932 15.0643C10.0668 15.2428 10.1215 15.4188 10.2398 15.5344C10.3471 15.6398 10.4854 15.726 10.6316 15.8176C10.8265 15.9393 11.0281 16.0653 11.169 16.2485C11.4277 16.5843 11.5582 17.0061 11.5801 17.5763C11.6116 18.3945 11.3724 19.5034 10.5953 19.9351C10.5252 19.9734 10.4464 19.993 10.3666 19.9919C10.1055 19.9919 9.82919 19.8042 9.64633 19.6801L9.60148 19.6497C8.98642 19.2372 8.79022 18.7423 8.94531 17.9943C9.01766 17.6454 9.16875 17.3133 9.31478 16.9922C9.55023 16.4738 9.77286 15.9839 9.67943 15.4449C9.66368 15.3542 9.57505 15.3494 9.49283 15.3982L9.34014 15.4892L9.32385 15.427C9.23469 15.4564 9.11002 15.4983 9.07212 15.5178C8.76753 15.6761 8.55904 15.9746 8.35749 16.2631L8.29689 16.3496C7.74323 17.1355 7.44478 18.0498 7.47788 18.8579C7.53261 20.2004 8.95946 21.4698 10.4141 21.4698C10.7104 21.4721 11.0039 21.4118 11.2753 21.2928C12.0999 20.9257 12.5468 20.1433 12.7766 19.552L12.8212 19.4369L12.9392 19.4724C13.6044 19.6721 14.3391 19.7236 14.8297 19.5974L14.992 19.5557L14.9963 19.7234C15.0638 22.3587 15.6575 25.8416 18.1023 27.469L18.4176 27.6785L18.0406 27.7129C17.2961 27.7808 16.83 28.1126 16.5737 28.7575C16.5481 28.8221 16.5265 28.8907 16.5048 28.9593C16.4896 29.0077 16.4744 29.0554 16.4581 29.1027L16.4168 29.221L16.2958 29.1871C16.1517 29.1478 16.0029 29.1285 15.8535 29.1297C14.4114 29.1297 12.4792 30.682 11.5508 31.4281L11.46 31.5007C10.2245 32.4916 8.04969 34.5643 7.36656 37.3099L7.3348 37.4375L7.20693 37.4078C6.58333 37.2626 5.98376 37.1892 5.42556 37.1892C4.51232 37.1892 3.73816 37.3857 3.12444 37.7733C2.53634 38.1449 2.18904 38.6601 2.0916 39.3053C1.90954 40.5109 2.63138 41.8574 3.30463 42.6443C3.405 42.7618 3.53074 42.7866 3.6183 42.7866C3.779 42.7866 3.94718 42.7076 4.05717 42.5805C4.11857 42.5095 4.18717 42.3934 4.16528 42.2434L4.12631 41.977L4.36203 42.1072C4.71841 42.3042 5.14953 42.2004 5.34975 41.8878C5.48749 41.6729 5.49523 41.4065 5.3719 41.1374C5.35703 41.104 5.3441 41.0698 5.33319 41.0349L5.30463 40.9551L5.00431 40.9078L5.50244 40.7319C6.06411 40.5336 6.72615 40.5154 7.46293 40.6785C7.94932 40.7856 8.06064 40.8339 8.41141 41.032C8.72775 41.2105 8.84441 41.3267 9.00538 41.6227V41.6233L8.9042 41.6782L9.01312 41.675C9.01606 41.6977 9.03848 41.7792 9.04729 41.7989L9.00992 41.8157L9.06704 41.8093L9.06758 41.8149L9.06838 41.8235C9.07772 41.9212 9.07452 42.0167 9.07105 42.1088L9.06998 42.1686V42.1953L9.05663 42.2407C9.05236 42.2514 9.04195 42.2781 9.01552 42.3817C8.95546 42.6152 8.84975 42.8285 8.7475 43.0346C8.57959 43.3739 8.42102 43.694 8.44798 44.1006C8.45039 44.1369 8.46373 44.1742 8.47895 44.2178C8.48642 44.2388 8.4939 44.2599 8.50031 44.2816L8.52754 44.3702L8.45386 44.4265C8.1813 44.6347 8.06918 44.9623 8.13779 45.3483C8.16208 45.4847 8.23629 45.6107 8.35215 45.7132C8.66448 45.9887 9.07986 46.0493 9.40794 45.8547C10.8001 45.0306 13.023 43.3072 12.2694 41.0245C12.0937 40.4927 11.7875 40.0058 11.3332 39.5362L11.2729 39.474L11.3052 39.3937C11.7902 38.19 12.6327 37.1134 13.9565 36.0053C14.2945 35.7223 14.7334 35.4588 15.1981 35.1801L15.4691 35.0474L15.6287 35.0202L15.625 35.182C15.6108 35.8109 15.6031 36.418 15.602 36.9852C15.598 38.7295 16.3198 39.9361 17.8086 40.6737L17.9333 40.7354L17.8666 40.8574C17.6194 41.3083 17.4942 41.8937 17.3938 42.364L17.3692 42.4786C17.1271 43.5971 17.0502 44.6572 17.1463 45.5453L17.1535 45.5776L17.1634 45.6606L17.0932 45.7057C15.9061 46.4711 15.1007 47.5098 14.8836 48.5555C14.7165 49.3598 14.8877 50.1516 15.3927 50.9081C15.3997 50.9185 15.4095 50.9278 15.4232 50.9409L15.4984 51.0296ZM9.9664 15.6243C9.98856 16.1545 9.76993 16.6358 9.55743 17.103C9.41755 17.4108 9.27286 17.729 9.20666 18.0488C9.07345 18.69 9.22588 19.0768 9.74991 19.4281L9.79609 19.4593C9.98509 19.5877 10.3052 19.7904 10.4653 19.7017C11.0937 19.3526 11.3439 18.3878 11.3129 17.5864C11.2934 17.0744 11.1802 16.7009 10.9571 16.4113C10.8452 16.2663 10.6725 16.1582 10.4896 16.044C10.3377 15.9492 10.1805 15.851 10.0524 15.7252C10.0208 15.6942 9.99205 15.6604 9.9664 15.6243ZM38.0905 15.7922C38.1583 16.4108 38.1912 17.0811 38.1906 17.8277C38.2782 17.7871 38.3729 17.7639 38.4693 17.7594C38.7993 17.7412 39.1332 17.7322 39.4683 17.7234C39.8121 17.7143 40.1661 17.7047 40.5145 17.6849C40.5158 17.3403 40.5705 16.9903 40.6773 16.6409C39.7801 16.466 38.9752 16.1451 38.1258 15.8064L38.0905 15.7922ZM16.1196 50.0872L16.1276 49.8987C16.2019 48.1425 17.6405 46.8323 19.9757 46.3937C22.259 45.9644 23.8746 47.0795 24.6023 49.568L24.6591 49.7626L24.4581 49.738C24.1645 49.7023 23.8423 49.6849 23.4725 49.6849C22.9584 49.6849 22.4328 49.7186 21.9248 49.7514C21.4728 49.7802 21.046 49.8077 20.6479 49.8109L20.5473 49.8112C20.2662 49.8112 19.9629 49.8029 19.6466 49.7941C19.3046 49.7848 18.9477 49.7746 18.5873 49.7746C17.5895 49.7746 16.8842 49.8542 16.3001 50.0328L16.1196 50.0872ZM20.9074 46.5693C20.6287 46.5693 20.3316 46.5984 20.0249 46.6561C17.9053 47.0541 16.5689 48.1943 16.4079 49.7242C16.9806 49.5747 17.6637 49.5074 18.5871 49.5074C18.9499 49.5074 19.3094 49.5175 19.6538 49.5272C19.9675 49.5357 20.2683 49.544 20.547 49.544L20.6455 49.5437C21.0361 49.5405 21.4592 49.5135 21.9074 49.4847C22.4197 49.4519 22.9496 49.4177 23.4723 49.4177C23.7702 49.4177 24.0387 49.4286 24.2875 49.4513C23.6754 47.5389 22.5393 46.5693 20.9074 46.5693ZM28.4309 50.0864L28.4202 49.9118C28.4154 49.8357 28.4099 49.7596 28.4037 49.6836L28.3935 49.5453C28.3764 49.2479 28.6135 48.9738 28.7705 48.7925C29.2502 48.2386 30.0107 47.7613 31.0307 47.3739C31.7227 47.1118 32.4058 46.973 33.0072 46.973C34.4888 46.973 35.3364 47.7904 35.3938 49.2752C35.3954 49.3195 35.4047 49.3656 35.4135 49.4121L35.4456 49.5795L35.2798 49.5934C34.4533 49.5493 33.5169 49.4991 32.606 49.4991C30.9362 49.4991 29.6621 49.6681 28.5961 50.0304L28.4309 50.0864ZM33.0075 47.2394C32.4381 47.2394 31.7875 47.3721 31.1258 47.6233C30.1474 47.9946 29.4229 48.4468 28.9725 48.9668C28.8439 49.1158 28.6493 49.3403 28.6602 49.529L28.6701 49.6622L28.6749 49.7234C29.7352 49.3883 30.991 49.2316 32.6068 49.2316C33.4643 49.2316 34.3415 49.2754 35.1295 49.3173L35.1274 49.2845C35.0617 47.5944 33.9384 47.2394 33.0075 47.2394ZM28.7595 46.6895L28.7654 46.4369C28.7996 45.0205 29.0094 43.9607 29.4669 42.8926C29.5159 42.7778 29.5406 42.6541 29.5393 42.5293V42.3819L29.6858 42.3963C31.7366 42.5976 33.2261 42.5506 34.4843 42.2567L34.613 42.2268L34.6442 42.3552C34.6688 42.4569 34.6949 42.5568 34.7203 42.6521L34.7667 42.8304C34.9683 43.6273 35.1148 44.5226 35.2147 45.5672L35.2363 45.7954L35.027 45.7015C34.4352 45.4361 33.7558 45.3013 33.008 45.3013C32.231 45.3013 31.3997 45.4532 30.6041 45.7407C30.0309 45.9482 29.4831 46.2204 28.9715 46.552L28.7595 46.6895ZM29.7982 42.675C29.7857 42.7861 29.7569 42.8948 29.7128 42.9975C29.2961 43.9692 29.0916 44.9369 29.0406 46.194C29.5072 45.9112 30.0006 45.6753 30.5137 45.4895C31.338 45.1919 32.2003 45.0344 33.0083 45.0344C33.7077 45.0344 34.3521 45.1473 34.9272 45.3705C34.8297 44.4337 34.6922 43.6225 34.5089 42.8958L34.4629 42.7199C34.4474 42.6618 34.4322 42.6036 34.4173 42.5453C33.184 42.8133 31.7395 42.8568 29.7982 42.675ZM23.8866 45.5175L23.6458 45.3923C22.437 44.7645 20.9544 44.5373 19.4966 44.7583C19.121 44.8152 18.7163 44.9273 18.2937 45.0918L18.0804 45.175L18.1132 44.9484C18.2141 44.2514 18.3126 43.6668 18.4637 43.0795C18.5486 42.7509 18.7048 42.4252 18.8562 42.1104C18.9827 41.847 19.1135 41.5741 19.1962 41.3096L19.2334 41.1908L19.3546 41.2196C20.6586 41.5301 22.1242 41.6038 23.3014 41.6633L23.441 41.6702L23.4274 41.8093C23.425 41.8349 23.4194 41.8576 23.413 41.8803C23.4095 41.8929 23.4069 41.9025 23.4071 41.9078C23.4224 42.6697 23.5497 43.4169 23.6728 44.1395C23.6984 44.2898 23.7208 44.4532 23.744 44.6227C23.7718 44.8269 23.8009 45.04 23.8388 45.2509L23.8866 45.5175ZM20.6015 44.4078C21.6386 44.4078 22.6466 44.6254 23.5337 45.0397C23.5142 44.9113 23.4966 44.7832 23.4795 44.6588C23.4588 44.5003 23.4356 44.3421 23.4098 44.1844C23.2915 43.489 23.1573 42.7007 23.1407 41.9225C22.015 41.8654 20.6538 41.7877 19.4117 41.5069C19.3252 41.7501 19.2093 41.9914 19.0967 42.2258C18.9512 42.529 18.8006 42.8427 18.7224 43.1459C18.5903 43.6585 18.499 44.1716 18.4101 44.7637C18.7747 44.6347 19.126 44.5442 19.4568 44.4943C19.8357 44.437 20.2183 44.4081 20.6015 44.4078ZM31.9541 40.5074C30.6952 40.5074 29.377 40.3208 28.2139 40.1561C27.7782 40.0944 27.3674 40.0362 26.9947 39.9932C26.0801 39.8875 25.1175 39.8859 24.0983 39.8841C22.1381 39.8809 20.1111 39.8777 18.4029 39.084C17.1405 38.4975 17.0297 35.6385 17.3185 33.3683L17.3284 33.3325C17.3369 33.3128 17.3479 33.2936 17.3591 33.2749C17.3644 33.2661 17.3706 33.2578 17.374 33.2479C17.4037 33.1668 17.4066 33.0845 17.3831 32.9959L17.3762 32.969L17.3804 32.9415C17.6741 31.0095 18.3877 28.6115 19.436 28.1785C19.4472 28.1675 19.4598 28.1578 19.4733 28.1497L19.5225 28.1217L19.5769 28.1374C19.6324 28.1534 19.6856 28.1726 19.7382 28.1921C19.8006 28.2154 19.8634 28.2388 19.9328 28.2538C21.2769 28.548 22.7985 28.6849 24.7221 28.6849C25.6914 28.6849 26.6792 28.6518 27.634 28.6198C28.5724 28.5883 29.5425 28.5557 30.4781 28.5557L30.7101 28.5565C30.8834 28.5576 31.0556 28.5584 31.2259 28.5584C32.37 28.5584 33.5681 28.5234 34.5401 28.1032L34.6308 28.064L34.6949 28.1395C36.0759 29.7711 36.7683 32.6014 36.7526 36.5512C36.7419 39.213 35.1725 40.5074 31.9541 40.5074ZM17.5807 33.4244C17.2851 35.7717 17.4597 38.3512 18.5153 38.8416C20.1704 39.6102 22.1674 39.6136 24.0988 39.6166C25.1258 39.6185 26.0956 39.62 27.0254 39.7274C27.3999 39.7709 27.8132 39.8293 28.2512 39.8913C29.4055 40.0546 30.7141 40.2402 31.9541 40.2402C35.0355 40.2402 36.4757 39.0672 36.4856 36.5496C36.5008 32.7258 35.8508 29.9802 34.5534 28.3865C33.5534 28.7906 32.3626 28.8251 31.2259 28.8251C31.055 28.8251 30.8826 28.8243 30.7085 28.8232L30.4781 28.8224C29.547 28.8224 28.5791 28.855 27.6429 28.8862C26.6858 28.9182 25.696 28.9516 24.7221 28.9516C22.7787 28.9516 21.2387 28.8125 19.8759 28.5141C19.7975 28.4956 19.7206 28.4714 19.6458 28.4417C19.6186 28.4318 19.5916 28.4217 19.5641 28.4124L19.5532 28.419C18.7835 28.7175 18.0193 30.5386 17.6487 32.9551C17.6784 33.0867 17.6706 33.2154 17.6258 33.3382C17.6141 33.3685 17.599 33.3975 17.5807 33.4244ZM10.4357 38.7848L10.2894 38.6903C9.73122 38.3301 9.08653 38.0162 8.37324 37.7567L8.2419 37.7089L8.29582 37.58C8.56785 36.9276 8.97014 36.2629 9.56171 35.4892L9.6215 35.4113L9.7136 35.4449C10.0166 35.5555 10.2731 35.6983 10.4976 35.8814C10.6498 36.0058 10.783 36.1441 10.9122 36.2781C11.0518 36.4233 11.184 36.5605 11.3351 36.6774L11.4344 36.7543L11.3636 36.8582C10.9749 37.4284 10.6808 38.0205 10.4891 38.619L10.4357 38.7848ZM8.59694 37.5546C9.21654 37.7885 9.78461 38.0635 10.2891 38.3742C10.4755 37.8427 10.7392 37.3173 11.0745 36.8091C10.9472 36.6999 10.8316 36.5797 10.7192 36.4628C10.5959 36.3347 10.468 36.2017 10.3284 36.088C10.1428 35.9382 9.93536 35.8177 9.71333 35.7306C9.20693 36.4014 8.84868 36.9863 8.59694 37.5546ZM12.0203 36.0274L11.9218 35.9148C11.6618 35.6166 11.2905 35.3683 10.9629 35.1492L10.8674 35.0854C10.7318 34.994 10.5796 34.9359 10.4186 34.8742L10.1426 34.7666L10.2713 34.6235C10.8437 33.9905 11.4498 33.3888 12.0871 32.8211L12.1466 32.7679L12.2216 32.7954C12.8914 33.0376 13.4002 33.3096 13.8222 33.651C13.9376 33.7442 14.0345 33.8542 14.1239 33.9585L14.2152 34.0653L14.1039 34.1507C13.578 34.5565 13.1226 34.9369 12.7117 35.3141C12.5062 35.5064 12.3091 35.7076 12.121 35.9169L12.0203 36.0274ZM10.6001 34.6582C10.7406 34.7132 10.8828 34.7744 11.0163 34.864L11.1114 34.9276C11.4138 35.1299 11.752 35.3558 12.0222 35.6307C12.1851 35.4532 12.3549 35.2821 12.5313 35.1179C12.9488 34.7369 13.3816 34.3729 13.8287 34.0269C13.7749 33.9664 13.7166 33.9101 13.6543 33.8584C13.2718 33.549 12.8097 33.2984 12.2059 33.0739C11.6455 33.576 11.1097 34.1047 10.6001 34.6582ZM43.0281 35.221L42.9544 35.0747C42.7747 34.7183 42.4101 34.34 41.807 33.8841L41.6383 33.7565L42.1581 33.4887C42.633 33.2466 43.1242 32.9959 43.5532 32.7015L43.6509 32.6345L43.7291 32.7234C44.1407 33.1927 44.4755 33.6283 44.7523 34.0552L44.8433 34.1953L44.6861 34.253C44.2374 34.4173 43.8122 34.6397 43.4213 34.9145C43.3465 34.9674 43.2737 35.0256 43.201 35.0835L43.0281 35.221ZM42.1354 33.8008C42.6031 34.1708 42.9197 34.4981 43.113 34.8125C43.1637 34.7727 43.2149 34.7335 43.2667 34.6967C43.631 34.4408 44.0237 34.228 44.437 34.0627C44.2037 33.7175 43.9301 33.3638 43.6055 32.9882C43.1877 33.2634 42.7264 33.4986 42.2793 33.7268L42.1354 33.8008ZM15.1162 33.403L15.0366 33.3408C14.8847 33.2238 14.7298 33.1106 14.5721 33.0015C14.1754 32.7223 13.6933 32.4938 13.0983 32.3029L12.8463 32.2218L13.0612 32.0672C13.7091 31.6011 14.3057 31.2359 14.885 30.9503C15.1437 30.8224 15.4258 30.7519 15.6989 30.6839L16.0484 30.5944L16.0094 30.8008C15.8997 31.3838 15.818 32.0296 15.7451 32.8945L15.7398 32.9583L15.6866 32.994C15.543 33.0902 15.4074 33.19 15.2702 33.2904L15.1162 33.403ZM13.4296 32.1331C13.9381 32.3152 14.3639 32.5288 14.7253 32.7832C14.8564 32.8755 14.9902 32.97 15.1204 33.0691C15.2403 32.981 15.3596 32.8937 15.4838 32.8085C15.5478 32.0643 15.6186 31.4804 15.7093 30.9564C15.4669 31.0173 15.2195 31.0827 15.0024 31.1897C14.5006 31.4372 13.9838 31.7469 13.4296 32.1331ZM41.0783 33.3638L40.9699 33.2882C40.8537 33.2073 40.7454 33.1307 40.6562 33.0632L39.6308 32.2856L39.7478 32.1774C39.7607 32.1657 39.774 32.1543 39.7875 32.1433C39.8217 32.1147 39.8385 32.0998 39.8487 32.0747C40.0718 31.5178 40.3831 31.0194 40.8004 30.5514L40.8687 30.4751L40.9603 30.5213C41.004 30.5434 41.0478 30.5645 41.0919 30.5856C41.1946 30.6353 41.2974 30.6847 41.3981 30.7455C41.8284 31.005 42.2515 31.3184 42.7299 31.7322L42.759 31.7573L42.826 31.9225L42.7446 31.9836C42.602 32.1011 42.4517 32.2009 42.3065 32.2976C42.2499 32.3352 42.1933 32.3726 42.1378 32.411L42.0993 32.4375C41.751 32.6766 41.3914 32.9236 41.1541 33.2562L41.0783 33.3638ZM40.0443 32.2642L40.8174 32.8504C40.8767 32.8953 40.945 32.9444 41.0179 32.9959C41.2761 32.6793 41.6178 32.4449 41.9491 32.2172L41.9875 32.1908C42.0441 32.1518 42.1017 32.1136 42.1597 32.0749C42.2638 32.0058 42.37 31.9353 42.4701 31.86C42.0387 31.4924 41.6522 31.2095 41.2611 30.974C41.1674 30.9174 41.0721 30.8718 40.9765 30.8259L40.9336 30.805C40.5708 31.2274 40.2964 31.6761 40.0969 32.1734C40.0837 32.206 40.066 32.2365 40.0443 32.2642ZM39.2961 32.0373L39.1236 31.9009L39.1696 31.789L39.1645 31.788L39.0943 31.8787C38.886 31.717 38.6708 31.5644 38.4493 31.4212L38.4037 31.3918L38.3914 31.3389C38.2309 30.6417 38.07 30.0904 37.8847 29.6046L37.7785 29.3261L38.0569 29.4321C38.4031 29.5637 38.7611 29.682 39.1071 29.7957C39.3746 29.8838 39.6426 29.9722 39.9098 30.068L40.0708 30.1257L39.976 30.2679C39.662 30.738 39.445 31.266 39.3377 31.8211L39.2961 32.0373ZM38.6394 31.2263C38.7958 31.3283 38.9565 31.4412 39.1202 31.5632C39.2318 31.1045 39.4142 30.6661 39.661 30.2637C39.4485 30.1897 39.2358 30.1195 39.0233 30.0496C38.7635 29.9639 38.4971 29.8763 38.2331 29.7816C38.378 30.1991 38.5094 30.6662 38.6394 31.2263ZM28.2285 27.0434C25.008 27.0434 21.5131 26.6596 20.4381 26.5119C19.4624 26.3777 18.6642 25.9073 18.066 25.1139C15.8615 22.1908 16.7969 15.6342 17.2993 12.1118L17.3548 11.721L17.4344 11.6625C18.4322 10.8165 19.9528 10.3998 22.0662 10.3998C23.7515 10.3998 25.5657 10.6526 27.3204 10.8974C28.9539 11.1254 30.492 11.3406 31.7061 11.3115L31.8212 11.3101C33.0668 11.3101 34.0468 11.7896 34.7344 12.7348C35.9253 14.3723 36.0078 17.1275 35.8671 19.1502C35.6954 21.6179 35.1308 24.0493 34.6995 25.3817C34.3425 26.4842 32.1653 27.0434 28.2285 27.0434ZM17.6042 11.8664L17.5638 12.1497C17.1023 15.3857 16.1415 22.119 18.2793 24.9535C18.8332 25.6881 19.5718 26.1235 20.4747 26.2479C21.5444 26.395 25.023 26.7768 28.2285 26.7768C31.9827 26.7768 34.1327 26.2661 34.4458 25.2994C35.3604 22.4759 36.5815 15.7282 34.5187 12.8918C33.8842 12.0194 32.9768 11.5771 31.8214 11.5771L31.7128 11.5784C30.4776 11.6048 28.9288 11.3913 27.2838 11.162C25.5382 10.9185 23.7334 10.667 22.0668 10.667C20.0283 10.6668 18.5684 11.0592 17.6042 11.8664ZM43.3775 18.6321C43.3012 18.6321 43.2251 18.6289 43.149 18.623L42.7157 18.5899L42.7939 18.545C42.7892 18.5427 42.7845 18.5403 42.7798 18.5378L42.6858 18.49L42.6861 18.4866L42.6303 18.4556L42.6215 18.3891C42.6111 18.3123 42.6023 18.2469 42.5759 18.2052C42.5239 18.1258 42.4663 18.0502 42.4034 17.9791C42.3858 17.9583 42.3564 17.9455 42.3102 17.9262C42.2878 17.9169 42.2654 17.9076 42.2438 17.8966L42.1944 17.8718L42.1813 17.8328L42.0988 17.7826L42.1575 17.6969C42.1569 17.6729 42.1558 17.6489 42.1543 17.6249C42.1378 17.3416 42.1762 17.1302 42.2208 16.9206C42.3658 16.2402 42.6928 15.6195 42.9875 15.0912L43.0705 14.9425L43.1952 15.0587C43.6549 15.4874 44.1736 16.0154 44.5363 16.6823C44.6453 16.8825 44.7053 17.053 44.7657 17.3331L44.7766 17.4025C44.7758 17.4134 44.7761 17.4367 44.7782 17.4868C44.7795 17.5378 44.7793 17.5875 44.7769 17.6374L44.7774 17.6505L44.7766 17.6793C44.7664 17.7312 44.7528 17.7824 44.7358 17.8325L44.7053 17.9017C44.68 17.9621 44.6518 18.0213 44.6207 18.0789L44.5911 18.1243L44.5566 18.1604C44.5231 18.1939 44.4883 18.2262 44.4523 18.257C44.429 18.2778 44.4074 18.2965 44.3967 18.3072L44.3722 18.3264C44.3233 18.359 44.275 18.3915 44.2245 18.4209C44.1856 18.4433 44.1469 18.4636 44.1076 18.4834L44.0903 18.4932L44.0887 18.4938L44.0692 18.5013C44.0064 18.5234 43.9141 18.5464 43.7934 18.576C43.7261 18.5926 43.6669 18.6064 43.6461 18.6136L43.6127 18.6214C43.5345 18.6285 43.456 18.6321 43.3775 18.6321ZM43.2043 18.3592C43.3271 18.3675 43.4512 18.3675 43.5737 18.3566C43.6066 18.3467 43.6653 18.332 43.7304 18.3163C43.8124 18.2962 43.9341 18.2666 43.9776 18.2511C44.0259 18.2258 44.059 18.2084 44.0919 18.1897C44.1362 18.1638 44.1802 18.1342 44.2243 18.1048C44.2232 18.1043 44.2486 18.0819 44.2761 18.0573C44.3086 18.0285 44.3455 17.9965 44.3594 17.9815C44.3677 17.9718 44.3764 17.9625 44.3855 17.9535L44.3917 17.9433C44.4037 17.9244 44.424 17.8787 44.4421 17.8398C44.4589 17.8032 44.4696 17.7813 44.4776 17.7658L44.4824 17.7517C44.4931 17.7178 44.5043 17.6841 44.5112 17.6494L44.511 17.6302C44.5131 17.5827 44.5134 17.5394 44.5121 17.4965C44.5104 17.4567 44.5102 17.4294 44.5104 17.4105C44.5085 17.4036 44.5068 17.3967 44.5054 17.3897C44.4434 17.1024 44.3863 16.9644 44.3022 16.8101C43.9896 16.2356 43.5489 15.7637 43.1383 15.3718C42.8767 15.8488 42.6066 16.3945 42.4827 16.9764C42.4405 17.1748 42.4069 17.3592 42.4216 17.6099C42.4234 17.6393 42.4245 17.6641 42.425 17.6852C42.4824 17.7092 42.551 17.7407 42.6071 17.8064C42.6642 17.8731 42.7382 17.9631 42.8017 18.0627C42.8441 18.1297 42.8628 18.2025 42.8743 18.2725C42.9445 18.2797 43.1036 18.3024 43.2043 18.3592ZM13.6995 18.5928C13.543 18.5928 13.3751 18.5779 13.1856 18.5472L13.0564 18.5261L13.0748 18.3966C13.1242 18.0528 13.145 17.7298 13.1367 17.4369C13.1365 17.4225 13.1335 17.407 13.1311 17.3913C13.1276 17.3699 13.1249 17.3485 13.1231 17.3269L13.113 17.1742L13.2657 17.1852C13.4368 17.1972 13.613 17.2137 13.7915 17.2306C14.1442 17.2639 14.5086 17.2984 14.8575 17.2984L15.0759 17.2957L15.0654 17.4407C15.059 17.5344 15.0505 17.627 15.0422 17.7199C15.0294 17.8616 15.0166 18.0031 15.0105 18.1467L15.0048 18.2749L14.8764 18.2743C14.7451 18.2743 14.6298 18.3083 14.5302 18.3753C14.3158 18.5197 14.0363 18.5928 13.6995 18.5928ZM13.357 18.3024C13.8132 18.3611 14.1453 18.3128 14.3812 18.1537C14.4917 18.0791 14.6182 18.0316 14.7504 18.0149C14.7574 17.9081 14.767 17.8021 14.7766 17.6959L14.7881 17.5648C14.4488 17.5608 14.1023 17.528 13.7665 17.4962C13.6442 17.4847 13.5233 17.4732 13.4045 17.4634C13.4101 17.7239 13.3941 18.0055 13.357 18.3024ZM27.7659 9.36645L27.613 9.3531C27.1025 9.3078 26.5934 9.24735 26.0865 9.17184L25.9779 9.15582L25.9725 9.04611C25.9688 8.96949 25.9683 8.89261 25.9677 8.8184C25.9672 8.7594 25.9669 8.70227 25.9648 8.64888C25.9381 7.92924 25.9961 7.20896 26.1375 6.50286C26.1347 6.48502 26.1342 6.46691 26.1359 6.44894L26.1498 6.31519L26.2833 6.32987C26.7147 6.37766 27.2019 6.35016 27.7323 6.24872L27.9138 6.21402L27.8898 6.39741C27.756 7.41263 27.7117 8.35977 27.7576 9.21268L27.7659 9.36645ZM26.2358 8.92384C26.6765 8.98711 27.0873 9.03623 27.4838 9.0736C27.4517 8.29651 27.4915 7.4468 27.6017 6.54344C27.1669 6.61471 26.7627 6.63633 26.3887 6.6083C26.2587 7.27686 26.2059 7.95813 26.2312 8.63874C26.2334 8.6948 26.2339 8.75486 26.2344 8.81679C26.2347 8.85203 26.235 8.8878 26.2358 8.92384ZM26.6712 4.9129C25.6415 4.9129 24.504 4.40649 24.4405 3.29437C24.4143 2.83735 24.5796 2.41583 24.945 2.00633L25.0091 1.93479L25.0972 1.97269C25.3588 2.08481 25.7363 2.09896 26.0099 2.00713C27.3844 1.54611 28.3901 1.88567 28.7734 2.95748C28.9357 3.41103 28.9053 3.80585 28.6829 4.13073C28.2101 4.82107 27.0855 4.90329 26.7518 4.9121L26.6712 4.9129ZM25.0844 2.25326C24.8062 2.58775 24.6861 2.91557 24.7067 3.27889C24.7606 4.21802 25.7627 4.64595 26.6709 4.64595L26.7443 4.64488C27.3655 4.62859 28.1431 4.4452 28.4621 3.97963C28.6335 3.72923 28.6535 3.41557 28.5217 3.04717C28.2894 2.39821 27.8206 2.06906 27.1282 2.06906C26.8204 2.06906 26.4725 2.1334 26.0945 2.25993C25.7889 2.36244 25.3927 2.35897 25.0844 2.25326Z" fill="#691213"/>
<path d="M23.0751 12.3422C22.7828 12.185 22.51 12.2362 22.3149 12.3887C22.0444 12.169 21.7551 11.9978 21.3263 11.9599C20.53 11.8895 19.6694 12.2285 19.0832 12.7514C17.5746 14.0974 18.6534 17.0472 20.0279 18.0798C21.4457 19.1447 23.1961 18.2763 24.0578 16.9567C25.0279 15.4714 24.7033 13.2186 23.0751 12.3422ZM22.6902 16.0285C22.5308 16.3054 22.3015 16.5037 22.0428 16.6679C22.0349 16.5435 21.9965 16.4229 21.931 16.3168C21.8917 16.178 21.8616 16.0363 21.8314 15.8953C21.7748 15.6324 21.7212 15.371 21.7116 15.1551C21.6691 14.2007 20.3693 14.1038 20.1106 14.8724C20.0282 14.504 20.0559 14.1404 20.3282 13.8462C20.6475 13.5016 21.0767 13.4194 21.5073 13.2971C21.6507 13.2562 21.8533 13.1604 22.0503 13.0897C22.0719 13.2159 22.1165 13.3425 22.2142 13.4583C22.8901 14.2608 23.2569 15.0432 22.6902 16.0285Z" fill="#691213"/>
<path d="M21.4192 18.6902C21.4189 18.6902 21.4189 18.6902 21.4192 18.6902C20.8877 18.6902 20.3925 18.5207 19.9475 18.1862C19.0171 17.4873 18.275 15.9975 18.2211 14.7206C18.1845 13.8509 18.4517 13.1355 18.9939 12.6515C19.6389 12.0759 20.531 11.7559 21.3377 11.8266C21.7793 11.8656 22.0831 12.041 22.3204 12.2228C22.5644 12.0775 22.8626 12.0762 23.1381 12.2241C23.8762 12.6213 24.4042 13.3175 24.6247 14.1846C24.8708 15.152 24.7008 16.2153 24.169 17.029C23.5105 18.0383 22.4309 18.6902 21.4192 18.6902ZM21.1138 12.0839C20.4461 12.0839 19.7016 12.3779 19.1717 12.8509C18.5646 13.3925 18.4648 14.1606 18.4878 14.7097C18.5385 15.9144 19.235 17.3175 20.1076 17.9729C20.5057 18.2719 20.9467 18.4235 21.4189 18.4235C22.3428 18.4235 23.3348 17.8191 23.9456 16.8837C24.4368 16.1315 24.594 15.1475 24.3658 14.2511C24.1637 13.4574 23.6826 12.8213 23.0113 12.4598C22.7942 12.3429 22.5711 12.357 22.3962 12.4937L22.3124 12.5591L22.2299 12.4921C22.0016 12.3066 21.7326 12.1299 21.3137 12.0928C21.2472 12.0869 21.1805 12.0839 21.1138 12.0839ZM21.9237 16.9011L21.9093 16.6763C21.9027 16.5733 21.8708 16.4736 21.8164 16.3859L21.8022 16.353C21.7647 16.2151 21.7317 16.0761 21.7032 15.9361C21.6415 15.6491 21.5876 15.3843 21.578 15.1611C21.5574 14.7025 21.1976 14.4937 20.8716 14.4937C20.6335 14.4937 20.3417 14.6045 20.2371 14.9155L20.0847 15.3682L19.9803 14.9021C19.8754 14.4342 19.9595 14.0484 20.2302 13.7561C20.5372 13.4246 20.9341 13.3165 21.318 13.2115L21.4707 13.1694C21.5492 13.1472 21.6463 13.1069 21.7504 13.0645C21.8329 13.0308 21.9194 12.9956 22.0051 12.9646L22.1551 12.9107L22.1818 13.0677C22.2032 13.1923 22.2459 13.2892 22.3161 13.3725C22.9202 14.0898 23.4509 14.9742 22.806 16.0957C22.653 16.3608 22.4333 16.5786 22.1143 16.781L21.9237 16.9011ZM22.0545 16.2636C22.0881 16.3218 22.1151 16.3811 22.1349 16.4422C22.3292 16.2967 22.4709 16.1411 22.5743 15.9617C23.1042 15.0402 22.7726 14.3287 22.1119 13.5439C22.0431 13.4626 21.9906 13.3688 21.9573 13.2676C21.9216 13.2818 21.8861 13.2962 21.8514 13.3106C21.7392 13.3565 21.6333 13.3995 21.5436 13.4251L21.3879 13.4681C21.0243 13.5674 20.681 13.6611 20.4258 13.9366C20.2868 14.0866 20.2133 14.2671 20.204 14.4825C20.373 14.3205 20.609 14.2262 20.8714 14.2262C21.3345 14.2262 21.8175 14.5431 21.8447 15.1488C21.8535 15.3514 21.905 15.6042 21.9616 15.8672C21.9915 16.0076 22.0193 16.1371 22.0545 16.2636ZM30.4133 11.9222C29.8025 11.9411 29.6154 12.5871 29.9055 12.9825C28.6909 13.4483 27.7865 14.6915 28.0315 16.0298C28.3842 17.9553 30.6493 18.2951 32.252 17.9921C36.1749 17.2503 33.437 11.8277 30.4133 11.9222ZM32.1912 16.4358C32.0406 16.5145 31.8532 16.5661 31.6554 16.6018C31.661 16.364 31.6495 16.1232 31.6495 15.8877C31.7929 14.8044 29.9095 14.7366 29.9095 15.8877C29.9095 16.0212 29.905 16.1563 29.9026 16.2914C29.7173 16.1592 29.5684 15.9929 29.4915 15.7799C29.1776 14.9102 29.9672 14.1018 30.6573 13.7396C30.7809 13.6747 30.8514 13.5805 30.8813 13.4774C31.4851 13.7332 31.9883 14.057 32.3927 14.6835C32.7894 15.298 32.9165 16.0564 32.1912 16.4358Z" fill="#691213"/>
<path d="M31.2056 18.223C29.3847 18.223 28.149 17.412 27.8999 16.054C27.6367 14.6154 28.5929 13.4131 29.713 12.9176C29.6625 12.807 29.6368 12.6866 29.6378 12.565C29.6387 12.4434 29.6663 12.3235 29.7187 12.2137C29.8455 11.9534 30.0969 11.7985 30.4087 11.7887L30.4912 11.7876C32.4114 11.7876 34.1543 13.8834 34.3169 15.6186C34.441 16.9419 33.6973 17.8546 32.2763 18.1234C31.9233 18.19 31.5648 18.2233 31.2056 18.223ZM30.4915 12.0545L30.4175 12.0556C30.205 12.0623 30.0422 12.16 29.9589 12.3306C29.9156 12.4221 29.8977 12.5236 29.9072 12.6245C29.9168 12.7253 29.9534 12.8217 30.0131 12.9035L30.1167 13.0444L29.9533 13.1069C28.8756 13.5201 27.9146 14.6485 28.1631 16.0054C28.4944 17.8148 30.5758 17.9555 31.2058 17.9555C31.5507 17.9555 31.8943 17.9237 32.2272 17.8607C33.9645 17.5321 34.1159 16.3303 34.0515 15.6432C33.8988 14.018 32.2771 12.0545 30.4915 12.0545ZM31.5182 16.7625L31.5219 16.5989C31.5254 16.4587 31.5224 16.3172 31.5195 16.1765C31.5176 16.0799 31.5158 15.9833 31.5158 15.8877C31.5411 15.688 31.4998 15.5348 31.3948 15.4149C31.0625 15.0359 30.043 15.0994 30.043 15.8877C30.043 15.983 30.0406 16.0791 30.0385 16.1755L30.031 16.5471L29.8252 16.4003C29.6001 16.2398 29.4458 16.0465 29.3657 15.8255C29.0409 14.9251 29.7752 14.0519 30.5951 13.6216C30.6775 13.5783 30.7304 13.5174 30.7528 13.4403L30.7947 13.2961L30.9333 13.3546C31.4506 13.5738 32.0422 13.8946 32.5048 14.6114C32.8003 15.069 32.9095 15.5247 32.8118 15.8946C32.7373 16.1773 32.5494 16.3995 32.2528 16.5543C32.1047 16.632 31.917 16.6904 31.6791 16.7334L31.5182 16.7625ZM30.8126 14.9163C31.1306 14.9163 31.4162 15.0337 31.5959 15.239C31.7518 15.4168 31.8161 15.6472 31.7819 15.9053C31.783 15.9817 31.7849 16.0764 31.7867 16.1715C31.7886 16.2601 31.7902 16.349 31.7905 16.4376C31.9271 16.4048 32.0387 16.3653 32.1298 16.3178C32.3567 16.1992 32.4995 16.034 32.5539 15.8268C32.6311 15.5345 32.5315 15.1445 32.2811 14.7564C31.96 14.2588 31.5684 13.9328 30.9482 13.6525C30.8948 13.7369 30.8177 13.8068 30.72 13.8583C30.2026 14.1301 29.3062 14.8717 29.6177 15.735C29.6522 15.8308 29.7045 15.9189 29.7758 16.0006C29.7766 15.963 29.7768 15.9256 29.7768 15.8882C29.776 15.2203 30.3134 14.9163 30.8126 14.9163ZM32.9787 21.235C29.2806 20.9344 25.5419 21.0447 21.8828 20.3356C21.6938 20.2991 21.4733 20.3234 21.338 20.4795L21.3329 20.5105C21.1738 20.4205 20.9917 20.6408 21.1338 20.7686L21.1741 20.8754C21.1706 20.9873 21.2165 21.0823 21.2742 21.168C20.4029 21.8143 20.9496 24.0356 21.2205 24.7932C21.3876 25.2609 22.0628 25.1079 22.0179 24.6485C22.5515 24.526 24.2539 24.6173 26.0649 24.7686C26.1687 25.069 26.5451 25.0893 26.6773 24.822C27.1143 24.861 27.547 24.9027 27.9683 24.9443C28.0943 25.0471 28.2603 25.0714 28.4034 24.9878C29.8492 25.1354 31.0454 25.2777 31.3369 25.3212C31.7168 25.3778 32.015 25.2299 32.1498 24.8597C32.4608 24.006 32.5067 23.1808 32.4893 22.2871C32.6519 22.2793 32.8164 22.2807 32.9787 22.2689C33.6468 22.2214 33.6426 21.2892 32.9787 21.235ZM21.9029 23.9107C21.8449 23.4742 21.819 23.0359 21.8556 22.5874C21.8855 22.2211 22.0435 21.8757 22.0248 21.5265C22.3599 21.6186 22.7058 21.6851 23.0534 21.7462C22.9498 22.3583 23.0176 23.0618 23.0718 23.628C22.6009 23.6899 22.1957 23.7799 21.9029 23.9107ZM23.8353 23.5535C23.8668 23.1531 23.894 22.7518 23.9501 22.3546C23.9728 22.195 24.0182 22.0417 24.0596 21.8874C24.5393 21.9414 25.0219 21.9803 25.5003 22.0145C25.5107 22.215 25.5702 22.4192 25.6212 22.624C25.6965 22.9253 25.7694 23.2273 25.8353 23.5305C25.1332 23.5121 24.4485 23.515 23.8353 23.5535ZM26.6541 22.6619C26.6346 22.4635 26.6252 22.2729 26.5988 22.0893C26.7216 22.0975 26.8487 22.1055 26.9701 22.1141C27.3153 22.1384 27.6653 22.1589 28.0126 22.1824C28.012 22.3597 28.0313 22.5463 28.0414 22.7564C28.0581 23.0534 28.0559 23.3512 28.0347 23.648C27.5987 23.6141 27.1623 23.5861 26.7256 23.5639C26.7076 23.2628 26.6837 22.962 26.6541 22.6619ZM31.0483 23.9568C30.5387 23.8904 29.7865 23.8047 28.9362 23.7262C28.9781 23.5311 29.0238 23.3378 29.0521 23.1357C29.0919 22.8455 29.1599 22.5425 29.1621 22.2561C29.8607 22.2935 30.5612 22.3202 31.2592 22.3212C31.2325 22.8802 31.184 23.4221 31.0483 23.9568Z" fill="#691213"/>
<path d="M31.4897 25.4664C31.4344 25.4664 31.377 25.4619 31.3178 25.4533C31.0268 25.4098 29.8349 25.2686 28.4302 25.1247C28.2676 25.2011 28.0716 25.1805 27.9187 25.0737C27.5283 25.0349 27.1377 24.9978 26.747 24.9624C26.7047 25.0183 26.65 25.0636 26.5873 25.0949C26.5245 25.1261 26.4554 25.1425 26.3853 25.1426C26.3011 25.1422 26.2186 25.119 26.1465 25.0754C26.0744 25.0319 26.0155 24.9696 25.9761 24.8951C23.9926 24.7312 22.6704 24.6859 22.1496 24.7603C22.1362 24.8626 22.0938 24.9565 22.0247 25.0326C21.9219 25.1461 21.7711 25.211 21.6114 25.211C21.3752 25.211 21.1774 25.0681 21.0951 24.8383C20.814 24.0521 20.2921 21.913 21.1029 21.1386C21.0649 21.0645 21.0437 20.9829 21.0409 20.8997L21.0191 20.8418C20.9852 20.8037 20.9626 20.757 20.9537 20.7068C20.9449 20.6567 20.9501 20.6051 20.9689 20.5577C21.0164 20.4339 21.144 20.3487 21.2713 20.3564C21.4224 20.2099 21.6723 20.1589 21.9088 20.2048C24.3359 20.6752 26.8445 20.7854 29.2705 20.8925C30.4908 20.9461 31.7524 21.0017 32.99 21.1023C33.4197 21.1375 33.6138 21.4678 33.6122 21.7595C33.6109 22.0481 33.4152 22.3722 32.9889 22.4024C32.8909 22.4096 32.7921 22.412 32.6934 22.4144L32.6258 22.4162C32.6354 23.2008 32.5906 24.0417 32.2759 24.9058C32.1443 25.267 31.865 25.4664 31.4897 25.4664ZM28.3744 24.8503L28.4176 24.8548C29.8437 25.0006 31.061 25.145 31.3573 25.1891C31.6848 25.2376 31.9171 25.1111 32.0252 24.814C32.3423 23.9427 32.3722 23.0858 32.3567 22.2894L32.3543 22.1597L32.4838 22.1536C32.5514 22.1504 32.6189 22.1488 32.6867 22.1472C32.7812 22.1447 32.876 22.1426 32.9699 22.1359C33.2457 22.1162 33.3445 21.92 33.3453 21.7579C33.3463 21.5793 33.2299 21.3895 32.9683 21.3682C31.7358 21.2681 30.4766 21.2126 29.2588 21.1589C26.8231 21.0516 24.3044 20.9408 21.8578 20.4667C21.816 20.4585 21.7736 20.4543 21.731 20.4541C21.6509 20.4541 21.5431 20.4702 21.4635 20.5422L21.4395 20.6899L21.2676 20.6266C21.2575 20.6244 21.247 20.6259 21.2379 20.6307C21.2288 20.6355 21.2217 20.6435 21.2179 20.653L21.2422 20.6752L21.3087 20.8532L21.3079 20.8797C21.306 20.9459 21.329 21.0097 21.3856 21.0938L21.4566 21.1995L21.3543 21.2753C20.6085 21.8287 21.0271 23.8543 21.3469 24.7483C21.4099 24.9248 21.553 24.944 21.6117 24.944C21.6519 24.9444 21.6918 24.9366 21.7288 24.921C21.7659 24.9054 21.7993 24.8823 21.8271 24.8532C21.8502 24.8274 21.8674 24.7969 21.8775 24.7639C21.8877 24.7308 21.8905 24.6959 21.8858 24.6616L21.8744 24.5446L21.9889 24.5185C22.4707 24.4077 23.8493 24.4496 26.0767 24.6357L26.1635 24.6429L26.1918 24.7251C26.2302 24.8362 26.317 24.8757 26.3853 24.8757C26.4598 24.8757 26.5231 24.8346 26.5583 24.763L26.5986 24.6811L26.6896 24.6891C27.1272 24.728 27.5604 24.7697 27.9819 24.8113L28.022 24.8153L28.0532 24.841C28.1389 24.9112 28.2478 24.9242 28.3367 24.8725L28.3744 24.8503ZM21.7945 24.1055L21.7711 23.9283C21.7043 23.4242 21.6888 22.9947 21.723 22.5767C21.7366 22.4096 21.7745 22.2499 21.8111 22.0954C21.8575 21.8994 21.9016 21.7139 21.892 21.5337L21.8821 21.3487L22.0607 21.3978C22.3995 21.491 22.7492 21.5572 23.077 21.6146L23.2075 21.6375L23.1854 21.7683C23.0853 22.3604 23.1512 23.0521 23.2043 23.6076L23.2166 23.7358L23.0895 23.7598C22.5981 23.8244 22.2171 23.916 21.9577 24.0321L21.7945 24.1055ZM22.1555 21.6984C22.1427 21.8546 22.1063 22.0075 22.0711 22.1568C22.0369 22.3014 22.0012 22.4512 21.9894 22.598C21.9609 22.9491 21.9686 23.31 22.015 23.7224C22.2558 23.6362 22.557 23.5673 22.9275 23.5131C22.8792 23.0009 22.8317 22.4021 22.9029 21.8548C22.6521 21.811 22.4028 21.7588 22.1555 21.6984ZM31.1491 24.1044L31.0319 24.089C30.439 24.0115 29.6709 23.9277 28.9246 23.8591L28.7745 23.8452L28.8284 23.5954C28.8624 23.4397 28.8976 23.2788 28.9203 23.117C28.932 23.0313 28.9464 22.9445 28.9603 22.857C28.9934 22.6554 29.0276 22.4469 29.0289 22.2547L29.03 22.1149L29.1693 22.1223C29.9801 22.1658 30.6443 22.1864 31.2598 22.1875L31.3995 22.1877L31.3928 22.3273C31.3693 22.8239 31.3252 23.4098 31.1779 23.9894L31.1491 24.1044ZM29.0991 23.6074C29.7516 23.669 30.4107 23.7411 30.9472 23.8092C31.0546 23.3423 31.0965 22.8714 31.1194 22.4541C30.5094 22.4486 29.8997 22.4294 29.2905 22.3965C29.2791 22.5649 29.2513 22.735 29.2241 22.9008C29.2102 22.9856 29.1963 23.0705 29.1848 23.1541C29.162 23.3062 29.1334 23.4574 29.0991 23.6074ZM28.1579 23.7913L28.0252 23.7812C27.5903 23.7473 27.1549 23.7193 26.7193 23.6973L26.5999 23.6915L26.593 23.5719C26.5753 23.2725 26.5515 22.9736 26.5217 22.6752C26.5152 22.6055 26.5092 22.5357 26.5036 22.4659C26.4937 22.3436 26.4841 22.2246 26.4673 22.1084L26.4438 21.9453L26.9801 21.9814C27.1752 21.995 27.3725 22.0075 27.5695 22.0203L28.1469 22.0583L28.1467 22.1835C28.1464 22.2945 28.1539 22.409 28.1624 22.5313C28.1672 22.6018 28.1717 22.6746 28.1755 22.7505C28.1925 23.0532 28.1901 23.3567 28.1685 23.6592L28.1579 23.7913ZM26.8519 23.4365C27.2091 23.4555 27.5639 23.4787 27.9109 23.5046C27.9229 23.2574 27.9222 23.0098 27.9088 22.7627C27.9051 22.6912 27.9008 22.6196 27.8957 22.5481C27.8901 22.468 27.8854 22.3878 27.8818 22.3076L27.5524 22.286C27.3546 22.2734 27.1573 22.2609 26.9611 22.247L26.751 22.2328C26.7577 22.3022 26.7638 22.3725 26.7695 22.4437C26.7751 22.511 26.7804 22.5793 26.7873 22.6488C26.8146 22.9275 26.8359 23.1864 26.8519 23.4365ZM23.691 23.6963L23.7147 23.3903C23.7414 23.0444 23.7689 22.6867 23.8186 22.3356C23.8391 22.1909 23.8768 22.0535 23.9131 21.9202L23.9611 21.7417L24.0751 21.7545C24.5951 21.8129 25.1154 21.853 25.5105 21.8813L25.6282 21.8895L25.6344 22.0073C25.6424 22.1637 25.6838 22.3252 25.7275 22.4966L25.7516 22.5916C25.8271 22.8941 25.9003 23.1973 25.9665 23.5019L26.0025 23.6682L25.8325 23.6637C25.1141 23.6447 24.412 23.6509 23.8445 23.6864L23.691 23.6963ZM24.1592 22.0326C24.1277 22.1482 24.0991 22.2593 24.0829 22.3733C24.0345 22.7158 24.0073 23.0692 23.9809 23.4109C24.4779 23.3853 25.0655 23.3802 25.6685 23.3927C25.613 23.1466 25.5535 22.9013 25.4921 22.6562L25.4686 22.5625C25.4334 22.4242 25.3971 22.2825 25.3784 22.1394C24.9714 22.1107 24.565 22.0751 24.1592 22.0326ZM34.5062 30.8177C34.3837 30.5278 34.0046 30.3663 33.7123 30.3623C32.7345 30.35 31.7542 30.2558 30.7804 30.1752C30.318 30.1367 29.8474 30.0623 29.3832 30.07C29.0909 30.0751 28.8693 30.1613 28.6437 30.3415C28.5369 30.4266 28.7684 30.2713 28.9264 30.2873C28.9315 30.2996 28.936 30.3111 28.9414 30.3231C28.6157 30.3132 28.3058 30.5177 28.2983 30.916C28.2913 31.2689 28.4763 31.4937 28.746 31.6453C28.262 32.7585 28.0049 34.1092 28.1411 35.3129C28.1856 35.7075 28.3634 35.9453 28.7339 36.0916C29.6144 36.4395 30.5276 36.3821 31.4619 36.2916C32.2857 36.2118 33.4382 36.16 34.1715 35.7302C34.8698 35.3209 34.8661 34.0529 34.8976 33.3572C34.9355 32.4955 34.8431 31.6143 34.5062 30.8177ZM29.581 34.5697C29.4312 34.0326 29.306 33.4832 29.2847 32.9331C29.2697 32.5473 29.259 32.1832 29.1758 31.8156C29.5038 31.9042 29.8714 31.9427 30.1875 31.971C31.1317 32.0551 32.0826 32.1341 33.0319 32.1706C33.1691 32.7958 33.1595 33.6119 33.0041 34.1989C31.9246 34.4971 30.6899 34.6813 29.581 34.5697Z" fill="#691213"/>
<path d="M30.3179 36.4937C29.6838 36.4937 29.1649 36.4053 28.6844 36.2155C28.273 36.0532 28.0578 35.7711 28.0079 35.3277C27.8795 34.1915 28.0867 32.8749 28.5779 31.6979C28.2968 31.5049 28.1579 31.2414 28.1644 30.9131C28.17 30.6277 28.3077 30.424 28.497 30.3068C28.5143 30.2737 28.5437 30.2505 28.5602 30.2372C28.8136 30.0345 29.0667 29.9419 29.3803 29.9366L29.4513 29.936C29.7599 29.936 30.0717 29.9691 30.3731 30.0009C30.5127 30.0159 30.6523 30.0305 30.7909 30.042L31.1993 30.0762C32.0242 30.1461 32.8768 30.2182 33.7135 30.2286C34.0576 30.2334 34.4823 30.4192 34.6288 30.7657C34.939 31.4998 35.0741 32.3736 35.0303 33.3632L35.0237 33.5233C34.994 34.2823 34.9489 35.4291 34.2386 35.8453C33.5677 36.2382 32.5792 36.3255 31.7848 36.3957L31.4743 36.424C31.0429 36.4659 30.6814 36.4937 30.3179 36.4937ZM28.9364 30.4561C28.6798 30.4561 28.4374 30.5989 28.4313 30.9179C28.4257 31.1856 28.5466 31.3794 28.8109 31.5284L28.9161 31.5874L28.868 31.6979C28.3624 32.8602 28.1459 34.172 28.2733 35.2972C28.3125 35.6459 28.4601 35.8397 28.7823 35.967C29.2308 36.144 29.7185 36.2265 30.3179 36.2265C30.6705 36.2265 31.0247 36.1992 31.4484 36.1581L31.761 36.1298C32.5287 36.0618 33.4844 35.9774 34.1032 35.6146C34.6876 35.2721 34.7292 34.2134 34.7567 33.5127L34.7634 33.3511C34.8053 32.4016 34.6774 31.5666 34.3825 30.8693C34.2856 30.6397 33.9644 30.4988 33.7097 30.4956C32.8638 30.4849 32.0061 30.4123 31.1766 30.3423L30.7687 30.3079C30.6281 30.2964 30.4863 30.2812 30.3445 30.2663C30.0498 30.2353 29.7455 30.203 29.4508 30.203L29.3846 30.2035C29.2733 30.204 29.1629 30.2221 29.0573 30.2572L29.1465 30.4627L28.9361 30.4566L28.9364 30.4561ZM30.2629 34.7358C30.0229 34.7358 29.789 34.7246 29.5675 34.7022L29.4767 34.6931L29.4521 34.6053C29.3243 34.1464 29.1742 33.542 29.1507 32.9382L29.1489 32.8874C29.135 32.526 29.1219 32.1846 29.045 31.8453L28.9956 31.629L29.2097 31.687C29.5293 31.7732 29.8878 31.8103 30.1988 31.8381C31.0586 31.9147 32.0581 31.9996 33.0365 32.0372L33.1395 32.0415L33.1617 32.1421C33.3037 32.7903 33.292 33.6304 33.1326 34.2332L33.1131 34.3071L33.0392 34.3277C32.0723 34.5946 31.112 34.7358 30.2629 34.7358ZM29.6846 34.4451C30.6208 34.5249 31.7474 34.3992 32.8931 34.0906C33.0175 33.5631 33.0285 32.8672 32.9214 32.2999C31.9705 32.2601 31.0077 32.1782 30.1753 32.1039C29.9166 32.0807 29.6259 32.0514 29.3456 31.9932C29.3934 32.2852 29.4043 32.5743 29.4158 32.8773L29.418 32.9278C29.4385 33.4651 29.5608 33.9918 29.6846 34.4451Z" fill="#691213"/>
</g>
<defs>
<clipPath id="clip0_870_4480">
<rect width="52" height="52" fill="white"/>
</clipPath>
</defs>
</svg>
