<svg width="57" height="56" viewBox="0 0 57 56" fill="none" xmlns="http://www.w3.org/2000/svg">
<path fill-rule="evenodd" clip-rule="evenodd" d="M11.2232 34.3667L21.639 44.7824C22.9613 43.4426 23.8658 42.5578 26.2962 42.2428L36.6671 40.8996C37.891 40.741 38.859 40.3057 39.8062 39.4898L48.2772 32.1879C49.5165 30.9301 49.511 28.899 48.2608 27.6478C47.6516 27.0396 46.8401 26.7049 45.9727 26.7049H45.9596C45.101 26.7082 44.3015 27.0418 43.7076 27.6445C43.6944 27.6576 43.6813 27.6707 43.6671 27.6828L36.3401 33.9423C35.5219 34.7473 34.3997 35.2449 33.1627 35.2449H33.0074C31.7354 35.4003 30.3671 35.3434 29.0863 35.2909C28.5854 35.2701 28.1129 35.2515 27.6644 35.2449H23.9829C23.6208 35.2449 23.3266 34.9507 23.3266 34.5887C23.3266 34.2256 23.6208 33.9324 23.9829 33.9324H32.9166C33.9119 33.8034 34.8012 33.5288 35.4421 32.982L35.4541 32.9721C36.0283 32.3903 36.3838 31.5907 36.3838 30.7103C36.3838 28.934 34.9379 27.4881 33.1616 27.4881H20.1022C18.7733 27.4881 17.6238 27.9638 16.6854 28.9034L11.2232 34.3667ZM37.4951 8.28291C39.3347 10.092 40.4788 12.6076 40.4788 15.3846C40.4788 16.147 40.3924 16.8885 40.2294 17.6017C41.7784 18.8813 43.7251 19.5806 45.7343 19.5792C50.5041 19.5792 54.3847 15.6985 54.3847 10.9287C54.3847 6.15885 50.5041 2.27822 45.7343 2.27822C41.9685 2.27822 38.6347 4.72822 37.4951 8.28291ZM45.0791 15.6624C43.8312 15.377 42.9004 14.2996 42.9004 13.0156C42.9004 12.6535 43.1935 12.3593 43.5566 12.3593C43.9187 12.3593 44.2129 12.6535 44.2129 13.0156C44.2129 13.7921 44.8954 14.4243 45.7354 14.4243C46.5743 14.4243 47.2579 13.7921 47.2579 13.0156C47.2579 12.1942 46.3358 11.7709 45.5626 11.562C43.8454 11.096 42.9004 10.1303 42.9004 8.84072C42.9004 7.55775 43.8312 6.47932 45.0791 6.19494V5.61744C45.0791 5.25541 45.3722 4.96119 45.7354 4.96119C46.0974 4.96119 46.3916 5.25541 46.3916 5.61744V6.19494C47.6385 6.47932 48.5704 7.55775 48.5704 8.84072C48.5704 9.20385 48.2762 9.49697 47.9141 9.49697C47.551 9.49697 47.2579 9.20275 47.2579 8.84072C47.2579 8.06416 46.5743 7.43307 45.7354 7.43307C44.8954 7.43307 44.2129 8.06525 44.2129 8.84072C44.2129 9.66322 45.1338 10.0854 45.9071 10.2954C47.6243 10.7613 48.5704 11.7271 48.5704 13.0156C48.5704 14.2996 47.6385 15.377 46.3916 15.6624V16.2399C46.3916 16.602 46.0974 16.8962 45.7354 16.8962C45.3722 16.8962 45.0791 16.602 45.0791 16.2399V15.6624ZM32.9746 17.4168C32.3424 17.4168 31.8283 17.9309 31.8283 18.5631C31.8283 19.1953 32.3424 19.7093 32.9746 19.7093C33.6057 19.7093 34.1208 19.1953 34.1208 18.5631C34.1208 17.9309 33.6057 17.4168 32.9746 17.4168ZM28.0254 9.68291C27.3943 9.68291 26.8791 10.197 26.8791 10.8292C26.8791 11.4613 27.3943 11.9754 28.0254 11.9754C28.6576 11.9754 29.1716 11.4613 29.1716 10.8292C29.1716 10.197 28.6565 9.68291 28.0254 9.68291ZM15.141 15.0707L19.5915 10.6203C20.4151 9.79666 20.4151 8.45791 19.5915 7.63432C18.769 6.81072 17.428 6.81072 16.6055 7.63432L15.6058 8.634C15.4822 8.7576 15.3149 8.8265 15.141 8.8265C14.9671 8.8265 14.8008 8.7576 14.6772 8.634L13.6776 7.63432C13.4816 7.43814 13.2489 7.28257 12.9927 7.17652C12.7365 7.07048 12.4619 7.01605 12.1846 7.01635C11.6432 7.01635 11.1029 7.22197 10.6905 7.63432C9.86693 8.45791 9.86693 9.79775 10.6905 10.6203L15.141 15.0707ZM15.2974 19.4479C10.5276 19.4479 6.64693 15.5673 6.64693 10.7974C6.64693 6.0276 10.5276 2.14697 15.2974 2.14697C19.1124 2.14697 22.4593 4.63854 23.5683 8.25229C21.709 10.0635 20.5529 12.5912 20.5529 15.3857C20.5529 16.1076 20.6305 16.812 20.7782 17.4912C19.2326 18.7578 17.2957 19.4493 15.2974 19.4479ZM20.5212 11.5478L15.6069 16.462C15.4833 16.5856 15.316 16.6545 15.1421 16.6545C14.9682 16.6545 14.8019 16.5856 14.6783 16.462L9.76412 11.5478C8.42865 10.2123 8.42865 8.0401 9.76412 6.70463C11.0996 5.37025 13.2718 5.37025 14.6072 6.70463L15.1421 7.24057L15.678 6.70463C17.0135 5.37025 19.1857 5.37025 20.5212 6.70463C21.8566 8.0401 21.8566 10.2123 20.5212 11.5478ZM21.8643 15.3846C21.8643 10.6148 25.7449 6.73416 30.5147 6.73416C35.2857 6.73416 39.1663 10.6148 39.1663 15.3846C39.1663 20.1545 35.2857 24.0351 30.5147 24.0351C25.746 24.0351 21.8643 20.1545 21.8643 15.3846ZM32.9746 21.0218C31.6183 21.0218 30.5158 19.9182 30.5158 18.5631C30.5158 17.2068 31.6183 16.1043 32.9746 16.1043C34.3297 16.1043 35.4333 17.2068 35.4333 18.5631C35.4333 19.9193 34.3287 21.0218 32.9746 21.0218ZM36.1793 12.0028L25.1029 19.1471C24.9935 19.2182 24.8699 19.2521 24.7485 19.2521C24.533 19.2521 24.3219 19.146 24.1962 18.9513C24.1493 18.8789 24.1173 18.7979 24.1018 18.7131C24.0863 18.6282 24.0877 18.5412 24.1059 18.4569C24.124 18.3725 24.1587 18.2926 24.2078 18.2217C24.2568 18.1508 24.3194 18.0902 24.3919 18.0435L35.4683 10.9003C35.7735 10.7034 36.1793 10.792 36.3751 11.096C36.5719 11.4012 36.4844 11.807 36.1793 12.0028ZM30.483 10.8292C30.483 12.1843 29.3805 13.2879 28.0243 13.2879C26.6691 13.2879 25.5655 12.1843 25.5655 10.8292C25.5655 9.47291 26.6691 8.37041 28.0243 8.37041C29.3816 8.37041 30.483 9.474 30.483 10.8292ZM22.8443 47.8428C23.0543 48.0538 23.0543 48.3962 22.8443 48.6062L19.3672 52.0832C19.1562 52.2932 18.8138 52.2932 18.6038 52.0832L3.9235 37.404C3.82287 37.3034 3.76709 37.1678 3.76709 37.0223C3.76709 36.8768 3.82287 36.7412 3.9235 36.6406L7.40053 33.1635C7.50662 33.0585 7.64443 33.006 7.78225 33.006C7.92115 33.006 8.05896 33.0585 8.16396 33.1635L22.8443 47.8428Z" fill="#0D8A71"/>
</svg>
