<svg width="57" height="56" viewBox="0 0 57 56" fill="none" xmlns="http://www.w3.org/2000/svg">
<path d="M28.4998 33.8334C31.7215 33.8334 34.3332 31.2217 34.3332 28.0001C34.3332 24.7784 31.7215 22.1667 28.4998 22.1667C25.2782 22.1667 22.6665 24.7784 22.6665 28.0001C22.6665 31.2217 25.2782 33.8334 28.4998 33.8334Z" fill="#172BA9"/>
<path fill-rule="evenodd" clip-rule="evenodd" d="M39 39.6667V51.3334C39.0005 51.4868 38.9706 51.6387 38.9121 51.7804C38.8537 51.9222 38.7677 52.051 38.6593 52.1594C38.5509 52.2678 38.4221 52.3537 38.2803 52.4122C38.1386 52.4707 37.9867 52.5005 37.8333 52.5001H19.1667C19.0133 52.5005 18.8614 52.4707 18.7197 52.4122C18.5779 52.3537 18.4491 52.2678 18.3407 52.1594C18.2322 52.051 18.1463 51.9222 18.0879 51.7804C18.0294 51.6387 17.9995 51.4868 18 51.3334V39.6667C18 38.7381 18.3687 37.8479 19.0255 37.1922C19.3503 36.867 19.736 36.609 20.1606 36.4331C20.5852 36.2571 21.0404 36.1666 21.5 36.1667H35.5C36.4287 36.1667 37.3188 36.5354 37.9745 37.1922C38.6313 37.8479 39 38.7381 39 39.6667ZM15.6667 45.5001V51.3334C15.6667 51.6428 15.5438 51.9396 15.325 52.1584C15.1062 52.3772 14.8094 52.5001 14.5 52.5001H5.16667C4.85725 52.5001 4.5605 52.3772 4.34171 52.1584C4.12292 51.9396 4 51.6428 4 51.3334V45.5001C4 44.5714 4.36866 43.6812 5.0255 43.0256C5.35027 42.7003 5.73601 42.4424 6.16062 42.2664C6.58523 42.0904 7.04037 41.9999 7.5 42.0001H12.1667C13.0953 42.0001 13.9855 42.3687 14.6412 43.0256C15.298 43.6812 15.6667 44.5714 15.6667 45.5001ZM41.3333 51.3334V45.5001C41.3333 44.5714 41.702 43.6812 42.3588 43.0256C42.6836 42.7003 43.0693 42.4424 43.4939 42.2664C43.9186 42.0904 44.3737 41.9999 44.8333 42.0001H49.5C50.4287 42.0001 51.3188 42.3687 51.9745 43.0256C52.6313 43.6812 53 44.5714 53 45.5001V51.3334C53 51.6428 52.8771 51.9396 52.6583 52.1584C52.4395 52.3772 52.1427 52.5001 51.8333 52.5001H42.5C42.1906 52.5001 41.8938 52.3772 41.675 52.1584C41.4562 51.9396 41.3333 51.6428 41.3333 51.3334Z" fill="#172BA9"/>
<path d="M9.83317 39.6667C12.4105 39.6667 14.4998 37.5774 14.4998 35C14.4998 32.4227 12.4105 30.3334 9.83317 30.3334C7.25584 30.3334 5.1665 32.4227 5.1665 35C5.1665 37.5774 7.25584 39.6667 9.83317 39.6667Z" fill="#172BA9"/>
<path d="M47.1667 39.6667C49.744 39.6667 51.8333 37.5774 51.8333 35C51.8333 32.4227 49.744 30.3334 47.1667 30.3334C44.5893 30.3334 42.5 32.4227 42.5 35C42.5 37.5774 44.5893 39.6667 47.1667 39.6667Z" fill="#172BA9"/>
<path fill-rule="evenodd" clip-rule="evenodd" d="M8.58497 28.1109C8.58263 27.6722 8.59664 27.2312 8.6258 26.7914C8.67114 26.1184 8.52106 25.4467 8.19363 24.857C7.86619 24.2673 7.37534 23.7848 6.78014 23.4676C6.36597 23.2471 5.90631 23.0021 5.48165 22.7699L5.47114 22.7629C5.23888 22.6393 5.05547 22.4406 4.95097 22.1991C4.84647 21.9577 4.82709 21.6879 4.89598 21.434C5.08381 20.7586 5.30082 20.0912 5.53998 19.4321C5.63447 19.1859 5.80952 18.979 6.03664 18.8452C6.26375 18.7113 6.52953 18.6582 6.79064 18.6947H6.79181C7.27831 18.7624 7.80213 18.8359 8.2758 18.8954C8.94099 18.9861 9.61825 18.8833 10.2265 18.5992C10.8348 18.3151 11.3484 17.8618 11.7058 17.2936C12.1375 16.6169 12.6135 15.9612 13.1315 15.3406H13.1326C13.5647 14.8226 13.8379 14.1909 13.9194 13.5213C14.001 12.8518 13.8874 12.1729 13.5923 11.5664C13.387 11.1441 13.1595 10.6762 12.953 10.2387C12.8342 10.0016 12.8002 9.73085 12.8566 9.47167C12.9131 9.21249 13.0566 8.98046 13.2633 8.81421C13.8128 8.37788 14.3798 7.96605 14.9608 7.57289C15.4158 7.27772 16.0155 7.33489 16.4063 7.71172C16.7598 8.05356 17.1413 8.41988 17.489 8.74655C17.9738 9.21105 18.5822 9.52607 19.2414 9.65393C19.9006 9.78179 20.5826 9.7171 21.206 9.46756C21.9526 9.17356 22.7226 8.92273 23.5078 8.72556C24.1619 8.56078 24.7545 8.21048 25.2142 7.71683C25.6739 7.22319 25.9811 6.60722 26.099 5.94305C26.1806 5.47988 26.2717 4.96772 26.3615 4.49289L26.3638 4.48005C26.4098 4.22084 26.5423 3.98491 26.7399 3.81089C26.9374 3.63688 27.1882 3.5351 27.4511 3.52222C28.1516 3.49402 28.8529 3.49209 29.5535 3.5164C29.8171 3.52986 30.0683 3.63241 30.2661 3.80726C30.4638 3.98211 30.5963 4.21891 30.642 4.47889C30.7271 4.96306 30.8193 5.48339 30.9091 5.95239C31.0283 6.61326 31.3354 7.22576 31.7937 7.71657C32.2521 8.20737 32.8421 8.55566 33.4933 8.71972C34.2745 8.92066 35.0418 9.17202 35.7905 9.47223H35.7916C36.4176 9.72322 37.1027 9.78805 37.7646 9.6589C38.4265 9.52975 39.037 9.21211 39.5226 8.74422C39.861 8.41872 40.2355 8.05706 40.5878 7.72456L40.5971 7.71639C40.7865 7.53353 41.0324 7.42053 41.2944 7.39593C41.5565 7.37134 41.8191 7.43662 42.0391 7.58106C42.6225 7.96839 43.1906 8.38022 43.7436 8.81188C43.9488 8.97765 44.0916 9.20811 44.1489 9.46559C44.2061 9.72306 44.1743 9.99234 44.0586 10.2294C43.844 10.6716 43.6118 11.1476 43.4076 11.5792C43.1159 12.184 43.0046 12.86 43.0869 13.5265C43.1692 14.1929 43.4418 14.8215 43.872 15.3371C44.3818 15.9554 44.859 16.6111 45.2883 17.2959H45.2895C45.6482 17.867 46.1644 18.3222 46.7758 18.6068C47.3872 18.8914 48.0679 18.9933 48.7358 18.9001C49.2013 18.8359 49.7158 18.7636 50.1965 18.7017L50.2093 18.7006C50.4698 18.6641 50.735 18.7172 50.9613 18.8512C51.1877 18.9851 51.3619 19.192 51.4553 19.4379C51.7003 20.0947 51.9173 20.762 52.111 21.4364C52.1795 21.691 52.1596 21.9614 52.0545 22.2032C51.9493 22.445 51.7652 22.644 51.5323 22.7676V22.7687C51.0909 23.0022 50.651 23.2387 50.2128 23.478C49.6214 23.7957 49.134 24.2771 48.809 24.8644C48.484 25.4518 48.335 26.1204 48.38 26.7902C48.4068 27.2289 48.4185 27.6699 48.415 28.1109C48.003 28.0372 47.5852 28.0001 47.1666 28.0001C45.3116 28.0001 43.6246 28.7234 42.3716 29.9017C42.4568 29.2799 42.5 28.6452 42.5 28.0001C42.5 20.2732 36.2268 14.0001 28.5 14.0001C20.7731 14.0001 14.5 20.2732 14.5 28.0001C14.5 28.6452 14.5431 29.2799 14.6283 29.9017C13.3315 28.6786 11.6159 27.9982 9.83331 28.0001C9.40747 28.0001 8.9898 28.0386 8.58497 28.1109Z" fill="#172BA9"/>
<path fill-rule="evenodd" clip-rule="evenodd" d="M20.1375 32.1475C19.433 30.7243 19.103 29.1449 19.1789 27.5587C19.2547 25.9724 19.7339 24.4317 20.571 23.0822C21.4082 21.7327 22.5756 20.619 23.9631 19.8464C25.3505 19.0737 26.9121 18.6677 28.5002 18.6667C30.0882 18.6677 31.6498 19.0737 33.0373 19.8464C34.4247 20.619 35.5922 21.7327 36.4293 23.0822C37.2665 24.4317 37.7456 25.9724 37.8215 27.5587C37.8973 29.1449 37.5674 30.7243 36.8628 32.1475C36.7363 32.4231 36.722 32.737 36.8229 33.0229C36.9239 33.3088 37.1321 33.5442 37.4036 33.6792C37.6751 33.8142 37.9885 33.8382 38.2773 33.7461C38.5662 33.654 38.8079 33.4531 38.9512 33.1859C39.7533 31.575 40.1695 29.7996 40.1668 28C40.1668 21.5612 34.939 16.3334 28.5002 16.3334C22.0613 16.3334 16.8335 21.5612 16.8335 28C16.8309 29.7996 17.2471 31.575 18.0492 33.1859C18.1174 33.323 18.2119 33.4454 18.3273 33.5459C18.4428 33.6465 18.5769 33.7234 18.7221 33.7722C18.8673 33.8209 19.0206 33.8406 19.1734 33.8301C19.3262 33.8195 19.4754 33.7791 19.6125 33.7109C19.7496 33.6427 19.872 33.5482 19.9726 33.4327C20.0732 33.3173 20.15 33.1831 20.1988 33.0379C20.2475 32.8928 20.2672 32.7394 20.2567 32.5867C20.2462 32.4339 20.2057 32.2847 20.1375 32.1475Z" fill="#172BA9"/>
</svg>
