<svg width="57" height="56" viewBox="0 0 57 56" fill="none" xmlns="http://www.w3.org/2000/svg">
<g clip-path="url(#clip0_374_199)">
<path d="M10.4797 30.9781L11.7657 32.777L12.4268 32.2126L22.4357 36.9325L22.3706 36.9611L23.2421 37.3723C23.179 37.4054 23.1168 37.4401 23.0554 37.4762C22.9953 37.5112 22.9358 37.5471 22.8768 37.5839L21.7904 37.2903L21.1372 37.7727L22.2294 38.0705C22.1648 38.1299 22.1028 38.1918 22.0434 38.2563C22.0242 38.2774 22.0054 38.2984 21.9872 38.3195L20.7466 38.1642L20.3723 38.7154L21.6196 38.8731C21.5989 38.9176 21.5796 38.9628 21.5616 39.0086C21.5442 39.0538 21.5287 39.0997 21.5153 39.1463H20.2065L20.1447 39.7317H21.4633C21.468 39.7787 21.4754 39.8254 21.4853 39.8716C21.4949 39.9183 21.5064 39.9646 21.5197 40.0105L20.2209 40.1734L20.4882 40.7536L21.7974 40.5883C21.8437 40.6579 21.8939 40.7248 21.9478 40.7888C21.9661 40.8108 21.9851 40.8328 22.0045 40.8545L20.8131 41.1759L21.4044 41.7091L22.5998 41.3835C22.6562 41.4238 22.7132 41.4634 22.7708 41.502C22.8303 41.5417 22.8907 41.5801 22.9519 41.617L21.9605 42.0799L22.2608 42.2315L22.0256 42.1129L8.82812 48.2811L8.99943 48.5928L9.56934 48.7193L22.7758 42.4914L22.5653 42.3852L22.8415 42.5248L23.8332 42.0567C23.9109 42.0891 23.9892 42.1199 24.0681 42.1491C24.149 42.1795 24.2304 42.2088 24.3121 42.2371L23.5962 42.8143L24.708 43.1342L25.4188 42.5517C25.5119 42.573 25.6053 42.5931 25.6989 42.6118C25.7944 42.631 25.8901 42.6491 25.986 42.6661L25.6079 43.3193L26.8682 43.4862L27.2357 42.831C27.3882 42.8444 27.541 42.8555 27.6939 42.8641C27.7455 42.867 27.7971 42.8694 27.8491 42.8717L27.8438 43.5493H29.1556L29.1503 42.8714C29.2534 42.8673 29.3564 42.8618 29.4593 42.8547C29.5609 42.8479 29.6623 42.8399 29.7637 42.8309L30.1314 43.4861L31.3917 43.3192L31.0149 42.6659C31.1104 42.6487 31.2056 42.6306 31.3008 42.6116C31.3943 42.5928 31.4876 42.5727 31.5806 42.5515L32.2916 43.134L33.4032 42.8142L32.6873 42.237C32.7689 42.2084 32.8503 42.179 32.9315 42.149C33.0102 42.1194 33.0884 42.0885 33.1662 42.0564L34.1579 42.5245L34.5996 42.3015L35.0389 42.0799L34.0476 41.6169C34.139 41.5621 34.2285 41.5041 34.3157 41.443C34.3441 41.4232 34.372 41.4034 34.3996 41.3833L35.5965 41.709L36.1863 41.1758L34.995 40.8544C35.0518 40.7908 35.1055 40.7244 35.1559 40.6556C35.1721 40.6333 35.188 40.6107 35.2035 40.5881L36.5113 40.7535L36.7787 40.1733L35.4798 40.0103C35.4928 39.9644 35.5043 39.9181 35.5143 39.8715C35.5238 39.8252 35.5311 39.7785 35.5361 39.7316H36.8562L36.7944 39.1462H35.4842C35.4713 39.0995 35.4559 39.0535 35.4381 39.0084C35.4204 38.9625 35.401 38.9173 35.38 38.8729L36.6272 38.7153L36.2529 38.164L35.0137 38.3194C34.937 38.2322 34.8557 38.1491 34.7702 38.0705L35.8623 37.7725L35.2106 37.2902L34.1227 37.5838C34.0639 37.5469 34.0046 37.511 33.9447 37.476C33.883 37.4401 33.8206 37.4055 33.7575 37.3721L34.6289 36.9609L34.5637 36.9324L34.1875 36.7676L34.5638 36.9324L44.5734 32.2121L44.3315 32.0053L45.2339 32.7769L46.5198 30.9779L42.4764 31.6988L43.8288 31.9223L33.8129 36.6034L33.7476 36.5749L32.8761 36.982C32.8001 36.9536 32.7236 36.9265 32.6467 36.9007C32.5681 36.8742 32.4893 36.8486 32.4101 36.824L33.017 36.3268L32.3224 36.149L32.2309 37.5586C32.2788 37.5786 32.3295 37.597 32.376 37.6178C32.8847 37.846 33.3041 38.1194 33.6033 38.4253C33.9048 38.7338 34.0846 39.0755 34.1103 39.4375C34.1362 39.8029 34.0028 40.1541 33.7375 40.4763C33.47 40.801 33.0689 41.096 32.563 41.3451C32.0543 41.5959 31.4408 41.8 30.7535 41.9417C30.0637 42.0839 29.3018 42.1628 28.5005 42.1628C27.6988 42.1628 26.9366 42.0839 26.2467 41.9417C25.5592 41.8001 24.9454 41.5959 24.4365 41.3451C23.9308 41.096 23.5296 40.8011 23.2621 40.4763C22.9967 40.1541 22.8633 39.8029 22.8893 39.4375C22.9151 39.0755 23.0947 38.7338 23.3962 38.4254C23.6954 38.1194 24.1148 37.846 24.6237 37.6178C24.6702 37.597 24.721 37.5785 24.7689 37.5586L24.6776 36.149L23.9825 36.3268L24.5894 36.824C24.5103 36.8487 24.4314 36.8743 24.3527 36.9007C24.276 36.9267 24.1996 36.9538 24.1236 36.982L23.2518 36.5749L23.1865 36.6036L13.171 31.9224L14.5244 31.6988L10.4797 30.9781ZM12.669 32.0057L12.6694 32.0054L13.1413 31.9275L12.669 32.0057Z" fill="#C3380D"/>
<path d="M8.82814 48.2812L8.37096 47.4495L5.56738 50.2041L11.1183 49.0631L9.56936 48.7194L8.99944 48.5928L8.82814 48.2812ZM51.4323 50.2041L48.6286 47.4495L48.1723 48.2816L34.9738 42.1127L34.5996 42.3017L34.2236 42.4913L47.4307 48.7195L45.8827 49.0632L51.4323 50.2041ZM25.4313 38.3947C25.4983 39.4289 26.391 40.2124 27.4246 40.1454C27.8195 40.1199 28.1961 39.9695 28.4999 39.716C28.8038 39.9695 29.1804 40.1199 29.5753 40.1454C30.6089 40.2124 31.5015 39.4289 31.5686 38.3947L32.3948 25.6453C32.6037 25.8008 32.8573 25.8847 33.1178 25.8842C33.4258 25.8839 33.7222 25.7665 33.9469 25.5558C34.1716 25.3451 34.3078 25.0568 34.3279 24.7494C34.9729 14.8776 32.7407 12.5232 32.2866 12.1516C32.0798 11.982 31.8224 11.886 31.5551 11.8786C31.5139 11.8742 31.4724 11.872 31.431 11.8719H25.5687C25.5269 11.8719 25.4856 11.8744 25.4448 11.8786C25.1774 11.886 24.9201 11.982 24.7133 12.1516C24.2591 12.5233 22.027 14.8776 22.672 24.7494C22.693 25.0707 22.8407 25.3704 23.0827 25.5827C23.3247 25.795 23.6411 25.9025 23.9623 25.8815C24.1949 25.8664 24.4181 25.7843 24.6051 25.6451L25.4313 38.3947ZM27.9232 13.5272H29.0764L29.3647 14.6652L29.321 14.7344C29.0905 14.9268 28.7998 15.0322 28.4996 15.0321C28.1998 15.0322 27.9093 14.9271 27.6791 14.735L27.6349 14.6652L27.9232 13.5272ZM27.8888 15.3752C28.0856 15.4489 28.2927 15.4875 28.4996 15.4875H28.5008C28.7077 15.4875 28.9143 15.4488 29.1108 15.375L29.9414 21.4932L28.4999 23.314L27.0585 21.4932L27.8888 15.3752Z" fill="#C3380D"/>
<path d="M28.4999 11.0073C30.3854 11.0073 31.9139 9.47883 31.9139 7.59333C31.9139 5.70782 30.3854 4.17932 28.4999 4.17932C26.6144 4.17932 25.0859 5.70782 25.0859 7.59333C25.0859 9.47883 26.6144 11.0073 28.4999 11.0073Z" fill="#C3380D"/>
<path d="M7.17628 25.7863C7.27545 25.7864 7.372 25.7545 7.45153 25.6952L7.76607 30.549C7.77831 30.7381 7.86513 30.9145 8.00744 31.0395C8.14974 31.1645 8.33587 31.2278 8.52489 31.2156C8.67525 31.2059 8.81861 31.1486 8.93427 31.052C9.04992 31.1486 9.19329 31.2059 9.34364 31.2156C9.43725 31.2217 9.53113 31.2093 9.61993 31.179C9.70873 31.1488 9.79071 31.1014 9.86119 31.0395C9.93167 30.9776 9.98927 30.9025 10.0307 30.8183C10.0721 30.7341 10.0966 30.6426 10.1026 30.549L10.4172 25.6952C10.4967 25.7545 10.5932 25.7864 10.6924 25.7863C10.8097 25.7861 10.9225 25.7414 11.008 25.6612C11.0936 25.581 11.1454 25.4713 11.1531 25.3543C11.3986 21.5962 10.5487 20.6997 10.3759 20.5581C10.2971 20.4937 10.1992 20.4571 10.0975 20.4544C10.0817 20.4527 10.0659 20.4518 10.0501 20.4518H7.81842C7.80248 20.4518 7.7867 20.4527 7.77123 20.4544C7.66943 20.4571 7.57144 20.4936 7.49265 20.5581C7.31982 20.6997 6.46996 21.596 6.71562 25.3543C6.72328 25.4713 6.77513 25.581 6.86066 25.6612C6.9462 25.7414 7.05902 25.7861 7.17628 25.7863Z" fill="#C3380D"/>
<path d="M8.93403 20.1227C9.65186 20.1227 10.2338 19.5408 10.2338 18.8229C10.2338 18.1051 9.65186 17.5232 8.93403 17.5232C8.21619 17.5232 7.63428 18.1051 7.63428 18.8229C7.63428 19.5408 8.21619 20.1227 8.93403 20.1227Z" fill="#C3380D"/>
<path d="M1.15471 44.7773C1.28334 44.7775 1.40859 44.7361 1.51174 44.6592L1.91975 50.9542C1.92761 51.0756 1.95929 51.1942 2.013 51.3034C2.06671 51.4125 2.1414 51.51 2.23278 51.5903C2.32417 51.6705 2.43047 51.732 2.54562 51.7712C2.66077 51.8104 2.78251 51.8265 2.90389 51.8186C3.09894 51.8061 3.28493 51.7318 3.43496 51.6065C3.58491 51.7317 3.77078 51.806 3.96573 51.8186C4.08711 51.8265 4.20885 51.8104 4.324 51.7712C4.43915 51.732 4.54545 51.6705 4.63684 51.5903C4.72822 51.51 4.80291 51.4125 4.85662 51.3034C4.91033 51.1942 4.94201 51.0756 4.94987 50.9542L5.35788 44.6592C5.46099 44.7361 5.58618 44.7775 5.71476 44.7773C5.86687 44.7772 6.01324 44.7192 6.12419 44.6151C6.23515 44.5111 6.30239 44.3687 6.31228 44.2169C6.63077 39.343 5.52858 38.1805 5.30447 37.9969C5.20235 37.9132 5.07533 37.8658 4.94335 37.8622C4.92298 37.8601 4.90252 37.859 4.88204 37.859H1.98758C1.96715 37.859 1.94674 37.8601 1.92643 37.8622C1.79882 37.8661 1.67151 37.9098 1.56515 37.9969C1.34089 38.1805 0.238846 39.3428 0.557335 44.2169C0.56723 44.3687 0.63445 44.511 0.745373 44.6151C0.856295 44.7191 1.00263 44.7771 1.15471 44.7773Z" fill="#C3380D"/>
<path d="M3.43463 37.432C4.36557 37.432 5.12024 36.6773 5.12024 35.7464C5.12024 34.8155 4.36557 34.0608 3.43463 34.0608C2.5037 34.0608 1.74902 34.8155 1.74902 35.7464C1.74902 36.6773 2.5037 37.432 3.43463 37.432Z" fill="#C3380D"/>
<path d="M46.3076 25.7863C46.4068 25.7864 46.5033 25.7545 46.5828 25.6952L46.8974 30.549C46.9096 30.7381 46.9964 30.9145 47.1387 31.0395C47.281 31.1645 47.4672 31.2278 47.6562 31.2156C47.8066 31.2059 47.9499 31.1486 48.0656 31.052C48.1813 31.1486 48.3247 31.2059 48.4751 31.2156C48.6641 31.2278 48.8502 31.1644 48.9925 31.0394C49.1347 30.9144 49.2215 30.738 49.2338 30.549L49.5485 25.6952C49.628 25.7545 49.7245 25.7864 49.8237 25.7863C49.941 25.7861 50.0538 25.7414 50.1393 25.6612C50.2249 25.581 50.2767 25.4713 50.2844 25.3543C50.5299 21.5962 49.6802 20.6997 49.5072 20.5581C49.4284 20.4937 49.3305 20.4571 49.2288 20.4544C49.2131 20.4527 49.1973 20.4518 49.1816 20.4518H46.9499C46.9338 20.4518 46.918 20.4527 46.9025 20.4544C46.8008 20.4572 46.7029 20.4937 46.6241 20.5581C46.4511 20.6997 45.6014 21.596 45.8469 25.3543C45.8545 25.4713 45.9064 25.5811 45.9919 25.6613C46.0775 25.7415 46.1903 25.7862 46.3076 25.7863Z" fill="#C3380D"/>
<path d="M48.0659 20.1227C48.7837 20.1227 49.3656 19.5408 49.3656 18.8229C49.3656 18.1051 48.7837 17.5232 48.0659 17.5232C47.348 17.5232 46.7661 18.1051 46.7661 18.8229C46.7661 19.5408 47.348 20.1227 48.0659 20.1227Z" fill="#C3380D"/>
<path d="M51.2852 44.7773C51.4138 44.7775 51.539 44.736 51.6421 44.6592L52.05 50.9542C52.0578 51.0756 52.0895 51.1942 52.1432 51.3034C52.1969 51.4125 52.2716 51.51 52.363 51.5903C52.4544 51.6705 52.5607 51.732 52.6758 51.7712C52.791 51.8104 52.9127 51.8265 53.0341 51.8186C53.2292 51.8061 53.4152 51.7318 53.5652 51.6065C53.7152 51.7318 53.9011 51.806 54.0961 51.8186C54.2175 51.8265 54.3392 51.8104 54.4544 51.7712C54.5695 51.732 54.6758 51.6705 54.7672 51.5903C54.8586 51.51 54.9333 51.4125 54.987 51.3034C55.0407 51.1942 55.0724 51.0756 55.0802 50.9542L55.4881 44.6592C55.5913 44.7361 55.7165 44.7775 55.8451 44.7773C55.9972 44.7772 56.1436 44.7192 56.2545 44.6152C56.3655 44.5112 56.4327 44.3689 56.4427 44.2171C56.7611 39.343 55.659 38.1805 55.4347 37.9969C55.3326 37.9132 55.2055 37.8658 55.0736 37.8622C55.0532 37.8601 55.0327 37.859 55.0123 37.859H52.1179C52.0975 37.859 52.077 37.8601 52.0566 37.8622C51.9292 37.8661 51.8017 37.9098 51.6955 37.9969C51.4713 38.1805 50.3692 39.343 50.6877 44.2169C50.6976 44.3687 50.7648 44.511 50.8757 44.6151C50.9867 44.7191 51.133 44.7771 51.2851 44.7773H51.2852Z" fill="#C3380D"/>
<path d="M54.7481 36.9407C55.4063 36.2824 55.4063 35.2151 54.7481 34.5569C54.0898 33.8986 53.0225 33.8986 52.3643 34.5569C51.706 35.2151 51.706 36.2824 52.3643 36.9407C53.0225 37.599 54.0898 37.599 54.7481 36.9407Z" fill="#C3380D"/>
</g>
<defs>
<clipPath id="clip0_374_199">
<rect width="56" height="56" fill="white" transform="translate(0.5)"/>
</clipPath>
</defs>
</svg>
