<svg width="57" height="56" viewBox="0 0 57 56" fill="none" xmlns="http://www.w3.org/2000/svg">
<g clip-path="url(#clip0_153_1492)">
<path fill-rule="evenodd" clip-rule="evenodd" d="M44.0561 9.53752H47.0138V19.5563C47.0139 19.7303 47.0831 19.8971 47.2062 20.0202C47.3292 20.1432 47.496 20.2124 47.67 20.2125H52.23C52.404 20.2125 52.571 20.1434 52.694 20.0203C52.8171 19.8972 52.8862 19.7303 52.8862 19.5563V9.53752H55.8438C55.9679 9.5375 56.0895 9.50225 56.1944 9.43589C56.2994 9.36952 56.3833 9.27475 56.4365 9.16259C56.4897 9.05042 56.51 8.92546 56.4951 8.80221C56.4801 8.67896 56.4305 8.56248 56.352 8.4663L50.4592 1.23847C50.3977 1.163 50.3201 1.10217 50.2321 1.0604C50.1442 1.01862 50.048 0.996948 49.9506 0.996948C49.8532 0.996948 49.7571 1.01862 49.6691 1.0604C49.5811 1.10217 49.5036 1.163 49.442 1.23847L43.5478 8.46619C43.4693 8.56237 43.4197 8.67885 43.4047 8.8021C43.3898 8.92535 43.4101 9.05031 43.4633 9.16247C43.5165 9.27464 43.6005 9.36941 43.7054 9.43578C43.8103 9.50214 43.9319 9.5375 44.0561 9.53752ZM49.1589 34.0546H43.8791C43.7051 34.0546 43.5381 33.9854 43.4151 33.8624C43.292 33.7393 43.2229 33.5724 43.2229 33.3983C43.2229 33.2243 43.292 33.0574 43.4151 32.9343C43.5381 32.8112 43.7051 32.7421 43.8791 32.7421H49.1589C49.3329 32.7421 49.4998 32.8112 49.6229 32.9343C49.746 33.0574 49.8151 33.2243 49.8151 33.3983C49.8151 33.5724 49.746 33.7393 49.6229 33.8624C49.4998 33.9854 49.3329 34.0546 49.1589 34.0546ZM55.1875 43.1961V23.6002C55.1875 23.5097 55.1697 23.4201 55.135 23.3365C55.1004 23.2529 55.0497 23.1769 54.9857 23.113C54.9217 23.049 54.8457 22.9982 54.7621 22.9636C54.6785 22.929 54.5889 22.9111 54.4984 22.9111H34.4697V25.1335H48.5266C48.6163 25.1336 48.705 25.1521 48.7873 25.1878C48.8696 25.2235 48.9437 25.2757 49.005 25.3412C49.0663 25.4067 49.1135 25.484 49.1438 25.5685C49.174 25.6529 49.1866 25.7427 49.1808 25.8322C49.1764 25.8959 49.1742 25.9598 49.1742 26.0236C49.1752 26.7926 49.4813 27.5298 50.0251 28.0734C50.569 28.6171 51.3063 28.9228 52.0752 28.9236C52.1371 28.9236 52.1995 28.9215 52.2666 28.9175C52.3562 28.9117 52.446 28.9243 52.5305 28.9546C52.6149 28.9848 52.6923 29.0321 52.7578 29.0935C52.8233 29.1548 52.8755 29.229 52.9112 29.3113C52.9469 29.3937 52.9653 29.4824 52.9653 29.5722V37.45C52.9652 37.624 52.896 37.7908 52.7729 37.9139C52.6499 38.0369 52.4831 38.1061 52.3091 38.1063C51.5402 38.1071 50.803 38.4128 50.2593 38.9565C49.7155 39.5001 49.4096 40.2372 49.4087 41.0061C49.4087 41.1802 49.3395 41.3471 49.2165 41.4702C49.0934 41.5932 48.9265 41.6624 48.7524 41.6624H34.4697V43.8849H54.4984C54.5889 43.8849 54.6785 43.8671 54.7621 43.8324C54.8457 43.7978 54.9217 43.747 54.9857 43.6831C55.0497 43.6191 55.1004 43.5431 55.135 43.4595C55.1697 43.3759 55.1875 43.2863 55.1875 43.1958V43.1961ZM33.157 53.0906C33.1567 53.2498 33.0935 53.4024 32.981 53.5149C32.8685 53.6275 32.716 53.691 32.5568 53.6913H2.41264C2.25349 53.691 2.10098 53.6275 1.9885 53.5149C1.87602 53.4024 1.81273 53.2498 1.8125 53.0906V13.7057C1.81253 13.5465 1.87575 13.3938 1.98828 13.2812C2.10081 13.1686 2.25344 13.1053 2.41264 13.1051H7.68681V16.0324H5.39672C5.22267 16.0324 5.05575 16.1016 4.93268 16.2246C4.80961 16.3477 4.74047 16.5146 4.74047 16.6887V24.5646C4.74047 24.7386 4.80961 24.9055 4.93268 25.0286C5.05575 25.1517 5.22267 25.2208 5.39672 25.2208H29.5728C29.7468 25.2208 29.9137 25.1517 30.0368 25.0286C30.1599 24.9055 30.229 24.7386 30.229 24.5646V16.6888C30.229 16.5147 30.1599 16.3478 30.0368 16.2247C29.9137 16.1017 29.7468 16.0325 29.5728 16.0325H27.2827V13.1051H32.5568C32.716 13.1055 32.8685 13.1689 32.9809 13.2815C33.0934 13.394 33.1567 13.5466 33.157 13.7057V53.0906ZM7.68681 20.2563V17.3451H6.05308V23.9082H28.9169V17.3457H27.2827V20.2563H27.5438C27.7179 20.2563 27.8848 20.3254 28.0079 20.4485C28.131 20.5716 28.2001 20.7385 28.2001 20.9125C28.2001 21.0866 28.131 21.2535 28.0079 21.3766C27.8848 21.4996 27.7179 21.5688 27.5438 21.5688H7.42562C7.25158 21.5688 7.08466 21.4996 6.96159 21.3766C6.83852 21.2535 6.76937 21.0866 6.76937 20.9125C6.76937 20.7385 6.83852 20.5716 6.96159 20.4485C7.08466 20.3254 7.25158 20.2563 7.42562 20.2563H7.68681ZM34.4697 38.9726V40.3508H48.147C48.2871 39.4715 48.7016 38.659 49.3311 38.0294C49.9606 37.3998 50.773 36.9853 51.6523 36.8451V30.2158C50.6863 30.1172 49.784 29.6884 49.0974 29.0018C48.4108 28.3152 47.982 27.4128 47.8833 26.4469H34.4697V27.8241C35.3559 27.5227 36.3012 27.4368 37.2272 27.5737C38.1532 27.7106 39.0332 28.0663 39.7942 28.6113C40.5553 29.1562 41.1755 29.8748 41.6033 30.7074C42.0311 31.54 42.2543 32.4625 42.2543 33.3986C42.2543 34.3347 42.0311 35.2572 41.6033 36.0898C41.1755 36.9224 40.5553 37.641 39.7942 38.1859C39.0332 38.7309 38.1532 39.0866 37.2272 39.2235C36.3012 39.3604 35.3559 39.2745 34.4697 38.9731V38.9726ZM34.4697 35.6664V34.2918C34.5696 34.243 34.6803 34.2204 34.7914 34.2262C34.9024 34.232 35.0102 34.2661 35.1044 34.3251C35.1987 34.3841 35.2763 34.4662 35.3301 34.5636C35.3838 34.661 35.4118 34.7705 35.4114 34.8817C35.4133 34.9967 35.4407 35.1099 35.4915 35.2131C35.5424 35.3163 35.6155 35.407 35.7055 35.4786V33.9616C35.2047 33.8203 34.768 33.5102 34.4696 33.0839V30.7453C34.7681 30.319 35.2047 30.009 35.7055 29.8676V29.6369C35.7055 29.4629 35.7747 29.296 35.8977 29.1729C36.0208 29.0498 36.1877 28.9807 36.3618 28.9807C36.5358 28.9807 36.7027 29.0498 36.8258 29.1729C36.9489 29.296 37.018 29.4629 37.018 29.6369V29.8676C37.9463 30.1338 38.6244 30.9504 38.6244 31.9147C38.6244 32.0887 38.5553 32.2556 38.4322 32.3787C38.3091 32.5018 38.1422 32.5709 37.9682 32.5709C37.7941 32.5709 37.6272 32.5018 37.5041 32.3787C37.381 32.2556 37.3119 32.0887 37.3119 31.9147C37.3103 31.7995 37.2831 31.6862 37.2322 31.583C37.1813 31.4797 37.1081 31.389 37.0178 31.3176V32.8344C37.9461 33.1012 38.6242 33.918 38.6242 34.8819C38.6242 35.8458 37.9461 36.6626 37.0178 36.929V37.1586C37.0178 37.3327 36.9487 37.4996 36.8256 37.6227C36.7025 37.7458 36.5356 37.8149 36.3615 37.8149C36.1875 37.8149 36.0206 37.7458 35.8975 37.6227C35.7744 37.4996 35.7053 37.3327 35.7053 37.1586V36.929C35.2045 36.7875 34.7678 36.4774 34.4694 36.0511V35.6667L34.4697 35.6664ZM39.2809 8.3088C39.2793 6.71818 38.6467 5.19315 37.5221 4.06836C36.3974 2.94356 34.8724 2.31088 33.2818 2.30915H33.2797C31.6895 2.31163 30.1652 2.94462 29.041 4.06931C27.9168 5.194 27.2844 6.7186 27.2827 8.3088V11.7924H32.5568C33.064 11.7931 33.5502 11.995 33.9087 12.3536C34.2673 12.7123 34.4691 13.1985 34.4697 13.7057V21.5985H39.2809V8.3088ZM54.4984 21.5985C55.0291 21.5992 55.5378 21.8103 55.913 22.1855C56.2882 22.5607 56.4993 23.0695 56.5 23.6001V43.1961C56.4993 43.7268 56.2882 44.2355 55.913 44.6107C55.5378 44.9859 55.0291 45.197 54.4984 45.1977H34.4697V53.0906C34.469 53.5978 34.2673 54.0839 33.9087 54.4425C33.5501 54.8011 33.064 55.0029 32.5568 55.0035H2.41264C1.90556 55.0028 1.41946 54.801 1.06092 54.4424C0.702382 54.0838 0.500665 53.5977 0.5 53.0906L0.5 13.7057C0.500665 13.1985 0.702398 12.7123 1.06097 12.3537C1.41955 11.995 1.9057 11.7932 2.41286 11.7924H7.68681V6.46769C7.68861 5.02149 8.26231 3.6347 9.28275 2.60991C10.3032 1.58511 11.6875 1.00549 13.1337 0.997521H33.2817C35.2202 0.999692 37.0788 1.77074 38.4495 3.1415C39.8203 4.51226 40.5914 6.37079 40.5936 8.30935V21.5985H54.4984ZM29.5726 27.8077H25.175C25.0888 27.8077 25.0034 27.8246 24.9238 27.8575C24.8441 27.8905 24.7717 27.9388 24.7108 27.9998C24.6498 28.0607 24.6015 28.1331 24.5685 28.2128C24.5356 28.2924 24.5187 28.3778 24.5188 28.464V32.8624C24.5187 32.9486 24.5356 33.034 24.5685 33.1136C24.6015 33.1933 24.6498 33.2657 24.7108 33.3266C24.7717 33.3876 24.8441 33.4359 24.9238 33.4689C25.0034 33.5018 25.0888 33.5187 25.175 33.5186H29.573C29.747 33.5186 29.9139 33.4495 30.037 33.3264C30.1601 33.2034 30.2292 33.0364 30.2292 32.8624V28.4641C30.2292 28.2901 30.1601 28.1231 30.037 28.0001C29.9139 27.877 29.747 27.8078 29.573 27.8078L29.5726 27.8077ZM19.6844 27.8077H15.285C15.1109 27.8077 14.944 27.8769 14.8209 28C14.6979 28.123 14.6287 28.2899 14.6287 28.464V32.8624C14.6287 33.0364 14.6979 33.2034 14.8209 33.3264C14.944 33.4495 15.1109 33.5186 15.285 33.5186H19.6844C19.8584 33.5186 20.0253 33.4495 20.1484 33.3264C20.2715 33.2034 20.3406 33.0364 20.3406 32.8624V28.4641C20.3406 28.2901 20.2715 28.1231 20.1484 28.0001C20.0253 27.877 19.8584 27.8077 19.6844 27.8077ZM9.79458 27.8077H5.39672C5.22267 27.8077 5.05575 27.8769 4.93268 28C4.80961 28.123 4.74047 28.2899 4.74047 28.464V32.8624C4.74047 33.0364 4.80961 33.2034 4.93268 33.3264C5.05575 33.4495 5.22267 33.5186 5.39672 33.5186H9.79469C9.96874 33.5186 10.1357 33.4495 10.2587 33.3264C10.3818 33.2034 10.4509 33.0364 10.4509 32.8624V28.4641C10.4509 28.2901 10.3818 28.1231 10.2587 28.0001C10.1357 27.877 9.96874 27.8078 9.79469 27.8078L9.79458 27.8077ZM29.5726 36.4302H25.175C25.0888 36.4301 25.0034 36.447 24.9238 36.48C24.8441 36.5129 24.7717 36.5613 24.7108 36.6222C24.6498 36.6832 24.6015 36.7556 24.5685 36.8352C24.5356 36.9149 24.5187 37.0003 24.5188 37.0865V41.485C24.5188 41.659 24.5879 41.8259 24.711 41.949C24.834 42.0721 25.001 42.1412 25.175 42.1412H29.573C29.747 42.1412 29.9139 42.0721 30.037 41.949C30.1601 41.8259 30.2292 41.659 30.2292 41.485V37.0866C30.2292 36.9125 30.1601 36.7456 30.037 36.6225C29.9139 36.4995 29.747 36.4303 29.573 36.4303L29.5726 36.4302ZM19.6844 36.4302H15.285C15.1109 36.4302 14.944 36.4993 14.8209 36.6224C14.6979 36.7455 14.6287 36.9124 14.6287 37.0865V41.485C14.6287 41.659 14.6979 41.8259 14.8209 41.949C14.944 42.0721 15.1109 42.1412 15.285 42.1412H19.6844C19.8584 42.1412 20.0253 42.0721 20.1484 41.949C20.2715 41.8259 20.3406 41.659 20.3406 41.485V37.0866C20.3406 36.9125 20.2715 36.7456 20.1484 36.6225C20.0253 36.4995 19.8584 36.4303 19.6844 36.4303V36.4302ZM9.79458 36.4302H5.39672C5.22267 36.4302 5.05575 36.4993 4.93268 36.6224C4.80961 36.7455 4.74047 36.9124 4.74047 37.0865V41.485C4.74047 41.659 4.80961 41.8259 4.93268 41.949C5.05575 42.0721 5.22267 42.1412 5.39672 42.1412H9.79469C9.96874 42.1412 10.1357 42.0721 10.2587 41.949C10.3818 41.8259 10.4509 41.659 10.4509 41.485V37.0866C10.4509 36.9125 10.3818 36.7456 10.2587 36.6225C10.1357 36.4995 9.96874 36.4303 9.79469 36.4303L9.79458 36.4302ZM29.5728 45.0527H25.175C25.001 45.0527 24.834 45.1218 24.711 45.2449C24.5879 45.368 24.5188 45.5349 24.5188 45.7089V50.1074C24.5188 50.2815 24.5879 50.4484 24.711 50.5715C24.834 50.6946 25.001 50.7637 25.175 50.7637H29.573C29.747 50.7637 29.9139 50.6946 30.037 50.5715C30.1601 50.4484 30.2292 50.2815 30.2292 50.1074V45.709C30.2292 45.535 30.1601 45.3681 30.037 45.245C29.9139 45.1219 29.747 45.0528 29.573 45.0528L29.5728 45.0527ZM19.6845 45.0527H15.285C15.1109 45.0527 14.944 45.1218 14.8209 45.2449C14.6979 45.368 14.6287 45.5349 14.6287 45.7089V50.1074C14.6287 50.2815 14.6979 50.4484 14.8209 50.5715C14.944 50.6946 15.1109 50.7637 15.285 50.7637H19.6844C19.8584 50.7637 20.0253 50.6946 20.1484 50.5715C20.2715 50.4484 20.3406 50.2815 20.3406 50.1074V45.709C20.3406 45.535 20.2715 45.3681 20.1484 45.245C20.0253 45.1219 19.8584 45.0528 19.6844 45.0528L19.6845 45.0527ZM9.79469 45.0527H5.39672C5.22267 45.0527 5.05575 45.1218 4.93268 45.2449C4.80961 45.368 4.74047 45.5349 4.74047 45.7089V50.1074C4.74047 50.2815 4.80961 50.4484 4.93268 50.5715C5.05575 50.6946 5.22267 50.7637 5.39672 50.7637H9.79469C9.96874 50.7637 10.1357 50.6946 10.2587 50.5715C10.3818 50.4484 10.4509 50.2815 10.4509 50.1074V45.709C10.4509 45.535 10.3818 45.3681 10.2587 45.245C10.1357 45.1219 9.96874 45.0528 9.79469 45.0528V45.0527ZM37.0181 34.2846C37.1096 34.3549 37.1837 34.4453 37.2347 34.5489C37.2857 34.6524 37.3122 34.7662 37.3122 34.8816C37.3122 34.997 37.2857 35.1109 37.2347 35.2144C37.1837 35.3179 37.1096 35.4083 37.0181 35.4786V34.2846ZM35.7056 31.3176V32.5116C35.6141 32.4413 35.54 32.3509 35.489 32.2474C35.4381 32.1439 35.4115 32.03 35.4115 31.9146C35.4115 31.7992 35.4381 31.6854 35.489 31.5818C35.54 31.4783 35.6141 31.3879 35.7056 31.3176Z" fill="#3C1573"/>
<path fill-rule="evenodd" clip-rule="evenodd" d="M49.1589 34.0545H43.8791C43.7051 34.0545 43.5381 33.9854 43.4151 33.8623C43.292 33.7392 43.2229 33.5723 43.2229 33.3982C43.2229 33.2242 43.292 33.0573 43.4151 32.9342C43.5381 32.8111 43.7051 32.742 43.8791 32.742H49.1589C49.3329 32.742 49.4998 32.8111 49.6229 32.9342C49.746 33.0573 49.8151 33.2242 49.8151 33.3982C49.8151 33.5723 49.746 33.7392 49.6229 33.8623C49.4998 33.9854 49.3329 34.0545 49.1589 34.0545ZM55.1875 43.1961V23.6001C55.1875 23.5096 55.1697 23.42 55.135 23.3364C55.1004 23.2528 55.0497 23.1769 54.9857 23.1129C54.9217 23.0489 54.8457 22.9981 54.7621 22.9635C54.6785 22.9289 54.5889 22.911 54.4984 22.911H34.4697V25.1334H48.5266C48.6163 25.1335 48.705 25.152 48.7873 25.1877C48.8696 25.2234 48.9437 25.2756 49.005 25.3411C49.0663 25.4066 49.1135 25.4839 49.1438 25.5684C49.174 25.6529 49.1866 25.7426 49.1808 25.8321C49.1764 25.8958 49.1742 25.9597 49.1742 26.0235C49.1752 26.7925 49.4813 27.5297 50.0251 28.0733C50.569 28.617 51.3063 28.9227 52.0752 28.9235C52.1371 28.9235 52.1995 28.9214 52.2666 28.9174C52.3562 28.9116 52.446 28.9242 52.5305 28.9545C52.6149 28.9847 52.6923 29.032 52.7578 29.0934C52.8233 29.1548 52.8755 29.2289 52.9112 29.3112C52.9469 29.3936 52.9653 29.4823 52.9653 29.5721V37.4499C52.9652 37.6239 52.896 37.7908 52.7729 37.9138C52.6499 38.0368 52.4831 38.106 52.3091 38.1062C51.5402 38.107 50.803 38.4128 50.2593 38.9564C49.7155 39.5 49.4096 40.2372 49.4087 41.006C49.4087 41.1801 49.3395 41.347 49.2165 41.4701C49.0934 41.5932 48.9265 41.6623 48.7524 41.6623H34.4697V43.8848H54.4984C54.5889 43.8848 54.6785 43.867 54.7621 43.8323C54.8457 43.7977 54.9217 43.747 54.9857 43.683C55.0497 43.619 55.1004 43.543 55.135 43.4594C55.1697 43.3758 55.1875 43.2865 55.1875 43.1961ZM33.157 53.0906C33.1567 53.2497 33.0935 53.4023 32.981 53.5149C32.8685 53.6274 32.716 53.6909 32.5568 53.6912H2.41264C2.25349 53.6909 2.10098 53.6274 1.9885 53.5149C1.87602 53.4023 1.81273 53.2497 1.8125 53.0906V13.7056C1.81253 13.5464 1.87575 13.3937 1.98828 13.2811C2.10081 13.1685 2.25344 13.1052 2.41264 13.105H7.68681V16.0323H5.39672C5.22267 16.0323 5.05575 16.1015 4.93268 16.2246C4.80961 16.3476 4.74047 16.5145 4.74047 16.6886V24.5645C4.74047 24.7385 4.80961 24.9054 4.93268 25.0285C5.05575 25.1516 5.22267 25.2207 5.39672 25.2207H29.5728C29.7468 25.2207 29.9137 25.1516 30.0368 25.0285C30.1599 24.9054 30.229 24.7385 30.229 24.5645V16.6887C30.229 16.5147 30.1599 16.3477 30.0368 16.2247C29.9137 16.1016 29.7468 16.0325 29.5728 16.0325H27.2827V13.105H32.5568C32.716 13.1054 32.8685 13.1688 32.9809 13.2814C33.0934 13.3939 33.1567 13.5465 33.157 13.7056V53.0906ZM7.68681 20.2562V17.3451H6.05308V23.9081H28.9169V17.3456H27.2827V20.2562H27.5438C27.7179 20.2562 27.8848 20.3253 28.0079 20.4484C28.131 20.5715 28.2001 20.7384 28.2001 20.9124C28.2001 21.0865 28.131 21.2534 28.0079 21.3765C27.8848 21.4995 27.7179 21.5687 27.5438 21.5687H7.42562C7.25158 21.5687 7.08466 21.4995 6.96159 21.3765C6.83852 21.2534 6.76937 21.0865 6.76937 20.9124C6.76937 20.7384 6.83852 20.5715 6.96159 20.4484C7.08466 20.3253 7.25158 20.2562 7.42562 20.2562H7.68681ZM34.4697 38.9725V40.3507H48.147C48.2871 39.4714 48.7016 38.6589 49.3311 38.0293C49.9606 37.3997 50.773 36.9852 51.6523 36.845V30.2158C50.6863 30.1171 49.784 29.6883 49.0974 29.0017C48.4108 28.3151 47.982 27.4128 47.8833 26.4468H34.4697V27.8241C35.3559 27.5226 36.3012 27.4367 37.2272 27.5736C38.1532 27.7105 39.0332 28.0662 39.7942 28.6112C40.5553 29.1562 41.1755 29.8747 41.6033 30.7073C42.0311 31.5399 42.2543 32.4625 42.2543 33.3985C42.2543 34.3346 42.0311 35.2572 41.6033 36.0897C41.1755 36.9223 40.5553 37.6409 39.7942 38.1859C39.0332 38.7308 38.1532 39.0865 37.2272 39.2234C36.3012 39.3603 35.3559 39.274 34.4697 38.9725ZM34.4697 35.6664V34.2917C34.5696 34.2429 34.6803 34.2203 34.7914 34.2261C34.9024 34.2319 35.0102 34.266 35.1044 34.325C35.1987 34.384 35.2763 34.4661 35.3301 34.5635C35.3838 34.6609 35.4118 34.7704 35.4114 34.8816C35.4133 34.9966 35.4407 35.1098 35.4915 35.213C35.5424 35.3163 35.6155 35.4069 35.7055 35.4786V33.9615C35.2047 33.8202 34.768 33.5101 34.4696 33.0838V30.7452C34.7681 30.319 35.2047 30.0089 35.7055 29.8675V29.6368C35.7055 29.4628 35.7747 29.2959 35.8977 29.1728C36.0208 29.0497 36.1877 28.9806 36.3618 28.9806C36.5358 28.9806 36.7027 29.0497 36.8258 29.1728C36.9489 29.2959 37.018 29.4628 37.018 29.6368V29.8675C37.9463 30.1337 38.6244 30.9503 38.6244 31.9146C38.6244 32.0886 38.5553 32.2555 38.4322 32.3786C38.3091 32.5017 38.1422 32.5708 37.9682 32.5708C37.7941 32.5708 37.6272 32.5017 37.5041 32.3786C37.3811 32.2555 37.3119 32.0886 37.3119 31.9146C37.3103 31.7995 37.2831 31.6862 37.2322 31.5829C37.1813 31.4796 37.1081 31.3889 37.0178 31.3175V32.8343C37.9461 33.1011 38.6242 33.9179 38.6242 34.8818C38.6242 35.8457 37.9461 36.6625 37.0178 36.9289V37.1586C37.0178 37.3326 36.9487 37.4995 36.8256 37.6226C36.7025 37.7457 36.5356 37.8148 36.3615 37.8148C36.1875 37.8148 36.0206 37.7457 35.8975 37.6226C35.7744 37.4995 35.7053 37.3326 35.7053 37.1586V36.9289C35.2045 36.7874 34.7678 36.4773 34.4694 36.051L34.4697 35.6664ZM39.2809 8.30872C39.2793 6.71809 38.6467 5.19307 37.5221 4.06827C36.3974 2.94348 34.8724 2.3108 33.2818 2.30906H33.2797C31.6895 2.31155 30.1652 2.94454 29.041 4.06923C27.9168 5.19392 27.2844 6.71852 27.2827 8.30872V11.7923H32.5568C33.064 11.7931 33.5502 11.9949 33.9087 12.3536C34.2673 12.7122 34.469 13.1984 34.4697 13.7056V21.5984H39.2809V8.30872ZM54.4984 21.5984C55.0291 21.5991 55.5378 21.8102 55.913 22.1854C56.2882 22.5607 56.4993 23.0694 56.5 23.6V43.1961C56.4993 43.7267 56.2882 44.2354 55.913 44.6106C55.5378 44.9859 55.0291 45.197 54.4984 45.1976H34.4697V53.0906C34.469 53.5977 34.2673 54.0839 33.9087 54.4425C33.5501 54.801 33.064 55.0028 32.5568 55.0034H2.41264C1.90556 55.0027 1.41946 54.8009 1.06092 54.4423C0.702382 54.0838 0.500665 53.5976 0.5 53.0906L0.5 13.7056C0.500665 13.1985 0.702398 12.7122 1.06097 12.3536C1.41955 11.9949 1.9057 11.7931 2.41286 11.7923H7.68681V6.46761C7.68861 5.02141 8.26231 3.63462 9.28275 2.60982C10.3032 1.58502 11.6875 1.00541 13.1337 0.997437H33.2817C35.2202 0.999608 37.0788 1.77065 38.4495 3.14141C39.8203 4.51217 40.5914 6.3707 40.5936 8.30926V21.5984H54.4984ZM29.5726 27.8077H25.175C25.0888 27.8076 25.0034 27.8245 24.9238 27.8574C24.8441 27.8904 24.7717 27.9387 24.7108 27.9997C24.6498 28.0606 24.6015 28.133 24.5685 28.2127C24.5356 28.2923 24.5187 28.3777 24.5188 28.4639V32.8623C24.5187 32.9485 24.5356 33.0339 24.5685 33.1135C24.6015 33.1932 24.6498 33.2656 24.7108 33.3265C24.7717 33.3875 24.8441 33.4358 24.9238 33.4688C25.0034 33.5017 25.0888 33.5186 25.175 33.5186H29.573C29.747 33.5186 29.9139 33.4494 30.037 33.3263C30.1601 33.2033 30.2292 33.0364 30.2292 32.8623V28.464C30.2292 28.29 30.1601 28.123 30.037 28C29.9139 27.8769 29.7467 27.8077 29.5726 27.8077ZM19.6844 27.8077H15.285C15.1109 27.8077 14.944 27.8768 14.8209 27.9999C14.6979 28.1229 14.6287 28.2899 14.6287 28.4639V32.8623C14.6287 33.0364 14.6979 33.2033 14.8209 33.3263C14.944 33.4494 15.1109 33.5186 15.285 33.5186H19.6844C19.8584 33.5186 20.0253 33.4494 20.1484 33.3263C20.2715 33.2033 20.3406 33.0364 20.3406 32.8623V28.464C20.3406 28.29 20.2715 28.123 20.1484 28C20.0253 27.8769 19.8584 27.8077 19.6844 27.8077ZM9.79458 27.8077H5.39672C5.22267 27.8077 5.05575 27.8768 4.93268 27.9999C4.80961 28.1229 4.74047 28.2899 4.74047 28.4639V32.8623C4.74047 33.0364 4.80961 33.2033 4.93268 33.3263C5.05575 33.4494 5.22267 33.5186 5.39672 33.5186H9.79469C9.96874 33.5186 10.1357 33.4494 10.2587 33.3263C10.3818 33.2033 10.4509 33.0364 10.4509 32.8623V28.464C10.4509 28.29 10.3818 28.123 10.2587 28C10.1357 27.8769 9.96863 27.8077 9.79458 27.8077ZM29.5726 36.4301H25.175C25.0888 36.43 25.0034 36.447 24.9238 36.4799C24.8441 36.5129 24.7717 36.5612 24.7108 36.6221C24.6498 36.6831 24.6015 36.7555 24.5685 36.8351C24.5356 36.9148 24.5187 37.0002 24.5188 37.0864V41.4849C24.5188 41.6589 24.5879 41.8259 24.711 41.9489C24.834 42.072 25.001 42.1411 25.175 42.1411H29.573C29.747 42.1411 29.9139 42.072 30.037 41.9489C30.1601 41.8259 30.2292 41.6589 30.2292 41.4849V37.0865C30.2292 36.9124 30.1601 36.7455 30.037 36.6224C29.9139 36.4994 29.7467 36.4301 29.5726 36.4301ZM19.6844 36.4301H15.285C15.1109 36.4301 14.944 36.4993 14.8209 36.6223C14.6979 36.7454 14.6287 36.9123 14.6287 37.0864V41.4849C14.6287 41.6589 14.6979 41.8259 14.8209 41.9489C14.944 42.072 15.1109 42.1411 15.285 42.1411H19.6844C19.8584 42.1411 20.0253 42.072 20.1484 41.9489C20.2715 41.8259 20.3406 41.6589 20.3406 41.4849V37.0865C20.3406 36.9124 20.2715 36.7455 20.1484 36.6224C20.0253 36.4994 19.8584 36.4301 19.6844 36.4301ZM9.79458 36.4301H5.39672C5.22267 36.4301 5.05575 36.4993 4.93268 36.6223C4.80961 36.7454 4.74047 36.9123 4.74047 37.0864V41.4849C4.74047 41.6589 4.80961 41.8259 4.93268 41.9489C5.05575 42.072 5.22267 42.1411 5.39672 42.1411H9.79469C9.96874 42.1411 10.1357 42.072 10.2587 41.9489C10.3818 41.8259 10.4509 41.6589 10.4509 41.4849V37.0865C10.4509 36.9124 10.3818 36.7455 10.2587 36.6224C10.1357 36.4994 9.96863 36.4301 9.79458 36.4301ZM29.5728 45.0526H25.175C25.001 45.0526 24.834 45.1217 24.711 45.2448C24.5879 45.3679 24.5188 45.5348 24.5188 45.7088V50.1074C24.5188 50.2814 24.5879 50.4483 24.711 50.5714C24.834 50.6945 25.001 50.7636 25.175 50.7636H29.573C29.747 50.7636 29.9139 50.6945 30.037 50.5714C30.1601 50.4483 30.2292 50.2814 30.2292 50.1074V45.709C30.2292 45.5349 30.1601 45.368 30.037 45.2449C29.9139 45.1218 29.7468 45.0526 29.5728 45.0526ZM19.6845 45.0526H15.285C15.1109 45.0526 14.944 45.1217 14.8209 45.2448C14.6979 45.3679 14.6287 45.5348 14.6287 45.7088V50.1074C14.6287 50.2814 14.6979 50.4483 14.8209 50.5714C14.944 50.6945 15.1109 50.7636 15.285 50.7636H19.6844C19.8584 50.7636 20.0253 50.6945 20.1484 50.5714C20.2715 50.4483 20.3406 50.2814 20.3406 50.1074V45.709C20.3406 45.5349 20.2715 45.368 20.1484 45.2449C20.0253 45.1218 19.8585 45.0526 19.6845 45.0526ZM9.79469 45.0526H5.39672C5.22267 45.0526 5.05575 45.1217 4.93268 45.2448C4.80961 45.3679 4.74047 45.5348 4.74047 45.7088V50.1074C4.74047 50.2814 4.80961 50.4483 4.93268 50.5714C5.05575 50.6945 5.22267 50.7636 5.39672 50.7636H9.79469C9.96874 50.7636 10.1357 50.6945 10.2587 50.5714C10.3818 50.4483 10.4509 50.2814 10.4509 50.1074V45.709C10.4509 45.5349 10.3818 45.368 10.2587 45.2449C10.1357 45.1218 9.96874 45.0526 9.79469 45.0526ZM37.0181 34.2845C37.1096 34.3548 37.1837 34.4453 37.2347 34.5488C37.2857 34.6523 37.3122 34.7661 37.3122 34.8815C37.3122 34.9969 37.2857 35.1108 37.2347 35.2143C37.1837 35.3178 37.1096 35.4082 37.0181 35.4786V34.2845ZM35.7056 31.3175V32.5115C35.6141 32.4412 35.54 32.3508 35.489 32.2473C35.4381 32.1438 35.4115 32.0299 35.4115 31.9145C35.4115 31.7991 35.4381 31.6853 35.489 31.5818C35.54 31.4782 35.6141 31.3878 35.7056 31.3175Z" fill="#784CB5"/>
</g>
<defs>
<clipPath id="clip0_153_1492">
<rect width="56" height="56" fill="white" transform="translate(0.5)"/>
</clipPath>
</defs>
</svg>
