<svg width="57" height="56" viewBox="0 0 57 56" fill="none" xmlns="http://www.w3.org/2000/svg">
<g clip-path="url(#clip0_374_159)">
<path d="M1.57045 50.3986L13.6366 38.3324C14.8894 40.1477 16.4617 41.7201 18.2769 42.9729L6.2108 55.0389C4.92936 56.3204 2.85178 56.3204 1.57045 55.0389C0.289016 53.7575 0.289016 51.68 1.57045 50.3986ZM4.32812 5.46875C4.32812 2.45328 6.78141 0 9.79688 0C12.8123 0 15.2656 2.45328 15.2656 5.46875C15.2656 8.48422 12.8123 10.9375 9.79688 10.9375C6.78141 10.9375 4.32812 8.48422 4.32812 5.46875ZM41.7344 5.46875C41.7344 2.45328 44.1877 0 47.2031 0C50.2186 0 52.6719 2.45328 52.6719 5.46875C52.6719 8.48422 50.2186 10.9375 47.2031 10.9375C44.1877 10.9375 41.7344 8.48422 41.7344 5.46875ZM22.4844 39.0469C22.4844 35.7299 25.183 33.0312 28.5 33.0312C31.817 33.0312 34.5156 35.7299 34.5156 39.0469V41.5929C32.6772 42.4163 30.6412 42.875 28.5 42.875C26.3588 42.875 24.3228 42.4163 22.4844 41.5929V39.0469Z" fill="#0E78AE"/>
<path d="M28.5 29.75C30.3122 29.75 31.7812 28.2809 31.7812 26.4688C31.7812 24.6566 30.3122 23.1875 28.5 23.1875C26.6878 23.1875 25.2188 24.6566 25.2188 26.4688C25.2188 28.2809 26.6878 29.75 28.5 29.75Z" fill="#0E78AE"/>
<path d="M41.3298 46.0654C42.8941 47.4846 44.9637 48.3438 47.2031 48.3438C49.4639 48.3438 51.5272 47.4819 53.0817 46.0695C55.1666 47.7758 56.5 50.3677 56.5 53.2657V54.3594C56.5 55.2655 55.7654 56.0001 54.8594 56.0001H39.5469C38.6408 56.0001 37.9062 55.2655 37.9062 54.3594V53.2657C37.9062 50.3653 39.2419 47.7717 41.3298 46.0654ZM47.2031 34.1251C50.2186 34.1251 52.6719 36.5783 52.6719 39.5938C52.6719 42.6093 50.2186 45.0626 47.2031 45.0626C44.4325 45.0626 42.1382 42.9911 41.7835 40.3159C43.3722 38.5921 44.5973 36.594 45.4069 34.4296C45.9843 34.2279 46.5915 34.125 47.2031 34.1251ZM3.9183 11.9445C5.47284 13.3569 7.53609 14.2188 9.79688 14.2188C12.0577 14.2188 14.1209 13.3569 15.6755 11.9445C16.3502 12.497 16.9446 13.141 17.4415 13.8578C14.8003 15.9118 12.7427 18.6822 11.5636 21.8751H2.14062C1.23456 21.8751 0.5 21.1405 0.5 20.2344V19.1407C0.5 16.2427 1.83339 13.6507 3.9183 11.9445ZM39.5585 13.8578C40.0553 13.141 40.6497 12.497 41.3245 11.9445C42.8791 13.3569 44.9423 14.2188 47.2031 14.2188C49.4639 14.2188 51.5272 13.3569 53.0817 11.9445C55.1666 13.6508 56.5 16.2427 56.5 19.1407V20.2344C56.5 21.1405 55.7654 21.8751 54.8594 21.8751H45.4364C44.2574 18.6822 42.1997 15.9118 39.5585 13.8578ZM28.5 13.3438C36.6418 13.3438 43.2656 19.9677 43.2656 28.1094C43.2656 32.7306 41.1311 36.8622 37.7969 39.5716V39.0469C37.7969 35.6376 35.951 32.6529 33.2073 31.0347C34.3543 29.8524 35.0625 28.2422 35.0625 26.4688C35.0625 22.8502 32.1186 19.9063 28.5 19.9063C24.8814 19.9063 21.9375 22.8502 21.9375 26.4688C21.9375 28.2422 22.6457 29.8524 23.7927 31.0347C21.049 32.6528 19.2031 35.6376 19.2031 39.0469V39.5716C15.8689 36.8621 13.7344 32.7306 13.7344 28.1094C13.7344 19.9677 20.3582 13.3438 28.5 13.3438Z" fill="#0E78AE"/>
</g>
<defs>
<clipPath id="clip0_374_159">
<rect width="56" height="56" fill="white" transform="translate(0.5)"/>
</clipPath>
</defs>
</svg>
