<svg width="301" height="142" viewBox="0 0 301 142" fill="none" xmlns="http://www.w3.org/2000/svg">
<path fill-rule="evenodd" clip-rule="evenodd" d="M133.223 34.3667L143.639 44.7824C144.961 43.4426 145.866 42.5578 148.296 42.2428L158.667 40.8996C159.891 40.741 160.859 40.3057 161.806 39.4898L170.277 32.1879C171.516 30.9301 171.511 28.899 170.261 27.6478C169.652 27.0396 168.84 26.7049 167.973 26.7049H167.96C167.101 26.7082 166.301 27.0418 165.708 27.6445C165.694 27.6576 165.681 27.6707 165.667 27.6828L158.34 33.9423C157.522 34.7473 156.4 35.2449 155.163 35.2449H155.007C153.735 35.4003 152.367 35.3434 151.086 35.2909C150.585 35.2701 150.113 35.2515 149.664 35.2449H145.983C145.621 35.2449 145.327 34.9507 145.327 34.5887C145.327 34.2256 145.621 33.9324 145.983 33.9324H154.917C155.912 33.8034 156.801 33.5288 157.442 32.982L157.454 32.9721C158.028 32.3903 158.384 31.5907 158.384 30.7103C158.384 28.934 156.938 27.4881 155.162 27.4881H142.102C140.773 27.4881 139.624 27.9638 138.685 28.9034L133.223 34.3667ZM159.495 8.28291C161.335 10.092 162.479 12.6076 162.479 15.3846C162.479 16.147 162.392 16.8885 162.229 17.6017C163.778 18.8813 165.725 19.5806 167.734 19.5792C172.504 19.5792 176.385 15.6985 176.385 10.9287C176.385 6.15885 172.504 2.27822 167.734 2.27822C163.968 2.27822 160.635 4.72822 159.495 8.28291ZM167.079 15.6624C165.831 15.377 164.9 14.2996 164.9 13.0156C164.9 12.6535 165.193 12.3593 165.557 12.3593C165.919 12.3593 166.213 12.6535 166.213 13.0156C166.213 13.7921 166.895 14.4243 167.735 14.4243C168.574 14.4243 169.258 13.7921 169.258 13.0156C169.258 12.1942 168.336 11.7709 167.563 11.562C165.845 11.096 164.9 10.1303 164.9 8.84072C164.9 7.55775 165.831 6.47932 167.079 6.19494V5.61744C167.079 5.25541 167.372 4.96119 167.735 4.96119C168.097 4.96119 168.392 5.25541 168.392 5.61744V6.19494C169.638 6.47932 170.57 7.55775 170.57 8.84072C170.57 9.20385 170.276 9.49697 169.914 9.49697C169.551 9.49697 169.258 9.20275 169.258 8.84072C169.258 8.06416 168.574 7.43307 167.735 7.43307C166.895 7.43307 166.213 8.06525 166.213 8.84072C166.213 9.66322 167.134 10.0854 167.907 10.2954C169.624 10.7613 170.57 11.7271 170.57 13.0156C170.57 14.2996 169.638 15.377 168.392 15.6624V16.2399C168.392 16.602 168.097 16.8962 167.735 16.8962C167.372 16.8962 167.079 16.602 167.079 16.2399V15.6624ZM154.975 17.4168C154.342 17.4168 153.828 17.9309 153.828 18.5631C153.828 19.1953 154.342 19.7093 154.975 19.7093C155.606 19.7093 156.121 19.1953 156.121 18.5631C156.121 17.9309 155.606 17.4168 154.975 17.4168ZM150.025 9.68291C149.394 9.68291 148.879 10.197 148.879 10.8292C148.879 11.4613 149.394 11.9754 150.025 11.9754C150.658 11.9754 151.172 11.4613 151.172 10.8292C151.172 10.197 150.656 9.68291 150.025 9.68291ZM137.141 15.0707L141.591 10.6203C142.415 9.79666 142.415 8.45791 141.591 7.63432C140.769 6.81072 139.428 6.81072 138.606 7.63432L137.606 8.634C137.482 8.7576 137.315 8.8265 137.141 8.8265C136.967 8.8265 136.801 8.7576 136.677 8.634L135.678 7.63432C135.482 7.43814 135.249 7.28257 134.993 7.17652C134.736 7.07048 134.462 7.01605 134.185 7.01635C133.643 7.01635 133.103 7.22197 132.691 7.63432C131.867 8.45791 131.867 9.79775 132.691 10.6203L137.141 15.0707ZM137.297 19.4479C132.528 19.4479 128.647 15.5673 128.647 10.7974C128.647 6.0276 132.528 2.14697 137.297 2.14697C141.112 2.14697 144.459 4.63854 145.568 8.25229C143.709 10.0635 142.553 12.5912 142.553 15.3857C142.553 16.1076 142.631 16.812 142.778 17.4912C141.233 18.7578 139.296 19.4493 137.297 19.4479ZM142.521 11.5478L137.607 16.462C137.483 16.5856 137.316 16.6545 137.142 16.6545C136.968 16.6545 136.802 16.5856 136.678 16.462L131.764 11.5478C130.429 10.2123 130.429 8.0401 131.764 6.70463C133.1 5.37025 135.272 5.37025 136.607 6.70463L137.142 7.24057L137.678 6.70463C139.013 5.37025 141.186 5.37025 142.521 6.70463C143.857 8.0401 143.857 10.2123 142.521 11.5478ZM143.864 15.3846C143.864 10.6148 147.745 6.73416 152.515 6.73416C157.286 6.73416 161.166 10.6148 161.166 15.3846C161.166 20.1545 157.286 24.0351 152.515 24.0351C147.746 24.0351 143.864 20.1545 143.864 15.3846ZM154.975 21.0218C153.618 21.0218 152.516 19.9182 152.516 18.5631C152.516 17.2068 153.618 16.1043 154.975 16.1043C156.33 16.1043 157.433 17.2068 157.433 18.5631C157.433 19.9193 156.329 21.0218 154.975 21.0218ZM158.179 12.0028L147.103 19.1471C146.993 19.2182 146.87 19.2521 146.748 19.2521C146.533 19.2521 146.322 19.146 146.196 18.9513C146.149 18.8789 146.117 18.7979 146.102 18.7131C146.086 18.6282 146.088 18.5412 146.106 18.4569C146.124 18.3725 146.159 18.2926 146.208 18.2217C146.257 18.1508 146.319 18.0902 146.392 18.0435L157.468 10.9003C157.773 10.7034 158.179 10.792 158.375 11.096C158.572 11.4012 158.484 11.807 158.179 12.0028ZM152.483 10.8292C152.483 12.1843 151.381 13.2879 150.024 13.2879C148.669 13.2879 147.566 12.1843 147.566 10.8292C147.566 9.47291 148.669 8.37041 150.024 8.37041C151.382 8.37041 152.483 9.474 152.483 10.8292ZM144.844 47.8428C145.054 48.0538 145.054 48.3962 144.844 48.6062L141.367 52.0832C141.156 52.2932 140.814 52.2932 140.604 52.0832L125.923 37.404C125.823 37.3034 125.767 37.1678 125.767 37.0223C125.767 36.8768 125.823 36.7412 125.923 36.6406L129.401 33.1635C129.507 33.0585 129.644 33.006 129.782 33.006C129.921 33.006 130.059 33.0585 130.164 33.1635L144.844 47.8428Z" fill="#0D8A71"/>
<path d="M60.7095 105V90.1H70.6095V92.5H63.4295V96.32H70.2095V98.72H63.4295V102.6H70.6095V105H60.7095ZM72.3841 105V94.12H74.8441V96.64L74.5641 96.22C74.7641 95.4333 75.1641 94.8467 75.7641 94.46C76.3641 94.0733 77.0707 93.88 77.8841 93.88C78.7774 93.88 79.5641 94.1133 80.2441 94.58C80.9241 95.0467 81.3641 95.66 81.5641 96.42L80.8241 96.48C81.1574 95.6133 81.6574 94.9667 82.3241 94.54C82.9907 94.1 83.7574 93.88 84.6241 93.88C85.3974 93.88 86.0841 94.0533 86.6841 94.4C87.2974 94.7467 87.7774 95.2333 88.1241 95.86C88.4707 96.4733 88.6441 97.1867 88.6441 98V105H86.0241V98.62C86.0241 98.14 85.9374 97.7267 85.7641 97.38C85.5907 97.0333 85.3507 96.7667 85.0441 96.58C84.7374 96.38 84.3641 96.28 83.9241 96.28C83.5107 96.28 83.1441 96.38 82.8241 96.58C82.5041 96.7667 82.2574 97.0333 82.0841 97.38C81.9107 97.7267 81.8241 98.14 81.8241 98.62V105H79.2041V98.62C79.2041 98.14 79.1174 97.7267 78.9441 97.38C78.7707 97.0333 78.5241 96.7667 78.2041 96.58C77.8974 96.38 77.5307 96.28 77.1041 96.28C76.6907 96.28 76.3241 96.38 76.0041 96.58C75.6841 96.7667 75.4374 97.0333 75.2641 97.38C75.0907 97.7267 75.0041 98.14 75.0041 98.62V105H72.3841ZM90.8606 109V94.12H93.3206V96.28L93.0806 95.74C93.454 95.1533 93.9606 94.7 94.6006 94.38C95.2406 94.0467 95.9806 93.88 96.8206 93.88C97.8473 93.88 98.774 94.1333 99.6006 94.64C100.427 95.1467 101.081 95.8267 101.561 96.68C102.054 97.5333 102.301 98.4933 102.301 99.56C102.301 100.613 102.061 101.573 101.581 102.44C101.101 103.307 100.447 103.993 99.6206 104.5C98.794 104.993 97.854 105.24 96.8006 105.24C96.014 105.24 95.2873 105.087 94.6206 104.78C93.9673 104.46 93.4473 104.007 93.0606 103.42L93.4806 102.9V109H90.8606ZM96.5006 102.84C97.1006 102.84 97.634 102.7 98.1006 102.42C98.5673 102.14 98.9273 101.753 99.1806 101.26C99.4473 100.767 99.5806 100.2 99.5806 99.56C99.5806 98.92 99.4473 98.36 99.1806 97.88C98.9273 97.3867 98.5673 97 98.1006 96.72C97.634 96.4267 97.1006 96.28 96.5006 96.28C95.9273 96.28 95.4073 96.42 94.9406 96.7C94.4873 96.98 94.1273 97.3733 93.8606 97.88C93.6073 98.3733 93.4806 98.9333 93.4806 99.56C93.4806 100.2 93.6073 100.767 93.8606 101.26C94.1273 101.753 94.4873 102.14 94.9406 102.42C95.4073 102.7 95.9273 102.84 96.5006 102.84ZM104.298 105V89.86H106.918V105H104.298ZM114.657 105.24C113.591 105.24 112.617 104.993 111.737 104.5C110.871 104.007 110.177 103.333 109.657 102.48C109.151 101.627 108.897 100.653 108.897 99.56C108.897 98.4667 109.151 97.4933 109.657 96.64C110.177 95.7867 110.871 95.1133 111.737 94.62C112.604 94.1267 113.577 93.88 114.657 93.88C115.724 93.88 116.691 94.1267 117.557 94.62C118.424 95.1133 119.111 95.7867 119.617 96.64C120.137 97.48 120.397 98.4533 120.397 99.56C120.397 100.653 120.137 101.627 119.617 102.48C119.097 103.333 118.404 104.007 117.537 104.5C116.671 104.993 115.711 105.24 114.657 105.24ZM114.657 102.84C115.244 102.84 115.757 102.7 116.197 102.42C116.651 102.14 117.004 101.753 117.257 101.26C117.524 100.753 117.657 100.187 117.657 99.56C117.657 98.92 117.524 98.36 117.257 97.88C117.004 97.3867 116.651 97 116.197 96.72C115.757 96.4267 115.244 96.28 114.657 96.28C114.057 96.28 113.531 96.4267 113.077 96.72C112.624 97 112.264 97.3867 111.997 97.88C111.744 98.36 111.617 98.92 111.617 99.56C111.617 100.187 111.744 100.753 111.997 101.26C112.264 101.753 112.624 102.14 113.077 102.42C113.531 102.7 114.057 102.84 114.657 102.84ZM123.509 109.4C123.215 109.4 122.929 109.373 122.649 109.32C122.369 109.28 122.115 109.2 121.889 109.08V106.9C122.062 106.94 122.269 106.98 122.509 107.02C122.762 107.06 122.995 107.08 123.209 107.08C123.809 107.08 124.242 106.94 124.509 106.66C124.789 106.393 125.035 106.033 125.249 105.58L125.969 103.9L125.929 106.1L121.189 94.12H124.009L127.329 102.96H126.329L129.629 94.12H132.469L127.729 106.1C127.449 106.793 127.109 107.387 126.709 107.88C126.309 108.373 125.842 108.747 125.309 109C124.789 109.267 124.189 109.4 123.509 109.4ZM138.872 105.24C137.752 105.24 136.772 104.987 135.932 104.48C135.092 103.973 134.439 103.287 133.972 102.42C133.506 101.553 133.272 100.593 133.272 99.54C133.272 98.4467 133.506 97.48 133.972 96.64C134.452 95.7867 135.099 95.1133 135.912 94.62C136.739 94.1267 137.659 93.88 138.672 93.88C139.526 93.88 140.272 94.02 140.912 94.3C141.566 94.58 142.119 94.9667 142.572 95.46C143.026 95.9533 143.372 96.52 143.612 97.16C143.852 97.7867 143.972 98.4667 143.972 99.2C143.972 99.3867 143.959 99.58 143.932 99.78C143.919 99.98 143.886 100.153 143.832 100.3H135.432V98.3H142.352L141.112 99.24C141.232 98.6267 141.199 98.08 141.012 97.6C140.839 97.12 140.546 96.74 140.132 96.46C139.732 96.18 139.246 96.04 138.672 96.04C138.126 96.04 137.639 96.18 137.212 96.46C136.786 96.7267 136.459 97.1267 136.232 97.66C136.019 98.18 135.939 98.8133 135.992 99.56C135.939 100.227 136.026 100.82 136.252 101.34C136.492 101.847 136.839 102.24 137.292 102.52C137.759 102.8 138.292 102.94 138.892 102.94C139.492 102.94 139.999 102.813 140.412 102.56C140.839 102.307 141.172 101.967 141.412 101.54L143.532 102.58C143.319 103.1 142.986 103.56 142.532 103.96C142.079 104.36 141.539 104.673 140.912 104.9C140.299 105.127 139.619 105.24 138.872 105.24ZM151.118 105.24C149.998 105.24 149.018 104.987 148.178 104.48C147.338 103.973 146.685 103.287 146.218 102.42C145.752 101.553 145.518 100.593 145.518 99.54C145.518 98.4467 145.752 97.48 146.218 96.64C146.698 95.7867 147.345 95.1133 148.158 94.62C148.985 94.1267 149.905 93.88 150.918 93.88C151.772 93.88 152.518 94.02 153.158 94.3C153.812 94.58 154.365 94.9667 154.818 95.46C155.272 95.9533 155.618 96.52 155.858 97.16C156.098 97.7867 156.218 98.4667 156.218 99.2C156.218 99.3867 156.205 99.58 156.178 99.78C156.165 99.98 156.132 100.153 156.078 100.3H147.678V98.3H154.598L153.358 99.24C153.478 98.6267 153.445 98.08 153.258 97.6C153.085 97.12 152.792 96.74 152.378 96.46C151.978 96.18 151.492 96.04 150.918 96.04C150.372 96.04 149.885 96.18 149.458 96.46C149.032 96.7267 148.705 97.1267 148.478 97.66C148.265 98.18 148.185 98.8133 148.238 99.56C148.185 100.227 148.272 100.82 148.498 101.34C148.738 101.847 149.085 102.24 149.538 102.52C150.005 102.8 150.538 102.94 151.138 102.94C151.738 102.94 152.245 102.813 152.658 102.56C153.085 102.307 153.418 101.967 153.658 101.54L155.778 102.58C155.565 103.1 155.232 103.56 154.778 103.96C154.325 104.36 153.785 104.673 153.158 104.9C152.545 105.127 151.865 105.24 151.118 105.24ZM161.979 105V90.1H168.259C169.246 90.1 170.086 90.2733 170.779 90.62C171.486 90.9533 172.026 91.4333 172.399 92.06C172.786 92.6733 172.979 93.42 172.979 94.3C172.979 94.98 172.792 95.62 172.419 96.22C172.059 96.8067 171.479 97.2933 170.679 97.68V96.42C171.412 96.7 171.992 97.0467 172.419 97.46C172.846 97.8733 173.146 98.3333 173.319 98.84C173.492 99.3467 173.579 99.88 173.579 100.44C173.579 101.867 173.106 102.987 172.159 103.8C171.226 104.6 169.926 105 168.259 105H161.979ZM164.699 102.6H168.539C169.246 102.6 169.806 102.407 170.219 102.02C170.646 101.62 170.859 101.093 170.859 100.44C170.859 99.7867 170.646 99.26 170.219 98.86C169.806 98.46 169.246 98.26 168.539 98.26H164.699V102.6ZM164.699 95.88H168.399C168.959 95.88 169.406 95.72 169.739 95.4C170.072 95.0667 170.239 94.64 170.239 94.12C170.239 93.6 170.072 93.1867 169.739 92.88C169.406 92.5733 168.959 92.42 168.399 92.42H164.699V95.88ZM180.747 105.24C179.627 105.24 178.647 104.987 177.807 104.48C176.967 103.973 176.314 103.287 175.847 102.42C175.381 101.553 175.147 100.593 175.147 99.54C175.147 98.4467 175.381 97.48 175.847 96.64C176.327 95.7867 176.974 95.1133 177.787 94.62C178.614 94.1267 179.534 93.88 180.547 93.88C181.401 93.88 182.147 94.02 182.787 94.3C183.441 94.58 183.994 94.9667 184.447 95.46C184.901 95.9533 185.247 96.52 185.487 97.16C185.727 97.7867 185.847 98.4667 185.847 99.2C185.847 99.3867 185.834 99.58 185.807 99.78C185.794 99.98 185.761 100.153 185.707 100.3H177.307V98.3H184.227L182.987 99.24C183.107 98.6267 183.074 98.08 182.887 97.6C182.714 97.12 182.421 96.74 182.007 96.46C181.607 96.18 181.121 96.04 180.547 96.04C180.001 96.04 179.514 96.18 179.087 96.46C178.661 96.7267 178.334 97.1267 178.107 97.66C177.894 98.18 177.814 98.8133 177.867 99.56C177.814 100.227 177.901 100.82 178.127 101.34C178.367 101.847 178.714 102.24 179.167 102.52C179.634 102.8 180.167 102.94 180.767 102.94C181.367 102.94 181.874 102.813 182.287 102.56C182.714 102.307 183.047 101.967 183.287 101.54L185.407 102.58C185.194 103.1 184.861 103.56 184.407 103.96C183.954 104.36 183.414 104.673 182.787 104.9C182.174 105.127 181.494 105.24 180.747 105.24ZM187.833 105V94.12H190.293V96.26L190.093 95.88C190.347 95.2267 190.76 94.7333 191.333 94.4C191.92 94.0533 192.6 93.88 193.373 93.88C194.173 93.88 194.88 94.0533 195.493 94.4C196.12 94.7467 196.607 95.2333 196.953 95.86C197.3 96.4733 197.473 97.1867 197.473 98V105H194.853V98.62C194.853 98.14 194.76 97.7267 194.573 97.38C194.387 97.0333 194.127 96.7667 193.793 96.58C193.473 96.38 193.093 96.28 192.653 96.28C192.227 96.28 191.847 96.38 191.513 96.58C191.18 96.7667 190.92 97.0333 190.733 97.38C190.547 97.7267 190.453 98.14 190.453 98.62V105H187.833ZM204.849 105.24C203.729 105.24 202.749 104.987 201.909 104.48C201.069 103.973 200.415 103.287 199.949 102.42C199.482 101.553 199.249 100.593 199.249 99.54C199.249 98.4467 199.482 97.48 199.949 96.64C200.429 95.7867 201.075 95.1133 201.889 94.62C202.715 94.1267 203.635 93.88 204.649 93.88C205.502 93.88 206.249 94.02 206.889 94.3C207.542 94.58 208.095 94.9667 208.549 95.46C209.002 95.9533 209.349 96.52 209.589 97.16C209.829 97.7867 209.949 98.4667 209.949 99.2C209.949 99.3867 209.935 99.58 209.909 99.78C209.895 99.98 209.862 100.153 209.809 100.3H201.409V98.3H208.329L207.089 99.24C207.209 98.6267 207.175 98.08 206.989 97.6C206.815 97.12 206.522 96.74 206.109 96.46C205.709 96.18 205.222 96.04 204.649 96.04C204.102 96.04 203.615 96.18 203.189 96.46C202.762 96.7267 202.435 97.1267 202.209 97.66C201.995 98.18 201.915 98.8133 201.969 99.56C201.915 100.227 202.002 100.82 202.229 101.34C202.469 101.847 202.815 102.24 203.269 102.52C203.735 102.8 204.269 102.94 204.869 102.94C205.469 102.94 205.975 102.813 206.389 102.56C206.815 102.307 207.149 101.967 207.389 101.54L209.509 102.58C209.295 103.1 208.962 103.56 208.509 103.96C208.055 104.36 207.515 104.673 206.889 104.9C206.275 105.127 205.595 105.24 204.849 105.24ZM213.195 105V96.46H211.275V94.12H213.195V93.76C213.195 92.9333 213.362 92.2333 213.695 91.66C214.042 91.0733 214.522 90.6267 215.135 90.32C215.748 90.0133 216.475 89.86 217.315 89.86C217.475 89.86 217.648 89.8733 217.835 89.9C218.035 89.9133 218.202 89.9333 218.335 89.96V92.22C218.202 92.1933 218.075 92.18 217.955 92.18C217.848 92.1667 217.748 92.16 217.655 92.16C217.068 92.16 216.615 92.2933 216.295 92.56C215.975 92.8133 215.815 93.2133 215.815 93.76V94.12H220.575V96.46H215.815V105H213.195ZM219.595 105V94.12H222.235V105H219.595ZM229.375 105.12C228.149 105.12 227.195 104.787 226.515 104.12C225.849 103.44 225.515 102.487 225.515 101.26V96.46H223.635V94.12H223.835C224.369 94.12 224.782 93.98 225.075 93.7C225.369 93.42 225.515 93.0133 225.515 92.48V91.64H228.135V94.12H230.635V96.46H228.135V101.12C228.135 101.48 228.195 101.787 228.315 102.04C228.449 102.293 228.649 102.487 228.915 102.62C229.195 102.753 229.549 102.82 229.975 102.82C230.069 102.82 230.175 102.813 230.295 102.8C230.429 102.787 230.555 102.773 230.675 102.76V105C230.489 105.027 230.275 105.053 230.035 105.08C229.795 105.107 229.575 105.12 229.375 105.12ZM236.817 105.24C235.657 105.24 234.644 104.967 233.777 104.42C232.924 103.86 232.337 103.107 232.017 102.16L233.977 101.22C234.257 101.833 234.644 102.313 235.137 102.66C235.644 103.007 236.204 103.18 236.817 103.18C237.297 103.18 237.677 103.073 237.957 102.86C238.237 102.647 238.377 102.367 238.377 102.02C238.377 101.807 238.317 101.633 238.197 101.5C238.09 101.353 237.937 101.233 237.737 101.14C237.55 101.033 237.344 100.947 237.117 100.88L235.337 100.38C234.417 100.113 233.717 99.7067 233.237 99.16C232.77 98.6133 232.537 97.9667 232.537 97.22C232.537 96.5533 232.704 95.9733 233.037 95.48C233.384 94.9733 233.857 94.58 234.457 94.3C235.07 94.02 235.77 93.88 236.557 93.88C237.584 93.88 238.49 94.1267 239.277 94.62C240.064 95.1133 240.624 95.8067 240.957 96.7L238.957 97.64C238.77 97.1467 238.457 96.7533 238.017 96.46C237.577 96.1667 237.084 96.02 236.537 96.02C236.097 96.02 235.75 96.12 235.497 96.32C235.244 96.52 235.117 96.78 235.117 97.1C235.117 97.3 235.17 97.4733 235.277 97.62C235.384 97.7667 235.53 97.8867 235.717 97.98C235.917 98.0733 236.144 98.16 236.397 98.24L238.137 98.76C239.03 99.0267 239.717 99.4267 240.197 99.96C240.69 100.493 240.937 101.147 240.937 101.92C240.937 102.573 240.764 103.153 240.417 103.66C240.07 104.153 239.59 104.54 238.977 104.82C238.364 105.1 237.644 105.24 236.817 105.24ZM79.0598 135L84.1998 120.1H87.7198L92.8598 135H89.8998L88.8398 131.8H83.0798L81.9998 135H79.0598ZM83.8598 129.4H88.0598L85.5798 121.98H86.3398L83.8598 129.4ZM98.9675 135.24C97.9142 135.24 96.9742 134.993 96.1475 134.5C95.3208 133.993 94.6675 133.307 94.1875 132.44C93.7075 131.573 93.4675 130.613 93.4675 129.56C93.4675 128.493 93.7075 127.533 94.1875 126.68C94.6675 125.827 95.3208 125.147 96.1475 124.64C96.9875 124.133 97.9208 123.88 98.9475 123.88C99.7742 123.88 100.508 124.047 101.148 124.38C101.801 124.7 102.314 125.153 102.688 125.74L102.288 126.28V119.86H104.908V135H102.428V132.9L102.708 133.42C102.334 134.007 101.814 134.46 101.148 134.78C100.481 135.087 99.7542 135.24 98.9675 135.24ZM99.2475 132.84C99.8475 132.84 100.374 132.7 100.828 132.42C101.281 132.14 101.634 131.753 101.888 131.26C102.154 130.767 102.288 130.2 102.288 129.56C102.288 128.933 102.154 128.373 101.888 127.88C101.634 127.373 101.281 126.98 100.828 126.7C100.374 126.42 99.8475 126.28 99.2475 126.28C98.6608 126.28 98.1342 126.427 97.6675 126.72C97.2008 127 96.8342 127.387 96.5675 127.88C96.3142 128.36 96.1875 128.92 96.1875 129.56C96.1875 130.2 96.3142 130.767 96.5675 131.26C96.8342 131.753 97.2008 132.14 97.6675 132.42C98.1342 132.7 98.6608 132.84 99.2475 132.84ZM107.345 135V124.12H109.805V126.64L109.525 126.22C109.725 125.433 110.125 124.847 110.725 124.46C111.325 124.073 112.032 123.88 112.845 123.88C113.738 123.88 114.525 124.113 115.205 124.58C115.885 125.047 116.325 125.66 116.525 126.42L115.785 126.48C116.118 125.613 116.618 124.967 117.285 124.54C117.952 124.1 118.718 123.88 119.585 123.88C120.358 123.88 121.045 124.053 121.645 124.4C122.258 124.747 122.738 125.233 123.085 125.86C123.432 126.473 123.605 127.187 123.605 128V135H120.985V128.62C120.985 128.14 120.898 127.727 120.725 127.38C120.552 127.033 120.312 126.767 120.005 126.58C119.698 126.38 119.325 126.28 118.885 126.28C118.472 126.28 118.105 126.38 117.785 126.58C117.465 126.767 117.218 127.033 117.045 127.38C116.872 127.727 116.785 128.14 116.785 128.62V135H114.165V128.62C114.165 128.14 114.078 127.727 113.905 127.38C113.732 127.033 113.485 126.767 113.165 126.58C112.858 126.38 112.492 126.28 112.065 126.28C111.652 126.28 111.285 126.38 110.965 126.58C110.645 126.767 110.398 127.033 110.225 127.38C110.052 127.727 109.965 128.14 109.965 128.62V135H107.345ZM125.822 135V124.12H128.442V135H125.822ZM125.822 122.9V120.1H128.442V122.9H125.822ZM130.861 135V124.12H133.321V126.26L133.121 125.88C133.374 125.227 133.787 124.733 134.361 124.4C134.947 124.053 135.627 123.88 136.401 123.88C137.201 123.88 137.907 124.053 138.521 124.4C139.147 124.747 139.634 125.233 139.981 125.86C140.327 126.473 140.501 127.187 140.501 128V135H137.881V128.62C137.881 128.14 137.787 127.727 137.601 127.38C137.414 127.033 137.154 126.767 136.821 126.58C136.501 126.38 136.121 126.28 135.681 126.28C135.254 126.28 134.874 126.38 134.541 126.58C134.207 126.767 133.947 127.033 133.761 127.38C133.574 127.727 133.481 128.14 133.481 128.62V135H130.861ZM142.716 135V124.12H145.336V135H142.716ZM142.716 122.9V120.1H145.336V122.9H142.716ZM151.895 135.24C150.735 135.24 149.722 134.967 148.855 134.42C148.002 133.86 147.415 133.107 147.095 132.16L149.055 131.22C149.335 131.833 149.722 132.313 150.215 132.66C150.722 133.007 151.282 133.18 151.895 133.18C152.375 133.18 152.755 133.073 153.035 132.86C153.315 132.647 153.455 132.367 153.455 132.02C153.455 131.807 153.395 131.633 153.275 131.5C153.168 131.353 153.015 131.233 152.815 131.14C152.628 131.033 152.422 130.947 152.195 130.88L150.415 130.38C149.495 130.113 148.795 129.707 148.315 129.16C147.848 128.613 147.615 127.967 147.615 127.22C147.615 126.553 147.782 125.973 148.115 125.48C148.462 124.973 148.935 124.58 149.535 124.3C150.148 124.02 150.848 123.88 151.635 123.88C152.662 123.88 153.568 124.127 154.355 124.62C155.142 125.113 155.702 125.807 156.035 126.7L154.035 127.64C153.848 127.147 153.535 126.753 153.095 126.46C152.655 126.167 152.162 126.02 151.615 126.02C151.175 126.02 150.828 126.12 150.575 126.32C150.322 126.52 150.195 126.78 150.195 127.1C150.195 127.3 150.248 127.473 150.355 127.62C150.462 127.767 150.608 127.887 150.795 127.98C150.995 128.073 151.222 128.16 151.475 128.24L153.215 128.76C154.108 129.027 154.795 129.427 155.275 129.96C155.768 130.493 156.015 131.147 156.015 131.92C156.015 132.573 155.842 133.153 155.495 133.66C155.148 134.153 154.668 134.54 154.055 134.82C153.442 135.1 152.722 135.24 151.895 135.24ZM162.989 135.12C161.762 135.12 160.809 134.787 160.129 134.12C159.462 133.44 159.129 132.487 159.129 131.26V126.46H157.249V124.12H157.449C157.982 124.12 158.395 123.98 158.689 123.7C158.982 123.42 159.129 123.013 159.129 122.48V121.64H161.749V124.12H164.249V126.46H161.749V131.12C161.749 131.48 161.809 131.787 161.929 132.04C162.062 132.293 162.262 132.487 162.529 132.62C162.809 132.753 163.162 132.82 163.589 132.82C163.682 132.82 163.789 132.813 163.909 132.8C164.042 132.787 164.169 132.773 164.289 132.76V135C164.102 135.027 163.889 135.053 163.649 135.08C163.409 135.107 163.189 135.12 162.989 135.12ZM166.29 135V124.12H168.75V126.54L168.55 126.18C168.804 125.367 169.197 124.8 169.73 124.48C170.277 124.16 170.93 124 171.69 124H172.33V126.32H171.39C170.644 126.32 170.044 126.553 169.59 127.02C169.137 127.473 168.91 128.113 168.91 128.94V135H166.29ZM177.071 135.24C176.311 135.24 175.651 135.113 175.091 134.86C174.531 134.607 174.097 134.247 173.791 133.78C173.484 133.3 173.331 132.747 173.331 132.12C173.331 131.52 173.464 130.987 173.731 130.52C173.997 130.04 174.411 129.64 174.971 129.32C175.531 129 176.237 128.773 177.091 128.64L180.651 128.06V130.06L177.591 130.58C177.071 130.673 176.684 130.84 176.431 131.08C176.177 131.32 176.051 131.633 176.051 132.02C176.051 132.393 176.191 132.693 176.471 132.92C176.764 133.133 177.124 133.24 177.551 133.24C178.097 133.24 178.577 133.127 178.991 132.9C179.417 132.66 179.744 132.333 179.971 131.92C180.211 131.507 180.331 131.053 180.331 130.56V127.76C180.331 127.293 180.144 126.907 179.771 126.6C179.411 126.28 178.931 126.12 178.331 126.12C177.771 126.12 177.271 126.273 176.831 126.58C176.404 126.873 176.091 127.267 175.891 127.76L173.751 126.72C173.964 126.147 174.297 125.653 174.751 125.24C175.217 124.813 175.764 124.48 176.391 124.24C177.017 124 177.697 123.88 178.431 123.88C179.324 123.88 180.111 124.047 180.791 124.38C181.471 124.7 181.997 125.153 182.371 125.74C182.757 126.313 182.951 126.987 182.951 127.76V135H180.471V133.14L181.031 133.1C180.751 133.567 180.417 133.96 180.031 134.28C179.644 134.587 179.204 134.827 178.711 135C178.217 135.16 177.671 135.24 177.071 135.24ZM190.137 135.12C188.91 135.12 187.957 134.787 187.277 134.12C186.61 133.44 186.277 132.487 186.277 131.26V126.46H184.397V124.12H184.597C185.13 124.12 185.544 123.98 185.837 123.7C186.13 123.42 186.277 123.013 186.277 122.48V121.64H188.897V124.12H191.397V126.46H188.897V131.12C188.897 131.48 188.957 131.787 189.077 132.04C189.21 132.293 189.41 132.487 189.677 132.62C189.957 132.753 190.31 132.82 190.737 132.82C190.83 132.82 190.937 132.813 191.057 132.8C191.19 132.787 191.317 132.773 191.437 132.76V135C191.25 135.027 191.037 135.053 190.797 135.08C190.557 135.107 190.337 135.12 190.137 135.12ZM193.439 135V124.12H196.059V135H193.439ZM193.439 122.9V120.1H196.059V122.9H193.439ZM203.798 135.24C202.731 135.24 201.758 134.993 200.878 134.5C200.011 134.007 199.318 133.333 198.798 132.48C198.291 131.627 198.038 130.653 198.038 129.56C198.038 128.467 198.291 127.493 198.798 126.64C199.318 125.787 200.011 125.113 200.878 124.62C201.744 124.127 202.718 123.88 203.798 123.88C204.864 123.88 205.831 124.127 206.698 124.62C207.564 125.113 208.251 125.787 208.758 126.64C209.278 127.48 209.538 128.453 209.538 129.56C209.538 130.653 209.278 131.627 208.758 132.48C208.238 133.333 207.544 134.007 206.678 134.5C205.811 134.993 204.851 135.24 203.798 135.24ZM203.798 132.84C204.384 132.84 204.898 132.7 205.338 132.42C205.791 132.14 206.144 131.753 206.398 131.26C206.664 130.753 206.798 130.187 206.798 129.56C206.798 128.92 206.664 128.36 206.398 127.88C206.144 127.387 205.791 127 205.338 126.72C204.898 126.427 204.384 126.28 203.798 126.28C203.198 126.28 202.671 126.427 202.218 126.72C201.764 127 201.404 127.387 201.138 127.88C200.884 128.36 200.758 128.92 200.758 129.56C200.758 130.187 200.884 130.753 201.138 131.26C201.404 131.753 201.764 132.14 202.218 132.42C202.671 132.7 203.198 132.84 203.798 132.84ZM211.525 135V124.12H213.985V126.26L213.785 125.88C214.038 125.227 214.451 124.733 215.025 124.4C215.611 124.053 216.291 123.88 217.065 123.88C217.865 123.88 218.571 124.053 219.185 124.4C219.811 124.747 220.298 125.233 220.645 125.86C220.991 126.473 221.165 127.187 221.165 128V135H218.545V128.62C218.545 128.14 218.451 127.727 218.265 127.38C218.078 127.033 217.818 126.767 217.485 126.58C217.165 126.38 216.785 126.28 216.345 126.28C215.918 126.28 215.538 126.38 215.205 126.58C214.871 126.767 214.611 127.033 214.425 127.38C214.238 127.727 214.145 128.14 214.145 128.62V135H211.525Z" fill="black"/>
</svg>
