<svg width="75" height="75" viewBox="0 0 75 75" fill="none" xmlns="http://www.w3.org/2000/svg">
<path d="M8.20307 37.5C8.20199 31.7048 9.91964 26.0395 13.1387 21.2207C16.3579 16.4018 20.9338 12.6459 26.2878 10.4281C31.6418 8.21021 37.5332 7.63002 43.217 8.7609C48.9007 9.89178 54.1214 12.6829 58.2187 16.7813L61.5304 13.4695C55.1504 7.12858 46.5167 3.57565 37.5216 3.58946C28.5264 3.60327 19.9037 7.18269 13.5431 13.5432C7.18262 19.9037 3.6032 28.5265 3.5894 37.5216C3.57559 46.5168 7.12852 55.1505 13.4695 61.5305L16.7812 58.2188C14.0578 55.5 11.8982 52.2702 10.4261 48.7148C8.95405 45.1593 8.19859 41.3482 8.20307 37.5Z" fill="#E4F1FF"/>
<path d="M71.4841 44.5312V30.4687H62.3013C61.7612 28.5392 60.9933 26.6808 60.0138 24.9328L66.5024 18.4453L61.5302 13.473L58.2185 16.7812L48.2716 26.7281C51.0852 29.5939 52.6534 33.4549 52.6349 37.471C52.6165 41.4871 51.0129 45.3335 48.173 48.1733C45.3332 51.0132 41.4868 52.6167 37.4707 52.6352C33.4546 52.6536 29.5937 51.0855 26.7278 48.2719L16.781 58.2187L13.4692 61.5304L18.4415 66.5027L24.929 60.014C26.6781 60.9938 28.5377 61.7617 30.4685 62.3015V71.4843H44.531V62.3015C46.4605 61.7615 48.3189 60.9936 50.0669 60.014L56.5544 66.5027L66.4989 56.5582L60.0103 50.0707C60.9912 48.3218 61.7603 46.4622 62.3013 44.5312H71.4841Z" fill="#E4F1FF"/>
<path d="M37.5 41.0156C39.4416 41.0156 41.0156 39.4416 41.0156 37.5C41.0156 35.5584 39.4416 33.9844 37.5 33.9844C35.5584 33.9844 33.9844 35.5584 33.9844 37.5C33.9844 39.4416 35.5584 41.0156 37.5 41.0156Z" fill="#E4F1FF"/>
<path d="M36.3281 65.625H38.6719V67.9688H36.3281V65.625ZM56.5477 58.2164L58.2047 56.5594L59.8617 58.2164L58.2047 59.8734L56.5477 58.2164ZM65.625 36.3281H67.9688V38.6719H65.625V36.3281Z" fill="#0E78AE"/>
<path d="M71.4842 29.2969H63.1756C62.7222 27.867 62.1479 26.4784 61.4588 25.1461L67.3311 19.2726C67.5508 19.0529 67.6742 18.7549 67.6742 18.4441C67.6742 18.1334 67.5508 17.8354 67.3311 17.6156L62.3588 12.6445C59.1058 9.32902 55.2281 6.691 50.9496 4.88288C46.6712 3.07476 42.0768 2.13239 37.4321 2.1102C32.7873 2.08802 28.1841 2.98647 23.8886 4.75364C19.5931 6.52081 15.6903 9.12168 12.4058 12.406C9.12131 15.6902 6.52017 19.5928 4.7527 23.8882C2.98522 28.1836 2.08644 32.7867 2.1083 37.4315C2.13015 42.0762 3.07221 46.6707 4.88002 50.9492C6.68784 55.2278 9.32559 59.1058 12.6409 62.359L17.6119 67.3312C17.8317 67.5509 18.1297 67.6743 18.4405 67.6743C18.7512 67.6743 19.0492 67.5509 19.269 67.3312L25.1424 61.459C26.476 62.1477 27.8658 62.7217 29.2967 63.1746V71.4844C29.2967 71.7952 29.4202 72.0932 29.6399 72.313C29.8597 72.5328 30.1578 72.6562 30.4686 72.6562H44.5311C44.8419 72.6562 45.14 72.5328 45.3597 72.313C45.5795 72.0932 45.703 71.7952 45.703 71.4844V63.1758C47.1327 62.7227 48.5213 62.1487 49.8537 61.4601L55.7272 67.3324C55.9469 67.5521 56.245 67.6755 56.5557 67.6755C56.8664 67.6755 57.1645 67.5521 57.3842 67.3324L67.3276 57.3891C67.5473 57.1693 67.6707 56.8713 67.6707 56.5605C67.6707 56.2498 67.5473 55.9518 67.3276 55.732L61.4553 49.8586C62.1453 48.5248 62.7205 47.1346 63.1744 45.7031H71.4842C71.795 45.7031 72.0931 45.5797 72.3129 45.3599C72.5326 45.1401 72.6561 44.842 72.6561 44.5312V30.4687C72.6561 30.1579 72.5326 29.8599 72.3129 29.6401C72.0931 29.4203 71.795 29.2969 71.4842 29.2969ZM14.2967 14.2969C20.3056 8.28603 28.4132 4.8424 36.9111 4.69156C45.4091 4.54073 53.6337 7.69447 59.8522 13.4883L58.1975 15.143C52.4144 9.80601 44.7908 6.91354 36.923 7.07129C29.0552 7.22905 21.5536 10.4248 15.9891 15.9893C10.4246 21.5537 7.2289 29.0554 7.07114 36.9231C6.91339 44.7909 9.80586 52.4146 15.1428 58.1976L13.4881 59.8523C7.69431 53.6339 4.54058 45.4092 4.69141 36.9113C4.84225 28.4134 8.28588 20.3058 14.2967 14.2969ZM47.4432 27.5566C50.045 30.2011 51.4963 33.7665 51.4812 37.4763C51.4661 41.186 49.9858 44.7395 47.3626 47.3627C44.7393 49.9859 41.1859 51.4663 37.4761 51.4814C33.7664 51.4965 30.201 50.0451 27.5565 47.4434C27.3367 47.2237 27.0387 47.1002 26.728 47.1002C26.4172 47.1002 26.1192 47.2237 25.8994 47.4434L16.801 56.5418C11.8861 51.2018 9.22574 44.1686 9.37607 36.9126C9.5264 29.6566 12.4758 22.7397 17.6077 17.6078C22.7395 12.476 29.6565 9.52655 36.9125 9.37622C44.1684 9.22589 51.2016 11.8863 56.5416 16.8012L47.4432 25.8984C47.3342 26.0073 47.2478 26.1365 47.1888 26.2788C47.1299 26.421 47.0995 26.5735 47.0995 26.7275C47.0995 26.8815 47.1299 27.034 47.1888 27.1763C47.2478 27.3186 47.3342 27.4478 47.4432 27.5566ZM70.3123 43.3594H62.3014C62.0452 43.3592 61.7961 43.443 61.592 43.5979C61.388 43.7529 61.2404 43.9704 61.1717 44.2172C60.657 46.0554 59.9249 47.8257 58.9909 49.4906C58.865 49.714 58.8158 49.9725 58.8509 50.2265C58.8861 50.4806 59.0036 50.716 59.1854 50.8969L64.8444 56.557L56.5592 64.8422L50.8991 59.1832C50.7182 59.0014 50.4828 58.8839 50.2287 58.8488C49.9747 58.8136 49.7162 58.8628 49.4928 58.9887C47.8279 59.9227 46.0576 60.6548 44.2194 61.1695C43.9726 61.2382 43.7551 61.3858 43.6001 61.5898C43.4452 61.7939 43.3614 62.043 43.3616 62.2992V70.3125H31.6405V62.3016C31.6406 62.0454 31.5568 61.7962 31.4019 61.5922C31.247 61.3882 31.0295 61.2405 30.7827 61.1719C28.9444 60.6571 27.1741 59.925 25.5092 58.991C25.2858 58.8651 25.0273 58.816 24.7733 58.8511C24.5193 58.8862 24.2838 59.0037 24.103 59.1855L18.4428 64.8445L15.1287 61.5305L26.7596 49.9008C29.8953 52.6155 33.9427 54.0418 38.0876 53.8927C42.2324 53.7437 46.167 52.0303 49.0996 49.0975C52.0322 46.1646 53.7451 42.2298 53.8937 38.085C54.0424 33.9401 52.6156 29.8928 49.9006 26.7574L61.5303 15.1266L64.8444 18.4406L59.1854 24.1008C59.0036 24.2816 58.8861 24.5171 58.8509 24.7711C58.8158 25.0251 58.865 25.2836 58.9909 25.507C59.925 27.1718 60.6572 28.9421 61.1717 30.7805C61.2404 31.0273 61.388 31.2448 61.592 31.3997C61.7961 31.5546 62.0452 31.6384 62.3014 31.6383H70.3123V43.3594Z" fill="#0E78AE"/>
<path d="M38.6719 32.9789V19.9219C38.6719 19.6111 38.5484 19.313 38.3286 19.0932C38.1089 18.8735 37.8108 18.75 37.5 18.75C37.1892 18.75 36.8911 18.8735 36.6714 19.0932C36.4516 19.313 36.3281 19.6111 36.3281 19.9219V32.9789C35.5228 33.1895 34.788 33.6107 34.1994 34.1994C33.6107 34.788 33.1895 35.5228 32.9789 36.3281H24.6094C24.2986 36.3281 24.0005 36.4516 23.7807 36.6714C23.561 36.8911 23.4375 37.1892 23.4375 37.5C23.4375 37.8108 23.561 38.1089 23.7807 38.3286C24.0005 38.5484 24.2986 38.6719 24.6094 38.6719H32.9789C33.1838 39.4716 33.5967 40.2028 34.1756 40.7913C34.7546 41.3798 35.4789 41.8046 36.2751 42.0226C37.0713 42.2407 37.9111 42.2441 38.709 42.0326C39.507 41.8211 40.2348 41.4023 40.8185 40.8185C41.4023 40.2348 41.8211 39.507 42.0326 38.709C42.2441 37.9111 42.2407 37.0713 42.0226 36.2751C41.8046 35.4789 41.3798 34.7546 40.7913 34.1756C40.2028 33.5967 39.4716 33.1838 38.6719 32.9789ZM37.5 39.8438C37.0364 39.8438 36.5833 39.7063 36.1979 39.4488C35.8125 39.1912 35.5121 38.8252 35.3347 38.3969C35.1573 37.9686 35.1108 37.4974 35.2013 37.0428C35.2917 36.5881 35.5149 36.1705 35.8427 35.8427C36.1705 35.5149 36.5881 35.2917 37.0428 35.2013C37.4974 35.1108 37.9686 35.1573 38.3969 35.3347C38.8252 35.5121 39.1912 35.8125 39.4488 36.1979C39.7063 36.5833 39.8438 37.0364 39.8438 37.5C39.8438 38.1216 39.5968 38.7177 39.1573 39.1573C38.7177 39.5968 38.1216 39.8438 37.5 39.8438ZM37.5 15.2344C37.1892 15.2344 36.8911 15.1109 36.6714 14.8911C36.4516 14.6714 36.3281 14.3733 36.3281 14.0625V11.7188C36.3281 11.4079 36.4516 11.1099 36.6714 10.8901C36.8911 10.6703 37.1892 10.5469 37.5 10.5469C37.8108 10.5469 38.1089 10.6703 38.3286 10.8901C38.5484 11.1099 38.6719 11.4079 38.6719 11.7188V14.0625C38.6719 14.3733 38.5484 14.6714 38.3286 14.8911C38.1089 15.1109 37.8108 15.2344 37.5 15.2344ZM49.2188 18.375C49.0131 18.3748 48.8112 18.3205 48.6332 18.2175C48.4553 18.1146 48.3075 17.9667 48.2048 17.7885C48.1021 17.6104 48.048 17.4084 48.0481 17.2028C48.0481 16.9972 48.1023 16.7952 48.2051 16.6172L49.3769 14.5863C49.5335 14.3194 49.7892 14.1251 50.0884 14.046C50.3876 13.967 50.7059 14.0094 50.9739 14.1641C51.2419 14.3189 51.4378 14.5733 51.5188 14.872C51.5999 15.1706 51.5596 15.4892 51.4066 15.7582L50.2348 17.7891C50.1318 17.9674 49.9837 18.1154 49.8053 18.2183C49.627 18.3211 49.4247 18.3752 49.2188 18.375ZM25.7812 18.375C25.5753 18.3752 25.373 18.3211 25.1947 18.2183C25.0163 18.1154 24.8682 17.9674 24.7652 17.7891L23.5934 15.7582C23.4404 15.4892 23.4001 15.1706 23.4812 14.872C23.5622 14.5733 23.7581 14.3189 24.0261 14.1641C24.2941 14.0094 24.6124 13.967 24.9116 14.046C25.2108 14.1251 25.4665 14.3194 25.623 14.5863L26.7949 16.6172C26.8977 16.7952 26.9519 16.9972 26.9519 17.2028C26.952 17.4084 26.8979 17.6104 26.7952 17.7885C26.6925 17.9667 26.5447 18.1146 26.3668 18.2175C26.1888 18.3205 25.9869 18.3748 25.7812 18.375ZM17.202 26.9531C16.9962 26.9536 16.794 26.8994 16.616 26.7961L14.5852 25.6242C14.3182 25.4677 14.124 25.212 14.0449 24.9128C13.9658 24.6136 14.0082 24.2953 14.163 24.0273C14.3177 23.7593 14.5721 23.5634 14.8708 23.4823C15.1694 23.4012 15.488 23.4416 15.757 23.5945L17.7879 24.7664C18.0113 24.8954 18.1859 25.0945 18.2846 25.3328C18.3833 25.5711 18.4006 25.8354 18.3338 26.0846C18.2671 26.3337 18.12 26.5539 17.9153 26.7109C17.7107 26.868 17.4599 26.9531 17.202 26.9531ZM14.0625 38.6719H11.7188C11.4079 38.6719 11.1099 38.5484 10.8901 38.3286C10.6703 38.1089 10.5469 37.8108 10.5469 37.5C10.5469 37.1892 10.6703 36.8911 10.8901 36.6714C11.1099 36.4516 11.4079 36.3281 11.7188 36.3281H14.0625C14.3733 36.3281 14.6714 36.4516 14.8911 36.6714C15.1109 36.8911 15.2344 37.1892 15.2344 37.5C15.2344 37.8108 15.1109 38.1089 14.8911 38.3286C14.6714 38.5484 14.3733 38.6719 14.0625 38.6719ZM15.1734 51.5625C14.9155 51.5625 14.6647 51.4774 14.4601 51.3203C14.2554 51.1633 14.1083 50.9431 14.0415 50.6939C13.9748 50.4448 13.9921 50.1805 14.0908 49.9422C14.1895 49.7039 14.3641 49.5048 14.5875 49.3758L16.6184 48.2039C16.7517 48.1257 16.8992 48.0747 17.0523 48.0538C17.2054 48.0329 17.3611 48.0424 17.5106 48.0819C17.66 48.1214 17.8001 48.1901 17.9229 48.284C18.0456 48.3778 18.1486 48.4951 18.2259 48.6289C18.3032 48.7628 18.3532 48.9106 18.3731 49.0638C18.393 49.2171 18.3825 49.3728 18.342 49.5219C18.3015 49.6711 18.2319 49.8107 18.1372 49.9329C18.0425 50.055 17.9246 50.1572 17.7902 50.2336L15.7594 51.4055C15.5814 51.5087 15.3792 51.5629 15.1734 51.5625Z" fill="#0E78AE"/>
<path d="M37.4997 49.2187C35.9601 49.223 34.4351 48.9213 33.0131 48.331C31.5912 47.7408 30.3008 46.8738 29.2169 45.7805C29.1051 45.6722 29.016 45.5428 28.9548 45.3997C28.8936 45.2566 28.8615 45.1028 28.8604 44.9472C28.8593 44.7916 28.8891 44.6374 28.9483 44.4934C29.0074 44.3495 29.0946 44.2188 29.2048 44.1089C29.3149 43.9991 29.4459 43.9122 29.59 43.8535C29.7341 43.7948 29.8884 43.7654 30.044 43.7669C30.1996 43.7685 30.3533 43.801 30.4962 43.8626C30.6391 43.9243 30.7683 44.0137 30.8762 44.1258C31.7428 45.0109 32.7763 45.7155 33.917 46.1986C35.0576 46.6818 36.2827 46.9339 37.5215 46.9405C38.7602 46.9471 39.9879 46.708 41.1336 46.237C42.2793 45.7659 43.3203 45.0724 44.1962 44.1965C45.0721 43.3206 45.7656 42.2796 46.2366 41.1339C46.7077 39.9882 46.9468 38.7605 46.9402 37.5218C46.9336 36.283 46.6815 35.0579 46.1983 33.9173C45.7152 32.7766 45.0106 31.7431 44.1255 30.8766C44.0134 30.7686 43.9239 30.6394 43.8623 30.4965C43.8007 30.3537 43.7682 30.1999 43.7666 30.0443C43.7651 29.8887 43.7945 29.7344 43.8532 29.5903C43.9119 29.4462 43.9988 29.3152 44.1086 29.2051C44.2185 29.0949 44.3492 29.0077 44.4931 28.9486C44.6371 28.8894 44.7913 28.8596 44.9469 28.8607C45.1025 28.8618 45.2563 28.8939 45.3994 28.9551C45.5425 29.0163 45.6719 29.1054 45.7802 29.2172C47.4175 30.8559 48.5324 32.9431 48.984 35.2152C49.4357 37.4872 49.2038 39.8422 48.3177 41.9825C47.4316 44.1229 45.9311 45.9526 44.0056 47.2405C42.0802 48.5285 39.8162 49.2169 37.4997 49.2187Z" fill="#0E78AE"/>
</svg>
