<svg width="57" height="58" viewBox="0 0 57 58" fill="none" xmlns="http://www.w3.org/2000/svg">
<path d="M42.75 7.625V14.75H49.875V7.625H42.75ZM53.4375 4.0625V18.3125H39.1875V4.0625H53.4375ZM24.9375 12.9688V20.0938H32.0625V12.9688H24.9375ZM35.625 9.40625V23.6562H21.375V9.40625H35.625ZM42.75 29V36.125H49.875V29H42.75ZM53.4375 25.4375V39.6875H39.1875V25.4375H53.4375Z" fill="#8E6EEE"/>
<path d="M17.8125 18.3125V29H28.5V39.6875H39.1875V53.9375H3.5625V18.3125H17.8125ZM24.9375 32.5625H17.8125V39.6875H24.9375V32.5625ZM28.5 50.375H35.625V43.25H28.5V50.375ZM17.8125 50.375H24.9375V43.25H17.8125V50.375ZM7.125 50.375H14.25V43.25H7.125V50.375ZM7.125 39.6875H14.25V32.5625H7.125V39.6875ZM14.25 29V21.875H7.125V29H14.25Z" fill="#330EA0"/>
</svg>
