<svg width="75" height="75" viewBox="0 0 75 75" fill="none" xmlns="http://www.w3.org/2000/svg">
<g clip-path="url(#clip0_374_241)">
<path d="M60.7838 44.375C60.1566 43.4132 59.299 42.6236 58.2889 42.0778C57.2787 41.532 56.1482 41.2474 55 41.25V3.75C55 2.75544 54.6049 1.80161 53.9017 1.09835C53.1984 0.395088 52.2446 0 51.25 0L6.25 0C4.59301 0.00198482 3.00445 0.661103 1.83277 1.83277C0.661103 3.00445 0.00198482 4.59301 0 6.25L0 63.75C0.00198482 65.407 0.661103 66.9956 1.83277 68.1672C3.00445 69.3389 4.59301 69.998 6.25 70H35.2775C35.4126 70.4809 35.5987 70.9461 35.8325 71.3875C36.4176 72.4882 37.2936 73.4071 38.3651 74.0441C39.4365 74.6811 40.6623 75.0118 41.9088 75H68.0913C69.3298 75.0056 70.5467 74.676 71.613 74.0461C72.6794 73.4162 73.5555 72.5095 74.1484 71.4221C74.7413 70.3347 75.0289 69.1072 74.9808 67.8696C74.9326 66.632 74.5505 65.4306 73.875 64.3925L60.7838 44.375ZM52.5 3.75V41.715C51.1533 42.2349 50.0044 43.1656 49.2163 44.375L40.6325 57.5H7.5V2.5H51.25C51.5815 2.5 51.8995 2.6317 52.1339 2.86612C52.3683 3.10054 52.5 3.41848 52.5 3.75ZM5 2.73V57.625C4.09126 57.819 3.23721 58.2131 2.5 58.7788V6.25C2.5032 5.47717 2.74511 4.72421 3.19261 4.09413C3.64011 3.46404 4.27136 2.9876 5 2.73ZM36.125 64.3925C35.5149 65.3243 35.142 66.3911 35.0388 67.5H6.25C5.25544 67.5 4.30161 67.1049 3.59835 66.4017C2.89509 65.6984 2.5 64.7446 2.5 63.75C2.5 62.7554 2.89509 61.8016 3.59835 61.0984C4.30161 60.3951 5.25544 60 6.25 60H39L36.125 64.3925ZM71.9675 70.1988C71.594 70.9005 71.035 71.4861 70.3515 71.8919C69.668 72.2977 68.8861 72.5081 68.0913 72.5H41.9088C41.1141 72.5078 40.3325 72.2974 39.6492 71.8916C38.9659 71.4858 38.4072 70.9003 38.0338 70.1988C37.6555 69.5126 37.4727 68.7358 37.5053 67.9529C37.5379 67.17 37.7847 66.4111 38.2188 65.7588L51.3088 45.74C51.7111 45.1286 52.259 44.6267 52.9033 44.2794C53.5476 43.9321 54.2681 43.7503 55 43.7503C55.7319 43.7503 56.4524 43.9321 57.0967 44.2794C57.741 44.6267 58.2889 45.1286 58.6913 45.74L71.7825 65.7588C72.2166 66.4111 72.4634 67.17 72.496 67.9529C72.5286 68.7358 72.3458 69.5126 71.9675 70.1988Z" fill="#C3380D"/>
<path d="M10 28.75C10 30.0761 10.5268 31.3479 11.4645 32.2855C12.4021 33.2232 13.6739 33.75 15 33.75H18.75C20.0761 33.75 21.3479 33.2232 22.2855 32.2855C23.2232 31.3479 23.75 30.0761 23.75 28.75V26.25C23.7442 26.0122 23.6686 25.7813 23.5325 25.5863L23.5512 25.5737L19.1638 18.75H26.25V38.75H23.75C22.7554 38.75 21.8016 39.1451 21.0983 39.8484C20.3951 40.5516 20 41.5054 20 42.5V43.98C19.2714 44.2376 18.6401 44.714 18.1926 45.3441C17.7451 45.9742 17.5032 46.7272 17.5 47.5V48.75C17.5 49.413 17.7634 50.0489 18.2322 50.5178C18.7011 50.9866 19.337 51.25 20 51.25H40C40.663 51.25 41.2989 50.9866 41.7678 50.5178C42.2366 50.0489 42.5 49.413 42.5 48.75V47.5C42.4968 46.7272 42.2549 45.9742 41.8074 45.3441C41.3599 44.714 40.7286 44.2376 40 43.98V42.5C40 41.5054 39.6049 40.5516 38.9017 39.8484C38.1984 39.1451 37.2446 38.75 36.25 38.75H33.75V18.75H40.8362L36.4487 25.5737L36.4675 25.5863C36.3314 25.7813 36.2558 26.0122 36.25 26.25V28.75C36.25 30.0761 36.7768 31.3479 37.7145 32.2855C38.6521 33.2232 39.9239 33.75 41.25 33.75H45C46.3261 33.75 47.5979 33.2232 48.5355 32.2855C49.4732 31.3479 50 30.0761 50 28.75V26.25C49.9943 26.0122 49.9186 25.7813 49.7825 25.5863L49.8013 25.5737L45.4137 18.75H46.25C47.243 18.7451 48.194 18.3484 48.8962 17.6462C49.5984 16.944 49.9951 15.993 50 15C50 14.0054 49.6049 13.0516 48.9016 12.3483C48.1984 11.6451 47.2446 11.25 46.25 11.25H33.75V8.75C33.75 7.75544 33.3549 6.80161 32.6517 6.09835C31.9484 5.39509 30.9946 5 30 5C29.0054 5 28.0516 5.39509 27.3483 6.09835C26.6451 6.80161 26.25 7.75544 26.25 8.75V11.25H13.75C12.757 11.2549 11.806 11.6516 11.1038 12.3538C10.4016 13.056 10.0049 14.007 10 15C10 15.9946 10.3951 16.9484 11.0983 17.6517C11.8016 18.3549 12.7554 18.75 13.75 18.75H14.5862L10.1988 25.5737L10.2175 25.5863C10.0814 25.7813 10.0058 26.0122 10 26.25V28.75ZM43.125 19.8125L46.46 25H39.79L43.125 19.8125ZM47.5 28.75C47.5 29.413 47.2366 30.0489 46.7678 30.5178C46.2989 30.9866 45.663 31.25 45 31.25H41.25C40.587 31.25 39.9511 30.9866 39.4822 30.5178C39.0134 30.0489 38.75 29.413 38.75 28.75V27.5H47.5V28.75ZM32.5 15C32.5 15.4945 32.3534 15.9778 32.0787 16.3889C31.804 16.8 31.4135 17.1205 30.9567 17.3097C30.4999 17.4989 29.9972 17.5484 29.5123 17.452C29.0273 17.3555 28.5819 17.1174 28.2322 16.7678C27.8826 16.4181 27.6445 15.9727 27.548 15.4877C27.4516 15.0028 27.5011 14.5001 27.6903 14.0433C27.8795 13.5865 28.2 13.196 28.6111 12.9213C29.0222 12.6466 29.5055 12.5 30 12.5C30.663 12.5 31.2989 12.7634 31.7678 13.2322C32.2366 13.7011 32.5 14.337 32.5 15ZM20 48.75V47.5C20 47.1685 20.1317 46.8505 20.3661 46.6161C20.6005 46.3817 20.9185 46.25 21.25 46.25H38.75C39.0815 46.25 39.3995 46.3817 39.6339 46.6161C39.8683 46.8505 40 47.1685 40 47.5V48.75H20ZM37.5 42.5V43.75H22.5V42.5C22.5 42.1685 22.6317 41.8505 22.8661 41.6161C23.1005 41.3817 23.4185 41.25 23.75 41.25H36.25C36.5815 41.25 36.8995 41.3817 37.1339 41.6161C37.3683 41.8505 37.5 42.1685 37.5 42.5ZM28.75 38.75V19.8225C29.5665 20.0592 30.4335 20.0592 31.25 19.8225V38.75H28.75ZM47.5 15C47.5003 15.1669 47.4664 15.3321 47.4004 15.4854C47.3344 15.6387 47.2377 15.7768 47.1162 15.8913C47.0034 16.0062 46.8685 16.0972 46.7197 16.1588C46.5708 16.2205 46.4111 16.2515 46.25 16.25H34.8225C35.0592 15.4335 35.0592 14.5665 34.8225 13.75H46.25C46.5815 13.75 46.8995 13.8817 47.1339 14.1161C47.3683 14.3505 47.5 14.6685 47.5 15ZM30 7.5C30.3315 7.5 30.6495 7.6317 30.8839 7.86612C31.1183 8.10054 31.25 8.41848 31.25 8.75V10.1775C30.4335 9.94082 29.5665 9.94082 28.75 10.1775V8.75C28.75 8.41848 28.8817 8.10054 29.1161 7.86612C29.3505 7.6317 29.6685 7.5 30 7.5ZM12.5 15C12.4997 14.8331 12.5336 14.6679 12.5996 14.5146C12.6656 14.3613 12.7623 14.2232 12.8838 14.1087C12.9966 13.9938 13.1315 13.9028 13.2803 13.8412C13.4292 13.7795 13.5889 13.7485 13.75 13.75H25.1775C24.9408 14.5665 24.9408 15.4335 25.1775 16.25H13.75C13.4185 16.25 13.1005 16.1183 12.8661 15.8839C12.6317 15.6495 12.5 15.3315 12.5 15ZM21.25 28.75C21.25 29.413 20.9866 30.0489 20.5178 30.5178C20.0489 30.9866 19.413 31.25 18.75 31.25H15C14.337 31.25 13.7011 30.9866 13.2322 30.5178C12.7634 30.0489 12.5 29.413 12.5 28.75V27.5H21.25V28.75ZM13.54 25L16.875 19.8125L20.21 25H13.54ZM55 47.5C54.6685 47.5 54.3505 47.6317 54.1161 47.8661C53.8817 48.1005 53.75 48.4185 53.75 48.75V61.25C53.75 61.5815 53.8817 61.8995 54.1161 62.1339C54.3505 62.3683 54.6685 62.5 55 62.5C55.3315 62.5 55.6495 62.3683 55.8839 62.1339C56.1183 61.8995 56.25 61.5815 56.25 61.25V48.75C56.25 48.4185 56.1183 48.1005 55.8839 47.8661C55.6495 47.6317 55.3315 47.5 55 47.5ZM55 65C54.6685 65 54.3505 65.1317 54.1161 65.3661C53.8817 65.6005 53.75 65.9185 53.75 66.25V67.5C53.75 67.8315 53.8817 68.1495 54.1161 68.3839C54.3505 68.6183 54.6685 68.75 55 68.75C55.3315 68.75 55.6495 68.6183 55.8839 68.3839C56.1183 68.1495 56.25 67.8315 56.25 67.5V66.25C56.25 65.9185 56.1183 65.6005 55.8839 65.3661C55.6495 65.1317 55.3315 65 55 65ZM31.25 62.5H11.25C10.9185 62.5 10.6005 62.6317 10.3661 62.8661C10.1317 63.1005 10 63.4185 10 63.75C10 64.0815 10.1317 64.3995 10.3661 64.6339C10.6005 64.8683 10.9185 65 11.25 65H31.25C31.5815 65 31.8995 64.8683 32.1339 64.6339C32.3683 64.3995 32.5 64.0815 32.5 63.75C32.5 63.4185 32.3683 63.1005 32.1339 62.8661C31.8995 62.6317 31.5815 62.5 31.25 62.5Z" fill="#C3380D"/>
</g>
<defs>
<clipPath id="clip0_374_241">
<rect width="75" height="75" fill="white"/>
</clipPath>
</defs>
</svg>
