<svg width="75" height="75" viewBox="0 0 75 75" fill="none" xmlns="http://www.w3.org/2000/svg">
<g clip-path="url(#clip0_374_142)">
<path d="M74.3601 43.9991C74.0173 43.6563 73.5525 43.4638 73.0677 43.4638C72.583 43.4638 72.1182 43.6563 71.7754 43.9991L55.5118 60.2626C55.4431 60.3314 55.3615 60.3859 55.2717 60.4231C55.1819 60.4603 55.0857 60.4794 54.9885 60.4794C54.8913 60.4794 54.7951 60.4603 54.7053 60.4231C54.6155 60.3859 54.5339 60.3314 54.4652 60.2626L49.1935 54.9909C48.8498 54.6527 48.3863 54.4639 47.9041 54.4658C47.4218 54.4677 46.9599 54.6602 46.6189 55.0012C46.2779 55.3422 46.0854 55.8041 46.0835 56.2864C46.0816 56.7686 46.2703 57.2321 46.6086 57.5758L54.4652 65.4324C54.5339 65.5011 54.6155 65.5556 54.7053 65.5928C54.7951 65.63 54.8913 65.6491 54.9885 65.6491C55.0857 65.6491 55.1819 65.63 55.2717 65.5928C55.3615 65.5556 55.4431 65.5011 55.5118 65.4324L74.3601 46.5839C74.5298 46.4142 74.6645 46.2127 74.7563 45.991C74.8482 45.7692 74.8955 45.5315 74.8955 45.2915C74.8955 45.0515 74.8482 44.8138 74.7563 44.592C74.6645 44.3703 74.5298 44.1688 74.3601 43.9991Z" fill="#784CB5"/>
<path d="M71.2624 55.9435C70.7776 55.9436 70.3127 56.1362 69.97 56.4789C69.6272 56.8217 69.4347 57.2866 69.4347 57.7714C69.4347 60.4559 68.6386 63.0801 67.1472 65.3122C65.6558 67.5443 63.5359 69.2839 61.0558 70.3113C58.5756 71.3386 55.8465 71.6074 53.2136 71.0836C50.5807 70.5599 48.1622 69.2672 46.264 67.369C44.3657 65.4708 43.073 63.0523 42.5493 60.4193C42.0256 57.7864 42.2944 55.0573 43.3217 52.5772C44.349 50.097 46.0887 47.9772 48.3208 46.4857C50.5529 44.9943 53.1771 44.1983 55.8616 44.1983C57.9742 44.1917 60.0586 44.6835 61.9454 45.6338C62.3785 45.8514 62.8804 45.8879 63.3406 45.7355C63.8007 45.583 64.1814 45.254 64.399 44.8208C64.6165 44.3876 64.6531 43.8858 64.5007 43.4256C64.3482 42.9655 64.0192 42.5848 63.586 42.3672C61.1905 41.1598 58.544 40.5346 55.8614 40.5423C52.454 40.5423 49.123 41.5527 46.2898 43.4458C43.4566 45.3389 41.2483 48.0296 39.9443 51.1777C38.6403 54.3258 38.2991 57.7899 38.9638 61.1319C39.6286 64.4739 41.2694 67.5438 43.6788 69.9532C46.0882 72.3627 49.158 74.0036 52.5 74.6684C55.842 75.3333 59.3061 74.9921 62.4542 73.6882C65.6024 72.3843 68.2931 70.1761 70.1863 67.3429C72.0794 64.5098 73.09 61.1788 73.09 57.7714C73.09 57.2866 72.8975 56.8217 72.5547 56.4789C72.212 56.1362 71.7471 55.9436 71.2624 55.9435Z" fill="#784CB5"/>
<path d="M59.651 29.5689H56.5748C56.0671 29.5689 55.5801 29.7706 55.2211 30.1296C54.8621 30.4886 54.6604 30.9756 54.6604 31.4833C54.6604 31.991 54.8621 32.478 55.2211 32.837C55.5801 33.196 56.0671 33.3977 56.5748 33.3977H61.5746C62.1025 33.3778 62.6027 33.1565 62.9725 32.7793C63.3422 32.4021 63.5536 31.8976 63.563 31.3695C63.4679 23.0172 60.0834 15.0393 54.1436 9.16657C48.2038 3.29388 40.1879 0.000153244 31.8351 0C14.3388 0 0.104492 14.2342 0.104492 31.7304C0.104492 49.2267 14.3388 63.4607 31.8351 63.4607C32.2455 63.4605 32.6449 63.3285 32.9746 63.084C33.3043 62.8396 33.5467 62.4957 33.6661 62.1031C33.7234 61.9394 33.7514 61.767 33.749 61.5936V56.2233C33.7446 55.7185 33.541 55.2358 33.1824 54.8804C32.8238 54.525 32.3394 54.3255 31.8345 54.3255C31.3297 54.3255 30.8452 54.525 30.4867 54.8804C30.1281 55.2358 29.9245 55.7185 29.9201 56.2233V59.5649C15.9758 58.6153 4.81265 47.375 3.98428 33.3984H7.09473C7.60246 33.3984 8.08939 33.1967 8.44841 32.8377C8.80744 32.4787 9.00913 31.9918 9.00913 31.484C9.00913 30.9763 8.80744 30.4894 8.44841 30.1303C8.08939 29.7713 7.60246 29.5696 7.09473 29.5696H4.0165C5.07485 15.8213 16.1403 4.83398 29.9205 3.89648V6.74312C29.9249 7.24797 30.1286 7.73064 30.4871 8.08607C30.8457 8.4415 31.3301 8.64092 31.835 8.64092C32.3399 8.64092 32.8243 8.4415 33.1828 8.08607C33.5414 7.73064 33.745 7.24797 33.7495 6.74312V3.89648C47.4755 4.84028 58.5878 15.8484 59.651 29.5689Z" fill="#784CB5"/>
<path d="M31.8352 18.7406C31.3274 18.7406 30.8404 18.9423 30.4814 19.3014C30.1223 19.6604 29.9206 20.1474 29.9206 20.6552V30.624L16.9748 38.0859C16.7551 38.2105 16.5623 38.3773 16.4074 38.5768C16.2525 38.7762 16.1386 39.0043 16.0722 39.248C16.0058 39.4916 15.9883 39.746 16.0207 39.9964C16.053 40.2469 16.1346 40.4885 16.2607 40.7072C16.3868 40.926 16.5549 41.1177 16.7554 41.2712C16.9559 41.4248 17.1848 41.5371 17.4289 41.6018C17.673 41.6665 17.9275 41.6823 18.1777 41.6482C18.4279 41.6142 18.6689 41.5309 18.8868 41.4033L32.7911 33.3898C32.8263 33.3696 32.8571 33.3499 32.8858 33.3312C33.1513 33.1573 33.3693 32.92 33.5202 32.6407C33.6711 32.3615 33.7501 32.0491 33.75 31.7317V20.6552C33.75 20.4037 33.7005 20.1547 33.6043 19.9224C33.508 19.6901 33.367 19.479 33.1892 19.3013C33.0114 19.1235 32.8003 18.9825 32.5679 18.8863C32.3356 18.7901 32.0866 18.7406 31.8352 18.7406Z" fill="#784CB5"/>
</g>
<defs>
<clipPath id="clip0_374_142">
<rect width="75" height="75" fill="white"/>
</clipPath>
</defs>
</svg>
