<svg width="94" height="94" viewBox="0 0 94 94" fill="none" xmlns="http://www.w3.org/2000/svg">
<rect x="1" y="1" width="92" height="92" rx="46" fill="white"/>
<rect x="1" y="1" width="92" height="92" rx="46" stroke="#843A25" stroke-width="2"/>
<g clip-path="url(#clip0_373_95)">
<path d="M28.4797 50.9781L29.7657 52.777L30.4268 52.2126L40.4357 56.9325L40.3706 56.9611L41.2421 57.3723C41.179 57.4054 41.1168 57.4401 41.0554 57.4762C40.9953 57.5112 40.9358 57.5471 40.8768 57.5839L39.7904 57.2903L39.1372 57.7727L40.2294 58.0705C40.1648 58.1299 40.1028 58.1918 40.0434 58.2563C40.0242 58.2774 40.0054 58.2984 39.9872 58.3195L38.7466 58.1642L38.3723 58.7154L39.6196 58.8731C39.5989 58.9176 39.5796 58.9628 39.5616 59.0086C39.5442 59.0538 39.5287 59.0997 39.5153 59.1463H38.2065L38.1447 59.7317H39.4633C39.468 59.7787 39.4754 59.8254 39.4853 59.8716C39.4949 59.9183 39.5064 59.9646 39.5197 60.0105L38.2209 60.1734L38.4882 60.7536L39.7974 60.5883C39.8437 60.6579 39.8939 60.7248 39.9478 60.7888C39.9661 60.8108 39.9851 60.8328 40.0045 60.8545L38.8131 61.1759L39.4044 61.7091L40.5998 61.3835C40.6562 61.4238 40.7132 61.4634 40.7708 61.502C40.8303 61.5417 40.8907 61.5801 40.9519 61.617L39.9605 62.0799L40.2608 62.2315L40.0256 62.1129L26.8281 68.2811L26.9994 68.5928L27.5693 68.7193L40.7758 62.4914L40.5653 62.3852L40.8415 62.5248L41.8332 62.0567C41.9109 62.0891 41.9892 62.1199 42.0681 62.1491C42.149 62.1795 42.2304 62.2088 42.3121 62.2371L41.5962 62.8143L42.708 63.1342L43.4188 62.5517C43.5119 62.573 43.6053 62.5931 43.6989 62.6118C43.7944 62.631 43.8901 62.6491 43.986 62.6661L43.6079 63.3193L44.8682 63.4862L45.2357 62.831C45.3882 62.8444 45.541 62.8555 45.6939 62.8641C45.7455 62.867 45.7971 62.8694 45.8491 62.8717L45.8438 63.5493H47.1556L47.1503 62.8714C47.2534 62.8673 47.3564 62.8618 47.4593 62.8547C47.5609 62.8479 47.6623 62.8399 47.7637 62.8309L48.1314 63.4861L49.3917 63.3192L49.0149 62.6659C49.1104 62.6487 49.2056 62.6306 49.3008 62.6116C49.3943 62.5928 49.4876 62.5727 49.5806 62.5515L50.2916 63.134L51.4032 62.8142L50.6873 62.237C50.7689 62.2084 50.8503 62.179 50.9315 62.149C51.0102 62.1194 51.0884 62.0885 51.1662 62.0564L52.1579 62.5245L52.5996 62.3015L53.0389 62.0799L52.0476 61.6169C52.139 61.5621 52.2285 61.5041 52.3157 61.443C52.3441 61.4232 52.372 61.4034 52.3996 61.3833L53.5965 61.709L54.1863 61.1758L52.995 60.8544C53.0518 60.7908 53.1055 60.7244 53.1559 60.6556C53.1721 60.6333 53.188 60.6107 53.2035 60.5881L54.5113 60.7535L54.7787 60.1733L53.4798 60.0103C53.4928 59.9644 53.5043 59.9181 53.5143 59.8715C53.5238 59.8252 53.5311 59.7785 53.5361 59.7316H54.8562L54.7944 59.1462H53.4842C53.4713 59.0995 53.4559 59.0535 53.4381 59.0084C53.4204 58.9625 53.401 58.9173 53.38 58.8729L54.6272 58.7153L54.2529 58.164L53.0137 58.3194C52.937 58.2322 52.8557 58.1491 52.7702 58.0705L53.8623 57.7725L53.2106 57.2902L52.1227 57.5838C52.0639 57.5469 52.0046 57.511 51.9447 57.476C51.883 57.4401 51.8206 57.4055 51.7575 57.3721L52.6289 56.9609L52.5637 56.9324L52.1875 56.7676L52.5638 56.9324L62.5734 52.2121L62.3315 52.0053L63.2339 52.7769L64.5198 50.9779L60.4764 51.6988L61.8288 51.9223L51.8129 56.6034L51.7476 56.5749L50.8761 56.982C50.8001 56.9536 50.7236 56.9265 50.6467 56.9007C50.5681 56.8742 50.4893 56.8486 50.4101 56.824L51.017 56.3268L50.3224 56.149L50.2309 57.5586C50.2788 57.5786 50.3295 57.597 50.376 57.6178C50.8847 57.846 51.3041 58.1194 51.6033 58.4253C51.9048 58.7338 52.0846 59.0755 52.1103 59.4375C52.1362 59.8029 52.0028 60.1541 51.7375 60.4763C51.47 60.801 51.0689 61.096 50.563 61.3451C50.0543 61.5959 49.4408 61.8 48.7535 61.9417C48.0637 62.0839 47.3018 62.1628 46.5005 62.1628C45.6988 62.1628 44.9366 62.0839 44.2467 61.9417C43.5592 61.8001 42.9454 61.5959 42.4365 61.3451C41.9308 61.096 41.5296 60.8011 41.2621 60.4763C40.9967 60.1541 40.8633 59.8029 40.8893 59.4375C40.9151 59.0755 41.0947 58.7338 41.3962 58.4254C41.6954 58.1194 42.1148 57.846 42.6237 57.6178C42.6702 57.597 42.721 57.5785 42.7689 57.5586L42.6776 56.149L41.9825 56.3268L42.5894 56.824C42.5103 56.8487 42.4314 56.8743 42.3527 56.9007C42.276 56.9267 42.1996 56.9538 42.1236 56.982L41.2518 56.5749L41.1865 56.6036L31.171 51.9224L32.5244 51.6988L28.4797 50.9781ZM30.669 52.0057L30.6694 52.0054L31.1413 51.9275L30.669 52.0057Z" fill="#C3380D"/>
<path d="M26.8281 68.2811L26.371 67.4495L23.5674 70.204L29.1183 69.063L27.5694 68.7193L26.9994 68.5928L26.8281 68.2811ZM69.4323 70.204L66.6286 67.4495L66.1723 68.2816L52.9738 62.1127L52.5996 62.3016L52.2236 62.4913L65.4307 68.7195L63.8827 69.0631L69.4323 70.204ZM43.4313 58.3946C43.4983 59.4288 44.391 60.2124 45.4246 60.1453C45.8195 60.1199 46.1961 59.9695 46.4999 59.7159C46.8038 59.9695 47.1804 60.1199 47.5753 60.1453C48.6089 60.2124 49.5015 59.4288 49.5686 58.3946L50.3948 45.6452C50.6037 45.8008 50.8573 45.8846 51.1178 45.8842C51.4258 45.8839 51.7222 45.7665 51.9469 45.5557C52.1716 45.345 52.3078 45.0568 52.3279 44.7494C52.9729 34.8776 50.7407 32.5231 50.2866 32.1515C50.0798 31.982 49.8224 31.886 49.5551 31.8786C49.5139 31.8742 49.4724 31.8719 49.431 31.8719H43.5687C43.5269 31.8719 43.4856 31.8743 43.4448 31.8786C43.1774 31.886 42.9201 31.982 42.7133 32.1515C42.2591 32.5233 40.027 34.8776 40.672 44.7494C40.693 45.0706 40.8407 45.3703 41.0827 45.5826C41.3247 45.7949 41.6411 45.9024 41.9623 45.8814C42.1949 45.8663 42.4181 45.7842 42.6051 45.645L43.4313 58.3946ZM45.9232 33.5271H47.0764L47.3647 34.6652L47.321 34.7343C47.0905 34.9268 46.7998 35.0321 46.4996 35.032C46.1998 35.0322 45.9093 34.927 45.6791 34.7349L45.6349 34.6652L45.9232 33.5271ZM45.8888 35.3751C46.0856 35.4489 46.2927 35.4874 46.4996 35.4874H46.5008C46.7077 35.4874 46.9143 35.4487 47.1108 35.375L47.9414 41.4932L46.4999 43.314L45.0585 41.4932L45.8888 35.3751Z" fill="#C3380D"/>
<path d="M46.4999 31.0073C48.3854 31.0073 49.9139 29.4788 49.9139 27.5933C49.9139 25.7078 48.3854 24.1793 46.4999 24.1793C44.6144 24.1793 43.0859 25.7078 43.0859 27.5933C43.0859 29.4788 44.6144 31.0073 46.4999 31.0073Z" fill="#C3380D"/>
<path d="M25.1763 45.7863C25.2754 45.7865 25.372 45.7545 25.4515 45.6953L25.7661 50.5491C25.7783 50.7381 25.8651 50.9145 26.0074 51.0395C26.1497 51.1645 26.3359 51.2279 26.5249 51.2157C26.6752 51.206 26.8186 51.1487 26.9343 51.0521C27.0499 51.1487 27.1933 51.206 27.3436 51.2157C27.4372 51.2217 27.5311 51.2093 27.6199 51.1791C27.7087 51.1489 27.7907 51.1015 27.8612 51.0396C27.9317 50.9777 27.9893 50.9025 28.0307 50.8184C28.0721 50.7342 28.0966 50.6427 28.1026 50.5491L28.4172 45.6953C28.4967 45.7545 28.5932 45.7865 28.6924 45.7863C28.8097 45.7862 28.9225 45.7415 29.008 45.6613C29.0936 45.5811 29.1454 45.4714 29.1531 45.3544C29.3986 41.5962 28.5487 40.6998 28.3759 40.5582C28.2971 40.4937 28.1992 40.4572 28.0975 40.4544C28.0817 40.4527 28.0659 40.4519 28.0501 40.4518H25.8184C25.8025 40.4518 25.7867 40.4528 25.7712 40.4544C25.6694 40.4572 25.5714 40.4937 25.4926 40.5582C25.3198 40.6998 24.47 41.5961 24.7156 45.3544C24.7233 45.4714 24.7751 45.5811 24.8607 45.6613C24.9462 45.7415 25.059 45.7862 25.1763 45.7863Z" fill="#C3380D"/>
<path d="M26.934 40.1228C27.6519 40.1228 28.2338 39.5408 28.2338 38.823C28.2338 38.1052 27.6519 37.5233 26.934 37.5233C26.2162 37.5233 25.6343 38.1052 25.6343 38.823C25.6343 39.5408 26.2162 40.1228 26.934 40.1228Z" fill="#C3380D"/>
<path d="M19.1547 64.7773C19.2833 64.7775 19.4086 64.7361 19.5117 64.6592L19.9198 70.9542C19.9276 71.0756 19.9593 71.1942 20.013 71.3034C20.0667 71.4125 20.1414 71.51 20.2328 71.5903C20.3242 71.6705 20.4305 71.732 20.5456 71.7712C20.6608 71.8104 20.7825 71.8265 20.9039 71.8186C21.0989 71.8061 21.2849 71.7318 21.435 71.6065C21.5849 71.7317 21.7708 71.806 21.9657 71.8186C22.0871 71.8265 22.2088 71.8104 22.324 71.7712C22.4391 71.732 22.5454 71.6705 22.6368 71.5903C22.7282 71.51 22.8029 71.4125 22.8566 71.3034C22.9103 71.1942 22.942 71.0756 22.9499 70.9542L23.3579 64.6592C23.461 64.7361 23.5862 64.7775 23.7148 64.7773C23.8669 64.7772 24.0132 64.7192 24.1242 64.6151C24.2351 64.5111 24.3024 64.3687 24.3123 64.2169C24.6308 59.343 23.5286 58.1805 23.3045 57.9969C23.2024 57.9132 23.0753 57.8658 22.9433 57.8622C22.923 57.8601 22.9025 57.859 22.882 57.859H19.9876C19.9672 57.859 19.9467 57.8601 19.9264 57.8622C19.7988 57.8661 19.6715 57.9098 19.5651 57.9969C19.3409 58.1805 18.2388 59.3428 18.5573 64.2169C18.5672 64.3687 18.6344 64.511 18.7454 64.6151C18.8563 64.7191 19.0026 64.7771 19.1547 64.7773Z" fill="#C3380D"/>
<path d="M21.4346 57.432C22.3656 57.432 23.1202 56.6773 23.1202 55.7464C23.1202 54.8155 22.3656 54.0608 21.4346 54.0608C20.5037 54.0608 19.749 54.8155 19.749 55.7464C19.749 56.6773 20.5037 57.432 21.4346 57.432Z" fill="#C3380D"/>
<path d="M64.3076 45.7863C64.4068 45.7865 64.5033 45.7545 64.5828 45.6953L64.8974 50.5491C64.9096 50.7381 64.9964 50.9145 65.1387 51.0395C65.281 51.1645 65.4672 51.2279 65.6562 51.2157C65.8066 51.206 65.9499 51.1487 66.0656 51.0521C66.1813 51.1487 66.3247 51.206 66.4751 51.2157C66.6641 51.2279 66.8502 51.1645 66.9925 51.0395C67.1347 50.9145 67.2215 50.7381 67.2338 50.5491L67.5485 45.6953C67.628 45.7545 67.7245 45.7865 67.8237 45.7863C67.941 45.7862 68.0538 45.7415 68.1393 45.6613C68.2249 45.5811 68.2767 45.4714 68.2844 45.3544C68.5299 41.5962 67.6802 40.6998 67.5072 40.5582C67.4284 40.4937 67.3305 40.4572 67.2288 40.4544C67.2131 40.4527 67.1973 40.4519 67.1816 40.4518H64.9499C64.9338 40.4518 64.918 40.4528 64.9025 40.4544C64.8008 40.4572 64.7029 40.4937 64.6241 40.5582C64.4511 40.6998 63.6014 41.5961 63.8469 45.3544C63.8545 45.4714 63.9064 45.5811 63.9919 45.6613C64.0775 45.7416 64.1903 45.7862 64.3076 45.7863Z" fill="#C3380D"/>
<path d="M66.0659 40.1228C66.7837 40.1228 67.3656 39.5408 67.3656 38.823C67.3656 38.1052 66.7837 37.5233 66.0659 37.5233C65.348 37.5233 64.7661 38.1052 64.7661 38.823C64.7661 39.5408 65.348 40.1228 66.0659 40.1228Z" fill="#C3380D"/>
<path d="M69.2852 64.7773C69.4138 64.7775 69.539 64.736 69.6421 64.6592L70.05 70.9542C70.0578 71.0756 70.0895 71.1942 70.1432 71.3034C70.1969 71.4125 70.2716 71.51 70.363 71.5903C70.4544 71.6705 70.5607 71.732 70.6758 71.7712C70.791 71.8104 70.9127 71.8265 71.0341 71.8186C71.2292 71.8061 71.4152 71.7318 71.5652 71.6065C71.7152 71.7318 71.9011 71.806 72.0961 71.8186C72.2175 71.8265 72.3392 71.8104 72.4544 71.7712C72.5695 71.732 72.6758 71.6705 72.7672 71.5903C72.8586 71.51 72.9333 71.4125 72.987 71.3034C73.0407 71.1942 73.0724 71.0756 73.0802 70.9542L73.4881 64.6592C73.5913 64.7361 73.7165 64.7775 73.8451 64.7773C73.9972 64.7772 74.1436 64.7192 74.2545 64.6152C74.3655 64.5112 74.4327 64.3689 74.4427 64.2171C74.7611 59.343 73.659 58.1805 73.4347 57.9969C73.3326 57.9132 73.2055 57.8658 73.0736 57.8622C73.0532 57.8601 73.0327 57.859 73.0123 57.859H70.1179C70.0975 57.859 70.077 57.8601 70.0566 57.8622C69.9292 57.8661 69.8017 57.9098 69.6955 57.9969C69.4713 58.1805 68.3692 59.343 68.6877 64.2169C68.6976 64.3687 68.7648 64.511 68.8757 64.6151C68.9867 64.7191 69.133 64.7771 69.2851 64.7773H69.2852Z" fill="#C3380D"/>
<path d="M72.7481 56.9407C73.4063 56.2824 73.4063 55.2151 72.7481 54.5569C72.0898 53.8986 71.0225 53.8986 70.3643 54.5569C69.706 55.2151 69.706 56.2824 70.3643 56.9407C71.0225 57.599 72.0898 57.599 72.7481 56.9407Z" fill="#C3380D"/>
</g>
<defs>
<clipPath id="clip0_373_95">
<rect width="56" height="56" fill="white" transform="translate(18.5 20)"/>
</clipPath>
</defs>
</svg>
