<svg width="94" height="94" viewBox="0 0 94 94" fill="none" xmlns="http://www.w3.org/2000/svg">
<rect x="1" y="1" width="92" height="92" rx="46" fill="white"/>
<rect x="1" y="1" width="92" height="92" rx="46" stroke="#784CB5" stroke-width="2"/>
<g clip-path="url(#clip0_373_99)">
<path fill-rule="evenodd" clip-rule="evenodd" d="M59.0004 33.6641H61.3772V41.7149C61.3773 41.8547 61.4329 41.9888 61.5317 42.0876C61.6306 42.1865 61.7647 42.2421 61.9045 42.2422H65.5687C65.7086 42.2422 65.8427 42.1867 65.9416 42.0878C66.0405 41.9889 66.0961 41.8547 66.0961 41.7149V33.6641H68.4727C68.5724 33.6641 68.6701 33.6358 68.7544 33.5824C68.8388 33.5291 68.9062 33.453 68.949 33.3628C68.9918 33.2727 69.0081 33.1723 68.9961 33.0732C68.984 32.9742 68.9442 32.8806 68.8811 32.8033L64.1458 26.9952C64.0963 26.9346 64.034 26.8857 63.9633 26.8521C63.8926 26.8186 63.8154 26.8011 63.7371 26.8011C63.6589 26.8011 63.5816 26.8186 63.5109 26.8521C63.4402 26.8857 63.3779 26.9346 63.3284 26.9952L58.592 32.8032C58.5289 32.8805 58.489 32.9741 58.477 33.0731C58.465 33.1722 58.4813 33.2726 58.5241 33.3627C58.5669 33.4529 58.6343 33.529 58.7186 33.5823C58.8029 33.6357 58.9007 33.6641 59.0004 33.6641ZM63.1009 53.3653H58.8582C58.7184 53.3653 58.5842 53.3098 58.4853 53.2109C58.3864 53.112 58.3309 52.9778 58.3309 52.838C58.3309 52.6981 58.3864 52.564 58.4853 52.4651C58.5842 52.3662 58.7184 52.3106 58.8582 52.3106H63.1009C63.2407 52.3106 63.3749 52.3662 63.4738 52.4651C63.5727 52.564 63.6282 52.6981 63.6282 52.838C63.6282 52.9778 63.5727 53.112 63.4738 53.2109C63.3749 53.3098 63.2407 53.3653 63.1009 53.3653ZM67.9453 60.7112V44.9645C67.9453 44.8918 67.931 44.8198 67.9032 44.7526C67.8753 44.6854 67.8346 44.6244 67.7831 44.5729C67.7317 44.5215 67.6707 44.4807 67.6035 44.4529C67.5363 44.4251 67.4643 44.4108 67.3916 44.4108H51.2971V46.1966H62.5928C62.6649 46.1967 62.7362 46.2115 62.8023 46.2402C62.8684 46.2689 62.9279 46.3109 62.9772 46.3635C63.0265 46.4161 63.0644 46.4783 63.0888 46.5461C63.1131 46.614 63.1232 46.6861 63.1185 46.7581C63.115 46.8092 63.1132 46.8605 63.1132 46.9119C63.114 47.5298 63.3599 48.1222 63.797 48.559C64.234 48.9959 64.8265 49.2416 65.4444 49.2422C65.4941 49.2422 65.5442 49.2405 65.5982 49.2373C65.6702 49.2326 65.7423 49.2428 65.8102 49.2671C65.8781 49.2914 65.9403 49.3294 65.9929 49.3787C66.0455 49.428 66.0874 49.4876 66.1161 49.5538C66.1448 49.6199 66.1596 49.6913 66.1596 49.7634V56.0938C66.1595 56.2336 66.1039 56.3677 66.005 56.4665C65.9062 56.5654 65.7721 56.621 65.6323 56.6211C65.0144 56.6218 64.4221 56.8675 63.9851 57.3043C63.5482 57.7412 63.3024 58.3335 63.3016 58.9514C63.3016 59.0912 63.2461 59.2254 63.1472 59.3243C63.0483 59.4232 62.9141 59.4787 62.7743 59.4787H51.2971V61.2647H67.3916C67.4643 61.2647 67.5363 61.2503 67.6035 61.2225C67.6707 61.1947 67.7317 61.1539 67.7831 61.1025C67.8346 61.0511 67.8753 60.99 67.9032 60.9228C67.931 60.8557 67.9453 60.7837 67.9453 60.711V60.7112ZM50.2422 68.6622C50.242 68.79 50.1912 68.9126 50.1008 69.0031C50.0104 69.0936 49.8878 69.1445 49.76 69.1448H25.5369C25.4091 69.1445 25.2865 69.0936 25.1961 69.0031C25.1057 68.9126 25.0549 68.79 25.0547 68.6622V37.0135C25.0547 36.8856 25.1055 36.7629 25.1959 36.6724C25.2864 36.5819 25.409 36.531 25.5369 36.5309H29.7751V38.8832H27.9349C27.795 38.8832 27.6609 38.9388 27.562 39.0377C27.4631 39.1366 27.4075 39.2707 27.4075 39.4106V45.7394C27.4075 45.8793 27.4631 46.0134 27.562 46.1123C27.6609 46.2112 27.795 46.2667 27.9349 46.2667H47.362C47.5019 46.2667 47.636 46.2112 47.7349 46.1123C47.8338 46.0134 47.8894 45.8793 47.8894 45.7394V39.4107C47.8894 39.2708 47.8338 39.1367 47.7349 39.0378C47.636 38.9389 47.5019 38.8833 47.362 38.8833H45.5218V36.5309H49.76C49.8878 36.5312 50.0104 36.5822 50.1007 36.6726C50.1911 36.7631 50.242 36.8857 50.2422 37.0135V68.6622ZM29.7751 42.2774V39.9381H28.4623V45.212H46.835V39.9385H45.5218V42.2774H45.7317C45.8715 42.2774 46.0057 42.3329 46.1045 42.4318C46.2034 42.5307 46.259 42.6649 46.259 42.8047C46.259 42.9446 46.2034 43.0787 46.1045 43.1776C46.0057 43.2765 45.8715 43.3321 45.7317 43.3321H29.5652C29.4254 43.3321 29.2912 43.2765 29.1923 43.1776C29.0934 43.0787 29.0379 42.9446 29.0379 42.8047C29.0379 42.6649 29.0934 42.5307 29.1923 42.4318C29.2912 42.3329 29.4254 42.2774 29.5652 42.2774H29.7751ZM51.2971 57.3173V58.4247H62.2878C62.4004 57.7182 62.7334 57.0653 63.2393 56.5594C63.7451 56.0534 64.398 55.7203 65.1045 55.6077V50.2806C64.3283 50.2013 63.6032 49.8568 63.0515 49.305C62.4998 48.7533 62.1552 48.0282 62.0759 47.252H51.2971V48.3587C52.0092 48.1165 52.7688 48.0475 53.5129 48.1575C54.257 48.2675 54.9642 48.5533 55.5757 48.9912C56.1873 49.4292 56.6856 50.0066 57.0294 50.6756C57.3732 51.3446 57.5526 52.086 57.5526 52.8382C57.5526 53.5904 57.3732 54.3317 57.0294 55.0008C56.6856 55.6698 56.1873 56.2472 55.5757 56.6852C54.9642 57.1231 54.257 57.4089 53.5129 57.5189C52.7688 57.6289 52.0092 57.5599 51.2971 57.3177V57.3173ZM51.2971 54.6606V53.556C51.3774 53.5167 51.4663 53.4985 51.5556 53.5032C51.6448 53.5079 51.7314 53.5352 51.8071 53.5827C51.8829 53.6301 51.9453 53.6961 51.9884 53.7744C52.0316 53.8526 52.0541 53.9406 52.0538 54.0299C52.0553 54.1224 52.0773 54.2134 52.1182 54.2963C52.1591 54.3792 52.2178 54.4521 52.2901 54.5097V53.2906C51.8877 53.177 51.5368 52.9279 51.297 52.5853V50.7061C51.5368 50.3635 51.8877 50.1144 52.2901 50.0008V49.8154C52.2901 49.6756 52.3457 49.5414 52.4446 49.4425C52.5435 49.3436 52.6776 49.2881 52.8175 49.2881C52.9573 49.2881 53.0915 49.3436 53.1904 49.4425C53.2893 49.5414 53.3448 49.6756 53.3448 49.8154V50.0008C54.0908 50.2147 54.6357 50.8709 54.6357 51.6457C54.6357 51.7856 54.5801 51.9197 54.4812 52.0186C54.3823 52.1175 54.2482 52.1731 54.1083 52.1731C53.9685 52.1731 53.8343 52.1175 53.7355 52.0186C53.6366 51.9197 53.581 51.7856 53.581 51.6457C53.5797 51.5532 53.5578 51.4622 53.5169 51.3792C53.476 51.2962 53.4172 51.2234 53.3447 51.1659V52.3848C54.0906 52.5992 54.6355 53.2555 54.6355 54.0301C54.6355 54.8047 54.0906 55.4611 53.3447 55.6751V55.8597C53.3447 55.9995 53.2891 56.1336 53.1902 56.2325C53.0913 56.3314 52.9572 56.387 52.8173 56.387C52.6775 56.387 52.5433 56.3314 52.4444 56.2325C52.3455 56.1336 52.29 55.9995 52.29 55.8597V55.6751C51.8875 55.5614 51.5367 55.3122 51.2968 54.9697V54.6607L51.2971 54.6606ZM55.1632 32.6767C55.1619 31.3986 54.6536 30.1731 53.7499 29.2692C52.8461 28.3654 51.6207 27.857 50.3425 27.8556H50.3408C49.063 27.8576 47.8381 28.3662 46.9347 29.27C46.0313 30.1738 45.5232 31.3989 45.5218 32.6767V35.4761H49.76C50.1675 35.4767 50.5582 35.6389 50.8463 35.9271C51.1345 36.2153 51.2966 36.606 51.2971 37.0135V43.356H55.1632V32.6767ZM67.3916 43.356C67.818 43.3565 68.2268 43.5262 68.5283 43.8277C68.8298 44.1292 68.9994 44.538 69 44.9644V60.7112C68.9995 61.1376 68.8298 61.5464 68.5283 61.8479C68.2268 62.1495 67.818 62.3191 67.3916 62.3196H51.2971V68.6622C51.2966 69.0697 51.1344 69.4603 50.8463 69.7485C50.5581 70.0367 50.1675 70.1988 49.76 70.1993H25.5369C25.1295 70.1987 24.7389 70.0366 24.4507 69.7484C24.1626 69.4603 24.0005 69.0696 24 68.6622V37.0135C24.0005 36.606 24.1626 36.2153 24.4508 35.9271C24.7389 35.6389 25.1296 35.4767 25.5371 35.4761H29.7751V31.1973C29.7766 30.0352 30.2376 28.9208 31.0576 28.0973C31.8776 27.2738 32.99 26.808 34.1521 26.8016H50.3424C51.9002 26.8034 53.3936 27.4229 54.4952 28.5244C55.5967 29.6259 56.2163 31.1194 56.2181 32.6772V43.356H67.3916ZM47.3619 48.3455H43.8281C43.7589 48.3455 43.6902 48.3591 43.6262 48.3855C43.5622 48.412 43.5041 48.4509 43.4551 48.4998C43.4061 48.5488 43.3673 48.607 43.3408 48.671C43.3143 48.735 43.3007 48.8036 43.3008 48.8729V52.4073C43.3007 52.4766 43.3143 52.5452 43.3408 52.6092C43.3673 52.6732 43.4061 52.7314 43.4551 52.7804C43.5041 52.8293 43.5622 52.8682 43.6262 52.8947C43.6902 52.9211 43.7589 52.9347 43.8281 52.9347H47.3622C47.5021 52.9347 47.6362 52.8791 47.7351 52.7802C47.834 52.6813 47.8896 52.5472 47.8896 52.4073V48.873C47.8896 48.7331 47.834 48.599 47.7351 48.5001C47.6362 48.4012 47.5021 48.3456 47.3622 48.3456L47.3619 48.3455ZM39.416 48.3455H35.8808C35.7409 48.3455 35.6068 48.4011 35.5079 48.5C35.409 48.5989 35.3534 48.733 35.3534 48.8729V52.4073C35.3534 52.5472 35.409 52.6813 35.5079 52.7802C35.6068 52.8791 35.7409 52.9347 35.8808 52.9347H39.416C39.5559 52.9347 39.69 52.8791 39.7889 52.7802C39.8878 52.6813 39.9434 52.5472 39.9434 52.4073V48.873C39.9434 48.7331 39.8878 48.599 39.7889 48.5001C39.69 48.4012 39.5559 48.3455 39.416 48.3455ZM31.4689 48.3455H27.9349C27.795 48.3455 27.6609 48.4011 27.562 48.5C27.4631 48.5989 27.4075 48.733 27.4075 48.8729V52.4073C27.4075 52.5472 27.4631 52.6813 27.562 52.7802C27.6609 52.8791 27.795 52.9347 27.9349 52.9347H31.4689C31.6088 52.9347 31.7429 52.8791 31.8418 52.7802C31.9407 52.6813 31.9963 52.5472 31.9963 52.4073V48.873C31.9963 48.7331 31.9407 48.599 31.8418 48.5001C31.7429 48.4012 31.6088 48.3456 31.4689 48.3456L31.4689 48.3455ZM47.3619 55.2743H43.8281C43.7589 55.2742 43.6902 55.2878 43.6262 55.3143C43.5622 55.3408 43.5041 55.3796 43.4551 55.4286C43.4061 55.4776 43.3673 55.5357 43.3408 55.5998C43.3143 55.6638 43.3007 55.7324 43.3008 55.8016V59.3362C43.3008 59.476 43.3563 59.6102 43.4552 59.7091C43.5541 59.8079 43.6883 59.8635 43.8281 59.8635H47.3622C47.5021 59.8635 47.6362 59.8079 47.7351 59.7091C47.834 59.6102 47.8896 59.476 47.8896 59.3362V55.8017C47.8896 55.6619 47.834 55.5277 47.7351 55.4288C47.6362 55.3299 47.5021 55.2744 47.3622 55.2744L47.3619 55.2743ZM39.416 55.2743H35.8808C35.7409 55.2743 35.6068 55.3299 35.5079 55.4288C35.409 55.5277 35.3534 55.6618 35.3534 55.8016V59.3362C35.3534 59.476 35.409 59.6102 35.5079 59.7091C35.6068 59.8079 35.7409 59.8635 35.8808 59.8635H39.416C39.5559 59.8635 39.69 59.8079 39.7889 59.7091C39.8878 59.6102 39.9434 59.476 39.9434 59.3362V55.8017C39.9434 55.6619 39.8878 55.5277 39.7889 55.4288C39.69 55.3299 39.5559 55.2744 39.416 55.2744V55.2743ZM31.4689 55.2743H27.9349C27.795 55.2743 27.6609 55.3299 27.562 55.4288C27.4631 55.5277 27.4075 55.6618 27.4075 55.8016V59.3362C27.4075 59.476 27.4631 59.6102 27.562 59.7091C27.6609 59.8079 27.795 59.8635 27.9349 59.8635H31.4689C31.6088 59.8635 31.7429 59.8079 31.8418 59.7091C31.9407 59.6102 31.9963 59.476 31.9963 59.3362V55.8017C31.9963 55.6619 31.9407 55.5277 31.8418 55.4288C31.7429 55.3299 31.6088 55.2744 31.4689 55.2744L31.4689 55.2743ZM47.362 62.2031H43.8281C43.6883 62.2031 43.5541 62.2586 43.4552 62.3575C43.3563 62.4564 43.3008 62.5906 43.3008 62.7304V66.2649C43.3008 66.4048 43.3563 66.5389 43.4552 66.6378C43.5541 66.7367 43.6883 66.7923 43.8281 66.7923H47.3622C47.5021 66.7923 47.6362 66.7367 47.7351 66.6378C47.834 66.5389 47.8896 66.4048 47.8896 66.2649V62.7305C47.8896 62.5906 47.834 62.4565 47.7351 62.3576C47.6362 62.2587 47.5021 62.2032 47.3622 62.2032L47.362 62.2031ZM39.4161 62.2031H35.8808C35.7409 62.2031 35.6068 62.2586 35.5079 62.3575C35.409 62.4564 35.3534 62.5906 35.3534 62.7304V66.2649C35.3534 66.4048 35.409 66.5389 35.5079 66.6378C35.6068 66.7367 35.7409 66.7923 35.8808 66.7923H39.416C39.5559 66.7923 39.69 66.7367 39.7889 66.6378C39.8878 66.5389 39.9434 66.4048 39.9434 66.2649V62.7305C39.9434 62.5906 39.8878 62.4565 39.7889 62.3576C39.69 62.2587 39.5559 62.2032 39.416 62.2032L39.4161 62.2031ZM31.4689 62.2031H27.9349C27.795 62.2031 27.6609 62.2586 27.562 62.3575C27.4631 62.4564 27.4075 62.5906 27.4075 62.7304V66.2649C27.4075 66.4048 27.4631 66.5389 27.562 66.6378C27.6609 66.7367 27.795 66.7923 27.9349 66.7923H31.4689C31.6088 66.7923 31.7429 66.7367 31.8418 66.6378C31.9407 66.5389 31.9963 66.4048 31.9963 66.2649V62.7305C31.9963 62.5906 31.9407 62.4565 31.8418 62.3576C31.7429 62.2587 31.6088 62.2032 31.4689 62.2032V62.2031ZM53.3449 53.5502C53.4184 53.6067 53.478 53.6793 53.519 53.7625C53.5599 53.8457 53.5812 53.9372 53.5812 54.0299C53.5812 54.1226 53.5599 54.2141 53.519 54.2973C53.478 54.3805 53.4184 54.4531 53.3449 54.5097V53.5502ZM52.2902 51.1659V52.1254C52.2167 52.0689 52.1572 51.9963 52.1162 51.9131C52.0752 51.8299 52.0539 51.7384 52.0539 51.6457C52.0539 51.553 52.0752 51.4615 52.1162 51.3783C52.1572 51.2951 52.2167 51.2225 52.2902 51.1659Z" fill="#3C1573"/>
<path fill-rule="evenodd" clip-rule="evenodd" d="M63.1009 53.3652H58.8582C58.7184 53.3652 58.5842 53.3097 58.4853 53.2108C58.3864 53.1119 58.3309 52.9777 58.3309 52.8379C58.3309 52.698 58.3864 52.5639 58.4853 52.465C58.5842 52.3661 58.7184 52.3105 58.8582 52.3105H63.1009C63.2407 52.3105 63.3749 52.3661 63.4738 52.465C63.5727 52.5639 63.6282 52.698 63.6282 52.8379C63.6282 52.9777 63.5727 53.1119 63.4738 53.2108C63.3749 53.3097 63.2407 53.3652 63.1009 53.3652ZM67.9453 60.7111V44.9644C67.9453 44.8917 67.931 44.8197 67.9032 44.7525C67.8753 44.6853 67.8345 44.6243 67.7831 44.5728C67.7317 44.5214 67.6707 44.4806 67.6035 44.4528C67.5363 44.425 67.4643 44.4107 67.3916 44.4107H51.2971V46.1965H62.5928C62.6649 46.1966 62.7362 46.2114 62.8023 46.2401C62.8684 46.2688 62.9279 46.3108 62.9772 46.3634C63.0265 46.416 63.0644 46.4782 63.0888 46.546C63.1131 46.6139 63.1232 46.686 63.1185 46.758C63.115 46.8092 63.1132 46.8605 63.1132 46.9118C63.114 47.5297 63.3599 48.1221 63.797 48.5589C64.234 48.9958 64.8265 49.2415 65.4444 49.2421C65.4941 49.2421 65.5442 49.2404 65.5982 49.2372C65.6702 49.2325 65.7423 49.2427 65.8102 49.267C65.8781 49.2913 65.9403 49.3293 65.9929 49.3786C66.0455 49.4279 66.0874 49.4875 66.1161 49.5537C66.1448 49.6198 66.1596 49.6912 66.1596 49.7633V56.0937C66.1595 56.2335 66.1039 56.3676 66.005 56.4664C65.9062 56.5653 65.7721 56.6209 65.6323 56.621C65.0144 56.6217 64.4221 56.8674 63.9851 57.3042C63.5482 57.7411 63.3024 58.3334 63.3016 58.9513C63.3016 59.0911 63.2461 59.2253 63.1472 59.3242C63.0483 59.4231 62.9141 59.4786 62.7743 59.4786H51.2971V61.2646H67.3916C67.4643 61.2646 67.5363 61.2502 67.6035 61.2224C67.6707 61.1946 67.7317 61.1538 67.7831 61.1024C67.8345 61.051 67.8753 60.9899 67.9032 60.9228C67.931 60.8556 67.9453 60.7838 67.9453 60.7111ZM50.2422 68.6621C50.242 68.7899 50.1912 68.9125 50.1008 69.003C50.0104 69.0935 49.8878 69.1445 49.76 69.1448H25.5369C25.4091 69.1445 25.2865 69.0935 25.1961 69.003C25.1057 68.9125 25.0549 68.7899 25.0547 68.6621V37.0134C25.0547 36.8855 25.1055 36.7628 25.1959 36.6723C25.2864 36.5818 25.409 36.5309 25.5369 36.5308H29.7751V38.8831H27.9349C27.795 38.8831 27.6609 38.9387 27.562 39.0376C27.4631 39.1365 27.4075 39.2706 27.4075 39.4105V45.7393C27.4075 45.8792 27.4631 46.0133 27.562 46.1122C27.6609 46.2111 27.795 46.2667 27.9349 46.2667H47.362C47.5019 46.2667 47.636 46.2111 47.7349 46.1122C47.8338 46.0133 47.8894 45.8792 47.8894 45.7393V39.4106C47.8894 39.2707 47.8338 39.1366 47.7349 39.0377C47.636 38.9388 47.5019 38.8832 47.362 38.8832H45.5218V36.5308H49.76C49.8878 36.5311 50.0104 36.5821 50.1007 36.6725C50.1911 36.763 50.242 36.8856 50.2422 37.0134V68.6621ZM29.7751 42.2773V39.938H28.4623V45.2119H46.835V39.9384H45.5218V42.2773H45.7317C45.8715 42.2773 46.0057 42.3329 46.1045 42.4318C46.2034 42.5306 46.259 42.6648 46.259 42.8046C46.259 42.9445 46.2034 43.0786 46.1045 43.1775C46.0057 43.2764 45.8715 43.332 45.7317 43.332H29.5652C29.4254 43.332 29.2912 43.2764 29.1923 43.1775C29.0934 43.0786 29.0379 42.9445 29.0379 42.8046C29.0379 42.6648 29.0934 42.5306 29.1923 42.4318C29.2912 42.3329 29.4254 42.2773 29.5652 42.2773H29.7751ZM51.2971 57.3172V58.4246H62.2878C62.4004 57.7181 62.7334 57.0652 63.2393 56.5593C63.7451 56.0533 64.398 55.7202 65.1045 55.6076V50.2805C64.3283 50.2012 63.6032 49.8567 63.0515 49.3049C62.4998 48.7532 62.1552 48.0281 62.0759 47.2519H51.2971V48.3586C52.0092 48.1164 52.7688 48.0474 53.5129 48.1574C54.257 48.2674 54.9642 48.5532 55.5757 48.9911C56.1873 49.4291 56.6856 50.0065 57.0294 50.6755C57.3732 51.3445 57.5526 52.0859 57.5526 52.8381C57.5526 53.5903 57.3732 54.3316 57.0294 55.0007C56.6856 55.6697 56.1873 56.2471 55.5757 56.6851C54.9642 57.123 54.257 57.4088 53.5129 57.5188C52.7688 57.6288 52.0092 57.5595 51.2971 57.3172ZM51.2971 54.6605V53.5559C51.3774 53.5166 51.4663 53.4984 51.5556 53.5031C51.6448 53.5078 51.7314 53.5352 51.8071 53.5826C51.8829 53.63 51.9453 53.696 51.9884 53.7743C52.0316 53.8525 52.0541 53.9405 52.0538 54.0299C52.0553 54.1223 52.0773 54.2133 52.1182 54.2962C52.1591 54.3791 52.2178 54.452 52.2901 54.5096V53.2905C51.8877 53.1769 51.5368 52.9278 51.297 52.5852V50.706C51.5368 50.3635 51.8877 50.1143 52.2901 50.0007V49.8153C52.2901 49.6755 52.3457 49.5413 52.4446 49.4424C52.5435 49.3435 52.6776 49.288 52.8175 49.288C52.9573 49.288 53.0915 49.3435 53.1904 49.4424C53.2893 49.5413 53.3448 49.6755 53.3448 49.8153V50.0007C54.0908 50.2146 54.6357 50.8708 54.6357 51.6456C54.6357 51.7855 54.5801 51.9196 54.4812 52.0185C54.3823 52.1174 54.2482 52.173 54.1083 52.173C53.9685 52.173 53.8343 52.1174 53.7355 52.0185C53.6366 51.9196 53.581 51.7855 53.581 51.6456C53.5797 51.5531 53.5578 51.4621 53.5169 51.3791C53.476 51.2961 53.4172 51.2233 53.3447 51.1658V52.3847C54.0906 52.5991 54.6355 53.2554 54.6355 54.03C54.6355 54.8046 54.0906 55.461 53.3447 55.675V55.8596C53.3447 55.9994 53.2891 56.1336 53.1902 56.2324C53.0913 56.3313 52.9572 56.3869 52.8173 56.3869C52.6775 56.3869 52.5433 56.3313 52.4444 56.2324C52.3455 56.1336 52.29 55.9994 52.29 55.8596V55.675C51.8875 55.5613 51.5367 55.3122 51.2968 54.9696L51.2971 54.6605ZM55.1632 32.6767C55.1619 31.3985 54.6536 30.173 53.7499 29.2691C52.8461 28.3653 51.6207 27.8569 50.3425 27.8555H50.3408C49.063 27.8575 47.8381 28.3661 46.9347 29.2699C46.0313 30.1737 45.5232 31.3988 45.5218 32.6767V35.476H49.76C50.1675 35.4766 50.5582 35.6388 50.8463 35.927C51.1345 36.2152 51.2966 36.6059 51.2971 37.0134V43.3559H55.1632V32.6767ZM67.3916 43.3559C67.818 43.3564 68.2268 43.5261 68.5283 43.8276C68.8298 44.1291 68.9994 44.5379 69 44.9643V60.7111C68.9995 61.1375 68.8298 61.5463 68.5283 61.8478C68.2268 62.1494 67.818 62.319 67.3916 62.3195H51.2971V68.6621C51.2966 69.0696 51.1344 69.4602 50.8463 69.7484C50.5581 70.0366 50.1675 70.1987 49.76 70.1992H25.5369C25.1295 70.1986 24.7389 70.0365 24.4507 69.7483C24.1626 69.4602 24.0005 69.0695 24 68.6621V37.0134C24.0005 36.6059 24.1626 36.2152 24.4508 35.927C24.7389 35.6388 25.1296 35.4766 25.5371 35.476H29.7751V31.1972C29.7766 30.0351 30.2376 28.9207 31.0576 28.0972C31.8776 27.2737 32.99 26.8079 34.1521 26.8015H50.3424C51.9002 26.8033 53.3936 27.4228 54.4952 28.5244C55.5967 29.6259 56.2163 31.1193 56.2181 32.6771V43.3559H67.3916ZM47.3619 48.3454H43.8281C43.7589 48.3454 43.6902 48.359 43.6262 48.3854C43.5622 48.4119 43.5041 48.4508 43.4551 48.4997C43.4061 48.5487 43.3673 48.6069 43.3408 48.6709C43.3143 48.7349 43.3007 48.8035 43.3008 48.8728V52.4072C43.3007 52.4765 43.3143 52.5451 43.3408 52.6091C43.3673 52.6731 43.4061 52.7313 43.4551 52.7803C43.5041 52.8292 43.5622 52.8681 43.6262 52.8946C43.6902 52.921 43.7589 52.9346 43.8281 52.9346H47.3622C47.5021 52.9346 47.6362 52.879 47.7351 52.7801C47.834 52.6812 47.8895 52.5471 47.8895 52.4072V48.8729C47.8895 48.733 47.834 48.5989 47.7351 48.5C47.6362 48.4011 47.5018 48.3454 47.3619 48.3454ZM39.416 48.3454H35.8808C35.7409 48.3454 35.6068 48.401 35.5079 48.4999C35.409 48.5988 35.3534 48.7329 35.3534 48.8728V52.4072C35.3534 52.5471 35.409 52.6812 35.5079 52.7801C35.6068 52.879 35.7409 52.9346 35.8808 52.9346H39.416C39.5559 52.9346 39.69 52.879 39.7889 52.7801C39.8878 52.6812 39.9434 52.5471 39.9434 52.4072V48.8729C39.9434 48.733 39.8878 48.5989 39.7889 48.5C39.69 48.4011 39.5559 48.3454 39.416 48.3454ZM31.4689 48.3454H27.9349C27.795 48.3454 27.6609 48.401 27.562 48.4999C27.4631 48.5988 27.4075 48.7329 27.4075 48.8728V52.4072C27.4075 52.5471 27.4631 52.6812 27.562 52.7801C27.6609 52.879 27.795 52.9346 27.9349 52.9346H31.4689C31.6088 52.9346 31.7429 52.879 31.8418 52.7801C31.9407 52.6812 31.9963 52.5471 31.9963 52.4072V48.8729C31.9963 48.733 31.9407 48.5989 31.8418 48.5C31.7429 48.4011 31.6087 48.3454 31.4689 48.3454ZM47.3619 55.2742H43.8281C43.7589 55.2741 43.6902 55.2877 43.6262 55.3142C43.5622 55.3407 43.5041 55.3795 43.4551 55.4285C43.4061 55.4775 43.3673 55.5357 43.3408 55.5997C43.3143 55.6637 43.3007 55.7323 43.3008 55.8015V59.3361C43.3008 59.4759 43.3563 59.6101 43.4552 59.709C43.5541 59.8079 43.6883 59.8634 43.8281 59.8634H47.3622C47.5021 59.8634 47.6362 59.8079 47.7351 59.709C47.834 59.6101 47.8895 59.4759 47.8895 59.3361V55.8016C47.8895 55.6618 47.834 55.5276 47.7351 55.4288C47.6362 55.3299 47.5018 55.2742 47.3619 55.2742ZM39.416 55.2742H35.8808C35.7409 55.2742 35.6068 55.3298 35.5079 55.4287C35.409 55.5276 35.3534 55.6617 35.3534 55.8015V59.3361C35.3534 59.4759 35.409 59.6101 35.5079 59.709C35.6068 59.8079 35.7409 59.8634 35.8808 59.8634H39.416C39.5559 59.8634 39.69 59.8079 39.7889 59.709C39.8878 59.6101 39.9434 59.4759 39.9434 59.3361V55.8016C39.9434 55.6618 39.8878 55.5276 39.7889 55.4288C39.69 55.3299 39.5559 55.2742 39.416 55.2742ZM31.4689 55.2742H27.9349C27.795 55.2742 27.6609 55.3298 27.562 55.4287C27.4631 55.5276 27.4075 55.6617 27.4075 55.8015V59.3361C27.4075 59.4759 27.4631 59.6101 27.562 59.709C27.6609 59.8079 27.795 59.8634 27.9349 59.8634H31.4689C31.6088 59.8634 31.7429 59.8079 31.8418 59.709C31.9407 59.6101 31.9963 59.4759 31.9963 59.3361V55.8016C31.9963 55.6618 31.9407 55.5276 31.8418 55.4288C31.7429 55.3299 31.6087 55.2742 31.4689 55.2742ZM47.362 62.203H43.8281C43.6883 62.203 43.5541 62.2585 43.4552 62.3574C43.3563 62.4563 43.3008 62.5905 43.3008 62.7303V66.2648C43.3008 66.4047 43.3563 66.5388 43.4552 66.6377C43.5541 66.7366 43.6883 66.7922 43.8281 66.7922H47.3622C47.5021 66.7922 47.6362 66.7366 47.7351 66.6377C47.834 66.5388 47.8895 66.4047 47.8895 66.2648V62.7304C47.8895 62.5905 47.834 62.4564 47.7351 62.3575C47.6362 62.2586 47.5019 62.203 47.362 62.203ZM39.4161 62.203H35.8808C35.7409 62.203 35.6068 62.2585 35.5079 62.3574C35.409 62.4563 35.3534 62.5905 35.3534 62.7303V66.2648C35.3534 66.4047 35.409 66.5388 35.5079 66.6377C35.6068 66.7366 35.7409 66.7922 35.8808 66.7922H39.416C39.5559 66.7922 39.69 66.7366 39.7889 66.6377C39.8878 66.5388 39.9434 66.4047 39.9434 66.2648V62.7304C39.9434 62.5905 39.8878 62.4564 39.7889 62.3575C39.69 62.2586 39.556 62.203 39.4161 62.203ZM31.4689 62.203H27.9349C27.795 62.203 27.6609 62.2585 27.562 62.3574C27.4631 62.4563 27.4075 62.5905 27.4075 62.7303V66.2648C27.4075 66.4047 27.4631 66.5388 27.562 66.6377C27.6609 66.7366 27.795 66.7922 27.9349 66.7922H31.4689C31.6088 66.7922 31.7429 66.7366 31.8418 66.6377C31.9407 66.5388 31.9963 66.4047 31.9963 66.2648V62.7304C31.9963 62.5905 31.9407 62.4564 31.8418 62.3575C31.7429 62.2586 31.6088 62.203 31.4689 62.203ZM53.3449 53.5501C53.4184 53.6066 53.478 53.6792 53.519 53.7624C53.5599 53.8456 53.5812 53.9371 53.5812 54.0298C53.5812 54.1225 53.5599 54.214 53.519 54.2972C53.478 54.3804 53.4184 54.453 53.3449 54.5096V53.5501ZM52.2902 51.1658V52.1253C52.2167 52.0688 52.1572 51.9962 52.1162 51.913C52.0752 51.8298 52.0539 51.7383 52.0539 51.6456C52.0539 51.5529 52.0752 51.4614 52.1162 51.3782C52.1572 51.295 52.2167 51.2224 52.2902 51.1658Z" fill="#784CB5"/>
</g>
<defs>
<clipPath id="clip0_373_99">
<rect width="45" height="45" fill="white" transform="translate(24 26)"/>
</clipPath>
</defs>
</svg>
