<svg width="94" height="94" viewBox="0 0 94 94" fill="none" xmlns="http://www.w3.org/2000/svg">
<rect x="1" y="1" width="92" height="92" rx="46" fill="white"/>
<rect x="1" y="1" width="92" height="92" rx="46" stroke="#0E78AE" stroke-width="2"/>
<g clip-path="url(#clip0_373_85)">
<path d="M25.8602 65.4989L35.5562 55.8029C36.5629 57.2615 37.8264 58.5251 39.285 59.5318L29.589 69.2277C28.5593 70.2574 26.8898 70.2574 25.8602 69.2277C24.8305 68.198 24.8305 66.5286 25.8602 65.4989ZM28.0762 29.3945C28.0762 26.9714 30.0476 25 32.4707 25C34.8938 25 36.8652 26.9714 36.8652 29.3945C36.8652 31.8177 34.8938 33.7891 32.4707 33.7891C30.0476 33.7891 28.0762 31.8177 28.0762 29.3945ZM58.1348 29.3945C58.1348 26.9714 60.1062 25 62.5293 25C64.9524 25 66.9238 26.9714 66.9238 29.3945C66.9238 31.8177 64.9524 33.7891 62.5293 33.7891C60.1062 33.7891 58.1348 31.8177 58.1348 29.3945ZM42.666 56.377C42.666 53.7115 44.8345 51.543 47.5 51.543C50.1655 51.543 52.334 53.7115 52.334 56.377V58.4229C50.8567 59.0845 49.2206 59.4531 47.5 59.4531C45.7794 59.4531 44.1433 59.0845 42.666 58.4229V56.377Z" fill="#0E78AE"/>
<path d="M47.5 48.9062C48.9562 48.9062 50.1367 47.7258 50.1367 46.2695C50.1367 44.8133 48.9562 43.6328 47.5 43.6328C46.0438 43.6328 44.8633 44.8133 44.8633 46.2695C44.8633 47.7258 46.0438 48.9062 47.5 48.9062Z" fill="#0E78AE"/>
<path d="M57.8097 62.0168C59.0667 63.1572 60.7297 63.8476 62.5293 63.8476C64.346 63.8476 66.004 63.1551 67.2532 62.0201C68.9285 63.3912 70 65.474 70 67.8027V68.6816C70 69.4097 69.4097 70 68.6816 70H56.377C55.6489 70 55.0586 69.4097 55.0586 68.6816V67.8027C55.0586 65.472 56.1319 63.3879 57.8097 62.0168ZM62.5293 52.4219C64.9524 52.4219 66.9238 54.3933 66.9238 56.8164C66.9238 59.2395 64.9524 61.2109 62.5293 61.2109C60.3029 61.2109 58.4593 59.5464 58.1742 57.3967C59.4508 56.0115 60.4353 54.4058 61.0859 52.6666C61.5499 52.5045 62.0378 52.4218 62.5293 52.4219ZM27.7468 34.5982C28.996 35.7332 30.654 36.4258 32.4707 36.4258C34.2874 36.4258 35.9454 35.7332 37.1946 34.5982C37.7368 35.0422 38.2144 35.5597 38.6137 36.1356C36.4913 37.7862 34.8379 40.0124 33.8904 42.5781H26.3184C25.5903 42.5781 25 41.9878 25 41.2598V40.3809C25 38.0521 26.0715 35.9693 27.7468 34.5982ZM56.3863 36.1356C56.7855 35.5596 57.2632 35.0422 57.8054 34.5982C59.0546 35.7332 60.7126 36.4258 62.5293 36.4258C64.346 36.4258 66.004 35.7332 67.2532 34.5982C68.9285 35.9694 70 38.0521 70 40.3809V41.2598C70 41.9878 69.4097 42.5781 68.6816 42.5781H61.1096C60.1622 40.0124 58.5087 37.7862 56.3863 36.1356ZM47.5 35.7226C54.0425 35.7226 59.3652 41.0454 59.3652 47.5879C59.3652 51.3013 57.65 54.6213 54.9707 56.7986V56.3769C54.9707 53.6373 53.4874 51.2389 51.2826 49.9385C52.2043 48.9885 52.7734 47.6946 52.7734 46.2695C52.7734 43.3617 50.4078 40.9961 47.5 40.9961C44.5922 40.9961 42.2266 43.3617 42.2266 46.2695C42.2266 47.6946 42.7957 48.9885 43.7174 49.9385C41.5126 51.2388 40.0293 53.6373 40.0293 56.3769V56.7986C37.35 54.6212 35.6348 51.3013 35.6348 47.5879C35.6348 41.0454 40.9575 35.7226 47.5 35.7226Z" fill="#0E78AE"/>
</g>
<defs>
<clipPath id="clip0_373_85">
<rect width="45" height="45" fill="white" transform="translate(25 25)"/>
</clipPath>
</defs>
</svg>
