<svg width="94" height="94" viewBox="0 0 94 94" fill="none" xmlns="http://www.w3.org/2000/svg">
<rect x="1" y="1" width="92" height="92" rx="46" fill="white"/>
<rect x="1" y="1" width="92" height="92" rx="46" stroke="#172BA9" stroke-width="2"/>
<path d="M46.4998 53.8334C49.7215 53.8334 52.3332 51.2217 52.3332 48.0001C52.3332 44.7784 49.7215 42.1667 46.4998 42.1667C43.2782 42.1667 40.6665 44.7784 40.6665 48.0001C40.6665 51.2217 43.2782 53.8334 46.4998 53.8334Z" fill="#172BA9"/>
<path fill-rule="evenodd" clip-rule="evenodd" d="M57 59.6667V71.3334C57.0005 71.4868 56.9706 71.6387 56.9121 71.7804C56.8537 71.9222 56.7677 72.051 56.6593 72.1594C56.5509 72.2678 56.4221 72.3537 56.2803 72.4122C56.1386 72.4707 55.9867 72.5005 55.8333 72.5001H37.1667C37.0133 72.5005 36.8614 72.4707 36.7197 72.4122C36.5779 72.3537 36.4491 72.2678 36.3407 72.1594C36.2322 72.051 36.1463 71.9222 36.0879 71.7804C36.0294 71.6387 35.9995 71.4868 36 71.3334V59.6667C36 58.7381 36.3687 57.8479 37.0255 57.1922C37.3503 56.867 37.736 56.609 38.1606 56.4331C38.5852 56.2571 39.0404 56.1666 39.5 56.1667H53.5C54.4287 56.1667 55.3188 56.5354 55.9745 57.1922C56.6313 57.8479 57 58.7381 57 59.6667ZM33.6667 65.5001V71.3334C33.6667 71.6428 33.5438 71.9396 33.325 72.1584C33.1062 72.3772 32.8094 72.5001 32.5 72.5001H23.1667C22.8572 72.5001 22.5605 72.3772 22.3417 72.1584C22.1229 71.9396 22 71.6428 22 71.3334V65.5001C22 64.5714 22.3687 63.6812 23.0255 63.0256C23.3503 62.7003 23.736 62.4424 24.1606 62.2664C24.5852 62.0904 25.0404 61.9999 25.5 62.0001H30.1667C31.0953 62.0001 31.9855 62.3687 32.6412 63.0256C33.298 63.6812 33.6667 64.5714 33.6667 65.5001ZM59.3333 71.3334V65.5001C59.3333 64.5714 59.702 63.6812 60.3588 63.0256C60.6836 62.7003 61.0693 62.4424 61.4939 62.2664C61.9186 62.0904 62.3737 61.9999 62.8333 62.0001H67.5C68.4287 62.0001 69.3188 62.3687 69.9745 63.0256C70.6313 63.6812 71 64.5714 71 65.5001V71.3334C71 71.6428 70.8771 71.9396 70.6583 72.1584C70.4395 72.3772 70.1427 72.5001 69.8333 72.5001H60.5C60.1906 72.5001 59.8938 72.3772 59.675 72.1584C59.4562 71.9396 59.3333 71.6428 59.3333 71.3334Z" fill="#172BA9"/>
<path d="M27.8332 59.6667C30.4105 59.6667 32.4998 57.5774 32.4998 55C32.4998 52.4227 30.4105 50.3334 27.8332 50.3334C25.2558 50.3334 23.1665 52.4227 23.1665 55C23.1665 57.5774 25.2558 59.6667 27.8332 59.6667Z" fill="#172BA9"/>
<path d="M65.1667 59.6667C67.744 59.6667 69.8333 57.5774 69.8333 55C69.8333 52.4227 67.744 50.3334 65.1667 50.3334C62.5893 50.3334 60.5 52.4227 60.5 55C60.5 57.5774 62.5893 59.6667 65.1667 59.6667Z" fill="#172BA9"/>
<path fill-rule="evenodd" clip-rule="evenodd" d="M26.585 48.1109C26.5826 47.6722 26.5966 47.2312 26.6258 46.7914C26.6711 46.1184 26.5211 45.4467 26.1936 44.857C25.8662 44.2673 25.3753 43.7848 24.7801 43.4676C24.366 43.2471 23.9063 43.0021 23.4816 42.7699L23.4711 42.7629C23.2389 42.6393 23.0555 42.4406 22.951 42.1991C22.8465 41.9577 22.8271 41.6879 22.896 41.434C23.0838 40.7586 23.3008 40.0912 23.54 39.4321C23.6345 39.1859 23.8095 38.979 24.0366 38.8452C24.2638 38.7113 24.5295 38.6582 24.7906 38.6947H24.7918C25.2783 38.7624 25.8021 38.8359 26.2758 38.8954C26.941 38.9861 27.6182 38.8833 28.2265 38.5992C28.8348 38.3151 29.3484 37.8618 29.7058 37.2936C30.1375 36.6169 30.6135 35.9612 31.1315 35.3406H31.1326C31.5647 34.8226 31.8379 34.1909 31.9194 33.5213C32.001 32.8518 31.8874 32.1729 31.5923 31.5664C31.387 31.1441 31.1595 30.6762 30.953 30.2387C30.8342 30.0016 30.8002 29.7309 30.8566 29.4717C30.9131 29.2125 31.0566 28.9805 31.2633 28.8142C31.8128 28.3779 32.3798 27.9661 32.9608 27.5729C33.4158 27.2777 34.0155 27.3349 34.4063 27.7117C34.7598 28.0536 35.1413 28.4199 35.489 28.7465C35.9738 29.2111 36.5822 29.5261 37.2414 29.6539C37.9006 29.7818 38.5826 29.7171 39.206 29.4676C39.9526 29.1736 40.7226 28.9227 41.5078 28.7256C42.1619 28.5608 42.7545 28.2105 43.2142 27.7168C43.6739 27.2232 43.9811 26.6072 44.099 25.943C44.1806 25.4799 44.2717 24.9677 44.3615 24.4929L44.3638 24.4801C44.4098 24.2208 44.5423 23.9849 44.7399 23.8109C44.9374 23.6369 45.1882 23.5351 45.4511 23.5222C46.1516 23.494 46.8529 23.4921 47.5535 23.5164C47.8171 23.5299 48.0683 23.6324 48.2661 23.8073C48.4638 23.9821 48.5963 24.2189 48.642 24.4789C48.7271 24.9631 48.8193 25.4834 48.9091 25.9524C49.0283 26.6133 49.3354 27.2258 49.7937 27.7166C50.2521 28.2074 50.8421 28.5557 51.4933 28.7197C52.2745 28.9207 53.0418 29.172 53.7905 29.4722H53.7916C54.4176 29.7232 55.1027 29.788 55.7646 29.6589C56.4265 29.5297 57.037 29.2121 57.5226 28.7442C57.861 28.4187 58.2355 28.0571 58.5878 27.7246L58.5971 27.7164C58.7865 27.5335 59.0324 27.4205 59.2944 27.3959C59.5565 27.3713 59.8191 27.4366 60.0391 27.5811C60.6225 27.9684 61.1906 28.3802 61.7436 28.8119C61.9488 28.9777 62.0916 29.2081 62.1489 29.4656C62.2061 29.7231 62.1743 29.9923 62.0586 30.2294C61.844 30.6716 61.6118 31.1476 61.4076 31.5792C61.1159 32.184 61.0046 32.86 61.0869 33.5265C61.1692 34.1929 61.4418 34.8215 61.872 35.3371C62.3818 35.9554 62.859 36.6111 63.2883 37.2959H63.2895C63.6482 37.867 64.1644 38.3222 64.7758 38.6068C65.3872 38.8914 66.0679 38.9933 66.7358 38.9001C67.2013 38.8359 67.7158 38.7636 68.1965 38.7017L68.2093 38.7006C68.4698 38.6641 68.735 38.7172 68.9613 38.8512C69.1877 38.9851 69.3619 39.192 69.4553 39.4379C69.7003 40.0947 69.9173 40.762 70.111 41.4364C70.1795 41.691 70.1596 41.9614 70.0545 42.2032C69.9493 42.445 69.7652 42.644 69.5323 42.7676V42.7687C69.0909 43.0022 68.651 43.2387 68.2128 43.478C67.6214 43.7957 67.134 44.2771 66.809 44.8644C66.484 45.4518 66.335 46.1204 66.38 46.7902C66.4068 47.2289 66.4185 47.6699 66.415 48.1109C66.003 48.0372 65.5852 48.0001 65.1666 48.0001C63.3116 48.0001 61.6246 48.7234 60.3716 49.9017C60.4568 49.2799 60.5 48.6452 60.5 48.0001C60.5 40.2732 54.2268 34.0001 46.5 34.0001C38.7731 34.0001 32.5 40.2732 32.5 48.0001C32.5 48.6452 32.5431 49.2799 32.6283 49.9017C31.3315 48.6786 29.6159 47.9982 27.8333 48.0001C27.4075 48.0001 26.9898 48.0386 26.585 48.1109Z" fill="#172BA9"/>
<path fill-rule="evenodd" clip-rule="evenodd" d="M38.1375 52.1475C37.433 50.7243 37.103 49.1449 37.1789 47.5587C37.2547 45.9724 37.7339 44.4317 38.571 43.0822C39.4082 41.7327 40.5756 40.619 41.9631 39.8464C43.3505 39.0737 44.9121 38.6677 46.5002 38.6667C48.0882 38.6677 49.6498 39.0737 51.0373 39.8464C52.4247 40.619 53.5922 41.7327 54.4293 43.0822C55.2665 44.4317 55.7456 45.9724 55.8215 47.5587C55.8973 49.1449 55.5674 50.7243 54.8628 52.1475C54.7363 52.4231 54.722 52.737 54.8229 53.0229C54.9239 53.3088 55.1321 53.5442 55.4036 53.6792C55.6751 53.8142 55.9885 53.8382 56.2773 53.7461C56.5662 53.654 56.8079 53.4531 56.9512 53.1859C57.7533 51.575 58.1695 49.7996 58.1668 48C58.1668 41.5612 52.939 36.3334 46.5002 36.3334C40.0613 36.3334 34.8335 41.5612 34.8335 48C34.8309 49.7996 35.2471 51.575 36.0492 53.1859C36.1174 53.323 36.2119 53.4454 36.3273 53.5459C36.4428 53.6465 36.5769 53.7234 36.7221 53.7722C36.8673 53.8209 37.0206 53.8406 37.1734 53.8301C37.3262 53.8195 37.4754 53.7791 37.6125 53.7109C37.7496 53.6427 37.872 53.5482 37.9726 53.4327C38.0732 53.3173 38.15 53.1831 38.1988 53.0379C38.2475 52.8928 38.2672 52.7394 38.2567 52.5867C38.2462 52.4339 38.2057 52.2847 38.1375 52.1475Z" fill="#172BA9"/>
</svg>
