<svg width="60" height="60" viewBox="0 0 60 60" fill="none" xmlns="http://www.w3.org/2000/svg">
<path d="M47.5 37.5C47.5 36.1667 47.1042 34.8334 46.3125 33.5C45.5208 32.1667 44.375 31.2084 42.875 30.625L23.375 22.875L22.5 22.625C22.2083 22.5417 21.875 22.5 21.5 22.5H17.5V18.8125C17.5 17.9792 17.6875 17.2084 18.0625 16.5C18.4375 15.7917 18.9583 15.2084 19.625 14.75L32.125 5.81253C32.5833 5.47919 33.0525 5.23919 33.5325 5.09253C34.0125 4.94586 34.5017 4.87336 35 4.87503C35.4983 4.87669 35.9983 4.95003 36.5 5.09503C37.0017 5.24003 37.46 5.47919 37.875 5.81253L50.375 14.75C51.0417 15.2084 51.5625 15.7917 51.9375 16.5C52.3125 17.2084 52.5 17.9792 52.5 18.8125V37.5H47.5ZM37.5 20C37.8333 20 38.125 19.875 38.375 19.625C38.625 19.375 38.75 19.0834 38.75 18.75C38.75 18.4167 38.625 18.125 38.375 17.875C38.125 17.625 37.8333 17.5 37.5 17.5C37.1667 17.5 36.875 17.625 36.625 17.875C36.375 18.125 36.25 18.4167 36.25 18.75C36.25 19.0834 36.375 19.375 36.625 19.625C36.875 19.875 37.1667 20 37.5 20ZM32.5 20C32.8333 20 33.125 19.875 33.375 19.625C33.625 19.375 33.75 19.0834 33.75 18.75C33.75 18.4167 33.625 18.125 33.375 17.875C33.125 17.625 32.8333 17.5 32.5 17.5C32.1667 17.5 31.875 17.625 31.625 17.875C31.375 18.125 31.25 18.4167 31.25 18.75C31.25 19.0834 31.375 19.375 31.625 19.625C31.875 19.875 32.1667 20 32.5 20ZM37.5 25C37.8333 25 38.125 24.875 38.375 24.625C38.625 24.375 38.75 24.0834 38.75 23.75C38.75 23.4167 38.625 23.125 38.375 22.875C38.125 22.625 37.8333 22.5 37.5 22.5C37.1667 22.5 36.875 22.625 36.625 22.875C36.375 23.125 36.25 23.4167 36.25 23.75C36.25 24.0834 36.375 24.375 36.625 24.625C36.875 24.875 37.1667 25 37.5 25ZM32.5 25C32.8333 25 33.125 24.875 33.375 24.625C33.625 24.375 33.75 24.0834 33.75 23.75C33.75 23.4167 33.625 23.125 33.375 22.875C33.125 22.625 32.8333 22.5 32.5 22.5C32.1667 22.5 31.875 22.625 31.625 22.875C31.375 23.125 31.25 23.4167 31.25 23.75C31.25 24.0834 31.375 24.375 31.625 24.625C31.875 24.875 32.1667 25 32.5 25ZM33.4375 54.5625C33.8958 54.6875 34.4275 54.74 35.0325 54.72C35.6375 54.7 36.1475 54.6059 36.5625 54.4375L55 47.5C55 46.0834 54.5 44.8959 53.5 43.9375C52.5 42.9792 51.3333 42.5 50 42.5H32.875C32.75 42.5 32.6042 42.49 32.4375 42.47C32.2708 42.45 32.1458 42.4184 32.0625 42.375L28.375 41.0625C28.0417 40.9375 27.8125 40.7292 27.6875 40.4375C27.5625 40.1459 27.5417 39.8334 27.625 39.5C27.7083 39.2084 27.9167 38.9792 28.25 38.8125C28.5833 38.6459 28.9167 38.625 29.25 38.75L32.0625 39.8125C32.2292 39.8959 32.365 39.9484 32.47 39.97C32.575 39.9917 32.7308 40.0017 32.9375 40H39.5C40.2917 40 40.9892 39.7292 41.5925 39.1875C42.1958 38.6459 42.4983 37.9375 42.5 37.0625C42.5 36.4792 42.3225 35.9167 41.9675 35.375C41.6125 34.8334 41.1442 34.4584 40.5625 34.25L23.25 27.8125C22.9583 27.7292 22.6667 27.6559 22.375 27.5925C22.0833 27.5292 21.7917 27.4984 21.5 27.5H17.5V50.0625L33.4375 54.5625ZM2.5 50C2.5 51.375 2.99 52.5525 3.97 53.5325C4.95 54.5125 6.12667 55.0017 7.5 55C8.87333 54.9984 10.0508 54.5092 11.0325 53.5325C12.0142 52.5559 12.5033 51.3784 12.5 50V32.5C12.5 31.125 12.0108 29.9484 11.0325 28.97C10.0542 27.9917 8.87667 27.5017 7.5 27.5C6.12333 27.4984 4.94667 27.9884 3.97 28.97C2.99333 29.9517 2.50333 31.1284 2.5 32.5V50Z" fill="#FC721C"/>
</svg>
