<svg width="60" height="60" viewBox="0 0 60 60" fill="none" xmlns="http://www.w3.org/2000/svg">
<path d="M13.6875 52.4998C12.6458 52.4998 11.7608 52.1356 11.0325 51.4073C10.3042 50.6789 9.93917 49.7931 9.9375 48.7498C9.93583 47.7064 10.3008 46.8214 11.0325 46.0948C11.7642 45.3681 12.6492 45.0031 13.6875 44.9998H17.6875L11.3125 24.1248C10.1875 23.4998 9.26083 22.5831 8.5325 21.3748C7.80417 20.1664 7.43917 18.8748 7.4375 17.4998C7.4375 15.4164 8.16667 13.6456 9.625 12.1873C11.0833 10.7289 12.8542 9.99977 14.9375 9.99977C16.5625 9.99977 18.0108 10.4689 19.2825 11.4073C20.5542 12.3456 21.4392 13.5431 21.9375 14.9998H29.9375V12.4998C29.9375 11.7914 30.1775 11.1981 30.6575 10.7198C31.1375 10.2414 31.7308 10.0014 32.4375 9.99977C32.8125 9.99977 33.1775 10.0831 33.5325 10.2498C33.8875 10.4164 34.1892 10.6664 34.4375 10.9998L38.6875 6.99977C39.0625 6.62476 39.5108 6.38477 40.0325 6.27977C40.5542 6.17477 41.0642 6.2481 41.5625 6.49976L51.3125 10.9998C51.8125 11.2498 52.1567 11.6148 52.345 12.0948C52.5333 12.5748 52.5225 13.0431 52.3125 13.4998C52.0625 13.9998 51.6983 14.3231 51.22 14.4698C50.7417 14.6164 50.2725 14.5848 49.8125 14.3748L40.8125 10.2498L34.9375 15.7498V19.2498L40.8125 24.6248L49.8125 20.4998C50.2708 20.2914 50.75 20.2706 51.25 20.4373C51.75 20.6039 52.1042 20.9164 52.3125 21.3748C52.5625 21.8748 52.5833 22.3539 52.375 22.8123C52.1667 23.2706 51.8125 23.6248 51.3125 23.8748L41.5625 28.4998C41.0625 28.7498 40.5525 28.8223 40.0325 28.7173C39.5125 28.6123 39.0642 28.3731 38.6875 27.9998L34.4375 23.9998C34.1875 24.2498 33.8858 24.4789 33.5325 24.6873C33.1792 24.8956 32.8142 24.9998 32.4375 24.9998C31.7292 24.9998 31.1358 24.7606 30.6575 24.2823C30.1792 23.8039 29.9392 23.2098 29.9375 22.4998V19.9998H21.9375C21.8125 20.3331 21.6775 20.6456 21.5325 20.9373C21.3875 21.2289 21.1892 21.5414 20.9375 21.8748L33.4375 44.9998H38.6875C39.7292 44.9998 40.615 45.3648 41.345 46.0948C42.075 46.8248 42.4392 47.7098 42.4375 48.7498C42.4358 49.7898 42.0717 50.6756 41.345 51.4073C40.6183 52.1389 39.7325 52.5031 38.6875 52.4998H13.6875ZM14.9375 19.9998C15.6458 19.9998 16.24 19.7598 16.72 19.2798C17.2 18.7998 17.4392 18.2064 17.4375 17.4998C17.4358 16.7931 17.1967 16.1998 16.72 15.7198C16.2433 15.2398 15.6492 14.9998 14.9375 14.9998C14.2258 14.9998 13.6325 15.2398 13.1575 15.7198C12.6825 16.1998 12.4425 16.7931 12.4375 17.4998C12.4325 18.2064 12.6725 18.8006 13.1575 19.2823C13.6425 19.7639 14.2358 20.0031 14.9375 19.9998Z" fill="#9AB800"/>
</svg>
