<?xml version="1.0" ?>
<!-- Uploaded to: SVG Repo, www.svgrepo.com, Generator: SVG Repo Mixer Tools -->
<svg fill="#000000" width="800px" height="800px" viewBox="0 0 64 64" xmlns="http://www.w3.org/2000/svg">
<title/>
<g data-name="Layer 42" id="Layer_42">
<path d="M48,33H16C8.83,33,3,38.45,3,45.14V61H61V45.14C61,38.45,55.17,33,48,33ZM35.91,35l-.54,6H28.63l-.54-6ZM36,51.44l-4,3.27-4-3.27L28.64,43h6.72ZM5,59V45.14C5,39.55,9.93,35,16,35H26.09l.62,7L26,52.33l6,5,6-5L37.29,42l.62-7H48c6.07,0,11,4.55,11,10.14V59Z"/>
<path d="M32,31A14,14,0,1,0,18,17,14,14,0,0,0,32,31Zm-7.31-4.5a11.94,11.94,0,0,1,14.62,0,11.94,11.94,0,0,1-14.62,0ZM32,5a12,12,0,0,1,8.8,20.13,13.94,13.94,0,0,0-17.6,0A12,12,0,0,1,32,5Z"/>
</g>
</svg>