<svg width="60" height="60" viewBox="0 0 60 60" fill="none" xmlns="http://www.w3.org/2000/svg">
<path d="M29.9662 1.87109C29.8302 1.87805 29.6972 1.91431 29.5765 1.97739C29.5765 1.97739 18.4432 7.52986 4.56021 9.38305C4.3351 9.41392 4.12882 9.52536 3.97961 9.69672C3.8304 9.86809 3.74839 10.0877 3.74878 10.315V29.9949C3.74878 42.053 10.3501 49.2035 16.8593 53.1827C23.3685 57.1584 29.8635 58.1151 29.8635 58.1151C29.9551 58.1291 30.0482 58.1291 30.1398 58.1151C30.1398 58.1151 36.6349 57.1584 43.144 53.1827C49.6497 49.2035 56.251 42.053 56.251 29.9949V10.315C56.2524 10.0877 56.1712 9.86758 56.0227 9.69556C55.8741 9.52353 55.6682 9.41124 55.4431 9.37951C41.5566 7.52986 30.4233 1.97385 30.4233 1.97385C30.2814 1.89971 30.1228 1.86312 29.9627 1.86755L29.9662 1.87109ZM30.0017 13.1249C39.3101 13.1249 46.8717 20.6864 46.8717 29.9949C46.8717 39.3033 39.3101 46.8755 30.0017 46.8755C20.6932 46.8755 13.1281 39.3033 13.1281 29.9949C13.1281 20.6864 20.6932 13.1249 30.0017 13.1249ZM26.2457 21.5581V26.2566H21.5684C21.4451 26.2561 21.3229 26.28 21.2088 26.3267C21.0947 26.3735 20.9909 26.4423 20.9034 26.5291C20.8159 26.616 20.7463 26.7192 20.6987 26.833C20.6511 26.9467 20.6263 27.0687 20.6259 27.1921V32.8119C20.6259 33.3292 21.0511 33.7473 21.5684 33.7438H26.2528V38.4387C26.2528 38.9561 26.678 39.3742 27.1953 39.3706H32.8116C33.06 39.3716 33.2987 39.274 33.4753 39.0994C33.652 38.9247 33.7522 38.6872 33.7541 38.4387V33.7473H38.4384C38.6869 33.7483 38.9255 33.6507 39.1022 33.476C39.2789 33.3014 39.3791 33.0638 39.381 32.8154V27.1885C39.3805 27.0652 39.3558 26.9432 39.3081 26.8294C39.2605 26.7157 39.191 26.6124 39.1034 26.5256C39.0159 26.4387 38.9122 26.3699 38.798 26.3232C38.6839 26.2764 38.5617 26.2526 38.4384 26.2531H33.7505V21.5616C33.7501 21.4383 33.7253 21.3163 33.6777 21.2026C33.6301 21.0888 33.5605 20.9856 33.473 20.8987C33.3855 20.8118 33.2817 20.7431 33.1676 20.6963C33.0535 20.6495 32.9313 20.6257 32.808 20.6262H27.1422C26.9021 20.6388 26.6759 20.7427 26.51 20.9166C26.344 21.0905 26.2507 21.3212 26.2492 21.5616L26.2457 21.5581Z" fill="#A00E0E"/>
</svg>
