<svg width="60" height="60" viewBox="0 0 60 60" fill="none" xmlns="http://www.w3.org/2000/svg">
<path d="M29.057 4.59022C29.3309 4.39253 29.66 4.28613 29.9978 4.28613C30.3355 4.28613 30.6646 4.39253 30.9385 4.59022C32.3163 5.5845 35.4128 7.40164 39.2892 8.96379C43.1677 10.5281 47.6935 11.7859 51.9599 11.7859C52.3861 11.7859 52.7949 11.9553 53.0963 12.2567C53.3977 12.558 53.567 12.9668 53.567 13.3931V30.0045C53.567 36.4909 49.9178 42.5209 45.3428 47.0402C40.772 51.5552 34.9992 54.8402 30.272 55.6631L29.9978 55.7102L29.7213 55.6631C24.9963 54.8381 19.2213 51.5552 14.6506 47.0402C10.0778 42.5209 6.42847 36.4909 6.42847 30.0045V13.3931C6.42847 12.9668 6.59779 12.558 6.89919 12.2567C7.20059 11.9553 7.60937 11.7859 8.03561 11.7859C12.302 11.7859 16.8278 10.5281 20.7085 8.96379C24.5828 7.3995 27.6792 5.58236 29.057 4.59022Z" fill="#1E46CC"/>
<path d="M30 16L40 26L30 36L20 26L30 16Z" fill="#67C5FD"/>
</svg>
