<svg xmlns="http://www.w3.org/2000/svg" xmlns:xlink="http://www.w3.org/1999/xlink" version="1.1" width="256" height="256" viewBox="0 0 256 256" xml:space="preserve">
<g style="stroke: none; stroke-width: 0; stroke-dasharray: none; stroke-linecap: butt; stroke-linejoin: miter; stroke-miterlimit: 10; fill: none; fill-rule: nonzero; opacity: 1;" transform="translate(1.4065934065934016 1.4065934065934016) scale(2.81 2.81)">
	<rect x="1" y="9.69" rx="0" ry="0" width="48.39" height="70.62" style="stroke: none; stroke-width: 1; stroke-dasharray: none; stroke-linecap: butt; stroke-linejoin: miter; stroke-miterlimit: 10; fill: rgb(217,217,217); fill-rule: nonzero; opacity: 1;" transform=" matrix(1 0 0 1 0 0) "/>
	<rect x="39.8" y="16.4" rx="0" ry="0" width="37.06" height="53.62" style="stroke: none; stroke-width: 1; stroke-dasharray: none; stroke-linecap: butt; stroke-linejoin: miter; stroke-miterlimit: 10; fill: rgb(67,152,209); fill-rule: nonzero; opacity: 1;" transform=" matrix(1 0 0 1 0 0) "/>
	<path d="M 76.864 55.834 l -3.2 -2.254 c -0.312 -0.218 -0.671 -0.361 -1.047 -0.419 l -3.936 -0.344 c -1.727 -0.266 -3.367 0.845 -3.76 2.548 l -0.124 0.54 c -0.386 1.674 0.562 3.367 2.191 3.913 l 4.074 0.794 c 0.312 0.105 0.601 0.27 0.849 0.487 l 4.026 3.873 c -2.096 1.984 -3.498 4.774 -3.958 7.927 l 14.966 0 c 0.565 -6.534 2.279 -10.619 1.467 -16.275 c -0.327 -2.279 -1.846 -4.213 -3.986 -5.062 l -7.563 -3.443 V 55.834 z" style="stroke: none; stroke-width: 1; stroke-dasharray: none; stroke-linecap: butt; stroke-linejoin: miter; stroke-miterlimit: 10; fill: rgb(254,201,163); fill-rule: nonzero; opacity: 1;" transform=" matrix(1 0 0 1 0 0) " stroke-linecap="round"/>
	<rect x="69.91" y="72.9" rx="0" ry="0" width="19.09" height="7.41" style="stroke: none; stroke-width: 1; stroke-dasharray: none; stroke-linecap: butt; stroke-linejoin: miter; stroke-miterlimit: 10; fill: rgb(67,152,209); fill-rule: nonzero; opacity: 1;" transform=" matrix(1 0 0 1 0 0) "/>
	<rect x="45.16" y="21.76" rx="0" ry="0" width="26.35" height="11.73" style="stroke: none; stroke-width: 1; stroke-dasharray: none; stroke-linecap: butt; stroke-linejoin: miter; stroke-miterlimit: 10; fill: rgb(135,206,217); fill-rule: nonzero; opacity: 1;" transform=" matrix(1 0 0 1 0 0) "/>
	<rect x="45.16" y="59.41" rx="0" ry="0" width="5.9" height="5.26" style="stroke: none; stroke-width: 1; stroke-dasharray: none; stroke-linecap: butt; stroke-linejoin: miter; stroke-miterlimit: 10; fill: rgb(253,182,47); fill-rule: nonzero; opacity: 1;" transform=" matrix(1 0 0 1 0 0) "/>
	<rect x="55.38" y="59.41" rx="0" ry="0" width="5.9" height="5.26" style="stroke: none; stroke-width: 1; stroke-dasharray: none; stroke-linecap: butt; stroke-linejoin: miter; stroke-miterlimit: 10; fill: rgb(253,182,47); fill-rule: nonzero; opacity: 1;" transform=" matrix(1 0 0 1 0 0) "/>
	<rect x="45.16" y="49.64" rx="0" ry="0" width="5.9" height="5.26" style="stroke: none; stroke-width: 1; stroke-dasharray: none; stroke-linecap: butt; stroke-linejoin: miter; stroke-miterlimit: 10; fill: rgb(253,182,47); fill-rule: nonzero; opacity: 1;" transform=" matrix(1 0 0 1 0 0) "/>
	<rect x="55.38" y="49.64" rx="0" ry="0" width="5.9" height="5.26" style="stroke: none; stroke-width: 1; stroke-dasharray: none; stroke-linecap: butt; stroke-linejoin: miter; stroke-miterlimit: 10; fill: rgb(253,182,47); fill-rule: nonzero; opacity: 1;" transform=" matrix(1 0 0 1 0 0) "/>
	<rect x="45.16" y="39.86" rx="0" ry="0" width="5.9" height="5.26" style="stroke: none; stroke-width: 1; stroke-dasharray: none; stroke-linecap: butt; stroke-linejoin: miter; stroke-miterlimit: 10; fill: rgb(253,182,47); fill-rule: nonzero; opacity: 1;" transform=" matrix(1 0 0 1 0 0) "/>
	<rect x="65.61" y="39.86" rx="0" ry="0" width="5.9" height="5.26" style="stroke: none; stroke-width: 1; stroke-dasharray: none; stroke-linecap: butt; stroke-linejoin: miter; stroke-miterlimit: 10; fill: rgb(253,182,47); fill-rule: nonzero; opacity: 1;" transform=" matrix(1 0 0 1 0 0) "/>
	<rect x="55.38" y="39.86" rx="0" ry="0" width="5.9" height="5.26" style="stroke: none; stroke-width: 1; stroke-dasharray: none; stroke-linecap: butt; stroke-linejoin: miter; stroke-miterlimit: 10; fill: rgb(253,182,47); fill-rule: nonzero; opacity: 1;" transform=" matrix(1 0 0 1 0 0) "/>
	<path d="M 66.407 71.023 H 39.801 c -0.552 0 -1 -0.447 -1 -1 V 16.4 c 0 -0.552 0.448 -1 1 -1 h 37.063 c 0.553 0 1 0.448 1 1 v 33.236 c 0 0.553 -0.447 1 -1 1 s -1 -0.447 -1 -1 V 17.4 H 40.801 v 51.624 h 25.606 c 0.553 0 1 0.447 1 1 S 66.96 71.023 66.407 71.023 z" style="stroke: none; stroke-width: 1; stroke-dasharray: none; stroke-linecap: butt; stroke-linejoin: miter; stroke-miterlimit: 10; fill: rgb(0,0,0); fill-rule: nonzero; opacity: 1;" transform=" matrix(1 0 0 1 0 0) " stroke-linecap="round"/>
	<path d="M 71.506 34.488 H 45.159 c -0.552 0 -1 -0.448 -1 -1 V 21.758 c 0 -0.552 0.448 -1 1 -1 h 26.347 c 0.553 0 1 0.448 1 1 v 11.729 C 72.506 34.04 72.059 34.488 71.506 34.488 z M 46.159 32.488 h 24.347 v -9.729 H 46.159 V 32.488 z" style="stroke: none; stroke-width: 1; stroke-dasharray: none; stroke-linecap: butt; stroke-linejoin: miter; stroke-miterlimit: 10; fill: rgb(0,0,0); fill-rule: nonzero; opacity: 1;" transform=" matrix(1 0 0 1 0 0) " stroke-linecap="round"/>
	<path d="M 51.056 65.665 h -5.896 c -0.552 0 -1 -0.447 -1 -1 v -5.257 c 0 -0.553 0.448 -1 1 -1 h 5.896 c 0.553 0 1 0.447 1 1 v 5.257 C 52.056 65.218 51.608 65.665 51.056 65.665 z M 46.159 63.665 h 3.896 v -3.257 h -3.896 V 63.665 z" style="stroke: none; stroke-width: 1; stroke-dasharray: none; stroke-linecap: butt; stroke-linejoin: miter; stroke-miterlimit: 10; fill: rgb(0,0,0); fill-rule: nonzero; opacity: 1;" transform=" matrix(1 0 0 1 0 0) " stroke-linecap="round"/>
	<path d="M 61.28 65.665 h -5.896 c -0.553 0 -1 -0.447 -1 -1 v -5.257 c 0 -0.553 0.447 -1 1 -1 h 5.896 c 0.553 0 1 0.447 1 1 v 5.257 C 62.28 65.218 61.833 65.665 61.28 65.665 z M 56.384 63.665 h 3.896 v -3.257 h -3.896 V 63.665 z" style="stroke: none; stroke-width: 1; stroke-dasharray: none; stroke-linecap: butt; stroke-linejoin: miter; stroke-miterlimit: 10; fill: rgb(0,0,0); fill-rule: nonzero; opacity: 1;" transform=" matrix(1 0 0 1 0 0) " stroke-linecap="round"/>
	<path d="M 51.056 55.893 h -5.896 c -0.552 0 -1 -0.447 -1 -1 v -5.257 c 0 -0.553 0.448 -1 1 -1 h 5.896 c 0.553 0 1 0.447 1 1 v 5.257 C 52.056 55.445 51.608 55.893 51.056 55.893 z M 46.159 53.893 h 3.896 v -3.257 h -3.896 V 53.893 z" style="stroke: none; stroke-width: 1; stroke-dasharray: none; stroke-linecap: butt; stroke-linejoin: miter; stroke-miterlimit: 10; fill: rgb(0,0,0); fill-rule: nonzero; opacity: 1;" transform=" matrix(1 0 0 1 0 0) " stroke-linecap="round"/>
	<path d="M 61.28 55.893 h -5.896 c -0.553 0 -1 -0.447 -1 -1 v -5.257 c 0 -0.553 0.447 -1 1 -1 h 5.896 c 0.553 0 1 0.447 1 1 v 5.257 C 62.28 55.445 61.833 55.893 61.28 55.893 z M 56.384 53.893 h 3.896 v -3.257 h -3.896 V 53.893 z" style="stroke: none; stroke-width: 1; stroke-dasharray: none; stroke-linecap: butt; stroke-linejoin: miter; stroke-miterlimit: 10; fill: rgb(0,0,0); fill-rule: nonzero; opacity: 1;" transform=" matrix(1 0 0 1 0 0) " stroke-linecap="round"/>
	<path d="M 51.056 46.119 h -5.896 c -0.552 0 -1 -0.448 -1 -1 v -5.257 c 0 -0.552 0.448 -1 1 -1 h 5.896 c 0.553 0 1 0.448 1 1 v 5.257 C 52.056 45.671 51.608 46.119 51.056 46.119 z M 46.159 44.119 h 3.896 v -3.257 h -3.896 V 44.119 z" style="stroke: none; stroke-width: 1; stroke-dasharray: none; stroke-linecap: butt; stroke-linejoin: miter; stroke-miterlimit: 10; fill: rgb(0,0,0); fill-rule: nonzero; opacity: 1;" transform=" matrix(1 0 0 1 0 0) " stroke-linecap="round"/>
	<path d="M 71.506 46.119 h -5.897 c -0.553 0 -1 -0.448 -1 -1 v -5.257 c 0 -0.552 0.447 -1 1 -1 h 5.897 c 0.553 0 1 0.448 1 1 v 5.257 C 72.506 45.671 72.059 46.119 71.506 46.119 z M 66.608 44.119 h 3.897 v -3.257 h -3.897 V 44.119 z" style="stroke: none; stroke-width: 1; stroke-dasharray: none; stroke-linecap: butt; stroke-linejoin: miter; stroke-miterlimit: 10; fill: rgb(0,0,0); fill-rule: nonzero; opacity: 1;" transform=" matrix(1 0 0 1 0 0) " stroke-linecap="round"/>
	<path d="M 61.28 46.119 h -5.896 c -0.553 0 -1 -0.448 -1 -1 v -5.257 c 0 -0.552 0.447 -1 1 -1 h 5.896 c 0.553 0 1 0.448 1 1 v 5.257 C 62.28 45.671 61.833 46.119 61.28 46.119 z M 56.384 44.119 h 3.896 v -3.257 h -3.896 V 44.119 z" style="stroke: none; stroke-width: 1; stroke-dasharray: none; stroke-linecap: butt; stroke-linejoin: miter; stroke-miterlimit: 10; fill: rgb(0,0,0); fill-rule: nonzero; opacity: 1;" transform=" matrix(1 0 0 1 0 0) " stroke-linecap="round"/>
	<path d="M 86.946 73.899 L 86.946 73.899 l -14.967 -0.001 c -0.29 0 -0.566 -0.126 -0.757 -0.346 c -0.189 -0.22 -0.274 -0.512 -0.232 -0.799 c 0.434 -2.975 1.676 -5.69 3.53 -7.758 l -3.302 -3.177 c -0.104 -0.089 -0.254 -0.178 -0.42 -0.24 l -4.002 -0.781 c -0.043 -0.009 -0.085 -0.02 -0.127 -0.033 c -2.126 -0.713 -3.351 -2.899 -2.847 -5.085 l 0.124 -0.539 c 0.509 -2.202 2.659 -3.658 4.887 -3.313 l 3.87 0.337 c 0.59 0.088 1.098 0.291 1.533 0.596 l 7.51 5.291 c 0.451 0.318 0.56 0.941 0.241 1.394 c -0.317 0.451 -0.94 0.559 -1.394 0.241 l -7.507 -5.289 c -0.182 -0.127 -0.397 -0.214 -0.622 -0.248 l -3.871 -0.337 c -1.274 -0.193 -2.425 0.592 -2.698 1.777 l -0.124 0.539 c -0.267 1.159 0.366 2.317 1.478 2.721 l 4.004 0.781 c 0.043 0.008 0.085 0.02 0.126 0.033 c 0.438 0.146 0.838 0.376 1.188 0.682 l 4.063 3.906 c 0.197 0.189 0.308 0.451 0.307 0.725 s -0.114 0.534 -0.313 0.723 c -1.676 1.586 -2.875 3.757 -3.44 6.2 l 12.853 0.001 c 0.21 -2.005 0.514 -3.759 0.809 -5.462 c 0.576 -3.331 1.074 -6.208 0.577 -9.672 c -0.275 -1.923 -1.565 -3.561 -3.364 -4.273 l -1.953 -0.881 c -0.503 -0.228 -0.727 -0.819 -0.499 -1.322 c 0.228 -0.504 0.819 -0.728 1.323 -0.5 l 1.909 0.862 c 2.421 0.958 4.187 3.199 4.564 5.83 c 0.541 3.777 0.019 6.799 -0.587 10.297 c -0.331 1.916 -0.674 3.897 -0.874 6.207 C 87.897 73.503 87.465 73.899 86.946 73.899 z" style="stroke: none; stroke-width: 1; stroke-dasharray: none; stroke-linecap: butt; stroke-linejoin: miter; stroke-miterlimit: 10; fill: rgb(0,0,0); fill-rule: nonzero; opacity: 1;" transform=" matrix(1 0 0 1 0 0) " stroke-linecap="round"/>
	<path d="M 89 81.313 H 69.906 c -0.553 0 -1 -0.447 -1 -1 v -7.413 c 0 -0.553 0.447 -1 1 -1 H 89 c 0.553 0 1 0.447 1 1 v 7.413 C 90 80.865 89.553 81.313 89 81.313 z M 70.906 79.313 H 88 v -5.413 H 70.906 V 79.313 z" style="stroke: none; stroke-width: 1; stroke-dasharray: none; stroke-linecap: butt; stroke-linejoin: miter; stroke-miterlimit: 10; fill: rgb(0,0,0); fill-rule: nonzero; opacity: 1;" transform=" matrix(1 0 0 1 0 0) " stroke-linecap="round"/>
	<path d="M 49.394 81.313 H 1 c -0.552 0 -1 -0.447 -1 -1 V 9.688 c 0 -0.552 0.448 -1 1 -1 h 48.394 c 0.553 0 1 0.448 1 1 s -0.447 1 -1 1 H 2 v 68.625 h 47.394 c 0.553 0 1 0.447 1 1 S 49.946 81.313 49.394 81.313 z" style="stroke: none; stroke-width: 1; stroke-dasharray: none; stroke-linecap: butt; stroke-linejoin: miter; stroke-miterlimit: 10; fill: rgb(0,0,0); fill-rule: nonzero; opacity: 1;" transform=" matrix(1 0 0 1 0 0) " stroke-linecap="round"/>
	<path d="M 49.394 81.313 c -0.553 0 -1 -0.447 -1 -1 v -4.124 c 0 -0.553 0.447 -1 1 -1 s 1 0.447 1 1 v 4.124 C 50.394 80.865 49.946 81.313 49.394 81.313 z" style="stroke: none; stroke-width: 1; stroke-dasharray: none; stroke-linecap: butt; stroke-linejoin: miter; stroke-miterlimit: 10; fill: rgb(0,0,0); fill-rule: nonzero; opacity: 1;" transform=" matrix(1 0 0 1 0 0) " stroke-linecap="round"/>
	<path d="M 13.538 35.288 c -1.673 0 -3.25 -1.024 -3.872 -2.68 c -0.194 -0.517 0.068 -1.093 0.585 -1.288 c 0.517 -0.192 1.094 0.069 1.288 0.585 c 0.412 1.1 1.644 1.659 2.741 1.246 c 1.099 -0.412 1.658 -1.642 1.246 -2.741 c -0.236 -0.629 -0.744 -1.1 -1.393 -1.291 l -1.626 -0.593 c -1.196 -0.349 -2.182 -1.263 -2.641 -2.487 c -0.387 -1.032 -0.349 -2.154 0.107 -3.158 c 0.457 -1.004 1.276 -1.77 2.309 -2.157 c 2.131 -0.8 4.517 0.285 5.316 2.416 c 0.194 0.517 -0.068 1.093 -0.585 1.287 c -0.516 0.195 -1.093 -0.068 -1.287 -0.585 c -0.413 -1.099 -1.646 -1.659 -2.742 -1.246 c -0.532 0.2 -0.955 0.595 -1.19 1.112 c -0.235 0.518 -0.255 1.096 -0.056 1.628 c 0.236 0.63 0.744 1.101 1.394 1.291 l 1.626 0.593 c 1.196 0.349 2.181 1.263 2.641 2.487 c 0.799 2.132 -0.285 4.517 -2.417 5.316 C 14.507 35.203 14.019 35.288 13.538 35.288 z" style="stroke: none; stroke-width: 1; stroke-dasharray: none; stroke-linecap: butt; stroke-linejoin: miter; stroke-miterlimit: 10; fill: rgb(0,0,0); fill-rule: nonzero; opacity: 1;" transform=" matrix(1 0 0 1 0 0) " stroke-linecap="round"/>
	<path d="M 13.633 22.465 c -0.552 0 -1 -0.448 -1 -1 v -1.749 c 0 -0.552 0.448 -1 1 -1 s 1 0.448 1 1 v 1.749 C 14.633 22.017 14.185 22.465 13.633 22.465 z" style="stroke: none; stroke-width: 1; stroke-dasharray: none; stroke-linecap: butt; stroke-linejoin: miter; stroke-miterlimit: 10; fill: rgb(0,0,0); fill-rule: nonzero; opacity: 1;" transform=" matrix(1 0 0 1 0 0) " stroke-linecap="round"/>
	<path d="M 13.633 37.033 c -0.552 0 -1 -0.448 -1 -1 v -1.749 c 0 -0.552 0.448 -1 1 -1 s 1 0.448 1 1 v 1.749 C 14.633 36.585 14.185 37.033 13.633 37.033 z" style="stroke: none; stroke-width: 1; stroke-dasharray: none; stroke-linecap: butt; stroke-linejoin: miter; stroke-miterlimit: 10; fill: rgb(0,0,0); fill-rule: nonzero; opacity: 1;" transform=" matrix(1 0 0 1 0 0) " stroke-linecap="round"/>
	<path d="M 34.064 21.695 h -9.617 c -0.552 0 -1 -0.448 -1 -1 s 0.448 -1 1 -1 h 9.617 c 0.552 0 1 0.448 1 1 S 34.616 21.695 34.064 21.695 z" style="stroke: none; stroke-width: 1; stroke-dasharray: none; stroke-linecap: butt; stroke-linejoin: miter; stroke-miterlimit: 10; fill: rgb(0,0,0); fill-rule: nonzero; opacity: 1;" transform=" matrix(1 0 0 1 0 0) " stroke-linecap="round"/>
	<path d="M 34.064 31.158 h -9.617 c -0.552 0 -1 -0.448 -1 -1 s 0.448 -1 1 -1 h 9.617 c 0.552 0 1 0.448 1 1 S 34.616 31.158 34.064 31.158 z" style="stroke: none; stroke-width: 1; stroke-dasharray: none; stroke-linecap: butt; stroke-linejoin: miter; stroke-miterlimit: 10; fill: rgb(0,0,0); fill-rule: nonzero; opacity: 1;" transform=" matrix(1 0 0 1 0 0) " stroke-linecap="round"/>
	<path d="M 34.064 40.62 h -9.617 c -0.552 0 -1 -0.448 -1 -1 s 0.448 -1 1 -1 h 9.617 c 0.552 0 1 0.448 1 1 S 34.616 40.62 34.064 40.62 z" style="stroke: none; stroke-width: 1; stroke-dasharray: none; stroke-linecap: butt; stroke-linejoin: miter; stroke-miterlimit: 10; fill: rgb(0,0,0); fill-rule: nonzero; opacity: 1;" transform=" matrix(1 0 0 1 0 0) " stroke-linecap="round"/>
	<path d="M 34.064 50.082 H 11.199 c -0.552 0 -1 -0.447 -1 -1 s 0.448 -1 1 -1 h 22.865 c 0.552 0 1 0.447 1 1 S 34.616 50.082 34.064 50.082 z" style="stroke: none; stroke-width: 1; stroke-dasharray: none; stroke-linecap: butt; stroke-linejoin: miter; stroke-miterlimit: 10; fill: rgb(0,0,0); fill-rule: nonzero; opacity: 1;" transform=" matrix(1 0 0 1 0 0) " stroke-linecap="round"/>
	<path d="M 34.064 59.545 H 11.199 c -0.552 0 -1 -0.447 -1 -1 s 0.448 -1 1 -1 h 22.865 c 0.552 0 1 0.447 1 1 S 34.616 59.545 34.064 59.545 z" style="stroke: none; stroke-width: 1; stroke-dasharray: none; stroke-linecap: butt; stroke-linejoin: miter; stroke-miterlimit: 10; fill: rgb(0,0,0); fill-rule: nonzero; opacity: 1;" transform=" matrix(1 0 0 1 0 0) " stroke-linecap="round"/>
	<path d="M 34.064 69.007 H 11.199 c -0.552 0 -1 -0.447 -1 -1 s 0.448 -1 1 -1 h 22.865 c 0.552 0 1 0.447 1 1 S 34.616 69.007 34.064 69.007 z" style="stroke: none; stroke-width: 1; stroke-dasharray: none; stroke-linecap: butt; stroke-linejoin: miter; stroke-miterlimit: 10; fill: rgb(0,0,0); fill-rule: nonzero; opacity: 1;" transform=" matrix(1 0 0 1 0 0) " stroke-linecap="round"/>
</g>
</svg>