<svg width="60" height="60" viewBox="0 0 60 60" fill="none" xmlns="http://www.w3.org/2000/svg">
<path d="M41.3201 5H18.6801C15.6726 5 14.1701 5 12.9601 5.7475C11.7526 6.4925 11.0801 7.8375 9.73512 10.5275L6.22762 19.4C5.41512 21.45 4.70762 23.865 6.07262 25.5975C6.71595 26.4141 7.59778 27.0098 8.59544 27.3018C9.59311 27.5939 10.657 27.5677 11.6391 27.2269C12.6212 26.8862 13.4726 26.2478 14.075 25.4006C14.6774 24.5534 15.0008 23.5395 15.0001 22.5C15.0001 23.8261 15.5269 25.0979 16.4646 26.0355C17.4023 26.9732 18.674 27.5 20.0001 27.5C21.3262 27.5 22.598 26.9732 23.5357 26.0355C24.4733 25.0979 25.0001 23.8261 25.0001 22.5C25.0001 23.8261 25.5269 25.0979 26.4646 26.0355C27.4023 26.9732 28.674 27.5 30.0001 27.5C31.3262 27.5 32.598 26.9732 33.5357 26.0355C34.4733 25.0979 35.0001 23.8261 35.0001 22.5C35.0001 23.8261 35.5269 25.0979 36.4646 26.0355C37.4023 26.9732 38.674 27.5 40.0001 27.5C41.3262 27.5 42.598 26.9732 43.5357 26.0355C44.4733 25.0979 45.0001 23.8261 45.0001 22.5C45 23.5393 45.3237 24.5528 45.9263 25.3996C46.5289 26.2464 47.3804 26.8844 48.3623 27.2248C49.3443 27.5653 50.408 27.5913 51.4054 27.2991C52.4028 27.007 53.2844 26.4114 53.9276 25.595C55.2926 23.8625 54.5826 21.4475 53.7726 19.3975L50.2626 10.5275C48.9176 7.8375 48.2476 6.4925 47.0376 5.7475C45.8301 5 44.3251 5 41.3201 5ZM23.7501 53.125V46.25C23.7501 43.9125 23.7501 42.745 24.2526 41.875C24.5817 41.305 25.0551 40.8316 25.6251 40.5025C26.4951 40 27.6626 40 30.0001 40C32.3376 40 33.5051 40 34.3751 40.5025C34.9451 40.8316 35.4185 41.305 35.7476 41.875C36.2501 42.745 36.2501 43.9125 36.2501 46.25V53.125H23.7501Z" fill="#428711"/>
<path opacity="0.5" fill-rule="evenodd" clip-rule="evenodd" d="M10 27.5C11.3261 27.5 12.5979 26.9732 13.5355 26.0355C14.4732 25.0979 15 23.8261 15 22.5C15 23.8261 15.5268 25.0979 16.4645 26.0355C17.4021 26.9732 18.6739 27.5 20 27.5C21.3261 27.5 22.5979 26.9732 23.5355 26.0355C24.4732 25.0979 25 23.8261 25 22.5C25 23.8261 25.5268 25.0979 26.4645 26.0355C27.4021 26.9732 28.6739 27.5 30 27.5C31.3261 27.5 32.5979 26.9732 33.5355 26.0355C34.4732 25.0979 35 23.8261 35 22.5C35 23.8261 35.5268 25.0979 36.4645 26.0355C37.4021 26.9732 38.6739 27.5 40 27.5C41.3261 27.5 42.5979 26.9732 43.5355 26.0355C44.4732 25.0979 45 23.8261 45 22.5C45 23.8261 45.5268 25.0979 46.4645 26.0355C47.4021 26.9732 48.6739 27.5 50 27.5V53.125H36.25V46.25C36.25 43.9125 36.25 42.745 35.7475 41.875C35.4184 41.305 34.945 40.8316 34.375 40.5025C33.505 40 32.3375 40 30 40C27.6625 40 26.495 40 25.625 40.5025C25.055 40.8316 24.5816 41.305 24.2525 41.875C23.75 42.745 23.75 43.9125 23.75 46.25V53.125H10V27.5Z" fill="#90CD63"/>
<path d="M36.25 53.125H5C4.50272 53.125 4.02581 53.3225 3.67417 53.6742C3.32254 54.0258 3.125 54.5027 3.125 55C3.125 55.4973 3.32254 55.9742 3.67417 56.3258C4.02581 56.6775 4.50272 56.875 5 56.875H55C55.4973 56.875 55.9742 56.6775 56.3258 56.3258C56.6775 55.9742 56.875 55.4973 56.875 55C56.875 54.5027 56.6775 54.0258 56.3258 53.6742C55.9742 53.3225 55.4973 53.125 55 53.125H36.25Z" fill="#428711"/>
</svg>
