<svg width="60" height="60" viewBox="0 0 60 60" fill="none" xmlns="http://www.w3.org/2000/svg">
<g clip-path="url(#clip0_206_634)">
<path d="M15 0C15.5804 0 16.0826 0.212054 16.5067 0.636161C16.9308 1.06027 17.1429 1.5625 17.1429 2.14286V31.9754L35.0893 17.6116C35.4688 17.2991 35.9152 17.1429 36.4286 17.1429C37.0089 17.1429 37.5112 17.3549 37.9353 17.779C38.3594 18.2031 38.5714 18.7054 38.5714 19.2857V31.9754L56.5179 17.6116C56.8973 17.2991 57.3438 17.1429 57.8571 17.1429C58.4375 17.1429 58.9397 17.3549 59.3638 17.779C59.7879 18.2031 60 18.7054 60 19.2857V57.8571C60 58.4375 59.7879 58.9397 59.3638 59.3638C58.9397 59.7879 58.4375 60 57.8571 60H2.14286C1.5625 60 1.06027 59.7879 0.636161 59.3638C0.212054 58.9397 0 58.4375 0 57.8571V2.14286C0 1.5625 0.212054 1.06027 0.636161 0.636161C1.06027 0.212054 1.5625 0 2.14286 0H15Z" fill="#4FA511"/>
</g>
<defs>
<clipPath id="clip0_206_634">
<rect width="60" height="60" fill="white"/>
</clipPath>
</defs>
</svg>
