<svg width="58" height="58" viewBox="0 0 58 58" fill="none" xmlns="http://www.w3.org/2000/svg">
<path d="M23.7524 38.9109L23.7489 38.9002L23.072 38.6793C19.8528 37.5415 17.0284 35.5023 14.9353 32.8048C13.2427 30.6252 12.0796 28.0821 11.5379 25.3761C10.9962 22.6702 11.0907 19.8754 11.8138 17.2122C12.5369 14.549 13.8689 12.0902 15.7048 10.0298C17.5406 7.9694 19.8301 6.36375 22.3927 5.33949C24.9552 4.31523 27.7206 3.90038 30.4709 4.12765C33.2211 4.35493 35.881 5.21812 38.2406 6.64914C40.6002 8.08015 42.5951 10.0399 44.0678 12.3737C45.5405 14.7075 46.4509 17.3515 46.727 20.0973C46.8232 21.077 46.0145 21.875 45.0312 21.875C44.048 21.875 43.2607 21.0735 43.1431 20.0973C42.8252 17.578 41.8398 15.1895 40.289 13.1788C38.7382 11.1681 36.6783 9.60827 34.3224 8.66078C31.9666 7.71329 29.4003 7.41252 26.8892 7.7896C24.3781 8.16667 22.0133 9.20789 20.0396 10.8055C18.0659 12.4032 16.555 14.4992 15.6631 16.8767C14.7713 19.2542 14.5309 21.8268 14.9669 24.3283C15.4029 26.8299 16.4994 29.1695 18.143 31.1051C19.7866 33.0407 21.9175 34.502 24.3153 35.3377C24.9201 34.2346 25.8948 33.3802 27.0676 32.925C28.2405 32.4698 29.5363 32.4431 30.7269 32.8494C31.9176 33.2558 32.9267 34.0691 33.5766 35.1464C34.2264 36.2236 34.4754 37.4955 34.2797 38.7383C34.0839 39.981 33.4559 41.1149 32.5064 41.9401C31.5568 42.7654 30.3465 43.2292 29.0886 43.2498C27.8307 43.2704 26.6059 42.8466 25.6297 42.0529C24.6536 41.2592 23.9888 40.1466 23.7524 38.9109ZM20.9274 41.6718C17.4383 40.2474 14.3878 37.9257 12.0853 34.9423C11.5 35.82 11.1876 36.8513 11.1875 37.9063V39.6875C11.1875 46.7092 17.8137 53.9375 29 53.9375C40.1863 53.9375 46.8125 46.7092 46.8125 39.6875V37.9063C46.8125 36.489 46.2495 35.1298 45.2474 34.1277C44.2452 33.1255 42.886 32.5625 41.4688 32.5625H36.125C36.8722 33.5604 37.4016 34.7041 37.6789 35.9194C37.9562 37.1348 37.9753 38.3949 37.7349 39.6182C37.4945 40.8414 37 42.0005 36.2833 43.0206C35.5667 44.0406 34.6439 44.8989 33.5746 45.5398C32.5054 46.1807 31.3134 46.59 30.076 46.7412C28.8386 46.8924 27.5832 46.7821 26.3911 46.4175C25.199 46.0529 24.0966 45.4421 23.1555 44.6247C22.2143 43.8072 21.4552 42.8012 20.9274 41.6718ZM39.6875 21.875C39.6875 18.6189 38.2304 15.7012 35.9326 13.7418C34.8107 12.7915 33.5048 12.0829 32.0965 11.6604C30.6882 11.2378 29.2079 11.1104 27.7482 11.286C26.2884 11.4617 24.8806 11.9366 23.6127 12.6812C22.3449 13.4258 21.2443 14.4239 20.3799 15.6132C19.5154 16.8025 18.9056 18.1574 18.5887 19.5932C18.2717 21.0289 18.2545 22.5146 18.5379 23.9573C18.8213 25.4 19.3994 26.7688 20.236 27.9779C21.0725 29.187 22.1496 30.2105 23.3997 30.9843C24.9839 29.7001 26.9607 28.9984 29 28.9965C31.0384 28.9964 33.0152 29.6955 34.6002 30.9772C36.1549 30.0207 37.4387 28.682 38.3293 27.0886C39.2198 25.4953 39.6874 23.7004 39.6875 21.875Z" fill="#8FB9EF"/>
<path d="M20.9274 41.6718C17.4383 40.2474 14.3878 37.9257 12.0853 34.9423C11.5 35.82 11.1876 36.8513 11.1875 37.9063V39.6875C11.1875 46.7092 17.8137 53.9375 29 53.9375C40.1863 53.9375 46.8125 46.7092 46.8125 39.6875V37.9063C46.8125 36.489 46.2495 35.1298 45.2474 34.1277C44.2452 33.1255 42.886 32.5625 41.4688 32.5625H36.125C36.8722 33.5604 37.4016 34.704 37.6789 35.9194C37.9562 37.1348 37.9753 38.3949 37.7349 39.6181C37.4945 40.8414 37 42.0005 36.2833 43.0206C35.5667 44.0406 34.6439 44.8989 33.5746 45.5398C32.5054 46.1807 31.3134 46.59 30.076 46.7412C28.8386 46.8924 27.5832 46.7821 26.3911 46.4175C25.199 46.0529 24.0966 45.4421 23.1555 44.6246C22.2143 43.8072 21.4552 42.8012 20.9274 41.6718ZM39.6875 21.875C39.6875 18.6189 38.2304 15.7012 35.9326 13.7418C34.8107 12.7915 33.5048 12.0829 32.0965 11.6604C30.6882 11.2378 29.2079 11.1104 27.7482 11.286C26.2884 11.4617 24.8806 11.9366 23.6127 12.6812C22.3449 13.4258 21.2443 14.4239 20.3799 15.6132C19.5154 16.8025 18.9056 18.1574 18.5887 19.5932C18.2717 21.0289 18.2545 22.5146 18.5379 23.9573C18.8213 25.4 19.3994 26.7687 20.236 27.9779C21.0725 29.187 22.1496 30.2105 23.3997 30.9843C24.9839 29.7001 26.9607 28.9984 29 28.9965C31.0384 28.9964 33.0152 29.6955 34.6002 30.9772C36.1549 30.0207 37.4387 28.682 38.3293 27.0886C39.2198 25.4953 39.6874 23.7004 39.6875 21.875Z" fill="#205396"/>
</svg>
