<svg width="57" height="56" viewBox="0 0 57 56" fill="none" xmlns="http://www.w3.org/2000/svg">
<path d="M43.2656 54.25C43.2656 51.5317 41.062 49.3281 38.3438 49.3281H18.6562C15.938 49.3281 13.7344 51.5317 13.7344 54.25V56H43.2656V54.25ZM53.2188 13.2344V9.95312H33.1197C32.875 9.26681 32.4807 8.64348 31.9655 8.12826C31.4503 7.61303 30.8269 7.21879 30.1406 6.97408V0H26.8594V6.97408C26.1731 7.21879 25.5497 7.61303 25.0345 8.12826C24.5193 8.64348 24.125 9.26681 23.8803 9.95312H3.78125V13.2344H7.88325L0.5 31.2812C0.5 35.8042 4.18014 39.4844 8.70312 39.4844H11.9844C16.5074 39.4844 20.1875 35.8042 20.1875 31.2812L12.7709 13.2344H23.8804C24.1252 13.9207 24.5194 14.544 25.0346 15.0592C25.5498 15.5745 26.1732 15.9687 26.8595 16.2134V39.6642C23.6532 40.3203 21.1167 42.8393 20.463 46.0469H36.5372C35.8835 42.8393 33.3471 40.3203 30.1407 39.6642V16.2134C30.8271 15.9687 31.4504 15.5745 31.9656 15.0592C32.4808 14.544 32.8751 13.9207 33.1198 13.2344H44.1959L36.8125 31.2812C36.8125 35.8042 40.4926 39.4844 45.0156 39.4844H48.2969C52.8199 39.4844 56.5 35.8042 56.5 31.2812L49.0834 13.2344H53.2188ZM16.0855 29.6406H4.602L10.3438 15.8587L16.0855 29.6406ZM52.398 29.6406H40.9145L46.6562 15.8587L52.398 29.6406Z" fill="#0E78AE"/>
</svg>
