<svg width="61" height="61" viewBox="0 0 61 61" fill="none" xmlns="http://www.w3.org/2000/svg">
<path fill-rule="evenodd" clip-rule="evenodd" d="M9.23855 4.7802H13.7855C15.8169 4.7802 17.4699 6.43318 17.4699 8.46314V10.8743H16.9065V9.73499C16.9065 8.90099 16.1545 8.27611 15.3348 8.42812C12.8114 8.89831 10.2377 8.89758 7.68719 8.42666C6.86894 8.27513 6.11693 8.90221 6.11693 9.73352V10.8743H5.55427V8.46314C5.55415 6.43318 7.20712 4.7802 9.23855 4.7802ZM17.4831 13.7402H16.9064V12.4236H17.4831C17.846 12.4236 18.1417 12.7194 18.1417 13.0823C18.1417 13.4453 17.846 13.7402 17.4831 13.7402ZM15.3578 15.0477V9.99838C12.8171 10.4405 10.2314 10.4398 7.66609 9.99631V15.0477C7.66609 17.1673 9.39129 18.8925 11.5117 18.8925C13.6326 18.8927 15.3578 17.1675 15.3578 15.0477ZM4.88217 13.0823C4.88246 12.9077 4.95195 12.7403 5.07541 12.6169C5.19888 12.4934 5.36625 12.4239 5.54085 12.4236H6.11681V13.7402H5.54085C5.36631 13.7401 5.19894 13.6708 5.07546 13.5475C4.95197 13.4241 4.88246 13.2568 4.88217 13.0823ZM5.54073 15.2895H6.1223C6.25125 18.1519 8.61891 20.4418 11.5115 20.4418C14.4048 20.4418 16.7725 18.1519 16.9 15.2895H17.4831C19.4568 15.2895 20.4374 12.8787 19.019 11.4986V8.46314C19.019 5.57893 16.6709 3.23092 13.7854 3.23092H9.23842C6.35288 3.23092 4.00475 5.57906 4.00475 8.46314V11.4986C2.58515 12.8775 3.56616 15.2895 5.54073 15.2895ZM22.4084 26.1752C23.2066 26.4415 23.9948 26.5032 24.8021 26.3637C25.2657 26.2843 25.9003 25.8326 26.3556 25.7281C26.3753 25.8423 26.3906 26.0637 26.3444 26.4519C26.1861 27.7889 25.6612 28.0068 24.9984 28.2842C24.4175 28.5266 23.5416 28.8918 23.5416 30.1145C23.5416 30.6666 23.7868 31.1844 24.0041 31.6407C24.4399 32.56 24.428 32.682 24.0174 32.9139L22.2699 33.143C21.761 32.0477 21.509 30.8506 21.5331 29.6431C21.5571 28.4356 21.8565 27.2495 22.4084 26.1752ZM36.4536 25.9418C33.702 20.9972 26.8383 20.4168 23.2948 24.8122C23.704 24.8998 24.1069 24.9096 24.5204 24.8403C24.8581 24.7568 26.2635 23.7015 27.2734 24.4122C28.0793 24.9791 27.9307 26.225 27.8831 26.6355C27.6169 28.8701 26.3506 29.3977 25.5952 29.7137C25.0907 29.9239 25.0907 29.9351 25.0907 30.1145C25.0907 30.6035 25.8761 31.5563 25.8748 32.5467C25.8748 33.0603 25.6639 33.7863 24.6647 34.3258C24.5028 34.4134 24.4397 34.431 23.142 34.5948C24.5015 36.3928 26.6071 37.5966 28.9951 37.7452C29.0028 37.3542 29.0638 37.0004 29.1149 36.7067C29.1514 36.4958 29.2012 36.2092 29.1836 36.1083C28.7793 35.2885 28.3182 34.1113 28.8901 33.2803C29.6283 32.2082 31.2489 32.6748 32.2662 32.6818C32.2102 32.4184 31.9053 31.7808 30.5136 30.42C30.2593 30.1712 30.1737 30.0871 30.0996 29.9428C29.1557 28.0985 30.3532 26.866 30.9972 26.2038C31.7233 25.4591 32.7966 24.3157 35.025 25.3798C35.528 25.6202 36.0017 25.8059 36.4536 25.9418ZM30.5479 37.6907C30.5853 36.9332 30.9266 36.1399 30.5801 35.4378C30.1723 34.6124 30.1618 34.267 30.1717 34.1702C30.3918 34.0784 31.0847 34.1437 31.426 34.1759C32.2851 34.2564 33.1735 34.3406 33.5954 33.6377C34.4916 32.1438 32.5359 30.2316 31.5969 29.3122C31.5442 29.2609 31.4919 29.2092 31.4399 29.1573C31.1232 28.4789 31.3502 28.0634 32.1077 27.2842C32.7822 26.5922 33.1316 26.1934 34.3577 26.7783C35.3647 27.2576 36.2883 27.556 37.1684 27.6864C38.4502 32.376 35.2892 37.0601 30.5479 37.6907ZM35.6436 37.0468C32.09 40.068 26.8951 40.0683 23.3425 37.0468L18.9693 41.42C18.8974 41.492 18.812 41.5492 18.718 41.5881C18.6239 41.6271 18.5231 41.6471 18.4214 41.647C17.7376 41.647 17.3839 40.8144 17.8735 40.3248L22.2467 35.9516C19.2283 32.3994 19.228 27.2029 22.2467 23.6504L17.8707 19.2744C17.7256 19.1289 17.6442 18.9319 17.6442 18.7264C17.6442 18.521 17.7256 18.324 17.8707 18.1785C18.1741 17.8765 18.6639 17.8765 18.9659 18.1785L23.3425 22.5551C26.8951 19.5335 32.0899 19.5339 35.6436 22.5551L40.0174 18.1806C40.3195 17.8786 40.8092 17.8786 41.1126 18.1806C41.1846 18.2525 41.2417 18.3379 41.2807 18.432C41.3196 18.526 41.3397 18.6268 41.3397 18.7285C41.3397 18.8303 41.3196 18.9311 41.2807 19.0251C41.2417 19.1191 41.1846 19.2045 41.1126 19.2765L36.7387 23.6504C39.7592 27.205 39.7589 32.3972 36.7387 35.9516L41.1147 40.3276C41.1867 40.3995 41.2438 40.485 41.2827 40.579C41.3217 40.673 41.3417 40.7738 41.3417 40.8755C41.3417 40.9773 41.3217 41.0781 41.2827 41.1721C41.2438 41.2661 41.1867 41.3516 41.1147 41.4235C40.9693 41.5683 40.7724 41.6496 40.5671 41.6496C40.3619 41.6496 40.165 41.5683 40.0195 41.4235L35.6436 37.0468ZM17.502 53.6257C17.502 53.6538 17.5006 53.6804 17.5006 53.7077C17.0577 53.5718 16.6095 53.4533 16.1573 53.3524C16.5712 52.9548 16.9333 52.5065 17.235 52.0182C17.4113 52.5359 17.5015 53.0789 17.502 53.6257ZM6.34593 48.5105C6.34593 51.3582 8.6632 53.6755 11.5117 53.6755C14.3607 53.6755 16.678 51.3582 16.678 48.5105V47.4468C14.2037 46.8806 12.4751 45.5851 11.5117 43.5789C10.5488 45.5851 8.82021 46.8807 6.34593 47.4468V48.5105ZM5.52328 53.7077C5.49644 53.1886 5.62247 52.5087 5.78887 52.0182C6.09012 52.5066 6.452 52.9549 6.86589 53.3524C6.41392 53.4534 5.96604 53.5719 5.52328 53.7077ZM10.5411 41.7395C9.96518 43.8563 8.61488 45.2025 6.44267 45.8226C6.84405 43.761 8.47605 42.134 10.5411 41.7395ZM16.5812 45.8226C14.409 45.2025 13.058 43.8563 12.4828 41.7395C14.5477 42.134 16.1797 43.761 16.5812 45.8226ZM18.2265 48.5105V46.8134C18.2265 43.1108 15.2148 40.0977 11.5115 40.0977C7.80895 40.0977 4.79726 43.1108 4.79726 46.8134V48.5105C4.79726 49.0627 4.86521 49.598 4.99136 50.113C4.0871 51.5557 3.77099 53.248 4.09856 54.9051C4.19116 55.3732 4.6849 55.6462 5.13215 55.4783C6.21197 55.0704 7.40525 54.7754 8.67991 54.5961C9.56612 55.0112 10.5329 55.2258 11.5115 55.2246C12.5241 55.2246 13.4833 54.9991 14.3439 54.5961C15.6185 54.7754 16.8118 55.0706 17.8916 55.4783C18.3389 55.6462 18.8326 55.3732 18.9252 54.9051C19.2528 53.2479 18.9368 51.5559 18.0326 50.113C18.1609 49.5885 18.2261 49.0505 18.2265 48.5105ZM41.0784 9.10778C46.9174 11.0423 48.3547 11.042 54.193 9.10778C54.8279 8.89758 55.5706 8.65089 56.0639 8.52963C55.8557 9.67045 55.0542 10.7439 53.755 11.5995C50.395 13.8131 44.8756 13.8131 41.5156 11.5995C40.2165 10.7439 39.4156 9.67045 39.2075 8.52963C39.7 8.65089 40.4435 8.89758 41.0784 9.10778ZM44.8826 5.61407L44.2645 8.47155C46.9379 9.18977 48.3326 9.18989 51.0061 8.47155L50.3888 5.61407C50.2725 5.07727 49.8269 4.71786 49.2781 4.71786H45.9939C45.4445 4.71774 44.9975 5.07727 44.8826 5.61407ZM51.2891 16.0246C51.2891 18.0392 49.6509 19.6781 47.6356 19.6781C45.6204 19.6781 43.9821 18.0392 43.9821 16.0246V14.3422C46.3217 14.9627 48.9489 14.9629 51.2891 14.3422V16.0246ZM40.6636 12.8931C41.2058 13.2504 41.8001 13.5602 42.4329 13.8215V16.0246C42.4329 18.8933 44.7663 21.2274 47.6357 21.2274C50.5038 21.2274 52.8385 18.8933 52.8385 16.0246V13.8215C55.4798 12.7292 57.6672 10.6588 57.6672 7.93268C57.6672 7.60267 57.5193 7.30694 57.2601 7.12053C56.6323 6.66644 55.6533 6.99084 53.7054 7.63695C53.3291 7.76164 52.922 7.89693 52.4966 8.03211L51.9024 5.28674C51.6333 4.03942 50.5536 3.16919 49.2782 3.16919H45.994C44.7165 3.16919 43.6382 4.03942 43.3684 5.28674L42.7749 8.03211C42.3502 7.89681 41.9431 7.76164 41.5654 7.63695C39.6167 6.99084 38.6399 6.66644 38.0114 7.12053C37.7529 7.30694 37.6043 7.60267 37.6043 7.93268C37.6042 9.831 38.6909 11.5926 40.6636 12.8931ZM53.2869 51.9609C53.4901 51.1278 53.6394 50.2267 53.7269 49.2708C53.7373 49.1547 53.7214 49.0377 53.6804 48.9285C53.6394 48.8194 53.5744 48.7208 53.4901 48.6402C50.659 45.9308 46.1466 45.931 43.3157 48.6402C43.2314 48.7207 43.1664 48.8192 43.1256 48.9285C43.0848 49.0377 43.0693 49.1547 43.0803 49.2708C43.1678 50.228 43.3171 51.1298 43.521 51.9643L41.496 51.0877C41.496 47.2699 44.5946 44.1738 48.4036 44.1738C52.212 44.1738 55.3105 47.2723 55.3105 51.0808L53.2869 51.9609ZM48.4036 56.2814C50.1022 56.2814 51.7116 53.3384 52.1447 49.5132C49.9918 47.7044 46.8137 47.7047 44.661 49.5132C45.0941 53.3385 46.7051 56.2814 48.4036 56.2814ZM46.0479 42.8313C46.0479 41.6891 47.1045 40.7607 48.4037 40.7607C49.7423 40.7607 50.8466 41.7583 50.7504 42.9595C49.2098 42.5135 47.596 42.5141 46.0556 42.9595C46.0521 42.9159 46.0479 42.874 46.0479 42.8313ZM52.231 43.5445C52.3885 42.806 52.2999 42.0638 51.9844 41.3898L54.0593 39.4082C54.369 39.1132 54.3803 38.6213 54.0845 38.313C54.0143 38.2394 53.9303 38.1803 53.8372 38.1392C53.7441 38.0981 53.6439 38.0757 53.5422 38.0733C53.4405 38.071 53.3393 38.0887 53.2444 38.1255C53.1495 38.1623 53.0629 38.2174 52.9893 38.2878L51.0316 40.1573C49.5408 38.8953 47.2647 38.896 45.7749 40.1573L43.8177 38.2878C43.7441 38.2174 43.6574 38.1623 43.5625 38.1255C43.4676 38.0887 43.3663 38.071 43.2645 38.0733C43.1628 38.0757 43.0625 38.098 42.9693 38.1392C42.8762 38.1803 42.7921 38.2394 42.7218 38.313C42.4261 38.6213 42.4373 39.1132 42.7477 39.4082L44.8233 41.3898C44.5058 42.0633 44.4177 42.8064 44.5752 43.5445C41.8327 44.9446 39.947 47.7957 39.947 51.0807C39.947 51.5504 39.8691 52.0711 40.4137 52.3069L44.1485 53.9235C45.1344 56.3445 46.6669 57.8307 48.404 57.8307C50.1411 57.8307 51.6728 56.3445 52.6595 53.9235L56.3929 52.3069C56.9382 52.0707 56.8603 51.5505 56.8603 51.0807C56.8599 47.7958 54.975 44.9446 52.231 43.5445Z" fill="#FF3D05"/>
</svg>
