<svg width="57" height="56" viewBox="0 0 57 56" fill="none" xmlns="http://www.w3.org/2000/svg">
<path d="M28.5448 1.75282C28.4201 1.75479 28.2971 1.78221 28.1834 1.83339C28.0696 1.88457 27.9675 1.95844 27.8834 2.05046L21.7552 9.06162C21.6125 9.22713 21.5369 9.43995 21.543 9.65836C21.5491 9.87677 21.6366 10.085 21.7883 10.2423C21.8685 10.329 21.9657 10.3983 22.0737 10.4461C22.1818 10.4939 22.2985 10.5191 22.4166 10.5201H25.0458L25.0425 20.6069C25.0425 20.8847 25.1781 21.0864 25.3104 21.222C25.4283 21.3379 25.5762 21.4185 25.7375 21.4548C25.8988 21.491 26.067 21.4814 26.2232 21.4271C27.7358 20.8972 29.3848 20.9042 30.8929 21.4469C31.0481 21.5019 31.2158 21.5115 31.3763 21.4746C31.5367 21.4377 31.6834 21.3558 31.799 21.2386C31.8816 21.1574 31.9473 21.0607 31.9921 20.9539C32.037 20.8472 32.0601 20.7326 32.0603 20.6168V10.5201H34.6862C34.8538 10.518 35.0174 10.4682 35.1578 10.3765C35.2982 10.2849 35.4096 10.1552 35.4789 10.0025C35.5483 9.8499 35.5728 9.68068 35.5495 9.51464C35.5263 9.34861 35.4562 9.19262 35.3476 9.06493L29.2062 2.05046C29.0342 1.86668 28.7964 1.76178 28.5448 1.75282ZM10.1173 7.88759C9.91465 7.89488 9.72071 7.97199 9.56835 8.10586L2.55388 14.2373C2.45924 14.3196 2.38335 14.4212 2.33135 14.5353C2.27935 14.6494 2.25244 14.7734 2.25244 14.8987C2.25244 15.0241 2.27935 15.1481 2.33135 15.2622C2.38335 15.3763 2.45924 15.4779 2.55388 15.5602L9.56504 21.6916C9.69182 21.8031 9.84812 21.8756 10.0151 21.9004C10.1821 21.9252 10.3527 21.9012 10.5065 21.8314C10.6602 21.7615 10.7904 21.6487 10.8815 21.5066C10.9727 21.3645 11.0208 21.199 11.0202 21.0302V18.4043H14.5225C15.5113 18.4043 16.2753 19.1716 16.2753 20.1571V28.0414C16.2753 28.5275 16.6721 28.9178 17.1583 28.9145L20.6638 28.9178C20.8951 28.9169 21.1167 28.8246 21.2802 28.6611C21.4438 28.4975 21.5361 28.276 21.5369 28.0447C21.5369 26.3713 22.1157 24.8434 23.0913 23.6395C23.2302 23.4973 23.2897 23.2328 23.2897 23.0542V18.4043C23.2897 14.535 20.1479 11.3932 16.2786 11.3932H11.0202V8.76398C11.0207 8.64578 10.9973 8.52869 10.9514 8.41976C10.9055 8.31082 10.8381 8.2123 10.7531 8.13012C10.6681 8.04794 10.5674 7.98379 10.457 7.94155C10.3466 7.8993 10.2288 7.87982 10.1107 7.88428L10.1173 7.88759ZM46.9788 7.88759C46.861 7.88358 46.7436 7.9034 46.6335 7.94585C46.5235 7.9883 46.4232 8.05252 46.3386 8.13466C46.254 8.21679 46.1868 8.31516 46.1412 8.42386C46.0955 8.53257 46.0722 8.64937 46.0727 8.76729V11.3899H40.8143C38.9554 11.3916 37.1733 12.1315 35.8598 13.4469C34.5463 14.7623 33.8089 16.5454 33.8098 18.4043V22.783C33.8098 23.117 33.8098 23.4444 34.0082 23.6429C34.9805 24.85 35.5626 26.3746 35.5626 28.0447C35.5634 28.276 35.6557 28.4975 35.8192 28.6611C35.9828 28.8246 36.2044 28.9169 36.4356 28.9178H39.9412C40.1731 28.9169 40.3952 28.8242 40.5588 28.6599C40.7224 28.4956 40.8143 28.2732 40.8143 28.0414V20.1571C40.8143 19.1716 41.5783 18.4043 42.5671 18.4043H46.0727V21.0302C46.0727 21.7842 46.959 22.1877 47.5278 21.6916L54.539 15.5569C54.6331 15.4746 54.7085 15.3732 54.7601 15.2594C54.8118 15.1456 54.8385 15.0221 54.8385 14.8971C54.8385 14.7721 54.8118 14.6486 54.7601 14.5348C54.7085 14.421 54.6331 14.3196 54.539 14.2373L47.5278 8.10586C47.3756 7.97175 47.1816 7.89461 46.9788 7.88759ZM28.5448 22.7532C25.6312 22.7532 23.2864 25.1046 23.2864 28.0281C23.2864 30.9484 25.6312 33.2997 28.5448 33.2997C31.4584 33.2997 33.8032 30.9517 33.8032 28.0281C33.8032 25.1046 31.4584 22.7532 28.5448 22.7532ZM10.1405 30.6739C9.32696 30.6739 8.54676 30.997 7.97152 31.5723C7.39627 32.1475 7.0731 32.9277 7.0731 33.7412C7.0731 34.5548 7.39627 35.335 7.97152 35.9102C8.54676 36.4855 9.32696 36.8086 10.1405 36.8086C10.954 36.8086 11.7342 36.4855 12.3095 35.9102C12.8847 35.335 13.2079 34.5548 13.2079 33.7412C13.2079 32.9277 12.8847 32.1475 12.3095 31.5723C11.7342 30.997 10.954 30.6739 10.1405 30.6739ZM46.9491 30.6739C46.1356 30.6739 45.3554 30.997 44.7801 31.5723C44.2049 32.1475 43.8817 32.9277 43.8817 33.7412C43.8817 34.5548 44.2049 35.335 44.7801 35.9102C45.3554 36.4855 46.1356 36.8086 46.9491 36.8086C47.7626 36.8086 48.5428 36.4855 49.118 35.9102C49.6933 35.335 50.0165 34.5548 50.0165 33.7412C50.0165 32.9277 49.6933 32.1475 49.118 31.5723C48.5428 30.997 47.7626 30.6739 46.9491 30.6739ZM24.7614 33.8884C22.5305 34.6728 20.5991 36.1323 19.2354 38.0643C17.8718 39.9963 17.1435 42.3049 17.1516 44.6697V52.5738C17.1516 53.2749 17.3501 53.7412 17.6643 54.0091C17.9751 54.2737 18.5109 54.4457 19.5096 54.2539L35.0731 50.0538C35.3082 49.9933 35.5288 49.8864 35.7221 49.7394C35.9153 49.5924 36.0772 49.4083 36.1983 49.1979C36.3193 48.9874 36.3972 48.755 36.4271 48.514C36.4571 48.2731 36.4386 48.0287 36.3728 47.795C36.3124 47.5601 36.2055 47.3396 36.0584 47.1468C35.9112 46.954 35.7269 46.7926 35.5162 46.6723C35.3056 46.5521 35.0729 46.4753 34.8321 46.4466C34.5912 46.4179 34.347 46.4378 34.114 46.5052L20.8523 49.5808C20.6301 49.6225 20.4003 49.5766 20.2111 49.4528C20.0219 49.3289 19.8878 49.1367 19.837 48.9164C19.7862 48.696 19.8225 48.4646 19.9384 48.2704C20.0543 48.0762 20.2407 47.9343 20.4588 47.8744L20.6572 47.8281V44.6697C20.6763 44.4504 20.7769 44.2463 20.9391 44.0975C21.1014 43.9488 21.3135 43.8662 21.5336 43.8662C21.7537 43.8662 21.9659 43.9488 22.1281 44.0975C22.2904 44.2463 22.3909 44.4504 22.41 44.6697V47.418L33.6808 44.7987C34.0313 44.7094 34.3323 44.9211 34.6762 44.931V44.6697C34.6953 44.4504 34.7959 44.2463 34.9581 44.0975C35.1204 43.9488 35.3325 43.8662 35.5526 43.8662C35.7728 43.8662 35.9849 43.9488 36.1471 44.0975C36.3094 44.2463 36.41 44.4504 36.429 44.6697V45.2286C37.1996 45.6916 37.8147 46.4093 38.0628 47.3452C38.3041 48.2655 38.1732 49.2438 37.6984 50.0683C37.2237 50.8928 36.4432 51.4971 35.5262 51.7503L31.9148 52.7226L37.5832 54.2539C38.5754 54.4457 39.1144 54.2737 39.4253 54.0091C39.7395 53.7445 39.9379 53.2849 39.9379 52.5937V44.6697C39.9379 39.6627 36.7631 35.4461 32.3249 33.8884C31.1985 34.6181 29.8852 35.0064 28.5431 35.0064C27.2011 35.0064 25.8877 34.6181 24.7614 33.8884ZM7.70311 37.8107C6.60019 38.2922 5.66252 39.0863 5.00599 40.0949C4.34947 41.1035 4.00287 42.2823 4.00902 43.4858V44.6664C4.00902 46.1579 5.16653 47.3254 6.6349 47.3254H13.6461C13.975 47.3174 14.2991 47.2446 14.5998 47.1112C14.9006 46.9779 15.1721 46.7865 15.3989 46.5482V44.6929C15.3989 43.4924 15.5675 42.3283 15.8685 41.2204C15.2566 39.7011 14.0777 38.4795 12.5812 37.814C11.8613 38.302 11.0114 38.5626 10.1416 38.5621C9.27189 38.5615 8.42236 38.2997 7.70311 37.8107ZM49.3898 37.8107C48.6707 38.3005 47.8208 38.5625 46.9507 38.5625C46.0807 38.5625 45.2308 38.3005 44.5117 37.8107C43.014 38.4778 41.8349 39.702 41.2244 41.2237C41.522 42.3283 41.694 43.4924 41.694 44.6929V46.5482C42.157 46.998 42.7424 47.3254 43.4468 47.3254H50.458C50.806 47.3267 51.1508 47.2587 51.4721 47.1251C51.7935 46.9915 52.085 46.7952 52.3295 46.5476C52.5741 46.3 52.7668 46.006 52.8963 45.683C53.0258 45.36 53.0896 45.0144 53.0838 44.6664V43.4858C53.0838 40.9161 51.5626 38.7565 49.3898 37.8107ZM32.0537 39.4378H34.6762C34.9091 39.4378 35.1325 39.5303 35.2971 39.695C35.4618 39.8597 35.5543 40.083 35.5543 40.3159C35.5543 40.5487 35.4618 40.7721 35.2971 40.9367C35.1325 41.1014 34.9091 41.1939 34.6762 41.1939H32.0537C31.8208 41.1939 31.5975 41.1014 31.4328 40.9367C31.2681 40.7721 31.1756 40.5487 31.1756 40.3159C31.1756 40.083 31.2681 39.8597 31.4328 39.695C31.5975 39.5303 31.8208 39.4378 32.0537 39.4378Z" fill="#784CB5"/>
</svg>
