<svg width="57" height="56" viewBox="0 0 57 56" fill="none" xmlns="http://www.w3.org/2000/svg">
<path fill-rule="evenodd" clip-rule="evenodd" d="M40.6999 27.8502C44.1205 31.2708 44.1204 36.817 40.6999 40.2375C37.2794 43.658 31.7331 43.6581 28.3126 40.2375C24.8921 36.8169 24.8921 31.2707 28.3126 27.8502C31.7331 24.4297 37.2793 24.4296 40.6999 27.8502ZM8.95741 41.2598V25.5931C8.95738 25.5651 8.94628 25.5384 8.92654 25.5187C8.90681 25.4989 8.88005 25.4878 8.85213 25.4878H3.86309C3.83518 25.4878 3.80842 25.4989 3.78868 25.5187C3.76894 25.5384 3.75784 25.5651 3.75781 25.5931V41.2598C3.75781 41.3179 3.80508 41.3651 3.86309 41.3651H8.85213C8.91015 41.3651 8.95741 41.3179 8.95741 41.2598ZM19.565 41.2598V11.1205C19.565 11.0926 19.5539 11.0659 19.5342 11.0461C19.5144 11.0264 19.4877 11.0153 19.4598 11.0153H14.4707C14.4428 11.0153 14.4161 11.0264 14.3963 11.0461C14.3766 11.0659 14.3655 11.0926 14.3654 11.1205V41.2598C14.3654 41.3179 14.4127 41.3651 14.4707 41.3651H19.4598C19.5177 41.3651 19.565 41.3179 19.565 41.2598ZM30.1726 21.5857V15.5443C30.1725 15.5164 30.1614 15.4896 30.1417 15.4699C30.122 15.4502 30.0952 15.4391 30.0673 15.439H25.0782C25.0503 15.4391 25.0236 15.4502 25.0038 15.4699C24.9841 15.4896 24.973 15.5164 24.973 15.5443V24.7734C24.973 24.8171 24.9979 24.8543 25.0384 24.8709C25.0788 24.8875 25.1227 24.8784 25.1534 24.8473C26.5835 23.3929 28.2801 22.333 30.1026 21.6849C30.1232 21.6778 30.141 21.6644 30.1536 21.6466C30.1661 21.6288 30.1728 21.6075 30.1726 21.5857ZM35.6764 20.9788C37.4066 21.132 39.089 21.628 40.6256 22.4379C40.6416 22.4466 40.6596 22.4509 40.6778 22.4504C40.6959 22.4499 40.7137 22.4446 40.7291 22.435C40.7448 22.4258 40.7578 22.4126 40.7668 22.3968C40.7757 22.381 40.7803 22.363 40.7801 22.3448V3.33843C40.7801 3.31052 40.769 3.28376 40.7492 3.26402C40.7295 3.24429 40.7027 3.23318 40.6748 3.23315H35.6858C35.6579 3.23318 35.6311 3.24429 35.6114 3.26402C35.5916 3.28376 35.5805 3.31052 35.5805 3.33843V20.8739C35.5804 20.9003 35.5902 20.9256 35.608 20.945C35.6257 20.9645 35.6501 20.9765 35.6764 20.9788ZM44.1307 42.6947C43.8271 43.031 43.5065 43.3516 43.1702 43.6552C43.148 43.6752 43.1362 43.7008 43.1354 43.7307C43.1347 43.7606 43.1451 43.7867 43.1662 43.8078L45.5077 46.1493C45.5267 46.1683 45.5377 46.1938 45.5385 46.2206C45.5393 46.2474 45.5299 46.2735 45.5121 46.2936C45.0002 46.8717 45.0229 47.6935 45.5486 48.2192L49.6898 52.3604C50.2317 52.9022 51.1142 52.9022 51.6561 52.3604L52.8359 51.1806C53.1051 50.9113 53.2397 50.5548 53.2397 50.1974H53.2423C53.2423 49.8416 53.1068 49.4852 52.8359 49.2142L48.6947 45.073C48.1689 44.5473 47.3472 44.5248 46.7691 45.0366C46.749 45.0544 46.7229 45.0638 46.6961 45.063C46.6693 45.0622 46.6438 45.0512 46.6248 45.0322L44.2832 42.6906C44.2733 42.6804 44.2612 42.6723 44.2479 42.667C44.2346 42.6617 44.2204 42.6593 44.2061 42.6598C44.1917 42.66 44.1776 42.6632 44.1646 42.6692C44.1517 42.6752 44.1401 42.6839 44.1307 42.6947ZM36.7064 33.6825C35.1621 33.0421 34.1717 33.4556 32.9645 32.9485C32.5021 32.7314 31.949 32.3491 31.9463 31.8748C31.9463 31.8717 31.9464 31.869 31.9466 31.8658C31.9639 31.6483 32.0389 31.4591 32.1718 31.2982L32.1702 31.297C32.3467 31.0899 32.5887 30.9239 32.9582 30.7709C33.99 30.3423 35.1472 30.4268 36.2028 30.6704C36.6994 30.7849 37.1457 30.9435 37.5521 31.1366C37.6459 31.1821 37.7478 31.2085 37.8518 31.2144C37.9559 31.2202 38.0601 31.2054 38.1583 31.1707C38.2566 31.136 38.347 31.0822 38.4244 31.0124C38.5017 30.9425 38.5645 30.858 38.609 30.7638C38.6534 30.6695 38.6788 30.5674 38.6835 30.4633C38.6883 30.3592 38.6723 30.2551 38.6366 30.1572C38.6009 30.0593 38.5461 29.9695 38.4755 29.8929C38.4048 29.8163 38.3196 29.7544 38.2249 29.711C37.3417 29.2928 36.407 29.0471 35.3908 28.9429C35.3648 28.9403 35.3407 28.9282 35.3232 28.9088C35.3058 28.8894 35.2961 28.8642 35.2962 28.8382V28.3368C35.2962 28.1273 35.213 27.9264 35.0649 27.7783C34.9167 27.6301 34.7158 27.5469 34.5063 27.5469C34.2968 27.5469 34.0959 27.6301 33.9477 27.7783C33.7996 27.9264 33.7164 28.1273 33.7164 28.3368V28.8529C33.7164 28.9055 33.6786 28.9493 33.6268 28.9571C33.1881 29.0231 32.767 29.1401 32.3601 29.3153C31.7594 29.5639 31.2919 29.8897 30.9578 30.2936L30.9562 30.2924C30.1915 31.2184 30.1737 32.4549 30.9438 33.3873C31.2611 33.7713 31.7632 34.145 32.3542 34.4038L32.3537 34.405C33.8727 35.0428 34.9241 34.6326 36.1167 35.1449L36.1192 35.146C36.4675 35.3063 36.7234 35.4873 36.8888 35.6884C37.0123 35.8365 37.09 36.0173 37.1126 36.2088C37.1138 36.2172 37.1138 36.2258 37.1126 36.2343C37.0874 36.4408 37.0113 36.6227 36.8828 36.7791C36.3861 37.3839 35.3036 37.6215 34.5063 37.6215C33.4535 37.6215 32.4024 37.3843 31.4311 36.9448C31.3367 36.9023 31.2348 36.8787 31.1313 36.8756C31.0278 36.8724 30.9247 36.8896 30.8278 36.9263C30.731 36.9629 30.6423 37.0183 30.5669 37.0893C30.4914 37.1602 30.4307 37.2453 30.3882 37.3397C30.3456 37.4341 30.3221 37.536 30.3189 37.6395C30.3157 37.743 30.3329 37.8461 30.3696 37.943C30.4063 38.0398 30.4617 38.1285 30.5326 38.204C30.6036 38.2794 30.6887 38.3401 30.7831 38.3827C31.6986 38.7969 32.636 39.0496 33.6216 39.1495C33.6476 39.1521 33.6717 39.1642 33.6892 39.1836C33.7067 39.203 33.7163 39.2282 33.7162 39.2543V39.7505C33.7162 39.96 33.7995 40.161 33.9476 40.3091C34.0958 40.4572 34.2967 40.5405 34.5062 40.5405C34.7157 40.5405 34.9166 40.4572 35.0647 40.3091C35.2129 40.161 35.2961 39.96 35.2961 39.7505V39.2413C35.2961 39.1885 35.3343 39.1445 35.3865 39.137C35.8415 39.0724 36.2862 38.9489 36.7094 38.7697C37.8207 38.3054 38.6077 37.4599 38.6922 36.2831C38.6945 36.2496 38.6942 36.2157 38.6922 36.1813C38.6213 35.0137 37.8001 34.1372 36.7064 33.6825ZM26.3482 25.8857C21.8427 30.3913 21.8427 37.6965 26.3481 42.2019C30.8536 46.7073 38.1587 46.7073 42.6642 42.202C47.1697 37.6965 47.1697 30.3913 42.6643 25.8858C38.1587 21.3803 30.8536 21.3803 26.3482 25.8857Z" fill="#31C9AA"/>
<path fill-rule="evenodd" clip-rule="evenodd" d="M40.7001 27.8503C44.1207 31.2708 44.1206 36.8171 40.7001 40.2376C37.2796 43.658 31.7333 43.6582 28.3128 40.2376C24.8923 36.817 24.8923 31.2707 28.3128 27.8503C31.7333 24.4298 37.2795 24.4297 40.7001 27.8503ZM44.1309 42.6947C43.8273 43.0311 43.5067 43.3517 43.1704 43.6552C43.1482 43.6753 43.1364 43.7008 43.1356 43.7307C43.1349 43.7606 43.1453 43.7867 43.1664 43.8079L45.5079 46.1494C45.5269 46.1683 45.5379 46.1938 45.5387 46.2206C45.5395 46.2474 45.5301 46.2736 45.5123 46.2936C45.0004 46.8718 45.0231 47.6935 45.5488 48.2192L49.69 52.3604C50.2318 52.9023 51.1144 52.9023 51.6563 52.3604L52.8361 51.1806C53.1053 50.9114 53.2399 50.5549 53.2399 50.1975H53.2425C53.2425 49.8417 53.107 49.4853 52.8361 49.2143L48.6949 45.073C48.1691 44.5473 47.3474 44.5248 46.7693 45.0366C46.7492 45.0544 46.7231 45.0639 46.6963 45.0631C46.6694 45.0623 46.644 45.0512 46.625 45.0323L44.2834 42.6907C44.2734 42.6804 44.2614 42.6724 44.2481 42.6671C44.2348 42.6618 44.2205 42.6593 44.2062 42.6599C44.1919 42.6601 44.1778 42.6633 44.1648 42.6693C44.1518 42.6753 44.1403 42.6839 44.1309 42.6947ZM36.7066 33.6825C35.1622 33.0421 34.1719 33.4556 32.9647 32.9486C32.5022 32.7314 31.9492 32.3492 31.9465 31.8749C31.9465 31.8717 31.9466 31.869 31.9468 31.8659C31.9641 31.6484 32.0391 31.4591 32.172 31.2983L32.1704 31.2971C32.3469 31.09 32.5889 30.924 32.9584 30.771C33.9902 30.3424 35.1473 30.4268 36.2029 30.6704C36.6996 30.785 37.1459 30.9436 37.5523 31.1367C37.6461 31.1821 37.748 31.2086 37.852 31.2144C37.9561 31.2203 38.0603 31.2054 38.1585 31.1708C38.2568 31.1361 38.3472 31.0823 38.4246 31.0124C38.5019 30.9426 38.5647 30.8581 38.6091 30.7638C38.6536 30.6696 38.679 30.5674 38.6837 30.4633C38.6885 30.3592 38.6725 30.2552 38.6368 30.1573C38.6011 30.0594 38.5463 29.9695 38.4756 29.8929C38.405 29.8163 38.3198 29.7545 38.2251 29.711C37.3419 29.2928 36.4072 29.0472 35.3909 28.9429C35.365 28.9404 35.3409 28.9282 35.3234 28.9088C35.306 28.8895 35.2963 28.8643 35.2964 28.8382V28.3369C35.2964 28.1274 35.2132 27.9265 35.0651 27.7783C34.9169 27.6302 34.716 27.547 34.5065 27.547C34.297 27.547 34.0961 27.6302 33.9479 27.7783C33.7998 27.9265 33.7165 28.1274 33.7165 28.3369V28.853C33.7165 28.9055 33.6788 28.9493 33.6269 28.9571C33.1882 29.0231 32.7672 29.1402 32.3603 29.3153C31.7596 29.564 31.2921 29.8898 30.958 30.2936L30.9564 30.2924C30.1917 31.2184 30.1739 32.4549 30.944 33.3873C31.2613 33.7714 31.7634 34.1451 32.3544 34.4038L32.3538 34.405C33.8729 35.0429 34.9242 34.6326 36.1169 35.1449L36.1194 35.146C36.4677 35.3063 36.7236 35.4873 36.8889 35.6885C37.0124 35.8365 37.0902 36.0173 37.1128 36.2088C37.114 36.2173 37.114 36.2259 37.1128 36.2343C37.0876 36.4409 37.0115 36.6228 36.883 36.7791C36.3863 37.3839 35.3038 37.6216 34.5065 37.6216C33.4537 37.6216 32.4026 37.3844 31.4313 36.9449C31.3369 36.9023 31.235 36.8788 31.1315 36.8756C31.028 36.8724 30.9249 36.8897 30.828 36.9263C30.7312 36.963 30.6425 37.0184 30.5671 37.0893C30.4916 37.1603 30.4309 37.2454 30.3884 37.3398C30.3458 37.4342 30.3223 37.5361 30.3191 37.6396C30.3159 37.7431 30.3331 37.8462 30.3698 37.943C30.4065 38.0399 30.4619 38.1286 30.5328 38.204C30.6038 38.2794 30.6889 38.3402 30.7833 38.3827C31.6988 38.7969 32.6362 39.0497 33.6218 39.1496C33.6478 39.1522 33.6719 39.1643 33.6894 39.1837C33.7069 39.203 33.7165 39.2282 33.7164 39.2543V39.7506C33.7164 39.9601 33.7997 40.161 33.9478 40.3092C34.0959 40.4573 34.2969 40.5405 34.5064 40.5405C34.7159 40.5405 34.9168 40.4573 35.0649 40.3092C35.2131 40.161 35.2963 39.9601 35.2963 39.7506V39.2413C35.2963 39.1886 35.3345 39.1446 35.3867 39.137C35.8417 39.0724 36.2864 38.949 36.7096 38.7698C37.8209 38.3054 38.6079 37.46 38.6924 36.2832C38.6947 36.2497 38.6944 36.2158 38.6924 36.1814C38.6215 35.0138 37.8003 34.1373 36.7066 33.6825ZM26.3484 25.8858C21.8429 30.3913 21.8429 37.6965 26.3483 42.2019C30.8538 46.7074 38.1589 46.7074 42.6643 42.202C47.1699 37.6965 47.1699 30.3913 42.6645 25.8859C38.1589 21.3803 30.8538 21.3803 26.3484 25.8858Z" fill="#0D8A71"/>
</svg>
