<svg width="57" height="56" viewBox="0 0 57 56" fill="none" xmlns="http://www.w3.org/2000/svg">
<path d="M20.625 34.125V24.5C20.625 24.2679 20.5328 24.0454 20.3687 23.8813C20.2046 23.7172 19.9821 23.625 19.75 23.625H16.25C16.0179 23.625 15.7954 23.7172 15.6313 23.8813C15.4672 24.0454 15.375 24.2679 15.375 24.5V34.125H17.125V25.375H18.875V34.125H20.625ZM34.625 37.625V25.375C34.625 25.1429 34.5328 24.9204 34.3687 24.7563C34.2046 24.5922 33.9821 24.5 33.75 24.5H30.25C30.0179 24.5 29.7954 24.5922 29.6313 24.7563C29.4672 24.9204 29.375 25.1429 29.375 25.375V37.625H31.125V26.25H32.875V37.625H34.625ZM27.625 37.625V21.875C27.625 21.6429 27.5328 21.4204 27.3687 21.2563C27.2046 21.0922 26.9821 21 26.75 21H23.25C23.0179 21 22.7954 21.0922 22.6313 21.2563C22.4672 21.4204 22.375 21.6429 22.375 21.875V35.875H24.125V22.75H25.875V37.625H27.625ZM41.625 30.625V21.875C41.625 21.6429 41.5328 21.4204 41.3687 21.2563C41.2046 21.0922 40.9821 21 40.75 21H37.25C37.0179 21 36.7954 21.0922 36.6313 21.2563C36.4672 21.4204 36.375 21.6429 36.375 21.875V31.5H38.125V22.75H39.875V30.625H41.625ZM48.625 29.75V16.625C48.625 16.3929 48.5328 16.1704 48.3687 16.0063C48.2046 15.8422 47.9821 15.75 47.75 15.75H44.25C44.0179 15.75 43.7954 15.8422 43.6313 16.0063C43.4672 16.1704 43.375 16.3929 43.375 16.625V29.75H45.125V17.5H46.875V29.75H48.625Z" fill="#0A8020"/>
<path d="M15.6313 21.6187C15.7954 21.7828 16.0179 21.875 16.25 21.875C16.4821 21.875 16.7046 21.7828 16.8687 21.6187L24.0915 14.3958L31.3497 22.4604C31.4291 22.5487 31.5257 22.6198 31.6336 22.6696C31.7414 22.7193 31.8583 22.7466 31.977 22.7497L32 22.75C32.2321 22.75 32.4546 22.6578 32.6187 22.4937L44.25 10.8625V13.125C44.25 13.3571 44.3422 13.5796 44.5063 13.7437C44.6704 13.9078 44.8929 14 45.125 14H48.625C48.8571 14 49.0796 13.9078 49.2437 13.7437C49.4078 13.5796 49.5 13.3571 49.5 13.125V2.625C49.5 2.39294 49.4078 2.17038 49.2437 2.00628C49.0796 1.84219 48.8571 1.75 48.625 1.75H38.125C37.8929 1.75 37.6704 1.84219 37.5063 2.00628C37.3422 2.17038 37.25 2.39294 37.25 2.625V6.125C37.25 6.35706 37.3422 6.57962 37.5063 6.74372C37.6704 6.90781 37.8929 7 38.125 7H40.3876L32.0335 15.3541L24.7753 7.28963C24.6959 7.20134 24.5993 7.13016 24.4914 7.08042C24.3836 7.03067 24.2667 7.00341 24.148 7.00029C24.0292 6.99717 23.9111 7.01826 23.8008 7.06226C23.6905 7.10627 23.5903 7.17228 23.5063 7.25627L13.0063 17.7563C12.925 17.8375 12.8606 17.934 12.8166 18.0401C12.7726 18.1463 12.75 18.2601 12.75 18.375C12.75 18.4899 12.7726 18.6037 12.8166 18.7099C12.8606 18.816 12.925 18.9125 13.0063 18.9937L15.6313 21.6187ZM24.0915 9.14583L31.3497 17.2104C31.4291 17.2987 31.5257 17.3698 31.6336 17.4196C31.7414 17.4693 31.8583 17.4966 31.977 17.4997C32.0958 17.5028 32.2139 17.4817 32.3242 17.4377C32.4345 17.3937 32.5347 17.3277 32.6187 17.2437L43.1187 6.74373C43.2411 6.62136 43.3245 6.46545 43.3582 6.29571C43.392 6.12598 43.3747 5.95004 43.3084 5.79015C43.2422 5.63026 43.13 5.4936 42.9861 5.39745C42.8422 5.30131 42.6731 5.24999 42.5 5.25H39V3.5H47.75V12.25H46V8.75C46 8.57694 45.9487 8.40776 45.8526 8.26386C45.7564 8.11996 45.6197 8.0078 45.4599 7.94158C45.3 7.87535 45.124 7.85802 44.9543 7.89178C44.7846 7.92555 44.6286 8.00889 44.5063 8.13127L32.0335 20.6042L24.7753 12.5396C24.6959 12.4513 24.5993 12.3802 24.4914 12.3304C24.3836 12.2807 24.2667 12.2534 24.148 12.2503C24.1403 12.2501 24.1327 12.25 24.125 12.25C23.8929 12.25 23.6704 12.3422 23.5063 12.5063L16.25 19.7625L14.8624 18.375L24.0915 9.14583ZM10.125 53.375V51.625H12.75C12.9821 51.625 13.2046 51.5328 13.3687 51.3687C13.5328 51.2046 13.625 50.9821 13.625 50.75V48.4575C17.8031 52.2927 23.301 54.3661 28.9712 54.2448C34.6414 54.1235 40.0456 51.817 44.056 47.8067L53.6187 38.2442C54.1969 37.6661 54.5437 36.8965 54.5938 36.0804C54.6438 35.2643 54.3937 34.458 53.8905 33.8136C53.3873 33.1692 52.6658 32.731 51.8619 32.5817C51.058 32.4324 50.2273 32.5822 49.5263 33.0029C49.2275 32.5406 48.8213 32.1575 48.3424 31.8863C47.8634 31.615 47.3259 31.4638 46.7758 31.4455C46.2257 31.4271 45.6793 31.5422 45.1833 31.7809C44.6873 32.0196 44.2565 32.3748 43.9277 32.8162L43.5567 33.3139C43.367 33.1684 43.1639 33.0413 42.9501 32.9343C42.4974 32.708 42.0037 32.5755 41.4986 32.5448C40.9934 32.514 40.4873 32.5857 40.0105 32.7555C39.5338 32.9253 39.0963 33.1897 38.7243 33.5328C38.3523 33.8759 38.0534 34.2907 37.8458 34.7522L35.64 39.6538C35.1779 39.4694 34.685 39.3748 34.1875 39.375H23.6124L22.1187 37.8813C21.0226 36.7882 19.5982 36.0849 18.064 35.8792C16.5297 35.6735 14.9704 35.9767 13.625 36.7423V35.875C13.625 35.6429 13.5328 35.4204 13.3687 35.2563C13.2046 35.0922 12.9821 35 12.75 35H10.125V34.125C10.125 33.8929 10.0328 33.6704 9.86872 33.5063C9.70462 33.3422 9.48206 33.25 9.25 33.25H2.25V35H8.375V52.5H2.25V54.25H9.25C9.48206 54.25 9.70462 54.1578 9.86872 53.9937C10.0328 53.8296 10.125 53.6071 10.125 53.375ZM47.5167 33.4305C47.8157 33.6101 48.0502 33.8796 48.187 34.2005L41.2444 41.1432C40.3151 42.0738 39.266 42.8764 38.1247 43.5298L45.3307 33.8622C45.5761 33.5311 45.936 33.3035 46.3402 33.2236C46.7445 33.1438 47.1639 33.2175 47.5167 33.4305ZM39.4415 35.4703C39.5525 35.2239 39.712 35.0024 39.9107 34.8191C40.1094 34.6359 40.343 34.4947 40.5976 34.404C40.8522 34.3134 41.1225 34.2751 41.3922 34.2915C41.662 34.3079 41.9257 34.3786 42.1674 34.4995C42.2888 34.5604 42.4037 34.6335 42.5104 34.7176L37.5849 41.3257C37.4472 41.0905 37.2855 40.8702 37.1026 40.6683L39.4415 35.4703ZM20.8813 39.1187L22.6313 40.8687C22.7125 40.95 22.809 41.0144 22.9151 41.0584C23.0213 41.1024 23.1351 41.125 23.25 41.125H34.1875C34.7677 41.125 35.3241 41.3555 35.7343 41.7657C36.1445 42.1759 36.375 42.7323 36.375 43.3125C36.375 43.8927 36.1445 44.4491 35.7343 44.8593C35.3241 45.2695 34.7677 45.5 34.1875 45.5H23.25V47.25H34.1875C34.7289 47.2502 35.2646 47.1384 35.7607 46.9216C36.2569 46.7048 36.7029 46.3878 37.0706 45.9904C39.0957 45.1575 40.9351 43.9305 42.4818 42.3806L50.1186 34.7438C50.4194 34.447 50.8254 34.2812 51.2479 34.2826C51.6705 34.284 52.0754 34.4525 52.3742 34.7513C52.6729 35.0501 52.8414 35.455 52.8428 35.8775C52.8442 36.3001 52.6783 36.7061 52.3815 37.0068L42.8184 46.5693C39.0209 50.3667 33.8703 52.5 28.4999 52.5C23.1295 52.4999 17.979 50.3665 14.1815 46.569L13.625 46.0125V38.8805C14.6396 37.9934 15.9531 37.5246 17.3001 37.5688C18.6471 37.613 19.927 38.167 20.8813 39.1187ZM11.875 36.75V49.875H10.125V36.75H11.875Z" fill="#0A8020"/>
</svg>
