<svg width="55" height="72" viewBox="0 0 55 72" fill="none" xmlns="http://www.w3.org/2000/svg">
<path d="M21.8334 52.8585H16.1667C8.34257 52.8585 2 59.201 2 67.0252V70.1418H53.0001V67.0252C53.0001 59.201 46.6575 52.8585 38.8334 52.8585H33.1667" stroke="#630EFD" stroke-width="3" stroke-miterlimit="10" stroke-linecap="round" stroke-linejoin="round"/>
<path d="M43.0832 30.1917C43.0832 21.5852 36.1063 14.6083 27.4999 14.6083C18.8935 14.6083 11.9165 21.5852 11.9165 30.1917" stroke="#630EFD" stroke-width="3" stroke-miterlimit="10" stroke-linecap="round" stroke-linejoin="round"/>
<path d="M11.9165 30.1916C11.9165 35.7298 14.8102 40.5835 19.1649 43.3443C20.8148 44.3902 21.8332 46.1871 21.8332 48.1406V52.8583C21.8332 55.9879 24.3703 58.525 27.4999 58.525C30.6294 58.525 33.1666 55.9879 33.1666 52.8583V48.1406C33.1666 46.1871 34.185 44.3902 35.8349 43.3443C40.1896 40.5835 43.0832 35.7298 43.0832 30.1916" stroke="#630EFD" stroke-width="3" stroke-miterlimit="10" stroke-linecap="round" stroke-linejoin="round"/>
<path d="M21.8335 48.6083V52.8583C21.8335 55.9879 24.3706 58.525 27.5002 58.525C30.6297 58.525 33.1669 55.9879 33.1669 52.8583V48.6083H21.8335Z" stroke="#630EFD" stroke-width="3" stroke-miterlimit="10" stroke-linecap="round" stroke-linejoin="round"/>
<path d="M27.5 6.10828V1.85827" stroke="#630EFD" stroke-width="3" stroke-miterlimit="10" stroke-linecap="round" stroke-linejoin="round"/>
<path d="M15.4585 9.33484L13.3335 5.65419" stroke="#630EFD" stroke-width="3" stroke-miterlimit="10" stroke-linecap="round" stroke-linejoin="round"/>
<path d="M6.64305 18.15L2.9624 16.025" stroke="#630EFD" stroke-width="3" stroke-miterlimit="10" stroke-linecap="round" stroke-linejoin="round"/>
<path d="M48.3569 18.15L52.0376 16.025" stroke="#630EFD" stroke-width="3" stroke-miterlimit="10" stroke-linecap="round" stroke-linejoin="round"/>
<path d="M39.542 9.33484L41.667 5.65419" stroke="#630EFD" stroke-width="3" stroke-miterlimit="10" stroke-linecap="round" stroke-linejoin="round"/>
<path d="M27.5 48.6084V34.4417" stroke="#630EFD" stroke-width="3" stroke-miterlimit="10" stroke-linecap="round" stroke-linejoin="round"/>
<path d="M31.75 30.1916L27.5 34.4417L23.25 30.1916" stroke="#630EFD" stroke-width="3" stroke-miterlimit="10" stroke-linecap="round" stroke-linejoin="round"/>
</svg>
