<svg width="57" height="56" viewBox="0 0 57 56" fill="none" xmlns="http://www.w3.org/2000/svg">
<path fill-rule="evenodd" clip-rule="evenodd" d="M50.8727 49.73H40.8461V46.4429C40.8643 45.585 41.0361 44.8402 41.41 44.1238C42.2818 42.4514 43.9871 41.4123 45.8591 41.4123C48.6236 41.4123 50.8727 43.6608 50.8727 46.4253V49.73ZM36.8278 49.73H29.3758V46.4253C29.3758 43.6608 31.625 41.4123 34.3895 41.4123C37.154 41.4123 39.4025 43.6608 39.4025 46.4253V49.73H36.8278ZM17.9061 49.73V46.4253C17.9061 43.6608 20.1546 41.4123 22.9191 41.4123C25.4877 41.4123 27.6802 43.4156 27.9126 45.9726L27.9327 46.4794V49.73H17.9061ZM10.9451 30.3611V49.73H16.4624V46.4253C16.4624 43.7673 18.0783 41.4798 20.3779 40.4906C19.5792 39.8044 19.0724 38.7896 19.0724 37.6556C19.0724 35.8767 20.3214 34.385 21.989 34.0108V30.3611H10.9451ZM7.6599 32.1692L6.34636 27.2694H26.5877L25.2748 32.1693H23.432V29.6391C23.4318 29.4478 23.3558 29.2643 23.2205 29.129C23.0852 28.9937 22.9018 28.9177 22.7105 28.9176H10.2236C10.0323 28.9177 9.84881 28.9937 9.71353 29.129C9.57825 29.2643 9.50219 29.4478 9.50208 29.6391V32.1693H7.6599V32.1692ZM14.5279 18.2028C16.7581 17.9833 19.1387 18.6261 21.9294 18.4369C23.7711 18.3122 25.1119 18.2807 27.1005 17.9533L31.8075 17.1789C31.9053 17.1853 31.9991 17.2198 32.0777 17.2782C32.1564 17.3365 32.2166 17.4163 32.2511 17.508C32.2858 17.6012 32.2926 17.7026 32.2704 17.7996C32.2482 17.8966 32.1981 17.985 32.1263 18.0538C30.5945 19.043 28.5777 19.579 26.4429 20.1466L24.6804 20.5859C23.1011 20.9303 21.4694 21.2861 21.1488 23.6193C21.0655 24.2265 21.06 24.9541 21.1342 25.8259H10.7681C10.4687 18.5531 13.5027 18.2916 14.5279 18.2028ZM16.4923 11.3274C17.981 11.3274 19.1923 12.5387 19.1923 14.0274C19.1923 15.5173 17.981 16.7286 16.4923 16.7286C15.0031 16.7286 13.7911 15.5173 13.7911 14.0274C13.7911 12.5388 15.003 11.3274 16.4923 11.3274ZM43.4865 22.9389C43.8752 22.9389 44.1909 23.2559 44.1909 23.6434C44.1908 23.8302 44.1166 24.0093 43.9845 24.1414C43.8524 24.2735 43.6733 24.3477 43.4865 24.3479C43.2997 24.3477 43.1206 24.2734 42.9885 24.1413C42.8565 24.0092 42.7822 23.8302 42.782 23.6434C42.782 23.2559 43.0984 22.9389 43.4865 22.9389ZM38.1961 22.9389C38.5849 22.9389 38.9006 23.2559 38.9006 23.6434C38.9006 24.0321 38.5849 24.3479 38.1961 24.3479C37.8074 24.3479 37.4917 24.0321 37.4917 23.6434C37.4915 23.2559 37.8073 22.9389 38.1961 22.9389ZM34.3007 9.79738L32.0454 10.9826V15.7528C33.7131 15.9846 34.3217 18.1027 33.0268 19.1834C32.8673 19.3165 32.2548 19.6533 32.0454 19.7608C32.0454 22.48 33.2577 24.8274 35.4827 26.3903L40.8412 30.1549L46.1998 26.3903C48.4173 24.8335 49.6383 22.484 49.6383 19.7742V10.9826L47.3818 9.79738V17.1204C47.3818 17.2363 47.3538 17.3504 47.3004 17.4533C47.2469 17.5561 47.1694 17.6445 47.0746 17.7111L44.208 19.7199V21.6204C45.0384 21.9179 45.6339 22.7131 45.6339 23.6433C45.6339 24.8278 44.6709 25.7909 43.4863 25.7909C42.3031 25.7909 41.3387 24.8278 41.3387 23.6433C41.3387 22.7131 41.9344 21.9179 42.7647 21.6204V19.345C42.7648 19.2291 42.7928 19.1148 42.8464 19.012C42.9 18.9092 42.9776 18.8208 43.0726 18.7544L45.938 16.7449V9.04059L41.5626 6.74336V12.007C42.3931 12.3045 42.9886 13.0985 42.9886 14.0293C42.9886 15.2138 42.0255 16.1775 40.841 16.1775C39.6565 16.1775 38.6934 15.2138 38.6934 14.0293C38.6934 13.0985 39.289 12.3045 40.1194 12.007V6.74336L35.7443 9.04059V16.7451L38.6104 18.7546C38.7053 18.8212 38.7827 18.9096 38.8362 19.0124C38.8896 19.1152 38.9176 19.2294 38.9176 19.3453V21.6207C39.7481 21.9181 40.3436 22.7133 40.3436 23.6435C40.3436 24.828 39.3805 25.7911 38.196 25.7911C37.0115 25.7911 36.0484 24.828 36.0484 23.6435C36.0484 22.7133 36.644 21.9181 37.4738 21.6207V19.7201L34.6078 17.7113C34.5128 17.6448 34.4353 17.5564 34.3818 17.4536C34.3283 17.3507 34.3005 17.2365 34.3006 17.1206V9.79738H34.3007ZM40.8412 13.3254C41.028 13.3254 41.2071 13.3995 41.3392 13.5315C41.4713 13.6635 41.5456 13.8426 41.5457 14.0293C41.5457 14.2161 41.4715 14.3953 41.3394 14.5274C41.2073 14.6596 41.0281 14.7338 40.8412 14.7338C40.6544 14.7338 40.4752 14.6596 40.3431 14.5274C40.211 14.3953 40.1368 14.2161 40.1368 14.0293C40.1369 13.8426 40.2112 13.6635 40.3433 13.5315C40.4754 13.3995 40.6545 13.3254 40.8412 13.3254ZM25.1027 37.6556C25.1027 38.9204 24.0739 39.9486 22.8085 39.9486C21.5442 39.9486 20.5155 38.9204 20.5155 37.6556C20.5155 36.3913 21.5442 35.3621 22.8085 35.3621C24.0738 35.3619 25.1027 36.3913 25.1027 37.6556ZM34.4175 35.3619C35.6817 35.3619 36.7105 36.3913 36.7105 37.6555C36.7105 38.9203 35.6817 39.9485 34.4175 39.9485C33.152 39.9485 32.1233 38.9203 32.1233 37.6555C32.1233 36.3913 33.152 35.3619 34.4175 35.3619ZM45.8592 35.382C47.124 35.382 48.1522 36.4107 48.1522 37.675C48.1522 38.9405 47.124 39.9692 45.8592 39.9692C44.595 39.9692 43.5656 38.9405 43.5656 37.675C43.5656 36.4108 44.595 35.382 45.8592 35.382ZM48.3413 40.4656C49.1109 39.7806 49.5958 38.7847 49.5958 37.675C49.5958 35.6151 47.9198 33.9383 45.8592 33.9383C43.7993 33.9383 42.122 35.6151 42.122 37.675C42.122 38.7847 42.608 39.7806 43.3765 40.4656C42.035 41.0259 40.8053 42.1068 40.1253 43.4667C39.4299 42.1234 38.2777 41.0545 36.8748 40.4675C37.6583 39.7812 38.1536 38.7756 38.1536 37.6556C38.1536 35.5956 36.4775 33.9184 34.4176 33.9184C32.3563 33.9184 30.6804 35.5957 30.6804 37.6556C30.6804 38.7671 31.1689 39.7672 31.9427 40.4523C30.5203 41.037 29.3523 42.115 28.6508 43.4729C27.9348 42.1004 26.7399 41.015 25.3042 40.4346C26.0664 39.7508 26.5465 38.7586 26.5465 37.6556C26.5465 35.8074 25.1971 34.2694 23.4322 33.9725V33.6123H25.8285C25.9874 33.6124 26.1419 33.56 26.268 33.4633C26.394 33.3666 26.4847 33.231 26.5257 33.0775L28.2256 26.7351C28.3481 26.2781 28.0018 25.8256 27.5284 25.8256H22.5835C22.5086 25.0116 22.5068 24.3369 22.5792 23.8168C22.7532 22.5465 23.3342 22.3566 24.9883 21.9959L26.8147 21.5408C28.0983 21.2001 29.4057 20.8509 30.6201 20.3891C30.7935 23.3221 32.2098 25.8554 34.653 27.571L40.4265 31.6271C40.5481 31.7123 40.693 31.758 40.8414 31.758C40.9899 31.758 41.1347 31.7123 41.2563 31.6271L47.0298 27.571C49.6422 25.7361 51.0815 22.9668 51.0815 19.7741V10.5463C51.0815 10.4146 51.0455 10.2855 50.9772 10.1729C50.909 10.0602 50.8113 9.96845 50.6945 9.90747L41.0834 4.87016C40.8421 4.7912 40.707 4.82637 40.4957 4.91575L30.988 9.90747C30.8714 9.96847 30.7737 10.0603 30.7056 10.1729C30.6375 10.2855 30.6016 10.4147 30.6018 10.5463V15.9146L26.8658 16.5297C24.9563 16.8441 23.6223 16.8759 21.8315 16.9975C20.9785 17.0548 20.1743 17.031 19.3986 16.978C20.1616 16.2261 20.636 15.1814 20.636 14.0274C20.636 11.7435 18.7768 9.8844 16.4923 9.8844C14.2073 9.8844 12.3481 11.7436 12.3481 14.0274C12.3481 15.1468 12.7947 16.1628 13.5186 16.9093C9.83729 17.8001 9.17324 21.9878 9.32388 25.8256H5.40646C4.93348 25.8256 4.58673 26.2782 4.7087 26.7351L6.40908 33.0775C6.45014 33.2309 6.54067 33.3664 6.66662 33.4631C6.79258 33.5598 6.94693 33.6122 7.10572 33.6123H9.50208V50.4515C9.50205 50.6429 9.57803 50.8265 9.71333 50.9619C9.84862 51.0974 10.0322 51.1735 10.2236 51.1737H51.5944C51.7858 51.1735 51.9693 51.0974 52.1046 50.9619C52.2399 50.8265 52.3159 50.6429 52.3159 50.4515V46.4253C52.3159 43.7448 50.6726 41.4402 48.3413 40.4656Z" fill="#1C31B5"/>
</svg>
