<svg width="70" height="70" viewBox="0 0 70 70" fill="none" xmlns="http://www.w3.org/2000/svg">
<path d="M65.9285 34.3861C64.8676 29.5626 63.8654 25.0072 64.2195 20.4681C64.5217 16.5812 65.6742 12.8761 67.74 9.14234C67.8093 9.01751 67.8447 8.87676 67.8428 8.73403C67.8409 8.5913 67.8018 8.45154 67.7293 8.3286C67.6567 8.20565 67.5533 8.10378 67.4293 8.03309C67.3053 7.96239 67.165 7.92532 67.0223 7.92554H25.1645C25.0402 7.92544 24.9176 7.95358 24.8058 8.00781C24.694 8.06205 24.596 8.14097 24.5191 8.23862C24.0625 8.81831 23.651 9.45952 23.2846 10.1595H16.6359C16.1834 10.1595 15.8156 10.5273 15.8156 10.9798C15.8156 11.4324 16.1834 11.8001 16.6359 11.8001H22.5463C21.8859 13.5201 21.4402 15.5203 21.2119 17.7898H10.1254C9.67285 17.7898 9.30508 18.1576 9.30508 18.6101C9.30508 19.0626 9.67285 19.4304 10.1254 19.4304H21.0875C21.0738 19.7011 21.0615 19.9759 21.052 20.2535C20.9604 23.1806 21.2352 25.9779 21.6727 28.6917H12.1324C11.6799 28.6917 11.3121 29.0595 11.3121 29.5121C11.3121 29.9646 11.6799 30.3324 12.1324 30.3324H21.957C22.2879 32.122 22.6734 33.8789 23.0549 35.6138C23.3625 37.0111 23.6646 38.3865 23.9299 39.7455H12.1324C11.6799 39.7455 11.3121 40.1132 11.3121 40.5658C11.3121 41.0183 11.6799 41.3861 12.1324 41.3861H24.2334C24.7064 44.1423 24.973 46.8398 24.7639 49.5304C24.7365 49.8777 24.701 50.2236 24.66 50.5681H10.1254C9.67285 50.5681 9.30508 50.9359 9.30508 51.3884C9.30508 51.841 9.67285 52.2087 10.1254 52.2087H24.4125C24.0406 54.2322 23.4268 56.2187 22.5586 58.1984H16.6346C16.182 58.1984 15.8143 58.5662 15.8143 59.0187C15.8143 59.4712 16.182 59.839 16.6346 59.839H21.7793C21.607 60.1781 21.4293 60.5171 21.2406 60.8562C21.1714 60.981 21.136 61.1218 21.1378 61.2645C21.1397 61.4072 21.1789 61.547 21.2514 61.6699C21.3239 61.7929 21.4273 61.8947 21.5513 61.9654C21.6753 62.0361 21.8157 62.0732 21.9584 62.073H63.8176C63.9418 62.0731 64.0645 62.045 64.1763 61.9907C64.2881 61.9365 64.3861 61.8576 64.4629 61.7599C66.5984 59.0433 67.766 55.0005 67.9301 49.7437C68.1037 44.2736 66.9977 39.2464 65.9285 34.3861ZM66.2922 49.6958C66.1445 54.3894 65.1766 57.9988 63.4115 60.4351H23.3229C25.1029 56.8996 26.1119 53.3613 26.4004 49.6603C26.7736 44.8792 25.7455 40.2076 24.6586 35.2625C23.6113 30.4992 22.5285 25.5746 22.6926 20.3041C22.8402 15.6105 23.8082 12.0011 25.5732 9.5648H65.6619C63.8818 13.1003 62.8729 16.6386 62.5844 20.341C62.2111 25.122 63.2393 29.7937 64.3262 34.7388C65.3734 39.5007 66.4576 44.4267 66.2922 49.6958ZM40.3102 18.7619C40.3102 16.9298 41.7525 15.3945 43.6707 15.0199V13.3943C43.6707 12.9417 44.0385 12.574 44.491 12.574C44.9436 12.574 45.3113 12.9417 45.3113 13.3943V14.9912C46.8289 15.2291 48.11 16.1902 48.6199 17.5341C48.7799 17.958 48.5666 18.431 48.1428 18.5923C47.7189 18.7537 47.2459 18.539 47.0846 18.1152C46.7414 17.2074 45.7092 16.5744 44.5771 16.5744C43.1293 16.5744 41.9508 17.556 41.9508 18.7632C41.9508 19.3976 42.2256 20.1714 42.9994 20.4367L44.759 21.0396C44.7713 21.0437 44.7836 21.0492 44.7959 21.0533L46.9492 21.9119C48.0293 22.3425 48.6732 23.4472 48.6732 24.8677C48.6732 26.6998 47.2309 28.2351 45.3127 28.6097V30.2353C45.3127 30.6878 44.9449 31.0556 44.4924 31.0556C44.0398 31.0556 43.6721 30.6878 43.6721 30.2353V28.6384C42.1545 28.4005 40.8734 27.4394 40.3635 26.0955C40.2867 25.8918 40.2938 25.6661 40.3832 25.4677C40.4727 25.2693 40.6372 25.1145 40.8406 25.0373C41.0442 24.9604 41.27 24.9675 41.4684 25.057C41.6668 25.1465 41.8216 25.311 41.8988 25.5144C42.242 26.4222 43.2742 27.0552 44.4062 27.0552C45.8541 27.0552 47.0326 26.0736 47.0326 24.8664C47.0326 24.5957 46.9834 23.6906 46.3422 23.4349L44.2066 22.5845L42.4662 21.9884C41.1564 21.5373 40.3102 20.2726 40.3102 18.7619ZM28.8504 34.8837C28.8504 34.4312 29.2182 34.0634 29.6707 34.0634H58.7522C59.2047 34.0634 59.5725 34.4312 59.5725 34.8837C59.5725 35.3363 59.2047 35.7041 58.7522 35.7041H29.6707C29.2182 35.7041 28.8504 35.3363 28.8504 34.8837ZM60.133 42.1941C60.133 42.6466 59.7652 43.0144 59.3127 43.0144H30.6195C30.167 43.0144 29.7992 42.6466 29.7992 42.1941C29.7992 41.7416 30.167 41.3738 30.6195 41.3738H59.3127C59.7652 41.3738 60.133 41.7402 60.133 42.1941ZM60.133 49.5044C60.133 49.957 59.7652 50.3248 59.3127 50.3248H30.6195C30.167 50.3248 29.7992 49.957 29.7992 49.5044C29.7992 49.0519 30.167 48.6841 30.6195 48.6841H59.3127C59.7652 48.6841 60.133 49.0505 60.133 49.5044ZM59.5725 56.8148C59.5725 57.2673 59.2047 57.6351 58.7522 57.6351H29.6707C29.2182 57.6351 28.8504 57.2673 28.8504 56.8148C28.8504 56.3623 29.2182 55.9945 29.6707 55.9945H58.7522C59.2047 55.9945 59.5725 56.3609 59.5725 56.8148ZM2.70293 10.9785C2.70293 10.5259 3.0707 10.1582 3.52324 10.1582H12.8406C13.2932 10.1582 13.6609 10.5259 13.6609 10.9785C13.6609 11.431 13.2932 11.7988 12.8406 11.7988H3.52324C3.0707 11.7988 2.70293 11.4324 2.70293 10.9785ZM6.33008 17.7884C6.78262 17.7884 7.15039 18.1562 7.15039 18.6087C7.15039 19.0613 6.78262 19.4291 6.33008 19.4291H4.45566C4.00313 19.4291 3.63535 19.0613 3.63535 18.6087C3.63535 18.1562 4.00313 17.7884 4.45566 17.7884H6.33008ZM2.87109 35.8599C2.41855 35.8599 2.05078 35.4921 2.05078 35.0396C2.05078 34.5871 2.41855 34.2193 2.87109 34.2193H10.6463C11.0988 34.2193 11.4666 34.5871 11.4666 35.0396C11.4666 35.4921 11.0988 35.8599 10.6463 35.8599H2.87109ZM6.33008 50.5709C6.78262 50.5709 7.15039 50.9386 7.15039 51.3912C7.15039 51.8437 6.78262 52.2115 6.33008 52.2115H4.45566C4.00313 52.2115 3.63535 51.8437 3.63535 51.3912C3.63535 50.9386 4.00313 50.5709 4.45566 50.5709H6.33008ZM13.6609 59.0214C13.6609 59.474 13.2932 59.8418 12.8406 59.8418H3.52324C3.0707 59.8418 2.70293 59.474 2.70293 59.0214C2.70293 58.5689 3.0707 58.2011 3.52324 58.2011H12.8406C13.2932 58.2011 13.6609 58.5675 13.6609 59.0214Z" fill="#258436"/>
</svg>
