<svg width="75" height="75" viewBox="0 0 75 75" fill="none" xmlns="http://www.w3.org/2000/svg">
<path d="M56.0273 48.8086C55.9688 48.9492 55.9336 49.0898 55.9336 49.2539V50.1328C54.0234 50.3906 52.5469 52.0195 52.5469 54C52.5469 55.9805 54 57.6094 55.9102 57.8789L57.9141 58.1602C58.7227 58.2773 59.332 58.9805 59.332 59.7891C59.332 60.7031 58.5937 61.4414 57.6914 61.4414H56.4727C55.5703 61.4414 54.832 60.7031 54.832 59.7891V59.3906C54.832 58.7578 54.3281 58.2539 53.6953 58.2539C53.0625 58.2539 52.5586 58.7578 52.5586 59.3906V59.7891C52.5586 61.7695 54.0352 63.3984 55.9453 63.6563V64.5352C55.9453 65.168 56.4492 65.6719 57.082 65.6719C57.5508 65.6719 57.9609 65.3906 58.125 64.9805C58.1836 64.8398 58.2188 64.6992 58.2188 64.5352V63.6563C60.1289 63.3984 61.6055 61.7695 61.6055 59.7891C61.6055 57.8086 60.1641 56.1797 58.2422 55.9102L56.2383 55.6289C55.4297 55.5117 54.8203 54.8086 54.8203 54C54.8203 53.0859 55.5586 52.3477 56.4609 52.3477H57.6914C58.5937 52.3477 59.332 53.0859 59.332 54V54.3984C59.332 55.0312 59.8359 55.5352 60.4687 55.5352C61.1016 55.5352 61.6055 55.0312 61.6055 54.3984V54C61.6055 52.0195 60.1289 50.3906 58.2188 50.1328V49.2422C58.2188 48.6094 57.7148 48.1055 57.082 48.1055C56.6133 48.1055 56.2031 48.3867 56.0391 48.7969L56.0273 48.8086Z" fill="#0D8A71"/>
<path d="M57.5508 5.22656C56.9922 4.01536 56.0981 2.98967 54.9745 2.27103C53.8508 1.5524 52.5447 1.17095 51.2109 1.17188H13.5234C11.6689 1.17498 9.89123 1.91306 8.57987 3.22441C7.26852 4.53576 6.53044 6.31344 6.52734 8.16797V66.8203C6.52734 67.8399 6.76172 68.8594 7.19531 69.7617C8.30859 72.2227 10.8047 73.8164 13.5352 73.8164H51.2227C52.8227 73.8165 54.3744 73.2672 55.618 72.2604C56.8616 71.2536 57.7218 69.8502 58.0547 68.2852C63.8906 67.793 68.4961 62.8711 68.4961 56.8828C68.4961 50.8945 63.9844 46.0664 58.2188 45.4922V8.16797C58.2188 7.14844 57.9844 6.12891 57.5508 5.22656ZM51.2109 71.5547H13.5234C11.6836 71.5547 10.0078 70.4883 9.24609 68.8125C8.95312 68.1914 8.78906 67.5117 8.78906 66.832V8.16797C8.78906 5.55469 10.9102 3.4336 13.5234 3.4336H51.2109C53.0508 3.4336 54.7266 4.5 55.4883 6.17578C55.7812 6.79688 55.9336 7.47656 55.9336 8.15625V45.4922C50.168 46.0664 45.6562 50.9531 45.6562 56.8828C45.6562 62.8125 50.0508 67.5469 55.6875 68.2383C55.3889 69.1954 54.7925 70.0321 53.9852 70.6265C53.1779 71.221 52.2018 71.542 51.1992 71.543L51.2109 71.5547ZM66.2109 56.8945C66.2109 61.957 62.1094 66.0703 57.0703 66.0703C52.0312 66.0703 47.9297 61.957 47.9297 56.8945C47.9297 51.832 52.0312 47.7188 57.0703 47.7188C62.1094 47.7188 66.2109 51.832 66.2109 56.8945Z" fill="#0D8A71"/>
<path d="M18.4688 12.6211H21.0117V20.4023C21.0117 21.0352 21.5156 21.5391 22.1484 21.5391C22.7812 21.5391 23.2852 21.0352 23.2852 20.4023V12.6211H25.8398C26.4727 12.6211 26.9766 12.1172 26.9766 11.4844C26.9766 10.8516 26.4727 10.3477 25.8398 10.3477H18.4688C17.8359 10.3477 17.332 10.8516 17.332 11.4844C17.332 12.1172 17.8359 12.6211 18.4688 12.6211ZM28.1836 21.6914C28.8164 21.6914 29.3203 21.1875 29.3203 20.5547V16.9453H34.418V20.5547C34.418 21.1875 34.9219 21.6914 35.5547 21.6914C36.1875 21.6914 36.6914 21.1875 36.6914 20.5547V15.0352C36.6914 12.375 34.5234 10.2188 31.875 10.2188C29.2266 10.2188 27.0586 12.375 27.0586 15.0352V20.5547C27.0586 21.1875 27.5625 21.6914 28.1953 21.6914H28.1836ZM31.8633 12.4805C33.1406 12.4805 34.1953 13.4297 34.3711 14.6719H29.3438C29.4295 14.0666 29.7299 13.5122 30.1903 13.1099C30.6506 12.7077 31.2402 12.4843 31.8516 12.4805H31.8633ZM38.1563 21.2812C38.3672 21.457 38.625 21.5391 38.8828 21.5391C39.2109 21.5391 39.5391 21.3984 39.7617 21.1289L42.5742 17.7305L45.3867 21.1289C45.6094 21.3984 45.9375 21.5391 46.2656 21.5391C46.4804 21.5395 46.691 21.4789 46.8727 21.3643C47.0543 21.2497 47.1997 21.0859 47.2918 20.8918C47.384 20.6977 47.419 20.4815 47.3929 20.2683C47.3669 20.0551 47.2807 19.8536 47.1445 19.6875L44.0508 15.9492L47.1445 12.2109C47.3202 11.9779 47.3991 11.686 47.3649 11.3962C47.3307 11.1063 47.186 10.8409 46.9609 10.6551C46.7358 10.4693 46.4478 10.3775 46.1567 10.3988C45.8656 10.4201 45.594 10.5529 45.3984 10.7695L42.5859 14.168L39.7734 10.7695C39.5778 10.5529 39.3062 10.4201 39.0152 10.3988C38.7241 10.3775 38.436 10.4693 38.211 10.6551C37.9859 10.8409 37.8412 11.1063 37.807 11.3962C37.7728 11.686 37.8517 11.9779 38.0273 12.2109L41.1211 15.9492L38.0273 19.6875C37.8365 19.9192 37.7453 20.2171 37.7739 20.5159C37.8025 20.8147 37.9484 21.0899 38.1797 21.2812H38.1563ZM14.6719 27.4219H50.0508C50.6836 27.4219 51.1875 26.918 51.1875 26.2852C51.1875 25.6523 50.6836 25.1484 50.0508 25.1484H14.6719C14.0391 25.1484 13.5352 25.6523 13.5352 26.2852C13.5352 26.918 14.0391 27.4219 14.6719 27.4219ZM14.6719 32.1563H50.0508C50.6836 32.1563 51.1875 31.6523 51.1875 31.0195C51.1875 30.3867 50.6836 29.8828 50.0508 29.8828H14.6719C14.0391 29.8828 13.5352 30.3867 13.5352 31.0195C13.5352 31.6523 14.0391 32.1563 14.6719 32.1563ZM14.6719 36.8906H50.0508C50.6836 36.8906 51.1875 36.3867 51.1875 35.7539C51.1875 35.1211 50.6836 34.6172 50.0508 34.6172H14.6719C14.0391 34.6172 13.5352 35.1211 13.5352 35.7539C13.5352 36.3867 14.0391 36.8906 14.6719 36.8906ZM14.6719 41.6133H46.6055C47.2383 41.6133 47.7422 41.1094 47.7422 40.4766C47.7422 39.8438 47.2383 39.3398 46.6055 39.3398H14.6719C14.0391 39.3398 13.5352 39.8438 13.5352 40.4766C13.5352 41.1094 14.0391 41.6133 14.6719 41.6133ZM23.8359 46.5937C18.1523 46.5937 13.5352 51.2109 13.5352 56.8945C13.5352 62.5781 18.1523 67.1953 23.8359 67.1953C29.5195 67.1953 34.1367 62.5781 34.1367 56.8945C34.1367 51.2109 29.5195 46.5937 23.8359 46.5937ZM23.8359 64.9219C19.4062 64.9219 15.8086 61.3242 15.8086 56.8945C15.8086 52.4648 19.4062 48.8672 23.8359 48.8672C28.2656 48.8672 31.8633 52.4648 31.8633 56.8945C31.8633 61.3242 28.2656 64.9219 23.8359 64.9219Z" fill="#0D8A71"/>
<path d="M27.9844 52.8164L22.2305 58.5703L19.6992 56.0391C19.2539 55.5938 18.5391 55.5938 18.0938 56.0391C17.6484 56.4844 17.6484 57.1992 18.0938 57.6445L21.4219 60.9727C21.6345 61.1816 21.9206 61.2987 22.2187 61.2987C22.5169 61.2987 22.803 61.1816 23.0156 60.9727L29.5664 54.4219C30.0117 53.9766 30.0117 53.2617 29.5664 52.8164C29.1211 52.3711 28.4063 52.3711 27.9609 52.8164H27.9844Z" fill="#0D8A71"/>
</svg>
