<svg width="75" height="75" viewBox="0 0 75 75" fill="none" xmlns="http://www.w3.org/2000/svg">
<path d="M70.0001 21.2547L72.5245 19.8261C73.758 19.1279 74.1937 17.5563 73.4955 16.3226L65.6586 2.4753C64.9603 1.24161 63.3885 0.806111 62.1551 1.50426L59.4896 3.0129C58.8934 3.3504 58.4639 3.90118 58.28 4.56387C58.0964 5.22657 58.181 5.92003 58.5184 6.51622L59.1658 7.66026L58.6482 7.95924C52.4582 3.51622 45.1632 1.17188 37.4998 1.17188C31.4601 1.17188 25.5174 2.67481 20.2404 5.52686C18.3225 2.89044 15.2154 1.17188 11.713 1.17188C5.90046 1.17188 1.17165 5.90069 1.17165 11.713C1.17165 15.2155 2.8902 18.3226 5.52678 20.2405C2.67473 25.5176 1.17165 31.4605 1.17165 37.5C1.17165 43.1465 2.49177 48.7299 4.99958 53.7453L2.47521 55.1739C1.87902 55.5114 1.44953 56.0621 1.26584 56.7249C1.08215 57.3878 1.16682 58.0811 1.50417 58.6773L9.34108 72.5246C9.8135 73.3592 10.6858 73.8286 11.5826 73.8286C12.0112 73.8286 12.4455 73.7213 12.8444 73.4956L15.51 71.9868C16.7435 71.2887 17.1792 69.7172 16.481 68.4835L15.8336 67.3395L16.3511 67.0406C22.5412 71.4838 29.8362 73.8281 37.4998 73.8281C44.0668 73.8281 50.3552 72.109 55.913 68.8252L55.3107 70.1189C55.2073 70.3397 55.1666 70.5848 55.193 70.8272C55.2195 71.0696 55.3121 71.3001 55.4607 71.4935C55.6087 71.6877 55.8072 71.8374 56.0347 71.9262C56.2621 72.015 56.5096 72.0396 56.75 71.9971L58.4101 71.707L59.257 73.1643C59.3789 73.3752 59.5565 73.5485 59.7703 73.6654C59.9841 73.7822 60.2259 73.838 60.4693 73.8267C60.7133 73.8164 60.9498 73.7392 61.1529 73.6034C61.3559 73.4676 61.5176 73.2785 61.6203 73.0569L63.4621 69.1011L63.8054 68.9974C63.9434 68.9556 64.0461 68.9556 64.184 68.9974L64.5275 69.1012L66.3695 73.0581C66.4764 73.2887 66.6472 73.4839 66.8617 73.6204C67.0762 73.7568 67.3254 73.8289 67.5796 73.828C67.8131 73.8282 68.0426 73.7669 68.2449 73.6504C68.4473 73.5339 68.6154 73.3662 68.7324 73.1641L69.5791 71.707L71.2386 71.9969C71.4791 72.0395 71.7267 72.015 71.9543 71.9262C72.1818 71.8374 72.3805 71.6877 72.5286 71.4935C72.677 71.3001 72.7696 71.0696 72.796 70.8272C72.8225 70.5849 72.7819 70.3399 72.6787 70.119L70.9206 66.3429L71.1811 66.2315C72.4151 65.7032 73.1371 64.4525 72.9777 63.1198L72.8147 61.755C72.7975 61.6121 72.8154 61.5111 72.8804 61.3825L73.5004 60.1559C74.1059 58.9579 73.8551 57.5358 72.8765 56.6175L71.8744 55.677C71.7692 55.5782 71.7179 55.4895 71.6851 55.3493L71.3717 54.011C71.2388 53.444 70.955 52.9487 70.5672 52.563C72.7315 47.8272 73.8279 42.7649 73.8279 37.5C73.8279 31.8535 72.5079 26.2701 70.0001 21.2547ZM60.5385 5.1901C60.5503 5.14805 60.5779 5.09005 60.6439 5.05269L63.3094 3.54405C63.3754 3.50684 63.4394 3.51285 63.4814 3.52442C63.5235 3.53614 63.5815 3.56383 63.6188 3.62974L71.4557 17.4771C71.4846 17.5296 71.4918 17.5913 71.4758 17.6491C71.4598 17.7069 71.4218 17.7561 71.37 17.7863L68.7045 19.2949C68.6519 19.3238 68.5901 19.331 68.5323 19.315C68.4746 19.299 68.4253 19.261 68.3951 19.2092L60.5582 5.36192C60.5436 5.33604 60.5344 5.3075 60.531 5.27799C60.5276 5.24848 60.5302 5.2186 60.5385 5.1901ZM64.698 17.4353L57.8973 21.3728C55.8206 22.5752 54.4214 22.8866 53.0673 22.4473C52.4949 22.2617 51.8317 22.0219 51.0636 21.7443C48.8497 20.9439 46.0996 19.9497 43.2333 19.4225C42.4197 19.1265 41.9648 18.3435 42.1709 17.5748C42.3899 16.7571 43.0054 16.4003 44.0009 16.5119C45.3809 16.7966 46.699 17.1727 48.0932 17.5708C48.7619 17.7618 49.4535 17.9593 50.1654 18.15C50.2671 18.1773 50.369 18.1901 50.4694 18.1901C50.7537 18.1901 51.0283 18.0866 51.242 17.8991C51.4558 17.7115 51.594 17.4527 51.631 17.1707C51.6681 16.8888 51.6013 16.6031 51.4433 16.3667C51.2853 16.1303 51.0467 15.9595 50.772 15.8859C50.0785 15.7002 49.3965 15.5054 48.7369 15.317C47.2807 14.9011 45.9052 14.5083 44.4182 14.2043C44.4103 14.2027 44.4026 14.2021 44.3946 14.2006C44.3869 14.1992 44.3794 14.197 44.3716 14.1957L43.1894 14.0033C41.3444 13.7082 39.7055 13.9969 38.1792 14.8856L28.6786 20.4192C26.1578 21.8873 24.1713 22.0976 23.4946 20.9676C23.0404 20.2094 23.2326 18.9935 23.8685 18.6021L41.1097 7.9856C42.397 7.19312 43.8108 6.99522 45.3118 7.39776L57.8176 10.7486C58.1178 10.8288 58.4376 10.7867 58.7068 10.6316L60.3206 9.69991L64.698 17.4353ZM3.5154 11.713C3.5154 7.19298 7.19274 3.51563 11.713 3.51563C16.2332 3.51563 19.9105 7.19298 19.9105 11.713C19.9105 16.2331 16.2332 19.9105 11.713 19.9105C7.19274 19.9105 3.5154 16.2333 3.5154 11.713ZM14.3555 69.9473L11.69 71.4561C11.6374 71.4849 11.5757 71.4921 11.5179 71.476C11.4601 71.46 11.4109 71.4221 11.3807 71.3703L3.54382 57.523C3.50661 57.457 3.51262 57.393 3.52433 57.351C3.53605 57.3089 3.56374 57.2509 3.62966 57.2136L6.29538 55.7049C6.33317 55.6836 6.37023 55.6765 6.40305 55.6765C6.42751 55.6765 6.44934 55.6805 6.46735 55.6856C6.50939 55.6972 6.56726 55.725 6.60461 55.7908V55.7909L14.4415 69.6381C14.5019 69.745 14.4626 69.8867 14.3555 69.9473ZM10.2959 57.5549L17.0806 53.6268C19.1626 52.4216 20.5681 52.1105 21.9323 52.5527C22.5046 52.7385 23.1677 52.9781 23.9358 53.2559C26.1499 54.0563 28.9 55.0504 31.7662 55.5776C32.5798 55.8737 33.0348 56.6565 32.8287 57.4254C32.6097 58.2431 31.9939 58.6002 30.9988 58.4883C29.6185 58.2035 28.3003 57.8275 26.9059 57.4292C26.2373 57.2382 25.5461 57.0407 24.8341 56.85C24.6855 56.8102 24.5305 56.8 24.3779 56.8201C24.2253 56.8402 24.0782 56.8901 23.9449 56.9671C23.8116 57.044 23.6948 57.1465 23.6011 57.2686C23.5074 57.3907 23.4387 57.53 23.3989 57.6787C23.3591 57.8273 23.3489 57.9824 23.369 58.1349C23.3891 58.2875 23.439 58.4346 23.516 58.5679C23.5929 58.7012 23.6954 58.818 23.8175 58.9117C23.9396 59.0054 24.0789 59.0741 24.2276 59.1139C24.9207 59.2997 25.6028 59.4945 26.2622 59.6829C27.7186 60.0987 29.0942 60.4916 30.5815 60.7957C30.5889 60.7972 30.5964 60.7978 30.6039 60.7991C30.6121 60.8005 30.6198 60.8029 30.628 60.8042L31.8105 60.9964C33.6559 61.2911 35.2945 61.0028 36.8205 60.1141L46.3212 54.5805C48.8421 53.1122 50.8285 52.9024 51.5051 54.0321C51.9592 54.7904 51.7672 56.0063 51.1313 56.3975L33.8901 67.0141C32.6028 67.8064 31.1889 68.0044 29.6881 67.6021L17.1824 64.251C17.0337 64.211 16.8787 64.2008 16.7261 64.221C16.5735 64.2411 16.4263 64.2911 16.2931 64.3682L14.6793 65.3L10.2959 57.5549ZM22.9284 68.2172L29.0813 69.8659C29.7817 70.0535 30.4786 70.1468 31.1642 70.1468C32.5518 70.1467 33.8927 69.7647 35.1188 69.0098L52.36 58.3932C54.0765 57.3365 54.6275 54.6838 53.5158 52.8277C52.9794 51.9321 50.79 49.2655 45.1416 52.5551L35.641 58.0887C35.4256 58.2148 35.2013 58.3252 34.97 58.4191C35.016 58.2942 35.057 58.1651 35.0927 58.0317C35.6237 56.0501 34.4514 53.9827 32.4238 53.3253C32.3736 53.3092 32.3223 53.2963 32.2704 53.2868C29.5671 52.7993 26.8865 51.8301 24.7326 51.0514C23.9778 50.7785 23.2649 50.5207 22.6555 50.3231C20.0876 49.4902 17.8029 50.5001 15.9064 51.5982L9.14157 55.5148L8.64426 54.6362C8.39601 54.1952 8.02206 53.8381 7.57009 53.6105C4.91667 48.6895 3.5154 43.1288 3.5154 37.5C3.5154 31.8674 4.91198 26.3253 7.56291 21.4017C8.87378 21.9655 10.286 22.2556 11.713 22.2544C17.5255 22.2544 22.2543 17.5255 22.2543 11.7132C22.2555 10.2862 21.9654 8.87402 21.4016 7.56314C26.3251 4.91221 31.867 3.51563 37.4998 3.51563C42.6162 3.51563 47.5565 4.63272 52.0709 6.78282L45.9184 5.13428C43.8005 4.56666 41.7128 4.86256 39.8809 5.99019L22.6397 16.6066C20.9232 17.6634 20.3722 20.3162 21.4839 22.1723C21.827 22.7452 22.8458 24.0428 25.0143 24.0425C26.2359 24.0425 27.8227 23.6304 29.8583 22.4449L39.3588 16.9113C39.5743 16.7853 39.7986 16.6749 40.0299 16.5809C39.9831 16.7081 39.9421 16.8374 39.9071 16.9683C39.3761 18.9501 40.5484 21.0174 42.5762 21.6747C42.6263 21.691 42.6776 21.7039 42.7296 21.7132C45.4328 22.2009 48.1133 23.1699 50.2672 23.9486C51.022 24.2215 51.7351 24.4793 52.3445 24.6769C52.9623 24.8789 53.6081 24.9817 54.258 24.9816C56.0457 24.9816 57.6655 24.2156 59.0718 23.4013L65.8527 19.4753L66.3556 20.3638C66.6042 20.8037 66.9776 21.16 67.4287 21.3876C70.0826 26.3092 71.4841 31.8706 71.4841 37.5C71.4841 42.4628 70.4422 47.2314 68.3884 51.6886L67.2472 51.6251C67.1032 51.617 67.0069 51.5818 66.8914 51.4956L65.7912 50.672C64.7166 49.8678 63.2727 49.8678 62.1981 50.672L61.0983 51.4953C60.9825 51.5818 60.8862 51.617 60.7422 51.6251L59.3702 51.7014C58.03 51.7758 56.9237 52.7039 56.6176 54.0108L56.3041 55.349C56.2712 55.4893 56.2199 55.5781 56.1149 55.6768L55.1129 56.6174C54.1343 57.5358 53.8835 58.9579 54.489 60.1559L55.109 61.3824C55.174 61.511 55.1917 61.6119 55.1747 61.755L55.0115 63.1197C54.8807 64.2145 55.3454 65.2529 56.1991 65.8819C50.6504 69.5537 44.2319 71.4844 37.4998 71.4844C32.3832 71.4844 27.4427 70.3671 22.9284 68.2172ZM60.3118 70.3147L60.0263 69.8234C59.9058 69.6163 59.7248 69.451 59.5076 69.3499C59.2904 69.2488 59.0474 69.2166 58.8113 69.2578L58.2515 69.3557L58.9335 67.8908L59.1135 68.1661C59.5105 68.7731 60.0899 69.1942 60.7407 69.3938L60.3118 70.3147ZM69.1782 69.2577C68.9421 69.2164 68.6991 69.2485 68.4819 69.3496C68.2646 69.4508 68.0836 69.6161 67.9632 69.8232L67.6778 70.3146L67.2496 69.3948C67.9003 69.1951 68.4792 68.7728 68.876 68.1659L69.0562 67.8905L69.7382 69.3554L69.1782 69.2577ZM71.4089 59.0985L70.7889 60.3251C70.5138 60.8692 70.4154 61.4279 70.4878 62.0332L70.6508 63.398C70.6867 63.6979 70.5365 63.9579 70.2587 64.077L68.9957 64.6179C68.4352 64.8579 68.0005 65.2225 67.6666 65.7328L66.9144 66.8832C66.7492 67.1358 66.4669 67.2387 66.1775 67.1512L64.862 66.7537C64.5702 66.6655 64.2825 66.6215 63.9948 66.6215C63.7071 66.6215 63.4193 66.6656 63.1277 66.7537L61.8122 67.1512C61.5228 67.2387 61.2406 67.1358 61.0753 66.883L60.3231 65.733C59.9894 65.2226 59.5546 64.8579 58.9943 64.6181L57.7309 64.0768C57.4531 63.9579 57.303 63.6979 57.3389 63.3979L57.5021 62.0332C57.5744 61.4278 57.4758 60.8691 57.2009 60.3251L56.581 59.0987C56.4447 58.829 56.4969 58.5331 56.7172 58.3264L57.7192 57.386C58.1637 56.9688 58.4475 56.4775 58.5865 55.8838L58.9 54.5455C58.9688 54.2514 59.1991 54.0583 59.5007 54.0416L60.8728 53.9653C61.4813 53.9316 62.0144 53.7374 62.5029 53.372L63.6028 52.5485C63.8448 52.3677 64.1454 52.3674 64.3871 52.5485L65.4874 53.372C65.9755 53.7374 66.5087 53.9313 67.1173 53.9653L68.4896 54.0416C68.7912 54.0583 69.0213 54.2517 69.0903 54.5455L69.4038 55.8836C69.5428 56.4772 69.8264 56.9684 70.271 57.3858L71.2731 58.3264C71.4931 58.5331 71.5452 58.829 71.4089 59.0985ZM6.90666 58.0932C6.92474 58.2169 6.91829 58.3429 6.88767 58.4641C6.85705 58.5853 6.80286 58.6992 6.72819 58.7995C6.65353 58.8997 6.55985 58.9842 6.45252 59.0483C6.34518 59.1123 6.22628 59.1546 6.10261 59.1727C5.97893 59.1907 5.85291 59.1843 5.73173 59.1537C5.61056 59.1231 5.4966 59.0689 5.39636 58.9942C5.29612 58.9195 5.21158 58.8259 5.14754 58.7185C5.08351 58.6112 5.04125 58.4923 5.02316 58.3686C4.98664 58.1188 5.05084 57.8648 5.20163 57.6624C5.35242 57.4599 5.57745 57.3257 5.82722 57.2892C6.07698 57.2526 6.33103 57.3168 6.53346 57.4676C6.7359 57.6184 6.87014 57.8435 6.90666 58.0932ZM68.0929 16.9066C68.0564 16.6569 68.1206 16.4028 68.2714 16.2004C68.4221 15.998 68.6472 15.8637 68.8969 15.8272C69.1467 15.7907 69.4007 15.8549 69.6032 16.0057C69.8056 16.1565 69.9399 16.3815 69.9764 16.6313C70.0129 16.881 69.9487 17.1351 69.7979 17.3375C69.6471 17.5399 69.4221 17.6742 69.1723 17.7107C69.0487 17.7288 68.9226 17.7223 68.8015 17.6917C68.6803 17.6611 68.5663 17.6069 68.4661 17.5322C68.2636 17.3814 68.1294 17.1564 68.0929 16.9066ZM41.774 37.7528C43.2226 36.5329 44.1453 34.7074 44.1453 32.6698C44.1453 29.0055 41.1642 26.0244 37.4999 26.0244C33.8356 26.0244 30.8545 29.0055 30.8545 32.6698C30.8545 34.7074 31.7772 36.5329 33.2257 37.7528C29.1137 39.3132 26.0649 43.0669 25.5714 47.6792C25.554 47.8427 25.5711 48.008 25.6217 48.1644C25.6723 48.3208 25.7552 48.4648 25.8651 48.5871C25.975 48.7093 26.1094 48.8071 26.2595 48.8741C26.4096 48.941 26.5722 48.9757 26.7365 48.9757L48.2629 48.9756C48.4273 48.9756 48.5898 48.941 48.74 48.874C48.8901 48.8071 49.0245 48.7093 49.1344 48.587C49.2443 48.4647 49.3272 48.3207 49.3778 48.1643C49.4284 48.0078 49.4455 47.8425 49.428 47.6791C48.9346 43.0669 45.8859 39.3132 41.774 37.7528ZM33.1983 32.6697C33.1983 30.2978 35.1279 28.368 37.4999 28.368C39.8719 28.368 41.8016 30.2977 41.8016 32.6697C41.8016 35.0405 39.8734 36.9696 37.5028 36.9712H37.4968C35.1264 36.9696 33.1983 35.0405 33.1983 32.6697ZM28.1298 46.632C29.1777 42.3816 32.9979 39.3164 37.4968 39.3149H37.503C42.002 39.3164 45.822 42.3815 46.8699 46.6318L28.1298 46.632ZM13.3983 14.5799C13.4872 14.4769 13.5735 14.3332 13.5389 14.0477C13.5061 13.7783 13.4296 13.1474 11.5316 12.8358C8.44094 12.3284 7.89777 10.5694 7.84914 9.56617C7.77004 7.93697 8.84406 6.56632 10.5411 6.09888V5.78438C10.5411 5.47358 10.6645 5.17551 10.8843 4.95574C11.1041 4.73597 11.4022 4.61251 11.713 4.61251C12.0238 4.61251 12.3218 4.73597 12.5416 4.95574C12.7614 5.17551 12.8848 5.47358 12.8848 5.78438V6.08834C13.9794 6.37823 15.0033 7.10714 15.5519 8.41348C15.6722 8.70004 15.6737 9.02266 15.5562 9.31036C15.4386 9.59806 15.2116 9.82729 14.9251 9.94761C14.6385 10.0679 14.3159 10.0695 14.0282 9.95193C13.7405 9.83438 13.5113 9.60736 13.3909 9.32081C12.9461 8.26143 11.8433 8.20196 11.2619 8.33394C11.0006 8.39327 10.1511 8.64903 10.1903 9.45279C10.2008 9.67003 10.2288 10.247 11.9114 10.5234C14.3221 10.9192 15.6525 12.01 15.8656 13.7656C15.9732 14.6518 15.7331 15.4636 15.171 16.1134C14.6397 16.7276 13.8232 17.169 12.885 17.3695V17.6423C12.885 17.9531 12.7615 18.2512 12.5417 18.4709C12.322 18.6907 12.0239 18.8142 11.7131 18.8142C11.4023 18.8142 11.1042 18.6907 10.8845 18.4709C10.6647 18.2512 10.5412 17.9531 10.5412 17.6423V17.3493C9.05676 16.986 7.92619 15.9451 7.57023 14.5173C7.533 14.368 7.52554 14.2128 7.54828 14.0606C7.57103 13.9084 7.62353 13.7622 7.70279 13.6303C7.78205 13.4983 7.88652 13.3833 8.01023 13.2918C8.13394 13.2002 8.27447 13.134 8.4238 13.0967C8.57312 13.0595 8.72832 13.052 8.88054 13.0747C9.03275 13.0975 9.179 13.15 9.31092 13.2292C9.44284 13.3085 9.55785 13.413 9.64939 13.5367C9.74092 13.6604 9.80719 13.801 9.8444 13.9503C10.0717 14.8617 11.0431 15.1647 11.8074 15.1456C12.4804 15.1292 13.1196 14.902 13.3983 14.5799ZM63.9947 53.9479C60.7693 53.9479 58.1453 56.5718 58.1453 59.7973C58.1453 63.0227 60.7693 65.6467 63.9947 65.6467C67.2201 65.6467 69.8441 63.0227 69.8441 59.7973C69.8441 56.5718 67.2201 53.9479 63.9947 53.9479ZM63.9947 63.3028C62.0617 63.3028 60.489 61.7303 60.489 59.7971C60.489 57.864 62.0617 56.2915 63.9947 56.2915C65.9277 56.2915 67.5004 57.864 67.5004 59.7971C67.5004 61.7303 65.9277 63.3028 63.9947 63.3028Z" fill="#6921CD"/>
</svg>
