<svg width="75" height="75" viewBox="0 0 75 75" fill="none" xmlns="http://www.w3.org/2000/svg">
<path d="M30.5459 44.9624V50.8042C28.4118 52.1205 26.7522 54.0819 25.8074 56.4044C24.8626 58.727 24.6817 61.2899 25.291 63.7221C25.9003 66.1543 27.268 68.3294 29.1961 69.9323C31.1242 71.5352 33.5125 72.4826 36.015 72.6374C38.5176 72.7921 41.0044 72.1462 43.1153 70.7931C45.2262 69.44 46.8515 67.45 47.7558 65.1114C48.6601 62.7728 48.7964 60.2071 48.145 57.7858C47.4936 55.3646 46.0883 53.2136 44.1326 51.6445V45.0398L59.6893 29.7374C59.8252 29.5956 59.9224 29.4213 59.9717 29.2312C60.0116 29.1228 60.0345 29.009 60.0396 28.8937V18.9117C60.0396 18.6009 59.9162 18.3028 59.6964 18.083C59.4766 17.8632 59.1786 17.7398 58.8678 17.7398H47.9693C47.7234 16.9811 47.2434 16.3198 46.5984 15.8509C45.9533 15.3819 45.1763 15.1292 44.3787 15.1292C43.5812 15.1292 42.8041 15.3819 42.1591 15.8509C41.514 16.3198 41.034 16.9811 40.7881 17.7398H31.4752C31.2703 16.924 30.7989 16.2 30.1356 15.6827C29.4724 15.1655 28.6554 14.8845 27.8143 14.8845C26.9731 14.8845 26.1561 15.1655 25.4929 15.6827C24.8297 16.2 24.3582 16.924 24.1533 17.7398H16.1318C15.821 17.7398 15.523 17.8632 15.3032 18.083C15.0834 18.3028 14.96 18.6009 14.96 18.9117V28.9031C14.96 29.2138 15.0835 29.5119 15.3033 29.7316L30.5459 44.9624ZM40.7107 58.2421C40.7107 58.5529 40.5873 58.851 40.3675 59.0708C40.1477 59.2905 39.8497 59.414 39.5389 59.414C39.2281 59.414 38.93 59.2905 38.7102 59.0708C38.4905 58.851 38.367 58.5529 38.367 58.2421V58.1015C38.3681 57.8929 38.328 57.6861 38.249 57.493C38.17 57.2999 38.0537 57.1243 37.9067 56.9763C37.7598 56.8282 37.585 56.7106 37.3925 56.6302C37.2 56.5498 36.9936 56.5082 36.785 56.5077H36.7498C36.3287 56.5046 35.9235 56.669 35.6236 56.9645C35.3236 57.2601 35.1533 57.6628 35.1502 58.0839C35.1471 58.5051 35.3114 58.9102 35.607 59.2102C35.9026 59.5101 36.3052 59.6804 36.7264 59.6835C37.6737 59.6718 38.5934 60.0023 39.3167 60.6142C40.0399 61.2262 40.5182 62.0785 40.6635 63.0147C40.8088 63.9509 40.6116 64.9081 40.1079 65.7105C39.6042 66.5129 38.828 67.1067 37.9217 67.3827V67.582C37.9217 67.8928 37.7982 68.1908 37.5784 68.4106C37.3587 68.6304 37.0606 68.7538 36.7498 68.7538C36.439 68.7538 36.1409 68.6304 35.9212 68.4106C35.7014 68.1908 35.5779 67.8928 35.5779 67.582V67.371C34.7726 67.1272 34.0669 66.6312 33.5648 65.9561C33.0627 65.281 32.7907 64.4624 32.7889 63.621V63.4687C32.7889 63.1579 32.9123 62.8598 33.1321 62.64C33.3519 62.4203 33.6499 62.2968 33.9607 62.2968C34.2715 62.2968 34.5696 62.4203 34.7894 62.64C35.0092 62.8598 35.1326 63.1579 35.1326 63.4687V63.621C35.1354 64.0418 35.3046 64.4443 35.6032 64.7408C35.9018 65.0372 36.3056 65.2034 36.7264 65.2031H36.7498C37.067 65.2081 37.3784 65.1183 37.6441 64.9451C37.9098 64.7719 38.1178 64.5233 38.2412 64.2311C38.3646 63.9389 38.3979 63.6165 38.3368 63.3053C38.2757 62.994 38.123 62.7081 37.8982 62.4843C37.7519 62.3386 37.5782 62.2233 37.3872 62.1448C37.1961 62.0664 36.9915 62.0265 36.785 62.0273C36.2581 62.0322 35.7355 61.9334 35.2469 61.7363C34.7583 61.5393 34.3133 61.2479 33.9373 60.8788C33.4579 60.3984 33.111 59.8019 32.9304 59.1476C32.7499 58.4933 32.7418 57.8034 32.907 57.145C33.0721 56.4866 33.405 55.8822 33.873 55.3906C34.3411 54.8991 34.9284 54.537 35.5779 54.3398V54.1288C35.5779 53.818 35.7014 53.52 35.9212 53.3002C36.1409 53.0804 36.439 52.957 36.7498 52.957C37.0606 52.957 37.3587 53.0804 37.5784 53.3002C37.7982 53.52 37.9217 53.818 37.9217 54.1288V54.3398C38.7286 54.5847 39.4354 55.0826 39.9376 55.7599C40.4398 56.4373 40.7109 57.2582 40.7107 58.1015V58.2421ZM42.1357 43.7109C42.0246 43.8198 41.9363 43.9498 41.8759 44.0933C41.8155 44.2367 41.7844 44.3908 41.7842 44.5464V50.1644C40.2075 49.4239 38.487 49.0402 36.7451 49.0406C35.4329 49.0372 34.1295 49.2551 32.8896 49.6851V44.4773C32.8898 44.3232 32.8595 44.1706 32.8006 44.0282C32.7417 43.8859 32.6553 43.7565 32.5463 43.6476L18.9525 30.0656H56.0154L42.1357 43.7109ZM44.3623 17.4702C44.646 17.4689 44.9238 17.5516 45.1605 17.708C45.3973 17.8643 45.5823 18.0874 45.6924 18.3489C45.8025 18.6104 45.8326 18.8986 45.7789 19.1772C45.7253 19.4558 45.5903 19.7123 45.391 19.9142C45.1917 20.1161 44.937 20.2545 44.6591 20.3118C44.3812 20.369 44.0926 20.3427 43.8297 20.236C43.5668 20.1294 43.3414 19.9472 43.1819 19.7126C43.0224 19.4779 42.9361 19.2012 42.9338 18.9175V18.9034C42.9356 18.5241 43.0873 18.1609 43.3558 17.8929C43.6242 17.6249 43.9877 17.4738 44.367 17.4726L44.3623 17.4702ZM27.8084 17.2265C28.0912 17.2265 28.3676 17.3103 28.6027 17.4674C28.8378 17.6245 29.021 17.8478 29.1293 18.1091C29.2375 18.3703 29.2658 18.6578 29.2106 18.9351C29.1554 19.2124 29.0193 19.4672 28.8193 19.6671C28.6194 19.8671 28.3646 20.0032 28.0873 20.0584C27.81 20.1136 27.5225 20.0853 27.2613 19.977C27 19.8688 26.7768 19.6856 26.6197 19.4505C26.4626 19.2154 26.3787 18.9389 26.3787 18.6562C26.379 18.2771 26.5297 17.9136 26.7978 17.6456C27.0659 17.3775 27.4293 17.2268 27.8084 17.2265ZM24.315 20.0835C24.6004 20.7767 25.0852 21.3695 25.708 21.7866C26.3308 22.2037 27.0635 22.4264 27.8131 22.4264C28.5627 22.4264 29.2954 22.2037 29.9182 21.7866C30.541 21.3695 31.0258 20.7767 31.3111 20.0835H40.7928C41.0383 20.8397 41.5169 21.4987 42.1601 21.9661C42.8032 22.4334 43.5778 22.6852 44.3729 22.6852C45.1679 22.6852 45.9425 22.4334 46.5856 21.9661C47.2288 21.4987 47.7074 20.8397 47.9529 20.0835H57.6959V27.7218H17.3037V20.0835H24.315Z" fill="#714CB5"/>
<path d="M39.1641 16.6758C39.9099 16.6735 40.6383 16.4502 41.2573 16.0342C41.8763 15.6181 42.3581 15.028 42.6419 14.3383C42.9257 13.6486 42.9988 12.8902 42.8518 12.159C42.7049 11.4278 42.3446 10.7566 41.8164 10.23C41.2882 9.70345 40.6159 9.34523 39.8842 9.20057C39.1526 9.05592 38.3944 9.13133 37.7056 9.41727C37.0168 9.70322 36.4282 10.1869 36.014 10.8072C35.5999 11.4274 35.3789 12.1565 35.3789 12.9023C35.3795 13.3987 35.4779 13.8901 35.6685 14.3484C35.8591 14.8067 36.1381 15.2229 36.4896 15.5733C36.8412 15.9238 37.2583 16.2015 37.7172 16.3907C38.1761 16.5798 38.6677 16.6767 39.1641 16.6758ZM39.1641 11.4727C39.4463 11.475 39.7216 11.5608 39.9551 11.7193C40.1887 11.8778 40.3701 12.1019 40.4765 12.3633C40.583 12.6247 40.6096 12.9118 40.5531 13.1884C40.4966 13.4649 40.3596 13.7186 40.1592 13.9174C39.9587 14.1161 39.704 14.2511 39.427 14.3054C39.15 14.3596 38.8631 14.3306 38.6026 14.222C38.342 14.1135 38.1194 13.9303 37.9628 13.6954C37.8062 13.4606 37.7227 13.1846 37.7227 12.9023C37.7223 12.7135 37.7595 12.5265 37.832 12.3521C37.9044 12.1778 38.0108 12.0195 38.1448 11.8865C38.2789 11.7536 38.438 11.6485 38.613 11.5775C38.7879 11.5064 38.9752 11.4708 39.1641 11.4727ZM30.4219 9.90234C31.1688 9.90118 31.8987 9.67869 32.5193 9.26297C33.1399 8.84725 33.6234 8.25695 33.9087 7.56661C34.1941 6.87628 34.2684 6.11687 34.1224 5.38431C33.9764 4.65174 33.6166 3.97887 33.0884 3.45068C32.5602 2.92249 31.8873 2.56267 31.1548 2.41666C30.4222 2.27064 29.6628 2.34499 28.9724 2.63031C28.2821 2.91563 27.6918 3.39912 27.2761 4.01973C26.8604 4.64033 26.6379 5.37021 26.6367 6.11718C26.6376 7.12078 27.0367 8.08301 27.7464 8.79267C28.456 9.50232 29.4183 9.90141 30.4219 9.90234ZM30.4219 4.6875C30.7058 4.68866 30.983 4.77399 31.2184 4.93269C31.4539 5.09139 31.6369 5.31634 31.7445 5.5791C31.8521 5.84185 31.8793 6.1306 31.8228 6.40884C31.7663 6.68708 31.6285 6.94231 31.4269 7.14225C31.2254 7.34219 30.969 7.47787 30.6903 7.53213C30.4116 7.58638 30.1231 7.55677 29.8612 7.44705C29.5994 7.33733 29.3759 7.15242 29.2191 6.91571C29.0624 6.67899 28.9793 6.40111 28.9805 6.11718C28.9812 5.92867 29.0191 5.74214 29.092 5.56827C29.1648 5.39439 29.2712 5.23657 29.4051 5.10381C29.5389 4.97105 29.6976 4.86596 29.8721 4.79453C30.0465 4.72309 30.2334 4.68673 30.4219 4.6875Z" fill="#714CB5"/>
</svg>
