<svg width="75" height="75" viewBox="0 0 75 75" fill="none" xmlns="http://www.w3.org/2000/svg">
<g clip-path="url(#clip0_326_449)">
<path d="M11.422 51.1472H18.5751C19.5568 51.1472 20.3556 50.3485 20.3556 49.3667V42.2136C20.3556 41.2317 19.5568 40.4329 18.5751 40.4329H11.422C10.4401 40.4329 9.64131 41.2317 9.64131 42.2136V49.3667C9.64131 50.3485 10.4401 51.1472 11.422 51.1472ZM12.8647 45.3136C12.6449 45.0939 12.5215 44.7958 12.5215 44.485C12.5215 44.1742 12.6449 43.8761 12.8647 43.6563C13.0845 43.4366 13.3826 43.3131 13.6934 43.3131C14.0042 43.3131 14.3022 43.4366 14.522 43.6563L14.9985 44.133L15.475 43.6563C15.6948 43.4366 15.9929 43.3131 16.3037 43.3131C16.6145 43.3131 16.9126 43.4366 17.1324 43.6563C17.3521 43.8761 17.4756 44.1742 17.4756 44.485C17.4756 44.7958 17.3521 45.0939 17.1324 45.3136L16.6557 45.7902L17.1324 46.2667C17.2412 46.3755 17.3275 46.5047 17.3864 46.6469C17.4453 46.7891 17.4756 46.9414 17.4756 47.0953C17.4756 47.2492 17.4453 47.4016 17.3864 47.5438C17.3275 47.686 17.2412 47.8152 17.1324 47.924C17.0236 48.0328 16.8944 48.1191 16.7522 48.178C16.61 48.2369 16.4576 48.2672 16.3037 48.2672C16.1498 48.2672 15.9974 48.2369 15.8552 48.178C15.7131 48.1191 15.5839 48.0328 15.475 47.924L14.9985 47.4473L14.522 47.924C14.4132 48.0328 14.284 48.1191 14.1418 48.178C13.9996 48.2369 13.8473 48.2672 13.6934 48.2672C13.5395 48.2672 13.3871 48.2369 13.2449 48.178C13.1027 48.1191 12.9735 48.0328 12.8647 47.924C12.7559 47.8152 12.6696 47.686 12.6107 47.5438C12.5518 47.4016 12.5215 47.2492 12.5215 47.0953C12.5215 46.9414 12.5518 46.7891 12.6107 46.6469C12.6696 46.5047 12.7559 46.3755 12.8647 46.2667L13.3414 45.7902L12.8647 45.3136ZM11.4218 39.2127H18.5751C19.5568 39.2127 20.3556 38.4139 20.3556 37.4322V30.2789C20.3556 29.297 19.5568 28.4983 18.5751 28.4983H11.4218C10.4401 28.4983 9.64131 29.297 9.64131 30.2789V37.4322C9.64131 38.4139 10.4401 39.2127 11.4218 39.2127ZM12.8647 33.379C12.6449 33.1592 12.5215 32.8611 12.5215 32.5503C12.5215 32.2395 12.6449 31.9414 12.8647 31.7217C13.0845 31.5019 13.3826 31.3784 13.6934 31.3784C14.0042 31.3784 14.3022 31.5019 14.522 31.7217L14.9985 32.1983L15.475 31.7217C15.6948 31.5019 15.9929 31.3784 16.3037 31.3784C16.6145 31.3784 16.9126 31.5019 17.1324 31.7217C17.3521 31.9414 17.4756 32.2395 17.4756 32.5503C17.4756 32.8611 17.3521 33.1592 17.1324 33.379L16.6557 33.8555L17.1324 34.332C17.3521 34.5518 17.4756 34.8499 17.4756 35.1607C17.4756 35.4715 17.3521 35.7696 17.1324 35.9893C16.9126 36.2091 16.6145 36.3326 16.3037 36.3326C15.9929 36.3326 15.6948 36.2091 15.475 35.9893L14.9985 35.5127L14.522 35.9893C14.3022 36.2091 14.0042 36.3326 13.6934 36.3326C13.3826 36.3326 13.0845 36.2091 12.8647 35.9893C12.6449 35.7696 12.5215 35.4715 12.5215 35.1607C12.5215 34.8499 12.6449 34.5518 12.8647 34.332L13.3414 33.8555L12.8647 33.379ZM11.4218 27.2782H18.5751C19.5568 27.2782 20.3556 26.4794 20.3556 25.4977V18.3443C20.3556 17.3625 19.5568 16.5637 18.5751 16.5637H11.4218C10.4401 16.5637 9.64131 17.3625 9.64131 18.3443V25.4975C9.64131 26.4794 10.4401 27.2782 11.4218 27.2782ZM12.8647 21.4445C12.6449 21.2247 12.5215 20.9266 12.5215 20.6158C12.5215 20.305 12.6449 20.0069 12.8647 19.7871C13.0845 19.5674 13.3826 19.4439 13.6934 19.4439C14.0042 19.4439 14.3022 19.5674 14.522 19.7871L14.9985 20.2638L15.475 19.7871C15.6948 19.5674 15.9929 19.4439 16.3037 19.4439C16.6145 19.4439 16.9126 19.5674 17.1324 19.7871C17.3521 20.0069 17.4756 20.305 17.4756 20.6158C17.4756 20.9266 17.3521 21.2247 17.1324 21.4445L16.6557 21.921L17.1324 22.3975C17.3521 22.6173 17.4756 22.9153 17.4756 23.2261C17.4756 23.537 17.3521 23.835 17.1324 24.0548C16.9126 24.2746 16.6145 24.3981 16.3037 24.3981C15.9929 24.3981 15.6948 24.2746 15.475 24.0548L14.9985 23.5782L14.522 24.0548C14.3022 24.2746 14.0042 24.3981 13.6934 24.3981C13.3826 24.3981 13.0845 24.2746 12.8647 24.0548C12.6449 23.835 12.5215 23.537 12.5215 23.2261C12.5215 22.9153 12.6449 22.6173 12.8647 22.3975L13.3414 21.921L12.8647 21.4445ZM22.8715 43.576C22.8715 43.2653 22.9949 42.9672 23.2147 42.7474C23.4345 42.5276 23.7326 42.4042 24.0434 42.4042H45.4591C45.7699 42.4042 46.068 42.5276 46.2877 42.7474C46.5075 42.9672 46.631 43.2653 46.631 43.576C46.631 43.8869 46.5075 44.1849 46.2877 44.4047C46.068 44.6245 45.7699 44.7479 45.4591 44.7479H24.0434C23.7326 44.7479 23.4345 44.6245 23.2147 44.4047C22.9949 44.1849 22.8715 43.8869 22.8715 43.576ZM74.4271 33.9488L56.5434 4.10466C56.0839 3.33796 55.2749 2.8802 54.3794 2.8802C53.4839 2.8802 52.6748 3.33796 52.2154 4.10466L50.7463 6.55608H33.6908L35.2834 4.30417C35.5557 3.92139 35.7171 3.47089 35.7497 3.00228C35.7824 2.53366 35.6851 2.06513 35.4686 1.64827C35.0272 0.795435 34.1553 0.265747 33.1932 0.265747H24.1125C23.1505 0.265747 22.2785 0.795581 21.8372 1.64827C21.6206 2.06511 21.5232 2.53366 21.5559 3.00228C21.5886 3.4709 21.75 3.92141 22.0223 4.30417L23.615 6.55608H4.22461C1.9752 6.55608 0.14502 8.38611 0.14502 10.6355V69.01C0.14502 71.2594 1.97505 73.0896 4.22461 73.0896H53.0807C55.3301 73.0896 57.1603 71.2595 57.1603 69.01V68.2396L63.7496 73.7817C64.4795 74.3983 65.4047 74.7359 66.3602 74.7342C66.4793 74.7342 66.5993 74.729 66.7195 74.7186C67.8051 74.6249 68.7872 74.1164 69.4849 73.2867C70.1829 72.4571 70.5155 71.4024 70.4218 70.3168C70.328 69.2313 69.8196 68.2491 68.9899 67.5514L56.5368 57.0775C57.093 56.0171 57.5287 54.9328 57.8298 53.8556C58.2704 53.7947 58.6728 53.5723 58.9588 53.2317L60.1645 51.7981C60.3179 51.6164 60.4338 51.4062 60.5054 51.1794C60.5771 50.9527 60.603 50.714 60.5818 50.4772C60.5622 50.2402 60.4957 50.0095 60.3862 49.7984C60.2768 49.5873 60.1265 49.4 59.9442 49.2473L57.1601 46.9056V38.4282H71.8891C72.9708 38.4282 73.934 37.8678 74.4658 36.9295C74.9975 35.9911 74.983 34.8768 74.4271 33.9488ZM40.3685 8.89998H49.3418L47.9073 11.294H39.8511L40.3685 8.89998ZM20.6911 15.5028H36.6144C37.8397 15.5028 38.8941 14.7536 39.3108 13.6377H46.5028L43.568 18.5353H24.0434C23.7326 18.5353 23.4345 18.6587 23.2147 18.8785C22.9949 19.0983 22.8715 19.3964 22.8715 19.7072C22.8715 20.018 22.9949 20.316 23.2147 20.5358C23.4345 20.7556 23.7326 20.879 24.0434 20.879H42.1636L40.9148 22.9632H24.0434C23.7326 22.9632 23.4345 23.0867 23.2147 23.3064C22.9949 23.5262 22.8715 23.8243 22.8715 24.1351C22.8715 24.4459 22.9949 24.744 23.2147 24.9637C23.4345 25.1835 23.7326 25.307 24.0434 25.307H39.5102L36.4163 30.4699H24.0432C23.7324 30.4699 23.4343 30.5934 23.2146 30.8132C22.9948 31.033 22.8713 31.331 22.8713 31.6418C22.8713 31.9526 22.9948 32.2507 23.2146 32.4705C23.4343 32.6902 23.7324 32.8137 24.0432 32.8137H35.0118L34.3314 33.9491C34.1553 34.2421 34.0306 34.5629 33.9626 34.8979H24.0432C23.7324 34.8979 23.4343 35.0213 23.2146 35.2411C22.9948 35.4609 22.8713 35.7589 22.8713 36.0698C22.8713 36.3806 22.9948 36.6786 23.2146 36.8984C23.4343 37.1182 23.7324 37.2416 24.0432 37.2416H34.4963C35.0512 37.9906 35.9139 38.4284 36.8694 38.4284H50.0788V41.3C49.7725 41.2522 49.4591 41.2845 49.1689 41.3937C48.8788 41.5028 48.6218 41.6851 48.4229 41.9228L47.2172 43.3562L47.217 43.3563C46.9194 43.7104 46.7829 44.1459 46.7959 44.5754C45.5924 45.149 44.411 45.9117 43.3012 46.8324H24.0434C23.7326 46.8324 23.4345 46.9559 23.2147 47.1756C22.9949 47.3954 22.8715 47.6935 22.8715 48.0043C22.8715 48.3151 22.9949 48.6131 23.2147 48.8329C23.4345 49.0527 23.7326 49.1762 24.0434 49.1762H40.9264C40.8848 49.2246 40.8422 49.2718 40.8012 49.3207C39.491 50.8786 38.4485 52.5968 37.7376 54.3391H24.0435C23.7327 54.3391 23.4346 54.4626 23.2149 54.6824C22.9951 54.9021 22.8716 55.2002 22.8716 55.511C22.8716 55.8218 22.9951 56.1199 23.2149 56.3397C23.4346 56.5594 23.7327 56.6829 24.0435 56.6829H36.0088L34.8189 58.0975L34.8188 58.0976C34.6545 58.2931 34.5338 58.5212 34.4646 58.7669H24.0437C23.7329 58.7669 23.4348 58.8904 23.215 59.1102C22.9952 59.3299 22.8718 59.628 22.8718 59.9388C22.8718 60.2496 22.9952 60.5477 23.215 60.7674C23.4348 60.9872 23.7329 61.1107 24.0437 61.1107H35.589L41.412 66.0082H7.22651V13.6377H17.9943C18.4112 14.7536 19.4659 15.5028 20.6911 15.5028ZM52.4227 42.9207V38.4282H54.8167V44.9343L52.4227 42.9207ZM52.3884 59.0662C50.7633 60.9983 48.8049 62.5055 46.8129 63.3722L39.3081 57.0599C39.8206 54.9491 40.9705 52.7608 42.5949 50.8291C44.2192 48.8977 46.1783 47.3899 48.1704 46.523L55.6752 52.8352C55.1625 54.9462 54.0127 57.1348 52.3884 59.0662ZM54.8165 69.01C54.8165 69.9671 54.0379 70.7458 53.0807 70.7458H4.22461C3.26748 70.7458 2.48877 69.9673 2.48877 69.01V10.6355C2.48877 9.67854 3.26733 8.89983 4.22461 8.89983H16.937L17.4542 11.2938H6.05464C5.74384 11.2938 5.44577 11.4173 5.226 11.6371C5.00623 11.8568 4.88276 12.1549 4.88276 12.4657V67.1798C4.88276 67.4906 5.00623 67.7887 5.226 68.0084C5.44577 68.2282 5.74384 68.3517 6.05464 68.3517H44.2326C44.5157 68.525 44.8413 68.6169 45.1733 68.6171C45.6895 68.6171 46.2025 68.398 46.5604 67.9729L47.7658 66.5395C48.0524 66.1994 48.2025 65.7649 48.1869 65.3203C49.2667 64.8057 50.3278 64.1384 51.3362 63.3413L54.8164 66.2684V69.01H54.8165ZM72.4267 35.7741C72.3738 35.8675 72.2156 36.0844 71.8893 36.0844H36.8695C36.5432 36.0844 36.385 35.8675 36.3321 35.7741C36.2793 35.6807 36.1743 35.4336 36.342 35.1536L54.2257 5.3095C54.2597 5.25266 54.3114 5.2238 54.3794 5.2238C54.4474 5.2238 54.4989 5.25266 54.5331 5.3095L72.4167 35.1533C72.5845 35.4336 72.4794 35.6807 72.4267 35.7741ZM57.9463 13.5468C57.9463 13.5737 57.9453 13.6004 57.9435 13.6273L57.0349 26.8201C57.0114 28.2602 55.8778 29.3404 54.3794 29.3404C52.881 29.3404 51.7474 28.2602 51.7239 26.8201L50.8153 13.6273C50.8135 13.6005 50.8126 13.5736 50.8125 13.5468C50.8125 11.3001 52.6068 10.1247 54.3794 10.1247C56.152 10.1247 57.9463 11.3003 57.9463 13.5468ZM57.4608 32.4528C57.4608 34.152 56.0785 35.5342 54.3794 35.5342C52.6803 35.5342 51.2978 34.1518 51.2978 32.4528C51.2978 30.7537 52.6803 29.3713 54.3794 29.3713C56.0785 29.3713 57.4608 30.7535 57.4608 32.4528ZM11.422 63.0819H18.5751C19.5568 63.0819 20.3556 62.2831 20.3556 61.3014V54.1483C20.3556 53.1664 19.5568 52.3676 18.5751 52.3676H11.422C10.4401 52.3676 9.64131 53.1664 9.64131 54.1483V61.3014C9.64131 62.2831 10.4401 63.0819 11.422 63.0819ZM12.8647 57.2482C12.6449 57.0284 12.5215 56.7303 12.5215 56.4195C12.5215 56.1087 12.6449 55.8106 12.8647 55.5908C13.0845 55.3711 13.3826 55.2476 13.6934 55.2476C14.0042 55.2476 14.3022 55.3711 14.522 55.5908L14.9985 56.0675L15.475 55.5908C15.5839 55.482 15.7131 55.3957 15.8552 55.3368C15.9974 55.2779 16.1498 55.2476 16.3037 55.2476C16.4576 55.2476 16.61 55.2779 16.7522 55.3368C16.8944 55.3957 17.0236 55.482 17.1324 55.5908C17.2412 55.6997 17.3275 55.8289 17.3864 55.971C17.4453 56.1132 17.4756 56.2656 17.4756 56.4195C17.4756 56.5734 17.4453 56.7258 17.3864 56.868C17.3275 57.0102 17.2412 57.1393 17.1324 57.2482L16.6557 57.7247L17.1324 58.2012C17.3521 58.421 17.4756 58.719 17.4756 59.0299C17.4756 59.3407 17.3521 59.6387 17.1324 59.8585C16.9126 60.0783 16.6145 60.2018 16.3037 60.2018C15.9929 60.2018 15.6948 60.0783 15.475 59.8585L14.9985 59.3819L14.522 59.8585C14.3022 60.0783 14.0042 60.2018 13.6934 60.2018C13.3826 60.2018 13.0845 60.0783 12.8647 59.8585C12.6449 59.6387 12.5215 59.3407 12.5215 59.0299C12.5215 58.719 12.6449 58.421 12.8647 58.2012L13.3414 57.7247L12.8647 57.2482Z" fill="#157EB2"/>
</g>
<defs>
<clipPath id="clip0_326_449">
<rect width="75" height="75" fill="white"/>
</clipPath>
</defs>
</svg>
