<svg width="75" height="75" viewBox="0 0 75 75" fill="none" xmlns="http://www.w3.org/2000/svg">
<g clip-path="url(#clip0_326_531)">
<path d="M63.0248 22.2235H53.9427C53.979 21.6006 54.01 20.9703 54.0306 20.3243C54.0378 20.0942 53.9673 19.8684 53.8305 19.6832C53.6937 19.498 53.4986 19.3643 53.2765 19.3035C50.4235 18.5271 47.6578 17.4594 45.0233 16.1171L46.3771 12.0431L50.3568 9.51215C50.9428 9.97938 51.6756 10.2235 52.4248 10.2012C53.1739 10.1789 53.8908 9.89144 54.448 9.39011C55.0051 8.88878 55.3663 8.20604 55.4673 7.46339C55.5683 6.72074 55.4025 5.96634 54.9995 5.33443C54.5965 4.70252 53.9824 4.2341 53.2664 4.0125C52.5504 3.79091 51.779 3.83052 51.0895 4.12428C50.4 4.41805 49.837 4.94692 49.5009 5.61679C49.1647 6.28665 49.0771 7.05406 49.2536 7.78246L44.9679 10.5079C44.7688 10.6346 44.6195 10.826 44.545 11.0499L43.1909 15.1251C41.5735 14.1957 40.0154 13.1667 38.5255 12.0441V6.16513C39.2353 5.92234 39.836 5.43556 40.2205 4.79143C40.6051 4.1473 40.7486 3.38762 40.6255 2.6476C40.5025 1.90757 40.1208 1.23523 39.5485 0.75022C38.9762 0.265216 38.2503 -0.000976563 37.5001 -0.000976562C36.75 -0.000976562 36.0241 0.265216 35.4518 0.75022C34.8795 1.23523 34.4978 1.90757 34.3748 2.6476C34.2517 3.38762 34.3952 4.1473 34.7798 4.79143C35.1643 5.43556 35.7649 5.92234 36.4748 6.16513V12.0441C34.985 13.1667 33.427 14.1959 31.8098 15.1256L30.4556 11.0501C30.3812 10.8262 30.232 10.6348 30.033 10.5081L25.7512 7.78275C25.9301 7.05137 25.8436 6.28022 25.507 5.60669C25.1704 4.93315 24.6057 4.40096 23.9134 4.1049C23.2211 3.80884 22.4462 3.76814 21.7267 3.99005C21.0072 4.21196 20.3898 4.68208 19.9845 5.31665C19.5793 5.95123 19.4124 6.70906 19.5137 7.45516C19.615 8.20127 19.9778 8.88719 20.5376 9.39076C21.0974 9.89433 21.8177 10.1828 22.5704 10.2049C23.323 10.227 24.059 9.98117 24.6473 9.51127L28.6232 12.043L29.9771 16.1174C27.3428 17.46 24.5772 18.5276 21.7241 19.3035C21.502 19.3642 21.3068 19.4979 21.1699 19.6831C21.0331 19.8683 20.9625 20.0942 20.9697 20.3243C20.9896 20.9703 21.0205 21.6006 21.0568 22.2235H11.9748C10.1156 22.2235 8.60303 23.9056 8.60303 25.9735V60.5498C8.60303 62.6174 10.1156 64.2998 11.9748 64.2998H29.8431V69.2161H27.0195C25.0778 69.2161 23.4983 70.5784 23.4983 72.2515V73.9746C23.4983 74.2466 23.6063 74.5074 23.7986 74.6997C23.9909 74.892 24.2517 75 24.5237 75H50.4763C50.7483 75 51.0091 74.892 51.2014 74.6997C51.3937 74.5074 51.5017 74.2466 51.5017 73.9746V72.2511C51.5017 70.5774 49.9239 69.2157 47.9846 69.2157H45.1575V64.2994H63.0248C64.8838 64.2994 66.3965 62.6174 66.3965 60.5494V25.9732C66.3965 23.9063 64.8838 22.2235 63.0248 22.2235ZM52.3324 5.92138C52.5533 5.92138 52.7693 5.98689 52.953 6.10962C53.1366 6.23235 53.2798 6.40679 53.3643 6.61089C53.4489 6.81498 53.471 7.03956 53.4279 7.25623C53.3848 7.47289 53.2784 7.67191 53.1222 7.82812C52.966 7.98433 52.767 8.0907 52.5503 8.1338C52.3337 8.1769 52.1091 8.15478 51.905 8.07024C51.7009 7.9857 51.5264 7.84254 51.4037 7.65886C51.281 7.47518 51.2155 7.25923 51.2155 7.03832C51.2158 6.74218 51.3336 6.45827 51.543 6.24887C51.7524 6.03946 52.0363 5.92169 52.3324 5.92138ZM22.6679 8.15512C22.4471 8.15431 22.2316 8.08811 22.0484 7.96488C21.8653 7.84165 21.7228 7.66691 21.6389 7.46274C21.555 7.25857 21.5334 7.03411 21.577 6.81771C21.6206 6.60131 21.7273 6.40268 21.8837 6.24689C22.0401 6.09109 22.2391 5.98513 22.4557 5.94238C22.6722 5.89963 22.8966 5.92201 23.1005 6.00669C23.3043 6.09137 23.4785 6.23456 23.601 6.41817C23.7236 6.60178 23.7889 6.81758 23.7889 7.03832C23.7888 7.1853 23.7596 7.3308 23.7032 7.4665C23.6467 7.6022 23.5641 7.72545 23.46 7.82918C23.3558 7.9329 23.2323 8.01509 23.0964 8.07101C22.9605 8.12694 22.8148 8.15552 22.6679 8.15512ZM36.3832 3.16835C36.3832 2.94743 36.4487 2.73147 36.5714 2.54777C36.6941 2.36407 36.8685 2.22089 37.0726 2.13632C37.2767 2.05176 37.5013 2.02962 37.718 2.0727C37.9346 2.11579 38.1337 2.22215 38.2899 2.37835C38.4461 2.53456 38.5525 2.73358 38.5956 2.95024C38.6387 3.16691 38.6166 3.3915 38.5321 3.59561C38.4475 3.79971 38.3044 3.97416 38.1207 4.0969C37.937 4.21964 37.7211 4.28515 37.5001 4.28515C37.204 4.28484 36.9201 4.16708 36.7107 3.95771C36.5013 3.74834 36.3836 3.46446 36.3832 3.16835ZM37.5001 13.8428C41.8426 17.1 46.7381 19.5453 51.9505 21.0607C51.3731 34.647 46.8918 42.9454 37.5001 47.8266C28.1084 42.9452 23.6272 34.6471 23.0498 21.0608C28.2624 19.5458 33.158 17.1005 37.5001 13.8428ZM47.9849 71.2676C48.8492 71.2676 49.4506 71.7862 49.4506 72.2517V72.9493H25.5497V72.2517C25.5497 71.7862 26.1533 71.2676 27.0195 71.2676H47.9849ZM31.8945 69.2168V64.2994H43.1058V69.2157L31.8945 69.2168ZM64.3452 60.551C64.3452 61.4716 63.7405 62.2492 63.0248 62.2492H11.9755C11.2598 62.2492 10.6551 61.4716 10.6551 60.551V57.9435H64.3452V60.551ZM64.3452 55.8919H10.6551V25.9732C10.6551 25.0524 11.2598 24.2748 11.9755 24.2748H21.2086C21.6863 29.4884 22.7921 33.8485 24.5631 37.5192C27.1909 42.9643 31.2721 47.0123 37.0411 49.8947C37.1834 49.9658 37.3404 50.0029 37.4996 50.0029C37.6587 50.0029 37.8157 49.9658 37.9581 49.8947C43.7266 47.0123 47.8083 42.9643 50.436 37.5192C52.2076 33.8485 53.3134 29.4884 53.7905 24.2748H63.0236C63.7393 24.2748 64.344 25.0524 64.344 25.9732L64.3452 55.8919ZM34.424 60.0931C34.424 59.8211 34.532 59.5603 34.7243 59.368C34.9166 59.1757 35.1774 59.0677 35.4494 59.0677H39.5559C39.8279 59.0677 40.0887 59.1757 40.281 59.368C40.4733 59.5603 40.5813 59.8211 40.5813 60.0931C40.5813 60.365 40.4733 60.6258 40.281 60.8181C40.0887 61.0104 39.8279 61.1184 39.5559 61.1184H35.4494C35.1774 61.1184 34.9166 61.0104 34.7243 60.8181C34.532 60.6258 34.424 60.365 34.424 60.0931ZM43.634 40.004C44.1102 40.0029 44.5664 39.813 44.9027 39.4759C45.239 39.1388 45.4279 38.6821 45.4279 38.2059V28.8009C45.4279 28.3248 45.239 27.8681 44.9027 27.531C44.5664 27.1939 44.1102 27.004 43.634 27.0028H43.2894V24.4161C43.2894 22.8815 42.6797 21.4098 41.5946 20.3246C40.5095 19.2395 39.0378 18.6299 37.5032 18.6299C35.9686 18.6299 34.4969 19.2395 33.4118 20.3246C32.3267 21.4098 31.7171 22.8815 31.7171 24.4161V27.0028H31.3712C30.8945 27.0034 30.4375 27.193 30.1005 27.5301C29.7634 27.8672 29.5738 28.3242 29.5733 28.8009V38.2059C29.5738 38.6826 29.7634 39.1397 30.1005 39.4767C30.4375 39.8138 30.8945 40.0035 31.3712 40.004H43.634ZM33.7671 24.4161C33.7671 23.4254 34.1607 22.4753 34.8612 21.7748C35.5617 21.0742 36.5118 20.6807 37.5025 20.6807C38.4932 20.6807 39.4433 21.0742 40.1438 21.7748C40.8443 22.4753 41.2378 23.4254 41.2378 24.4161V27.0028H33.7671V24.4161ZM31.6247 29.0542H43.3758V37.9527H31.6247V29.0542ZM40.8746 30.8999C40.9698 30.9951 41.0453 31.1082 41.0969 31.2326C41.1484 31.357 41.1749 31.4903 41.1749 31.625C41.1749 31.7597 41.1484 31.893 41.0969 32.0174C41.0453 32.1418 40.9698 32.2549 40.8746 32.3501L37.1168 36.108C37.0216 36.2032 36.9085 36.2788 36.7841 36.3303C36.6597 36.3818 36.5264 36.4084 36.3917 36.4084C36.257 36.4084 36.1237 36.3818 35.9993 36.3303C35.8749 36.2788 35.7618 36.2032 35.6666 36.108L34.1262 34.5674C33.9339 34.3751 33.8258 34.1143 33.8258 33.8423C33.8258 33.5704 33.9339 33.3095 34.1262 33.1172C34.3185 32.9249 34.5793 32.8169 34.8513 32.8169C35.1232 32.8169 35.3841 32.9249 35.5764 33.1172L36.3917 33.9326L39.4239 30.9003C39.5191 30.805 39.6321 30.7293 39.7565 30.6776C39.8809 30.6259 40.0143 30.5993 40.149 30.5992C40.2837 30.5991 40.4171 30.6255 40.5416 30.677C40.6661 30.7284 40.7793 30.8039 40.8746 30.8992V30.8999Z" fill="#263ABE"/>
</g>
<defs>
<clipPath id="clip0_326_531">
<rect width="75" height="75" fill="white"/>
</clipPath>
</defs>
</svg>
