<svg width="94" height="94" viewBox="0 0 94 94" fill="none" xmlns="http://www.w3.org/2000/svg">
<rect x="1" y="1" width="92" height="92" rx="46" fill="white"/>
<rect x="1" y="1" width="92" height="92" rx="46" stroke="#0D8A71" stroke-width="2"/>
<path fill-rule="evenodd" clip-rule="evenodd" d="M58.6999 46.8503C62.1205 50.2709 62.1204 55.8171 58.6999 59.2376C55.2794 62.6581 49.7331 62.6582 46.3126 59.2376C42.8921 55.817 42.8921 50.2707 46.3126 46.8503C49.7331 43.4298 55.2793 43.4297 58.6999 46.8503ZM26.9574 60.2599V44.5931C26.9574 44.5652 26.9463 44.5384 26.9265 44.5187C26.9068 44.499 26.88 44.4879 26.8521 44.4878H21.8631C21.8352 44.4879 21.8084 44.499 21.7887 44.5187C21.7689 44.5384 21.7578 44.5652 21.7578 44.5931V60.2599C21.7578 60.3179 21.8051 60.3652 21.8631 60.3652H26.8521C26.9101 60.3652 26.9574 60.3179 26.9574 60.2599ZM37.565 60.2599V30.1206C37.565 30.0927 37.5539 30.0659 37.5342 30.0462C37.5144 30.0264 37.4877 30.0153 37.4598 30.0153H32.4707C32.4428 30.0153 32.4161 30.0264 32.3963 30.0462C32.3766 30.0659 32.3655 30.0927 32.3654 30.1206V60.2599C32.3654 60.3179 32.4127 60.3652 32.4707 60.3652H37.4598C37.5177 60.3652 37.565 60.3179 37.565 60.2599ZM48.1726 40.5858V34.5444C48.1725 34.5165 48.1614 34.4897 48.1417 34.47C48.122 34.4502 48.0952 34.4391 48.0673 34.4391H43.0782C43.0503 34.4391 43.0236 34.4502 43.0038 34.47C42.9841 34.4897 42.973 34.5165 42.973 34.5444V43.7735C42.973 43.8172 42.9979 43.8544 43.0384 43.8709C43.0788 43.8875 43.1227 43.8785 43.1534 43.8473C44.5835 42.393 46.2801 41.333 48.1026 40.685C48.1232 40.6779 48.141 40.6645 48.1536 40.6467C48.1661 40.6289 48.1728 40.6076 48.1726 40.5858ZM53.6764 39.9788C55.4066 40.132 57.089 40.628 58.6256 41.438C58.6416 41.4467 58.6596 41.451 58.6778 41.4505C58.6959 41.4499 58.7137 41.4446 58.7291 41.4351C58.7448 41.4259 58.7578 41.4127 58.7668 41.3969C58.7757 41.381 58.7803 41.3631 58.7801 41.3449V22.3385C58.7801 22.3106 58.769 22.2838 58.7492 22.2641C58.7295 22.2443 58.7027 22.2332 58.6748 22.2332H53.6858C53.6579 22.2332 53.6311 22.2443 53.6114 22.2641C53.5916 22.2838 53.5805 22.3106 53.5805 22.3385V39.874C53.5804 39.9003 53.5902 39.9257 53.608 39.9451C53.6257 39.9645 53.6501 39.9766 53.6764 39.9788ZM62.1307 61.6947C61.8271 62.0311 61.5065 62.3517 61.1702 62.6553C61.148 62.6753 61.1362 62.7008 61.1354 62.7307C61.1347 62.7606 61.1451 62.7867 61.1662 62.8079L63.5077 65.1494C63.5267 65.1683 63.5377 65.1938 63.5385 65.2206C63.5393 65.2475 63.5299 65.2736 63.5121 65.2936C63.0002 65.8718 63.0229 66.6935 63.5486 67.2192L67.6898 71.3605C68.2317 71.9023 69.1142 71.9023 69.6561 71.3605L70.8359 70.1806C71.1051 69.9114 71.2397 69.5549 71.2397 69.1975H71.2423C71.2423 68.8417 71.1068 68.4853 70.8359 68.2143L66.6947 64.0731C66.1689 63.5473 65.3472 63.5248 64.7691 64.0367C64.749 64.0544 64.7229 64.0639 64.6961 64.0631C64.6693 64.0623 64.6438 64.0513 64.6248 64.0323L62.2832 61.6907C62.2733 61.6804 62.2612 61.6724 62.2479 61.6671C62.2346 61.6618 62.2204 61.6593 62.2061 61.6599C62.1917 61.6601 62.1776 61.6633 62.1646 61.6693C62.1517 61.6753 62.1401 61.684 62.1307 61.6947ZM54.7064 52.6825C53.1621 52.0421 52.1717 52.4556 50.9645 51.9486C50.5021 51.7314 49.949 51.3492 49.9463 50.8749C49.9463 50.8717 49.9464 50.869 49.9466 50.8659C49.9639 50.6484 50.0389 50.4591 50.1718 50.2983L50.1702 50.2971C50.3467 50.09 50.5887 49.924 50.9582 49.771C51.99 49.3424 53.1472 49.4268 54.2028 49.6704C54.6994 49.785 55.1457 49.9436 55.5521 50.1367C55.6459 50.1822 55.7478 50.2086 55.8518 50.2144C55.9559 50.2203 56.0601 50.2054 56.1583 50.1708C56.2566 50.1361 56.347 50.0823 56.4244 50.0124C56.5017 49.9426 56.5645 49.8581 56.609 49.7638C56.6534 49.6696 56.6788 49.5674 56.6835 49.4633C56.6883 49.3592 56.6723 49.2552 56.6366 49.1573C56.6009 49.0594 56.5461 48.9695 56.4755 48.8929C56.4048 48.8163 56.3196 48.7545 56.2249 48.711C55.3417 48.2928 54.407 48.0472 53.3908 47.9429C53.3648 47.9404 53.3407 47.9282 53.3232 47.9089C53.3058 47.8895 53.2961 47.8643 53.2962 47.8382V47.3369C53.2962 47.1274 53.213 46.9265 53.0649 46.7783C52.9167 46.6302 52.7158 46.547 52.5063 46.547C52.2968 46.547 52.0959 46.6302 51.9477 46.7783C51.7996 46.9265 51.7164 47.1274 51.7164 47.3369V47.853C51.7164 47.9055 51.6786 47.9493 51.6268 47.9572C51.1881 48.0231 50.767 48.1402 50.3601 48.3153C49.7594 48.564 49.2919 48.8898 48.9578 49.2937L48.9562 49.2924C48.1915 50.2184 48.1737 51.4549 48.9438 52.3873C49.2611 52.7714 49.7632 53.1451 50.3542 53.4038L50.3537 53.4051C51.8727 54.0429 52.9241 53.6326 54.1167 54.1449L54.1192 54.146C54.4675 54.3063 54.7234 54.4873 54.8888 54.6885C55.0123 54.8365 55.09 55.0173 55.1126 55.2088C55.1138 55.2173 55.1138 55.2259 55.1126 55.2344C55.0874 55.4409 55.0113 55.6228 54.8828 55.7791C54.3861 56.3839 53.3036 56.6216 52.5063 56.6216C51.4535 56.6216 50.4024 56.3844 49.4311 55.9449C49.3367 55.9023 49.2348 55.8788 49.1313 55.8756C49.0278 55.8724 48.9247 55.8897 48.8278 55.9263C48.731 55.963 48.6423 56.0184 48.5669 56.0893C48.4914 56.1603 48.4307 56.2454 48.3882 56.3398C48.3456 56.4342 48.3221 56.5361 48.3189 56.6396C48.3157 56.7431 48.3329 56.8462 48.3696 56.9431C48.4063 57.0399 48.4617 57.1286 48.5326 57.204C48.6036 57.2795 48.6887 57.3402 48.7831 57.3827C49.6986 57.7969 50.636 58.0497 51.6216 58.1496C51.6476 58.1522 51.6717 58.1643 51.6892 58.1837C51.7067 58.203 51.7163 58.2282 51.7162 58.2543V58.7506C51.7162 58.9601 51.7995 59.161 51.9476 59.3092C52.0958 59.4573 52.2967 59.5405 52.5062 59.5405C52.7157 59.5405 52.9166 59.4573 53.0647 59.3092C53.2129 59.161 53.2961 58.9601 53.2961 58.7506V58.2413C53.2961 58.1886 53.3343 58.1446 53.3865 58.1371C53.8415 58.0724 54.2862 57.949 54.7094 57.7698C55.8207 57.3055 56.6077 56.46 56.6922 55.2832C56.6945 55.2497 56.6942 55.2158 56.6922 55.1814C56.6213 54.0138 55.8001 53.1373 54.7064 52.6825ZM44.3482 44.8858C39.8427 49.3913 39.8427 56.6965 44.3481 61.2019C48.8536 65.7074 56.1587 65.7074 60.6642 61.202C65.1697 56.6965 65.1697 49.3913 60.6643 44.8859C56.1587 40.3804 48.8536 40.3804 44.3482 44.8858Z" fill="#31C9AA"/>
<path fill-rule="evenodd" clip-rule="evenodd" d="M58.7001 46.8503C62.1207 50.2709 62.1206 55.8171 58.7001 59.2376C55.2796 62.6581 49.7333 62.6582 46.3128 59.2376C42.8923 55.817 42.8923 50.2707 46.3128 46.8503C49.7333 43.4298 55.2795 43.4297 58.7001 46.8503ZM62.1309 61.6947C61.8273 62.0311 61.5067 62.3517 61.1704 62.6553C61.1482 62.6753 61.1364 62.7008 61.1356 62.7307C61.1349 62.7606 61.1453 62.7867 61.1664 62.8079L63.5079 65.1494C63.5269 65.1684 63.5379 65.1938 63.5387 65.2206C63.5395 65.2475 63.5301 65.2736 63.5123 65.2936C63.0004 65.8718 63.0231 66.6935 63.5488 67.2193L67.69 71.3605C68.2318 71.9023 69.1144 71.9023 69.6563 71.3605L70.8361 70.1807C71.1053 69.9114 71.2399 69.5549 71.2399 69.1975H71.2425C71.2425 68.8417 71.107 68.4853 70.8361 68.2143L66.6949 64.0731C66.1691 63.5473 65.3474 63.5248 64.7693 64.0367C64.7492 64.0544 64.7231 64.0639 64.6963 64.0631C64.6694 64.0623 64.644 64.0513 64.625 64.0323L62.2834 61.6907C62.2734 61.6804 62.2614 61.6724 62.2481 61.6671C62.2348 61.6618 62.2205 61.6593 62.2062 61.6599C62.1919 61.6601 62.1778 61.6633 62.1648 61.6693C62.1518 61.6753 62.1403 61.684 62.1309 61.6947ZM54.7066 52.6826C53.1622 52.0421 52.1719 52.4556 50.9647 51.9486C50.5022 51.7314 49.9492 51.3492 49.9465 50.8749C49.9465 50.8717 49.9466 50.869 49.9468 50.8659C49.9641 50.6484 50.0391 50.4591 50.172 50.2983L50.1704 50.2971C50.3469 50.09 50.5889 49.924 50.9584 49.771C51.9902 49.3424 53.1473 49.4268 54.2029 49.6704C54.6996 49.785 55.1459 49.9436 55.5523 50.1367C55.6461 50.1822 55.748 50.2086 55.852 50.2144C55.9561 50.2203 56.0603 50.2055 56.1585 50.1708C56.2568 50.1361 56.3472 50.0823 56.4246 50.0124C56.5019 49.9426 56.5647 49.8581 56.6091 49.7638C56.6536 49.6696 56.679 49.5675 56.6837 49.4633C56.6885 49.3592 56.6725 49.2552 56.6368 49.1573C56.6011 49.0594 56.5463 48.9695 56.4756 48.8929C56.405 48.8163 56.3198 48.7545 56.2251 48.711C55.3419 48.2928 54.4072 48.0472 53.3909 47.9429C53.365 47.9404 53.3409 47.9282 53.3234 47.9089C53.306 47.8895 53.2963 47.8643 53.2964 47.8382V47.3369C53.2964 47.1274 53.2132 46.9265 53.0651 46.7783C52.9169 46.6302 52.716 46.547 52.5065 46.547C52.297 46.547 52.0961 46.6302 51.9479 46.7783C51.7998 46.9265 51.7165 47.1274 51.7165 47.3369V47.853C51.7165 47.9055 51.6788 47.9493 51.6269 47.9572C51.1882 48.0231 50.7672 48.1402 50.3603 48.3153C49.7596 48.564 49.2921 48.8898 48.958 49.2937L48.9564 49.2924C48.1917 50.2184 48.1739 51.4549 48.944 52.3873C49.2613 52.7714 49.7634 53.1451 50.3544 53.4038L50.3538 53.4051C51.8729 54.0429 52.9242 53.6326 54.1169 54.1449L54.1194 54.1461C54.4677 54.3063 54.7236 54.4873 54.8889 54.6885C55.0124 54.8366 55.0902 55.0173 55.1128 55.2088C55.114 55.2173 55.114 55.2259 55.1128 55.2344C55.0876 55.4409 55.0115 55.6228 54.883 55.7791C54.3863 56.3839 53.3038 56.6216 52.5065 56.6216C51.4537 56.6216 50.4026 56.3844 49.4313 55.9449C49.3369 55.9023 49.235 55.8788 49.1315 55.8756C49.028 55.8724 48.9249 55.8897 48.828 55.9263C48.7312 55.963 48.6425 56.0184 48.5671 56.0893C48.4916 56.1603 48.4309 56.2454 48.3884 56.3398C48.3458 56.4342 48.3223 56.5361 48.3191 56.6396C48.3159 56.7431 48.3331 56.8462 48.3698 56.9431C48.4065 57.0399 48.4619 57.1286 48.5328 57.204C48.6038 57.2795 48.6889 57.3402 48.7833 57.3827C49.6988 57.7969 50.6362 58.0497 51.6218 58.1496C51.6478 58.1522 51.6719 58.1643 51.6894 58.1837C51.7069 58.203 51.7165 58.2282 51.7164 58.2543V58.7506C51.7164 58.9601 51.7997 59.161 51.9478 59.3092C52.0959 59.4573 52.2969 59.5405 52.5064 59.5405C52.7159 59.5405 52.9168 59.4573 53.0649 59.3092C53.2131 59.161 53.2963 58.9601 53.2963 58.7506V58.2413C53.2963 58.1886 53.3345 58.1446 53.3867 58.1371C53.8417 58.0724 54.2864 57.949 54.7096 57.7698C55.8209 57.3055 56.6079 56.46 56.6924 55.2832C56.6947 55.2497 56.6944 55.2158 56.6924 55.1814C56.6215 54.0138 55.8003 53.1373 54.7066 52.6826ZM44.3484 44.8858C39.8429 49.3913 39.8429 56.6965 44.3483 61.2019C48.8538 65.7074 56.1589 65.7074 60.6643 61.2021C65.1699 56.6965 65.1699 49.3913 60.6645 44.8859C56.1589 40.3804 48.8538 40.3804 44.3484 44.8858Z" fill="#0D8A71"/>
</svg>
