<svg width="94" height="94" viewBox="0 0 94 94" fill="none" xmlns="http://www.w3.org/2000/svg">
<rect x="1" y="1" width="92" height="92" rx="46" fill="white"/>
<rect x="1" y="1" width="92" height="92" rx="46" stroke="#843A25" stroke-width="2"/>
<path fill-rule="evenodd" clip-rule="evenodd" d="M27.3295 24.31H31.4292C33.2609 24.31 34.7513 25.8004 34.7513 27.6307V29.8047H34.2433V28.7774C34.2433 28.0254 33.5652 27.462 32.8261 27.5991C30.551 28.023 28.2304 28.0224 25.9308 27.5978C25.193 27.4611 24.515 28.0265 24.515 28.7761V29.8047H24.0077V27.6307C24.0075 25.8004 25.4979 24.31 27.3295 24.31ZM34.7631 32.3887H34.2432V31.2016H34.7631C35.0904 31.2016 35.357 31.4682 35.357 31.7955C35.357 32.1227 35.0904 32.3887 34.7631 32.3887ZM32.8469 33.5676V29.0149C30.5561 29.4135 28.2247 29.4129 25.9118 29.013V33.5676C25.9118 35.4787 27.4673 37.0342 29.3791 37.0342C31.2914 37.0343 32.8469 35.4788 32.8469 33.5676ZM23.4017 31.7955C23.4019 31.638 23.4646 31.4871 23.5759 31.3758C23.6872 31.2645 23.8381 31.2018 23.9956 31.2016H24.5149V32.3887H23.9956C23.8382 32.3886 23.6873 32.3261 23.5759 32.2149C23.4646 32.1037 23.4019 31.9528 23.4017 31.7955ZM23.9954 33.7856H24.5198C24.6361 36.3664 26.7709 38.4311 29.379 38.4311C31.9876 38.4311 34.1225 36.3664 34.2374 33.7856H34.7631C36.5427 33.7856 37.4269 31.6119 36.148 30.3676V27.6307C36.148 25.0301 34.0309 22.9131 31.4291 22.9131H27.3294C24.7277 22.9131 22.6105 25.0303 22.6105 27.6307V30.3676C21.3306 31.6108 22.2151 33.7856 23.9954 33.7856ZM39.2041 43.6006C39.9237 43.8407 40.6344 43.8962 41.3622 43.7705C41.7802 43.6989 42.3525 43.2917 42.763 43.1974C42.7807 43.3004 42.7946 43.5 42.7529 43.85C42.6101 45.0555 42.1369 45.252 41.5392 45.5021C41.0155 45.7207 40.2257 46.0499 40.2257 47.1524C40.2257 47.6502 40.4468 48.1171 40.6427 48.5285C41.0357 49.3573 41.025 49.4673 40.6547 49.6764L39.0791 49.883C38.6203 48.8954 38.3931 47.8161 38.4148 46.7273C38.4364 45.6386 38.7064 44.5691 39.2041 43.6006ZM51.8677 43.3901C49.3868 38.9318 43.1981 38.4086 40.0032 42.3716C40.3721 42.4506 40.7355 42.4594 41.1083 42.3969C41.4127 42.3217 42.6799 41.3702 43.5905 42.011C44.3171 42.5221 44.1831 43.6454 44.1402 44.0156C43.9002 46.0304 42.7585 46.5061 42.0774 46.791C41.6225 46.9805 41.6225 46.9907 41.6225 47.1524C41.6225 47.5932 42.3306 48.4523 42.3295 49.3453C42.3295 49.8084 42.1393 50.463 41.2384 50.9494C41.0924 51.0284 41.0355 51.0443 39.8655 51.192C41.0912 52.8132 42.9897 53.8985 45.1428 54.0325C45.1498 53.68 45.2048 53.361 45.2509 53.0962C45.2837 52.906 45.3286 52.6476 45.3128 52.5567C44.9482 51.8175 44.5326 50.7561 45.0481 50.0067C45.7137 49.0402 47.175 49.4608 48.0922 49.4672C48.0417 49.2297 47.7668 48.6547 46.512 47.4278C46.2827 47.2035 46.2055 47.1277 46.1387 46.9976C45.2876 45.3347 46.3674 44.2234 46.948 43.6263C47.6027 42.9549 48.5704 41.9239 50.5796 42.8834C51.0331 43.1002 51.4603 43.2676 51.8677 43.3901ZM46.5429 53.9834C46.5766 53.3004 46.8844 52.5851 46.572 51.9521C46.2042 51.2078 46.1948 50.8964 46.2037 50.8092C46.4021 50.7264 47.0269 50.7852 47.3346 50.8143C48.1092 50.8869 48.9102 50.9628 49.2906 50.329C50.0987 48.9821 48.3354 47.258 47.4887 46.429C47.4412 46.3827 47.394 46.3362 47.3471 46.2893C47.0616 45.6777 47.2663 45.303 47.9493 44.6005C48.5575 43.9765 48.8725 43.617 49.978 44.1443C50.8859 44.5765 51.7186 44.8455 52.5122 44.9631C53.6679 49.1914 50.8179 53.4148 46.5429 53.9834ZM51.1374 53.4028C47.9333 56.1268 43.2494 56.1271 40.0462 53.4028L36.1031 57.3458C36.0383 57.4108 35.9613 57.4623 35.8766 57.4975C35.7918 57.5326 35.7009 57.5506 35.6091 57.5505C34.9926 57.5505 34.6737 56.7998 35.1151 56.3584L39.0582 52.4153C36.3367 49.2125 36.3365 44.5272 39.0582 41.3241L35.1126 37.3785C34.9818 37.2473 34.9084 37.0697 34.9084 36.8845C34.9084 36.6992 34.9818 36.5216 35.1126 36.3904C35.3862 36.1181 35.8278 36.1181 36.1001 36.3904L40.0462 40.3365C43.2494 37.6122 47.9332 37.6125 51.1374 40.3365L55.081 36.3923C55.3534 36.12 55.7949 36.12 56.0685 36.3923C56.1334 36.4571 56.1849 36.5342 56.22 36.6189C56.2551 36.7037 56.2732 36.7946 56.2732 36.8863C56.2732 36.9781 56.2551 37.0689 56.22 37.1537C56.1849 37.2385 56.1334 37.3155 56.0685 37.3804L52.1248 41.3241C54.8481 44.5291 54.8479 49.2106 52.1248 52.4153L56.0704 56.3609C56.1352 56.4258 56.1867 56.5028 56.2218 56.5876C56.257 56.6723 56.275 56.7632 56.275 56.855C56.275 56.9467 56.257 57.0376 56.2218 57.1224C56.1867 57.2071 56.1352 57.2841 56.0704 57.349C55.9392 57.4796 55.7617 57.5529 55.5766 57.5529C55.3916 57.5529 55.214 57.4796 55.0829 57.349L51.1374 53.4028ZM34.7802 68.351C34.7802 68.3763 34.779 68.4003 34.779 68.4249C34.3796 68.3024 33.9755 68.1955 33.5678 68.1046C33.941 67.7461 34.2675 67.3419 34.5395 66.9016C34.6984 67.3684 34.7798 67.858 34.7802 68.351ZM24.7214 63.7389C24.7214 66.3065 26.8108 68.3959 29.3791 68.3959C31.9479 68.3959 34.0372 66.3065 34.0372 63.7389V62.7798C31.8063 62.2693 30.2477 61.1012 29.3791 59.2924C28.5109 61.1012 26.9524 62.2694 24.7214 62.7798V63.7389ZM23.9797 68.4249C23.9555 67.9569 24.0691 67.3438 24.2192 66.9016C24.4908 67.342 24.8171 67.7462 25.1903 68.1046C24.7828 68.1957 24.3789 68.3025 23.9797 68.4249ZM28.504 57.6339C27.9847 59.5425 26.7672 60.7563 24.8087 61.3154C25.1706 59.4566 26.642 57.9897 28.504 57.6339ZM33.95 61.3154C31.9915 60.7563 30.7733 59.5425 30.2547 57.6339C32.1165 57.9897 33.588 59.4566 33.95 61.3154ZM35.4335 63.7389V62.2087C35.4335 58.8703 32.718 56.1537 29.379 56.1537C26.0406 56.1537 23.3251 58.8703 23.3251 62.2087V63.7389C23.3251 64.2368 23.3864 64.7195 23.5001 65.1838C22.6848 66.4846 22.3998 68.0104 22.6951 69.5046C22.7786 69.9266 23.2238 70.1727 23.6271 70.0214C24.6007 69.6536 25.6766 69.3876 26.8259 69.2259C27.6249 69.6002 28.4966 69.7937 29.379 69.7927C30.292 69.7927 31.1568 69.5893 31.9327 69.2259C33.082 69.3876 34.1579 69.6537 35.1315 70.0214C35.5348 70.1727 35.9799 69.9266 36.0634 69.5046C36.3588 68.0103 36.0739 66.4847 35.2586 65.1838C35.3743 64.7109 35.4331 64.2258 35.4335 63.7389ZM56.0376 28.2119C61.3023 29.9562 62.5982 29.9558 67.8622 28.2119C68.4347 28.0224 69.1044 27.7999 69.5491 27.6906C69.3614 28.7192 68.6387 29.6871 67.4673 30.4585C64.4378 32.4544 59.4613 32.4544 56.4318 30.4585C55.2605 29.6871 54.5384 28.7192 54.3507 27.6906C54.7948 27.7999 55.4651 28.0224 56.0376 28.2119ZM59.4676 25.0618L58.9103 27.6382C61.3208 28.2858 62.5783 28.2859 64.9888 27.6382L64.4322 25.0618C64.3274 24.5778 63.9256 24.2538 63.4308 24.2538H60.4696C59.9743 24.2537 59.5712 24.5778 59.4676 25.0618ZM65.244 34.4483C65.244 36.2648 63.7669 37.7425 61.9499 37.7425C60.1329 37.7425 58.6557 36.2648 58.6557 34.4483V32.9314C60.7652 33.4909 63.134 33.4911 65.244 32.9314V34.4483ZM55.6636 31.6249C56.1525 31.9471 56.6883 32.2263 57.2589 32.462V34.4483C57.2589 37.0349 59.3628 39.1394 61.95 39.1394C64.5359 39.1394 66.641 37.0349 66.641 34.4483V32.462C69.0225 31.4771 70.9947 29.6103 70.9947 27.1524C70.9947 26.8548 70.8614 26.5882 70.6276 26.4201C70.0616 26.0107 69.1789 26.3032 67.4226 26.8857C67.0833 26.9982 66.7163 27.1201 66.3327 27.242L65.797 24.7667C65.5543 23.6421 64.5808 22.8574 63.4309 22.8574H60.4697C59.3179 22.8574 58.3456 23.6421 58.1024 24.7667L57.5672 27.242C57.1843 27.12 56.8173 26.9982 56.4767 26.8857C54.7197 26.3032 53.839 26.0107 53.2723 26.4201C53.0392 26.5882 52.9052 26.8548 52.9052 27.1524C52.9051 28.864 53.885 30.4523 55.6636 31.6249ZM67.0453 66.8499C67.2285 66.0988 67.3631 65.2863 67.442 64.4244C67.4514 64.3197 67.437 64.2142 67.4001 64.1158C67.3631 64.0174 67.3045 63.9286 67.2285 63.8559C64.6759 61.413 60.6073 61.4132 58.0549 63.8559C57.9788 63.9284 57.9202 64.0173 57.8834 64.1158C57.8467 64.2143 57.8327 64.3198 57.8426 64.4244C57.9215 65.2875 58.0561 66.1006 58.24 66.853L56.4141 66.0627C56.4141 62.6203 59.208 59.8288 62.6423 59.8288C66.0761 59.8288 68.8698 62.6225 68.8698 66.0564L67.0453 66.8499ZM62.6423 70.7455C64.1738 70.7455 65.625 68.092 66.0155 64.643C64.0743 63.0122 61.2088 63.0124 59.2678 64.643C59.6583 68.0921 61.1109 70.7455 62.6423 70.7455ZM60.5183 58.6183C60.5183 57.5885 61.471 56.7514 62.6424 56.7514C63.8493 56.7514 64.8451 57.6509 64.7583 58.7339C63.3692 58.3318 61.9141 58.3323 60.5252 58.7339C60.5221 58.6947 60.5183 58.6568 60.5183 58.6183ZM66.0932 59.2614C66.2352 58.5955 66.1554 57.9263 65.8709 57.3187L67.7417 55.5319C68.021 55.266 68.0311 54.8224 67.7645 54.5445C67.7011 54.4781 67.6254 54.4248 67.5415 54.3877C67.4576 54.3507 67.3671 54.3305 67.2754 54.3284C67.1837 54.3263 67.0925 54.3422 67.007 54.3754C66.9214 54.4086 66.8433 54.4583 66.777 54.5217L65.0118 56.2073C63.6676 55.0695 61.6155 55.0702 60.2721 56.2073L58.5075 54.5217C58.4411 54.4583 58.3629 54.4086 58.2774 54.3754C58.1918 54.3422 58.1005 54.3262 58.0087 54.3284C57.917 54.3305 57.8265 54.3506 57.7426 54.3877C57.6586 54.4248 57.5828 54.4781 57.5194 54.5445C57.2527 54.8224 57.2629 55.266 57.5427 55.5319L59.4141 57.3187C59.1279 57.9259 59.0485 58.5959 59.1905 59.2614C56.7177 60.5237 55.0175 63.0944 55.0175 66.0563C55.0175 66.4798 54.9473 66.9493 55.4383 67.1619L58.8057 68.6195C59.6946 70.8024 61.0765 72.1424 62.6426 72.1424C64.2089 72.1424 65.59 70.8024 66.4795 68.6195L69.8458 67.1619C70.3375 66.9489 70.2672 66.4799 70.2672 66.0563C70.2668 63.0945 68.5673 60.5237 66.0932 59.2614Z" fill="#C3380D"/>
</svg>
