<svg width="94" height="94" viewBox="0 0 94 94" fill="none" xmlns="http://www.w3.org/2000/svg">
<rect x="1" y="1" width="92" height="92" rx="46" fill="white"/>
<rect x="1" y="1" width="92" height="92" rx="46" stroke="#258436" stroke-width="2"/>
<path d="M37.625 53.125V43.5C37.625 43.2679 37.5328 43.0454 37.3687 42.8813C37.2046 42.7172 36.9821 42.625 36.75 42.625H33.25C33.0179 42.625 32.7954 42.7172 32.6313 42.8813C32.4672 43.0454 32.375 43.2679 32.375 43.5V53.125H34.125V44.375H35.875V53.125H37.625ZM51.625 56.625V44.375C51.625 44.1429 51.5328 43.9204 51.3687 43.7563C51.2046 43.5922 50.9821 43.5 50.75 43.5H47.25C47.0179 43.5 46.7954 43.5922 46.6313 43.7563C46.4672 43.9204 46.375 44.1429 46.375 44.375V56.625H48.125V45.25H49.875V56.625H51.625ZM44.625 56.625V40.875C44.625 40.6429 44.5328 40.4204 44.3687 40.2563C44.2046 40.0922 43.9821 40 43.75 40H40.25C40.0179 40 39.7954 40.0922 39.6313 40.2563C39.4672 40.4204 39.375 40.6429 39.375 40.875V54.875H41.125V41.75H42.875V56.625H44.625ZM58.625 49.625V40.875C58.625 40.6429 58.5328 40.4204 58.3687 40.2563C58.2046 40.0922 57.9821 40 57.75 40H54.25C54.0179 40 53.7954 40.0922 53.6313 40.2563C53.4672 40.4204 53.375 40.6429 53.375 40.875V50.5H55.125V41.75H56.875V49.625H58.625ZM65.625 48.75V35.625C65.625 35.3929 65.5328 35.1704 65.3687 35.0063C65.2046 34.8422 64.9821 34.75 64.75 34.75H61.25C61.0179 34.75 60.7954 34.8422 60.6313 35.0063C60.4672 35.1704 60.375 35.3929 60.375 35.625V48.75H62.125V36.5H63.875V48.75H65.625Z" fill="#0A8020"/>
<path d="M32.6313 40.6187C32.7954 40.7828 33.0179 40.875 33.25 40.875C33.4821 40.875 33.7046 40.7828 33.8687 40.6187L41.0915 33.3958L48.3497 41.4604C48.4291 41.5487 48.5257 41.6198 48.6336 41.6696C48.7414 41.7193 48.8583 41.7466 48.977 41.7497L49 41.75C49.2321 41.75 49.4546 41.6578 49.6187 41.4937L61.25 29.8625V32.125C61.25 32.3571 61.3422 32.5796 61.5063 32.7437C61.6704 32.9078 61.8929 33 62.125 33H65.625C65.8571 33 66.0796 32.9078 66.2437 32.7437C66.4078 32.5796 66.5 32.3571 66.5 32.125V21.625C66.5 21.3929 66.4078 21.1704 66.2437 21.0063C66.0796 20.8422 65.8571 20.75 65.625 20.75H55.125C54.8929 20.75 54.6704 20.8422 54.5063 21.0063C54.3422 21.1704 54.25 21.3929 54.25 21.625V25.125C54.25 25.3571 54.3422 25.5796 54.5063 25.7437C54.6704 25.9078 54.8929 26 55.125 26H57.3876L49.0335 34.3541L41.7753 26.2896C41.6959 26.2013 41.5993 26.1302 41.4914 26.0804C41.3836 26.0307 41.2667 26.0034 41.148 26.0003C41.0292 25.9972 40.9111 26.0183 40.8008 26.0623C40.6905 26.1063 40.5903 26.1723 40.5063 26.2563L30.0063 36.7563C29.925 36.8375 29.8606 36.934 29.8166 37.0401C29.7726 37.1463 29.75 37.2601 29.75 37.375C29.75 37.4899 29.7726 37.6037 29.8166 37.7099C29.8606 37.816 29.925 37.9125 30.0063 37.9937L32.6313 40.6187ZM41.0915 28.1458L48.3497 36.2104C48.4291 36.2987 48.5257 36.3698 48.6336 36.4196C48.7414 36.4693 48.8583 36.4966 48.977 36.4997C49.0958 36.5028 49.2139 36.4817 49.3242 36.4377C49.4345 36.3937 49.5347 36.3277 49.6187 36.2437L60.1187 25.7437C60.2411 25.6214 60.3245 25.4655 60.3582 25.2957C60.392 25.126 60.3747 24.95 60.3084 24.7901C60.2422 24.6303 60.13 24.4936 59.9861 24.3975C59.8422 24.3013 59.6731 24.25 59.5 24.25H56V22.5H64.75V31.25H63V27.75C63 27.5769 62.9487 27.4078 62.8526 27.2639C62.7564 27.12 62.6197 27.0078 62.4599 26.9416C62.3 26.8753 62.124 26.858 61.9543 26.8918C61.7846 26.9255 61.6286 27.0089 61.5063 27.1313L49.0335 39.6042L41.7753 31.5396C41.6959 31.4513 41.5993 31.3802 41.4914 31.3304C41.3836 31.2807 41.2667 31.2534 41.148 31.2503C41.1403 31.2501 41.1327 31.25 41.125 31.25C40.8929 31.25 40.6704 31.3422 40.5063 31.5063L33.25 38.7625L31.8624 37.375L41.0915 28.1458ZM27.125 72.375V70.625H29.75C29.9821 70.625 30.2046 70.5328 30.3687 70.3687C30.5328 70.2046 30.625 69.9821 30.625 69.75V67.4575C34.8031 71.2927 40.301 73.3661 45.9712 73.2448C51.6414 73.1235 57.0456 70.817 61.056 66.8067L70.6187 57.2442C71.1969 56.6661 71.5437 55.8965 71.5938 55.0804C71.6438 54.2643 71.3937 53.458 70.8905 52.8136C70.3873 52.1692 69.6658 51.731 68.8619 51.5817C68.058 51.4324 67.2273 51.5822 66.5263 52.0029C66.2275 51.5406 65.8213 51.1575 65.3424 50.8863C64.8634 50.615 64.3259 50.4638 63.7758 50.4455C63.2257 50.4271 62.6793 50.5422 62.1833 50.7809C61.6873 51.0196 61.2565 51.3748 60.9277 51.8162L60.5567 52.3139C60.367 52.1684 60.1639 52.0413 59.9501 51.9343C59.4974 51.708 59.0037 51.5755 58.4986 51.5448C57.9934 51.514 57.4873 51.5857 57.0105 51.7555C56.5338 51.9253 56.0963 52.1897 55.7243 52.5328C55.3523 52.8759 55.0534 53.2907 54.8458 53.7522L52.64 58.6538C52.1779 58.4694 51.685 58.3748 51.1875 58.375H40.6124L39.1187 56.8813C38.0226 55.7882 36.5982 55.0849 35.064 54.8792C33.5297 54.6735 31.9704 54.9767 30.625 55.7423V54.875C30.625 54.6429 30.5328 54.4204 30.3687 54.2563C30.2046 54.0922 29.9821 54 29.75 54H27.125V53.125C27.125 52.8929 27.0328 52.6704 26.8687 52.5063C26.7046 52.3422 26.4821 52.25 26.25 52.25H19.25V54H25.375V71.5H19.25V73.25H26.25C26.4821 73.25 26.7046 73.1578 26.8687 72.9937C27.0328 72.8296 27.125 72.6071 27.125 72.375ZM64.5167 52.4305C64.8157 52.6101 65.0502 52.8796 65.187 53.2005L58.2444 60.1432C57.3151 61.0738 56.266 61.8764 55.1247 62.5298L62.3307 52.8622C62.5761 52.5311 62.936 52.3035 63.3402 52.2236C63.7445 52.1438 64.1639 52.2175 64.5167 52.4305ZM56.4415 54.4703C56.5525 54.2239 56.712 54.0024 56.9107 53.8191C57.1094 53.6359 57.343 53.4947 57.5976 53.404C57.8522 53.3134 58.1225 53.2751 58.3922 53.2915C58.662 53.3079 58.9257 53.3786 59.1674 53.4995C59.2888 53.5604 59.4037 53.6335 59.5104 53.7176L54.5849 60.3257C54.4472 60.0905 54.2855 59.8702 54.1026 59.6683L56.4415 54.4703ZM37.8813 58.1187L39.6313 59.8687C39.7125 59.95 39.809 60.0144 39.9151 60.0584C40.0213 60.1024 40.1351 60.125 40.25 60.125H51.1875C51.7677 60.125 52.3241 60.3555 52.7343 60.7657C53.1445 61.1759 53.375 61.7323 53.375 62.3125C53.375 62.8927 53.1445 63.4491 52.7343 63.8593C52.3241 64.2695 51.7677 64.5 51.1875 64.5H40.25V66.25H51.1875C51.7289 66.2502 52.2646 66.1384 52.7607 65.9216C53.2569 65.7048 53.7029 65.3878 54.0706 64.9904C56.0957 64.1575 57.9351 62.9305 59.4818 61.3806L67.1186 53.7438C67.4194 53.447 67.8254 53.2812 68.2479 53.2826C68.6705 53.284 69.0754 53.4525 69.3742 53.7513C69.6729 54.0501 69.8414 54.455 69.8428 54.8775C69.8442 55.3001 69.6783 55.7061 69.3815 56.0068L59.8184 65.5693C56.0209 69.3667 50.8703 71.5 45.4999 71.5C40.1295 71.4999 34.979 69.3665 31.1815 65.569L30.625 65.0125V57.8805C31.6396 56.9934 32.9531 56.5246 34.3001 56.5688C35.6471 56.613 36.927 57.167 37.8813 58.1187ZM28.875 55.75V68.875H27.125V55.75H28.875Z" fill="#0A8020"/>
</svg>
