<svg width="94" height="94" viewBox="0 0 94 94" fill="none" xmlns="http://www.w3.org/2000/svg">
<rect x="1" y="1" width="92" height="92" rx="46" fill="white"/>
<rect x="1" y="1" width="92" height="92" rx="46" stroke="#0E78AE" stroke-width="2"/>
<g clip-path="url(#clip0_326_324)">
<path d="M61.1836 70.4375C61.1836 68.0104 59.2161 66.043 56.7891 66.043H39.2109C36.7839 66.043 34.8164 68.0104 34.8164 70.4375V72H61.1836V70.4375ZM70.0703 33.8164V30.8867H52.1247C51.9062 30.2739 51.5542 29.7174 51.0942 29.2574C50.6342 28.7973 50.0776 28.4454 49.4648 28.2269V22H46.5352V28.2269C45.9224 28.4454 45.3658 28.7973 44.9058 29.2574C44.4458 29.7174 44.0938 30.2739 43.8753 30.8867H25.9297V33.8164H29.5922L23 49.9297C23 53.9681 26.2858 57.2539 30.3242 57.2539H33.2539C37.2923 57.2539 40.5781 53.9681 40.5781 49.9297L33.9562 33.8164H43.8754C44.0939 34.4292 44.4459 34.9857 44.9059 35.4458C45.3659 35.9058 45.9225 36.2578 46.5353 36.4763V57.4145C43.6725 58.0003 41.4078 60.2494 40.8241 63.1133H55.1761C54.5924 60.2494 52.3277 58.0003 49.4649 57.4145V36.4763C50.0777 36.2578 50.6343 35.9058 51.0943 35.4458C51.5543 34.9857 51.9063 34.4292 52.1248 33.8164H62.0142L55.4219 49.9297C55.4219 53.9681 58.7077 57.2539 62.7461 57.2539H65.6758C69.7142 57.2539 73 53.9681 73 49.9297L66.378 33.8164H70.0703ZM36.9156 48.4648H26.6625L31.7891 36.1596L36.9156 48.4648ZM69.3375 48.4648H59.0844L64.2109 36.1596L69.3375 48.4648Z" fill="#0E78AE"/>
</g>
<defs>
<clipPath id="clip0_326_324">
<rect width="50" height="50" fill="white" transform="translate(23 22)"/>
</clipPath>
</defs>
</svg>
