<svg width="94" height="94" viewBox="0 0 94 94" fill="none" xmlns="http://www.w3.org/2000/svg">
<rect x="1" y="1" width="92" height="92" rx="46" fill="white"/>
<rect x="1" y="1" width="92" height="92" rx="46" stroke="#784CB5" stroke-width="2"/>
<path d="M46.5345 28.3459C46.4387 28.3474 46.3443 28.3684 46.2569 28.4077C46.1696 28.447 46.0912 28.5037 46.0266 28.5744L41.321 33.958C41.2115 34.0851 41.1534 34.2485 41.1581 34.4162C41.1628 34.5839 41.2299 34.7438 41.3464 34.8646C41.4081 34.9311 41.4827 34.9844 41.5656 35.0211C41.6486 35.0578 41.7382 35.0771 41.8289 35.0779H43.8478L43.8452 42.8231C43.8452 43.0364 43.9493 43.1913 44.0509 43.2954C44.1414 43.3844 44.255 43.4463 44.3789 43.4742C44.5027 43.502 44.6319 43.4946 44.7518 43.4529C45.9133 43.046 47.1794 43.0514 48.3375 43.4681C48.4566 43.5103 48.5854 43.5177 48.7086 43.4894C48.8319 43.461 48.9445 43.3982 49.0333 43.3081C49.0967 43.2458 49.1471 43.1715 49.1815 43.0896C49.216 43.0076 49.2338 42.9196 49.2339 42.8307V35.0779H51.2502C51.3789 35.0762 51.5045 35.038 51.6123 34.9676C51.7201 34.8973 51.8056 34.7977 51.8589 34.6805C51.9122 34.5633 51.931 34.4333 51.9131 34.3058C51.8953 34.1783 51.8415 34.0586 51.7581 33.9605L47.0423 28.5744C46.9102 28.4333 46.7276 28.3527 46.5345 28.3459ZM32.3848 33.0565C32.2292 33.0621 32.0803 33.1213 31.9633 33.2241L26.5772 37.9322C26.5045 37.9953 26.4462 38.0734 26.4063 38.161C26.3664 38.2486 26.3457 38.3438 26.3457 38.4401C26.3457 38.5363 26.3664 38.6315 26.4063 38.7191C26.4462 38.8067 26.5045 38.8848 26.5772 38.9479L31.9607 43.656C32.0581 43.7416 32.1781 43.7973 32.3063 43.8163C32.4346 43.8354 32.5656 43.817 32.6836 43.7633C32.8016 43.7097 32.9016 43.6231 32.9716 43.5139C33.0416 43.4048 33.0786 43.2778 33.0781 43.1481V41.1318H35.7673C36.5266 41.1318 37.1132 41.721 37.1132 42.4777V48.5317C37.1132 48.905 37.4179 49.2047 37.7912 49.2021L40.483 49.2047C40.6606 49.204 40.8308 49.1331 40.9563 49.0076C41.0819 48.882 41.1528 48.7118 41.1534 48.5343C41.1534 47.2493 41.5978 46.0761 42.347 45.1517C42.4536 45.0425 42.4993 44.8394 42.4993 44.7023V41.1318C42.4993 38.1607 40.0869 35.7483 37.1158 35.7483H33.0781V33.7294C33.0785 33.6387 33.0605 33.5488 33.0253 33.4651C32.99 33.3815 32.9382 33.3058 32.873 33.2427C32.8078 33.1796 32.7304 33.1304 32.6457 33.0979C32.5609 33.0655 32.4704 33.0505 32.3797 33.0539L32.3848 33.0565ZM60.6892 33.0565C60.5987 33.0534 60.5085 33.0686 60.424 33.1012C60.3396 33.1338 60.2626 33.1831 60.1976 33.2462C60.1326 33.3093 60.0811 33.3848 60.046 33.4683C60.0109 33.5517 59.993 33.6414 59.9934 33.732V35.7457H55.9557C54.5283 35.7471 53.1599 36.3152 52.1513 37.3252C51.1427 38.3353 50.5765 39.7045 50.5772 41.1318V44.494C50.5772 44.7505 50.5772 45.0019 50.7296 45.1543C51.4762 46.0812 51.9231 47.2518 51.9231 48.5343C51.9238 48.7118 51.9946 48.882 52.1202 49.0076C52.2458 49.1331 52.4159 49.204 52.5935 49.2047H55.2853C55.4633 49.204 55.6339 49.1328 55.7595 49.0067C55.8852 48.8805 55.9557 48.7098 55.9557 48.5317V42.4777C55.9557 41.721 56.5423 41.1318 57.3016 41.1318H59.9934V43.1481C59.9934 43.7271 60.674 44.0369 61.1107 43.656L66.4943 38.9454C66.5666 38.8822 66.6244 38.8044 66.6641 38.717C66.7038 38.6296 66.7243 38.5347 66.7243 38.4388C66.7243 38.3428 66.7038 38.248 66.6641 38.1606C66.6244 38.0732 66.5666 37.9953 66.4943 37.9322L61.1107 33.2241C60.9939 33.1211 60.8449 33.0619 60.6892 33.0565ZM46.5345 44.4712C44.2972 44.4712 42.4968 46.2767 42.4968 48.5216C42.4968 50.7639 44.2972 52.5694 46.5345 52.5694C48.7717 52.5694 50.5721 50.7664 50.5721 48.5216C50.5721 46.2767 48.7717 44.4712 46.5345 44.4712ZM32.4026 50.5531C31.7779 50.5531 31.1788 50.8012 30.7371 51.2429C30.2954 51.6847 30.0473 52.2837 30.0473 52.9084C30.0473 53.5331 30.2954 54.1322 30.7371 54.5739C31.1788 55.0156 31.7779 55.2637 32.4026 55.2637C33.0273 55.2637 33.6263 55.0156 34.068 54.5739C34.5098 54.1322 34.7579 53.5331 34.7579 52.9084C34.7579 52.2837 34.5098 51.6847 34.068 51.2429C33.6263 50.8012 33.0273 50.5531 32.4026 50.5531ZM60.6663 50.5531C60.0417 50.5531 59.4426 50.8012 59.0009 51.2429C58.5592 51.6847 58.311 52.2837 58.311 52.9084C58.311 53.5331 58.5592 54.1322 59.0009 54.5739C59.4426 55.0156 60.0417 55.2637 60.6663 55.2637C61.291 55.2637 61.8901 55.0156 62.3318 54.5739C62.7735 54.1322 63.0216 53.5331 63.0216 52.9084C63.0216 52.2837 62.7735 51.6847 62.3318 51.2429C61.8901 50.8012 61.291 50.5531 60.6663 50.5531ZM43.6294 53.0214C41.9163 53.6237 40.4333 54.7444 39.3862 56.2279C38.3391 57.7114 37.7799 59.4841 37.7862 61.2999V67.3691C37.7862 67.9075 37.9385 68.2655 38.1798 68.4712C38.4185 68.6744 38.8299 68.8064 39.5968 68.6592L51.5473 65.4341C51.7278 65.3876 51.8972 65.3055 52.0456 65.1927C52.194 65.0798 52.3183 64.9385 52.4112 64.7769C52.5042 64.6153 52.564 64.4368 52.587 64.2518C52.61 64.0668 52.5958 63.8791 52.5453 63.6997C52.4989 63.5193 52.4168 63.35 52.3038 63.202C52.1908 63.0539 52.0493 62.93 51.8875 62.8376C51.7258 62.7453 51.5471 62.6863 51.3622 62.6643C51.1773 62.6422 50.9898 62.6575 50.8108 62.7093L40.6278 65.071C40.4571 65.1029 40.2807 65.0677 40.1354 64.9726C39.9901 64.8775 39.8872 64.7299 39.8481 64.5607C39.8091 64.3915 39.837 64.2138 39.926 64.0647C40.015 63.9156 40.1581 63.8066 40.3256 63.7606L40.4779 63.7251V61.2999C40.4926 61.1315 40.5698 60.9748 40.6944 60.8605C40.819 60.7463 40.9819 60.6829 41.1509 60.6829C41.3199 60.6829 41.4828 60.7463 41.6074 60.8605C41.732 60.9748 41.8092 61.1315 41.8238 61.2999V63.4102L50.4782 61.399C50.7474 61.3304 50.9784 61.4929 51.2425 61.5005V61.2999C51.2572 61.1315 51.3344 60.9748 51.459 60.8605C51.5836 60.7463 51.7465 60.6829 51.9155 60.6829C52.0845 60.6829 52.2474 60.7463 52.372 60.8605C52.4966 60.9748 52.5738 61.1315 52.5884 61.2999V61.7291C53.1801 62.0846 53.6525 62.6357 53.8429 63.3543C54.0282 64.061 53.9277 64.8122 53.5631 65.4452C53.1986 66.0783 52.5994 66.5423 51.8952 66.7368L49.1221 67.4834L53.4747 68.6592C54.2365 68.8064 54.6505 68.6744 54.8892 68.4712C55.1304 68.2681 55.2828 67.9151 55.2828 67.3844V61.2999C55.2828 57.4552 52.8449 54.2175 49.437 53.0214C48.5722 53.5817 47.5637 53.8799 46.5332 53.8799C45.5027 53.8799 44.4942 53.5817 43.6294 53.0214ZM30.531 56.0332C29.6842 56.4029 28.9642 57.0126 28.46 57.7871C27.9559 58.5615 27.6898 59.4667 27.6945 60.3908V61.2974C27.6945 62.4427 28.5833 63.3391 29.7108 63.3391H35.0944C35.3469 63.3329 35.5958 63.277 35.8267 63.1746C36.0577 63.0722 36.2661 62.9253 36.4403 62.7423V61.3177C36.4403 60.3959 36.5698 59.502 36.8009 58.6513C36.331 57.4847 35.4258 56.5467 34.2767 56.0357C33.7239 56.4104 33.0713 56.6106 32.4035 56.6101C31.7356 56.6096 31.0833 56.4087 30.531 56.0332ZM62.5404 56.0332C61.9883 56.4093 61.3357 56.6104 60.6676 56.6104C59.9995 56.6104 59.3469 56.4093 58.7948 56.0332C57.6447 56.5454 56.7393 57.4854 56.2706 58.6538C56.4991 59.502 56.6312 60.3959 56.6312 61.3177V62.7423C56.9867 63.0877 57.4362 63.3391 57.9771 63.3391H63.3607C63.6279 63.3401 63.8926 63.2878 64.1394 63.1853C64.3862 63.0827 64.61 62.932 64.7978 62.7418C64.9855 62.5517 65.1335 62.326 65.2329 62.078C65.3324 61.8299 65.3814 61.5646 65.377 61.2974V60.3908C65.377 58.4177 64.2088 56.7594 62.5404 56.0332ZM49.2288 57.2826H51.2425C51.4214 57.2826 51.5929 57.3536 51.7193 57.48C51.8457 57.6065 51.9168 57.778 51.9168 57.9568C51.9168 58.1356 51.8457 58.3071 51.7193 58.4335C51.5929 58.56 51.4214 58.631 51.2425 58.631H49.2288C49.05 58.631 48.8785 58.56 48.752 58.4335C48.6256 58.3071 48.5546 58.1356 48.5546 57.9568C48.5546 57.778 48.6256 57.6065 48.752 57.48C48.8785 57.3536 49.05 57.2826 49.2288 57.2826Z" fill="#784CB5"/>
</svg>
