<svg width="94" height="94" viewBox="0 0 94 94" fill="none" xmlns="http://www.w3.org/2000/svg">
<rect x="1" y="1" width="92" height="92" rx="46" fill="white"/>
<rect x="1" y="1" width="92" height="92" rx="46" stroke="#172BA9" stroke-width="2"/>
<path fill-rule="evenodd" clip-rule="evenodd" d="M68.8727 69.73H58.8461V66.4429C58.8643 65.585 59.0361 64.8402 59.41 64.1238C60.2818 62.4514 61.9871 61.4123 63.8591 61.4123C66.6236 61.4123 68.8727 63.6608 68.8727 66.4253V69.73ZM54.8278 69.73H47.3758V66.4253C47.3758 63.6608 49.625 61.4123 52.3895 61.4123C55.154 61.4123 57.4025 63.6608 57.4025 66.4253V69.73H54.8278ZM35.9061 69.73V66.4253C35.9061 63.6608 38.1546 61.4123 40.9191 61.4123C43.4877 61.4123 45.6802 63.4156 45.9126 65.9726L45.9327 66.4794V69.73H35.9061ZM28.9451 50.3611V69.73H34.4624V66.4253C34.4624 63.7673 36.0783 61.4798 38.3779 60.4906C37.5792 59.8044 37.0724 58.7896 37.0724 57.6556C37.0724 55.8767 38.3214 54.385 39.989 54.0108V50.3611H28.9451ZM25.6599 52.1692L24.3464 47.2694H44.5877L43.2748 52.1693H41.432V49.6391C41.4318 49.4478 41.3558 49.2643 41.2205 49.129C41.0852 48.9937 40.9018 48.9177 40.7105 48.9176H28.2236C28.0323 48.9177 27.8488 48.9937 27.7135 49.129C27.5782 49.2643 27.5022 49.4478 27.5021 49.6391V52.1693H25.6599V52.1692ZM32.5279 38.2028C34.7581 37.9833 37.1387 38.6261 39.9294 38.4369C41.7711 38.3122 43.1119 38.2807 45.1005 37.9533L49.8075 37.1789C49.9053 37.1853 49.9991 37.2198 50.0777 37.2782C50.1564 37.3365 50.2166 37.4163 50.2511 37.508C50.2858 37.6012 50.2926 37.7026 50.2704 37.7996C50.2482 37.8966 50.1981 37.985 50.1263 38.0538C48.5945 39.043 46.5777 39.579 44.4429 40.1466L42.6804 40.5859C41.1011 40.9303 39.4694 41.2861 39.1488 43.6193C39.0655 44.2265 39.06 44.9541 39.1342 45.8259H28.7681C28.4687 38.5531 31.5027 38.2916 32.5279 38.2028ZM34.4923 31.3274C35.981 31.3274 37.1923 32.5387 37.1923 34.0274C37.1923 35.5173 35.981 36.7286 34.4923 36.7286C33.0031 36.7286 31.7911 35.5173 31.7911 34.0274C31.7911 32.5388 33.003 31.3274 34.4923 31.3274ZM61.4865 42.9389C61.8752 42.9389 62.1909 43.2559 62.1909 43.6434C62.1908 43.8302 62.1166 44.0093 61.9845 44.1414C61.8524 44.2735 61.6733 44.3477 61.4865 44.3479C61.2997 44.3477 61.1206 44.2734 60.9885 44.1413C60.8565 44.0092 60.7822 43.8302 60.782 43.6434C60.782 43.2559 61.0984 42.9389 61.4865 42.9389ZM56.1961 42.9389C56.5849 42.9389 56.9006 43.2559 56.9006 43.6434C56.9006 44.0321 56.5849 44.3479 56.1961 44.3479C55.8074 44.3479 55.4917 44.0321 55.4917 43.6434C55.4915 43.2559 55.8073 42.9389 56.1961 42.9389ZM52.3007 29.7974L50.0454 30.9826V35.7528C51.7131 35.9846 52.3217 38.1027 51.0268 39.1834C50.8673 39.3165 50.2548 39.6533 50.0454 39.7608C50.0454 42.48 51.2577 44.8274 53.4827 46.3903L58.8412 50.1549L64.1998 46.3903C66.4173 44.8335 67.6383 42.484 67.6383 39.7742V30.9826L65.3818 29.7974V37.1204C65.3818 37.2363 65.3538 37.3504 65.3004 37.4533C65.2469 37.5561 65.1694 37.6445 65.0746 37.7111L62.208 39.7199V41.6204C63.0384 41.9179 63.6339 42.7131 63.6339 43.6433C63.6339 44.8278 62.6709 45.7909 61.4863 45.7909C60.3031 45.7909 59.3387 44.8278 59.3387 43.6433C59.3387 42.7131 59.9344 41.9179 60.7647 41.6204V39.345C60.7648 39.2291 60.7928 39.1148 60.8464 39.012C60.9 38.9092 60.9776 38.8208 61.0726 38.7544L63.938 36.7449V29.0406L59.5626 26.7434V32.007C60.3931 32.3045 60.9886 33.0985 60.9886 34.0293C60.9886 35.2138 60.0255 36.1775 58.841 36.1775C57.6565 36.1775 56.6934 35.2138 56.6934 34.0293C56.6934 33.0985 57.289 32.3045 58.1194 32.007V26.7434L53.7443 29.0406V36.7451L56.6104 38.7546C56.7053 38.8212 56.7827 38.9096 56.8362 39.0124C56.8896 39.1152 56.9176 39.2294 56.9176 39.3453V41.6207C57.7481 41.9181 58.3436 42.7133 58.3436 43.6435C58.3436 44.828 57.3805 45.7911 56.196 45.7911C55.0115 45.7911 54.0484 44.828 54.0484 43.6435C54.0484 42.7133 54.644 41.9181 55.4738 41.6207V39.7201L52.6078 37.7113C52.5128 37.6448 52.4353 37.5564 52.3818 37.4536C52.3283 37.3507 52.3005 37.2365 52.3006 37.1206V29.7974H52.3007ZM58.8412 33.3254C59.028 33.3254 59.2071 33.3995 59.3392 33.5315C59.4713 33.6635 59.5456 33.8426 59.5457 34.0293C59.5457 34.2161 59.4715 34.3953 59.3394 34.5274C59.2073 34.6596 59.0281 34.7338 58.8412 34.7338C58.6544 34.7338 58.4752 34.6596 58.3431 34.5274C58.211 34.3953 58.1368 34.2161 58.1368 34.0293C58.1369 33.8426 58.2112 33.6635 58.3433 33.5315C58.4754 33.3995 58.6545 33.3254 58.8412 33.3254ZM43.1027 57.6556C43.1027 58.9204 42.0739 59.9486 40.8085 59.9486C39.5442 59.9486 38.5155 58.9204 38.5155 57.6556C38.5155 56.3913 39.5442 55.3621 40.8085 55.3621C42.0738 55.3619 43.1027 56.3913 43.1027 57.6556ZM52.4175 55.3619C53.6817 55.3619 54.7105 56.3913 54.7105 57.6555C54.7105 58.9203 53.6817 59.9485 52.4175 59.9485C51.152 59.9485 50.1233 58.9203 50.1233 57.6555C50.1233 56.3913 51.152 55.3619 52.4175 55.3619ZM63.8592 55.382C65.124 55.382 66.1522 56.4107 66.1522 57.675C66.1522 58.9405 65.124 59.9692 63.8592 59.9692C62.595 59.9692 61.5656 58.9405 61.5656 57.675C61.5656 56.4108 62.595 55.382 63.8592 55.382ZM66.3413 60.4656C67.1109 59.7806 67.5958 58.7847 67.5958 57.675C67.5958 55.6151 65.9198 53.9383 63.8592 53.9383C61.7993 53.9383 60.122 55.6151 60.122 57.675C60.122 58.7847 60.608 59.7806 61.3765 60.4656C60.035 61.0259 58.8053 62.1068 58.1253 63.4667C57.4299 62.1234 56.2777 61.0545 54.8748 60.4675C55.6583 59.7812 56.1536 58.7756 56.1536 57.6556C56.1536 55.5956 54.4775 53.9184 52.4176 53.9184C50.3563 53.9184 48.6804 55.5957 48.6804 57.6556C48.6804 58.7671 49.1689 59.7672 49.9427 60.4523C48.5203 61.037 47.3523 62.115 46.6508 63.4729C45.9348 62.1004 44.7399 61.015 43.3042 60.4346C44.0664 59.7508 44.5465 58.7586 44.5465 57.6556C44.5465 55.8074 43.1971 54.2694 41.4322 53.9725V53.6123H43.8285C43.9874 53.6124 44.1419 53.56 44.268 53.4633C44.394 53.3666 44.4847 53.231 44.5257 53.0775L46.2256 46.7351C46.3481 46.2781 46.0018 45.8256 45.5284 45.8256H40.5835C40.5086 45.0116 40.5068 44.3369 40.5792 43.8168C40.7532 42.5465 41.3342 42.3566 42.9883 41.9959L44.8147 41.5408C46.0983 41.2001 47.4057 40.8509 48.6201 40.3891C48.7935 43.3221 50.2098 45.8554 52.653 47.571L58.4265 51.6271C58.5481 51.7123 58.693 51.758 58.8414 51.758C58.9899 51.758 59.1347 51.7123 59.2563 51.6271L65.0298 47.571C67.6422 45.7361 69.0815 42.9668 69.0815 39.7741V30.5463C69.0815 30.4146 69.0455 30.2855 68.9772 30.1729C68.909 30.0602 68.8113 29.9685 68.6945 29.9075L59.0834 24.8702C58.8421 24.7912 58.707 24.8264 58.4957 24.9157L48.988 29.9075C48.8714 29.9685 48.7737 30.0603 48.7056 30.1729C48.6375 30.2855 48.6016 30.4147 48.6018 30.5463V35.9146L44.8658 36.5297C42.9563 36.8441 41.6223 36.8759 39.8315 36.9975C38.9785 37.0548 38.1743 37.031 37.3986 36.978C38.1616 36.2261 38.636 35.1814 38.636 34.0274C38.636 31.7435 36.7768 29.8844 34.4923 29.8844C32.2073 29.8844 30.3481 31.7436 30.3481 34.0274C30.3481 35.1468 30.7947 36.1628 31.5186 36.9093C27.8373 37.8001 27.1732 41.9878 27.3239 45.8256H23.4065C22.9335 45.8256 22.5867 46.2782 22.7087 46.7351L24.4091 53.0775C24.4501 53.2309 24.5407 53.3664 24.6666 53.4631C24.7926 53.5598 24.9469 53.6122 25.1057 53.6123H27.5021V70.4515C27.502 70.6429 27.578 70.8265 27.7133 70.9619C27.8486 71.0974 28.0322 71.1735 28.2236 71.1737H69.5944C69.7858 71.1735 69.9693 71.0974 70.1046 70.9619C70.2399 70.8265 70.3159 70.6429 70.3159 70.4515V66.4253C70.3159 63.7448 68.6726 61.4402 66.3413 60.4656Z" fill="#1C31B5"/>
</svg>
