<svg width="607" height="196" viewBox="0 0 607 196" fill="none" xmlns="http://www.w3.org/2000/svg">
<g filter="url(#filter0_d_326_316)">
<rect x="30" y="22" width="539" height="128" rx="24" fill="white" shape-rendering="crispEdges"/>
<rect x="29" y="21" width="541" height="130" rx="25" stroke="url(#paint0_linear_326_316)" stroke-width="2" shape-rendering="crispEdges"/>
<path d="M96.8749 86.6719V89.0156H91.0155V91.3594H116.996L121.25 114.797H110.937V112.453C110.937 109.512 108.746 107.086 105.91 106.676C106.559 106.188 107.087 105.557 107.451 104.831C107.815 104.105 108.005 103.304 108.008 102.492C108.008 99.5859 105.64 97.2188 102.734 97.2188C99.828 97.2188 97.4608 99.5859 97.4608 102.492C97.4608 104.203 98.2928 105.715 99.5585 106.676C96.7225 107.086 94.5311 109.5 94.5311 112.453V114.797H80.4686V112.453C80.4686 109.512 78.2772 107.086 75.4413 106.676C76.0907 106.188 76.6182 105.557 76.9822 104.831C77.3462 104.105 77.5367 103.304 77.5389 102.492C77.5389 99.5859 75.1717 97.2188 72.2655 97.2188C69.3592 97.2188 66.992 99.5859 66.992 102.492C66.992 104.203 67.8241 105.715 69.0897 106.676C66.2538 107.086 64.0624 109.5 64.0624 112.453V114.797H53.7381L58.0038 91.3594H86.328V98.3906H88.6717V71.4375H86.328V89.0156H78.1249V86.6719C78.1249 83.7305 75.9335 81.3047 73.0975 80.8945C73.747 80.407 74.2744 79.7754 74.6384 79.0495C75.0024 78.3235 75.193 77.523 75.1952 76.7109C75.1952 73.8047 72.828 71.4375 69.9217 71.4375C67.0155 71.4375 64.6483 73.8047 64.6483 76.7109C64.6483 78.4219 65.4803 79.9336 66.746 80.8945C63.91 81.3047 61.7186 83.7188 61.7186 86.6719V89.0156H58.0038C56.8905 89.0156 55.9178 89.8242 55.7069 90.9375L51.4413 114.375C51.3124 115.055 51.4999 115.758 51.9452 116.297C52.3905 116.836 53.0467 117.141 53.7499 117.141H64.0624V120.656C64.0624 121.301 64.5897 121.828 65.2342 121.828H79.2967C79.9413 121.828 80.4686 121.301 80.4686 120.656V117.141H94.5311V120.656C94.5311 121.301 95.0585 121.828 95.703 121.828H109.765C110.41 121.828 110.937 121.301 110.937 120.656V117.141H121.25C121.953 117.141 122.609 116.836 123.055 116.297C123.5 115.758 123.687 115.066 123.558 114.375L119.293 90.9258C119.19 90.3909 118.905 89.9083 118.486 89.56C118.067 89.2117 117.541 89.0194 116.996 89.0156H113.281V86.6719C113.281 83.7305 111.09 81.3047 108.254 80.8945C108.903 80.407 109.431 79.7754 109.795 79.0495C110.159 78.3235 110.349 77.523 110.351 76.7109C110.351 73.8047 107.984 71.4375 105.078 71.4375C102.172 71.4375 99.8045 73.8047 99.8045 76.7109C99.8045 78.4219 100.637 79.9336 101.902 80.8945C99.0663 81.3047 96.8749 83.7188 96.8749 86.6719ZM69.9217 73.7812C70.6987 73.7812 71.4439 74.0899 71.9933 74.6393C72.5428 75.1888 72.8514 75.9339 72.8514 76.7109C72.8514 77.4879 72.5428 78.2331 71.9933 78.7825C71.4439 79.332 70.6987 79.6406 69.9217 79.6406C69.1447 79.6406 68.3996 79.332 67.8501 78.7825C67.3007 78.2331 66.992 77.4879 66.992 76.7109C66.992 75.9339 67.3007 75.1888 67.8501 74.6393C68.3996 74.0899 69.1447 73.7812 69.9217 73.7812ZM64.0624 86.6719C64.0624 84.7383 65.6444 83.1562 67.578 83.1562H72.2655C74.1991 83.1562 75.7811 84.7383 75.7811 86.6719V89.0156H64.0624V86.6719ZM72.2655 99.5625C73.0425 99.5625 73.7877 99.8712 74.3371 100.421C74.8865 100.97 75.1952 101.715 75.1952 102.492C75.1952 103.269 74.8865 104.014 74.3371 104.564C73.7877 105.113 73.0425 105.422 72.2655 105.422C71.4885 105.422 70.7433 105.113 70.1939 104.564C69.6445 104.014 69.3358 103.269 69.3358 102.492C69.3358 101.715 69.6445 100.97 70.1939 100.421C70.7433 99.8712 71.4885 99.5625 72.2655 99.5625ZM78.1249 119.484H66.4061V112.453C66.4061 110.52 67.9881 108.938 69.9217 108.938H74.6092C76.5428 108.938 78.1249 110.52 78.1249 112.453V119.484ZM102.734 99.5625C103.511 99.5625 104.256 99.8712 104.806 100.421C105.355 100.97 105.664 101.715 105.664 102.492C105.664 103.269 105.355 104.014 104.806 104.564C104.256 105.113 103.511 105.422 102.734 105.422C101.957 105.422 101.212 105.113 100.663 104.564C100.113 104.014 99.8045 103.269 99.8045 102.492C99.8045 101.715 100.113 100.97 100.663 100.421C101.212 99.8712 101.957 99.5625 102.734 99.5625ZM108.594 119.484H96.8749V112.453C96.8749 110.52 98.4569 108.938 100.39 108.938H105.078C107.012 108.938 108.594 110.52 108.594 112.453V119.484ZM105.078 73.7812C105.855 73.7812 106.6 74.0899 107.15 74.6393C107.699 75.1888 108.008 75.9339 108.008 76.7109C108.008 77.4879 107.699 78.2331 107.15 78.7825C106.6 79.332 105.855 79.6406 105.078 79.6406C104.301 79.6406 103.556 79.332 103.006 78.7825C102.457 78.2331 102.148 77.4879 102.148 76.7109C102.148 75.9339 102.457 75.1888 103.006 74.6393C103.556 74.0899 104.301 73.7812 105.078 73.7812ZM99.2186 86.6719C99.2186 84.7383 100.801 83.1562 102.734 83.1562H107.422C109.355 83.1562 110.937 84.7383 110.937 86.6719V89.0156H99.2186V86.6719Z" fill="#C3380D"/>
<path d="M86.328 100.734H88.6718V103.078H86.328V100.734ZM88.8241 49.1719H86.1757C85.0741 49.1719 84.1835 50.0508 84.1835 51.1289V51.3867C83.6679 51.6094 83.1874 51.8789 82.7304 52.1953L82.4257 52.0312C81.4765 51.5039 80.2929 51.8203 79.7304 52.7461L78.4061 54.9375C78.1366 55.3945 78.0546 55.9219 78.1952 56.4375C78.3358 56.9531 78.6757 57.3867 79.1444 57.6445L79.4022 57.7852C79.3543 58.2918 79.3543 58.8019 79.4022 59.3086L79.1444 59.4492C78.6757 59.707 78.3241 60.1523 78.1952 60.6562C78.0546 61.1719 78.1366 61.6992 78.4061 62.1562L79.7304 64.3477C80.2811 65.2734 81.4647 65.5781 82.4257 65.0508L82.7304 64.8867C83.1874 65.2031 83.6796 65.4844 84.1835 65.6953V65.9531C84.1835 67.0312 85.0741 67.9102 86.1757 67.9102H88.8241C89.9257 67.9102 90.8163 67.0312 90.8163 65.9531V65.6953C91.3319 65.4727 91.8124 65.2031 92.2694 64.8867L92.5741 65.0508C93.5233 65.5781 94.7069 65.2617 95.2694 64.3359L96.5936 62.1445C96.8632 61.6875 96.9452 61.1602 96.8046 60.6445C96.664 60.1289 96.3241 59.6953 95.8554 59.4375L95.5975 59.2969C95.6454 58.7902 95.6454 58.2801 95.5975 57.7734L95.8554 57.6328C96.3241 57.375 96.6757 56.9297 96.8046 56.4258C96.9452 55.9102 96.8632 55.3828 96.5936 54.9258L95.2694 52.7344C94.7186 51.8086 93.5351 51.5039 92.5741 52.0312L92.2694 52.1953C91.8124 51.8789 91.3202 51.5977 90.8163 51.3867V51.1289C90.8163 50.0508 89.9257 49.1719 88.8241 49.1719ZM91.039 54.1992C91.6835 54.668 92.5507 54.7266 93.2304 54.3516L93.4413 54.2344L94.3788 55.7812L94.2616 55.8516C93.5468 56.2383 93.1483 57.0352 93.2655 57.8086C93.3007 58.0547 93.3241 58.2891 93.3241 58.5469C93.3241 58.8047 93.3007 59.0391 93.2772 59.2852C93.16 60.0703 93.5702 60.8555 94.2733 61.2422L94.4022 61.3125L93.4647 62.8594L93.2538 62.7422C92.5741 62.3672 91.7069 62.4258 91.0507 62.8945C90.6522 63.1875 90.2186 63.4219 89.7616 63.6094C88.9882 63.9141 88.4843 64.6406 88.4843 65.4375V65.5781H86.539V65.4375C86.539 64.6406 86.035 63.9258 85.2616 63.6094C84.8046 63.4219 84.371 63.1875 83.9725 62.8945C83.328 62.4258 82.4608 62.3672 81.7811 62.7422L81.5702 62.8594L80.6327 61.3125L80.7499 61.2422C81.4647 60.8555 81.8632 60.0586 81.746 59.2852C81.7108 59.0391 81.6874 58.8047 81.6874 58.5469C81.6874 58.2891 81.7108 58.0547 81.7343 57.8086C81.8515 57.0234 81.4413 56.2383 80.7382 55.8516L80.6093 55.7812L81.5468 54.2344L81.7577 54.3516C82.4491 54.7266 83.3046 54.668 83.9608 54.1992C84.3593 53.9062 84.7929 53.6719 85.2499 53.4844C85.6218 53.3432 85.9425 53.0933 86.1703 52.7672C86.3982 52.4411 86.5225 52.054 86.5272 51.6562V51.5156H88.4726V51.6562C88.4726 52.4531 88.9765 53.168 89.7499 53.4844C90.2069 53.6719 90.6405 53.9062 91.039 54.1992Z" fill="#C3380D"/>
<path d="M83.3984 58.5469C83.3984 60.8086 85.2383 62.6484 87.5 62.6484C89.7617 62.6484 91.6016 60.8086 91.6016 58.5469C91.6016 56.2852 89.7617 54.4453 87.5 54.4453C85.2383 54.4453 83.3984 56.2852 83.3984 58.5469ZM89.2578 58.5469C89.2578 59.5195 88.4727 60.3047 87.5 60.3047C86.5273 60.3047 85.7422 59.5195 85.7422 58.5469C85.7422 57.5742 86.5273 56.7891 87.5 56.7891C88.4727 56.7891 89.2578 57.5742 89.2578 58.5469Z" fill="#C3380D"/>
<path d="M153.54 81V66.1H155.9V81H153.54ZM158.769 81V70.18H160.929V72.52L160.649 72.16C160.876 71.4267 161.289 70.8733 161.889 70.5C162.489 70.1267 163.176 69.94 163.949 69.94C164.816 69.94 165.583 70.1733 166.249 70.64C166.929 71.0933 167.383 71.7 167.609 72.46L166.969 72.52C167.289 71.6533 167.776 71.0067 168.429 70.58C169.096 70.1533 169.856 69.94 170.709 69.94C171.456 69.94 172.129 70.1133 172.729 70.46C173.343 70.8067 173.829 71.2867 174.189 71.9C174.549 72.5133 174.729 73.2133 174.729 74V81H172.469V74.62C172.469 74.0733 172.369 73.6133 172.169 73.24C171.983 72.8533 171.716 72.56 171.369 72.36C171.036 72.1467 170.643 72.04 170.189 72.04C169.736 72.04 169.336 72.1467 168.989 72.36C168.643 72.56 168.369 72.8533 168.169 73.24C167.969 73.6267 167.869 74.0867 167.869 74.62V81H165.629V74.62C165.629 74.0733 165.529 73.6133 165.329 73.24C165.143 72.8533 164.876 72.56 164.529 72.36C164.196 72.1467 163.796 72.04 163.329 72.04C162.876 72.04 162.476 72.1467 162.129 72.36C161.783 72.56 161.509 72.8533 161.309 73.24C161.123 73.6267 161.029 74.0867 161.029 74.62V81H158.769ZM177.148 85V70.18H179.308V72.42L179.048 71.9C179.448 71.2867 179.981 70.8067 180.648 70.46C181.315 70.1133 182.075 69.94 182.928 69.94C183.955 69.94 184.875 70.1867 185.688 70.68C186.515 71.1733 187.161 71.8467 187.628 72.7C188.108 73.5533 188.348 74.5133 188.348 75.58C188.348 76.6467 188.108 77.6067 187.628 78.46C187.161 79.3133 186.521 79.9933 185.708 80.5C184.895 80.9933 183.968 81.24 182.928 81.24C182.088 81.24 181.321 81.0667 180.628 80.72C179.948 80.3733 179.421 79.8733 179.048 79.22L179.408 78.8V85H177.148ZM182.708 79.14C183.348 79.14 183.915 78.9867 184.408 78.68C184.901 78.3733 185.288 77.9533 185.568 77.42C185.861 76.8733 186.008 76.26 186.008 75.58C186.008 74.9 185.861 74.2933 185.568 73.76C185.288 73.2267 184.901 72.8067 184.408 72.5C183.915 72.1933 183.348 72.04 182.708 72.04C182.081 72.04 181.515 72.1933 181.008 72.5C180.515 72.8067 180.121 73.2267 179.828 73.76C179.548 74.2933 179.408 74.9 179.408 75.58C179.408 76.26 179.548 76.8733 179.828 77.42C180.121 77.9533 180.515 78.3733 181.008 78.68C181.515 78.9867 182.081 79.14 182.708 79.14ZM190.547 81V70.18H192.707V72.36L192.507 72.04C192.747 71.3333 193.133 70.8267 193.667 70.52C194.2 70.2 194.84 70.04 195.587 70.04H196.247V72.1H195.307C194.56 72.1 193.953 72.3333 193.487 72.8C193.033 73.2533 192.807 73.9067 192.807 74.76V81H190.547ZM203.013 81.24C201.973 81.24 201.019 80.9933 200.153 80.5C199.299 80.0067 198.619 79.3333 198.113 78.48C197.606 77.6267 197.353 76.66 197.353 75.58C197.353 74.4867 197.606 73.52 198.113 72.68C198.619 71.8267 199.299 71.16 200.153 70.68C201.006 70.1867 201.959 69.94 203.013 69.94C204.079 69.94 205.033 70.1867 205.873 70.68C206.726 71.16 207.399 71.8267 207.893 72.68C208.399 73.52 208.653 74.4867 208.653 75.58C208.653 76.6733 208.399 77.6467 207.893 78.5C207.386 79.3533 206.706 80.0267 205.853 80.52C204.999 81 204.053 81.24 203.013 81.24ZM203.013 79.14C203.653 79.14 204.219 78.9867 204.713 78.68C205.206 78.3733 205.593 77.9533 205.873 77.42C206.166 76.8733 206.313 76.26 206.313 75.58C206.313 74.9 206.166 74.2933 205.873 73.76C205.593 73.2267 205.206 72.8067 204.713 72.5C204.219 72.1933 203.653 72.04 203.013 72.04C202.386 72.04 201.819 72.1933 201.313 72.5C200.819 72.8067 200.426 73.2267 200.133 73.76C199.853 74.2933 199.713 74.9 199.713 75.58C199.713 76.26 199.853 76.8733 200.133 77.42C200.426 77.9533 200.819 78.3733 201.313 78.68C201.819 78.9867 202.386 79.14 203.013 79.14ZM213.804 81L209.564 70.18H212.024L215.284 79H214.384L217.644 70.18H220.124L215.864 81H213.804ZM226.545 81.24C225.465 81.24 224.505 80.9933 223.665 80.5C222.838 79.9933 222.191 79.3133 221.725 78.46C221.258 77.5933 221.025 76.6267 221.025 75.56C221.025 74.4667 221.258 73.5 221.725 72.66C222.205 71.82 222.845 71.16 223.645 70.68C224.445 70.1867 225.351 69.94 226.365 69.94C227.178 69.94 227.905 70.08 228.545 70.36C229.185 70.64 229.725 71.0267 230.165 71.52C230.605 72 230.938 72.5533 231.165 73.18C231.405 73.8067 231.525 74.4733 231.525 75.18C231.525 75.3533 231.518 75.5333 231.505 75.72C231.491 75.9067 231.465 76.08 231.425 76.24H222.805V74.44H230.145L229.065 75.26C229.198 74.6067 229.151 74.0267 228.925 73.52C228.711 73 228.378 72.5933 227.925 72.3C227.485 71.9933 226.965 71.84 226.365 71.84C225.765 71.84 225.231 71.9933 224.765 72.3C224.298 72.5933 223.938 73.02 223.685 73.58C223.431 74.1267 223.331 74.7933 223.385 75.58C223.318 76.3133 223.418 76.9533 223.685 77.5C223.965 78.0467 224.351 78.4733 224.845 78.78C225.351 79.0867 225.925 79.24 226.565 79.24C227.218 79.24 227.771 79.0933 228.225 78.8C228.691 78.5067 229.058 78.1267 229.325 77.66L231.165 78.56C230.951 79.0667 230.618 79.5267 230.165 79.94C229.725 80.34 229.191 80.66 228.565 80.9C227.951 81.1267 227.278 81.24 226.545 81.24ZM233.73 81V70.18H235.89V72.52L235.61 72.16C235.837 71.4267 236.25 70.8733 236.85 70.5C237.45 70.1267 238.137 69.94 238.91 69.94C239.777 69.94 240.543 70.1733 241.21 70.64C241.89 71.0933 242.343 71.7 242.57 72.46L241.93 72.52C242.25 71.6533 242.737 71.0067 243.39 70.58C244.057 70.1533 244.817 69.94 245.67 69.94C246.417 69.94 247.09 70.1133 247.69 70.46C248.303 70.8067 248.79 71.2867 249.15 71.9C249.51 72.5133 249.69 73.2133 249.69 74V81H247.43V74.62C247.43 74.0733 247.33 73.6133 247.13 73.24C246.943 72.8533 246.677 72.56 246.33 72.36C245.997 72.1467 245.603 72.04 245.15 72.04C244.697 72.04 244.297 72.1467 243.95 72.36C243.603 72.56 243.33 72.8533 243.13 73.24C242.93 73.6267 242.83 74.0867 242.83 74.62V81H240.59V74.62C240.59 74.0733 240.49 73.6133 240.29 73.24C240.103 72.8533 239.837 72.56 239.49 72.36C239.157 72.1467 238.757 72.04 238.29 72.04C237.837 72.04 237.437 72.1467 237.09 72.36C236.743 72.56 236.47 72.8533 236.27 73.24C236.083 73.6267 235.99 74.0867 235.99 74.62V81H233.73ZM257.189 81.24C256.109 81.24 255.149 80.9933 254.309 80.5C253.482 79.9933 252.836 79.3133 252.369 78.46C251.902 77.5933 251.669 76.6267 251.669 75.56C251.669 74.4667 251.902 73.5 252.369 72.66C252.849 71.82 253.489 71.16 254.289 70.68C255.089 70.1867 255.996 69.94 257.009 69.94C257.822 69.94 258.549 70.08 259.189 70.36C259.829 70.64 260.369 71.0267 260.809 71.52C261.249 72 261.582 72.5533 261.809 73.18C262.049 73.8067 262.169 74.4733 262.169 75.18C262.169 75.3533 262.162 75.5333 262.149 75.72C262.136 75.9067 262.109 76.08 262.069 76.24H253.449V74.44H260.789L259.709 75.26C259.842 74.6067 259.796 74.0267 259.569 73.52C259.356 73 259.022 72.5933 258.569 72.3C258.129 71.9933 257.609 71.84 257.009 71.84C256.409 71.84 255.876 71.9933 255.409 72.3C254.942 72.5933 254.582 73.02 254.329 73.58C254.076 74.1267 253.976 74.7933 254.029 75.58C253.962 76.3133 254.062 76.9533 254.329 77.5C254.609 78.0467 254.996 78.4733 255.489 78.78C255.996 79.0867 256.569 79.24 257.209 79.24C257.862 79.24 258.416 79.0933 258.869 78.8C259.336 78.5067 259.702 78.1267 259.969 77.66L261.809 78.56C261.596 79.0667 261.262 79.5267 260.809 79.94C260.369 80.34 259.836 80.66 259.209 80.9C258.596 81.1267 257.922 81.24 257.189 81.24ZM264.375 81V70.18H266.535V72.3L266.275 72.02C266.541 71.34 266.968 70.8267 267.555 70.48C268.141 70.12 268.821 69.94 269.595 69.94C270.395 69.94 271.101 70.1133 271.715 70.46C272.328 70.8067 272.808 71.2867 273.155 71.9C273.501 72.5133 273.675 73.22 273.675 74.02V81H271.435V74.62C271.435 74.0733 271.335 73.6133 271.135 73.24C270.935 72.8533 270.648 72.56 270.275 72.36C269.915 72.1467 269.501 72.04 269.035 72.04C268.568 72.04 268.148 72.1467 267.775 72.36C267.415 72.56 267.135 72.8533 266.935 73.24C266.735 73.6267 266.635 74.0867 266.635 74.62V81H264.375ZM280.773 81.12C279.64 81.12 278.76 80.8 278.133 80.16C277.507 79.52 277.193 78.62 277.193 77.46V72.22H275.293V70.18H275.593C276.1 70.18 276.493 70.0333 276.773 69.74C277.053 69.4467 277.193 69.0467 277.193 68.54V67.7H279.453V70.18H281.913V72.22H279.453V77.36C279.453 77.7333 279.513 78.0533 279.633 78.32C279.753 78.5733 279.947 78.7733 280.213 78.92C280.48 79.0533 280.827 79.12 281.253 79.12C281.36 79.12 281.48 79.1133 281.613 79.1C281.747 79.0867 281.873 79.0733 281.993 79.06V81C281.807 81.0267 281.6 81.0533 281.373 81.08C281.147 81.1067 280.947 81.12 280.773 81.12ZM287.695 81V70.18H289.955V81H287.695ZM287.695 68.7V66.1H289.955V68.7H287.695ZM292.597 81V70.18H294.757V72.3L294.497 72.02C294.764 71.34 295.191 70.8267 295.777 70.48C296.364 70.12 297.044 69.94 297.817 69.94C298.617 69.94 299.324 70.1133 299.937 70.46C300.551 70.8067 301.031 71.2867 301.377 71.9C301.724 72.5133 301.897 73.22 301.897 74.02V81H299.657V74.62C299.657 74.0733 299.557 73.6133 299.357 73.24C299.157 72.8533 298.871 72.56 298.497 72.36C298.137 72.1467 297.724 72.04 297.257 72.04C296.791 72.04 296.371 72.1467 295.997 72.36C295.637 72.56 295.357 72.8533 295.157 73.24C294.957 73.6267 294.857 74.0867 294.857 74.62V81H292.597ZM310.812 81L306.712 66.1H309.212L312.532 79H311.912L315.352 66.1H317.812L321.252 79H320.612L323.952 66.1H326.432L322.352 81H319.692L316.232 68.3H316.932L313.452 81H310.812ZM332.485 81.24C331.445 81.24 330.492 80.9933 329.625 80.5C328.772 80.0067 328.092 79.3333 327.585 78.48C327.079 77.6267 326.825 76.66 326.825 75.58C326.825 74.4867 327.079 73.52 327.585 72.68C328.092 71.8267 328.772 71.16 329.625 70.68C330.479 70.1867 331.432 69.94 332.485 69.94C333.552 69.94 334.505 70.1867 335.345 70.68C336.199 71.16 336.872 71.8267 337.365 72.68C337.872 73.52 338.125 74.4867 338.125 75.58C338.125 76.6733 337.872 77.6467 337.365 78.5C336.859 79.3533 336.179 80.0267 335.325 80.52C334.472 81 333.525 81.24 332.485 81.24ZM332.485 79.14C333.125 79.14 333.692 78.9867 334.185 78.68C334.679 78.3733 335.065 77.9533 335.345 77.42C335.639 76.8733 335.785 76.26 335.785 75.58C335.785 74.9 335.639 74.2933 335.345 73.76C335.065 73.2267 334.679 72.8067 334.185 72.5C333.692 72.1933 333.125 72.04 332.485 72.04C331.859 72.04 331.292 72.1933 330.785 72.5C330.292 72.8067 329.899 73.2267 329.605 73.76C329.325 74.2933 329.185 74.9 329.185 75.58C329.185 76.26 329.325 76.8733 329.605 77.42C329.899 77.9533 330.292 78.3733 330.785 78.68C331.292 78.9867 331.859 79.14 332.485 79.14ZM340.332 81V70.18H342.492V72.36L342.292 72.04C342.532 71.3333 342.918 70.8267 343.452 70.52C343.985 70.2 344.625 70.04 345.372 70.04H346.032V72.1H345.092C344.345 72.1 343.738 72.3333 343.272 72.8C342.818 73.2533 342.592 73.9067 342.592 74.76V81H340.332ZM347.578 81V65.86H349.838V76L348.958 75.78L354.378 70.18H357.198L353.118 74.52L357.378 81H354.778L350.978 75.26L352.318 75.08L349.118 78.48L349.838 76.98V81H347.578ZM358.925 85V70.18H361.085V72.42L360.825 71.9C361.225 71.2867 361.759 70.8067 362.425 70.46C363.092 70.1133 363.852 69.94 364.705 69.94C365.732 69.94 366.652 70.1867 367.465 70.68C368.292 71.1733 368.939 71.8467 369.405 72.7C369.885 73.5533 370.125 74.5133 370.125 75.58C370.125 76.6467 369.885 77.6067 369.405 78.46C368.939 79.3133 368.299 79.9933 367.485 80.5C366.672 80.9933 365.745 81.24 364.705 81.24C363.865 81.24 363.099 81.0667 362.405 80.72C361.725 80.3733 361.199 79.8733 360.825 79.22L361.185 78.8V85H358.925ZM364.485 79.14C365.125 79.14 365.692 78.9867 366.185 78.68C366.679 78.3733 367.065 77.9533 367.345 77.42C367.639 76.8733 367.785 76.26 367.785 75.58C367.785 74.9 367.639 74.2933 367.345 73.76C367.065 73.2267 366.679 72.8067 366.185 72.5C365.692 72.1933 365.125 72.04 364.485 72.04C363.859 72.04 363.292 72.1933 362.785 72.5C362.292 72.8067 361.899 73.2267 361.605 73.76C361.325 74.2933 361.185 74.9 361.185 75.58C361.185 76.26 361.325 76.8733 361.605 77.42C361.899 77.9533 362.292 78.3733 362.785 78.68C363.292 78.9867 363.859 79.14 364.485 79.14ZM372.324 81V65.86H374.584V81H372.324ZM380.466 81.24C379.733 81.24 379.086 81.1133 378.526 80.86C377.98 80.5933 377.553 80.2333 377.246 79.78C376.94 79.3133 376.786 78.7667 376.786 78.14C376.786 77.5533 376.913 77.0267 377.166 76.56C377.433 76.0933 377.84 75.7 378.386 75.38C378.933 75.06 379.62 74.8333 380.446 74.7L384.206 74.08V75.86L380.886 76.44C380.286 76.5467 379.846 76.74 379.566 77.02C379.286 77.2867 379.146 77.6333 379.146 78.06C379.146 78.4733 379.3 78.8133 379.606 79.08C379.926 79.3333 380.333 79.46 380.826 79.46C381.44 79.46 381.973 79.3267 382.426 79.06C382.893 78.7933 383.253 78.44 383.506 78C383.76 77.5467 383.886 77.0467 383.886 76.5V73.72C383.886 73.1867 383.686 72.7533 383.286 72.42C382.9 72.0733 382.38 71.9 381.726 71.9C381.126 71.9 380.6 72.06 380.146 72.38C379.706 72.6867 379.38 73.0867 379.166 73.58L377.286 72.64C377.486 72.1067 377.813 71.64 378.266 71.24C378.72 70.8267 379.246 70.5067 379.846 70.28C380.46 70.0533 381.106 69.94 381.786 69.94C382.64 69.94 383.393 70.1 384.046 70.42C384.713 70.74 385.226 71.1867 385.586 71.76C385.96 72.32 386.146 72.9733 386.146 73.72V81H383.986V79.04L384.446 79.1C384.193 79.54 383.866 79.92 383.466 80.24C383.08 80.56 382.633 80.8067 382.126 80.98C381.633 81.1533 381.08 81.24 380.466 81.24ZM393.929 81.24C392.849 81.24 391.889 80.9933 391.049 80.5C390.222 79.9933 389.562 79.3133 389.069 78.46C388.589 77.6067 388.349 76.64 388.349 75.56C388.349 74.4933 388.589 73.5333 389.069 72.68C389.549 71.8267 390.209 71.16 391.049 70.68C391.889 70.1867 392.849 69.94 393.929 69.94C394.662 69.94 395.349 70.0733 395.989 70.34C396.629 70.5933 397.182 70.9467 397.649 71.4C398.129 71.8533 398.482 72.38 398.709 72.98L396.729 73.9C396.502 73.34 396.135 72.8933 395.629 72.56C395.135 72.2133 394.569 72.04 393.929 72.04C393.315 72.04 392.762 72.1933 392.269 72.5C391.789 72.7933 391.409 73.2133 391.129 73.76C390.849 74.2933 390.709 74.9 390.709 75.58C390.709 76.26 390.849 76.8733 391.129 77.42C391.409 77.9533 391.789 78.3733 392.269 78.68C392.762 78.9867 393.315 79.14 393.929 79.14C394.582 79.14 395.149 78.9733 395.629 78.64C396.122 78.2933 396.489 77.8333 396.729 77.26L398.709 78.2C398.495 78.7733 398.149 79.2933 397.669 79.76C397.202 80.2133 396.649 80.5733 396.009 80.84C395.369 81.1067 394.675 81.24 393.929 81.24ZM405.998 81.24C404.918 81.24 403.958 80.9933 403.118 80.5C402.291 79.9933 401.644 79.3133 401.178 78.46C400.711 77.5933 400.478 76.6267 400.478 75.56C400.478 74.4667 400.711 73.5 401.178 72.66C401.658 71.82 402.298 71.16 403.098 70.68C403.898 70.1867 404.804 69.94 405.818 69.94C406.631 69.94 407.358 70.08 407.998 70.36C408.638 70.64 409.178 71.0267 409.618 71.52C410.058 72 410.391 72.5533 410.618 73.18C410.858 73.8067 410.978 74.4733 410.978 75.18C410.978 75.3533 410.971 75.5333 410.958 75.72C410.944 75.9067 410.918 76.08 410.878 76.24H402.258V74.44H409.598L408.518 75.26C408.651 74.6067 408.604 74.0267 408.378 73.52C408.164 73 407.831 72.5933 407.378 72.3C406.938 71.9933 406.418 71.84 405.818 71.84C405.218 71.84 404.684 71.9933 404.218 72.3C403.751 72.5933 403.391 73.02 403.138 73.58C402.884 74.1267 402.784 74.7933 402.838 75.58C402.771 76.3133 402.871 76.9533 403.138 77.5C403.418 78.0467 403.804 78.4733 404.298 78.78C404.804 79.0867 405.378 79.24 406.018 79.24C406.671 79.24 407.224 79.0933 407.678 78.8C408.144 78.5067 408.511 78.1267 408.778 77.66L410.618 78.56C410.404 79.0667 410.071 79.5267 409.618 79.94C409.178 80.34 408.644 80.66 408.018 80.9C407.404 81.1267 406.731 81.24 405.998 81.24ZM423.839 81.24C422.786 81.24 421.806 81.0467 420.899 80.66C420.006 80.2733 419.226 79.74 418.559 79.06C417.906 78.3667 417.393 77.5533 417.019 76.62C416.646 75.6867 416.459 74.66 416.459 73.54C416.459 72.4333 416.639 71.4133 416.999 70.48C417.373 69.5333 417.893 68.72 418.559 68.04C419.226 67.3467 420.006 66.8133 420.899 66.44C421.793 66.0533 422.773 65.86 423.839 65.86C424.893 65.86 425.833 66.04 426.659 66.4C427.499 66.76 428.206 67.2333 428.779 67.82C429.353 68.3933 429.766 69.02 430.019 69.7L427.899 70.7C427.579 69.9 427.066 69.2533 426.359 68.76C425.666 68.2533 424.826 68 423.839 68C422.853 68 421.979 68.2333 421.219 68.7C420.459 69.1667 419.866 69.8133 419.439 70.64C419.026 71.4667 418.819 72.4333 418.819 73.54C418.819 74.6467 419.026 75.62 419.439 76.46C419.866 77.2867 420.459 77.9333 421.219 78.4C421.979 78.8533 422.853 79.08 423.839 79.08C424.826 79.08 425.666 78.8333 426.359 78.34C427.066 77.8467 427.579 77.2 427.899 76.4L430.019 77.4C429.766 78.0667 429.353 78.6933 428.779 79.28C428.206 79.8667 427.499 80.34 426.659 80.7C425.833 81.06 424.893 81.24 423.839 81.24ZM437.251 81.24C436.211 81.24 435.258 80.9933 434.391 80.5C433.538 80.0067 432.858 79.3333 432.351 78.48C431.844 77.6267 431.591 76.66 431.591 75.58C431.591 74.4867 431.844 73.52 432.351 72.68C432.858 71.8267 433.538 71.16 434.391 70.68C435.244 70.1867 436.198 69.94 437.251 69.94C438.318 69.94 439.271 70.1867 440.111 70.68C440.964 71.16 441.638 71.8267 442.131 72.68C442.638 73.52 442.891 74.4867 442.891 75.58C442.891 76.6733 442.638 77.6467 442.131 78.5C441.624 79.3533 440.944 80.0267 440.091 80.52C439.238 81 438.291 81.24 437.251 81.24ZM437.251 79.14C437.891 79.14 438.458 78.9867 438.951 78.68C439.444 78.3733 439.831 77.9533 440.111 77.42C440.404 76.8733 440.551 76.26 440.551 75.58C440.551 74.9 440.404 74.2933 440.111 73.76C439.831 73.2267 439.444 72.8067 438.951 72.5C438.458 72.1933 437.891 72.04 437.251 72.04C436.624 72.04 436.058 72.1933 435.551 72.5C435.058 72.8067 434.664 73.2267 434.371 73.76C434.091 74.2933 433.951 74.9 433.951 75.58C433.951 76.26 434.091 76.8733 434.371 77.42C434.664 77.9533 435.058 78.3733 435.551 78.68C436.058 78.9867 436.624 79.14 437.251 79.14ZM445.097 81V65.86H447.357V81H445.097ZM450 81V65.86H452.26V81H450ZM458.142 81.24C457.409 81.24 456.762 81.1133 456.202 80.86C455.655 80.5933 455.229 80.2333 454.922 79.78C454.615 79.3133 454.462 78.7667 454.462 78.14C454.462 77.5533 454.589 77.0267 454.842 76.56C455.109 76.0933 455.515 75.7 456.062 75.38C456.609 75.06 457.295 74.8333 458.122 74.7L461.882 74.08V75.86L458.562 76.44C457.962 76.5467 457.522 76.74 457.242 77.02C456.962 77.2867 456.822 77.6333 456.822 78.06C456.822 78.4733 456.975 78.8133 457.282 79.08C457.602 79.3333 458.009 79.46 458.502 79.46C459.115 79.46 459.649 79.3267 460.102 79.06C460.569 78.7933 460.929 78.44 461.182 78C461.435 77.5467 461.562 77.0467 461.562 76.5V73.72C461.562 73.1867 461.362 72.7533 460.962 72.42C460.575 72.0733 460.055 71.9 459.402 71.9C458.802 71.9 458.275 72.06 457.822 72.38C457.382 72.6867 457.055 73.0867 456.842 73.58L454.962 72.64C455.162 72.1067 455.489 71.64 455.942 71.24C456.395 70.8267 456.922 70.5067 457.522 70.28C458.135 70.0533 458.782 69.94 459.462 69.94C460.315 69.94 461.069 70.1 461.722 70.42C462.389 70.74 462.902 71.1867 463.262 71.76C463.635 72.32 463.822 72.9733 463.822 73.72V81H461.662V79.04L462.122 79.1C461.869 79.54 461.542 79.92 461.142 80.24C460.755 80.56 460.309 80.8067 459.802 80.98C459.309 81.1533 458.755 81.24 458.142 81.24ZM472.245 81.24C471.405 81.24 470.638 81.0667 469.945 80.72C469.265 80.3733 468.738 79.8733 468.365 79.22L468.625 78.8V81H466.465V65.86H468.725V72.42L468.365 71.9C468.765 71.2867 469.298 70.8067 469.965 70.46C470.631 70.1133 471.391 69.94 472.245 69.94C473.271 69.94 474.191 70.1867 475.005 70.68C475.831 71.1733 476.478 71.8467 476.945 72.7C477.425 73.5533 477.665 74.5133 477.665 75.58C477.665 76.6467 477.425 77.6067 476.945 78.46C476.478 79.3133 475.838 79.9933 475.025 80.5C474.211 80.9933 473.285 81.24 472.245 81.24ZM472.025 79.14C472.665 79.14 473.231 78.9867 473.725 78.68C474.218 78.3733 474.605 77.9533 474.885 77.42C475.178 76.8733 475.325 76.26 475.325 75.58C475.325 74.9 475.178 74.2933 474.885 73.76C474.605 73.2267 474.218 72.8067 473.725 72.5C473.231 72.1933 472.665 72.04 472.025 72.04C471.398 72.04 470.831 72.1933 470.325 72.5C469.831 72.8067 469.438 73.2267 469.145 73.76C468.865 74.2933 468.725 74.9 468.725 75.58C468.725 76.26 468.865 76.8733 469.145 77.42C469.438 77.9533 469.831 78.3733 470.325 78.68C470.831 78.9867 471.398 79.14 472.025 79.14ZM485.083 81.24C484.043 81.24 483.09 80.9933 482.223 80.5C481.37 80.0067 480.69 79.3333 480.183 78.48C479.676 77.6267 479.423 76.66 479.423 75.58C479.423 74.4867 479.676 73.52 480.183 72.68C480.69 71.8267 481.37 71.16 482.223 70.68C483.076 70.1867 484.03 69.94 485.083 69.94C486.15 69.94 487.103 70.1867 487.943 70.68C488.796 71.16 489.47 71.8267 489.963 72.68C490.47 73.52 490.723 74.4867 490.723 75.58C490.723 76.6733 490.47 77.6467 489.963 78.5C489.456 79.3533 488.776 80.0267 487.923 80.52C487.07 81 486.123 81.24 485.083 81.24ZM485.083 79.14C485.723 79.14 486.29 78.9867 486.783 78.68C487.276 78.3733 487.663 77.9533 487.943 77.42C488.236 76.8733 488.383 76.26 488.383 75.58C488.383 74.9 488.236 74.2933 487.943 73.76C487.663 73.2267 487.276 72.8067 486.783 72.5C486.29 72.1933 485.723 72.04 485.083 72.04C484.456 72.04 483.89 72.1933 483.383 72.5C482.89 72.8067 482.496 73.2267 482.203 73.76C481.923 74.2933 481.783 74.9 481.783 75.58C481.783 76.26 481.923 76.8733 482.203 77.42C482.496 77.9533 482.89 78.3733 483.383 78.68C483.89 78.9867 484.456 79.14 485.083 79.14ZM492.929 81V70.18H495.089V72.36L494.889 72.04C495.129 71.3333 495.516 70.8267 496.049 70.52C496.583 70.2 497.223 70.04 497.969 70.04H498.629V72.1H497.689C496.943 72.1 496.336 72.3333 495.869 72.8C495.416 73.2533 495.189 73.9067 495.189 74.76V81H492.929ZM503.415 81.24C502.682 81.24 502.035 81.1133 501.475 80.86C500.929 80.5933 500.502 80.2333 500.195 79.78C499.889 79.3133 499.735 78.7667 499.735 78.14C499.735 77.5533 499.862 77.0267 500.115 76.56C500.382 76.0933 500.789 75.7 501.335 75.38C501.882 75.06 502.569 74.8333 503.395 74.7L507.155 74.08V75.86L503.835 76.44C503.235 76.5467 502.795 76.74 502.515 77.02C502.235 77.2867 502.095 77.6333 502.095 78.06C502.095 78.4733 502.249 78.8133 502.555 79.08C502.875 79.3333 503.282 79.46 503.775 79.46C504.389 79.46 504.922 79.3267 505.375 79.06C505.842 78.7933 506.202 78.44 506.455 78C506.709 77.5467 506.835 77.0467 506.835 76.5V73.72C506.835 73.1867 506.635 72.7533 506.235 72.42C505.849 72.0733 505.329 71.9 504.675 71.9C504.075 71.9 503.549 72.06 503.095 72.38C502.655 72.6867 502.329 73.0867 502.115 73.58L500.235 72.64C500.435 72.1067 500.762 71.64 501.215 71.24C501.669 70.8267 502.195 70.5067 502.795 70.28C503.409 70.0533 504.055 69.94 504.735 69.94C505.589 69.94 506.342 70.1 506.995 70.42C507.662 70.74 508.175 71.1867 508.535 71.76C508.909 72.32 509.095 72.9733 509.095 73.72V81H506.935V79.04L507.395 79.1C507.142 79.54 506.815 79.92 506.415 80.24C506.029 80.56 505.582 80.8067 505.075 80.98C504.582 81.1533 504.029 81.24 503.415 81.24ZM516.223 81.12C515.089 81.12 514.209 80.8 513.583 80.16C512.956 79.52 512.643 78.62 512.643 77.46V72.22H510.743V70.18H511.043C511.549 70.18 511.943 70.0333 512.223 69.74C512.503 69.4467 512.643 69.0467 512.643 68.54V67.7H514.903V70.18H517.363V72.22H514.903V77.36C514.903 77.7333 514.963 78.0533 515.083 78.32C515.203 78.5733 515.396 78.7733 515.663 78.92C515.929 79.0533 516.276 79.12 516.703 79.12C516.809 79.12 516.929 79.1133 517.063 79.1C517.196 79.0867 517.323 79.0733 517.443 79.06V81C517.256 81.0267 517.049 81.0533 516.823 81.08C516.596 81.1067 516.396 81.12 516.223 81.12ZM519.648 81V70.18H521.908V81H519.648ZM519.648 68.7V66.1H521.908V68.7H519.648ZM529.77 81.24C528.73 81.24 527.777 80.9933 526.91 80.5C526.057 80.0067 525.377 79.3333 524.87 78.48C524.364 77.6267 524.11 76.66 524.11 75.58C524.11 74.4867 524.364 73.52 524.87 72.68C525.377 71.8267 526.057 71.16 526.91 70.68C527.764 70.1867 528.717 69.94 529.77 69.94C530.837 69.94 531.79 70.1867 532.63 70.68C533.484 71.16 534.157 71.8267 534.65 72.68C535.157 73.52 535.41 74.4867 535.41 75.58C535.41 76.6733 535.157 77.6467 534.65 78.5C534.144 79.3533 533.464 80.0267 532.61 80.52C531.757 81 530.81 81.24 529.77 81.24ZM529.77 79.14C530.41 79.14 530.977 78.9867 531.47 78.68C531.964 78.3733 532.35 77.9533 532.63 77.42C532.924 76.8733 533.07 76.26 533.07 75.58C533.07 74.9 532.924 74.2933 532.63 73.76C532.35 73.2267 531.964 72.8067 531.47 72.5C530.977 72.1933 530.41 72.04 529.77 72.04C529.144 72.04 528.577 72.1933 528.07 72.5C527.577 72.8067 527.184 73.2267 526.89 73.76C526.61 74.2933 526.47 74.9 526.47 75.58C526.47 76.26 526.61 76.8733 526.89 77.42C527.184 77.9533 527.577 78.3733 528.07 78.68C528.577 78.9867 529.144 79.14 529.77 79.14ZM537.617 81V70.18H539.777V72.3L539.517 72.02C539.784 71.34 540.21 70.8267 540.797 70.48C541.384 70.12 542.064 69.94 542.837 69.94C543.637 69.94 544.344 70.1133 544.957 70.46C545.57 70.8067 546.05 71.2867 546.397 71.9C546.744 72.5133 546.917 73.22 546.917 74.02V81H544.677V74.62C544.677 74.0733 544.577 73.6133 544.377 73.24C544.177 72.8533 543.89 72.56 543.517 72.36C543.157 72.1467 542.744 72.04 542.277 72.04C541.81 72.04 541.39 72.1467 541.017 72.36C540.657 72.56 540.377 72.8533 540.177 73.24C539.977 73.6267 539.877 74.0867 539.877 74.62V81H537.617Z" fill="black"/>
<path d="M152.272 108L156.656 96.08H157.728L162.112 108H160.992L159.904 104.96H154.48L153.376 108H152.272ZM154.816 104H159.552L156.992 96.88H157.376L154.816 104ZM164.271 108V100.416H162.543V99.504H164.271V98.688C164.271 98.0907 164.388 97.584 164.623 97.168C164.868 96.752 165.199 96.4373 165.615 96.224C166.031 96 166.489 95.888 166.991 95.888C167.108 95.888 167.225 95.8987 167.343 95.92C167.471 95.9307 167.577 95.9467 167.663 95.968V96.832C167.577 96.8107 167.476 96.8 167.359 96.8C167.241 96.7893 167.151 96.784 167.087 96.784C166.532 96.784 166.084 96.944 165.743 97.264C165.401 97.5733 165.231 98.048 165.231 98.688V99.504H167.343V100.416H165.231V108H164.271ZM172.869 108.096C172.165 108.096 171.621 107.899 171.237 107.504C170.853 107.099 170.661 106.512 170.661 105.744V100.416H169.061V99.504H169.669C169.989 99.504 170.234 99.408 170.405 99.216C170.576 99.024 170.661 98.7627 170.661 98.432V97.52H171.621V99.504H173.477V100.416H171.621V105.744C171.621 105.979 171.653 106.208 171.717 106.432C171.792 106.656 171.93 106.837 172.133 106.976C172.336 107.115 172.629 107.184 173.013 107.184C173.098 107.184 173.2 107.179 173.317 107.168C173.445 107.157 173.546 107.147 173.621 107.136V108C173.504 108.032 173.37 108.053 173.221 108.064C173.072 108.085 172.954 108.096 172.869 108.096ZM179.497 108.192C178.697 108.192 177.977 108 177.337 107.616C176.697 107.221 176.191 106.688 175.817 106.016C175.444 105.333 175.257 104.571 175.257 103.728C175.257 102.885 175.439 102.133 175.801 101.472C176.164 100.8 176.655 100.272 177.273 99.888C177.892 99.504 178.585 99.312 179.353 99.312C179.94 99.312 180.468 99.4187 180.937 99.632C181.417 99.8453 181.828 100.144 182.169 100.528C182.521 100.901 182.788 101.333 182.969 101.824C183.161 102.304 183.257 102.811 183.257 103.344C183.257 103.451 183.252 103.563 183.241 103.68C183.231 103.797 183.215 103.92 183.193 104.048H175.817V103.168H182.649L182.217 103.504C182.281 102.885 182.191 102.331 181.945 101.84C181.7 101.339 181.348 100.944 180.889 100.656C180.441 100.357 179.929 100.208 179.353 100.208C178.777 100.208 178.249 100.363 177.769 100.672C177.289 100.971 176.911 101.387 176.633 101.92C176.356 102.443 176.228 103.051 176.249 103.744C176.228 104.437 176.361 105.051 176.649 105.584C176.937 106.117 177.332 106.539 177.833 106.848C178.335 107.147 178.889 107.296 179.497 107.296C180.116 107.296 180.655 107.152 181.113 106.864C181.572 106.565 181.945 106.171 182.233 105.68L183.049 106.112C182.857 106.507 182.585 106.864 182.233 107.184C181.881 107.493 181.471 107.739 181.001 107.92C180.543 108.101 180.041 108.192 179.497 108.192ZM185.547 108V99.504H186.507V101.088L186.331 100.944C186.512 100.464 186.821 100.085 187.259 99.808C187.707 99.5307 188.235 99.392 188.843 99.392H189.387V100.352H188.731C188.037 100.352 187.493 100.576 187.099 101.024C186.704 101.461 186.507 102.053 186.507 102.8V108H185.547ZM195.881 108V97.04H192.553V96.08H200.233V97.04H196.921V108H195.881ZM200.859 108V99.504H201.819V101.088L201.643 100.944C201.825 100.464 202.134 100.085 202.571 99.808C203.019 99.5307 203.547 99.392 204.155 99.392H204.699V100.352H204.043C203.35 100.352 202.806 100.576 202.411 101.024C202.017 101.461 201.819 102.053 201.819 102.8V108H200.859ZM208.713 108.192C208.18 108.192 207.705 108.091 207.289 107.888C206.873 107.685 206.542 107.403 206.297 107.04C206.052 106.677 205.929 106.261 205.929 105.792C205.929 105.376 206.02 104.987 206.201 104.624C206.382 104.261 206.676 103.952 207.081 103.696C207.486 103.429 208.014 103.243 208.665 103.136L212.105 102.56V103.456L208.921 103.984C208.196 104.101 207.684 104.32 207.385 104.64C207.086 104.96 206.937 105.333 206.937 105.76C206.937 106.219 207.108 106.592 207.449 106.88C207.801 107.168 208.244 107.312 208.777 107.312C209.396 107.312 209.934 107.173 210.393 106.896C210.852 106.608 211.209 106.235 211.465 105.776C211.721 105.307 211.849 104.795 211.849 104.24V102.128C211.849 101.563 211.646 101.104 211.241 100.752C210.836 100.4 210.308 100.224 209.657 100.224C209.124 100.224 208.644 100.357 208.217 100.624C207.79 100.891 207.465 101.237 207.241 101.664L206.377 101.2C206.537 100.859 206.782 100.544 207.113 100.256C207.444 99.968 207.828 99.7387 208.265 99.568C208.702 99.3973 209.166 99.312 209.657 99.312C210.276 99.312 210.82 99.4347 211.289 99.68C211.769 99.9147 212.142 100.245 212.409 100.672C212.676 101.088 212.809 101.573 212.809 102.128V108H211.849V106.224L211.961 106.304C211.822 106.645 211.593 106.96 211.273 107.248C210.953 107.525 210.574 107.755 210.137 107.936C209.71 108.107 209.236 108.192 208.713 108.192ZM215.453 108V99.504H216.413V108H215.453ZM215.453 97.84V96.08H216.413V97.84H215.453ZM219.047 108V99.504H220.007V101.216L219.767 101.152C219.959 100.587 220.3 100.139 220.791 99.808C221.292 99.4773 221.873 99.312 222.535 99.312C223.121 99.312 223.655 99.4453 224.135 99.712C224.615 99.9787 224.999 100.352 225.287 100.832C225.575 101.301 225.719 101.84 225.719 102.448V108H224.759V102.72C224.759 102.208 224.657 101.771 224.455 101.408C224.252 101.035 223.969 100.752 223.607 100.56C223.255 100.357 222.849 100.256 222.391 100.256C221.911 100.256 221.489 100.368 221.127 100.592C220.764 100.816 220.487 101.125 220.295 101.52C220.103 101.915 220.007 102.368 220.007 102.88V108H219.047ZM228.203 108V99.504H229.163V108H228.203ZM228.203 97.84V96.08H229.163V97.84H228.203ZM231.797 108V99.504H232.757V101.216L232.517 101.152C232.709 100.587 233.05 100.139 233.541 99.808C234.042 99.4773 234.623 99.312 235.285 99.312C235.871 99.312 236.405 99.4453 236.885 99.712C237.365 99.9787 237.749 100.352 238.037 100.832C238.325 101.301 238.469 101.84 238.469 102.448V108H237.509V102.72C237.509 102.208 237.407 101.771 237.205 101.408C237.002 101.035 236.719 100.752 236.357 100.56C236.005 100.357 235.599 100.256 235.141 100.256C234.661 100.256 234.239 100.368 233.877 100.592C233.514 100.816 233.237 101.125 233.045 101.52C232.853 101.915 232.757 102.368 232.757 102.88V108H231.797ZM244.921 111.52C244.356 111.52 243.833 111.429 243.353 111.248C242.873 111.067 242.457 110.821 242.105 110.512C241.753 110.203 241.476 109.851 241.273 109.456L242.137 108.992C242.372 109.451 242.724 109.829 243.193 110.128C243.673 110.427 244.244 110.576 244.905 110.576C245.438 110.576 245.934 110.469 246.393 110.256C246.852 110.053 247.225 109.733 247.513 109.296C247.812 108.869 247.961 108.331 247.961 107.68V105.52L248.137 105.744C247.838 106.405 247.385 106.928 246.777 107.312C246.169 107.685 245.492 107.872 244.745 107.872C243.956 107.872 243.246 107.68 242.617 107.296C241.988 106.912 241.492 106.395 241.129 105.744C240.777 105.093 240.601 104.373 240.601 103.584C240.601 102.795 240.777 102.08 241.129 101.44C241.492 100.789 241.982 100.272 242.601 99.888C243.23 99.504 243.945 99.312 244.745 99.312C245.492 99.312 246.164 99.4987 246.761 99.872C247.358 100.235 247.817 100.725 248.137 101.344L247.961 101.648V99.504H248.921V107.68C248.921 108.416 248.75 109.072 248.409 109.648C248.068 110.235 247.593 110.693 246.985 111.024C246.388 111.355 245.7 111.52 244.921 111.52ZM244.777 106.912C245.374 106.912 245.908 106.763 246.377 106.464C246.857 106.165 247.236 105.765 247.513 105.264C247.79 104.752 247.929 104.192 247.929 103.584C247.929 102.976 247.79 102.421 247.513 101.92C247.236 101.419 246.857 101.019 246.377 100.72C245.908 100.421 245.374 100.272 244.777 100.272C244.169 100.272 243.625 100.421 243.145 100.72C242.665 101.019 242.292 101.419 242.025 101.92C241.758 102.421 241.625 102.976 241.625 103.584C241.625 104.192 241.758 104.752 242.025 105.264C242.292 105.765 242.66 106.165 243.129 106.464C243.609 106.763 244.158 106.912 244.777 106.912Z" fill="black"/>
</g>
<defs>
<filter id="filter0_d_326_316" x="0" y="0" width="607" height="196" filterUnits="userSpaceOnUse" color-interpolation-filters="sRGB">
<feFlood flood-opacity="0" result="BackgroundImageFix"/>
<feColorMatrix in="SourceAlpha" type="matrix" values="0 0 0 0 0 0 0 0 0 0 0 0 0 0 0 0 0 0 127 0" result="hardAlpha"/>
<feOffset dx="4" dy="12"/>
<feGaussianBlur stdDeviation="16"/>
<feComposite in2="hardAlpha" operator="out"/>
<feColorMatrix type="matrix" values="0 0 0 0 0 0 0 0 0 0 0 0 0 0 0 0 0 0 0.12 0"/>
<feBlend mode="normal" in2="BackgroundImageFix" result="effect1_dropShadow_326_316"/>
<feBlend mode="normal" in="SourceGraphic" in2="effect1_dropShadow_326_316" result="shape"/>
</filter>
<linearGradient id="paint0_linear_326_316" x1="299.5" y1="22" x2="299.5" y2="109.5" gradientUnits="userSpaceOnUse">
<stop stop-color="#B33D1D"/>
<stop offset="1" stop-color="white" stop-opacity="0.5"/>
</linearGradient>
</defs>
</svg>
