<svg width="75" height="75" viewBox="0 0 75 75" fill="none" xmlns="http://www.w3.org/2000/svg">
<path d="M46.8749 38.6719V41.0156H41.0155V43.3594H66.9959L71.2499 66.7969H60.9374V64.4531C60.9374 61.5117 58.746 59.0859 55.91 58.6758C56.5595 58.1882 57.0869 57.5567 57.4509 56.8307C57.8149 56.1048 58.0055 55.3043 58.0077 54.4922C58.0077 51.5859 55.6405 49.2188 52.7342 49.2188C49.828 49.2188 47.4608 51.5859 47.4608 54.4922C47.4608 56.2031 48.2928 57.7148 49.5585 58.6758C46.7225 59.0859 44.5311 61.5 44.5311 64.4531V66.7969H30.4686V64.4531C30.4686 61.5117 28.2772 59.0859 25.4413 58.6758C26.0907 58.1882 26.6182 57.5567 26.9822 56.8307C27.3462 56.1048 27.5367 55.3043 27.5389 54.4922C27.5389 51.5859 25.1717 49.2188 22.2655 49.2188C19.3592 49.2188 16.992 51.5859 16.992 54.4922C16.992 56.2031 17.8241 57.7148 19.0897 58.6758C16.2538 59.0859 14.0624 61.5 14.0624 64.4531V66.7969H3.73814L8.00377 43.3594H36.328V50.3906H38.6717V23.4375H36.328V41.0156H28.1249V38.6719C28.1249 35.7305 25.9335 33.3047 23.0975 32.8945C23.747 32.407 24.2744 31.7754 24.6384 31.0495C25.0024 30.3235 25.193 29.523 25.1952 28.7109C25.1952 25.8047 22.828 23.4375 19.9217 23.4375C17.0155 23.4375 14.6483 25.8047 14.6483 28.7109C14.6483 30.4219 15.4803 31.9336 16.746 32.8945C13.91 33.3047 11.7186 35.7188 11.7186 38.6719V41.0156H8.00377C6.89048 41.0156 5.91783 41.8242 5.70689 42.9375L1.44127 66.375C1.31236 67.0547 1.49986 67.7578 1.94517 68.2969C2.39048 68.8359 3.04673 69.1406 3.74986 69.1406H14.0624V72.6562C14.0624 73.3008 14.5897 73.8281 15.2342 73.8281H29.2967C29.9413 73.8281 30.4686 73.3008 30.4686 72.6562V69.1406H44.5311V72.6562C44.5311 73.3008 45.0585 73.8281 45.703 73.8281H59.7655C60.41 73.8281 60.9374 73.3008 60.9374 72.6562V69.1406H71.2499C71.953 69.1406 72.6092 68.8359 73.0546 68.2969C73.4999 67.7578 73.6874 67.0664 73.5585 66.375L69.2928 42.9258C69.1899 42.3909 68.9047 41.9083 68.4859 41.56C68.0672 41.2117 67.5406 41.0194 66.9959 41.0156H63.2811V38.6719C63.2811 35.7305 61.0897 33.3047 58.2538 32.8945C58.9032 32.407 59.4307 31.7754 59.7947 31.0495C60.1587 30.3235 60.3492 29.523 60.3514 28.7109C60.3514 25.8047 57.9842 23.4375 55.078 23.4375C52.1717 23.4375 49.8045 25.8047 49.8045 28.7109C49.8045 30.4219 50.6366 31.9336 51.9022 32.8945C49.0663 33.3047 46.8749 35.7188 46.8749 38.6719ZM19.9217 25.7812C20.6987 25.7812 21.4439 26.0899 21.9933 26.6393C22.5428 27.1888 22.8514 27.9339 22.8514 28.7109C22.8514 29.4879 22.5428 30.2331 21.9933 30.7825C21.4439 31.332 20.6987 31.6406 19.9217 31.6406C19.1447 31.6406 18.3996 31.332 17.8501 30.7825C17.3007 30.2331 16.992 29.4879 16.992 28.7109C16.992 27.9339 17.3007 27.1888 17.8501 26.6393C18.3996 26.0899 19.1447 25.7812 19.9217 25.7812ZM14.0624 38.6719C14.0624 36.7383 15.6444 35.1562 17.578 35.1562H22.2655C24.1991 35.1562 25.7811 36.7383 25.7811 38.6719V41.0156H14.0624V38.6719ZM22.2655 51.5625C23.0425 51.5625 23.7877 51.8712 24.3371 52.4206C24.8865 52.97 25.1952 53.7152 25.1952 54.4922C25.1952 55.2692 24.8865 56.0144 24.3371 56.5638C23.7877 57.1132 23.0425 57.4219 22.2655 57.4219C21.4885 57.4219 20.7433 57.1132 20.1939 56.5638C19.6445 56.0144 19.3358 55.2692 19.3358 54.4922C19.3358 53.7152 19.6445 52.97 20.1939 52.4206C20.7433 51.8712 21.4885 51.5625 22.2655 51.5625ZM28.1249 71.4844H16.4061V64.4531C16.4061 62.5195 17.9881 60.9375 19.9217 60.9375H24.6092C26.5428 60.9375 28.1249 62.5195 28.1249 64.4531V71.4844ZM52.7342 51.5625C53.5112 51.5625 54.2564 51.8712 54.8058 52.4206C55.3553 52.97 55.6639 53.7152 55.6639 54.4922C55.6639 55.2692 55.3553 56.0144 54.8058 56.5638C54.2564 57.1132 53.5112 57.4219 52.7342 57.4219C51.9572 57.4219 51.2121 57.1132 50.6626 56.5638C50.1132 56.0144 49.8045 55.2692 49.8045 54.4922C49.8045 53.7152 50.1132 52.97 50.6626 52.4206C51.2121 51.8712 51.9572 51.5625 52.7342 51.5625ZM58.5936 71.4844H46.8749V64.4531C46.8749 62.5195 48.4569 60.9375 50.3905 60.9375H55.078C57.0116 60.9375 58.5936 62.5195 58.5936 64.4531V71.4844ZM55.078 25.7812C55.855 25.7812 56.6002 26.0899 57.1496 26.6393C57.699 27.1888 58.0077 27.9339 58.0077 28.7109C58.0077 29.4879 57.699 30.2331 57.1496 30.7825C56.6002 31.332 55.855 31.6406 55.078 31.6406C54.301 31.6406 53.5558 31.332 53.0064 30.7825C52.457 30.2331 52.1483 29.4879 52.1483 28.7109C52.1483 27.9339 52.457 27.1888 53.0064 26.6393C53.5558 26.0899 54.301 25.7812 55.078 25.7812ZM49.2186 38.6719C49.2186 36.7383 50.8006 35.1562 52.7342 35.1562H57.4217C59.3553 35.1562 60.9374 36.7383 60.9374 38.6719V41.0156H49.2186V38.6719Z" fill="#C3380D"/>
<path d="M36.328 52.7344H38.6718V55.0781H36.328V52.7344ZM38.8241 1.17188H36.1757C35.0741 1.17188 34.1835 2.05078 34.1835 3.12891V3.38672C33.6679 3.60938 33.1874 3.87891 32.7304 4.19531L32.4257 4.03125C31.4765 3.50391 30.2929 3.82031 29.7304 4.74609L28.4061 6.9375C28.1366 7.39453 28.0546 7.92188 28.1952 8.4375C28.3358 8.95312 28.6757 9.38672 29.1444 9.64453L29.4022 9.78516C29.3543 10.2918 29.3543 10.8019 29.4022 11.3086L29.1444 11.4492C28.6757 11.707 28.3241 12.1523 28.1952 12.6562C28.0546 13.1719 28.1366 13.6992 28.4061 14.1562L29.7304 16.3477C30.2811 17.2734 31.4647 17.5781 32.4257 17.0508L32.7304 16.8867C33.1874 17.2031 33.6796 17.4844 34.1835 17.6953V17.9531C34.1835 19.0312 35.0741 19.9102 36.1757 19.9102H38.8241C39.9257 19.9102 40.8163 19.0312 40.8163 17.9531V17.6953C41.3319 17.4727 41.8124 17.2031 42.2694 16.8867L42.5741 17.0508C43.5233 17.5781 44.7069 17.2617 45.2694 16.3359L46.5936 14.1445C46.8632 13.6875 46.9452 13.1602 46.8046 12.6445C46.664 12.1289 46.3241 11.6953 45.8554 11.4375L45.5975 11.2969C45.6454 10.7902 45.6454 10.2801 45.5975 9.77344L45.8554 9.63281C46.3241 9.375 46.6757 8.92969 46.8046 8.42578C46.9452 7.91016 46.8632 7.38281 46.5936 6.92578L45.2694 4.73438C44.7186 3.80859 43.5351 3.50391 42.5741 4.03125L42.2694 4.19531C41.8124 3.87891 41.3202 3.59766 40.8163 3.38672V3.12891C40.8163 2.05078 39.9257 1.17188 38.8241 1.17188ZM41.039 6.19922C41.6835 6.66797 42.5507 6.72656 43.2304 6.35156L43.4413 6.23438L44.3788 7.78125L44.2616 7.85156C43.5468 8.23828 43.1483 9.03516 43.2655 9.80859C43.3007 10.0547 43.3241 10.2891 43.3241 10.5469C43.3241 10.8047 43.3007 11.0391 43.2772 11.2852C43.16 12.0703 43.5702 12.8555 44.2733 13.2422L44.4022 13.3125L43.4647 14.8594L43.2538 14.7422C42.5741 14.3672 41.7069 14.4258 41.0507 14.8945C40.6522 15.1875 40.2186 15.4219 39.7616 15.6094C38.9882 15.9141 38.4843 16.6406 38.4843 17.4375V17.5781H36.539V17.4375C36.539 16.6406 36.035 15.9258 35.2616 15.6094C34.8046 15.4219 34.371 15.1875 33.9725 14.8945C33.328 14.4258 32.4608 14.3672 31.7811 14.7422L31.5702 14.8594L30.6327 13.3125L30.7499 13.2422C31.4647 12.8555 31.8632 12.0586 31.746 11.2852C31.7108 11.0391 31.6874 10.8047 31.6874 10.5469C31.6874 10.2891 31.7108 10.0547 31.7343 9.80859C31.8515 9.02344 31.4413 8.23828 30.7382 7.85156L30.6093 7.78125L31.5468 6.23438L31.7577 6.35156C32.4491 6.72656 33.3046 6.66797 33.9608 6.19922C34.3593 5.90625 34.7929 5.67188 35.2499 5.48438C35.6218 5.34318 35.9425 5.09327 36.1703 4.7672C36.3982 4.44113 36.5225 4.054 36.5272 3.65625V3.51562H38.4726V3.65625C38.4726 4.45312 38.9765 5.16797 39.7499 5.48438C40.2069 5.67188 40.6405 5.90625 41.039 6.19922Z" fill="#C3380D"/>
<path d="M33.3984 10.5469C33.3984 12.8086 35.2383 14.6484 37.5 14.6484C39.7617 14.6484 41.6016 12.8086 41.6016 10.5469C41.6016 8.28516 39.7617 6.44531 37.5 6.44531C35.2383 6.44531 33.3984 8.28516 33.3984 10.5469ZM39.2578 10.5469C39.2578 11.5195 38.4727 12.3047 37.5 12.3047C36.5273 12.3047 35.7422 11.5195 35.7422 10.5469C35.7422 9.57422 36.5273 8.78906 37.5 8.78906C38.4727 8.78906 39.2578 9.57422 39.2578 10.5469Z" fill="#C3380D"/>
</svg>
