<svg width="57" height="57" viewBox="0 0 57 57" fill="none" xmlns="http://www.w3.org/2000/svg">
<path fill-rule="evenodd" clip-rule="evenodd" d="M48.7176 56.9904H16.6426C15.6984 56.9904 14.9299 56.2222 14.9299 55.2777V9.60251C14.9299 8.65834 15.6984 7.8905 16.6426 7.8905H48.7176C49.6618 7.8905 50.4296 8.65867 50.4296 9.60251V55.2777C50.4296 56.2219 49.6618 56.9904 48.7176 56.9904ZM32.5383 18.1081H30.0832L29.0402 20.3512C28.6718 21.1447 27.4574 20.587 27.8291 19.7884L30.651 13.7202C30.8831 13.2202 31.6035 13.1955 31.8553 13.7065L34.8502 19.7747C35.2399 20.5629 34.0423 21.1544 33.6528 20.3659L32.539 18.1085L32.5383 18.1081ZM30.7041 16.7729H31.8794L31.2745 15.5468L30.7044 16.7729H30.7041ZM27.3943 14.7038H25.4431V20.0736C25.4431 20.953 24.1075 20.9523 24.1075 20.0736V14.7038H22.2212C21.3421 14.7038 21.3421 13.3682 22.2212 13.3682H27.3943C28.273 13.3682 28.2737 14.7038 27.3943 14.7038ZM41.6501 20.7413C41.4471 20.7413 41.2467 20.6491 41.1154 20.4741L39.387 18.1682L37.659 20.4734C37.137 21.1691 36.0605 20.3792 36.5902 19.6725L38.5527 17.0547L36.5899 14.4363C36.0645 13.7359 37.1333 12.9344 37.6587 13.6354L39.387 15.9412L41.1157 13.6347C41.6418 12.9344 42.7095 13.7353 42.1845 14.4356L40.2213 17.0547L42.1842 19.6732C42.5178 20.1181 42.1845 20.7409 41.6501 20.7409V20.7413ZM42.081 25.4214H21.79C20.9109 25.4214 20.9109 24.0861 21.79 24.0861H42.081C42.9597 24.0861 42.96 25.4214 42.081 25.4214ZM42.081 33.745H21.79C20.9113 33.745 20.9113 32.4094 21.79 32.4094H42.081C42.9597 32.4094 42.96 33.745 42.081 33.745ZM32.4585 42.0676H21.79C20.9113 42.0676 20.9113 40.7323 21.79 40.7323H32.4585C33.3376 40.7323 33.3376 42.0676 32.4585 42.0676ZM32.4585 50.3905H21.79C20.9113 50.3905 20.9113 49.0552 21.79 49.0552H32.4585C33.3376 49.0552 33.3376 50.3905 32.4585 50.3905ZM40.0016 43.7298C39.6776 43.7298 39.1653 44.0682 39.4472 44.5832C39.725 45.0908 41.9514 44.7562 41.9514 46.8055C41.9514 47.6889 41.4537 48.3352 40.6966 48.5963C40.5727 49.6918 39.4785 49.7339 39.3159 48.6545C37.7806 48.2727 37.4282 46.4355 38.4332 46.2915C39.3777 46.1562 39.0233 47.5236 39.8172 47.411C40.2507 47.3496 40.898 47.1612 40.5563 46.536C40.2804 46.0313 38.0521 46.363 38.0521 44.3143C38.0521 43.3825 38.6072 42.7783 39.3092 42.5231C39.4341 41.4457 40.5166 41.3979 40.6856 42.4563C41.3996 42.639 42.0125 43.1714 42.1391 44.0745C42.261 44.9449 40.9384 45.1312 40.8165 44.2599C40.7397 43.7118 40.2734 43.7292 40.0019 43.7292L40.0016 43.7298ZM43.5689 51.5468H36.4343C36.0655 51.5468 35.7666 51.2472 35.7666 50.8791V40.2434C35.7666 39.8746 36.0662 39.5754 36.4343 39.5754H43.5689C43.9376 39.5754 44.2368 39.875 44.2368 40.2434V50.8791C44.2375 51.2479 43.9376 51.5468 43.5689 51.5468ZM37.1026 50.2108H42.9012V40.9113H37.1026V50.2108Z" fill="#54A917"/>
<path fill-rule="evenodd" clip-rule="evenodd" d="M13.8167 49.1093H8.28323C7.33906 49.1093 6.57056 48.3408 6.57056 47.3966V1.72141C6.57056 0.777233 7.33906 0.00939941 8.28323 0.00939941H40.3582C41.3024 0.00939941 42.0709 0.777233 42.0709 1.72141V6.77762H16.6429C15.0845 6.77762 13.817 8.04409 13.817 9.6028V49.1093H13.8167Z" fill="#3E7D10"/>
<path fill-rule="evenodd" clip-rule="evenodd" d="M31.8793 16.7728L31.2745 15.5468L30.7043 16.7728H31.8793Z" fill="#54A917"/>
</svg>
