<svg width="57" height="56" viewBox="0 0 57 56" fill="none" xmlns="http://www.w3.org/2000/svg">
<path d="M36.8125 31.9375H45.5625V35.4375H36.8125V31.9375Z" fill="black"/>
<path d="M48.1875 26.25H34.1875C32.2537 26.25 30.6875 27.8163 30.6875 29.75V49C30.677 50.9031 32.2607 52.5053 34.1875 52.5H48.1875C50.1213 52.5 51.6875 50.9338 51.6875 49V29.75C51.6875 27.8163 50.1213 26.25 48.1875 26.25ZM36.8125 48.5625H35.9375C34.7886 48.5406 34.7878 46.8344 35.9375 46.8125H36.8125C37.9614 46.8344 37.9622 48.5406 36.8125 48.5625ZM36.8125 44.625H35.9375C34.7886 44.6031 34.7878 42.8969 35.9375 42.875H36.8125C37.9614 42.8969 37.9622 44.6031 36.8125 44.625ZM36.8125 40.6875H35.9375C34.7886 40.6656 34.7878 38.9594 35.9375 38.9375H36.8125C37.9614 38.9594 37.9622 40.6656 36.8125 40.6875ZM41.625 48.5625H40.75C39.6011 48.5406 39.6003 46.8344 40.75 46.8125H41.625C42.7739 46.8344 42.7747 48.5406 41.625 48.5625ZM41.625 44.625H40.75C39.6011 44.6031 39.6003 42.8969 40.75 42.875H41.625C42.7739 42.8969 42.7747 44.6031 41.625 44.625ZM41.625 40.6875H40.75C39.6011 40.6656 39.6003 38.9594 40.75 38.9375H41.625C42.7739 38.9594 42.7747 40.6656 41.625 40.6875ZM46.4375 48.5625H45.5625C44.4136 48.5406 44.4128 46.8344 45.5625 46.8125H46.4375C47.5864 46.8344 47.5872 48.5406 46.4375 48.5625ZM46.4375 44.625H45.5625C44.4136 44.6031 44.4128 42.8969 45.5625 42.875H46.4375C47.5864 42.8969 47.5872 44.6031 46.4375 44.625ZM46.4375 40.6875H45.5625C44.4136 40.6656 44.4128 38.9594 45.5625 38.9375H46.4375C47.5864 38.9594 47.5872 40.6656 46.4375 40.6875ZM47.3125 36.3125C47.3125 36.7938 46.9188 37.1875 46.4375 37.1875H35.9375C35.4562 37.1875 35.0625 36.7938 35.0625 36.3125V31.0625C35.0625 30.5813 35.4562 30.1875 35.9375 30.1875H46.4375C46.9188 30.1875 47.3125 30.5813 47.3125 31.0625V36.3125ZM5.3125 7.875V48.125C5.3125 50.54 7.2725 52.5 9.6875 52.5H11.4375V3.5H9.6875C7.2725 3.5 5.3125 5.46 5.3125 7.875Z" fill="#46AEE3"/>
<path d="M34.1875 24.5H42.0625V4.375C42.0625 3.89375 41.6688 3.5 41.1875 3.5H13.1875V52.5H30.285C29.4202 51.539 28.9404 50.2928 28.9375 49V29.75C28.9375 26.8538 31.2913 24.5 34.1875 24.5ZM20.625 19.25C19.4788 19.2281 19.4718 17.5227 20.625 17.5H22.375V14.875C22.375 14.3938 22.7688 14 23.25 14C23.7312 14 24.125 14.3938 24.125 14.875V17.5H26.75V12.25C26.7719 11.1029 28.4781 11.0994 28.5 12.25V17.5H31.125V10.5C31.1443 9.35375 32.854 9.34762 32.875 10.5V17.5H34.625C35.1063 17.5 35.5 17.8938 35.5 18.375C35.5 18.8562 35.1063 19.25 34.625 19.25H20.625Z" fill="#0E78AE"/>
</svg>
