<svg width="57" height="56" viewBox="0 0 57 56" fill="none" xmlns="http://www.w3.org/2000/svg">
<path d="M49.1063 40.9196C48.8324 41.0617 48.56 41.2067 48.2892 41.3545C47.0721 40.3726 44.8793 39.4333 42.4343 40.701C39.2234 42.3663 37.3861 43.7905 36.4384 44.6516L34.1778 44.4413L30.0264 41.1202C31.1843 41.4374 32.37 41.7443 33.4037 41.974C33.8862 42.084 34.3794 42.1409 34.8743 42.1436C35.8994 42.1562 36.9036 41.8534 37.7508 41.2762C40.0006 39.7426 40.498 36.7194 40.518 36.5914C40.5595 36.3268 40.5025 36.0562 40.3578 35.8308C40.213 35.6054 39.9906 35.441 39.7327 35.3687L25.2952 31.3218C25.1991 31.2949 25.0998 31.2813 25 31.2813H2.25C1.95992 31.2813 1.68172 31.3965 1.4766 31.6016C1.27148 31.8067 1.15625 32.0849 1.15625 32.375C1.15625 32.6651 1.27148 32.9433 1.4766 33.1484C1.68172 33.3535 1.95992 33.4688 2.25 33.4688H24.8496L38.1019 37.1835C37.8446 37.9141 37.3606 38.899 36.5107 39.474C35.7998 39.9552 34.9387 40.0742 33.8779 39.8385C30.5477 39.0986 25.3806 37.4732 25.3289 37.4569C24.1805 37.1049 23.3856 38.5968 24.3167 39.3541L33.0667 46.3541C33.2336 46.4876 33.4359 46.5693 33.6487 46.5891L36.7231 46.8751L43.055 47.4641C43.2345 47.4821 43.4157 47.4547 43.582 47.3845C43.7482 47.3143 43.8942 47.2036 44.0065 47.0623C44.0213 47.0443 45.5371 45.2339 50.1123 42.8617C50.5766 42.6048 51.1015 42.4774 51.632 42.493C52.1624 42.5086 52.679 42.6665 53.1274 42.9503L45.5167 50.561L33.0609 51.3914L16.6744 44.4919C16.54 44.4354 16.3957 44.4063 16.25 44.4063H2.25C1.95992 44.4063 1.68172 44.5215 1.4766 44.7266C1.27148 44.9317 1.15625 45.2099 1.15625 45.5C1.15625 45.7901 1.27148 46.0683 1.4766 46.2734C1.68172 46.4785 1.95992 46.5938 2.25 46.5938H16.0291L32.4506 53.5081C32.585 53.5646 32.7293 53.5937 32.875 53.5938C32.8993 53.5938 32.9235 53.5929 32.9477 53.5914L46.0727 52.7164C46.3371 52.6987 46.5861 52.5857 46.7734 52.3984L55.5234 43.6484C55.7192 43.4526 55.8334 43.1898 55.8431 42.9131C55.8527 42.6363 55.757 42.3662 55.5753 42.1573C54.6235 41.0627 52.0461 39.3952 49.1063 40.9196ZM42.7253 45.2364L39.5925 44.945C40.8223 44.0925 42.1079 43.3234 43.4406 42.6429C44.5517 42.0666 45.5091 42.2551 46.1886 42.5866C44.3343 43.7621 43.2584 44.7085 42.7253 45.2364ZM37.25 25.5938C39.543 25.5938 41.7846 24.9138 43.6911 23.6399C45.5977 22.3659 47.0837 20.5552 47.9612 18.4367C48.8387 16.3183 49.0683 13.9871 48.621 11.7382C48.1736 9.48921 47.0694 7.4234 45.448 5.80199C43.8266 4.18057 41.7608 3.07637 39.5118 2.62903C37.2629 2.18168 34.9317 2.41127 32.8133 3.28878C30.6948 4.16628 28.8841 5.65228 27.6101 7.55886C26.3362 9.46545 25.6562 11.707 25.6562 14C25.6597 17.0738 26.8823 20.0207 29.0558 22.1942C31.2293 24.3677 34.1762 25.5903 37.25 25.5938ZM37.25 4.59376C39.1104 4.59376 40.929 5.14542 42.4758 6.17899C44.0227 7.21257 45.2283 8.68162 45.9402 10.4004C46.6522 12.1192 46.8385 14.0104 46.4755 15.8351C46.1126 17.6597 45.2167 19.3357 43.9012 20.6512C42.5857 21.9667 40.9097 22.8626 39.0851 23.2255C37.2604 23.5885 35.3692 23.4022 33.6504 22.6902C31.9316 21.9783 30.4626 20.7727 29.429 19.2258C28.3954 17.679 27.8438 15.8604 27.8438 14C27.8466 11.5062 28.8386 9.11537 30.602 7.35198C32.3654 5.58859 34.7562 4.59665 37.25 4.59376Z" fill="#84255D"/>
<path d="M36.2657 15.0937H38.125C38.531 15.0942 38.9202 15.2557 39.2073 15.5427C39.4944 15.8298 39.6558 16.219 39.6563 16.625V16.7344C39.6558 17.1404 39.4944 17.5296 39.2073 17.8167C38.9202 18.1037 38.531 18.2652 38.125 18.2656H35.3678C35.2877 18.2656 35.2085 18.2497 35.1347 18.2187C35.0609 18.1878 34.994 18.1424 34.9379 18.0853C34.8818 18.0282 34.8377 17.9604 34.8081 17.8861C34.7785 17.8117 34.764 17.7322 34.7655 17.6521L34.7675 17.5386C34.7727 17.2485 34.6625 16.9683 34.461 16.7595C34.2596 16.5507 33.9835 16.4305 33.6934 16.4253C33.4033 16.4201 33.123 16.5303 32.9142 16.7318C32.7055 16.9332 32.5852 17.2094 32.58 17.4995L32.578 17.6128C32.5713 17.9834 32.6385 18.3516 32.7757 18.6959C32.9129 19.0402 33.1173 19.3537 33.3771 19.6182C33.6368 19.8826 33.9466 20.0926 34.2884 20.236C34.6302 20.3793 34.9971 20.4532 35.3678 20.4531H36.1563V21.1094C36.1563 21.3995 36.2715 21.6777 36.4766 21.8828C36.6817 22.0879 36.9599 22.2031 37.25 22.2031C37.5401 22.2031 37.8183 22.0879 38.0234 21.8828C38.2285 21.6777 38.3438 21.3995 38.3438 21.1094V20.4462C39.2901 20.3894 40.1791 19.9737 40.8294 19.284C41.4798 18.5942 41.8426 17.6824 41.8438 16.7344V16.625C41.8427 15.6391 41.4505 14.6938 40.7534 13.9967C40.0562 13.2995 39.111 12.9073 38.125 12.9062H36.2657C35.8595 12.9062 35.4701 12.7449 35.1829 12.4578C34.8957 12.1706 34.7344 11.7811 34.7344 11.375C34.7344 10.9689 34.8957 10.5794 35.1829 10.2922C35.4701 10.0051 35.8595 9.84375 36.2657 9.84375H38.9794C39.0606 9.84379 39.141 9.86028 39.2158 9.8922C39.2905 9.92413 39.358 9.97085 39.4142 10.0295C39.4704 10.0882 39.5141 10.1577 39.5428 10.2337C39.5714 10.3098 39.5844 10.3908 39.5809 10.472C39.5684 10.7618 39.6716 11.0447 39.8677 11.2585C40.0638 11.4722 40.3368 11.5993 40.6267 11.6118C40.9165 11.6243 41.1994 11.5211 41.4131 11.325C41.6269 11.1289 41.754 10.8559 41.7665 10.5661C41.7826 10.19 41.7225 9.81448 41.5898 9.46222C41.457 9.10996 41.2543 8.78821 40.9939 8.51635C40.7335 8.24449 40.4208 8.02813 40.0746 7.88032C39.7284 7.73251 39.3558 7.65629 38.9794 7.65625H38.3438V7C38.3438 6.70992 38.2285 6.43172 38.0234 6.2266C37.8183 6.02148 37.5401 5.90625 37.25 5.90625C36.9599 5.90625 36.6817 6.02148 36.4766 6.2266C36.2715 6.43172 36.1563 6.70992 36.1563 7V7.65898C35.1802 7.68799 34.2548 8.09978 33.5798 8.80541C32.9049 9.51105 32.5346 10.4539 32.5489 11.4302C32.5633 12.4066 32.9611 13.3381 33.6566 14.0236C34.352 14.7091 35.2892 15.0935 36.2657 15.0937ZM48.5234 30.7266C48.318 30.523 48.0403 30.409 47.751 30.4096C47.4618 30.4103 47.1846 30.5255 46.98 30.73C46.7755 30.9345 46.6603 31.2117 46.6597 31.501C46.659 31.7902 46.773 32.068 46.9766 32.2734L50.4766 35.7734C50.6818 35.9785 50.96 36.0937 51.25 36.0937C51.5401 36.0937 51.8183 35.9785 52.0234 35.7734L55.5234 32.2734C55.7271 32.068 55.841 31.7902 55.8404 31.501C55.8398 31.2117 55.7246 30.9345 55.52 30.73C55.3155 30.5255 55.0383 30.4103 54.749 30.4096C54.4598 30.409 54.1821 30.523 53.9766 30.7266L52.3438 32.3594V26.25C52.3438 25.9599 52.2285 25.6817 52.0234 25.4766C51.8183 25.2715 51.5401 25.1562 51.25 25.1562C50.9599 25.1562 50.6817 25.2715 50.4766 25.4766C50.2715 25.6817 50.1563 25.9599 50.1563 26.25V32.3594L48.5234 30.7266ZM51.25 22.9687C51.5401 22.9687 51.8183 22.8535 52.0234 22.6484C52.2285 22.4433 52.3438 22.1651 52.3438 21.875V21C52.3438 20.7099 52.2285 20.4317 52.0234 20.2266C51.8183 20.0215 51.5401 19.9062 51.25 19.9062C50.9599 19.9062 50.6817 20.0215 50.4766 20.2266C50.2715 20.4317 50.1563 20.7099 50.1563 21V21.875C50.1563 22.1651 50.2715 22.4433 50.4766 22.6484C50.6817 22.8535 50.9599 22.9687 51.25 22.9687ZM17.2266 16.5234C17.4318 16.7285 17.71 16.8437 18 16.8437C18.2901 16.8437 18.5683 16.7285 18.7734 16.5234L22.2734 13.0234C22.4771 12.818 22.591 12.5402 22.5904 12.251C22.5898 11.9617 22.4746 11.6845 22.27 11.48C22.0655 11.2755 21.7883 11.1603 21.499 11.1596C21.2098 11.159 20.9321 11.273 20.7266 11.4766L19.0938 13.1094V7C19.0938 6.70992 18.9785 6.43172 18.7734 6.2266C18.5683 6.02148 18.2901 5.90625 18 5.90625C17.7099 5.90625 17.4317 6.02148 17.2266 6.2266C17.0215 6.43172 16.9063 6.70992 16.9063 7V13.1094L15.2734 11.4766C15.068 11.273 14.7903 11.159 14.501 11.1596C14.2118 11.1603 13.9346 11.2755 13.73 11.48C13.5255 11.6845 13.4103 11.9617 13.4097 12.251C13.409 12.5402 13.523 12.818 13.7266 13.0234L17.2266 16.5234ZM18 3.71875C18.2901 3.71875 18.5683 3.60352 18.7734 3.3984C18.9785 3.19328 19.0938 2.91508 19.0938 2.625V1.75C19.0938 1.45992 18.9785 1.18172 18.7734 0.976602C18.5683 0.771484 18.2901 0.65625 18 0.65625C17.7099 0.65625 17.4317 0.771484 17.2266 0.976602C17.0215 1.18172 16.9063 1.45992 16.9063 1.75V2.625C16.9063 2.91508 17.0215 3.19328 17.2266 3.3984C17.4317 3.60352 17.7099 3.71875 18 3.71875ZM6.72664 27.0234C6.93176 27.2285 7.20995 27.3437 7.50003 27.3437C7.79011 27.3437 8.0683 27.2285 8.27342 27.0234L11.7734 23.5234C11.9771 23.318 12.091 23.0402 12.0904 22.751C12.0898 22.4617 11.9746 22.1845 11.77 21.98C11.5655 21.7755 11.2883 21.6603 10.999 21.6596C10.7098 21.659 10.4321 21.773 10.2266 21.9766L8.59378 23.6094V17.5C8.59378 17.2099 8.47855 16.9317 8.27343 16.7266C8.06831 16.5215 7.79011 16.4062 7.50003 16.4062C7.20995 16.4062 6.93175 16.5215 6.72663 16.7266C6.52151 16.9317 6.40628 17.2099 6.40628 17.5V23.6094L4.77342 21.9766C4.568 21.773 4.29027 21.659 4.00102 21.6596C3.71177 21.6603 3.43455 21.7755 3.23002 21.98C3.02549 22.1845 2.9103 22.4617 2.90967 22.751C2.90904 23.0402 3.02301 23.318 3.22664 23.5234L6.72664 27.0234ZM7.50003 14.2187C7.79011 14.2187 8.06831 14.1035 8.27343 13.8984C8.47855 13.6933 8.59378 13.4151 8.59378 13.125V12.25C8.59378 11.9599 8.47855 11.6817 8.27343 11.4766C8.06831 11.2715 7.79011 11.1562 7.50003 11.1562C7.20995 11.1562 6.93175 11.2715 6.72663 11.4766C6.52151 11.6817 6.40628 11.9599 6.40628 12.25V13.125C6.40628 13.4151 6.52151 13.6933 6.72663 13.8984C6.93175 14.1035 7.20995 14.2187 7.50003 14.2187Z" fill="#84255D"/>
</svg>
