<svg width="57" height="56" viewBox="0 0 57 56" fill="none" xmlns="http://www.w3.org/2000/svg">
<path fill-rule="evenodd" clip-rule="evenodd" d="M40.6998 27.8502C44.1204 31.2708 44.1203 36.817 40.6998 40.2375C37.2793 43.658 31.7329 43.6581 28.3125 40.2375C24.892 36.8169 24.892 31.2707 28.3125 27.8502C31.7329 24.4297 37.2792 24.4296 40.6998 27.8502ZM8.95729 41.2598V25.5931C8.95726 25.5651 8.94616 25.5384 8.92642 25.5187C8.90669 25.4989 8.87992 25.4878 8.85201 25.4878H3.86297C3.83506 25.4878 3.8083 25.4989 3.78856 25.5187C3.76882 25.5384 3.75772 25.5651 3.75769 25.5931V41.2598C3.75769 41.3179 3.80495 41.3651 3.86297 41.3651H8.85201C8.91003 41.3651 8.95729 41.3179 8.95729 41.2598ZM19.5649 41.2598V11.1205C19.5649 11.0926 19.5538 11.0659 19.5341 11.0461C19.5143 11.0264 19.4876 11.0153 19.4596 11.0153H14.4706C14.4427 11.0153 14.4159 11.0264 14.3962 11.0461C14.3765 11.0659 14.3654 11.0926 14.3653 11.1205V41.2598C14.3653 41.3179 14.4126 41.3651 14.4706 41.3651H19.4596C19.5175 41.3651 19.5649 41.3179 19.5649 41.2598ZM30.1724 21.5857V15.5443C30.1724 15.5164 30.1613 15.4896 30.1416 15.4699C30.1218 15.4502 30.0951 15.4391 30.0672 15.439H25.0781C25.0502 15.4391 25.0234 15.4502 25.0037 15.4699C24.984 15.4896 24.9729 15.5164 24.9728 15.5443V24.7734C24.9728 24.8171 24.9978 24.8543 25.0382 24.8709C25.0787 24.8875 25.1226 24.8784 25.1533 24.8473C26.5834 23.3929 28.28 22.333 30.1024 21.6849C30.123 21.6778 30.1409 21.6644 30.1534 21.6466C30.166 21.6288 30.1727 21.6075 30.1724 21.5857ZM35.6762 20.9788C37.4065 21.132 39.0889 21.628 40.6255 22.4379C40.6415 22.4466 40.6595 22.4509 40.6777 22.4504C40.6958 22.4499 40.7135 22.4446 40.729 22.435C40.7447 22.4258 40.7577 22.4126 40.7667 22.3968C40.7756 22.381 40.7802 22.363 40.78 22.3448V3.33843C40.7799 3.31052 40.7688 3.28376 40.7491 3.26402C40.7294 3.24429 40.7026 3.23318 40.6747 3.23315H35.6856C35.6577 3.23318 35.631 3.24429 35.6112 3.26402C35.5915 3.28376 35.5804 3.31052 35.5804 3.33843V20.8739C35.5803 20.9003 35.5901 20.9256 35.6079 20.945C35.6256 20.9645 35.65 20.9765 35.6762 20.9788ZM44.1306 42.6947C43.827 43.031 43.5064 43.3516 43.17 43.6552C43.1479 43.6752 43.1361 43.7008 43.1353 43.7307C43.1345 43.7606 43.145 43.7867 43.1661 43.8078L45.5076 46.1493C45.5266 46.1683 45.5376 46.1938 45.5384 46.2206C45.5392 46.2474 45.5297 46.2735 45.512 46.2936C45.0001 46.8717 45.0227 47.6935 45.5485 48.2192L49.6897 52.3604C50.2315 52.9022 51.1141 52.9022 51.6559 52.3604L52.8358 51.1806C53.105 50.9113 53.2396 50.5548 53.2396 50.1974H53.2422C53.2422 49.8416 53.1067 49.4852 52.8358 49.2142L48.6946 45.073C48.1688 44.5473 47.3471 44.5248 46.7689 45.0366C46.7489 45.0544 46.7228 45.0638 46.6959 45.063C46.6691 45.0622 46.6436 45.0512 46.6247 45.0322L44.2831 42.6906C44.2731 42.6804 44.2611 42.6723 44.2478 42.667C44.2345 42.6617 44.2202 42.6593 44.2059 42.6598C44.1916 42.66 44.1775 42.6632 44.1645 42.6692C44.1515 42.6752 44.14 42.6839 44.1306 42.6947ZM36.7063 33.6825C35.1619 33.0421 34.1716 33.4556 32.9644 32.9485C32.5019 32.7314 31.9489 32.3491 31.9462 31.8748C31.9462 31.8717 31.9463 31.869 31.9465 31.8658C31.9638 31.6483 32.0388 31.4591 32.1716 31.2982L32.1701 31.297C32.3466 31.0899 32.5886 30.9239 32.9581 30.7709C33.9898 30.3423 35.147 30.4268 36.2026 30.6704C36.6992 30.7849 37.1456 30.9435 37.552 31.1366C37.6458 31.1821 37.7476 31.2085 37.8517 31.2144C37.9558 31.2202 38.0599 31.2054 38.1582 31.1707C38.2565 31.136 38.3469 31.0822 38.4243 31.0124C38.5016 30.9425 38.5644 30.858 38.6088 30.7638C38.6533 30.6695 38.6787 30.5674 38.6834 30.4633C38.6882 30.3592 38.6722 30.2551 38.6365 30.1572C38.6008 30.0593 38.546 29.9695 38.4753 29.8929C38.4047 29.8163 38.3195 29.7544 38.2248 29.711C37.3416 29.2928 36.4069 29.0471 35.3906 28.9429C35.3647 28.9403 35.3406 28.9282 35.3231 28.9088C35.3056 28.8894 35.296 28.8642 35.2961 28.8382V28.3368C35.2961 28.1273 35.2129 27.9264 35.0647 27.7783C34.9166 27.6301 34.7157 27.5469 34.5062 27.5469C34.2967 27.5469 34.0957 27.6301 33.9476 27.7783C33.7995 27.9264 33.7162 28.1273 33.7162 28.3368V28.8529C33.7162 28.9055 33.6785 28.9493 33.6266 28.9571C33.1879 29.0231 32.7669 29.1401 32.36 29.3153C31.7593 29.5639 31.2918 29.8897 30.9577 30.2936L30.9561 30.2924C30.1914 31.2184 30.1736 32.4549 30.9437 33.3873C31.261 33.7713 31.7631 34.145 32.3541 34.4038L32.3535 34.405C33.8726 35.0428 34.9239 34.6326 36.1166 35.1449L36.1191 35.146C36.4674 35.3063 36.7233 35.4873 36.8886 35.6884C37.0121 35.8365 37.0899 36.0173 37.1125 36.2088C37.1136 36.2172 37.1136 36.2258 37.1125 36.2343C37.0873 36.4408 37.0112 36.6227 36.8827 36.7791C36.386 37.3839 35.3035 37.6215 34.5062 37.6215C33.4534 37.6215 32.4023 37.3843 31.431 36.9448C31.3366 36.9023 31.2347 36.8787 31.1312 36.8756C31.0277 36.8724 30.9246 36.8896 30.8277 36.9263C30.7309 36.9629 30.6422 37.0183 30.5668 37.0893C30.4913 37.1602 30.4306 37.2453 30.388 37.3397C30.3455 37.4341 30.322 37.536 30.3188 37.6395C30.3156 37.743 30.3328 37.8461 30.3695 37.943C30.4062 38.0398 30.4616 38.1285 30.5325 38.204C30.6034 38.2794 30.6885 38.3401 30.783 38.3827C31.6984 38.7969 32.6359 39.0496 33.6215 39.1495C33.6475 39.1521 33.6715 39.1642 33.689 39.1836C33.7065 39.203 33.7162 39.2282 33.7161 39.2543V39.7505C33.7161 39.96 33.7993 40.161 33.9475 40.3091C34.0956 40.4572 34.2966 40.5405 34.5061 40.5405C34.7156 40.5405 34.9165 40.4572 35.0646 40.3091C35.2128 40.161 35.296 39.96 35.296 39.7505V39.2413C35.296 39.1885 35.3342 39.1445 35.3864 39.137C35.8414 39.0724 36.2861 38.9489 36.7093 38.7697C37.8206 38.3054 38.6076 37.4599 38.6921 36.2831C38.6944 36.2496 38.6941 36.2157 38.6921 36.1813C38.6212 35.0137 37.8 34.1372 36.7063 33.6825ZM26.3481 25.8857C21.8426 30.3913 21.8426 37.6965 26.348 42.2019C30.8535 46.7073 38.1586 46.7073 42.664 42.202C47.1696 37.6965 47.1696 30.3913 42.6641 25.8858C38.1586 21.3803 30.8535 21.3803 26.3481 25.8857Z" fill="#31C9AA"/>
<path fill-rule="evenodd" clip-rule="evenodd" d="M40.6998 27.8503C44.1204 31.2708 44.1203 36.8171 40.6998 40.2376C37.2794 43.658 31.733 43.6582 28.3125 40.2376C24.892 36.817 24.892 31.2707 28.3125 27.8503C31.733 24.4298 37.2792 24.4297 40.6998 27.8503ZM44.1306 42.6947C43.8271 43.0311 43.5065 43.3517 43.1701 43.6552C43.1479 43.6753 43.1362 43.7008 43.1354 43.7307C43.1346 43.7606 43.145 43.7867 43.1662 43.8079L45.5077 46.1494C45.5266 46.1683 45.5376 46.1938 45.5385 46.2206C45.5393 46.2474 45.5298 46.2736 45.512 46.2936C45.0002 46.8718 45.0228 47.6935 45.5485 48.2192L49.6897 52.3604C50.2316 52.9023 51.1142 52.9023 51.656 52.3604L52.8358 51.1806C53.1051 50.9114 53.2397 50.5549 53.2397 50.1975H53.2423C53.2423 49.8417 53.1068 49.4853 52.8358 49.2143L48.6946 45.073C48.1689 44.5473 47.3472 44.5248 46.769 45.0366C46.7489 45.0544 46.7228 45.0639 46.696 45.0631C46.6692 45.0623 46.6437 45.0512 46.6248 45.0323L44.2832 42.6907C44.2732 42.6804 44.2612 42.6724 44.2479 42.6671C44.2346 42.6618 44.2203 42.6593 44.206 42.6599C44.1917 42.6601 44.1776 42.6633 44.1646 42.6693C44.1516 42.6753 44.14 42.6839 44.1306 42.6947ZM36.7064 33.6825C35.162 33.0421 34.1717 33.4556 32.9644 32.9486C32.502 32.7314 31.9489 32.3492 31.9463 31.8749C31.9463 31.8717 31.9464 31.869 31.9466 31.8659C31.9638 31.6484 32.0389 31.4591 32.1717 31.2983L32.1701 31.2971C32.3467 31.09 32.5887 30.924 32.9582 30.771C33.9899 30.3424 35.1471 30.4268 36.2027 30.6704C36.6993 30.785 37.1456 30.9436 37.5521 31.1367C37.6459 31.1821 37.7477 31.2086 37.8518 31.2144C37.9558 31.2203 38.06 31.2054 38.1583 31.1708C38.2566 31.1361 38.347 31.0823 38.4243 31.0124C38.5017 30.9426 38.5644 30.8581 38.6089 30.7638C38.6534 30.6696 38.6787 30.5674 38.6835 30.4633C38.6882 30.3592 38.6723 30.2552 38.6366 30.1573C38.6008 30.0594 38.5461 29.9695 38.4754 29.8929C38.4047 29.8163 38.3196 29.7545 38.2249 29.711C37.3416 29.2928 36.407 29.0472 35.3907 28.9429C35.3647 28.9404 35.3407 28.9282 35.3232 28.9088C35.3057 28.8895 35.2961 28.8643 35.2962 28.8382V28.3369C35.2962 28.1274 35.213 27.9265 35.0648 27.7783C34.9167 27.6302 34.7157 27.547 34.5062 27.547C34.2967 27.547 34.0958 27.6302 33.9477 27.7783C33.7995 27.9265 33.7163 28.1274 33.7163 28.3369V28.853C33.7163 28.9055 33.6786 28.9493 33.6267 28.9571C33.188 29.0231 32.767 29.1402 32.3601 29.3153C31.7593 29.564 31.2918 29.8898 30.9577 30.2936L30.9562 30.2924C30.1914 31.2184 30.1736 32.4549 30.9437 33.3873C31.261 33.7714 31.7631 34.1451 32.3542 34.4038L32.3536 34.405C33.8727 35.0429 34.924 34.6326 36.1167 35.1449L36.1192 35.146C36.4675 35.3063 36.7234 35.4873 36.8887 35.6885C37.0122 35.8365 37.09 36.0173 37.1126 36.2088C37.1137 36.2173 37.1137 36.2259 37.1126 36.2343C37.0874 36.4409 37.0112 36.6228 36.8828 36.7791C36.386 37.3839 35.3036 37.6216 34.5062 37.6216C33.4534 37.6216 32.4023 37.3844 31.4311 36.9449C31.3366 36.9023 31.2348 36.8788 31.1313 36.8756C31.0278 36.8724 30.9246 36.8897 30.8278 36.9263C30.7309 36.963 30.6423 37.0184 30.5668 37.0893C30.4914 37.1603 30.4307 37.2454 30.3881 37.3398C30.3456 37.4342 30.322 37.5361 30.3188 37.6396C30.3157 37.7431 30.3329 37.8462 30.3696 37.943C30.4062 38.0399 30.4616 38.1286 30.5326 38.204C30.6035 38.2794 30.6886 38.3402 30.783 38.3827C31.6985 38.7969 32.636 39.0497 33.6216 39.1496C33.6475 39.1522 33.6716 39.1643 33.6891 39.1837C33.7066 39.203 33.7163 39.2282 33.7162 39.2543V39.7506C33.7162 39.9601 33.7994 40.161 33.9476 40.3092C34.0957 40.4573 34.2966 40.5405 34.5061 40.5405C34.7156 40.5405 34.9166 40.4573 35.0647 40.3092C35.2128 40.161 35.2961 39.9601 35.2961 39.7506V39.2413C35.2961 39.1886 35.3343 39.1446 35.3864 39.137C35.8415 39.0724 36.2862 38.949 36.7094 38.7698C37.8207 38.3054 38.6077 37.46 38.6921 36.2832C38.6945 36.2497 38.6941 36.2158 38.6921 36.1814C38.6212 35.0138 37.8 34.1373 36.7064 33.6825ZM26.3482 25.8858C21.8426 30.3913 21.8426 37.6965 26.348 42.2019C30.8536 46.7074 38.1587 46.7074 42.6641 42.202C47.1696 37.6965 47.1696 30.3913 42.6642 25.8859C38.1587 21.3803 30.8536 21.3803 26.3482 25.8858Z" fill="#0D8A71"/>
</svg>
