<svg width="73" height="73" viewBox="0 0 73 73" fill="none" xmlns="http://www.w3.org/2000/svg">
<path d="M34.3102 41.5111C34.7857 39.7397 35.7314 37.9084 37.0842 36.6571C39.6157 34.3156 41.2007 30.9654 41.2007 27.2451C41.2007 20.1333 35.4092 14.3742 28.2851 14.4269C21.2369 14.4791 15.5154 20.2872 15.564 27.3352C15.5893 31.0061 17.1576 34.3102 19.6527 36.6315C21.0278 37.9108 21.9929 39.7783 22.4688 41.5782M28.3822 18.9991V20.6647M34.6564 21.7862L33.59 23.0656M22.1079 21.7862L23.1743 23.0656M33.5339 46.9774H23.2305C22.9327 46.9774 22.6472 46.8591 22.4366 46.6486C22.2261 46.438 22.1078 46.1525 22.1078 45.8547V42.9089C22.1077 42.7615 22.1366 42.6155 22.193 42.4793C22.2493 42.343 22.332 42.2192 22.4362 42.115C22.5404 42.0107 22.6642 41.928 22.8004 41.8716C22.9366 41.8152 23.0826 41.7862 23.23 41.7862C25.6126 41.7875 31.1527 41.7878 33.5347 41.7878C33.6821 41.7878 33.828 41.8169 33.9642 41.8733C34.1003 41.9298 34.224 42.0125 34.3282 42.1167C34.4323 42.221 34.5149 42.3448 34.5712 42.481C34.6276 42.6171 34.6565 42.7631 34.6564 42.9105V45.8547C34.6564 46.0021 34.6274 46.1481 34.571 46.2843C34.5146 46.4205 34.4319 46.5443 34.3277 46.6486C34.2234 46.7528 34.0997 46.8355 33.9635 46.8919C33.8273 46.9483 33.6813 46.9774 33.5339 46.9774Z" stroke="#0D8A71" stroke-width="2.13867" stroke-miterlimit="10" stroke-linecap="round" stroke-linejoin="round"/>
<path d="M50.5765 18.3032V22.2446M52.5471 20.2739H48.6058M40.0521 65.129V70.0712C40.0521 71.0982 39.2196 71.9307 38.1926 71.9307H33.6718C32.6448 71.9307 31.8123 71.0982 31.8123 70.0712V65.5251M31.8124 6.87626V2.92884C31.8124 1.90185 32.6449 1.06934 33.6719 1.06934H38.1928C39.2198 1.06934 40.0523 1.90185 40.0523 2.92884V6.87626M29.1624 25.2596L30.0354 27.1035C30.0974 27.2343 30.1912 27.3474 30.3082 27.4325C30.4253 27.5176 30.5619 27.5718 30.7054 27.5903L32.7289 27.8508C33.4515 27.9437 33.7409 28.8349 33.2111 29.3349L31.7273 30.735C31.622 30.8343 31.5434 30.9585 31.4987 31.0961C31.4539 31.2337 31.4446 31.3804 31.4713 31.5226L31.8489 33.5275C31.9836 34.2434 31.2257 34.7942 30.5865 34.4447L28.7964 33.4662C28.6695 33.3968 28.5271 33.3605 28.3824 33.3605C28.2377 33.3605 28.0953 33.3968 27.9683 33.4662L26.1783 34.4447C25.5391 34.7942 24.781 34.2434 24.9159 33.5275L25.2934 31.5226C25.3202 31.3804 25.3108 31.2337 25.2661 31.0961C25.2214 30.9585 25.1428 30.8343 25.0375 30.735L23.5537 29.3349C23.0239 28.8349 23.3133 27.9439 24.0359 27.8508L26.0594 27.5903C26.2029 27.5718 26.3395 27.5176 26.4565 27.4325C26.5736 27.3474 26.6674 27.2343 26.7293 27.1035L27.6023 25.2596C27.9137 24.6011 28.8506 24.6011 29.1624 25.2596ZM29.7574 51.0408H27.0068C24.9493 51.0408 23.2814 49.3729 23.2814 47.3154V46.9774H33.4828V47.3154C33.4828 49.3729 31.815 51.0408 29.7574 51.0408Z" stroke="#0D8A71" stroke-width="2.13867" stroke-miterlimit="10" stroke-linecap="round" stroke-linejoin="round"/>
<path d="M10.568 22.3028V10.0975C10.568 8.52545 11.8423 7.25108 13.4144 7.25108H58.4497C60.0218 7.25108 61.2961 8.52545 61.2961 10.0975V58.1635M10.568 58.1633V27.4266M47.5654 65.129H8.65072C7.88265 65.129 7.26001 64.5063 7.26001 63.7383V59.9818C7.26001 59.2137 7.88265 58.591 8.65072 58.591H64.3491C65.1172 58.591 65.7398 59.2137 65.7398 59.9818V63.7383C65.7398 64.5063 65.1172 65.129 64.3491 65.129H52.547M42.6346 41.8556H55.0194M42.6346 46.4482H55.0194M42.6346 51.0408H55.0194" stroke="#0D8A71" stroke-width="2.13867" stroke-miterlimit="10" stroke-linecap="round" stroke-linejoin="round"/>
<path d="M53.7352 37.9762H46.8222C46.4816 37.9762 46.1549 37.8409 45.914 37.6001C45.6732 37.3592 45.5378 37.0325 45.5378 36.6919V34.2069C45.5378 34.0382 45.5711 33.8712 45.6356 33.7154C45.7002 33.5596 45.7948 33.418 45.914 33.2988C46.0333 33.1795 46.1749 33.0849 46.3307 33.0204C46.4865 32.9559 46.6535 32.9227 46.8222 32.9227H53.7352C54.0758 32.9227 54.4025 33.058 54.6433 33.2988C54.8842 33.5397 55.0195 33.8663 55.0196 34.2069V36.6919C55.0195 37.0325 54.8842 37.3592 54.6434 37.6C54.4025 37.8409 54.0758 37.9762 53.7352 37.9762Z" stroke="#0D8A71" stroke-width="2.13867" stroke-miterlimit="10" stroke-linecap="round" stroke-linejoin="round"/>
</svg>
