<svg width="88" height="75" viewBox="0 0 88 75" fill="none" xmlns="http://www.w3.org/2000/svg">
<path d="M34.28 19.8417L35.2366 15.0501C35.4817 13.8233 34.542 12.6772 33.2913 12.6772H26.7589C25.5065 12.6772 24.5684 13.8233 24.8135 15.0501L25.7701 19.8434" stroke="#784CB5" stroke-width="3.5" stroke-miterlimit="10" stroke-linecap="round" stroke-linejoin="round"/>
<path d="M86 62.4003C80.3307 62.4003 75.7347 66.9961 75.7347 72.6655" stroke="#784CB5" stroke-width="3.5" stroke-miterlimit="10" stroke-linecap="round" stroke-linejoin="round"/>
<path d="M75.7347 40.0141C75.7347 45.6835 80.3307 50.2793 86 50.2793" stroke="#784CB5" stroke-width="3.5" stroke-miterlimit="10" stroke-linecap="round" stroke-linejoin="round"/>
<path d="M46.5106 72.6655C46.5106 66.9961 41.9148 62.4003 36.2454 62.4003" stroke="#784CB5" stroke-width="3.5" stroke-miterlimit="10" stroke-linecap="round" stroke-linejoin="round"/>
<path d="M64.5385 51.6879C64.5385 51.6879 62.4368 49.9213 59.9586 50.6679C57.683 51.3534 57.3647 53.9773 59.0111 55.0506C59.0111 55.0506 60.6265 55.7713 62.4184 56.4321C66.7315 58.0232 64.8735 62.196 61.4013 62.196C59.6625 62.196 58.2032 61.4346 57.3199 60.4597" stroke="#784CB5" stroke-width="3.5" stroke-miterlimit="10" stroke-linecap="round" stroke-linejoin="round"/>
<path d="M61.1228 64.329V62.1901" stroke="#784CB5" stroke-width="3.5" stroke-miterlimit="10" stroke-linecap="round" stroke-linejoin="round"/>
<path d="M61.1228 50.4855V48.3505" stroke="#784CB5" stroke-width="3.5" stroke-miterlimit="10" stroke-linecap="round" stroke-linejoin="round"/>
<path d="M48.4365 40.0134H84.2506C85.2157 40.0134 85.9999 40.7977 85.9999 41.7643V70.916C85.9999 71.8827 85.2157 72.6651 84.2506 72.6651H64.0805" stroke="#784CB5" stroke-width="3.5" stroke-miterlimit="10" stroke-linecap="round" stroke-linejoin="round"/>
<path d="M36.2456 55.3496V70.916C36.2456 71.8826 37.0281 72.6651 37.9949 72.6651H58.165" stroke="#784CB5" stroke-width="3.5" stroke-miterlimit="10" stroke-linecap="round" stroke-linejoin="round"/>
<path d="M14.3759 14.6313C6.90851 19.6655 2 28.2019 2 37.8852C2 53.3629 14.5471 65.91 30.0247 65.91" stroke="#784CB5" stroke-width="3.5" stroke-miterlimit="10" stroke-linecap="round" stroke-linejoin="round"/>
<path d="M39.1315 21.7391C36.4418 20.2188 33.3347 19.3511 30.0247 19.3511C19.7887 19.3511 11.4906 27.649 11.4906 37.885C11.4906 48.1212 19.7887 56.4189 30.0247 56.4189C40.2607 56.4189 48.5586 48.1212 48.5586 37.885C48.5586 33.083 46.7324 28.7074 43.7365 25.415" stroke="#784CB5" stroke-width="3.5" stroke-miterlimit="10" stroke-linecap="round" stroke-linejoin="round"/>
<path d="M30.0248 30.0818V37.8854L33.6708 41.5312" stroke="#784CB5" stroke-width="3.5" stroke-miterlimit="10" stroke-linecap="round" stroke-linejoin="round"/>
<path d="M10.0856 13.5667L14.3757 14.6313V19.0542" stroke="#784CB5" stroke-width="3.5" stroke-miterlimit="10" stroke-linecap="round" stroke-linejoin="round"/>
<path d="M61.1228 28.4461V31.818C61.1228 32.7514 61.8795 33.5081 62.8129 33.5081H66.1848C67.1182 33.5081 67.8749 32.7514 67.8749 31.818V28.4461C67.8749 27.5127 67.1182 26.756 66.1848 26.756H62.8129C61.8795 26.756 61.1228 27.5127 61.1228 28.4461Z" stroke="#784CB5" stroke-width="3.5" stroke-miterlimit="10" stroke-linecap="round" stroke-linejoin="round"/>
<path d="M57.709 4.04167L60.838 18.7555C60.9185 19.1342 61.1266 19.4738 61.4275 19.7175C61.7284 19.9612 62.1039 20.0941 62.4911 20.0941H66.5063C66.8935 20.0941 67.269 19.9612 67.5699 19.7175C67.8708 19.4738 68.0789 19.1342 68.1595 18.7555L71.2884 4.04167C71.512 2.99023 70.7102 1.99998 69.6353 1.99998H59.3621C58.2872 1.99998 57.4854 2.99023 57.709 4.04167Z" stroke="#784CB5" stroke-width="3.5" stroke-miterlimit="10" stroke-linecap="round" stroke-linejoin="round"/>
</svg>
