<?xml version="1.0" encoding="UTF-8"?>
<svg width="206" height="170" viewBox="0 0 206 170" fill="none" xmlns="http://www.w3.org/2000/svg">
  <path opacity="0.5" d="M0.25 168L0.25 169.5L3.25 169.5L3.25 168L0.25 168ZM3.24999 49C3.24999 48.1716 2.57842 47.5 1.74999 47.5C0.921565 47.5 0.249992 48.1716 0.249992 49L3.24999 49ZM3.25 168L3.24999 49L0.249992 49L0.25 168L3.25 168Z" fill="url(#paint0_linear_0_1)"/>
  <path opacity="0.5" d="M38.25 168L38.25 169.5L41.25 169.5L41.25 168L38.25 168ZM41.25 40C41.25 39.1716 40.5784 38.5 39.75 38.5C38.9216 38.5 38.25 39.1716 38.25 40L41.25 40ZM41.25 168L41.25 40L38.25 40L38.25 168L41.25 168Z" fill="url(#paint1_linear_0_1)"/>
  <path opacity="0.5" d="M102.25 168L102.25 169.5L105.25 169.5L105.25 168L102.25 168ZM105.25 66C105.25 65.1716 104.578 64.5 103.75 64.5C102.922 64.5 102.25 65.1716 102.25 66L105.25 66ZM105.25 168L105.25 66L102.25 66L102.25 168L105.25 168Z" fill="url(#paint2_linear_0_1)"/>
  <path opacity="0.5" d="M166.25 168L166.25 169.5L169.25 169.5L169.25 168L166.25 168ZM169.25 66C169.25 65.1716 168.578 64.5 167.75 64.5C166.922 64.5 166.25 65.1716 166.25 66L169.25 66ZM169.25 168L169.25 66L166.25 66L166.25 168L169.25 168Z" fill="url(#paint3_linear_0_1)"/>
  <path opacity="0.5" d="M73.25 167L73.25 168.5L76.25 168.5L76.25 167L73.25 167ZM76.25 44C76.25 43.1716 75.5784 42.5 74.75 42.5C73.9216 42.5 73.25 43.1716 73.25 44L76.25 44ZM76.25 167L76.25 44L73.25 44L73.25 167L76.25 167Z" fill="url(#paint4_linear_0_1)"/>
  <path opacity="0.5" d="M138.5 168L138.5 169.5L141.5 169.5L141.5 168L138.5 168ZM141.5 78C141.5 77.1716 140.828 76.5 140 76.5C139.172 76.5 138.5 77.1716 138.5 78L141.5 78ZM141.5 168L141.5 78L138.5 78L138.5 168L141.5 168Z" fill="url(#paint5_linear_0_1)"/>
  <path opacity="0.5" d="M202.25 168L202.25 169.5L205.25 169.5L205.25 168L202.25 168ZM205.25 96C205.25 95.1716 204.578 94.5 203.75 94.5C202.922 94.5 202.25 95.1716 202.25 96L205.25 96ZM205.25 168L205.25 96L202.25 96L202.25 168L205.25 168Z" fill="url(#paint6_linear_0_1)"/>
  <path d="M6.28926 120.536C4.9282 121.48 4.59076 123.35 5.53558 124.711C6.4804 126.072 8.34968 126.409 9.71074 125.464L6.28926 120.536ZM71.3975 78.9908L73.2943 76.6666L71.5434 75.2376L69.6868 76.5264L71.3975 78.9908ZM90.7556 94.789L88.8587 97.1132L90.7797 98.681L92.6811 97.0895L90.7556 94.789ZM204 0L169.878 5.97387L192.113 32.5375L204 0ZM9.71074 125.464L73.1083 81.4552L69.6868 76.5264L6.28926 120.536L9.71074 125.464ZM69.5007 81.3151L88.8587 97.1132L92.6524 92.4648L73.2943 76.6666L69.5007 81.3151ZM92.6811 97.0895L185.221 19.6306L181.37 15.0296L88.83 92.4885L92.6811 97.0895Z" fill="url(#paint7_linear_0_1)"/>
  <defs>
    <linearGradient id="paint0_linear_0_1" x1="2.24999" y1="49" x2="2.25" y2="168" gradientUnits="userSpaceOnUse">
      <stop stop-color="#75BD26"/>
      <stop offset="0.56" stop-color="#75BD26" stop-opacity="0.22"/>
      <stop offset="1" stop-color="#75BD26" stop-opacity="0"/>
    </linearGradient>
    <linearGradient id="paint1_linear_0_1" x1="40.25" y1="40" x2="40.25" y2="168" gradientUnits="userSpaceOnUse">
      <stop stop-color="#75BD26"/>
      <stop offset="0.56" stop-color="#75BD26" stop-opacity="0.22"/>
      <stop offset="1" stop-color="#75BD26" stop-opacity="0"/>
    </linearGradient>
    <linearGradient id="paint2_linear_0_1" x1="104.25" y1="66" x2="104.25" y2="168" gradientUnits="userSpaceOnUse">
      <stop stop-color="#75BD26"/>
      <stop offset="0.56" stop-color="#75BD26" stop-opacity="0.22"/>
      <stop offset="1" stop-color="#75BD26" stop-opacity="0"/>
    </linearGradient>
    <linearGradient id="paint3_linear_0_1" x1="168.25" y1="66" x2="168.25" y2="168" gradientUnits="userSpaceOnUse">
      <stop stop-color="#75BD26"/>
      <stop offset="0.56" stop-color="#75BD26" stop-opacity="0.22"/>
      <stop offset="1" stop-color="#75BD26" stop-opacity="0"/>
    </linearGradient>
    <linearGradient id="paint4_linear_0_1" x1="75.25" y1="44" x2="75.25" y2="167" gradientUnits="userSpaceOnUse">
      <stop stop-color="#75BD26"/>
      <stop offset="0.56" stop-color="#75BD26" stop-opacity="0.22"/>
      <stop offset="1" stop-color="#75BD26" stop-opacity="0"/>
    </linearGradient>
    <linearGradient id="paint5_linear_0_1" x1="140.5" y1="78" x2="140.5" y2="168" gradientUnits="userSpaceOnUse">
      <stop stop-color="#75BD26"/>
      <stop offset="0.56" stop-color="#75BD26" stop-opacity="0.22"/>
      <stop offset="1" stop-color="#75BD26" stop-opacity="0"/>
    </linearGradient>
    <linearGradient id="paint6_linear_0_1" x1="204.25" y1="96" x2="204.25" y2="168" gradientUnits="userSpaceOnUse">
      <stop stop-color="#75BD26"/>
      <stop offset="0.56" stop-color="#75BD26" stop-opacity="0.22"/>
      <stop offset="1" stop-color="#75BD26" stop-opacity="0"/>
    </linearGradient>
    <linearGradient id="paint7_linear_0_1" x1="191" y1="17" x2="22" y2="123" gradientUnits="userSpaceOnUse">
      <stop stop-color="#75BD26"/>
      <stop offset="0.35513" stop-color="#7FD865"/>
      <stop offset="1" stop-color="#DDF4C4"/>
    </linearGradient>
  </defs>
</svg>
