<svg width="434" height="188" viewBox="0 0 434 188" fill="none" xmlns="http://www.w3.org/2000/svg">
<path d="M216.5 99.5C233 108 237 129.5 262 141C268.522 144 279 151 343.5 157C365.411 159.038 404.5 164 432 186" stroke="url(#paint0_linear_0_1)" stroke-width="4" stroke-linecap="round"/>
<path d="M2.5 92.5C5.16667 94.1667 13.5 97.9 25.5 99.5C40.5 101.5 59 85.5 70 80.5" stroke="#75BD26" stroke-width="4" stroke-linecap="round"/>
<path d="M112.589 48.0219C124.586 48.0219 134.724 42.8265 134.724 36.6782V28.7413C130.213 33.0746 122.087 35.9219 112.589 35.9219C103.09 35.9219 94.9642 33.0746 90.4531 28.7413V36.6782C90.4531 42.8265 100.591 48.0219 112.589 48.0219Z" fill="#75BD26"/>
<path d="M112.589 63.9032C124.586 63.9032 134.724 58.7077 134.724 52.5594V44.6226C130.217 48.9559 122.087 51.8032 112.589 51.8032C103.09 51.8032 94.9642 48.9559 90.4531 44.6226V52.5594C90.4531 58.7077 100.591 63.9032 112.589 63.9032ZM112.589 95.6656C124.586 95.6656 134.724 90.4702 134.724 84.3219V76.3813C130.217 80.7146 122.087 83.5619 112.589 83.5619C103.09 83.5619 94.9642 80.7146 90.4531 76.3813V84.3219C90.4531 90.4702 100.591 95.6656 112.589 95.6656Z" fill="#75BD26"/>
<path d="M112.589 111.547C124.586 111.547 134.724 106.351 134.724 100.203V92.2663C130.217 96.5996 122.087 99.4469 112.589 99.4469C103.09 99.4469 94.9642 96.5996 90.4531 92.2663V100.203C90.4531 106.351 100.591 111.547 112.589 111.547ZM112.589 79.7844C124.586 79.7844 134.724 74.5889 134.724 68.4406V60.5076C130.217 64.8409 122.087 67.6882 112.589 67.6882C103.09 67.6882 94.9642 64.8409 90.4531 60.5076V68.4406C90.4531 74.5889 100.591 79.7844 112.589 79.7844ZM112.589 32.1406C124.586 32.1406 134.724 26.9452 134.724 20.7969C134.724 14.6486 124.586 9.45312 112.589 9.45312C100.591 9.45312 90.4531 14.6486 90.4531 20.7969C90.4531 26.9452 100.591 32.1406 112.589 32.1406ZM148.276 76.3813V84.3219C148.276 90.4702 158.414 95.6656 170.411 95.6656C182.409 95.6656 192.547 90.4702 192.547 84.3219V76.3813C188.036 80.7146 179.91 83.5618 170.411 83.5618C160.913 83.5656 152.787 80.7146 148.276 76.3813Z" fill="#75BD26"/>
<path d="M182.81 59.1501L174.749 67.2118C174.18 67.7811 173.504 68.2328 172.761 68.541C172.017 68.8491 171.22 69.0078 170.415 69.0078C169.61 69.0078 168.813 68.8491 168.07 68.541C167.326 68.2328 166.651 67.7811 166.082 67.2118L158.013 59.1464C152.001 61.2941 148.28 64.7956 148.28 68.4407C148.28 74.589 158.417 79.7844 170.415 79.7844C182.413 79.7844 192.551 74.589 192.551 68.4407C192.547 64.8485 188.743 61.279 182.81 59.1501Z" fill="#75BD26"/>
<path d="M170.415 9.45313C169.793 9.45412 169.196 9.70184 168.756 10.142C168.316 10.5821 168.068 11.1788 168.067 11.8013V52.6501C168.068 53.0245 167.957 53.3907 167.75 53.7023C167.542 54.0138 167.246 54.2567 166.9 54.4C166.555 54.5434 166.174 54.5809 165.807 54.5076C165.439 54.4344 165.102 54.2538 164.838 53.9887L157.101 46.256C156.653 45.8592 156.07 45.6484 155.471 45.6667C154.873 45.685 154.303 45.931 153.88 46.3545C153.456 46.778 153.21 47.3471 153.192 47.9457C153.174 48.5443 153.385 49.1274 153.781 49.576L168.751 64.5422C169.193 64.9804 169.789 65.2264 170.411 65.2264C171.033 65.2264 171.63 64.9804 172.071 64.5422L187.038 49.576C187.477 49.1352 187.723 48.5383 187.723 47.916C187.723 47.2937 187.477 46.6968 187.038 46.256C186.591 45.8285 185.996 45.5898 185.378 45.5898C184.759 45.5898 184.165 45.8285 183.718 46.256L175.985 53.9849C175.721 54.25 175.383 54.4306 175.016 54.5038C174.649 54.5771 174.268 54.5396 173.922 54.3962C173.577 54.2529 173.281 54.01 173.073 53.6985C172.866 53.387 172.755 53.0208 172.756 52.6463V11.8013C172.757 11.4933 172.697 11.1881 172.58 10.9033C172.463 10.6184 172.29 10.3595 172.073 10.1413C171.856 9.9232 171.597 9.75011 171.313 9.63201C171.028 9.51391 170.723 9.45312 170.415 9.45313ZM148.276 92.2663V100.203C148.276 106.351 158.414 111.547 170.411 111.547C182.409 111.547 192.547 106.351 192.547 100.203V92.2663C188.036 96.5996 179.91 99.4469 170.411 99.4469C160.913 99.4469 152.787 96.5996 148.276 92.2663Z" fill="#75BD26"/>
<defs>
<linearGradient id="paint0_linear_0_1" x1="226.5" y1="110" x2="435.5" y2="188" gradientUnits="userSpaceOnUse">
<stop stop-color="#75BD26"/>
<stop offset="1" stop-color="#75BD26" stop-opacity="0"/>
</linearGradient>
</defs>
</svg>
