<svg width="82" height="82" viewBox="0 0 82 82" fill="none" xmlns="http://www.w3.org/2000/svg">
<path d="M17.5274 45.241C17.6938 45.5231 17.9645 45.7283 18.281 45.8122C18.5976 45.8962 18.9345 45.852 19.2187 45.6894C19.8081 45.3435 20.0131 44.5875 19.6671 43.9982L16.3103 38.1813L18.0784 37.1563C18.2236 37.0772 18.3516 36.9698 18.4546 36.8404C18.5576 36.711 18.6337 36.5623 18.6783 36.403C18.7229 36.2437 18.7351 36.0771 18.7142 35.913C18.6933 35.749 18.6397 35.5907 18.5567 35.4477C18.4736 35.3047 18.3627 35.1798 18.2305 35.0803C18.0983 34.9809 17.9476 34.9089 17.7871 34.8687C17.6267 34.8286 17.4598 34.8209 17.2964 34.8463C17.1329 34.8717 16.9763 34.9296 16.8356 35.0166L13.9912 36.6566L11.1468 38.2966C11.0016 38.3757 10.8736 38.4831 10.7706 38.6125C10.6676 38.7419 10.5915 38.8906 10.5469 39.0499C10.5023 39.2092 10.4901 39.3758 10.511 39.5399C10.5319 39.7039 10.5855 39.8622 10.6685 40.0052C10.7516 40.1482 10.8625 40.2731 10.9947 40.3726C11.1269 40.472 11.2776 40.544 11.4381 40.5841C11.5985 40.6243 11.7654 40.632 11.9288 40.6066C12.0923 40.5812 12.2489 40.5233 12.3896 40.4363L14.1578 39.4113L17.5146 45.2282L17.5274 45.241ZM21.3071 37.7841L23.3571 41.3332C23.5235 41.6153 23.7942 41.8205 24.1107 41.9044C24.4273 41.9884 24.7641 41.9442 25.0484 41.7816C25.6378 41.4357 25.8428 40.6797 25.4968 40.0904L24.0618 37.6047L27.4315 35.6572L28.8665 38.1429C28.9456 38.2881 29.053 38.416 29.1824 38.5191C29.3118 38.6221 29.4605 38.6982 29.6198 38.7428C29.7791 38.7873 29.9457 38.7996 30.1098 38.7787C30.2738 38.7578 30.4321 38.7042 30.5751 38.6211C30.7181 38.5381 30.843 38.4272 30.9425 38.295C31.0419 38.1628 31.1139 38.0121 31.154 37.8516C31.1942 37.6912 31.2019 37.5243 31.1765 37.3609C31.1511 37.1974 31.0932 37.0407 31.0062 36.9L28.9562 33.351L28.6231 32.7744C28.0337 31.7494 27.0728 31.0191 25.9324 30.7116C24.7921 30.4041 23.6006 30.5579 22.5756 31.16C21.5506 31.7622 20.8203 32.7104 20.5128 33.8507C20.2053 34.991 20.359 36.1825 20.9612 37.2075L21.2943 37.7841H21.3071ZM22.9343 34.4913C23.0624 33.9916 23.3956 33.5688 23.844 33.3125C24.2924 33.0563 24.8178 32.9794 25.3174 33.1204C25.6249 33.1972 25.894 33.3766 26.1118 33.5944L22.9215 35.4394C22.8574 35.1319 22.8446 34.8116 22.9215 34.5041L22.9343 34.4913ZM56.5287 41.2819C56.6463 41.5895 56.8802 41.8385 57.1799 41.9752C57.4795 42.1118 57.8209 42.1251 58.1303 42.0122L61.6024 40.7182L62.2174 44.3697C62.3199 44.9719 62.8453 45.4075 63.4346 45.4075C63.4987 45.4075 63.5756 45.4075 63.6396 45.3947C64.3187 45.2794 64.7671 44.6388 64.6518 43.9597L63.9599 39.8341L67.8806 38.3735C68.5212 38.13 68.8543 37.4125 68.6109 36.7719C68.3674 36.1313 67.6499 35.811 67.0093 36.0416L63.5371 37.3357L62.9221 33.6841C62.8068 33.005 62.1662 32.5566 61.4871 32.6719C60.8081 32.7872 60.3596 33.4279 60.4749 34.1069L61.1668 38.2197L57.2462 39.6804C56.6056 39.9238 56.2724 40.6413 56.5159 41.2819H56.5287ZM61.9612 75.6066C62.6411 75.7948 63.3517 75.8452 64.0514 75.755C64.751 75.6648 65.4256 75.4358 66.0356 75.0813C67.2784 74.351 68.1753 73.185 68.5468 71.8013C68.9184 70.4047 68.7262 68.9441 68.0087 67.7013C66.5353 65.126 63.2168 64.2419 60.6287 65.7282C58.079 67.2272 57.1949 70.52 58.6684 73.0825C59.0192 73.7007 59.4901 74.2425 60.0534 74.6759C60.6167 75.1094 61.261 75.4258 61.9484 75.6066H61.9612ZM61.8843 67.8679C62.3328 67.6116 62.8453 67.4707 63.3449 67.4707C63.6012 67.4707 63.8574 67.5091 64.1009 67.5732C64.8568 67.7782 65.4846 68.2522 65.869 68.9313C66.2534 69.5975 66.3559 70.3919 66.1637 71.1479C65.9587 71.9038 65.4718 72.5316 64.7928 72.9288C64.1265 73.3132 63.3449 73.4157 62.6018 73.2107C61.8459 73.0057 61.2181 72.5188 60.8209 71.8397C60.0265 70.456 60.5006 68.6622 61.8715 67.8679H61.8843ZM26.919 68.9953C26.547 67.6137 25.6445 66.4349 24.4078 65.7154C23.61 65.265 22.7101 65.0268 21.794 65.0235C20.0771 64.9979 18.4115 65.7922 17.3609 67.24C17.2584 67.3938 17.1303 67.5219 17.0406 67.6885C16.9381 67.8679 16.874 68.0472 16.7971 68.2394C15.8618 70.3919 16.3999 72.9032 18.1296 74.4407C18.3987 74.6841 18.6934 74.9019 19.0137 75.0813C19.4237 75.3119 19.8593 75.4913 20.2949 75.6066H20.3206C20.4615 75.645 20.6024 75.6707 20.7434 75.6963C20.8331 75.7091 20.9228 75.7347 21.0124 75.7475H21.0765C21.2815 75.7732 21.4865 75.786 21.7043 75.786C22.1015 75.786 22.4987 75.7347 22.8959 75.645L23.1009 75.6066H23.1265C23.1521 75.6066 23.1906 75.581 23.2162 75.5682C23.4724 75.4913 23.7287 75.3888 23.9721 75.2863C24.0618 75.2479 24.1515 75.2094 24.2284 75.1582C24.4846 75.0172 24.7281 74.8763 24.9715 74.6969C25.0228 74.6585 25.074 74.6072 25.1381 74.556C25.3174 74.4022 25.4968 74.2485 25.6506 74.0691C25.7274 73.9922 25.7915 73.9154 25.8556 73.8385C26.0221 73.6335 26.1759 73.4285 26.3168 73.1979C26.3424 73.1594 26.3681 73.1338 26.3937 73.0954C26.7268 72.5188 26.9318 71.9038 27.0343 71.2632C27.1624 70.52 27.1368 69.7513 26.9318 69.0082L26.919 68.9953ZM24.2284 71.8397C23.9465 72.3394 23.5237 72.7366 23.024 72.9929H23.0112C23.0112 72.9929 22.9856 72.9929 22.9728 73.0057C22.5494 73.2139 22.0813 73.3146 21.6098 73.2989C21.1383 73.2833 20.6779 73.1518 20.2693 72.916C19.9874 72.7622 19.7568 72.5444 19.5646 72.3266C18.8856 71.5579 18.6421 70.4816 18.9624 69.4822C19.0265 69.29 19.1034 69.0979 19.2059 68.9185C19.2059 68.9185 19.2059 68.9057 19.2187 68.8929C19.334 68.6879 19.4749 68.5085 19.6415 68.3547C19.6799 68.3035 19.7312 68.265 19.7824 68.2266C19.9106 68.1113 20.0643 67.996 20.2053 67.9063C20.2565 67.8807 20.2949 67.8422 20.3462 67.8166C20.7434 67.5988 21.1918 67.4835 21.6531 67.4707H21.8581C22.0118 67.4707 22.1656 67.4963 22.3193 67.5347C22.3962 67.5475 22.4731 67.5604 22.5628 67.586C22.7293 67.6372 22.8831 67.7013 23.0496 67.791C23.1009 67.8166 23.1521 67.8294 23.1906 67.855C23.8696 68.2394 24.3437 68.8672 24.5487 69.6232C24.6896 70.1485 24.6768 70.6866 24.5231 71.1863C24.459 71.4041 24.3693 71.6219 24.254 71.8141L24.2284 71.8397Z" fill="#78B54C"/>
<path d="M5.52218 36.9129C5.4325 37.2332 5.48375 37.5663 5.65031 37.8482L13.5812 51.5575C13.7476 51.8396 14.0183 52.0449 14.3349 52.1288C14.6514 52.2127 14.9883 52.1686 15.2725 52.006L34.44 40.936L36.7078 44.8694L27.0728 61.5513C27.0087 61.5129 26.9319 61.4616 26.8678 61.4232C24.4847 60.0522 21.6916 59.6807 19.0266 60.3982C16.3616 61.1157 14.1322 62.8197 12.7612 65.2157C9.91687 70.1357 11.6209 76.465 16.5409 79.3222C18.3206 80.3527 20.3685 80.8254 22.4197 80.6792C24.4709 80.533 26.4311 79.7747 28.0466 78.5022C29.103 77.6931 29.9836 76.6774 30.6347 75.5169L42.5119 54.94L54.3891 75.5169C55.0681 76.6957 55.9394 77.695 56.9644 78.4894C58.7762 79.9148 61.014 80.6908 63.3194 80.6932C65.0875 80.6932 66.8684 80.2319 68.4828 79.3094C69.6607 78.633 70.6929 77.73 71.5197 76.6524C72.3466 75.5748 72.9518 74.3441 73.3003 73.0313C74.005 70.3663 73.6462 67.5988 72.2625 65.2157C71.5847 64.041 70.682 63.0114 69.6061 62.1857C68.5303 61.36 67.3023 60.7543 65.9923 60.4033C64.6823 60.0523 63.3159 59.9629 61.9714 60.14C60.6268 60.3172 59.3303 60.7576 58.1559 61.436C58.0919 61.4744 58.015 61.5129 57.9509 61.5513L48.3159 44.8822L49.8278 42.2685L66.7147 52.0188C66.9989 52.1814 67.3358 52.2256 67.6523 52.1416C67.9689 52.0577 68.2396 51.8525 68.4059 51.5704L76.3369 37.861C76.5034 37.5791 76.5419 37.2332 76.465 36.9257C76.3778 36.6086 76.1712 36.3376 75.8884 36.1697L59.0016 26.4066L72.4419 3.13911C72.5677 2.92376 72.6255 2.67542 72.6077 2.42665C72.59 2.17787 72.4975 1.94026 72.3423 1.74497C72.1872 1.54967 71.9767 1.4058 71.7384 1.33221C71.5001 1.25861 71.2451 1.25873 71.0069 1.33255C67.4322 2.43443 64.1394 4.18974 61.2181 6.53443C58.3009 8.8553 55.849 11.7071 53.9919 14.9394L42.5247 34.8116L31.0575 14.9522C29.2016 11.7229 26.7545 8.87157 23.8441 6.54724C20.8972 4.18974 17.6044 2.43443 14.0425 1.34536C13.5556 1.20443 13.0303 1.35818 12.71 1.75536C12.3897 2.15255 12.3512 2.70349 12.6075 3.15193L25.2791 25.0997L6.11156 36.1697C5.82968 36.3363 5.62468 36.6054 5.535 36.9257L5.52218 36.9129ZM28.4822 74.3125C27.9825 75.1838 27.3291 75.9397 26.5219 76.5675C25.2912 77.531 23.8011 78.1054 22.2422 78.2173C20.6833 78.3291 19.1265 77.9733 17.7709 77.1954C14.0297 75.03 12.7484 70.2254 14.9009 66.4841C15.4093 65.5889 16.0918 64.8046 16.9082 64.1774C17.7246 63.5503 18.6584 63.093 19.6544 62.8326C20.6478 62.5639 21.6847 62.4946 22.705 62.6287C23.7254 62.7629 24.7091 63.0978 25.5994 63.6141C25.9966 63.8576 26.3425 64.0882 26.6372 64.3444C26.9191 64.5879 27.2906 64.6904 27.6494 64.6263C28.0081 64.5622 28.3284 64.3444 28.5206 64.0241L38.1172 47.4063L41.0769 52.5185L28.4694 74.3382L28.4822 74.3125ZM73.5822 37.6944L66.8941 49.2641L51.0834 40.1416L57.7716 28.5719L73.5822 37.7072V37.6944ZM56.1316 16.1951C57.8484 13.2226 60.0778 10.6216 62.7556 8.49474C64.5366 7.05974 66.4712 5.86818 68.5341 4.93286L48.3031 39.9751L46.8937 42.4222L46.535 41.8072L43.9341 37.3101L56.1187 16.1951H56.1316ZM22.2809 8.49474C24.9587 10.6344 27.1881 13.2226 28.8922 16.2079L41.4356 37.9251L44.3056 42.8963L56.4903 63.9985C56.6697 64.3188 56.99 64.5366 57.3616 64.6007C57.7331 64.6647 58.1047 64.5622 58.3737 64.3188C58.6684 64.0625 59.0016 63.8319 59.3987 63.6013C63.14 61.4488 67.9575 62.73 70.11 66.4841C71.1606 68.2907 71.4425 70.3919 70.9044 72.4163C70.3662 74.4407 69.0594 76.1319 67.2528 77.1954C65.8991 77.9792 64.3411 78.3385 62.7808 78.2265C61.2206 78.1146 59.7298 77.5366 58.5019 76.5675C57.7092 75.9529 57.0471 75.1862 56.5544 74.3125L35.9775 38.6682V38.6426L16.4897 4.90724C18.5525 5.84255 20.4872 7.03411 22.2937 8.46911L22.2809 8.49474ZM26.5091 27.2522L33.1844 38.8219L15.0931 49.2641L8.405 37.7072L26.4962 27.2651L26.5091 27.2522Z" fill="#78B54C"/>
</svg>
