<svg width="94" height="94" viewBox="0 0 94 94" fill="none" xmlns="http://www.w3.org/2000/svg">
<rect x="1" y="1" width="92" height="92" rx="46" fill="white"/>
<rect x="1" y="1" width="92" height="92" rx="46" stroke="#0D8A71" stroke-width="2"/>
<path fill-rule="evenodd" clip-rule="evenodd" d="M58.6998 46.8503C62.1204 50.2709 62.1203 55.8171 58.6998 59.2376C55.2793 62.6581 49.7329 62.6582 46.3125 59.2376C42.892 55.817 42.892 50.2707 46.3125 46.8503C49.7329 43.4298 55.2792 43.4297 58.6998 46.8503ZM26.9573 60.2599V44.5931C26.9573 44.5652 26.9462 44.5384 26.9264 44.5187C26.9067 44.499 26.8799 44.4879 26.852 44.4878H21.863C21.8351 44.4879 21.8083 44.499 21.7886 44.5187C21.7688 44.5384 21.7577 44.5652 21.7577 44.5931V60.2599C21.7577 60.3179 21.805 60.3652 21.863 60.3652H26.852C26.91 60.3652 26.9573 60.3179 26.9573 60.2599ZM37.5649 60.2599V30.1206C37.5649 30.0927 37.5538 30.0659 37.5341 30.0462C37.5143 30.0264 37.4876 30.0153 37.4596 30.0153H32.4706C32.4427 30.0153 32.4159 30.0264 32.3962 30.0462C32.3765 30.0659 32.3654 30.0927 32.3653 30.1206V60.2599C32.3653 60.3179 32.4126 60.3652 32.4706 60.3652H37.4596C37.5175 60.3652 37.5649 60.3179 37.5649 60.2599ZM48.1724 40.5858V34.5444C48.1724 34.5165 48.1613 34.4897 48.1416 34.47C48.1218 34.4502 48.0951 34.4391 48.0672 34.4391H43.0781C43.0502 34.4391 43.0234 34.4502 43.0037 34.47C42.984 34.4897 42.9729 34.5165 42.9728 34.5444V43.7735C42.9728 43.8172 42.9978 43.8544 43.0382 43.8709C43.0787 43.8875 43.1226 43.8785 43.1533 43.8473C44.5834 42.393 46.28 41.333 48.1024 40.685C48.123 40.6779 48.1409 40.6645 48.1534 40.6467C48.166 40.6289 48.1727 40.6076 48.1724 40.5858ZM53.6762 39.9788C55.4065 40.132 57.0889 40.628 58.6255 41.438C58.6415 41.4467 58.6595 41.451 58.6777 41.4505C58.6958 41.4499 58.7135 41.4446 58.729 41.4351C58.7447 41.4259 58.7577 41.4127 58.7667 41.3969C58.7756 41.381 58.7802 41.3631 58.78 41.3449V22.3385C58.7799 22.3106 58.7688 22.2838 58.7491 22.2641C58.7294 22.2443 58.7026 22.2332 58.6747 22.2332H53.6856C53.6577 22.2332 53.631 22.2443 53.6112 22.2641C53.5915 22.2838 53.5804 22.3106 53.5804 22.3385V39.874C53.5803 39.9003 53.5901 39.9257 53.6079 39.9451C53.6256 39.9645 53.65 39.9766 53.6762 39.9788ZM62.1306 61.6947C61.827 62.0311 61.5064 62.3517 61.17 62.6553C61.1479 62.6753 61.1361 62.7008 61.1353 62.7307C61.1345 62.7606 61.145 62.7867 61.1661 62.8079L63.5076 65.1494C63.5266 65.1683 63.5376 65.1938 63.5384 65.2206C63.5392 65.2475 63.5297 65.2736 63.512 65.2936C63.0001 65.8718 63.0227 66.6935 63.5485 67.2192L67.6897 71.3605C68.2315 71.9023 69.1141 71.9023 69.6559 71.3605L70.8358 70.1806C71.105 69.9114 71.2396 69.5549 71.2396 69.1975H71.2422C71.2422 68.8417 71.1067 68.4853 70.8358 68.2143L66.6946 64.0731C66.1688 63.5473 65.3471 63.5248 64.7689 64.0367C64.7489 64.0544 64.7228 64.0639 64.6959 64.0631C64.6691 64.0623 64.6436 64.0513 64.6247 64.0323L62.2831 61.6907C62.2731 61.6804 62.2611 61.6724 62.2478 61.6671C62.2345 61.6618 62.2202 61.6593 62.2059 61.6599C62.1916 61.6601 62.1775 61.6633 62.1645 61.6693C62.1515 61.6753 62.14 61.684 62.1306 61.6947ZM54.7063 52.6825C53.1619 52.0421 52.1716 52.4556 50.9644 51.9486C50.5019 51.7314 49.9489 51.3492 49.9462 50.8749C49.9462 50.8717 49.9463 50.869 49.9465 50.8659C49.9638 50.6484 50.0388 50.4591 50.1716 50.2983L50.1701 50.2971C50.3466 50.09 50.5886 49.924 50.9581 49.771C51.9898 49.3424 53.147 49.4268 54.2026 49.6704C54.6992 49.785 55.1456 49.9436 55.552 50.1367C55.6458 50.1822 55.7476 50.2086 55.8517 50.2144C55.9558 50.2203 56.0599 50.2054 56.1582 50.1708C56.2565 50.1361 56.3469 50.0823 56.4243 50.0124C56.5016 49.9426 56.5644 49.8581 56.6088 49.7638C56.6533 49.6696 56.6787 49.5674 56.6834 49.4633C56.6882 49.3592 56.6722 49.2552 56.6365 49.1573C56.6008 49.0594 56.546 48.9695 56.4753 48.8929C56.4047 48.8163 56.3195 48.7545 56.2248 48.711C55.3416 48.2928 54.4069 48.0472 53.3906 47.9429C53.3647 47.9404 53.3406 47.9282 53.3231 47.9089C53.3056 47.8895 53.296 47.8643 53.2961 47.8382V47.3369C53.2961 47.1274 53.2129 46.9265 53.0647 46.7783C52.9166 46.6302 52.7157 46.547 52.5062 46.547C52.2967 46.547 52.0957 46.6302 51.9476 46.7783C51.7995 46.9265 51.7162 47.1274 51.7162 47.3369V47.853C51.7162 47.9055 51.6785 47.9493 51.6266 47.9572C51.1879 48.0231 50.7669 48.1402 50.36 48.3153C49.7593 48.564 49.2918 48.8898 48.9577 49.2937L48.9561 49.2924C48.1914 50.2184 48.1736 51.4549 48.9437 52.3873C49.261 52.7714 49.7631 53.1451 50.3541 53.4038L50.3535 53.4051C51.8726 54.0429 52.9239 53.6326 54.1166 54.1449L54.1191 54.146C54.4674 54.3063 54.7233 54.4873 54.8886 54.6885C55.0121 54.8365 55.0899 55.0173 55.1125 55.2088C55.1136 55.2173 55.1136 55.2259 55.1125 55.2344C55.0873 55.4409 55.0112 55.6228 54.8827 55.7791C54.386 56.3839 53.3035 56.6216 52.5062 56.6216C51.4534 56.6216 50.4023 56.3844 49.431 55.9449C49.3366 55.9023 49.2347 55.8788 49.1312 55.8756C49.0277 55.8724 48.9246 55.8897 48.8277 55.9263C48.7309 55.963 48.6422 56.0184 48.5668 56.0893C48.4913 56.1603 48.4306 56.2454 48.388 56.3398C48.3455 56.4342 48.322 56.5361 48.3188 56.6396C48.3156 56.7431 48.3328 56.8462 48.3695 56.9431C48.4062 57.0399 48.4616 57.1286 48.5325 57.204C48.6034 57.2795 48.6885 57.3402 48.783 57.3827C49.6984 57.7969 50.6359 58.0497 51.6215 58.1496C51.6475 58.1522 51.6715 58.1643 51.689 58.1837C51.7065 58.203 51.7162 58.2282 51.7161 58.2543V58.7506C51.7161 58.9601 51.7993 59.161 51.9475 59.3092C52.0956 59.4573 52.2966 59.5405 52.5061 59.5405C52.7156 59.5405 52.9165 59.4573 53.0646 59.3092C53.2128 59.161 53.296 58.9601 53.296 58.7506V58.2413C53.296 58.1886 53.3342 58.1446 53.3864 58.1371C53.8414 58.0724 54.2861 57.949 54.7093 57.7698C55.8206 57.3055 56.6076 56.46 56.6921 55.2832C56.6944 55.2497 56.6941 55.2158 56.6921 55.1814C56.6212 54.0138 55.8 53.1373 54.7063 52.6825ZM44.3481 44.8858C39.8426 49.3913 39.8426 56.6965 44.348 61.2019C48.8535 65.7074 56.1586 65.7074 60.664 61.202C65.1696 56.6965 65.1696 49.3913 60.6641 44.8859C56.1586 40.3804 48.8535 40.3804 44.3481 44.8858Z" fill="#31C9AA"/>
<path fill-rule="evenodd" clip-rule="evenodd" d="M58.6998 46.8503C62.1204 50.2709 62.1203 55.8171 58.6998 59.2376C55.2794 62.6581 49.733 62.6582 46.3125 59.2376C42.892 55.817 42.892 50.2707 46.3125 46.8503C49.733 43.4298 55.2792 43.4297 58.6998 46.8503ZM62.1306 61.6947C61.8271 62.0311 61.5065 62.3517 61.1701 62.6552C61.1479 62.6753 61.1362 62.7008 61.1354 62.7307C61.1346 62.7606 61.145 62.7867 61.1662 62.8079L63.5077 65.1494C63.5266 65.1683 63.5376 65.1938 63.5385 65.2206C63.5393 65.2474 63.5298 65.2736 63.512 65.2936C63.0002 65.8718 63.0228 66.6935 63.5485 67.2192L67.6897 71.3605C68.2316 71.9023 69.1142 71.9023 69.656 71.3605L70.8358 70.1806C71.1051 69.9114 71.2397 69.5549 71.2397 69.1975H71.2423C71.2423 68.8417 71.1068 68.4853 70.8358 68.2143L66.6946 64.0731C66.1689 63.5473 65.3472 63.5248 64.769 64.0367C64.7489 64.0544 64.7228 64.0639 64.696 64.0631C64.6692 64.0623 64.6437 64.0513 64.6248 64.0323L62.2832 61.6907C62.2732 61.6804 62.2612 61.6724 62.2479 61.6671C62.2346 61.6618 62.2203 61.6593 62.206 61.6599C62.1917 61.6601 62.1776 61.6633 62.1646 61.6693C62.1516 61.6753 62.14 61.684 62.1306 61.6947ZM54.7064 52.6825C53.162 52.0421 52.1717 52.4556 50.9644 51.9486C50.502 51.7314 49.9489 51.3492 49.9463 50.8749C49.9463 50.8717 49.9464 50.869 49.9466 50.8659C49.9638 50.6484 50.0389 50.4591 50.1717 50.2983L50.1701 50.2971C50.3467 50.09 50.5887 49.924 50.9582 49.771C51.9899 49.3424 53.1471 49.4268 54.2027 49.6704C54.6993 49.785 55.1456 49.9436 55.5521 50.1367C55.6459 50.1822 55.7477 50.2086 55.8518 50.2144C55.9558 50.2203 56.06 50.2054 56.1583 50.1708C56.2566 50.1361 56.347 50.0823 56.4243 50.0124C56.5017 49.9426 56.5644 49.8581 56.6089 49.7638C56.6534 49.6696 56.6787 49.5674 56.6835 49.4633C56.6882 49.3592 56.6723 49.2552 56.6366 49.1573C56.6008 49.0594 56.5461 48.9695 56.4754 48.8929C56.4047 48.8163 56.3196 48.7545 56.2249 48.711C55.3416 48.2928 54.407 48.0472 53.3907 47.9429C53.3647 47.9404 53.3407 47.9282 53.3232 47.9089C53.3057 47.8895 53.2961 47.8643 53.2962 47.8382V47.3369C53.2962 47.1274 53.213 46.9265 53.0648 46.7783C52.9167 46.6302 52.7157 46.547 52.5062 46.547C52.2967 46.547 52.0958 46.6302 51.9477 46.7783C51.7995 46.9265 51.7163 47.1274 51.7163 47.3369V47.853C51.7163 47.9055 51.6786 47.9493 51.6267 47.9572C51.188 48.0231 50.767 48.1402 50.3601 48.3153C49.7593 48.564 49.2918 48.8898 48.9577 49.2937L48.9562 49.2924C48.1914 50.2184 48.1736 51.4549 48.9437 52.3873C49.261 52.7714 49.7631 53.1451 50.3542 53.4038L50.3536 53.4051C51.8727 54.0429 52.924 53.6326 54.1167 54.1449L54.1192 54.146C54.4675 54.3063 54.7234 54.4873 54.8887 54.6885C55.0122 54.8365 55.09 55.0173 55.1126 55.2088C55.1137 55.2173 55.1137 55.2259 55.1126 55.2344C55.0874 55.4409 55.0112 55.6228 54.8828 55.7791C54.386 56.3839 53.3036 56.6216 52.5062 56.6216C51.4534 56.6216 50.4023 56.3844 49.4311 55.9449C49.3366 55.9023 49.2348 55.8788 49.1313 55.8756C49.0278 55.8724 48.9246 55.8897 48.8278 55.9263C48.7309 55.963 48.6423 56.0184 48.5668 56.0893C48.4914 56.1603 48.4307 56.2454 48.3881 56.3398C48.3456 56.4342 48.322 56.5361 48.3188 56.6396C48.3157 56.7431 48.3329 56.8462 48.3696 56.9431C48.4062 57.0399 48.4616 57.1286 48.5326 57.204C48.6035 57.2795 48.6886 57.3402 48.783 57.3827C49.6985 57.7969 50.636 58.0497 51.6216 58.1496C51.6475 58.1522 51.6716 58.1643 51.6891 58.1837C51.7066 58.203 51.7163 58.2282 51.7162 58.2543V58.7506C51.7162 58.9601 51.7994 59.161 51.9476 59.3092C52.0957 59.4573 52.2966 59.5405 52.5061 59.5405C52.7156 59.5405 52.9166 59.4573 53.0647 59.3092C53.2128 59.161 53.2961 58.9601 53.2961 58.7506V58.2413C53.2961 58.1886 53.3343 58.1446 53.3864 58.1371C53.8415 58.0724 54.2862 57.949 54.7094 57.7698C55.8207 57.3055 56.6077 56.46 56.6921 55.2832C56.6945 55.2497 56.6941 55.2158 56.6921 55.1814C56.6212 54.0138 55.8 53.1373 54.7064 52.6825ZM44.3482 44.8858C39.8426 49.3913 39.8426 56.6965 44.348 61.2019C48.8536 65.7074 56.1587 65.7074 60.6641 61.202C65.1696 56.6965 65.1696 49.3913 60.6642 44.8859C56.1587 40.3804 48.8536 40.3804 44.3482 44.8858Z" fill="#0D8A71"/>
</svg>
