<svg width="94" height="94" viewBox="0 0 94 94" fill="none" xmlns="http://www.w3.org/2000/svg">
<rect x="1" y="1" width="92" height="92" rx="46" fill="white"/>
<rect x="1" y="1" width="92" height="92" rx="46" stroke="#84255D" stroke-width="2"/>
<path d="M65.1344 58.9968C64.8801 59.1287 64.6272 59.2633 64.3757 59.4006C63.2455 58.4889 61.2094 57.6166 58.939 58.7937C55.9575 60.3401 54.2513 61.6626 53.3714 62.4622L51.2722 62.2669L47.4174 59.183C48.4925 59.4776 49.5936 59.7626 50.5535 59.9758C51.0015 60.078 51.4594 60.1309 51.919 60.1334C52.8708 60.145 53.8033 59.8638 54.5901 59.3279C56.6791 57.9039 57.141 55.0966 57.1596 54.9777C57.1981 54.732 57.1452 54.4807 57.0108 54.2714C56.8764 54.0622 56.6699 53.9095 56.4304 53.8424L43.0241 50.0846C42.9349 50.0596 42.8427 50.0469 42.75 50.0469H21.625C21.3556 50.0469 21.0973 50.1539 20.9068 50.3444C20.7164 50.5348 20.6094 50.7931 20.6094 51.0625C20.6094 51.3319 20.7164 51.5902 20.9068 51.7807C21.0973 51.9711 21.3556 52.0781 21.625 52.0781H42.6104L54.9161 55.5275C54.6771 56.2059 54.2277 57.1205 53.4385 57.6544C52.7784 58.1013 51.9788 58.2118 50.9937 57.9929C47.9015 57.3059 43.1034 55.7965 43.0554 55.7814C41.989 55.4546 41.2509 56.8399 42.1155 57.5431L50.2405 64.0431C50.3955 64.1671 50.5834 64.2429 50.781 64.2613L53.6358 64.5268L59.5153 65.0738C59.6821 65.0905 59.8503 65.0651 60.0047 64.9999C60.1591 64.9347 60.2946 64.8319 60.3989 64.7007C60.4126 64.684 61.8202 63.0029 66.0685 60.8001C66.4997 60.5616 66.9871 60.4433 67.4797 60.4578C67.9723 60.4723 68.4519 60.6189 68.8683 60.8824L61.8012 67.9495L50.2352 68.7206L35.0191 62.3139C34.8943 62.2614 34.7603 62.2344 34.625 62.2344H21.625C21.3556 62.2344 21.0973 62.3414 20.9068 62.5318C20.7164 62.7223 20.6094 62.9806 20.6094 63.25C20.6094 63.5194 20.7164 63.7777 20.9068 63.9682C21.0973 64.1586 21.3556 64.2656 21.625 64.2656H34.4198L49.6684 70.6861C49.7932 70.7386 49.9272 70.7656 50.0625 70.7656C50.085 70.7656 50.1075 70.7648 50.13 70.7634L62.3175 69.9509C62.563 69.9345 62.7942 69.8296 62.9682 69.6557L71.0932 61.5307C71.275 61.3488 71.3811 61.1048 71.39 60.8479C71.399 60.5909 71.3101 60.3401 71.1414 60.1461C70.2575 59.1296 67.8643 57.5813 65.1344 58.9968ZM59.2092 63.0052L56.3002 62.7347C57.4421 61.9431 58.6359 61.2289 59.8734 60.597C60.9051 60.0619 61.7942 60.2369 62.4251 60.5447C60.7033 61.6363 59.7042 62.515 59.2092 63.0052ZM54.125 44.7656C56.2542 44.7656 58.3357 44.1342 60.1061 42.9513C61.8765 41.7684 63.2563 40.087 64.0711 38.1198C64.886 36.1527 65.0992 33.9881 64.6838 31.8997C64.2684 29.8114 63.243 27.8932 61.7374 26.3876C60.2318 24.882 58.3136 23.8566 56.2253 23.4412C54.1369 23.0258 51.9723 23.239 50.0052 24.0539C48.038 24.8687 46.3567 26.2485 45.1737 28.0189C43.9908 29.7893 43.3594 31.8708 43.3594 34C43.3626 36.8542 44.4979 39.5906 46.5161 41.6089C48.5344 43.6271 51.2708 44.7624 54.125 44.7656ZM54.125 25.2656C55.8525 25.2656 57.5412 25.7779 58.9776 26.7376C60.4139 27.6974 61.5334 29.0615 62.1945 30.6575C62.8556 32.2535 63.0286 34.0097 62.6915 35.704C62.3545 37.3983 61.5227 38.9546 60.3011 40.1761C59.0796 41.3977 57.5233 42.2295 55.829 42.5666C54.1347 42.9036 52.3785 42.7306 50.7825 42.0695C49.1865 41.4084 47.8224 40.2889 46.8626 38.8526C45.9029 37.4162 45.3906 35.7275 45.3906 34C45.3933 31.6843 46.3144 29.4643 47.9518 27.8268C49.5893 26.1894 51.8093 25.2683 54.125 25.2656Z" fill="#84255D"/>
<path d="M53.211 35.0156H54.9375C55.3145 35.016 55.6759 35.166 55.9425 35.4325C56.2091 35.6991 56.359 36.0605 56.3594 36.4375V36.5391C56.359 36.916 56.2091 37.2775 55.9425 37.544C55.6759 37.8106 55.3145 37.9605 54.9375 37.9609H52.3772C52.3029 37.9609 52.2293 37.9461 52.1608 37.9174C52.0922 37.8886 52.0301 37.8465 51.978 37.7935C51.926 37.7404 51.885 37.6775 51.8575 37.6085C51.83 37.5394 51.8166 37.4656 51.8179 37.3913L51.8199 37.2859C51.8247 37.0165 51.7223 36.7562 51.5352 36.5624C51.3482 36.3685 51.0918 36.2569 50.8224 36.252C50.5531 36.2472 50.2928 36.3496 50.0989 36.5367C49.9051 36.7237 49.7934 36.9801 49.7886 37.2495L49.7867 37.3547C49.7805 37.6988 49.8429 38.0407 49.9703 38.3605C50.0977 38.6802 50.2875 38.9713 50.5287 39.2169C50.7699 39.4624 51.0576 39.6574 51.3749 39.7905C51.6923 39.9237 52.0331 39.9922 52.3772 39.9922H53.1094V40.6016C53.1094 40.8709 53.2164 41.1293 53.4069 41.3197C53.5973 41.5102 53.8557 41.6172 54.125 41.6172C54.3944 41.6172 54.6527 41.5102 54.8432 41.3197C55.0336 41.1293 55.1407 40.8709 55.1407 40.6016V39.9858C56.0194 39.933 56.8449 39.547 57.4488 38.9066C58.0527 38.2661 58.3895 37.4194 58.3907 36.5391V36.4375C58.3896 35.522 58.0255 34.6443 57.3781 33.9969C56.7308 33.3495 55.853 32.9854 54.9375 32.9844H53.211C52.8339 32.9844 52.4722 32.8346 52.2055 32.5679C51.9389 32.3013 51.7891 31.9396 51.7891 31.5625C51.7891 31.1854 51.9389 30.8237 52.2055 30.5571C52.4722 30.2904 52.8339 30.1406 53.211 30.1406H55.7308C55.8063 30.1407 55.881 30.156 55.9503 30.1856C56.0197 30.2153 56.0824 30.2586 56.1346 30.3131C56.1868 30.3676 56.2274 30.4321 56.254 30.5027C56.2806 30.5734 56.2927 30.6486 56.2894 30.724C56.2778 30.9931 56.3736 31.2558 56.5557 31.4543C56.7379 31.6528 56.9913 31.7708 57.2605 31.7824C57.5296 31.794 57.7923 31.6982 57.9908 31.5161C58.1893 31.334 58.3073 31.0805 58.3188 30.8113C58.3339 30.4621 58.2781 30.1134 58.1548 29.7863C58.0315 29.4592 57.8433 29.1605 57.6015 28.908C57.3597 28.6556 57.0693 28.4547 56.7478 28.3174C56.4263 28.1802 56.0804 28.1094 55.7308 28.1094H55.1407V27.5C55.1407 27.2306 55.0336 26.9723 54.8432 26.7818C54.6527 26.5914 54.3944 26.4844 54.125 26.4844C53.8557 26.4844 53.5973 26.5914 53.4069 26.7818C53.2164 26.9723 53.1094 27.2306 53.1094 27.5V28.1119C52.2031 28.1388 51.3437 28.5212 50.717 29.1765C50.0902 29.8317 49.7464 30.7072 49.7597 31.6138C49.773 32.5204 50.1425 33.3854 50.7883 34.0219C51.434 34.6584 52.3042 35.0154 53.211 35.0156ZM64.5932 49.5318C64.4024 49.3428 64.1445 49.2369 63.8759 49.2375C63.6074 49.2381 63.3499 49.3451 63.16 49.535C62.9701 49.7249 62.8631 49.9823 62.8626 50.2509C62.862 50.5195 62.9678 50.7774 63.1569 50.9681L66.4069 54.2181C66.5973 54.4086 66.8557 54.5156 67.125 54.5156C67.3944 54.5156 67.6527 54.4086 67.8432 54.2181L71.0932 50.9681C71.2823 50.7774 71.3881 50.5195 71.3875 50.2509C71.3869 49.9823 71.28 49.7249 71.09 49.535C70.9001 49.3451 70.6427 49.2381 70.3741 49.2375C70.1055 49.2369 69.8476 49.3428 69.6569 49.5318L68.1407 51.048V45.375C68.1407 45.1056 68.0336 44.8473 67.8432 44.6568C67.6527 44.4664 67.3944 44.3594 67.125 44.3594C66.8557 44.3594 66.5973 44.4664 66.4069 44.6568C66.2164 44.8473 66.1094 45.1056 66.1094 45.375V51.048L64.5932 49.5318ZM67.125 42.3281C67.3944 42.3281 67.6527 42.2211 67.8432 42.0307C68.0336 41.8402 68.1407 41.5819 68.1407 41.3125V40.5C68.1407 40.2306 68.0336 39.9723 67.8432 39.7818C67.6527 39.5914 67.3944 39.4844 67.125 39.4844C66.8557 39.4844 66.5973 39.5914 66.4069 39.7818C66.2164 39.9723 66.1094 40.2306 66.1094 40.5V41.3125C66.1094 41.5819 66.2164 41.8402 66.4069 42.0307C66.5973 42.2211 66.8557 42.3281 67.125 42.3281ZM35.5319 36.3431C35.7223 36.5336 35.9807 36.6406 36.25 36.6406C36.5194 36.6406 36.7777 36.5336 36.9682 36.3431L40.2182 33.0931C40.4073 32.9024 40.5131 32.6445 40.5125 32.3759C40.5119 32.1073 40.405 31.8499 40.215 31.66C40.0251 31.4701 39.7677 31.3631 39.4991 31.3625C39.2305 31.3619 38.9726 31.4678 38.7819 31.6569L37.2657 33.173V27.5C37.2657 27.2306 37.1587 26.9723 36.9682 26.7818C36.7777 26.5914 36.5194 26.4844 36.25 26.4844C35.9807 26.4844 35.7223 26.5914 35.5319 26.7818C35.3414 26.9723 35.2344 27.2306 35.2344 27.5V33.173L33.7182 31.6569C33.5274 31.4678 33.2695 31.3619 33.0009 31.3625C32.7324 31.3631 32.4749 31.4701 32.285 31.66C32.0951 31.8499 31.9881 32.1073 31.9876 32.3759C31.987 32.6445 32.0928 32.9024 32.2819 33.0931L35.5319 36.3431ZM36.25 24.4531C36.5194 24.4531 36.7777 24.3461 36.9682 24.1557C37.1587 23.9652 37.2657 23.7069 37.2657 23.4375V22.625C37.2657 22.3556 37.1587 22.0973 36.9682 21.9068C36.7777 21.7164 36.5194 21.6094 36.25 21.6094C35.9807 21.6094 35.7223 21.7164 35.5319 21.9068C35.3414 22.0973 35.2344 22.3556 35.2344 22.625V23.4375C35.2344 23.7069 35.3414 23.9652 35.5319 24.1557C35.7223 24.3461 35.9807 24.4531 36.25 24.4531ZM25.7819 46.0931C25.9723 46.2836 26.2307 46.3906 26.5 46.3906C26.7694 46.3906 27.0277 46.2836 27.2182 46.0931L30.4682 42.8431C30.6573 42.6524 30.7631 42.3945 30.7625 42.1259C30.7619 41.8573 30.655 41.5999 30.465 41.41C30.2751 41.2201 30.0177 41.1131 29.7491 41.1125C29.4805 41.1119 29.2226 41.2178 29.0319 41.4069L27.5157 42.923V37.25C27.5157 36.9806 27.4087 36.7223 27.2182 36.5318C27.0277 36.3414 26.7694 36.2344 26.5 36.2344C26.2307 36.2344 25.9723 36.3414 25.7819 36.5318C25.5914 36.7223 25.4844 36.9806 25.4844 37.25V42.923L23.9682 41.4069C23.7774 41.2178 23.5195 41.1119 23.2509 41.1125C22.9824 41.1131 22.7249 41.2201 22.535 41.41C22.3451 41.5999 22.2381 41.8573 22.2376 42.1259C22.237 42.3945 22.3428 42.6524 22.5319 42.8431L25.7819 46.0931ZM26.5 34.2031C26.7694 34.2031 27.0277 34.0961 27.2182 33.9057C27.4087 33.7152 27.5157 33.4569 27.5157 33.1875V32.375C27.5157 32.1056 27.4087 31.8473 27.2182 31.6568C27.0277 31.4664 26.7694 31.3594 26.5 31.3594C26.2307 31.3594 25.9723 31.4664 25.7819 31.6568C25.5914 31.8473 25.4844 32.1056 25.4844 32.375V33.1875C25.4844 33.4569 25.5914 33.7152 25.7819 33.9057C25.9723 34.0961 26.2307 34.2031 26.5 34.2031Z" fill="#84255D"/>
</svg>
