<svg width="94" height="94" viewBox="0 0 94 94" fill="none" xmlns="http://www.w3.org/2000/svg">
<rect x="1" y="1" width="92" height="92" rx="46" fill="white"/>
<rect x="1" y="1" width="92" height="92" rx="46" stroke="#0E78AE" stroke-width="2"/>
<path d="M55.3125 50.9375H64.0625V54.4375H55.3125V50.9375Z" fill="black"/>
<path d="M66.6875 45.25H52.6875C50.7537 45.25 49.1875 46.8163 49.1875 48.75V68C49.177 69.9031 50.7607 71.5053 52.6875 71.5H66.6875C68.6213 71.5 70.1875 69.9338 70.1875 68V48.75C70.1875 46.8163 68.6213 45.25 66.6875 45.25ZM55.3125 67.5625H54.4375C53.2886 67.5406 53.2878 65.8344 54.4375 65.8125H55.3125C56.4614 65.8344 56.4622 67.5406 55.3125 67.5625ZM55.3125 63.625H54.4375C53.2886 63.6031 53.2878 61.8969 54.4375 61.875H55.3125C56.4614 61.8969 56.4622 63.6031 55.3125 63.625ZM55.3125 59.6875H54.4375C53.2886 59.6656 53.2878 57.9594 54.4375 57.9375H55.3125C56.4614 57.9594 56.4622 59.6656 55.3125 59.6875ZM60.125 67.5625H59.25C58.1011 67.5406 58.1003 65.8344 59.25 65.8125H60.125C61.2739 65.8344 61.2747 67.5406 60.125 67.5625ZM60.125 63.625H59.25C58.1011 63.6031 58.1003 61.8969 59.25 61.875H60.125C61.2739 61.8969 61.2747 63.6031 60.125 63.625ZM60.125 59.6875H59.25C58.1011 59.6656 58.1003 57.9594 59.25 57.9375H60.125C61.2739 57.9594 61.2747 59.6656 60.125 59.6875ZM64.9375 67.5625H64.0625C62.9136 67.5406 62.9128 65.8344 64.0625 65.8125H64.9375C66.0864 65.8344 66.0872 67.5406 64.9375 67.5625ZM64.9375 63.625H64.0625C62.9136 63.6031 62.9128 61.8969 64.0625 61.875H64.9375C66.0864 61.8969 66.0872 63.6031 64.9375 63.625ZM64.9375 59.6875H64.0625C62.9136 59.6656 62.9128 57.9594 64.0625 57.9375H64.9375C66.0864 57.9594 66.0872 59.6656 64.9375 59.6875ZM65.8125 55.3125C65.8125 55.7938 65.4188 56.1875 64.9375 56.1875H54.4375C53.9562 56.1875 53.5625 55.7938 53.5625 55.3125V50.0625C53.5625 49.5813 53.9562 49.1875 54.4375 49.1875H64.9375C65.4188 49.1875 65.8125 49.5813 65.8125 50.0625V55.3125ZM23.8125 26.875V67.125C23.8125 69.54 25.7725 71.5 28.1875 71.5H29.9375V22.5H28.1875C25.7725 22.5 23.8125 24.46 23.8125 26.875Z" fill="#46AEE3"/>
<path d="M52.6875 43.5H60.5625V23.375C60.5625 22.8937 60.1688 22.5 59.6875 22.5H31.6875V71.5H48.785C47.9202 70.539 47.4404 69.2928 47.4375 68V48.75C47.4375 45.8538 49.7913 43.5 52.6875 43.5ZM39.125 38.25C37.9788 38.2281 37.9718 36.5227 39.125 36.5H40.875V33.875C40.875 33.3938 41.2688 33 41.75 33C42.2312 33 42.625 33.3938 42.625 33.875V36.5H45.25V31.25C45.2719 30.1029 46.9781 30.0994 47 31.25V36.5H49.625V29.5C49.6443 28.3538 51.354 28.3476 51.375 29.5V36.5H53.125C53.6063 36.5 54 36.8938 54 37.375C54 37.8562 53.6063 38.25 53.125 38.25H39.125Z" fill="#0E78AE"/>
</svg>
