<svg width="94" height="94" viewBox="0 0 94 94" fill="none" xmlns="http://www.w3.org/2000/svg">
<rect x="1" y="1" width="92" height="92" rx="46" fill="white"/>
<rect x="1" y="1" width="92" height="92" rx="46" stroke="#784CB5" stroke-width="2"/>
<g clip-path="url(#clip0_298_186)">
<path fill-rule="evenodd" clip-rule="evenodd" d="M58.4448 33.3234H60.716V41.0164C60.7161 41.15 60.7692 41.2781 60.8637 41.3726C60.9581 41.4671 61.0862 41.5202 61.2199 41.5203H64.7212C64.8549 41.5203 64.9831 41.4672 65.0776 41.3727C65.1721 41.2782 65.2252 41.1501 65.2252 41.0164V33.3234H67.4961C67.5914 33.3234 67.6848 33.2964 67.7654 33.2454C67.8459 33.1944 67.9104 33.1217 67.9513 33.0355C67.9921 32.9494 68.0077 32.8535 67.9962 32.7588C67.9847 32.6642 67.9467 32.5748 67.8864 32.5009L63.3615 26.951C63.3143 26.893 63.2547 26.8463 63.1872 26.8142C63.1196 26.7821 63.0458 26.7655 62.971 26.7655C62.8962 26.7655 62.8224 26.7821 62.7549 26.8142C62.6873 26.8463 62.6277 26.893 62.5805 26.951L58.0546 32.5008C57.9943 32.5747 57.9562 32.6641 57.9447 32.7587C57.9332 32.8534 57.9488 32.9493 57.9897 33.0355C58.0305 33.1216 58.095 33.1944 58.1756 33.2453C58.2561 33.2963 58.3495 33.3234 58.4448 33.3234ZM62.3631 52.149H58.309C58.1753 52.149 58.0471 52.096 57.9526 52.0015C57.8581 51.907 57.8051 51.7788 57.8051 51.6451C57.8051 51.5115 57.8581 51.3833 57.9526 51.2888C58.0471 51.1943 58.1753 51.1412 58.309 51.1412H62.3631C62.4967 51.1412 62.6249 51.1943 62.7194 51.2888C62.8139 51.3833 62.867 51.5115 62.867 51.6451C62.867 51.7788 62.8139 51.907 62.7194 52.0015C62.6249 52.096 62.4967 52.149 62.3631 52.149ZM66.9922 59.1685V44.1216C66.9922 44.0521 66.9785 43.9833 66.9519 43.9191C66.9253 43.8549 66.8863 43.7966 66.8372 43.7474C66.7881 43.6983 66.7298 43.6593 66.6656 43.6327C66.6014 43.6062 66.5326 43.5925 66.4631 43.5925H51.0839V45.2989H61.8775C61.9464 45.299 62.0146 45.3132 62.0777 45.3406C62.1409 45.368 62.1978 45.4081 62.2449 45.4584C62.292 45.5087 62.3283 45.5681 62.3515 45.6329C62.3747 45.6978 62.3844 45.7667 62.3799 45.8354C62.3765 45.8844 62.3748 45.9334 62.3748 45.9824C62.3756 46.5729 62.6106 47.1389 63.0282 47.5564C63.4458 47.9738 64.0119 48.2086 64.6024 48.2092C64.6499 48.2092 64.6978 48.2076 64.7494 48.2045C64.8181 48.2 64.8871 48.2097 64.952 48.233C65.0168 48.2562 65.0762 48.2925 65.1265 48.3396C65.1768 48.3867 65.2169 48.4437 65.2443 48.5069C65.2717 48.5701 65.2859 48.6383 65.2859 48.7072V54.7563C65.2857 54.8899 65.2326 55.018 65.1381 55.1124C65.0437 55.2069 64.9156 55.26 64.782 55.2602C64.1916 55.2608 63.6255 55.4956 63.208 55.913C62.7905 56.3304 62.5556 56.8964 62.5549 57.4868C62.5549 57.6205 62.5018 57.7487 62.4073 57.8432C62.3128 57.9377 62.1846 57.9907 62.051 57.9907H51.0839V59.6973H66.4631C66.5326 59.6973 66.6014 59.6836 66.6656 59.657C66.7298 59.6304 66.7881 59.5915 66.8372 59.5423C66.8863 59.4932 66.9253 59.4349 66.9519 59.3707C66.9785 59.3065 66.9922 59.2377 66.9922 59.1682V59.1685ZM50.0759 66.766C50.0757 66.8882 50.0271 67.0054 49.9407 67.0918C49.8544 67.1783 49.7373 67.227 49.6151 67.2273H26.4686C26.3464 67.227 26.2293 67.1783 26.143 67.0918C26.0566 67.0054 26.008 66.8882 26.0078 66.766V36.524C26.0078 36.4018 26.0564 36.2845 26.1428 36.1981C26.2292 36.1116 26.3464 36.063 26.4686 36.0628H30.5184V38.3106H28.76C28.6263 38.3106 28.4982 38.3637 28.4037 38.4582C28.3092 38.5527 28.2561 38.6809 28.2561 38.8145V44.8621C28.2561 44.9957 28.3092 45.1239 28.4037 45.2184C28.4982 45.3129 28.6263 45.366 28.76 45.366H47.3237C47.4574 45.366 47.5855 45.3129 47.68 45.2184C47.7745 45.1239 47.8276 44.9957 47.8276 44.8621V38.8146C47.8276 38.6809 47.7745 38.5528 47.68 38.4583C47.5855 38.3638 47.4574 38.3107 47.3237 38.3107H45.5653V36.0628H49.6151C49.7373 36.0631 49.8543 36.1118 49.9407 36.1983C50.0271 36.2847 50.0757 36.4018 50.0759 36.524V66.766ZM30.5184 41.5539V39.3186H29.264V44.3581H46.8201V39.319H45.5653V41.5539H45.7658C45.8995 41.5539 46.0276 41.607 46.1221 41.7015C46.2166 41.796 46.2697 41.9242 46.2697 42.0578C46.2697 42.1915 46.2166 42.3196 46.1221 42.4141C46.0276 42.5086 45.8995 42.5617 45.7658 42.5617H30.3179C30.1842 42.5617 30.0561 42.5086 29.9616 42.4141C29.8671 42.3196 29.814 42.1915 29.814 42.0578C29.814 41.9242 29.8671 41.796 29.9616 41.7015C30.0561 41.607 30.1842 41.5539 30.3179 41.5539H30.5184ZM51.0839 55.9254V56.9836H61.5861C61.6937 56.3085 62.0119 55.6846 62.4953 55.2011C62.9787 54.7177 63.6025 54.3994 64.2776 54.2917V49.2014C63.5359 49.1257 62.8431 48.7964 62.3159 48.2692C61.7887 47.742 61.4594 47.0491 61.3836 46.3074H51.0839V47.365C51.7643 47.1335 52.4902 47.0675 53.2012 47.1727C53.9123 47.2778 54.588 47.5509 55.1724 47.9694C55.7567 48.3878 56.2329 48.9396 56.5615 49.5789C56.89 50.2182 57.0613 50.9266 57.0613 51.6453C57.0613 52.3641 56.89 53.0725 56.5615 53.7118C56.2329 54.3511 55.7567 54.9029 55.1724 55.3213C54.588 55.7398 53.9123 56.0129 53.2012 56.118C52.4902 56.2232 51.7643 56.1572 51.0839 55.9257V55.9254ZM51.0839 53.3867V52.3312C51.1606 52.2937 51.2456 52.2763 51.3309 52.2808C51.4162 52.2853 51.4989 52.3114 51.5713 52.3568C51.6436 52.4021 51.7033 52.4651 51.7445 52.5399C51.7857 52.6147 51.8072 52.6987 51.807 52.7841C51.8084 52.8725 51.8295 52.9594 51.8685 53.0386C51.9075 53.1179 51.9637 53.1875 52.0328 53.2425V52.0777C51.6482 51.9691 51.313 51.731 51.0838 51.4037V49.608C51.313 49.2807 51.6482 49.0426 52.0328 48.934V48.7569C52.0328 48.6233 52.0859 48.4951 52.1804 48.4006C52.2749 48.3061 52.4031 48.253 52.5367 48.253C52.6704 48.253 52.7985 48.3061 52.893 48.4006C52.9875 48.4951 53.0406 48.6233 53.0406 48.7569V48.934C53.7534 49.1385 54.2741 49.7655 54.2741 50.5059C54.2741 50.6395 54.221 50.7677 54.1265 50.8622C54.032 50.9567 53.9038 51.0098 53.7702 51.0098C53.6365 51.0098 53.5084 50.9567 53.4139 50.8622C53.3194 50.7677 53.2663 50.6395 53.2663 50.5059C53.265 50.4175 53.2441 50.3305 53.2051 50.2512C53.166 50.1719 53.1098 50.1023 53.0405 50.0474V51.2121C53.7532 51.417 54.2739 52.0441 54.2739 52.7843C54.2739 53.5245 53.7532 54.1517 53.0405 54.3562V54.5325C53.0405 54.6662 52.9874 54.7943 52.8929 54.8888C52.7984 54.9833 52.6702 55.0364 52.5365 55.0364C52.4029 55.0364 52.2747 54.9833 52.1802 54.8888C52.0857 54.7943 52.0326 54.6662 52.0326 54.5325V54.3562C51.6481 54.2476 51.3128 54.0094 51.0836 53.6821V53.3869L51.0839 53.3867ZM54.7782 32.38C54.7769 31.1586 54.2912 29.9876 53.4276 29.1239C52.564 28.2602 51.3931 27.7744 50.1717 27.7731H50.1701C48.9491 27.775 47.7786 28.261 46.9154 29.1246C46.0522 29.9882 45.5666 31.1589 45.5653 32.38V35.0549H49.6151C50.0045 35.0554 50.3778 35.2104 50.6531 35.4858C50.9285 35.7612 51.0834 36.1346 51.0839 36.524V42.5846H54.7782V32.38ZM66.4631 42.5846C66.8705 42.5851 67.2611 42.7472 67.5493 43.0353C67.8374 43.3234 67.9995 43.714 68 44.1215V59.1685C67.9995 59.5759 67.8374 59.9665 67.5493 60.2547C67.2612 60.5428 66.8705 60.7049 66.4631 60.7054H51.0839V66.766C51.0834 67.1554 50.9285 67.5287 50.6531 67.8041C50.3778 68.0794 50.0045 68.2343 49.6151 68.2348H26.4686C26.0793 68.2343 25.706 68.0793 25.4307 67.804C25.1554 67.5287 25.0005 67.1554 25 66.766V36.524C25.0005 36.1346 25.1554 35.7612 25.4307 35.4858C25.7061 35.2105 26.0794 35.0555 26.4688 35.0549H30.5184V30.9663C30.5198 29.8558 30.9603 28.7909 31.7439 28.004C32.5274 27.2171 33.5904 26.7721 34.7009 26.7659H50.1716C51.6602 26.7676 53.0873 27.3597 54.1398 28.4122C55.1924 29.4648 55.7845 30.8918 55.7862 32.3804V42.5846H66.4631ZM47.3236 47.3524H43.9469C43.8807 47.3523 43.8151 47.3653 43.754 47.3906C43.6928 47.4159 43.6372 47.453 43.5904 47.4998C43.5436 47.5466 43.5065 47.6022 43.4812 47.6634C43.4559 47.7245 43.4429 47.7901 43.443 47.8563V51.2336C43.4429 51.2998 43.4559 51.3654 43.4812 51.4265C43.5065 51.4877 43.5436 51.5433 43.5904 51.5901C43.6372 51.6369 43.6928 51.674 43.754 51.6993C43.8151 51.7246 43.8807 51.7376 43.9469 51.7375H47.3239C47.4575 51.7375 47.5857 51.6844 47.6802 51.5899C47.7747 51.4954 47.8278 51.3673 47.8278 51.2336V47.8564C47.8278 47.7227 47.7747 47.5945 47.6802 47.5C47.5857 47.4055 47.4575 47.3524 47.3239 47.3524L47.3236 47.3524ZM39.7309 47.3524H36.3528C36.2191 47.3524 36.0909 47.4055 35.9964 47.5C35.9019 47.5945 35.8489 47.7226 35.8489 47.8563V51.2336C35.8489 51.3673 35.9019 51.4954 35.9964 51.5899C36.0909 51.6844 36.2191 51.7375 36.3528 51.7375H39.7309C39.8645 51.7375 39.9927 51.6844 40.0872 51.5899C40.1817 51.4954 40.2348 51.3673 40.2348 51.2336V47.8564C40.2348 47.7227 40.1817 47.5945 40.0872 47.5C39.9927 47.4055 39.8645 47.3524 39.7309 47.3524ZM32.1369 47.3524H28.76C28.6263 47.3524 28.4982 47.4055 28.4037 47.5C28.3092 47.5945 28.2561 47.7226 28.2561 47.8563V51.2336C28.2561 51.3673 28.3092 51.4954 28.4037 51.5899C28.4982 51.6844 28.6263 51.7375 28.76 51.7375H32.137C32.2706 51.7375 32.3988 51.6844 32.4933 51.5899C32.5878 51.4954 32.6409 51.3673 32.6409 51.2336V47.8564C32.6409 47.7227 32.5878 47.5945 32.4933 47.5C32.3988 47.4055 32.2706 47.3524 32.137 47.3524L32.1369 47.3524ZM47.3236 53.9732H43.9469C43.8807 53.9731 43.8151 53.9861 43.754 54.0114C43.6928 54.0367 43.6372 54.0738 43.5904 54.1206C43.5436 54.1674 43.5065 54.223 43.4812 54.2842C43.4559 54.3453 43.4429 54.4109 43.443 54.4771V57.8545C43.443 57.9882 43.4961 58.1163 43.5906 58.2108C43.6851 58.3053 43.8132 58.3584 43.9469 58.3584H47.3239C47.4575 58.3584 47.5857 58.3053 47.6802 58.2108C47.7747 58.1163 47.8278 57.9882 47.8278 57.8545V54.4772C47.8278 54.3435 47.7747 54.2154 47.6802 54.1209C47.5857 54.0264 47.4575 53.9733 47.3239 53.9733L47.3236 53.9732ZM39.7309 53.9732H36.3528C36.2191 53.9732 36.0909 54.0263 35.9964 54.1208C35.9019 54.2153 35.8489 54.3434 35.8489 54.4771V57.8545C35.8489 57.9882 35.9019 58.1163 35.9964 58.2108C36.0909 58.3053 36.2191 58.3584 36.3528 58.3584H39.7309C39.8645 58.3584 39.9927 58.3053 40.0872 58.2108C40.1817 58.1163 40.2348 57.9882 40.2348 57.8545V54.4772C40.2348 54.3435 40.1817 54.2154 40.0872 54.1209C39.9927 54.0264 39.8645 53.9733 39.7309 53.9733V53.9732ZM32.1369 53.9732H28.76C28.6263 53.9732 28.4982 54.0263 28.4037 54.1208C28.3092 54.2153 28.2561 54.3434 28.2561 54.4771V57.8545C28.2561 57.9882 28.3092 58.1163 28.4037 58.2108C28.4982 58.3053 28.6263 58.3584 28.76 58.3584H32.137C32.2706 58.3584 32.3988 58.3053 32.4933 58.2108C32.5878 58.1163 32.6409 57.9882 32.6409 57.8545V54.4772C32.6409 54.3435 32.5878 54.2154 32.4933 54.1209C32.3988 54.0264 32.2706 53.9733 32.137 53.9733L32.1369 53.9732ZM47.3237 60.594H43.9469C43.8132 60.594 43.6851 60.6471 43.5906 60.7416C43.4961 60.8361 43.443 60.9643 43.443 61.0979V64.4753C43.443 64.609 43.4961 64.7372 43.5906 64.8317C43.6851 64.9262 43.8132 64.9793 43.9469 64.9793H47.3239C47.4575 64.9793 47.5857 64.9262 47.6802 64.8317C47.7747 64.7372 47.8278 64.609 47.8278 64.4753V61.098C47.8278 60.9644 47.7747 60.8362 47.6802 60.7417C47.5857 60.6472 47.4575 60.5941 47.3239 60.5941L47.3237 60.594ZM39.7309 60.594H36.3528C36.2191 60.594 36.0909 60.6471 35.9964 60.7416C35.9019 60.8361 35.8489 60.9643 35.8489 61.0979V64.4753C35.8489 64.609 35.9019 64.7372 35.9964 64.8317C36.0909 64.9262 36.2191 64.9793 36.3528 64.9793H39.7309C39.8645 64.9793 39.9927 64.9262 40.0872 64.8317C40.1817 64.7372 40.2348 64.609 40.2348 64.4753V61.098C40.2348 60.9644 40.1817 60.8362 40.0872 60.7417C39.9927 60.6472 39.8645 60.5941 39.7309 60.5941L39.7309 60.594ZM32.137 60.594H28.76C28.6263 60.594 28.4982 60.6471 28.4037 60.7416C28.3092 60.8361 28.2561 60.9643 28.2561 61.0979V64.4753C28.2561 64.609 28.3092 64.7372 28.4037 64.8317C28.4982 64.9262 28.6263 64.9793 28.76 64.9793H32.137C32.2706 64.9793 32.3988 64.9262 32.4933 64.8317C32.5878 64.7372 32.6409 64.609 32.6409 64.4753V61.098C32.6409 60.9644 32.5878 60.8362 32.4933 60.7417C32.3988 60.6472 32.2706 60.5941 32.137 60.5941V60.594ZM53.0407 52.3257C53.111 52.3797 53.1678 52.4491 53.207 52.5286C53.2462 52.6081 53.2665 52.6955 53.2665 52.7841C53.2665 52.8727 53.2462 52.9601 53.207 53.0396C53.1678 53.1191 53.111 53.1885 53.0407 53.2425V52.3257ZM52.0329 50.0474V50.9643C51.9626 50.9103 51.9057 50.8409 51.8666 50.7614C51.8274 50.6819 51.8071 50.5945 51.8071 50.5058C51.8071 50.4172 51.8274 50.3298 51.8666 50.2503C51.9057 50.1708 51.9626 50.1014 52.0329 50.0474Z" fill="#3C1573"/>
<path fill-rule="evenodd" clip-rule="evenodd" d="M62.3631 52.149H58.309C58.1753 52.149 58.0471 52.0959 57.9526 52.0014C57.8581 51.9069 57.8051 51.7788 57.8051 51.6451C57.8051 51.5115 57.8581 51.3833 57.9526 51.2888C58.0471 51.1943 58.1753 51.1412 58.309 51.1412H62.3631C62.4967 51.1412 62.6249 51.1943 62.7194 51.2888C62.8139 51.3833 62.867 51.5115 62.867 51.6451C62.867 51.7788 62.8139 51.9069 62.7194 52.0014C62.6249 52.0959 62.4967 52.149 62.3631 52.149ZM66.9922 59.1684V44.1216C66.9922 44.0521 66.9785 43.9833 66.9519 43.9191C66.9253 43.8549 66.8863 43.7966 66.8372 43.7474C66.7881 43.6983 66.7298 43.6593 66.6656 43.6327C66.6014 43.6061 66.5326 43.5925 66.4631 43.5925H51.0839V45.2989H61.8775C61.9464 45.299 62.0146 45.3132 62.0777 45.3406C62.1409 45.368 62.1978 45.4081 62.2449 45.4584C62.292 45.5087 62.3283 45.5681 62.3515 45.6329C62.3747 45.6978 62.3844 45.7667 62.3799 45.8354C62.3765 45.8843 62.3748 45.9334 62.3748 45.9824C62.3756 46.5729 62.6106 47.1389 63.0282 47.5563C63.4458 47.9738 64.0119 48.2086 64.6024 48.2092C64.6499 48.2092 64.6978 48.2076 64.7494 48.2045C64.8181 48.2 64.8871 48.2097 64.952 48.2329C65.0168 48.2562 65.0762 48.2925 65.1265 48.3396C65.1768 48.3867 65.2169 48.4437 65.2443 48.5069C65.2717 48.5701 65.2859 48.6383 65.2859 48.7072V54.7562C65.2857 54.8898 65.2326 55.0179 65.1381 55.1124C65.0437 55.2069 64.9156 55.26 64.782 55.2601C64.1916 55.2608 63.6255 55.4956 63.208 55.913C62.7905 56.3304 62.5556 56.8964 62.5549 57.4868C62.5549 57.6205 62.5018 57.7486 62.4073 57.8431C62.3128 57.9376 62.1846 57.9907 62.051 57.9907H51.0839V59.6973H66.4631C66.5326 59.6973 66.6014 59.6836 66.6656 59.657C66.7298 59.6304 66.7881 59.5915 66.8372 59.5423C66.8863 59.4932 66.9253 59.4349 66.9519 59.3707C66.9785 59.3065 66.9922 59.2379 66.9922 59.1684ZM50.0759 66.766C50.0757 66.8882 50.0271 67.0054 49.9407 67.0918C49.8544 67.1783 49.7373 67.227 49.6151 67.2272H26.4686C26.3464 67.227 26.2293 67.1783 26.143 67.0918C26.0566 67.0054 26.008 66.8882 26.0078 66.766V36.524C26.0078 36.4017 26.0564 36.2845 26.1428 36.198C26.2292 36.1116 26.3464 36.0629 26.4686 36.0628H30.5184V38.3106H28.76C28.6263 38.3106 28.4982 38.3637 28.4037 38.4582C28.3092 38.5527 28.2561 38.6809 28.2561 38.8145V44.862C28.2561 44.9957 28.3092 45.1239 28.4037 45.2184C28.4982 45.3129 28.6263 45.3659 28.76 45.3659H47.3237C47.4574 45.3659 47.5855 45.3129 47.68 45.2184C47.7745 45.1239 47.8276 44.9957 47.8276 44.862V38.8146C47.8276 38.6809 47.7745 38.5528 47.68 38.4583C47.5855 38.3638 47.4574 38.3107 47.3237 38.3107H45.5653V36.0628H49.6151C49.7373 36.0631 49.8543 36.1118 49.9407 36.1982C50.0271 36.2847 50.0757 36.4018 50.0759 36.524V66.766ZM30.5184 41.5539V39.3186H29.264V44.3581H46.8201V39.319H45.5653V41.5539H45.7658C45.8995 41.5539 46.0276 41.607 46.1221 41.7015C46.2166 41.796 46.2697 41.9242 46.2697 42.0578C46.2697 42.1915 46.2166 42.3196 46.1221 42.4141C46.0276 42.5086 45.8995 42.5617 45.7658 42.5617H30.3179C30.1842 42.5617 30.0561 42.5086 29.9616 42.4141C29.8671 42.3196 29.814 42.1915 29.814 42.0578C29.814 41.9242 29.8671 41.796 29.9616 41.7015C30.0561 41.607 30.1842 41.5539 30.3179 41.5539H30.5184ZM51.0839 55.9254V56.9836H61.5861C61.6937 56.3084 62.0119 55.6846 62.4953 55.2011C62.9787 54.7177 63.6025 54.3994 64.2776 54.2917V49.2014C63.5359 49.1257 62.8431 48.7964 62.3159 48.2692C61.7887 47.742 61.4594 47.0491 61.3836 46.3074H51.0839V47.3649C51.7643 47.1335 52.4902 47.0675 53.2012 47.1726C53.9123 47.2778 54.588 47.5509 55.1724 47.9693C55.7567 48.3878 56.2329 48.9396 56.5615 49.5789C56.89 50.2182 57.0613 50.9266 57.0613 51.6453C57.0613 52.3641 56.89 53.0725 56.5615 53.7118C56.2329 54.3511 55.7567 54.9029 55.1724 55.3213C54.588 55.7398 53.9123 56.0129 53.2012 56.118C52.4902 56.2231 51.7643 56.1569 51.0839 55.9254ZM51.0839 53.3867V52.3312C51.1606 52.2937 51.2456 52.2763 51.3309 52.2808C51.4162 52.2853 51.4989 52.3114 51.5713 52.3567C51.6436 52.4021 51.7033 52.4651 51.7445 52.5399C51.7857 52.6147 51.8072 52.6987 51.807 52.7841C51.8084 52.8725 51.8295 52.9594 51.8685 53.0386C51.9075 53.1179 51.9637 53.1875 52.0328 53.2425V52.0776C51.6482 51.9691 51.313 51.731 51.0838 51.4037V49.608C51.313 49.2807 51.6482 49.0426 52.0328 48.934V48.7569C52.0328 48.6233 52.0859 48.4951 52.1804 48.4006C52.2749 48.3061 52.4031 48.253 52.5367 48.253C52.6704 48.253 52.7985 48.3061 52.893 48.4006C52.9875 48.4951 53.0406 48.6233 53.0406 48.7569V48.934C53.7534 49.1384 54.2741 49.7655 54.2741 50.5059C54.2741 50.6395 54.221 50.7677 54.1265 50.8622C54.032 50.9567 53.9038 51.0098 53.7702 51.0098C53.6365 51.0098 53.5084 50.9567 53.4139 50.8622C53.3194 50.7677 53.2663 50.6395 53.2663 50.5059C53.265 50.4175 53.2441 50.3305 53.2051 50.2512C53.166 50.1719 53.1098 50.1023 53.0405 50.0474V51.2121C53.7532 51.4169 54.2739 52.0441 54.2739 52.7843C54.2739 53.5244 53.7532 54.1516 53.0405 54.3561V54.5325C53.0405 54.6662 52.9874 54.7943 52.8929 54.8888C52.7984 54.9833 52.6702 55.0364 52.5365 55.0364C52.4029 55.0364 52.2747 54.9833 52.1802 54.8888C52.0857 54.7943 52.0326 54.6662 52.0326 54.5325V54.3561C51.6481 54.2475 51.3128 54.0094 51.0836 53.6821L51.0839 53.3867ZM54.7782 32.38C54.7769 31.1586 54.2912 29.9876 53.4276 29.1239C52.564 28.2602 51.3931 27.7744 50.1717 27.7731H50.1701C48.9491 27.775 47.7786 28.261 46.9154 29.1246C46.0522 29.9882 45.5666 31.1589 45.5653 32.38V35.0549H49.6151C50.0045 35.0554 50.3778 35.2104 50.6531 35.4858C50.9285 35.7612 51.0834 36.1346 51.0839 36.524V42.5846H54.7782V32.38ZM66.4631 42.5846C66.8705 42.5851 67.2611 42.7472 67.5493 43.0353C67.8374 43.3234 67.9995 43.714 68 44.1215V59.1684C67.9995 59.5759 67.8374 59.9665 67.5493 60.2546C67.2612 60.5428 66.8705 60.7048 66.4631 60.7054H51.0839V66.766C51.0834 67.1554 50.9285 67.5287 50.6531 67.8041C50.3778 68.0794 50.0045 68.2343 49.6151 68.2348H26.4686C26.0793 68.2343 25.706 68.0793 25.4307 67.804C25.1554 67.5286 25.0005 67.1554 25 66.766V36.524C25.0005 36.1346 25.1554 35.7612 25.4307 35.4858C25.7061 35.2104 26.0794 35.0555 26.4688 35.0549H30.5184V30.9662C30.5198 29.8558 30.9603 28.7909 31.7439 28.004C32.5274 27.2171 33.5904 26.772 34.7009 26.7659H50.1716C51.6602 26.7676 53.0873 27.3596 54.1398 28.4122C55.1924 29.4647 55.7845 30.8918 55.7862 32.3804V42.5846H66.4631ZM47.3236 47.3524H43.9469C43.8807 47.3523 43.8151 47.3653 43.754 47.3906C43.6928 47.4159 43.6372 47.453 43.5904 47.4998C43.5436 47.5466 43.5065 47.6022 43.4812 47.6633C43.4559 47.7245 43.4429 47.7901 43.443 47.8563V51.2336C43.4429 51.2998 43.4559 51.3653 43.4812 51.4265C43.5065 51.4877 43.5436 51.5433 43.5904 51.5901C43.6372 51.6369 43.6928 51.674 43.754 51.6993C43.8151 51.7246 43.8807 51.7376 43.9469 51.7375H47.3239C47.4575 51.7375 47.5857 51.6844 47.6802 51.5899C47.7747 51.4954 47.8278 51.3672 47.8278 51.2336V47.8563C47.8278 47.7227 47.7747 47.5945 47.6802 47.5C47.5857 47.4055 47.4573 47.3524 47.3236 47.3524ZM39.7309 47.3524H36.3528C36.2191 47.3524 36.0909 47.4054 35.9964 47.4999C35.9019 47.5944 35.8488 47.7226 35.8488 47.8563V51.2336C35.8488 51.3672 35.9019 51.4954 35.9964 51.5899C36.0909 51.6844 36.2191 51.7375 36.3528 51.7375H39.7309C39.8645 51.7375 39.9927 51.6844 40.0872 51.5899C40.1817 51.4954 40.2348 51.3672 40.2348 51.2336V47.8563C40.2348 47.7227 40.1817 47.5945 40.0872 47.5C39.9927 47.4055 39.8645 47.3524 39.7309 47.3524ZM32.1369 47.3524H28.76C28.6263 47.3524 28.4982 47.4054 28.4037 47.4999C28.3092 47.5944 28.2561 47.7226 28.2561 47.8563V51.2336C28.2561 51.3672 28.3092 51.4954 28.4037 51.5899C28.4982 51.6844 28.6263 51.7375 28.76 51.7375H32.137C32.2706 51.7375 32.3988 51.6844 32.4933 51.5899C32.5878 51.4954 32.6409 51.3672 32.6409 51.2336V47.8563C32.6409 47.7227 32.5878 47.5945 32.4933 47.5C32.3988 47.4055 32.2706 47.3524 32.1369 47.3524ZM47.3236 53.9732H43.9469C43.8807 53.9731 43.8151 53.9861 43.754 54.0114C43.6928 54.0367 43.6372 54.0738 43.5904 54.1206C43.5436 54.1674 43.5065 54.223 43.4812 54.2842C43.4559 54.3453 43.4429 54.4109 43.443 54.4771V57.8545C43.443 57.9882 43.4961 58.1163 43.5906 58.2108C43.6851 58.3053 43.8132 58.3584 43.9469 58.3584H47.3239C47.4575 58.3584 47.5857 58.3053 47.6802 58.2108C47.7747 58.1163 47.8278 57.9882 47.8278 57.8545V54.4772C47.8278 54.3435 47.7747 54.2153 47.6802 54.1208C47.5857 54.0263 47.4573 53.9732 47.3236 53.9732ZM39.7309 53.9732H36.3528C36.2191 53.9732 36.0909 54.0263 35.9964 54.1208C35.9019 54.2153 35.8488 54.3434 35.8488 54.4771V57.8545C35.8488 57.9882 35.9019 58.1163 35.9964 58.2108C36.0909 58.3053 36.2191 58.3584 36.3528 58.3584H39.7309C39.8645 58.3584 39.9927 58.3053 40.0872 58.2108C40.1817 58.1163 40.2348 57.9882 40.2348 57.8545V54.4772C40.2348 54.3435 40.1817 54.2153 40.0872 54.1208C39.9927 54.0263 39.8645 53.9732 39.7309 53.9732ZM32.1369 53.9732H28.76C28.6263 53.9732 28.4982 54.0263 28.4037 54.1208C28.3092 54.2153 28.2561 54.3434 28.2561 54.4771V57.8545C28.2561 57.9882 28.3092 58.1163 28.4037 58.2108C28.4982 58.3053 28.6263 58.3584 28.76 58.3584H32.137C32.2706 58.3584 32.3988 58.3053 32.4933 58.2108C32.5878 58.1163 32.6409 57.9882 32.6409 57.8545V54.4772C32.6409 54.3435 32.5878 54.2153 32.4933 54.1208C32.3988 54.0263 32.2706 53.9732 32.1369 53.9732ZM47.3237 60.594H43.9469C43.8132 60.594 43.6851 60.6471 43.5906 60.7416C43.4961 60.8361 43.443 60.9643 43.443 61.0979V64.4753C43.443 64.609 43.4961 64.7371 43.5906 64.8316C43.6851 64.9261 43.8132 64.9792 43.9469 64.9792H47.3239C47.4575 64.9792 47.5857 64.9261 47.6802 64.8316C47.7747 64.7371 47.8278 64.609 47.8278 64.4753V61.098C47.8278 60.9643 47.7747 60.8362 47.6802 60.7417C47.5857 60.6472 47.4574 60.594 47.3237 60.594ZM39.7309 60.594H36.3528C36.2191 60.594 36.0909 60.6471 35.9964 60.7416C35.9019 60.8361 35.8488 60.9643 35.8488 61.0979V64.4753C35.8488 64.609 35.9019 64.7371 35.9964 64.8316C36.0909 64.9261 36.2191 64.9792 36.3528 64.9792H39.7309C39.8645 64.9792 39.9927 64.9261 40.0872 64.8316C40.1817 64.7371 40.2348 64.609 40.2348 64.4753V61.098C40.2348 60.9643 40.1817 60.8362 40.0872 60.7417C39.9927 60.6472 39.8646 60.594 39.7309 60.594ZM32.137 60.594H28.76C28.6263 60.594 28.4982 60.6471 28.4037 60.7416C28.3092 60.8361 28.2561 60.9643 28.2561 61.0979V64.4753C28.2561 64.609 28.3092 64.7371 28.4037 64.8316C28.4982 64.9261 28.6263 64.9792 28.76 64.9792H32.137C32.2706 64.9792 32.3988 64.9261 32.4933 64.8316C32.5878 64.7371 32.6409 64.609 32.6409 64.4753V61.098C32.6409 60.9643 32.5878 60.8362 32.4933 60.7417C32.3988 60.6472 32.2706 60.594 32.137 60.594ZM53.0407 52.3257C53.111 52.3797 53.1678 52.4491 53.207 52.5286C53.2462 52.6081 53.2665 52.6955 53.2665 52.7841C53.2665 52.8727 53.2462 52.9601 53.207 53.0396C53.1678 53.1191 53.111 53.1885 53.0407 53.2425V52.3257ZM52.0329 50.0474V50.9643C51.9626 50.9103 51.9057 50.8408 51.8666 50.7614C51.8274 50.6819 51.8071 50.5944 51.8071 50.5058C51.8071 50.4172 51.8274 50.3298 51.8666 50.2503C51.9057 50.1708 51.9626 50.1014 52.0329 50.0474Z" fill="#784CB5"/>
</g>
<defs>
<clipPath id="clip0_298_186">
<rect width="43" height="43" fill="white" transform="translate(25 26)"/>
</clipPath>
</defs>
</svg>
