<svg width="94" height="94" viewBox="0 0 94 94" fill="none" xmlns="http://www.w3.org/2000/svg">
<rect x="1" y="1" width="92" height="92" rx="46" fill="white"/>
<rect x="1" y="1" width="92" height="92" rx="46" stroke="#54A917" stroke-width="2"/>
<path fill-rule="evenodd" clip-rule="evenodd" d="M61.7518 68.9927H37.5548C36.8426 68.9927 36.2628 68.4132 36.2628 67.7006V33.2439C36.2628 32.5316 36.8426 31.9524 37.5548 31.9524H61.7518C62.464 31.9524 63.0433 32.5319 63.0433 33.2439V67.7006C63.0433 68.4129 62.464 68.9927 61.7518 68.9927ZM49.5463 39.6604H47.6942L46.9074 41.3525C46.6295 41.9512 45.7134 41.5304 45.9938 40.928L48.1225 36.3503C48.2977 35.9731 48.8411 35.9544 49.0311 36.3399L51.2904 40.9177C51.5844 41.5123 50.6809 41.9585 50.3871 41.3636L49.5468 39.6607L49.5463 39.6604ZM48.1626 38.6531H49.0492L48.5929 37.7282L48.1629 38.6531H48.1626ZM45.6657 37.0923H44.1938V41.1432C44.1938 41.8066 43.1863 41.8061 43.1863 41.1432V37.0923H41.7632C41.1001 37.0923 41.1001 36.0847 41.7632 36.0847H45.6657C46.3286 36.0847 46.3291 37.0923 45.6657 37.0923ZM56.4202 41.6468C56.267 41.6468 56.1158 41.5773 56.0168 41.4453L54.7129 39.7058L53.4093 41.4448C53.0155 41.9696 52.2035 41.3737 52.6031 40.8406L54.0835 38.8658L52.6028 36.8904C52.2065 36.3621 53.0127 35.7574 53.409 36.2863L54.7129 38.0257L56.017 36.2858C56.4139 35.7574 57.2194 36.3616 56.8233 36.8899L55.3423 38.8658L56.823 40.8411C57.0747 41.1767 56.8233 41.6466 56.4202 41.6466V41.6468ZM56.7452 45.1775H41.438C40.7748 45.1775 40.7748 44.1702 41.438 44.1702H56.7452C57.4081 44.1702 57.4083 45.1775 56.7452 45.1775ZM56.7452 51.4567H41.438C40.7751 51.4567 40.7751 50.4491 41.438 50.4491H56.7452C57.4081 50.4491 57.4083 51.4567 56.7452 51.4567ZM49.4861 57.7351H41.438C40.7751 57.7351 40.7751 56.7278 41.438 56.7278H49.4861C50.1493 56.7278 50.1493 57.7351 49.4861 57.7351ZM49.4861 64.0138H41.438C40.7751 64.0138 40.7751 63.0065 41.438 63.0065H49.4861C50.1493 63.0065 50.1493 64.0138 49.4861 64.0138ZM55.1765 58.9891C54.9321 58.9891 54.5456 59.2443 54.7583 59.6328C54.9679 60.0158 56.6474 59.7633 56.6474 61.3093C56.6474 61.9758 56.272 62.4633 55.7008 62.6603C55.6073 63.4867 54.7819 63.5185 54.6592 62.7041C53.501 62.4162 53.2352 61.0302 53.9933 60.9216C54.7059 60.8195 54.4385 61.851 55.0374 61.7661C55.3645 61.7198 55.8528 61.5777 55.595 61.106C55.3869 60.7253 53.7059 60.9755 53.7059 59.43C53.7059 58.7271 54.1246 58.2713 54.6542 58.0788C54.7484 57.266 55.565 57.2299 55.6925 58.0284C56.2312 58.1662 56.6935 58.5678 56.789 59.2491C56.881 59.9057 55.8832 60.0463 55.7913 59.3889C55.7333 58.9755 55.3816 58.9886 55.1768 58.9886L55.1765 58.9891ZM57.8676 64.8861H52.4854C52.2072 64.8861 51.9817 64.6601 51.9817 64.3824V56.3589C51.9817 56.0808 52.2077 55.855 52.4854 55.855H57.8676C58.1458 55.855 58.3715 56.081 58.3715 56.3589V64.3824C58.372 64.6606 58.1458 64.8861 57.8676 64.8861ZM52.9895 63.8783H57.364V56.8628H52.9895V63.8783Z" fill="#54A917"/>
<path fill-rule="evenodd" clip-rule="evenodd" d="M35.4231 63.0474H31.2487C30.5364 63.0474 29.9567 62.4676 29.9567 61.7553V27.2986C29.9567 26.5863 30.5364 26.0071 31.2487 26.0071H55.4456C56.1579 26.0071 56.7376 26.5863 56.7376 27.2986V31.1129H37.5551C36.3795 31.1129 35.4233 32.0683 35.4233 33.2442V63.0474H35.4231Z" fill="#3E7D10"/>
<path fill-rule="evenodd" clip-rule="evenodd" d="M49.0492 38.6532L48.5929 37.7283L48.1628 38.6532H49.0492Z" fill="#54A917"/>
</svg>
